<?xml version="1.0" encoding="UTF-8"?>
<svg width="220px" height="210px" viewBox="0 0 220 210" version="1.1" xmlns="http://www.w3.org/2000/svg" xmlns:xlink="http://www.w3.org/1999/xlink">
    <!-- Generator: Sketch 43.1 (39012) - http://www.bohemiancoding.com/sketch -->
    <title>pwa</title>
    <desc>Created with Sketch.</desc>
    <defs>
        <circle id="path-1" cx="102.625" cy="102.75" r="102.625"></circle>
        <linearGradient x1="0%" y1="646.655475%" x2="100%" y2="187.209092%" id="linearGradient-3">
            <stop stop-color="#A49522" offset="0%"></stop>
            <stop stop-color="#F5DC23" offset="100%"></stop>
        </linearGradient>
        <linearGradient x1="98.0535697%" y1="291.848926%" x2="54.2119908%" y2="377.268622%" id="linearGradient-4">
            <stop stop-color="#E36969" offset="0%"></stop>
            <stop stop-color="#DB9696" offset="100%"></stop>
        </linearGradient>
        <linearGradient x1="50%" y1="40.5587804%" x2="50%" y2="100%" id="linearGradient-5">
            <stop stop-color="#A49522" offset="0%"></stop>
            <stop stop-color="#F5DC23" offset="100%"></stop>
        </linearGradient>
        <filter x="-7.5%" y="-3.0%" width="114.5%" height="110.1%" filterUnits="objectBoundingBox" id="filter-6">
            <feOffset dx="0" dy="2" in="SourceAlpha" result="shadowOffsetOuter1"></feOffset>
            <feGaussianBlur stdDeviation="2" in="shadowOffsetOuter1" result="shadowBlurOuter1"></feGaussianBlur>
            <feColorMatrix values="0 0 0 0 1   0 0 0 0 1   0 0 0 0 1  0 0 0 0.5 0" type="matrix" in="shadowBlurOuter1" result="shadowMatrixOuter1"></feColorMatrix>
            <feMerge>
                <feMergeNode in="shadowMatrixOuter1"></feMergeNode>
                <feMergeNode in="SourceGraphic"></feMergeNode>
            </feMerge>
        </filter>
        <linearGradient x1="50%" y1="0%" x2="268.558929%" y2="161.561723%" id="linearGradient-7">
            <stop stop-color="#B77CD9" offset="0%"></stop>
            <stop stop-color="#5A68EA" offset="100%"></stop>
        </linearGradient>
        <path d="M0.0500243801,92.4747634 C0.0500243801,92.4747634 -0.66924608,119.115371 7.65763109,135.783909 C10.2221375,140.917474 12.3861605,148.17068 19,155" id="path-8"></path>
        <filter x="-55.4%" y="-13.6%" width="210.7%" height="133.6%" filterUnits="objectBoundingBox" id="filter-9">
            <feMorphology radius="3.5" operator="dilate" in="SourceAlpha" result="shadowSpreadOuter1"></feMorphology>
            <feOffset dx="0" dy="2" in="shadowSpreadOuter1" result="shadowOffsetOuter1"></feOffset>
            <feMorphology radius="3.5" operator="erode" in="SourceAlpha" result="shadowInner"></feMorphology>
            <feOffset dx="0" dy="2" in="shadowInner" result="shadowInner"></feOffset>
            <feComposite in="shadowOffsetOuter1" in2="shadowInner" operator="out" result="shadowOffsetOuter1"></feComposite>
            <feGaussianBlur stdDeviation="2" in="shadowOffsetOuter1" result="shadowBlurOuter1"></feGaussianBlur>
            <feColorMatrix values="0 0 0 0 0   0 0 0 0 0   0 0 0 0 0  0 0 0 0.5 0" type="matrix" in="shadowBlurOuter1"></feColorMatrix>
        </filter>
        <path d="M56.6569981,15.7368959 C56.3133438,12.9969012 53.9422984,10.4487143 51.3913766,11.5096509 C51.3913766,11.5096509 54.0906734,6.96591695 39.0854313,21.4374018 C32.6200645,27.6727866 21.7595946,38.0257543 13.5617488,52.3883623 C9.13205107,60.149183 3.79258326,73.6097872 1.58893435,82.6597966 C-0.614714557,91.709806 0.470955243,97 0.470955243,97 L61.8463923,97 C64.6093344,97 66.5709505,94.7819524 66.2269002,92.0388007 L56.6569981,15.7368959 Z" id="path-10"></path>
        <filter x="-15.9%" y="-9.9%" width="131.8%" height="124.4%" filterUnits="objectBoundingBox" id="filter-11">
            <feMorphology radius="3.5" operator="dilate" in="SourceAlpha" result="shadowSpreadOuter1"></feMorphology>
            <feOffset dx="0" dy="2" in="shadowSpreadOuter1" result="shadowOffsetOuter1"></feOffset>
            <feMorphology radius="3.5" operator="erode" in="SourceAlpha" result="shadowInner"></feMorphology>
            <feOffset dx="0" dy="2" in="shadowInner" result="shadowInner"></feOffset>
            <feComposite in="shadowOffsetOuter1" in2="shadowInner" operator="out" result="shadowOffsetOuter1"></feComposite>
            <feGaussianBlur stdDeviation="2" in="shadowOffsetOuter1" result="shadowBlurOuter1"></feGaussianBlur>
            <feColorMatrix values="0 0 0 0 0   0 0 0 0 0   0 0 0 0 0  0 0 0 0.5 0" type="matrix" in="shadowBlurOuter1"></feColorMatrix>
        </filter>
        <path d="M70,5.17292894 L80.928732,189.317796 C81.0921529,192.071373 81.7325834,192.116647 82.3557399,189.4337 L99.9298061,113.770067 C101.180174,108.386715 103.050039,108.421748 104.104132,113.837344 L118.623351,188.43253 C119.151555,191.146276 119.755058,191.118429 119.972008,188.361492 L134.387595,5.17292894" id="path-12"></path>
        <filter x="-16.3%" y="-4.6%" width="132.6%" height="111.3%" filterUnits="objectBoundingBox" id="filter-13">
            <feMorphology radius="3.5" operator="dilate" in="SourceAlpha" result="shadowSpreadOuter1"></feMorphology>
            <feOffset dx="0" dy="2" in="shadowSpreadOuter1" result="shadowOffsetOuter1"></feOffset>
            <feMorphology radius="3.5" operator="erode" in="SourceAlpha" result="shadowInner"></feMorphology>
            <feOffset dx="0" dy="2" in="shadowInner" result="shadowInner"></feOffset>
            <feComposite in="shadowOffsetOuter1" in2="shadowInner" operator="out" result="shadowOffsetOuter1"></feComposite>
            <feGaussianBlur stdDeviation="2" in="shadowOffsetOuter1" result="shadowBlurOuter1"></feGaussianBlur>
            <feColorMatrix values="0 0 0 0 0   0 0 0 0 0   0 0 0 0 0  0 0 0 0.5 0" type="matrix" in="shadowBlurOuter1"></feColorMatrix>
        </filter>
        <path d="M132,193 L146.364836,53.304985 C146.647659,50.5545832 148.637227,49.6998486 150.782444,51.4520265 C150.782444,51.4520265 169.961729,65.5931221 183.689758,88.5707417 C197.417786,111.548361 197.613385,122.64745 198.698549,132.896558 C200.016777,145.346902 192.877547,160.448233 185.204099,175.329199" id="path-14"></path>
        <filter x="-15.7%" y="-6.0%" width="131.4%" height="114.7%" filterUnits="objectBoundingBox" id="filter-15">
            <feMorphology radius="3.5" operator="dilate" in="SourceAlpha" result="shadowSpreadOuter1"></feMorphology>
            <feOffset dx="0" dy="2" in="shadowSpreadOuter1" result="shadowOffsetOuter1"></feOffset>
            <feMorphology radius="3.5" operator="erode" in="SourceAlpha" result="shadowInner"></feMorphology>
            <feOffset dx="0" dy="2" in="shadowInner" result="shadowInner"></feOffset>
            <feComposite in="shadowOffsetOuter1" in2="shadowInner" operator="out" result="shadowOffsetOuter1"></feComposite>
            <feGaussianBlur stdDeviation="2" in="shadowOffsetOuter1" result="shadowBlurOuter1"></feGaussianBlur>
            <feColorMatrix values="0 0 0 0 0   0 0 0 0 0   0 0 0 0 0  0 0 0 0.5 0" type="matrix" in="shadowBlurOuter1"></feColorMatrix>
        </filter>
        <path d="M138.698159,135.285186 L197.688516,135" id="path-16"></path>
        <filter x="-17.8%" y="-850.0%" width="135.6%" height="2200.0%" filterUnits="objectBoundingBox" id="filter-17">
            <feMorphology radius="3.5" operator="dilate" in="SourceAlpha" result="shadowSpreadOuter1"></feMorphology>
            <feOffset dx="0" dy="2" in="shadowSpreadOuter1" result="shadowOffsetOuter1"></feOffset>
            <feMorphology radius="3.5" operator="erode" in="SourceAlpha" result="shadowInner"></feMorphology>
            <feOffset dx="0" dy="2" in="shadowInner" result="shadowInner"></feOffset>
            <feComposite in="shadowOffsetOuter1" in2="shadowInner" operator="out" result="shadowOffsetOuter1"></feComposite>
            <feGaussianBlur stdDeviation="2" in="shadowOffsetOuter1" result="shadowBlurOuter1"></feGaussianBlur>
            <feColorMatrix values="0 0 0 0 0   0 0 0 0 0   0 0 0 0 0  0 0 0 0.5 0" type="matrix" in="shadowBlurOuter1"></feColorMatrix>
        </filter>
    </defs>
    <g id="Page-1" stroke="none" stroke-width="1" fill="none" fill-rule="evenodd">
        <g id="Path-6-+-Path-7-+-Path-8-Mask" transform="translate(115.034296, 104.929886) rotate(-1.000000) translate(-115.034296, -104.929886) translate(12.034296, 1.929886)">
            <mask id="mask-2" fill="white">
                <use xlink:href="#path-1"></use>
            </mask>
            <g id="Mask"></g>
            <path d="M135.478124,16.6237801 L159.474469,17.0426379" id="Path-6" stroke="url(#linearGradient-3)" stroke-width="5" mask="url(#mask-2)"></path>
            <path d="M135.5,25.5 L169.589427,26.0138457" id="Path-7" stroke="url(#linearGradient-3)" stroke-width="5" mask="url(#mask-2)"></path>
            <path d="M134.5,35.5 L179.194372,35.5" id="Path-8" stroke="url(#linearGradient-3)" stroke-width="5" mask="url(#mask-2)"></path>
            <path d="M134.5,46.5 L179.194372,46.5" id="Path-8" stroke="url(#linearGradient-3)" stroke-width="5" mask="url(#mask-2)"></path>
            <path d="M7.44933052,164.5 L68.5464802,164.5" id="Path-9" stroke="url(#linearGradient-4)" stroke-width="5" mask="url(#mask-2)"></path>
            <path d="M9.8697749,183.5 L70.5,183.5" id="Path-10" stroke="url(#linearGradient-4)" stroke-width="5" mask="url(#mask-2)"></path>
            <path d="M11.5,173.5 L69.5,173.5" id="Path-11" stroke="url(#linearGradient-4)" stroke-width="5" mask="url(#mask-2)"></path>
            <path d="M11.5,192.5 L71.5333241,192.5" id="Path-11" stroke="url(#linearGradient-4)" stroke-width="5" mask="url(#mask-2)"></path>
            <g id="Group-2" mask="url(#mask-2)" fill-opacity="0.5">
                <g transform="translate(-49.000000, -36.000000)" id="Oval-3">
                    <path d="M105.057733,90.9730342 C114.354318,90.257202 140.253643,82.8523243 151.524761,75.5915569 C162.795879,68.3307894 172,56.1085787 172,48.6888822 C172,34.6057893 152.460219,23.0006092 130.233948,23.0006092 C108.007677,23.0006092 29,63.9718384 29,78.0549313 C29,82.1563788 40.7936702,84.9552431 48.0610999,87.0200736 C51.4589603,87.9854776 61.1896489,90.6835523 71.4941918,91.5499505 C81.7987347,92.4163486 97.642723,91.5439861 105.057733,90.9730342 Z" fill="url(#linearGradient-5)"></path>
                    <path d="M102.99924,125.577936 C113.478271,124.497673 142.671769,113.322956 155.376477,102.365717 C168.081185,91.408478 178.455991,72.9639146 178.455991,61.7668352 C178.455991,40.5140105 156.430917,23.0006092 131.377654,23.0006092 C106.324392,23.0006092 17.2676137,84.830376 17.2676137,106.083201 C17.2676137,112.272704 24.8271709,117.307665 33.0189555,120.423705 C36.8489947,121.880598 53.5515106,125.141079 65.1667032,126.448562 C76.7818958,127.756045 94.6411039,126.439561 102.99924,125.577936 Z" fill="url(#linearGradient-5)"></path>
                    <path d="M96.3877942,160.835697 C103.605591,159.56252 124.051544,154.290774 141.593485,141.101429 C159.135425,127.912084 161.891037,120.24231 166.570772,114.779365 C180.059861,99.0327166 178.445547,85.8022659 178.445547,69.7109431 C178.445547,39.168509 155.060658,14 128.460622,14 C101.860585,14 18.2166546,109.115284 18.2166546,139.657719 C18.2166546,148.552653 14.2571889,150.713845 22.9547296,155.191906 C27.0212332,157.285607 40.3384827,160.801131 52.6707906,162.680116 C65.0030985,164.5591 87.2338828,162.450395 96.3877942,160.835697 Z" fill="url(#linearGradient-5)"></path>
                    <ellipse fill="url(#linearGradient-4)" transform="translate(214.956458, 194.007944) rotate(140.000000) translate(-214.956458, -194.007944) " cx="214.956458" cy="194.007944" rx="95.1649488" ry="45.5087262"></ellipse>
                    <ellipse fill="url(#linearGradient-4)" transform="translate(213.602457, 236.256599) rotate(152.000000) translate(-213.602457, -236.256599) " cx="213.602457" cy="236.256599" rx="108.264894" ry="42.1058573"></ellipse>
                    <ellipse fill="url(#linearGradient-4)" transform="translate(223.541822, 163.418942) rotate(140.000000) translate(-223.541822, -163.418942) " cx="223.541822" cy="163.418942" rx="116.197511" ry="60.9839485"></ellipse>
                </g>
            </g>
        </g>
        <g id="Group" filter="url(#filter-6)" transform="translate(109.000000, 104.000000) rotate(-1.000000) translate(-109.000000, -104.000000) translate(9.000000, 5.000000)">
            <g id="Path">
                <use fill="black" fill-opacity="1" filter="url(#filter-9)" xlink:href="#path-8"></use>
                <use stroke="url(#linearGradient-7)" stroke-width="7" xlink:href="#path-8"></use>
            </g>
            <g id="Path-2">
                <use fill="black" fill-opacity="1" filter="url(#filter-11)" xlink:href="#path-10"></use>
                <use stroke="url(#linearGradient-7)" stroke-width="7" xlink:href="#path-10"></use>
            </g>
            <g id="Path-3">
                <use fill="black" fill-opacity="1" filter="url(#filter-13)" xlink:href="#path-12"></use>
                <use stroke="url(#linearGradient-7)" stroke-width="7" xlink:href="#path-12"></use>
            </g>
            <g id="Path-4">
                <use fill="black" fill-opacity="1" filter="url(#filter-15)" xlink:href="#path-14"></use>
                <use stroke="url(#linearGradient-7)" stroke-width="7" xlink:href="#path-14"></use>
            </g>
            <g id="Path-5">
                <use fill="black" fill-opacity="1" filter="url(#filter-17)" xlink:href="#path-16"></use>
                <use stroke="url(#linearGradient-7)" stroke-width="7" xlink:href="#path-16"></use>
            </g>
        </g>
    </g>
</svg>