
<svg xmlns="http://www.w3.org/2000/svg" version="1.1" xmlns:xlink="http://www.w3.org/1999/xlink" preserveAspectRatio="none" x="0px" y="0px" width="174px" height="108px" viewBox="0 0 174 108">
<defs>
<linearGradient id="Gradient_1" gradientUnits="userSpaceOnUse" x1="23.5875" y1="59.475" x2="58.7125" y2="55.925000000000004" spreadMethod="pad">
<stop  offset="0%" stop-color="#FFDEA1"/>

<stop  offset="100%" stop-color="#FFEAC6"/>
</linearGradient>

<linearGradient id="Gradient_2" gradientUnits="userSpaceOnUse" x1="147.5875" y1="55.575" x2="84.1125" y2="51.425" spreadMethod="pad">
<stop  offset="0%" stop-color="#FFDEA1"/>

<stop  offset="59.6078431372549%" stop-color="#FFEAC6"/>
</linearGradient>

<linearGradient id="Gradient_3" gradientUnits="userSpaceOnUse" x1="6.300000000000001" y1="55.449999999999996" x2="24.3" y2="53.65" spreadMethod="pad">
<stop  offset="0%" stop-color="#DDAA59"/>

<stop  offset="10.980392156862745%" stop-color="#CB8E42"/>

<stop  offset="36.470588235294116%" stop-color="#F0B768"/>

<stop  offset="76.86274509803921%" stop-color="#FDE29B"/>
</linearGradient>

<linearGradient id="Gradient_4" gradientUnits="userSpaceOnUse" x1="150.25" y1="52.6" x2="167.45" y2="54.4" spreadMethod="pad">
<stop  offset="0%" stop-color="#DDAA59"/>

<stop  offset="10.980392156862745%" stop-color="#CB8E42"/>

<stop  offset="36.470588235294116%" stop-color="#F0B768"/>

<stop  offset="76.86274509803921%" stop-color="#FDE29B"/>
</linearGradient>

<g id="Layer3_0_FILL">
<path fill="url(#Gradient_1)" stroke="none" d="
M 82.4 97.4
Q 83.498046875 53.3068359375 82.85 9.65
L 18.25 10.15 25.15 97.2 82.4 97.4 Z"/>

<path fill="url(#Gradient_2)" stroke="none" d="
M 82.85 9.65
Q 83.498046875 53.3068359375 82.4 97.4
L 145.25 97.9 154.55 9.65 82.85 9.65 Z"/>
</g>

<g id="Layer1_0_FILL">
<path fill="#FFD386" stroke="none" d="
M 20.55 10.7
Q 20.5291015625 10.6673828125 20.55 10.1
L 20.2 10.15 17.55 10.1
Q 17.4685546875 10.2595703125 17.45 10.3
L 17.35 10.3 17 10.25
Q 16.9134765625 10.1921875 16.85 10.1
L 16.7 10.1
Q 16.35 10.786328125 15.7 12 14.25 14.6 16.05 21.15 16.8 23.9 17.05 26.6 19.7 53.15 21.9 79.7 22.5 86.5 22.95 93.2 23.154296875 95.8333984375 23.75 96.55 24.12421875 97.0455078125 24.45 97.25 24.51328125 97.218359375 24.55 97.2 24.75 97.1 24.85 97.15
L 25 97.15 25.3 97.2 26.05 97.15 26.1 97.15 27.5 97.25 28.4 97.25
Q 28.464453125 97.25 28.5 97.25 28.511328125 97.12265625 28.5 97.1 26.8 70.95 25.05 53 23.2 34.55 22.2 28.25 21.2 21.95 20.9 14.85 20.7720703125 12.41875 20.55 10.7
M 24.05 97.4
Q 23.50234375 97.59375 24.1 97.65
L 24.05 97.4
M 154.3 9.9
Q 154.337109375 9.788671875 154.3 9.7
L 154.15 9.7 154.05 9.75 151.4 9.7 151.45 9.75 151.3 9.7
Q 151.2833984375 9.963671875 151.5 10.05 151.45 10.05 151.4 10 149 25.75 147.4 41.9 144.85 68.2 142.85 94.85 142.8041015625 95.492578125 142.75 96.65 142.75 96.7115234375 142.75 96.75
L 142.75 97.8
Q 143.534375 97.85 143.95 97.75 144.4185546875 97.65 144.4 97.8 146.228125 97.8666015625 145.3 96.9 145.2603515625 96.8751953125 145.2 96.85
L 145.55 96.85 145.7 96.9
Q 145.792578125 96.7984375 145.85 96.7 146.2 96.7 146.35 96.8 146.7 97 146.7 97.3 146.7 97.6 146.45 97.85 146.4 97.85 146.35 97.9 146.46015625 98.01015625 146.45 98.15 146.565234375 98.2076171875 146.65 98.25 146.85 98.45 146.75 98.65
L 146.65 98.8 146.4 99 146.15 98.95
Q 146.018359375 99.1408203125 145.8 99.25 146.05 99.75 145.8 100.2 147 100.55 147.35 98.3 148.8 88.2 149.95 77.85 152.75 51.45 154.35 24.85 154.55 21.6 155.15 18.3 156.0921875 13.192578125 154.4 10.2
L 154.45 10.2
Q 154.8 10.2 154.9 9.85 154.9470703125 9.708984375 154.9 9.6 154.9228515625 9.6541015625 154.9 9.7
L 154.9 9.75 154.7 9.95 154.55 10 154.25 10
Q 154.285546875 9.950390625 154.3 9.9 Z"/>
</g>

<g id="Layer0_0_FILL">
<path fill="#643D16" stroke="none" d="
M 25.8 105.85
L 25.8 105.75 8.7 105.75 8.7 106.15
Q 8.95 106.25 9.2 106.4
L 9.95 106.75 23.15 106.9
Q 23.5 106.6 23.9 106.45 24.85 105.95 25.8 105.85
M 25.8 105.75
L 25.65 104.2 8.55 104.25 8.7 105.75 25.8 105.75
M 17.2 3.75
L 17.1 2.45 0.05 4.55 0.15 6.1 17.2 3.75
M 13.1 2.3
Q 12.45 2.15 11.75 1.75
L 3.6 2.75
Q 2.75 3.65 0.7 4.35 0.35 4.45 0.05 4.55
L 17.1 2.45
Q 16.6 2.5 16.05 2.5 13.85 2.5 13.1 2.3
M 162.4 105
L 162.55 103.3 144.4 103.3 144.25 104.8 162.4 105
M 162.05 105.35
Q 162.2 105.35 162.55 105.35
L 162.35 105.2 162.4 105 144.25 104.8 144.45 104.85 144.25 104.9
Q 145.8 105.1 147.55 105.45 148.65 105.65 149.25 106
L 159.75 106
Q 160 105.7 160.5 105.5 161 105.35 162.05 105.35
M 173.1 2.7
Q 171.6 2.25 170.35 1.25
L 160.1 0
Q 158.6 0.3 158.2 0.35 156.8 0.55 154.7 0.4
L 173.1 2.7
M 172.95 4.1
L 173.1 2.7 154.7 0.4 154.55 1.85 172.95 4.1 Z"/>

<path fill="url(#Gradient_3)" stroke="none" d="
M 17.2 3.75
L 0.15 6.1 8.55 104.25 25.65 104.2 17.2 3.75 Z"/>

<path fill="url(#Gradient_4)" stroke="none" d="
M 162.55 103.3
L 172.95 4.1 154.55 1.85 144.4 103.3 162.55 103.3 Z"/>
</g>

<path id="Layer2_0_1_STROKES" stroke="#FFEAC6" stroke-width="5.95" stroke-linejoin="miter" stroke-linecap="butt" stroke-miterlimit="10" fill="none" d="
M 83.1 9.85
L 83.1 97.35"/>

<path id="Layer0_0_1_STROKES" stroke="#A6712D" stroke-width="1" stroke-linejoin="miter" stroke-linecap="butt" stroke-miterlimit="10" fill="none" d="
M 154.7 0.4
L 173.1 2.7
M 0.05 4.55
L 17.1 2.45
M 8.7 105.75
L 25.8 105.75
M 144.25 104.8
L 162.4 105"/>

<path id="Layer0_0_2_STROKES" stroke="#643D16" stroke-width="1" stroke-linejoin="miter" stroke-linecap="butt" stroke-miterlimit="10" fill="none" d="
M 149.25 106
L 159.75 106
M 23.15 106.9
L 9.95 106.75"/>
</defs>

<g transform="matrix( 1, 0, 0, 1, 0,0) ">
<use xlink:href="#Layer3_0_FILL"/>
</g>

<g transform="matrix( 1, 0, 0, 1, 0,0) ">
<use xlink:href="#Layer2_0_1_STROKES"/>
</g>

<g transform="matrix( 1, 0, 0, 1, 0,0) ">
<use xlink:href="#Layer1_0_FILL"/>
</g>

<g transform="matrix( 1, 0, 0, 1, 0,0) ">
<use xlink:href="#Layer0_0_FILL"/>

<use xlink:href="#Layer0_0_1_STROKES"/>

<use xlink:href="#Layer0_0_2_STROKES"/>
</g>
</svg>
