
<svg xmlns="http://www.w3.org/2000/svg" version="1.1" xmlns:xlink="http://www.w3.org/1999/xlink" preserveAspectRatio="none" x="0px" y="0px" width="239px" height="64px" viewBox="0 0 239 64">
<defs>
<linearGradient id="Gradient_1" gradientUnits="userSpaceOnUse" x1="-7.9" y1="1.15" x2="10.1" y2="-0.65" spreadMethod="pad">
<stop  offset="0%" stop-color="#DDAA59"/>

<stop  offset="10.980392156862745%" stop-color="#CB8E42"/>

<stop  offset="36.470588235294116%" stop-color="#F0B768"/>

<stop  offset="76.86274509803921%" stop-color="#FDE29B"/>
</linearGradient>

<linearGradient id="Gradient_2" gradientUnits="userSpaceOnUse" x1="9.3875" y1="5.175" x2="44.5125" y2="1.6249999999999998" spreadMethod="pad">
<stop  offset="0%" stop-color="#FFDEA1"/>

<stop  offset="100%" stop-color="#FFEAC6"/>
</linearGradient>

<g id="left_0_Layer0_0_FILL">
<path fill="#643D16" stroke="none" d="
M -5.65 49.95
L -5.5 51.45 11.6 51.45 11.45 49.9 -5.65 49.95
M -5 52.1
L -4.25 52.45 8.95 52.6
Q 9.3 52.3 9.7 52.15 10.65 51.65 11.6 51.55
L 11.6 51.45 -5.5 51.45 -5.5 51.85
Q -5.25 51.95 -5 52.1
M 2.9 -51.85
Q 2.4 -51.8 1.85 -51.8 -0.35 -51.8 -1.1 -52 -1.75 -52.15 -2.45 -52.55
L -10.6 -51.55
Q -11.45 -50.65 -13.5 -49.95 -13.85 -49.85 -14.15 -49.75
L 2.9 -51.85
M 3 -50.55
L 2.9 -51.85 -14.15 -49.75 -14.05 -48.2 3 -50.55 Z"/>

<path fill="url(#Gradient_1)" stroke="none" d="
M 3.5 -44.2
L 3 -50.55 -14.05 -48.2 -5.65 49.95 11.45 49.9 10.85 42.95 3.5 -44.2 Z"/>

<path fill="url(#Gradient_2)" stroke="none" d="
M 6.3 -44.15
Q 6.3 -44.1 6.3 -44.05 6.55 -42.25 6.7 -39.45 7 -32.35 8 -26.05 9 -19.75 10.85 -1.3 11.6 6.45 12.35 15.7 13.25 27 14.15 40.55
L 14.15 -44.4 6.3 -44.15
M 5.15 -44.1
L 5.15 -44.15 4.9 -44.15 5.15 -44.1 Z"/>

<path fill="#FFD386" stroke="none" d="
M 6.3 -44.15
L 6.3 -44.2 6.25 -44.15 5.15 -44.2 5.15 -44.15 5.15 -44.1 4.9 -44.15 3.8 -44.2
Q 3.75 -44.25 3.75 -44.2
L 3.65 -44.2
Q 3.5802734375 -44.2 3.5 -44.2
L 10.85 42.95 14.15 43 14.15 40.55
Q 13.25 27 12.35 15.7 11.6 6.45 10.85 -1.3 9 -19.75 8 -26.05 7 -32.35 6.7 -39.45 6.55 -42.25 6.3 -44.05 6.3 -44.1 6.3 -44.15 Z"/>
</g>

<path id="left_0_Layer0_0_1_STROKES" stroke="#A6712D" stroke-width="1" stroke-linejoin="miter" stroke-linecap="butt" stroke-miterlimit="10" fill="none" d="
M -5.5 51.45
L 11.6 51.45
M -14.15 -49.75
L 2.9 -51.85"/>

<path id="left_0_Layer0_0_2_STROKES" stroke="#643D16" stroke-width="1" stroke-linejoin="miter" stroke-linecap="butt" stroke-miterlimit="10" fill="none" d="
M 8.95 52.6
L -4.25 52.45"/>
</defs>

<g transform="matrix( 0, 2.26678466796875, -2.2681884765625, 0, 119.4,32.2) ">
<g transform="matrix( 1, 0, 0, 1, 0,0) ">
<use xlink:href="#left_0_Layer0_0_FILL"/>

<use xlink:href="#left_0_Layer0_0_1_STROKES"/>

<use xlink:href="#left_0_Layer0_0_2_STROKES"/>
</g>
</g>
</svg>
