<?xml version="1.0" encoding="UTF-8"?>
<svg width="88px" height="31px" viewBox="0 0 88 31" version="1.1" xmlns="http://www.w3.org/2000/svg" xmlns:xlink="http://www.w3.org/1999/xlink">
    <!-- Generator: Sketch 43.1 (39012) - http://www.bohemiancoding.com/sketch -->
    <title>A</title>
    <desc>Created with Sketch.</desc>
    <defs></defs>
    <g id="Page-1" stroke="none" stroke-width="1" fill="none" fill-rule="evenodd">
        <path d="M46.972,26.88 L45.388,30.816 L40.012,30.816 L39.052,28.512 L33.292,28.512 L32.476,26.64 L27.724,26.64 L25.708,21.984 L14.38,21.984 L14.38,15.12 L22.732,15.12 L22.204,13.92 L32.86,8.736 L33.148,9.36 L23.116,14.256 L27.964,25.584 L32.044,25.584 L27.772,15.744 L32.668,13.344 L32.956,13.968 L28.684,16.08 L32.764,25.584 L34.684,25.584 L34.684,26.64 L33.244,26.64 L33.628,27.504 L38.62,27.504 L34.828,18.816 L39.484,16.56 L39.772,17.184 L35.74,19.104 L39.388,27.504 L40.636,27.504 L41.02,28.512 L39.772,28.512 L40.348,29.808 L45.052,29.808 L46.348,26.64 L46.972,26.88 Z M25.18,20.88 L23.02,15.792 L15.052,15.792 L15.052,20.88 L25.18,20.88 Z M17.26,16.704 C16.5879966,17.1200021 16.252,17.6959963 16.252,18.432 C16.252,19.2000038 16.5719968,19.7759981 17.212,20.16 L16.828,20.736 C15.9959958,20.2239974 15.58,19.4880048 15.58,18.528 C15.58,17.4399946 16.0119957,16.6400026 16.876,16.128 L17.26,16.704 Z M47.164,22.032 L46.156,22.992 C45.8679986,22.6399982 45.4840024,22.464 45.004,22.464 C44.5879979,22.464 44.2040018,22.6559981 43.852,23.04 C43.4999982,23.4240019 43.324,23.8239979 43.324,24.24 C43.324,24.6240019 43.4999982,24.9919982 43.852,25.344 L42.844,26.304 C42.2679971,25.6319966 41.98,24.896004 41.98,24.096 C41.98,23.2639958 42.283997,22.5600029 42.892,21.984 C43.500003,21.4079971 44.2199958,21.12 45.052,21.12 C45.852004,21.12 46.555997,21.423997 47.164,22.032 Z M85.228,0.384 C86.9560086,4.03201824 87.82,7.83998016 87.82,11.808 C87.82,16.2560222 86.7480107,20.4319805 84.604,24.336 L75.772,24.336 C76.8600054,22.927993 77.6439976,21.8400038 78.124,21.072 L77.164,21.072 C75.4359914,21.072 74.5080006,20.4480062 74.38,19.2 L65.596,19.2 C64.2199931,21.1520098 62.4520108,22.6799945 60.292,23.784 C58.1319892,24.8880055 55.852012,25.44 53.452,25.44 C52.1079933,25.44 50.4600098,25.1520029 48.508,24.576 L49.18,22.608 C50.5240067,23.1200026 51.9799922,23.376 53.548,23.376 C55.5640101,23.376 57.475991,22.9280045 59.284,22.032 C61.092009,21.1359955 62.5719942,19.8720082 63.724,18.24 L66.22,18.24 C66.22,18.2720002 66.1880003,18.3039998 66.124,18.336 C66.0599997,18.4000003 66.028,18.4479998 66.028,18.48 L76.876,18.48 C77.8040046,16.4319898 78.268,14.1760123 78.268,11.712 C78.268,9.27998784 77.7560051,6.96001104 76.732,4.752 L9.436,4.752 L9.436,6.672 L2.524,6.672 C3.54800512,7.85600592 4.65199408,8.63999808 5.836,9.024 C7.02000592,9.40800192 8.45999152,9.6 10.156,9.6 C10.5400019,9.6 11.131996,9.59200008 11.932,9.576 C12.732004,9.55999992 13.3399979,9.552 13.756,9.552 L13.756,8.4 L14.476,8.4 L14.476,9.552 L22.828,9.552 L22.828,8.4 L23.548,8.4 L23.548,9.552 L28.3,9.552 L30.604,8.4 L30.892,9.024 L28.348,10.272 L8.716,10.272 C6.73199008,10.272 5.01200728,9.7120056 3.556,8.592 C2.09999272,7.4719944 1.03600336,5.9520096 0.364,4.032 L76.396,4.032 C75.7239966,2.84799408 75.1320026,1.95200304 74.62,1.344 L75.484,1.344 C77.8200117,4.44801552 78.988,8.11197888 78.988,12.336 C78.988,15.0560136 78.2200077,17.7279869 76.684,20.352 L78.508,20.352 C79.8840069,17.7279869 80.572,14.8640155 80.572,11.76 C80.572,8.14398192 79.4360114,4.54401792 77.164,0.96 C77.0359994,0.70399872 76.9080006,0.51200064 76.78,0.384 L85.228,0.384 Z M8.716,5.952 L8.716,4.752 L1.324,4.752 C1.45200064,5.04000144 1.6759984,5.43999744 1.996,5.952 L8.716,5.952 Z M48.844,22.032 C48.844,22.7680037 48.5720027,23.3999974 48.028,23.928 C47.4839973,24.4560026 46.8440037,24.72 46.108,24.72 C45.6279976,24.72 45.2120018,24.6080011 44.86,24.384 L45.196,23.76 C45.4520013,23.9200008 45.7719981,24 46.156,24 C46.7320029,24 47.2119981,23.8160018 47.596,23.448 C47.9800019,23.0799982 48.172,22.6080029 48.172,22.032 L48.844,22.032 Z M75.292,15.072 L68.908,15.072 C68.5879984,15.8080037 68.1000033,16.3999978 67.444,16.848 C66.7879967,17.2960022 66.060004,17.52 65.26,17.52 C64.9079982,17.52 64.636001,17.5040002 64.444,17.472 L64.588,16.752 C64.9080016,16.8160003 65.1479992,16.848 65.308,16.848 C66.0120035,16.848 66.6519971,16.6080024 67.228,16.128 C67.8040029,15.6479976 68.2039989,15.0560035 68.428,14.352 L75.292,14.352 L75.292,15.072 Z" id="A" fill="#422313" transform="translate(44.092000, 15.600000) scale(-1, 1) translate(-44.092000, -15.600000) "></path>
    </g>
</svg>