
<svg xmlns="http://www.w3.org/2000/svg" version="1.1" xmlns:xlink="http://www.w3.org/1999/xlink" preserveAspectRatio="none" x="0px" y="0px" width="238px" height="259px" viewBox="0 0 238 259">
<defs>
<linearGradient id="Gradient_1" gradientUnits="userSpaceOnUse" x1="-7.9" y1="1.15" x2="10.1" y2="-0.65" spreadMethod="pad">
<stop  offset="0%" stop-color="#DDAA59"/>

<stop  offset="10.980392156862745%" stop-color="#CB8E42"/>

<stop  offset="36.470588235294116%" stop-color="#F0B768"/>

<stop  offset="76.86274509803921%" stop-color="#FDE29B"/>
</linearGradient>

<linearGradient id="Gradient_2" gradientUnits="userSpaceOnUse" x1="9.3875" y1="5.175" x2="44.5125" y2="1.6249999999999998" spreadMethod="pad">
<stop  offset="0%" stop-color="#FFDEA1"/>

<stop  offset="100%" stop-color="#FFEAC6"/>
</linearGradient>

<linearGradient id="Gradient_3" gradientUnits="userSpaceOnUse" x1="-10.212500000000002" y1="2.575" x2="-73.6875" y2="-1.5750000000000002" spreadMethod="pad">
<stop  offset="0%" stop-color="#FFDEA1"/>

<stop  offset="59.6078431372549%" stop-color="#FFEAC6"/>
</linearGradient>

<linearGradient id="Gradient_4" gradientUnits="userSpaceOnUse" x1="-7.55" y1="-0.4" x2="9.65" y2="1.4" spreadMethod="pad">
<stop  offset="0%" stop-color="#DDAA59"/>

<stop  offset="10.980392156862745%" stop-color="#CB8E42"/>

<stop  offset="36.470588235294116%" stop-color="#F0B768"/>

<stop  offset="76.86274509803921%" stop-color="#FDE29B"/>
</linearGradient>

<linearGradient id="Gradient_5" gradientUnits="userSpaceOnUse" x1="-2.1750000000000003" y1="62.1875" x2="1.975" y2="-1.2875000000000014" spreadMethod="pad">
<stop  offset="0%" stop-color="#FFDEA1"/>

<stop  offset="59.6078431372549%" stop-color="#FFEAC6"/>
</linearGradient>

<linearGradient id="Gradient_6" gradientUnits="userSpaceOnUse" x1="-6.075" y1="-61.85" x2="-2.5249999999999995" y2="-26.65" spreadMethod="pad">
<stop  offset="0%" stop-color="#FFDEA1"/>

<stop  offset="100%" stop-color="#FFEAC6"/>
</linearGradient>

<g id="left_0_Layer0_0_FILL">
<path fill="#643D16" stroke="none" d="
M -5.65 49.95
L -5.5 51.45 11.6 51.45 11.45 49.9 -5.65 49.95
M -5 52.1
L -4.25 52.45 8.95 52.6
Q 9.3 52.3 9.7 52.15 10.65 51.65 11.6 51.55
L 11.6 51.45 -5.5 51.45 -5.5 51.85
Q -5.25 51.95 -5 52.1
M 2.9 -51.85
Q 2.4 -51.8 1.85 -51.8 -0.35 -51.8 -1.1 -52 -1.75 -52.15 -2.45 -52.55
L -10.6 -51.55
Q -11.45 -50.65 -13.5 -49.95 -13.85 -49.85 -14.15 -49.75
L 2.9 -51.85
M 3 -50.55
L 2.9 -51.85 -14.15 -49.75 -14.05 -48.2 3 -50.55 Z"/>

<path fill="url(#Gradient_1)" stroke="none" d="
M 3.5 -44.2
L 3 -50.55 -14.05 -48.2 -5.65 49.95 11.45 49.9 10.85 42.95 3.5 -44.2 Z"/>

<path fill="url(#Gradient_2)" stroke="none" d="
M 6.3 -44.15
Q 6.3 -44.1 6.3 -44.05 6.55 -42.25 6.7 -39.45 7 -32.35 8 -26.05 9 -19.75 10.85 -1.3 11.6 6.45 12.35 15.7 13.25 27 14.15 40.55
L 14.15 -44.4 6.3 -44.15
M 5.15 -44.1
L 5.15 -44.15 4.9 -44.15 5.15 -44.1 Z"/>

<path fill="#FFD386" stroke="none" d="
M 5.15 -44.15
L 5.15 -44.1 4.9 -44.15 3.8 -44.2
Q 3.75 -44.25 3.75 -44.2
L 3.65 -44.2
Q 3.5802734375 -44.2 3.5 -44.2
L 10.85 42.95 14.15 43 14.15 40.55
Q 13.25 27 12.35 15.7 11.6 6.45 10.85 -1.3 9 -19.75 8 -26.05 7 -32.35 6.7 -39.45 6.55 -42.25 6.3 -44.05 6.3 -44.1 6.3 -44.15
L 6.3 -44.2 6.25 -44.15 5.15 -44.2 5.15 -44.15 Z"/>
</g>

<g id="right__0_Layer0_0_FILL">
<path fill="#FFD386" stroke="none" d="
M -6.45 -43.05
L -6.4 -43
Q -8.8 -27.25 -10.4 -11.1 -12.95 15.2 -14.95 41.85 -15 42.5 -15.05 43.7
L -15.05 43.75 -15.1 44.45 -15.05 44.5
Q -15.1125 44.625 -15.05 44.75 -14.9625 44.825 -14.85 44.9 -14.7 44.85 -14.5 44.85
L -12.85 44.9 -4.05 -43.15
Q -4.20390625 -43.078125 -4.35 -43.05 -5.1783203125 -43.05 -6 -43.05
L -6.15 -43.05 -6.45 -43.1 -6.45 -43.05 Z"/>

<path fill="url(#Gradient_3)" stroke="none" d="
M -6.45 -43.05
Q -10.84375 -43.05 -15.25 -43.05
L -15.25 44.75 -15.05 44.75
Q -15.1125 44.625 -15.05 44.5
L -15.1 44.45 -15.05 43.75 -15.05 43.7
Q -15 42.5 -14.95 41.85 -12.95 15.2 -10.4 -11.1 -8.8 -27.25 -6.4 -43
L -6.45 -43.05 Z"/>

<path fill="url(#Gradient_4)" stroke="none" d="
M 4.75 50.3
L 15.15 -48.9 -3.25 -51.15 -4.05 -43.15 -12.85 44.9 -13.4 50.3 4.75 50.3 Z"/>

<path fill="#643D16" stroke="none" d="
M 4.55 52.2
L 4.6 52 -13.55 51.8 -13.35 51.85 -13.55 51.9
Q -12 52.1 -10.25 52.45 -9.15 52.65 -8.55 53
L 1.95 53
Q 2.2 52.7 2.7 52.5 3.2 52.35 4.25 52.35 4.4 52.35 4.75 52.35
L 4.55 52.2
M 4.6 52
L 4.75 50.3 -13.4 50.3 -13.55 51.8 4.6 52
M 15.15 -48.9
L 15.3 -50.3 -3.1 -52.6 -3.25 -51.15 15.15 -48.9
M 2.3 -53
Q 0.8 -52.7 0.4 -52.65 -1 -52.45 -3.1 -52.6
L 15.3 -50.3
Q 13.8 -50.75 12.55 -51.75
L 2.3 -53 Z"/>
</g>

<g id="Symbol_1_0_Layer0_0_FILL">
<path fill="url(#Gradient_5)" stroke="none" d="
M 43.45 57.5
Q 43.7 27.7 44.2 -3.35
L -43.25 -2.5 -44.3 57.55 43.45 57.5 Z"/>

<path fill="url(#Gradient_6)" stroke="none" d="
M 44.2 -3.35
L 44.4 -57.5 -42.8 -57.55 -43.25 -2.5 44.2 -3.35 Z"/>
</g>

<path id="left_0_Layer0_0_1_STROKES" stroke="#A6712D" stroke-width="1" stroke-linejoin="miter" stroke-linecap="butt" stroke-miterlimit="10" fill="none" d="
M -14.15 -49.75
L 2.9 -51.85
M -5.5 51.45
L 11.6 51.45"/>

<path id="left_0_Layer0_0_2_STROKES" stroke="#643D16" stroke-width="1" stroke-linejoin="miter" stroke-linecap="butt" stroke-miterlimit="10" fill="none" d="
M 8.95 52.6
L -4.25 52.45"/>

<path id="right__0_Layer0_0_1_STROKES" stroke="#643D16" stroke-width="1" stroke-linejoin="miter" stroke-linecap="butt" stroke-miterlimit="10" fill="none" d="
M -8.55 53
L 1.95 53"/>

<path id="right__0_Layer0_0_2_STROKES" stroke="#A6712D" stroke-width="1" stroke-linejoin="miter" stroke-linecap="butt" stroke-miterlimit="10" fill="none" d="
M -3.1 -52.6
L 15.3 -50.3
M -13.55 51.8
L 4.6 52"/>
</defs>

<g transform="matrix( 0, 2.26678466796875, -2.2681884765625, 0, 117.65,-31.95) ">
<g transform="matrix( 1, 0, 0, 1, 0,0) ">
<use xlink:href="#left_0_Layer0_0_FILL"/>

<use xlink:href="#left_0_Layer0_0_1_STROKES"/>

<use xlink:href="#left_0_Layer0_0_2_STROKES"/>
</g>
</g>

<g transform="matrix( 0, 2.2452239990234375, -2.250457763671875, 0, 119.4,293.2) ">
<g transform="matrix( 1, 0, 0, 1, 0,0) ">
<use xlink:href="#right__0_Layer0_0_FILL"/>

<use xlink:href="#right__0_Layer0_0_1_STROKES"/>

<use xlink:href="#right__0_Layer0_0_2_STROKES"/>
</g>
</g>

<g transform="matrix( 2.2535247802734375, 0, 0, 2.25347900390625, 118.4,129.7) ">
<g transform="matrix( 1, 0, 0, 1, 0,0) ">
<use xlink:href="#Symbol_1_0_Layer0_0_FILL"/>
</g>
</g>
</svg>
