<?xml version="1.0" encoding="UTF-8" standalone="no"?>
<!-- Created with Inkscape (http://www.inkscape.org/) -->

<svg
   xmlns:dc="http://purl.org/dc/elements/1.1/"
   xmlns:cc="http://creativecommons.org/ns#"
   xmlns:rdf="http://www.w3.org/1999/02/22-rdf-syntax-ns#"
   xmlns:svg="http://www.w3.org/2000/svg"
   xmlns="http://www.w3.org/2000/svg"
   xmlns:sodipodi="http://sodipodi.sourceforge.net/DTD/sodipodi-0.dtd"
   xmlns:inkscape="http://www.inkscape.org/namespaces/inkscape"
   width="420mm"
   height="297mm"
   viewBox="0 0 1488.189 1052.3622"
   id="svg2"
   version="1.1"
   inkscape:version="0.91 r13725"
   sodipodi:docname="29_Mark1_21-28_02.svg"
   inkscape:export-filename="/media/ai/Data/20160623bkup/Personal/websites/CreativeCommonsChristian/52StoriesWithDeborah_TanChenChen/29Mark1_21-28/29_Mark1_21-28_01.png"
   inkscape:export-xdpi="300.08301"
   inkscape:export-ydpi="300.08301">
  <defs
     id="defs4" />
  <sodipodi:namedview
     id="base"
     pagecolor="#ffffff"
     bordercolor="#666666"
     borderopacity="1.0"
     inkscape:pageopacity="0.0"
     inkscape:pageshadow="2"
     inkscape:zoom="0.24748737"
     inkscape:cx="428.7233"
     inkscape:cy="1205.6385"
     inkscape:document-units="mm"
     inkscape:current-layer="layer1"
     showgrid="false"
     inkscape:window-width="1243"
     inkscape:window-height="1000"
     inkscape:window-x="123"
     inkscape:window-y="24"
     inkscape:window-maximized="1" />
  <metadata
     id="metadata7">
    <rdf:RDF>
      <cc:Work
         rdf:about="">
        <dc:format>image/svg+xml</dc:format>
        <dc:type
           rdf:resource="http://purl.org/dc/dcmitype/StillImage" />
        <dc:title></dc:title>
      </cc:Work>
    </rdf:RDF>
  </metadata>
  <g
     inkscape:label="Layer 1"
     inkscape:groupmode="layer"
     id="layer1"
     transform="translate(0,-1.6535434e-6)">
    <path
       style="fill:#000000"
       d="m 361.62655,1046.1417 c -9.06932,-8.7437 -11.93393,-11.7688 -21.30325,-22.4972 -17.88735,-20.4818 -30.12522,-38.66324 -40.72974,-60.51077 -6.96878,-14.35721 -11.35652,-25.60287 -15.76034,-40.39344 -7.06537,-23.72956 -12.43881,-50.07018 -14.9623,-73.34531 -0.24515,-2.26111 -1.16201,-10.05058 -2.03746,-17.30994 -1.2684,-10.51756 -1.59892,-14.82519 -1.62701,-21.20468 -0.0417,-9.47598 0.47604,-12.16989 3.61806,-18.82456 6.09089,-12.90028 17.90224,-26.80506 43.08354,-50.71961 27.15168,-25.7858 48.23949,-42.64893 60.50187,-48.38112 1.1593,-0.54193 1.51224,-0.90626 1.19006,-1.2284 -1.00474,-1.00476 -0.328,-2.09853 3.00398,-4.85514 1.90409,-1.57529 3.46199,-3.04598 3.46199,-3.26824 0,-0.22222 1.52235,-2.0061 3.38301,-3.96411 1.86066,-1.95802 4.48815,-5.14547 5.83886,-7.08327 1.35073,-1.93781 4.06811,-5.24833 6.03863,-7.35673 1.97052,-2.10839 4.82962,-5.48872 6.35356,-7.51182 3.17303,-4.21238 4.27776,-5.47877 11.46299,-13.14067 2.87166,-3.06213 5.28506,-5.73665 5.36311,-5.94329 0.25284,-0.66941 17.02925,-16.44661 21.0522,-19.79833 9.5628,-7.9672 17.49483,-13.5044 30.73572,-21.45585 7.20211,-4.32506 14.73812,-9.26 29.64921,-19.4157 3.21645,-2.19066 10.03224,-6.68787 15.1462,-9.99376 5.11401,-3.30594 13.85661,-9.13476 19.42807,-12.95303 5.57147,-3.81823 11.17015,-7.50564 12.44153,-8.19423 1.27137,-0.68863 2.31161,-1.39912 2.31161,-1.57892 0,-0.17977 -0.85857,-0.94348 -1.90795,-1.69707 -2.40556,-1.72753 -4.15053,-5.04421 -4.15053,-7.88888 l 0,-2.01838 -4.86842,-0.24351 c -13.69048,-0.68478 -23.11276,-7.41017 -27.99914,-19.98506 l -1.51925,-3.90971 0.009,-8.22223 c 0.0101,-9.15259 0.52315,-12.26794 2.78561,-16.91212 l 1.28193,-2.63141 -2.19317,-2.27535 c -2.85645,-2.96355 -5.38776,-8.22616 -6.0532,-12.58463 -0.7072,-4.63193 -0.24658,-15.1768 0.89544,-20.499 1.6975,-7.9109 5.32714,-17.46859 8.24386,-21.70792 0.75467,-1.09685 1.30465,-2.03314 1.22221,-2.08066 -0.0825,-0.0475 -1.12358,-0.53886 -2.31364,-1.09182 -6.81038,-3.16448 -14.49691,-10.1332 -17.25256,-15.64144 -2.00783,-4.0134 -2.58377,-7.04806 -2.34723,-12.36725 0.16544,-3.71973 0.36762,-4.68403 1.35082,-6.44318 l 1.15626,-2.06875 -1.43149,-1.58445 c -3.50175,-3.87605 -6.42471,-9.28178 -7.68656,-14.21564 -0.63606,-2.48692 -0.83603,-4.75852 -0.83603,-9.49716 0,-7.59648 0.70767,-11.10774 3.0041,-14.90565 l 1.65188,-2.73189 -2.4362,-1.18139 c -7.62278,-3.69661 -14.4126,-12.57207 -16.9833,-22.20019 -0.81894,-3.06712 -0.92305,-4.59725 -0.91301,-13.41521 0.013,-11.25677 0.52038,-14.82561 2.83104,-19.90644 0.7577,-1.66608 2.21528,-4.06115 3.23908,-5.32238 l 1.86146,-2.29315 -3.80883,-4.02836 c -3.977,-4.20626 -7.0278,-8.94025 -8.51251,-13.20915 -1.07789,-3.09912 -1.43984,-11.19913 -0.72027,-16.12011 1.54405,-10.55977 7.39,-21.11769 17.10755,-30.89649 5.39776,-5.43178 8.95768,-8.26484 15.60898,-12.42182 5.44337,-3.40208 8.5554,-4.7199 11.8712,-5.027 l 2.81278,-0.2605 -0.21637,-1.51462 c -0.4408,-3.08574 -0.10603,-11.14692 0.60883,-14.65924 3.55992,-17.49098 11.79076,-27.87742 24.70696,-31.17759 l 1.73099,-0.44228 -0.1496,-3.61784 c -0.27618,-6.67955 1.81876,-14.07878 5.79745,-20.47605 2.3876,-3.83908 7.33089,-8.56028 10.53712,-10.06378 2.28639,-1.07216 2.78976,-1.13522 8.91445,-1.11654 5.83653,0.0177 7.20202,0.18275 11.20819,1.35397 0.77224,0.22578 0.76636,0.16194 -0.0974,-1.0511 -2.93983,-4.12862 -3.29157,-12.14766 -0.77401,-17.646738 1.93824,-4.233608 9.1905,-10.91728 18.87377,-17.393997 13.29888,-8.895047 23.88832,-9.658877 42.80502,-3.087604 2.75752,0.957918 5.3344,1.840639 5.72643,1.961606 0.55041,0.169868 0.77821,-0.167964 1.00056,-1.483895 0.1583,-0.937102 0.84992,-2.385685 1.53686,-3.219058 2.44525,-2.96652 10.75095,-6.38923 21.41651,-8.825561 8.57526,-1.958851 23.3625,-1.908234 30.8732,0.10559 l 1.01354,0.271767 -1.01354,-1.90007 c -0.93374,-1.750453 -1.01337,-2.41126 -1.01155,-8.391312 0,-5.909716 0.0945,-6.696222 1.03396,-8.779459 1.21417,-2.692086 4.03885,-5.35072 6.45354,-6.074189 0.93426,-0.279917 3.58294,-0.508927 5.88599,-0.508927 14.43247,0 33.46722,9.855806 38.51267,19.941084 l 1.45408,2.906585 2.53942,-2.568407 c 3.50301,-3.543042 9.02549,-7.376416 13.02581,-9.041762 5.91122,-2.460839 10.4093,-3.166854 20.23875,-3.17662 7.57396,-0.0072 9.08737,0.10963 12.11696,0.937593 5.36829,1.467191 11.05733,4.46937 14.08705,7.433943 3.20359,3.134715 4.59903,6.054571 5.23013,10.943245 l 0.4741,3.67255 3.716,-1.022368 c 6.1086,-1.680666 11.8304,-2.329933 20.5331,-2.329933 7.1729,0 8.4522,0.114678 12.2274,1.095503 14.7282,3.826709 26.9038,15.090852 29.8595,27.624246 0.852,3.612672 0.8295,10.933928 -0.042,13.499148 -0.3742,1.10193 -0.6176,2.06318 -0.5409,2.13612 0.076,0.073 1.5997,-0.14471 3.3848,-0.48361 4.5805,-0.86963 18.4495,-1.26196 22.503,-0.63658 6.9694,1.0753 14.6476,4.13301 20.8876,8.31821 3.5847,2.40432 10.119,9.07742 11.9783,12.23288 2.4674,4.18751 3.1891,6.82594 3.3858,12.37784 0.2249,6.351 -0.2941,8.59088 -4.1701,17.99645 -1.659,4.02563 -3.081,7.69597 -3.1601,8.15632 -0.1132,0.65952 0.2007,0.91047 1.4808,1.18367 4.4122,0.94156 9.4972,4.98533 12.6048,10.02374 3.9965,6.47961 5.5649,13.42819 5.5351,24.52286 -0.022,8.13638 -0.7164,11.73674 -3.3269,17.24668 -0.8293,1.75028 -1.5077,3.25949 -1.5077,3.3538 0,0.0943 1.2222,0.17146 2.716,0.17146 6.2223,0 15.4259,1.76108 19.5628,3.7433 5.4549,2.61372 8.8876,6.60078 10.7332,12.4668 0.8454,2.68718 0.9587,3.99313 0.9587,11.05306 0,7.88019 -0.3876,10.60924 -2.1584,15.19691 -0.2123,0.54993 0.1753,0.81094 1.8096,1.21859 5.999,1.49631 10.7362,7.02978 12.5045,14.60662 0.5258,2.25296 0.6454,4.53119 0.5068,9.65625 -0.2001,7.4045 -0.7297,9.46371 -4.2291,16.44445 -3.7485,7.47747 -7.9403,11.36154 -15.6372,14.48905 -2.5983,1.05578 -4.2231,2.47351 -4.2496,3.70795 -0.01,0.36888 1.7866,2.31624 3.9879,4.32749 10.8903,9.9503 16.4436,15.97377 19.3287,20.96531 3.64367,6.30394 4.32847,15.19287 1.5383,19.96595 -1.4059,2.4048 -4.8025,5.38733 -9.1861,8.06605 -1.9894,1.2157 -3.6951,2.33658 -3.7905,2.49086 -0.095,0.15427 0.6464,0.73508 1.6483,1.29067 7.1348,3.95665 13.74967,9.90325 16.23137,14.59162 1.8188,3.43616 2.6687,7.46979 2.6687,12.66646 0,6.89706 -1.3059,11.41911 -4.7966,16.60958 -3.14757,4.6804 -9.11317,10.05583 -13.79657,12.43175 -1.071,0.54336 -2.0904,1.19317 -2.2653,1.44408 -0.1748,0.25086 -0.3209,6.79705 -0.3245,14.54715 -0.01,12.80208 -0.088,14.40074 -0.8937,17.47754 -1.4966,5.71406 -4.0524,9.75814 -8.4693,13.40145 -7.8687,6.4904 -16.1655,8.75325 -21.7146,5.92229 -1.3695,-0.69867 -1.8766,-0.79561 -1.9988,-0.38207 -1.0274,3.47467 -3.3547,9.57698 -4.9,12.84765 -3.3699,7.13283 -6.9978,10.00892 -13.5268,10.7236 l -3.2086,0.35126 5.4188,4.60891 c 6.6702,5.67333 14.3058,11.18036 30.5138,22.0076 25.7333,17.19042 36.88317,25.55843 79.35737,59.55832 22.9889,18.4022 29.7019,24.00552 40.0292,33.41191 15.2761,13.91391 26.377,26.28217 46.0876,51.34896 36.9138,46.94478 52.4788,69.74094 65.8912,96.50293 14.4207,28.77372 25.6408,54.85076 38.1711,88.71346 8.5557,23.12172 18.3031,56.08288 19.8996,67.29241 0.3899,2.73714 0.8183,5.5365 0.9521,6.2208 0.3125,1.59996 -0.4912,1.17068 -1.3788,-0.73636 -0.5347,-1.14912 -0.608,-1.19672 -0.4487,-0.29146 1.1004,6.25422 1.3282,11.6676 1.3197,31.37428 -0.014,21.70567 -0.1855,25.04511 -1.971,37.36141 -1.1217,7.738 -2.471,14.1834 -5.6992,27.2263 l -2.7045,10.9269 -2.7348,0 c -2.3992,0 -2.7083,-0.093 -2.5172,-0.7573 1.0921,-3.7983 3.9462,-15.0312 5.1951,-20.4474 4.3446,-18.8402 5.8957,-34.80373 5.8873,-60.58477 -0.014,-20.66007 -1.0527,-28.52125 -5.8052,-43.63469 -1.5896,-5.05532 -1.9008,-7.73231 -1.056,-9.08499 1.0006,-1.6023 -12.0431,-39.65812 -23.9806,-69.96454 -9.9159,-25.17424 -27.4359,-62.21843 -37.7742,-79.87012 -11.1214,-18.98862 -24.3157,-37.45837 -53.1526,-74.40476 -15.2613,-19.55292 -22.9524,-28.7387 -32.2237,-38.48545 -11.5408,-12.13276 -26.1213,-25.18039 -47.2262,-42.26115 -4.4032,-3.56364 -10.5374,-8.5309 -13.6316,-11.03833 -34.3048,-27.79982 -49.11427,-38.99745 -70.75437,-53.4982 -10.7341,-7.19285 -19.9166,-13.70671 -24.883,-17.65152 -5.6419,-4.48137 -13.3129,-11.55975 -15.6147,-14.40845 -1.095,-1.35515 -2.5544,-2.91391 -3.243,-3.46389 l -1.2521,-0.99991 -3.5767,2.20386 c -4.5735,2.81806 -8.0594,3.90711 -12.506,3.90711 -2.931,0 -3.7931,-0.18396 -5.9391,-1.26721 -4.357,-2.1994 -7.2333,-4.67581 -11.1998,-9.64233 -0.8952,-1.121 -1.7462,-2.046 -1.891,-2.05556 -0.1448,-0.0101 -0.9444,1.00502 -1.7769,2.25458 -1.9155,2.87505 -4.0258,5.4126 -7.4838,8.99874 l -2.7308,2.83208 0.3779,2.02284 c 0.2078,1.11256 1.1835,4.12237 2.1682,6.68839 7.8197,20.37792 9.0203,23.92369 12.7766,37.73369 6.1738,22.69784 9.4389,44.85205 10.5607,71.65702 0.7494,17.90493 0.5406,52.77127 -0.4326,72.26902 -1.1819,23.67567 -3.0406,54.36676 -5.8444,96.50293 -6.1978,93.14087 -6.7946,110.0098 -6.8713,194.19581 l -0.048,52.2543 -2.012,10e-5 -2.012,10e-5 -0.2854,-2.0555 c -0.5649,-4.0675 -0.7634,-94.7162 -0.2595,-118.46497 0.8584,-40.44896 1.3583,-50.26275 6.5141,-127.87721 5.452,-82.07185 6.305,-98.15932 6.7317,-126.95792 0.2099,-14.1623 0.158,-19.33966 -0.1917,-19.12355 -0.2636,0.16293 -0.4794,0.68773 -0.4794,1.16622 0,0.95577 -5.1853,25.28121 -8.6507,40.58238 -2.83,12.49527 -7.807,32.80343 -11.7025,47.75108 -6.6219,25.40858 -19.0215,64.87897 -20.4702,65.1603 -0.4622,0.0899 -0.7204,-0.1461 -0.7204,-0.65812 0,-0.43894 1.7598,-6.05191 3.9107,-12.47325 6.9939,-20.88003 14.8717,-49.07875 22.8468,-81.78048 4.2079,-17.25438 13.2291,-58.12952 14.1994,-64.33751 1.0693,-6.8415 0.9562,-24.34618 -0.2358,-36.49291 -2.9272,-29.82889 -8.7581,-54.89992 -19.7267,-84.81873 -0.8725,-2.38011 -1.9141,-5.63919 -2.3146,-7.24239 l -0.7281,-2.91495 -3.8964,2.92997 c -7.9311,5.96392 -20.1643,12.79014 -34.5481,19.27808 l -5.1302,2.31404 -0.1066,4.71821 c -0.1117,4.94307 -1.456,10.88597 -3.9857,17.61953 -2.1021,5.59549 -8.163,13.64574 -13.34317,17.72262 -1.19006,0.93664 -4.09112,3.48466 -6.44679,5.6623 -2.35566,2.17767 -4.88724,4.4133 -5.62573,4.96812 -1.78768,1.34304 -6.38927,3.6611 -10.52951,5.30429 -1.84961,0.73403 -6.0767,2.49973 -9.39358,3.92373 -9.76056,4.19039 -12.35757,4.77248 -22.35731,5.01132 -8.98027,0.21447 -24.60639,-0.65164 -33.71142,-1.86853 -12.42382,-1.66045 -22.85661,-4.3473 -30.19443,-7.77632 -10.09992,-4.71972 -16.50369,-10.41128 -25.29329,-22.48042 -3.69636,-5.07549 -9.72187,-14.51356 -10.75064,-16.83929 -0.80773,-1.82606 -0.82417,-1.83559 -10.452,-6.05363 -16.28399,-7.13416 -30.33395,-15.1137 -41.15465,-23.37336 -1.40432,-1.07191 -2.08884,-1.36869 -2.31447,-1.00354 -0.17626,0.28514 -0.39891,2.17698 -0.49472,4.20411 -0.1979,4.18507 0.81404,10.34745 3.9847,24.26542 2.48026,10.8874 3.50107,17.16139 4.60787,28.32076 1.15098,11.60506 2.01362,15.79407 4.90278,23.80814 2.58931,7.18228 3.8692,12.50159 4.57982,19.03397 0.25891,2.38012 0.77345,5.39854 1.14332,6.7076 0.36992,1.30907 1.0273,3.65543 1.46083,5.2141 0.43357,1.55868 1.30833,7.20605 1.94391,12.54971 1.87475,15.76149 3.88431,29.24407 4.46268,29.94093 0.29643,0.35719 1.00159,2.18421 1.56702,4.06004 0.56543,1.87588 2.00086,5.84488 3.18983,8.82003 1.18894,2.97514 3.33632,8.62251 4.77188,12.54971 8.68708,23.76464 12.50903,33.03364 19.27129,46.73684 5.4496,11.04318 9.59092,18.2108 15.01019,25.97885 3.3242,4.76495 4.34717,7.22362 3.17862,7.63975 -0.27046,0.0964 -0.70456,-0.43526 -0.96459,-1.18132 -0.26009,-0.74602 -2.42868,-4.15525 -4.81905,-7.57604 -14.42416,-20.64176 -21.57256,-36.01395 -36.11192,-77.65656 -2.20217,-6.30732 -4.24972,-12.50073 -4.55009,-13.76314 -0.30037,-1.26242 -0.60489,-2.2361 -0.67673,-2.16374 -0.46321,0.4665 1.59347,21.92806 3.24734,33.88594 1.21767,8.80401 1.61727,12.94226 3.46831,35.91813 1.56785,19.46149 1.75224,23.55105 2.01925,44.78948 0.17686,14.07048 0.0961,23.76972 -0.24533,29.42691 -0.87796,14.55156 -3.64119,40.45264 -8.26389,77.462 -4.06213,32.52114 -5.01443,43.0786 -5.69246,63.10876 -0.75636,22.34428 0.0766,31.50681 4.37314,48.10761 2.33922,9.0381 2.25579,8.7567 2.8863,9.7369 0.30621,0.476 1.06889,2.2286 1.69482,3.8947 0.62597,1.6661 2.68408,6.0963 4.57367,9.845 l 3.43555,6.8158 -1.41751,0 c -1.16474,0 -1.52198,-0.2359 -2.00319,-1.3231 -0.71287,-1.6104 -1.1264,-1.4297 -0.49978,0.2184 0.31672,0.8332 0.3117,1.1336 -0.0173,1.024 -0.25598,-0.085 -1.39618,-2.585 -2.53379,-5.5548 -1.13761,-2.9697 -3.36713,-8.7101 -4.9545,-12.7563 -4.28667,-10.9265 -7.24473,-21.0403 -9.00974,-30.8048 -0.95066,-5.25917 -1.00138,-6.51994 -0.98052,-24.37065 0.0229,-19.71438 0.11713,-21.32879 2.60013,-44.5731 0.59745,-5.59328 1.85498,-16.20643 2.79447,-23.5848 4.07758,-32.02292 7.3109,-61.9596 8.24953,-76.38012 0.68292,-10.49169 0.26575,-48.54695 -0.67361,-61.4503 -1.63904,-22.51379 -3.35034,-41.27383 -4.52673,-49.62307 -1.37973,-9.79288 -2.42802,-20.31465 -2.83822,-28.48806 -0.3008,-5.99426 -0.7252,-10.02267 -2.16539,-20.55555 -0.56954,-4.16521 -1.43534,-11.2731 -1.92404,-15.79533 -1.07724,-9.96788 -1.46533,-12.19377 -3.07879,-17.65817 -0.69911,-2.3677 -1.46559,-6.3843 -1.73424,-9.08772 -0.55007,-5.53538 -1.98299,-11.20599 -5.11262,-20.23247 -2.44707,-7.05787 -3.18863,-10.96992 -4.17157,-22.00709 -0.95789,-10.75583 -2.10337,-18.23256 -4.30005,-28.06647 -1.04903,-4.69632 -2.32157,-10.97294 -2.82784,-13.94809 -1.43071,-8.40792 -1.0662,-7.65281 -2.91179,-6.03234 -2.94654,2.58705 -5.44303,3.42689 -10.20118,3.43161 -2.48489,0.004 -5.39357,-0.28588 -7.03022,-0.69699 l -2.79166,-0.70127 -1.70715,1.54232 c -2.73735,2.47303 -5.18619,3.03335 -13.44295,3.07598 l -7.14035,0.0368 -3.16984,1.68993 c -1.74341,0.9295 -5.93026,3.59891 -9.30409,5.93203 -3.37384,2.33316 -12.85268,8.71612 -21.06409,14.18437 -8.2114,5.46826 -19.0193,12.76016 -24.01754,16.20419 -8.6944,5.99092 -16.7144,11.1598 -30.17348,19.44685 -9.03142,5.56086 -20.76562,14.27426 -27.81483,20.65431 -11.46682,10.37831 -26.65085,26.21202 -32.56964,33.96319 -1.81746,2.38012 -4.98007,6.11041 -7.02804,8.28956 -2.04797,2.17915 -4.67487,5.39231 -5.83756,7.14035 -1.1627,1.74805 -3.50484,4.63881 -5.20474,6.4239 -3.24246,3.40491 -5.28262,6.05848 -4.65799,6.05848 0.20303,0 2.1032,-0.70698 4.2226,-1.57105 2.42089,-0.98697 4.86005,-1.6518 6.56113,-1.78838 2.69931,-0.21668 2.71224,-0.22416 4.18578,-2.43187 2.78785,-4.17689 8.73152,-11.30482 13.0609,-15.66321 11.96704,-12.04733 19.9506,-15.67961 29.4313,-13.39041 3.94132,0.95166 3.83896,1.00091 4.70623,-2.26327 1.23805,-4.65945 3.2251,-9.28722 4.72535,-11.00506 2.24393,-2.56944 11.52938,-7.01131 17.40796,-8.32747 2.61311,-0.58503 6.88374,-1.87367 9.49027,-2.86362 2.60653,-0.98992 6.89074,-2.28236 9.52047,-2.87211 2.62972,-0.58971 7.02078,-2.01319 9.75791,-3.16331 5.31515,-2.23333 9.09352,-3.46727 10.61684,-3.46727 0.51662,0 3.15703,-1.0884 5.8676,-2.41872 l 4.92831,-2.41871 9.09188,-0.84689 c 5.00053,-0.46577 10.5524,-1.21347 12.33748,-1.66154 7.24469,-1.81854 9.49364,-1.68028 12.1824,0.74883 2.28526,2.06464 5.28645,6.30285 6.65589,9.39938 1.45256,3.28448 3.40668,10.33092 4.59782,16.57934 0.77337,4.05697 0.971,6.66649 0.99022,13.07446 0.013,4.40321 -0.11843,8.93085 -0.29233,10.0614 l -0.31625,2.05556 1.27869,0 c 0.7033,0 2.69563,0.55686 4.4274,1.23744 1.73178,0.68063 6.06974,2.26371 9.63991,3.51803 11.70957,4.11388 15.55537,6.29251 18.98892,10.75731 3.31525,4.31091 6.65472,11.73437 7.86326,17.47954 0.85914,4.08419 0.85014,15.00503 -0.0164,19.80301 -1.09278,6.05121 -1.29271,11.92888 -0.50783,14.92982 1.16876,4.46878 3.23544,14.63149 3.93896,19.36966 2.17945,14.67766 -0.7638,41.29858 -5.75292,52.03386 l -2.01115,4.32749 0.10631,4.54386 c 0.0584,2.49912 0.58845,10.09386 1.17781,16.87719 1.72412,19.84473 1.96152,25.9409 1.96152,50.3709 0,21.13029 -0.0929,24.16827 -1.06889,34.96115 -4.68489,51.80563 -14.84635,101.37748 -27.31773,133.26698 l -2.007,5.132 -2.98445,0 -2.98441,0 0.68483,-1.6228 c 9.9031,-23.4665 18.87844,-58.69747 24.83284,-97.47664 5.23033,-34.0638 7.0638,-63.1088 6.10457,-96.70658 -0.3668,-12.84775 -1.51042,-33.86371 -2.03686,-37.4315 l -0.22144,-1.5006 -1.90305,3.44797 c -1.04669,1.89643 -1.90622,3.77387 -1.91011,4.17217 -0.004,0.3983 -0.64938,1.56672 -1.43452,2.59649 -0.78514,1.02977 -1.89747,2.70957 -2.47182,3.73289 -0.57438,1.02332 -1.72814,2.28318 -2.5639,2.79971 -0.83577,0.51653 -2.05841,1.55288 -2.71701,2.30296 -0.6586,0.75008 -2.53414,2.06624 -4.16794,2.92473 -2.78205,1.46196 -3.09501,1.78119 -4.93407,5.03239 -1.92452,3.4024 -1.94299,3.47147 -0.92837,3.47147 1.05378,0 1.3864,0.59736 0.60243,1.08187 -0.74074,0.4578 -0.47789,6.55367 0.6335,14.69363 1.6206,11.86917 1.96303,18.02342 1.96247,35.26715 0,16.94561 -0.38073,22.17776 -2.42261,33.34332 -3.60476,19.71196 -9.98996,37.46179 -25.06342,69.67257 -3.50046,7.4802 -4.60976,9.1879 -5.43346,8.3642 -0.34282,-0.3429 0.0891,-1.6519 1.56525,-4.7434 1.1213,-2.3485 2.86822,-6.41207 3.88202,-9.0302 1.01375,-2.61813 3.43857,-8.53125 5.38841,-13.14033 10.62389,-25.11266 14.55134,-37.36762 17.49326,-54.58483 1.58485,-9.27527 1.93525,-13.59189 2.24817,-27.69591 0.3053,-13.76045 -0.12362,-23.60777 -1.57079,-36.06384 -0.4656,-4.00729 -0.85736,-9.26519 -0.87061,-11.68421 l -0.0242,-4.39815 -0.94967,1.24913 c -12.52872,16.47976 -28.38294,32.9651 -45.04134,46.83439 -15.97365,13.29918 -18.41566,15.19363 -21.90244,16.99152 -3.69013,1.90271 -10.02726,4.16019 -14.23933,5.07247 -6.79537,1.47173 -47.51075,2.38089 -49.74023,1.11069 -0.91738,-0.52267 -0.99281,-0.50195 -0.78704,0.21637 0.12521,0.43695 0.64369,3.03392 1.15224,5.77105 1.49569,8.05021 8.87681,36.90013 11.18241,43.70761 5.35799,15.81999 12.01873,31.76374 19.33785,46.28884 7.64744,15.1767 7.3916,14.8556 17.27532,21.6786 11.84044,8.1738 19.55119,13.5485 19.90825,13.8768 0.23702,0.2179 -1.25592,0.378 -3.52547,0.378 l -3.93654,0 -3.18217,-2.4437 c -1.75017,-1.3441 -4.81022,-3.7083 -6.80004,-5.2538 -2.04703,-1.5899 -3.40932,-2.4202 -3.13743,-1.9122 0.26424,0.4938 0.48048,1.3001 0.48048,1.7918 0,1.9311 -1.62107,0.735 -5.62573,-4.1511 -2.26111,-2.7588 -5.60812,-6.6331 -7.43778,-8.6095 -3.27366,-3.5362 -4.81753,-5.7827 -4.93121,-7.1753 -0.0316,-0.3889 -1.81486,-3.9915 -3.96242,-8.0059 -6.25348,-11.6892 -13.8425,-29.69267 -18.9469,-44.94792 -3.25986,-9.7426 -9.5511,-35.30869 -13.15146,-53.44445 -4.28916,-21.60532 -8.16623,-49.54223 -9.57902,-69.0234 -0.7273,-10.0286 -0.30936,-57.12706 0.61825,-69.67252 1.61815,-21.88484 4.8956,-45.46782 10.19394,-73.35089 2.61227,-13.7473 3.1912,-16.00759 4.34054,-16.94657 0.81843,-0.66864 0.87945,-1.20555 0.87945,-7.73784 0,-7.2691 0.67286,-13.08243 2.19873,-18.9965 1.12469,-4.35916 1.09385,-4.62504 -0.57593,-4.96566 -3.68472,-0.75168 -7.95003,-0.78193 -10.69996,-0.0759 -7.02421,1.80348 -18.10567,11.53115 -27.56199,24.19484 -1.74554,2.33762 -3.17372,4.51456 -3.17372,4.83761 0,0.32309 -0.63682,1.26267 -1.41516,2.08797 -4.28385,4.54221 -16.00482,27.15969 -22.37968,43.18515 -5.2353,13.16084 -14.30281,40.65811 -18.46325,55.99001 -4.8804,17.98503 -5.48479,20.44971 -8.98578,36.64381 -2.48809,11.50882 -3.56129,17.6303 -4.76624,27.1866 -0.85529,6.78334 -1.751,13.04253 -1.99042,13.90932 -0.57426,2.0788 -1.3806,2.74657 -2.55661,2.11718 -0.98131,-0.52518 -1.09622,-1.15535 -0.49773,-2.72952 0.21748,-0.572 1.10867,-6.67021 1.98043,-13.55156 3.43589,-27.12187 10.59224,-60.15413 18.22682,-84.13139 11.55188,-36.27995 18.79739,-53.80242 30.15153,-72.91814 1.55508,-2.61813 2.65683,-4.82302 2.44832,-4.89979 -0.46414,-0.1709 -12.17126,5.1333 -19.15966,8.68072 -13.10197,6.65074 -31.3402,21.28967 -56.97855,45.73386 -4.64123,4.42507 -9.67656,9.21292 -11.18961,10.63965 -2.93431,2.76695 -13.25028,13.88015 -17.87361,19.25493 -5.97844,6.95016 -10.68549,13.75396 -13.79784,19.94413 -4.82437,9.5952 -4.73615,14.4618 1.13286,62.49447 2.35131,19.24338 7.20959,42.06377 13.56114,63.6996 9.30635,31.701 24.09309,60.50397 44.45149,86.5867 12.11422,15.5205 31.12909,35.594 43.39881,45.815 0.0992,0.083 -1.77223,0.1502 -4.1587,0.1502 l -4.33901,0 -6.44364,-6.2123 z m 93.95403,-130.69803 c 17.30436,-0.3002 30.27847,-0.9044 33.69125,-1.56906 2.84424,-0.55392 10.47918,-3.12825 12.8139,-4.32056 2.31616,-1.18283 5.98634,-3.98782 14.79957,-11.31071 4.40543,-3.66045 10.1351,-8.3919 12.73268,-10.51436 8.40921,-6.8711 27.20145,-26.33643 35.26693,-36.53013 l 1.82551,-2.3072 -3.20234,2.16409 c -3.98938,2.69598 -8.73854,5.08943 -11.24502,5.66719 -1.0508,0.24221 -3.66317,0.44569 -5.80528,0.45218 -3.85903,0.0115 -3.90265,0.0238 -4.76023,1.33209 -1.29383,1.97363 -7.82998,6.67043 -12.00622,8.62749 -3.84065,1.79976 -10.66366,3.62401 -15.47332,4.13703 -2.1521,0.22958 -3.45234,0.68517 -5.53507,1.93954 -1.76154,1.06093 -3.51781,1.7422 -4.97661,1.93053 -1.23991,0.16008 -3.49202,0.6641 -5.00465,1.12009 -4.41226,1.33001 -19.35122,0.96849 -23.21467,-0.56175 -4.48509,-1.77648 -13.32082,-10.19638 -14.7295,-14.03633 -0.42353,-1.15458 -1.34014,-3.46238 -2.03691,-5.12846 -2.26301,-5.41153 -4.15495,-10.92457 -6.20059,-18.06851 -1.2352,-4.3136 -2.4613,-7.67592 -3.19053,-8.7494 -0.65141,-0.95893 -1.68858,-2.85709 -2.30486,-4.21813 -0.61623,-1.36104 -1.70473,-3.32377 -2.41881,-4.36167 -0.71409,-1.03791 -2.31459,-4.40326 -3.55668,-7.47859 l -2.25836,-5.59155 0.28264,-14.00854 0.28266,-14.00855 -1.25457,-2.21953 c -1.51198,-2.6749 -3.93703,-9.12467 -5.26962,-14.01525 -0.53553,-1.96542 -1.03382,-3.51336 -1.10729,-3.43992 -0.32443,0.32443 -1.06025,8.7754 -1.6845,19.34676 -0.95655,16.19873 -0.95226,62.78304 0.007,73.78364 1.40665,16.13459 4.98392,42.31333 7.59875,55.60819 1.67225,8.50251 1.47058,7.95933 2.67278,7.19838 0.7793,-0.49329 3.92333,-0.67227 15.26218,-0.869 z m 42.439,-44.16541 c 1.17375,-0.34079 3.09727,-0.75809 4.27448,-0.92734 1.1772,-0.16925 2.92984,-0.65544 3.89474,-1.08044 0.96489,-0.425 3.02015,-0.91124 4.56722,-1.08053 2.9346,-0.32115 14.25379,-4.36414 18.08474,-6.45951 3.14414,-1.71974 8.38663,-5.73829 9.19431,-7.04783 0.39912,-0.64709 1.13501,-1.5402 1.63527,-1.98472 1.77163,-1.57416 2.46286,-4.7331 2.4272,-11.09238 -0.0359,-6.38551 -0.63467,-9.43509 -2.75713,-14.03932 -1.33875,-2.90422 -3.63059,-6.21686 -4.54338,-6.56713 -0.325,-0.12478 -2.41059,0.8597 -4.63466,2.18754 -6.56432,3.9191 -17.05172,8.0567 -31.30693,12.35151 -8.23954,2.48242 -23.15841,5.88391 -29.39986,6.70319 -2.45663,0.32244 -5.06459,0.89553 -5.7955,1.2735 -0.73091,0.37796 -1.55716,0.6872 -1.83615,0.6872 -0.93335,0 0.33252,-1.07672 1.95615,-1.66383 0.85066,-0.3076 2.76163,-1.29297 4.24665,-2.18971 3.58502,-2.16482 6.78251,-3.33156 19.1445,-6.98564 24.11971,-7.12954 36.2996,-11.79928 44.56341,-17.08557 3.67827,-2.35298 3.84367,-2.76829 3.57614,-8.97953 -0.45983,-10.67422 -4.43956,-24.16035 -8.70599,-29.50212 l -1.02055,-1.27769 -2.76206,1.33317 c -4.93978,2.38436 -12.3789,4.21342 -33.05446,8.12706 -29.37398,5.56017 -34.47933,6.25236 -35.65624,4.83424 -0.81144,-0.97771 -0.0961,-1.91383 2.39354,-3.13189 2.38535,-1.16699 5.28896,-1.78872 31.09895,-6.65879 16.87188,-3.18351 19.73343,-3.79131 25.67541,-5.45332 6.71423,-1.87805 9.22785,-3.13916 10.93028,-5.48392 l 1.32854,-1.82984 -0.157,-8.87134 -0.15696,-8.87135 -1.67067,-4.89767 c -2.44533,-7.16883 -6.52806,-12.92668 -11.05167,-15.58614 l -1.96225,-1.15362 -26.61404,0 c -28.09919,0 -28.99415,-0.0602 -28.99415,-1.94975 0,-0.80893 1.05491,-1.85471 2.38011,-2.35947 0.47603,-0.18128 8.19648,-0.4543 17.15649,-0.60672 14.20956,-0.24164 16.3936,-0.36749 17.09357,-0.98502 0.44145,-0.38939 1.79115,-1.20317 2.99943,-1.80841 2.62561,-1.31525 6.60352,-5.47388 8.00481,-8.36858 0.55513,-1.14674 1.08845,-3.17893 1.18517,-4.51595 l 0.17582,-2.43101 -1.43945,-0.28786 c -2.12224,-0.42448 -20.38583,-1.21594 -24.4039,-1.0576 -3.19784,0.12608 -3.46199,0.0717 -3.46199,-0.71286 0,-0.61122 0.42457,-0.95365 1.51462,-1.22157 0.83304,-0.20477 2.97514,-0.79357 4.76023,-1.30854 3.49514,-1.00817 6.29745,-1.06958 30.72515,-0.67327 11.56209,0.18755 13.17464,-0.0531 21.82771,-3.25821 8.66956,-3.21117 11.17249,-4.67026 14.24158,-8.30198 3.26777,-3.86687 5.31857,-8.22607 8.02576,-17.05964 2.76254,-9.0142 3.06814,-11.0405 3.06754,-20.33918 -4.4e-4,-6.66714 -0.15272,-8.32388 -1.27267,-13.84878 -2.27029,-11.19962 -4.79191,-17.23192 -8.84582,-21.1611 -1.40859,-1.36528 -1.61527,-1.4311 -3.58233,-1.1409 -1.14813,0.16938 -3.63202,0.67448 -5.5198,1.12246 -1.88773,0.44798 -6.95089,1.12298 -11.25146,1.49995 -8.85702,0.77644 -9.67847,0.96936 -13.88383,3.26094 -1.92465,1.04876 -4.48345,1.97008 -6.99248,2.51768 -2.17638,0.47499 -6.02218,1.76285 -8.54618,2.86186 -2.52747,1.10056 -7.55133,2.75189 -11.18296,3.67576 -3.62661,0.92267 -8.40389,2.37904 -10.61615,3.2364 -2.21229,0.85736 -5.85418,1.93577 -8.09313,2.39648 -2.96727,0.61052 -5.3962,1.4993 -8.96015,3.27867 -2.6891,1.34256 -5.25114,2.76076 -5.69341,3.15154 -1.96905,1.73978 -4.50374,8.91375 -5.44956,15.42389 -0.27661,1.9041 -0.77596,4.33831 -1.10965,5.40936 -2.16046,6.93467 -2.68811,17.29497 -1.96299,38.54288 0.57096,16.72993 0.47957,17.99542 -1.33342,18.46954 -0.97494,0.25497 -1.94559,2.16353 -4.56793,8.98174 -2.91403,7.57661 -3.65285,11.06053 -3.90686,18.4228 -0.25808,7.48028 0.1418,10.35987 2.50039,18.00576 0.72105,2.3374 1.50448,5.12612 1.74098,6.19718 0.2365,1.07105 0.741,2.18295 1.12111,2.47095 0.93935,0.71161 1.34847,5.29195 1.83107,20.50025 l 0.39249,12.36886 1.81421,4.29196 c 2.14843,5.08255 5.5272,10.99956 6.281,10.99956 0.97797,0 1.53037,1.17366 2.57646,5.47392 1.70014,6.98881 4.76858,16.30705 8.17267,24.81848 3.16889,7.92333 3.237,8.04411 6.60799,11.71736 3.56948,3.88963 7.10703,6.4223 9.67344,6.92554 3.03426,0.59503 17.03571,0.43422 19.29444,-0.22161 z m 36.6793,-30.57793 c -0.65371,-0.79539 -3.17092,-7.68008 -3.17092,-8.67259 0,-1.29179 0.79881,-1.32784 1.44178,-0.0651 1.91756,3.76586 3.27319,10.61632 1.72914,8.73762 z m 3.32031,-4.80031 c 0,-0.28185 -0.40843,-1.35623 -0.90765,-2.38747 -1.22524,-2.53093 -1.60121,-5.32225 -0.71694,-5.32225 1.2275,0 2.1489,2.10606 2.69793,6.16667 0.22893,1.69317 0.15882,2.05556 -0.39769,2.05556 -0.37161,0 -0.67565,-0.23062 -0.67565,-0.51251 z m -10.67548,-28.70659 c -1.16574,-2.03864 -2.81373,-12.75752 -1.96143,-12.75752 0.25787,0 0.5791,0.17834 0.71382,0.39631 0.4427,0.71633 2.02833,10.85113 1.8863,12.05664 -0.13198,1.12008 -0.1637,1.13523 -0.63869,0.30457 z m -7.19535,-39.44517 c -0.14887,-0.24086 -0.66882,-3.03551 -1.1554,-6.21028 -1.53275,-10.00035 -3.16244,-15.94181 -6.1645,-22.47415 -1.8191,-3.95823 -2.08594,-6.59466 -0.69422,-6.85825 0.54916,-0.104 0.721,0.1622 0.69612,1.07828 -0.0182,0.66903 0.76147,2.79474 1.73251,4.72384 3.18663,6.33081 5.93874,16.63213 6.40433,23.97207 0.24143,3.80598 -0.18314,6.79709 -0.81884,5.76849 z m -9.5361,-10.31235 c -0.16682,-0.95205 -0.81914,-4.35994 -1.44966,-7.5731 -0.63047,-3.21316 -1.22148,-6.52369 -1.31335,-7.35673 -0.15042,-1.36458 -0.10631,-1.43936 0.44565,-0.75493 0.67041,0.83131 1.72584,5.78321 2.48138,11.64193 0.51899,4.02457 0.38995,7.20497 -0.16402,4.04283 z m -50.91728,-55.85612 c -0.56513,-0.93469 -1.60935,-2.37709 -2.32053,-3.20537 -1.84411,-2.14777 -4.08099,-7.23521 -5.30883,-12.0742 -0.84278,-3.3213 -1.03158,-5.03715 -0.93439,-8.49005 0.0896,-3.18079 0.26519,-4.29884 0.6628,-4.2193 0.41981,0.0839 0.54344,-2.09632 0.5521,-9.73684 0.0115,-10.27982 0.51216,-17.70115 1.29206,-19.15843 0.25203,-0.47092 0.84083,-0.8562 1.3085,-0.8562 0.97576,0 1.08936,0.45305 0.30933,1.23399 -0.41332,0.41379 -0.53942,4.28797 -0.53445,16.4228 l 0.007,15.88123 1.18309,3.3615 c 1.53171,4.35203 4.57467,10.39082 7.07959,14.04962 1.36506,1.99389 1.8075,2.95688 1.4182,3.08662 -0.31119,0.10372 -0.7696,-0.15635 -1.01873,-0.57798 -0.24909,-0.42162 -1.88977,-2.64184 -3.64595,-4.93381 -3.40569,-4.44472 -5.21765,-7.82833 -6.55722,-12.24488 l -0.8314,-2.74107 0.2606,2.59649 c 0.56063,5.58488 4.03387,15.47345 7.17411,20.42504 0.68214,1.07568 1.17093,2.16379 1.0862,2.41798 -0.0847,0.25424 -0.61645,-0.30249 -1.18158,-1.23714 z m 65.12537,-15.62646 c -1.07382,-0.27977 -3.24492,-1.88843 -6.00815,-4.45169 -2.70186,-2.50635 -6.70444,-8.45045 -9.28401,-13.78737 l -2.01778,-4.17455 0.0329,-6.06363 c 0.0277,-5.12967 0.24749,-7.05376 1.42655,-12.49241 1.31067,-6.04585 1.34892,-6.46155 0.64238,-6.97816 -0.68717,-0.50247 -0.70023,-0.76229 -0.15298,-3.04335 0.85918,-3.58151 1.9642,-4.95973 5.36881,-6.696 2.62856,-1.34057 3.32706,-1.50718 6.25914,-1.4932 5.72315,0.0273 8.27706,1.59004 8.27706,5.06467 0,1.81863 -1.84247,7.68016 -3.91123,12.44295 -2.2213,5.11388 -2.14847,7.33994 0.63662,19.46525 0.84736,3.68918 2.03175,7.81102 2.63202,9.15964 2.17975,4.89755 2.3796,9.71149 0.49212,11.85411 -0.95248,1.08131 -2.848,1.59628 -4.39339,1.19374 z m -0.15051,-11.2638 c -1.1122,-2.55594 -3.45099,-11.71472 -4.89421,-19.16592 -0.71893,-3.71177 -0.22049,-8.84373 1.15583,-11.90058 1.42677,-3.16898 3.5687,-9.20396 3.68615,-10.38597 0.18721,-1.88354 0.0831,-1.94737 -3.17655,-1.94737 -1.87207,0 -3.44584,0.22075 -3.85618,0.54094 -0.97853,0.7635 -3.09514,7.33509 -4.49509,13.95614 -0.92919,4.39452 -1.19633,6.85695 -1.22069,11.25146 -0.029,5.24899 0.0475,5.7936 1.14319,8.13248 2.28214,4.87119 7.21703,11.87583 10.01847,14.22029 l 2.65509,2.22199 0.13127,-1.99281 c 0.0965,-1.46572 -0.2069,-2.76981 -1.14722,-4.93065 z m 29.05297,176.32502 c 3.88007,-1.78765 8.39485,-4.9918 11.90777,-8.45107 2.16863,-2.13552 4.0607,-3.5452 5.86257,-4.36803 1.4633,-0.66821 3.80257,-2.15054 5.1984,-3.29404 1.71883,-1.40816 2.3709,-1.76717 2.0205,-1.11247 -0.97187,1.81599 -0.0229,1.46494 2.4713,-0.91396 1.37069,-1.30742 2.68663,-2.45819 2.92425,-2.55724 0.85684,-0.35711 8.00516,-11.82313 8.00516,-12.84043 0,-0.27116 1.07105,-3.22251 2.38012,-6.55857 1.30906,-3.33601 2.38011,-6.20076 2.38011,-6.36603 0,-0.16531 0.79842,-2.03388 1.77432,-4.15235 2.02989,-4.4066 4.46021,-14.6691 5.15304,-21.75977 0.2326,-2.38012 0.64362,-6.37222 0.9134,-8.87135 0.65708,-6.08678 0.16955,-16.04887 -1.12982,-23.0867 -0.56465,-3.05819 -1.11368,-5.64746 -1.22014,-5.75391 -0.10645,-0.10646 -0.32824,0.74047 -0.4929,1.88202 -0.80465,5.57951 -3.8718,14.56147 -7.01502,20.54301 -2.01289,3.83052 -10.59343,11.97696 -14.36427,13.63751 -3.00977,1.32542 -3.98332,2.15565 -3.63119,3.09653 0.23463,0.62697 0.17556,0.64125 -0.47218,0.11425 -0.52834,-0.4299 -1.8197,-0.57647 -4.5098,-0.51177 -2.07321,0.0499 -3.84398,0.16513 -3.93498,0.25618 -0.091,0.091 0.46672,1.19301 1.23943,2.44884 2.82165,4.58575 4.8618,11.65769 5.57666,19.33067 0.2294,2.46238 0.31214,4.75054 0.18388,5.08479 -0.3942,1.02722 -1.03873,0.67202 -0.76432,-0.42124 0.33321,-1.32771 -1.68236,-12.29205 -3.05512,-16.61893 -0.58287,-1.83723 -1.94015,-4.84016 -3.01622,-6.6732 -1.69183,-2.88202 -2.23475,-3.45549 -4.01374,-4.24002 -1.13151,-0.49896 -2.83624,-1.66838 -3.78828,-2.59875 l -1.731,-1.69148 -0.0896,2.90227 c -0.0496,1.60996 0.29497,4.71562 0.77402,6.9747 0.47498,2.23986 1.72268,9.44512 2.77271,16.0117 1.05002,6.56661 2.33554,13.88664 2.8567,16.26676 1.30071,5.94021 1.49597,7.72412 0.82084,7.4991 -0.2967,-0.099 -0.87303,-1.43721 -1.28072,-2.97398 -0.40765,-1.53678 -1.25523,-4.50799 -1.8835,-6.60266 -0.63004,-2.10061 -1.83338,-8.60188 -2.68339,-14.49708 -5.24525,-36.37966 -8.21793,-45.43813 -20.32386,-61.93165 -3.70364,-5.04598 -4.43325,-7.12187 -2.20226,-6.26577 0.92924,0.35659 6.14611,7.01425 9.22927,11.77817 1.36913,2.11549 2.73861,4.21505 3.04331,4.66572 0.46516,0.68798 0.51545,0.2989 0.31361,-2.42625 -0.30669,-4.14084 -1.37129,-11.40448 -2.28335,-15.57895 -0.48555,-2.22238 -1.77254,-5.34626 -4.08238,-9.90877 -1.85528,-3.66478 -3.37323,-6.82237 -3.37323,-7.01698 0,-0.59113 1.71489,-1.31313 2.51548,-1.05902 2.55672,0.81149 7.81492,9.57227 9.3658,15.60465 0.87848,3.4169 2.2435,12.55019 2.8458,19.04094 1.11459,12.01163 4.84964,22.41248 9.4337,26.2697 0.82231,0.69197 2.17452,1.27726 3.36233,1.45538 5.68212,0.85208 10.67193,-1.49943 17.73192,-8.35642 4.56853,-4.4371 4.86755,-4.83843 6.38304,-8.56621 0.8745,-2.15107 1.59001,-4.04244 1.59001,-4.20303 0,-0.1606 -1.23524,-0.17665 -2.74502,-0.0355 -3.3142,0.3095 -7.20193,-0.32062 -12.28547,-1.99116 -2.08676,-0.68578 -3.96662,-1.08261 -4.17749,-0.88186 -0.21088,0.20076 -0.47867,2.1859 -0.59508,4.41144 l -0.21165,4.04642 1.52929,1.34273 c 1.30858,1.14895 1.98774,1.38415 4.70618,1.62969 1.74727,0.15782 3.72549,0.39242 4.39599,0.52138 1.57668,0.30322 2.20079,1.79127 1.22126,2.91179 -0.63298,0.72416 -1.12861,0.78132 -4.6041,0.53111 -5.50863,-0.39666 -6.04307,-0.56928 -8.44266,-2.72666 -2.61567,-2.35173 -3.21749,-4.17568 -2.81607,-8.53467 0.55725,-6.05143 2.23748,-9.33859 4.77339,-9.33859 0.80171,0 1.57983,0.19768 1.72917,0.43933 0.79245,1.28224 8.92367,3.45541 12.92897,3.45541 2.73718,0 6.00595,-1.11489 6.83332,-2.33065 0.53176,-0.78146 1.63878,-7.63767 2.9732,-18.41475 0.72382,-5.84587 1.59883,-12.3815 1.94443,-14.52361 0.65384,-4.05278 0.80539,-12.58848 0.27644,-15.57003 l -0.30552,-1.72208 -1.93227,0.13949 c -2.68642,0.19395 -11.10969,2.70178 -18.59274,5.5355 -12.90859,4.88829 -12.97186,4.90585 -13.85246,3.8448 -0.75865,-0.9141 0.95413,-1.84355 9.93894,-5.3933 9.72269,-3.8413 12.20416,-4.5768 18.45309,-5.46921 2.82243,-0.40311 5.18805,-0.78064 5.2569,-0.83897 0.26337,-0.22313 -2.12488,-6.0268 -3.8242,-9.29315 -3.31398,-6.36984 -6.66095,-8.77354 -17.50567,-12.57199 -2.85614,-1.00039 -7.60262,-2.77859 -10.54773,-3.95152 -2.94511,-1.17296 -5.38928,-2.07559 -5.43147,-2.00592 -0.19725,0.32578 -3.73605,11.96373 -3.98618,13.10921 -0.53674,2.45828 -3.96471,8.66177 -6.62417,11.98762 -3.92109,4.90369 -6.79722,6.65688 -17.18561,10.47602 -7.5393,2.77171 -10.417,3.29577 -19.68522,3.58489 l -8.06855,0.25173 -0.16219,2.86977 c -0.31846,5.63612 -4.14933,10.98584 -9.35849,13.06892 l -2.72212,1.08858 8.13147,-0.0264 8.13148,-0.0264 3.24561,1.68071 c 5.56398,2.8812 10.77678,9.0715 13.42772,15.94571 2.75085,7.13316 3.1311,9.29332 3.34138,18.9826 0.20512,9.45002 0.14943,9.78998 -2.1267,12.98631 -0.40211,0.56474 -0.12737,1.21269 1.46745,3.46199 3.67512,5.18298 5.9805,10.97511 7.81903,19.64445 2.33559,11.01332 2.55356,17.23231 0.71845,20.49748 l -0.97208,1.72957 1.85341,2.08533 c 2.29392,2.58086 4.91568,7.9386 6.02906,12.32065 1.24761,4.91044 1.59602,12.82342 0.72706,16.51373 -0.38177,1.62134 -0.69413,3.05585 -0.69413,3.1878 0,0.67963 5.65005,-0.22745 7.91415,-1.27055 z m 2.90456,-150.70427 c 0,-0.83637 4.64625,-5.42662 8.00585,-7.90934 7.00503,-5.17667 16.56129,-8.15697 22.89967,-7.1417 2.66941,0.42756 3.01769,1.18824 0.57681,1.25982 -3.5928,0.1053 -11.5092,2.23956 -15.7385,4.24297 -4.33826,2.05508 -6.50776,3.50254 -11.49575,7.67008 -3.05114,2.54919 -4.24808,3.0784 -4.24808,1.87817 z m -117.50086,19.08508 2.38974,-5.47929 -0.057,-4.42135 c -0.0313,-2.43179 -0.17735,-6.66087 -0.32456,-9.398 l -0.26763,-4.97661 -2.30405,14.06433 c -2.88493,17.61014 -2.83853,17.27563 -2.2743,16.39191 0.2464,-0.38592 1.52336,-3.16737 2.83772,-6.18099 z M 764.36808,605.51134 c 4.18805,-0.79444 7.02654,-1.81971 19.01956,-6.86989 10.12809,-4.26487 12.19615,-5.50681 17.30994,-10.39505 2.0231,-1.93387 5.04152,-4.60432 6.7076,-5.93441 3.72363,-2.9726 4.66075,-3.97601 7.80903,-8.36148 2.8124,-3.91755 4.7187,-7.78416 5.8674,-11.90059 0.4317,-1.54708 1.0875,-3.88392 1.4573,-5.19298 0.3698,-1.30907 0.7983,-3.72731 0.9522,-5.37392 0.2317,-2.47774 0.1748,-2.95204 -0.3299,-2.7515 -0.3354,0.13329 -5.4782,2.33277 -11.42854,4.88785 -29.22325,12.54854 -45.46842,17.67566 -61.01755,19.25775 -6.59544,0.67106 -45.17155,0.68054 -49.98246,0.0115 -8.19985,-1.139 -22.51241,-4.68001 -33.33294,-8.24672 -3.63362,-1.19772 -6.66429,-2.11991 -6.73487,-2.04933 -0.2323,0.2323 9.91579,13.99163 13.63202,18.483 10.16799,12.28893 19.9243,17.69963 38.55275,21.38077 15.35889,3.03508 42.98556,4.6729 51.51846,3.05421 z m -19.27869,-36.54696 c 8.25602,-0.52372 12.48107,-1.21399 21.17564,-3.45961 11.79383,-3.04616 26.4483,-8.53692 48.49688,-18.17086 28.6808,-12.53188 42.3722,-19.75817 51.9354,-27.4115 7.2003,-5.76231 14.821,-14.63686 17.6147,-20.51285 0.7072,-1.48757 1.4387,-2.70468 1.6255,-2.70468 0.5116,0 4.8244,-8.94902 7.5915,-15.75222 3.2918,-8.09318 8.3088,-23.03685 11.669,-34.75707 7.7507,-27.03454 11.9965,-55.38609 12.633,-84.35666 l 0.2771,-12.61449 -1.7695,-0.90273 c -0.9732,-0.49649 -1.9015,-1.11641 -2.0629,-1.37757 -0.1614,-0.26116 -1.317,-1.12958 -2.5679,-1.9298 -4.8603,-3.10907 -8.3452,-7.761 -11.0834,-14.79482 l -1.3841,-3.55552 -1.1281,0.78466 c -2.6747,1.86038 -7.5497,2.34815 -11.5215,1.1528 -6.4269,-1.93422 -12.6568,-9.55597 -17.747,-21.7119 l -2.1976,-5.24802 -1.8973,1.12045 c -1.5788,0.93242 -2.5555,1.14758 -5.8193,1.28205 -2.1571,0.0889 -4.7824,-0.0365 -5.834,-0.27847 -1.6965,-0.39044 -2.1599,-0.31473 -4.1111,0.67172 -1.2095,0.61149 -4.1465,2.42902 -6.5266,4.03896 -10.2305,6.92003 -36.68738,22.98298 -43.27485,26.27373 -11.52068,5.75511 -20.11822,5.01927 -27.97715,-2.39445 -2.41647,-2.27957 -2.98225,-3.0563 -2.87791,-3.95086 0.19764,-1.69408 1.17703,-1.54553 4.02465,0.61044 1.42807,1.0812 3.85717,2.59451 5.39797,3.36288 2.42932,1.21147 3.33221,1.41688 6.79667,1.54636 2.95182,0.11035 4.59358,-0.0469 6.28628,-0.60172 4.8116,-1.5773 13.74379,-6.49422 28.25594,-15.55414 10.3484,-6.46053 18.1984,-10.97642 23.693,-13.62992 3.3227,-1.60465 4.6274,-2.6033 3.4011,-2.6033 -0.2119,0 -2.208,-1.1926 -4.4357,-2.65021 -10.0412,-6.57031 -27.34244,-27.38211 -39.52786,-47.54863 -1.36628,-2.26111 -2.52803,-4.16047 -2.58174,-4.22081 -0.0537,-0.0603 -0.0169,2.37388 0.0814,5.40935 0.16617,5.12265 0.1066,5.65894 -0.82794,7.46643 -1.48631,2.87442 -3.10627,3.56712 -7.78982,3.33094 -3.06528,-0.15456 -4.29524,-0.44236 -6.7076,-1.56945 -3.96554,-1.85278 -8.22127,-5.18146 -13.15807,-10.2918 -9.5836,-9.92043 -13.59155,-16.03377 -20.27656,-30.92781 -3.22848,-7.19299 -3.17534,-7.14704 -4.31226,-3.73064 -4.52893,13.60946 -20.59203,32.65218 -36.63342,43.42875 -5.79043,3.89001 -9.37809,5.43678 -13.17602,5.68069 -2.36515,0.1519 -3.0884,0.0203 -4.54387,-0.82658 -3.06165,-1.78151 -5.45505,-6.85498 -6.38793,-13.54099 l -0.4842,-3.47028 -2.90699,4.33578 c -12.13072,18.09296 -27.15,28.24137 -37.34027,25.23055 -3.99626,-1.18072 -8.63883,-7.88892 -9.81859,-14.18717 -1.10368,-5.89216 -0.88917,-5.75942 -2.73186,-1.69052 -6.13023,13.53649 -16.90619,30.5336 -25.07869,39.55699 l -2.90067,3.20274 3.14621,0.90267 c 13.24973,3.80138 27.19124,9.56281 56.59071,23.38649 12.46805,5.86249 12.4999,5.86693 16.0297,2.23722 1.42552,-1.46586 2.75929,-3.34417 3.20684,-4.51605 0.83109,-2.17622 1.46784,-2.63679 3.08442,-2.23106 1.16327,0.29196 1.40656,1.35669 0.39834,1.74357 -0.35702,0.13704 -0.65103,0.66642 -0.65336,1.17648 -0.0115,2.71113 -4.55178,8.98715 -7.51871,10.39504 -3.04239,1.44371 -5.22392,0.87039 -16.27822,-4.27806 -15.13426,-7.04865 -44.62417,-20.42201 -53.44445,-24.23649 -6.56264,-2.83812 -6.30442,-2.8295 -9.06903,-0.30281 -8.0631,7.36923 -13.95519,10.1749 -16.70011,7.9522 l -0.982,-0.79516 -2.03171,4.14897 c -1.11749,2.28192 -3.13011,5.60689 -4.47259,7.38879 -3.32251,4.41015 -11.31957,12.37515 -13.46306,13.40906 -0.96213,0.46408 -3.89145,1.19803 -6.50958,1.63099 -2.61813,0.43295 -4.73341,0.97605 -4.7006,1.20687 1.89976,13.37475 2.19607,16.11586 4.48946,41.5308 3.36133,37.25031 7.43068,65.0248 12.50479,85.34849 5.03525,20.16812 13.22471,34.81969 26.60045,47.59028 13.9847,13.35198 30.31036,23.73626 53.28135,33.89074 14.15953,6.25928 25.94475,10.50883 37.0901,13.37397 11.80413,3.03452 40.57023,4.71146 59.84558,3.48878 z m -17.00702,-30.36943 c -0.82361,-0.82361 -0.61836,-1.48416 0.84342,-2.71416 3.71234,-3.12371 12.19789,-6.13153 18.00278,-6.38131 2.20161,-0.0948 4.00292,-0.0147 4.00292,0.17738 0,0.19232 -0.43971,0.34966 -0.97714,0.34966 -0.53739,0 -1.87657,0.47884 -2.97593,1.06405 -1.09935,0.58524 -4.01885,1.82355 -6.48777,2.75184 -2.46896,0.92829 -6.09124,2.49419 -8.04955,3.47982 -4.08766,2.05729 -3.69022,1.94123 -4.35873,1.27272 z m -39.68305,-7.18618 c -6.90078,-2.08603 -11.49142,-5.52075 -12.67971,-9.48689 -0.99956,-3.33615 -0.28769,-16.94315 1.08079,-20.65938 0.82309,-2.2351 4.75232,-8.24507 8.07241,-12.34709 7.73819,-9.56072 26.89753,-25.43221 37.01208,-30.66054 8.90146,-4.60125 19.90124,-6.30437 29.69131,-4.59714 7.7131,1.34503 18.36018,5.48193 24.23834,9.41774 3.42334,2.29214 9.00658,8.01758 11.59281,11.88804 4.17923,6.25447 5.48133,10.72312 5.49323,18.85221 0.009,5.93082 -0.96036,9.56193 -3.89128,14.5803 -4.11708,7.04947 -8.42561,8.62801 -23.58376,8.64052 -8.40826,0.007 -9.38294,-0.0743 -12.98246,-1.08214 -5.17848,-1.44996 -15.67683,-2.28504 -17.426,-1.38609 -2.76908,1.42305 -8.78991,5.45328 -11.99787,8.03112 -3.60359,2.89578 -4.38643,3.32632 -10.81872,5.95034 -7.62524,3.11068 -8.00688,3.19901 -14.81411,3.42845 -5.3605,0.18072 -6.80908,0.0889 -8.98706,-0.56945 z m 19.47369,-6.34752 c 2.38011,-1.00687 5.27875,-2.17776 6.44142,-2.6019 1.16271,-0.42418 3.62119,-1.99804 5.46336,-3.49752 1.84217,-1.49943 4.63747,-3.51465 6.21176,-4.47821 1.57425,-0.96356 3.97021,-2.48558 5.32432,-3.38227 l 2.46204,-1.63038 6.72461,0.10761 c 5.84816,0.0938 7.42718,0.28254 12.11454,1.44901 5.30424,1.31997 5.53139,1.33879 14.29468,1.18474 5.05143,-0.0889 9.23542,-0.3504 9.66886,-0.60447 0.69694,-0.40855 0.61463,-0.65518 -0.93682,-2.80706 -4.88218,-6.77174 -6.67809,-7.91251 -16.21292,-10.29873 l -7.18134,-1.79725 -10.50302,0.004 c -9.51636,0 -10.97611,0.10271 -15.53836,1.07105 -9.54128,2.02531 -12.25063,3.47433 -20.62752,11.03198 -7.74655,6.98893 -10.80063,11.37678 -11.23234,16.13771 l -0.23109,2.54854 4.71519,-0.30223 c 4.21121,-0.2699 5.17762,-0.49787 9.04263,-2.13288 z m -16.36305,0.0929 c -0.64921,-4.73639 2.03349,-9.63554 9.19379,-16.78987 5.33133,-5.32692 10.13419,-9.16029 13.66049,-10.90314 2.9516,-1.4588 5.59392,-2.26851 11.58554,-3.55031 4.58268,-0.98044 6.19073,-1.09901 16.0117,-1.18089 l 10.91738,-0.091 7.11145,1.84139 c 3.91131,1.01276 8.09815,2.30824 9.30409,2.87882 3.80849,1.80196 7.01732,5.0371 10.8146,10.9034 0.49416,0.76345 1.1055,1.39635 1.35849,1.40643 1.45706,0.058 5.22708,-6.43735 6.24841,-10.76535 0.84023,-3.56057 0.34555,-11.24454 -0.96589,-15.00396 -1.22481,-3.51106 -2.3159,-5.31632 -5.92312,-9.80037 -2.23329,-2.77617 -6.39533,-6.58328 -8.60174,-7.86824 -0.35486,-0.20663 -1.2632,0.32184 -2.47861,1.44222 -1.84204,1.69789 -2.03262,1.76839 -4.78205,1.76839 -1.66894,0 -4.10934,-0.3784 -5.84981,-0.90704 -2.61337,-0.79379 -3.72943,-0.87939 -8.93851,-0.68574 -8.22763,0.30591 -12.89296,0.90951 -15.68912,2.02977 -1.30907,0.52449 -3.35381,1.24566 -4.54386,1.6026 -1.19006,0.35697 -3.42876,1.53158 -4.97493,2.61025 -1.54612,1.07871 -3.86154,2.32269 -5.14542,2.7644 -1.28383,0.4417 -3.13604,1.46009 -4.11604,2.26314 -2.68309,2.19858 -5.95008,4.17057 -6.9094,4.17057 -2.3062,0 -6.51468,-1.07027 -7.89692,-2.00825 l -1.54955,-1.05154 -3.67291,3.3345 c -6.42125,5.82964 -15.25863,16.98287 -15.27585,19.27887 -0.004,0.63899 -0.31344,2.58636 -0.68591,4.32748 -0.76787,3.58956 -0.508,10.86286 0.46876,13.11895 1.17175,2.70654 3.19572,4.23985 7.78155,5.89529 3.47099,1.25298 3.84164,1.14518 3.54339,-1.03077 z m 20.95646,-48.1348 c 2.04486,-1.58247 4.57328,-3.1193 5.79255,-3.52089 1.19006,-0.39194 3.04006,-1.34251 4.11112,-2.11233 2.67841,-1.92517 3.96795,-2.53828 9.14531,-4.34808 5.31537,-1.85805 8.4666,-2.30785 18.44033,-2.63224 6.76036,-0.21984 7.7443,-0.15722 10.45313,0.66557 4.00375,1.21611 5.69514,1.18036 6.94189,-0.14679 l 0.99117,-1.05504 -1.67305,-0.72278 c -10.79457,-4.66325 -19.71901,-6.40117 -27.85434,-5.42429 -10.65998,1.28007 -18.2172,5.05481 -31.03084,15.49937 -3.14327,2.56213 -5.72353,4.78365 -5.73392,4.93667 -0.0368,0.54284 3.25319,1.62484 5.00729,1.64682 1.54552,0.0195 2.25947,-0.34836 5.40936,-2.78599 z m -1.74264,-30.00977 c -0.36372,-0.67968 -0.31673,-1.02847 0.20958,-1.55478 0.75389,-0.75385 0.86857,-0.78674 6.67649,-1.9137 6.39654,-1.24117 27.90346,-7.30792 32.27439,-9.10408 5.04507,-2.07317 9.7867,-5.22795 11.41522,-7.59491 1.86069,-2.70442 2.35402,-5.2135 2.03504,-10.34992 -1.00112,-16.12108 -10.6065,-29.32302 -45.2919,-62.25084 -6.62058,-6.28508 -7.51282,-7.28952 -7.09396,-7.98576 1.10108,-1.83021 1.77409,-1.39045 12.93607,8.4529 7.19885,6.34843 20.90811,20.18254 26.43717,26.67801 12.87219,15.12199 17.52091,25.11174 17.61637,37.85633 0.0316,4.24457 -0.11093,5.35344 -0.97026,7.53843 -2.05166,5.21687 -8.56678,10.14242 -17.76749,13.43261 -6.47712,2.31624 -17.1899,4.62076 -24.23392,5.21315 -3.32239,0.27942 -10.45006,1.49358 -12.83723,2.1868 -0.67613,0.19634 -1.06707,0.0281 -1.40557,-0.60424 z m -123.804,-26.07094 c -0.59503,-0.47823 -2.99051,-2.24644 -5.32324,-3.92927 -4.22947,-3.05114 -4.78906,-3.87245 -3.28413,-4.82009 1.59385,-1.0036 10.29357,6.48738 10.32763,8.89273 0.0144,0.96901 -0.37675,0.93647 -1.72026,-0.14339 z m 10.5714,-0.80543 c -0.45902,-0.46235 -2.17141,-2.09914 -3.80534,-3.63734 -2.81918,-2.65396 -3.37089,-3.80771 -1.95247,-4.08312 0.96295,-0.18694 7.80622,7.00932 7.47824,7.864 -0.34875,0.90894 -0.70503,0.87921 -1.72043,-0.14353 z m 281.10113,-9.70019 c 0,-0.5887 5.8015,-5.4709 6.5011,-5.4709 1.0788,0 0.5609,0.98973 -1.7745,3.39127 -1.7937,1.84449 -2.9227,2.66721 -3.6602,2.66721 -0.6097,0 -1.0664,-0.2516 -1.0664,-0.58758 z m -8.0652,-4.82061 c -0.1413,-0.36793 0.2854,-1.26991 0.9872,-2.0871 0.6797,-0.79153 1.8694,-2.35643 2.6436,-3.47755 1.5136,-2.19189 3.242,-3.24477 3.5002,-2.13228 0.2008,0.865 -2.2315,5.68592 -3.6099,7.15483 -1.2181,1.2982 -3.1187,1.59081 -3.5211,0.5421 z m -249.23377,-13.9978 c -1.84087,-1.59319 -3.29386,-3.65364 -5.11868,-7.25843 -1.43482,-2.83442 -2.02024,-5.37164 -1.23441,-5.34996 0.17851,0.004 1.00614,1.40388 1.83918,3.10878 0.83304,1.70492 2.54802,4.63752 3.81104,6.51692 1.26307,1.8794 2.23675,3.578 2.16375,3.77464 -0.073,0.19665 -0.73035,-0.15972 -1.46088,-0.79195 z m 5.82398,-1.1474 c -2.35723,-1.22793 -5.31809,-4.39045 -6.99357,-7.4698 -1.52994,-2.81203 -2.91348,-8.20231 -2.90495,-11.31791 0.007,-2.73233 0.45088,-3.75011 1.46433,-3.36122 0.55193,0.21181 0.69465,0.95055 0.70192,3.63325 0.016,5.90798 2.52509,11.26751 7.8276,16.7201 3.30836,3.40204 3.29975,3.56415 -0.0954,1.79558 z m -13.15076,-2.10316 c -0.71403,-0.98126 -1.76808,-2.41994 -2.34229,-3.19707 -0.57422,-0.77715 -0.93941,-1.51762 -0.81154,-1.64552 0.31401,-0.31401 4.78235,5.74986 4.59783,6.23966 -0.0802,0.21286 -0.72996,-0.41583 -1.444,-1.39707 z m 21.95338,-3.73246 c -1.8069,-0.42848 -4.67576,-2.41235 -5.93467,-4.10398 -0.53786,-0.72269 -1.60749,-2.96724 -2.37704,-4.98791 l -1.39912,-3.67392 0.17881,-7.79391 c 0.20655,-9.00314 0.6377,-10.42578 4.25651,-14.04458 2.72026,-2.72026 4.46147,-3.49053 7.83782,-3.46717 5.63737,0.0389 8.86433,0.65489 11.16439,2.13082 4.06399,2.60788 4.45675,4.21345 3.28902,13.44557 -0.7136,5.64195 -1.53236,8.6622 -3.29486,12.15453 -1.55015,3.07152 -7.08604,9.82818 -8.48966,10.36184 -1.22576,0.46603 -3.21022,0.45795 -5.2312,-0.0213 z m 216.83777,-3.57877 c 0.4915,-2.06919 3.1342,-8.54067 3.489,-8.54365 0.8597,-0.007 -0.7452,6.42134 -2.1311,8.53657 -0.8315,1.26889 -1.6585,1.2732 -1.3579,0.007 z m -5.1099,-2.06029 c -0.1486,-0.2406 0.4021,-1.55508 1.2239,-2.92105 0.8219,-1.36597 2.0064,-3.50594 2.6323,-4.7555 1.2644,-2.52427 1.9889,-2.90402 1.9889,-1.04247 0,4.41231 -4.4262,11.01481 -5.8451,8.71902 z m -17.307,-1.23986 c -0.476,-0.20269 -1.9451,-0.50142 -3.2646,-0.66384 -2.9392,-0.36178 -5.7133,-2.30664 -8.6129,-6.03821 l -1.9704,-2.53588 -0.1437,-5.89959 c -0.083,-3.39843 0.072,-6.99528 0.3648,-8.48408 0.938,-4.76758 3.3081,-8.17883 7.3223,-10.53876 1.7513,-1.02961 2.4234,-1.1623 5.8872,-1.1623 l 3.9101,0 3.3082,2.48988 c 5.94,4.47058 6.2596,5.30438 5.6201,14.66517 -0.638,9.33989 -2.1001,13.12973 -6.4363,16.68293 -1.9227,1.57547 -4.3546,2.17879 -5.9848,1.48468 z m 10.6818,-0.81096 c 0.092,-0.80131 0.4197,-1.23081 1.0025,-1.31481 0.545,-0.0786 1.7468,-1.48956 3.2456,-3.81078 2.6509,-4.10544 4.3275,-5.97697 4.3275,-4.83076 0,1.85662 -4.5647,9.9142 -6.0741,10.72203 -0.4362,0.23341 -1.2082,0.42438 -1.7157,0.42438 -0.7513,0 -0.8973,-0.22109 -0.7858,-1.19006 z M 757.947,335.45704 c -4.69671,-1.02714 -8.44583,-3.57208 -10.00403,-6.79083 -1.138,-2.35084 -1.15089,-3.95061 -0.0407,-5.06077 1.67365,-1.67364 3.85466,-0.55557 2.65703,1.3621 -0.60131,0.96286 0.0961,2.6109 1.73753,4.1062 1.49523,1.36209 6.87378,4.70691 8.37169,5.20623 1.34749,0.44916 1.78435,1.60004 0.64895,1.70959 -0.35702,0.0345 -1.87371,-0.2052 -3.37046,-0.53252 z M 569.32842,542.74782 c 1.41331,-0.48157 2.23281,-1.07357 2.67806,-1.93452 1.16782,-2.2583 3.3654,-2.68724 7.49101,-1.46208 3.29845,0.97957 9.85784,1.01553 11.63574,0.0637 3.55862,-1.90491 6.17507,-5.3006 7.02836,-9.1216 l 0.47191,-2.11315 -5.7794,-5.532 c -10.23403,-9.79596 -15.44609,-16.75849 -20.87886,-27.89078 -6.37872,-13.07061 -10.21607,-28.02151 -14.46662,-56.36399 -0.72269,-4.81891 -1.31399,-9.35537 -1.31399,-10.08109 0,-1.93171 -1.68015,-3.44382 -3.8265,-3.44382 -2.88145,0 -8.75022,-4.39984 -16.5245,-12.38842 -8.64788,-8.88635 -11.3162,-13.52787 -16.27706,-28.31372 l -2.53288,-7.54932 0,-9.73685 c 0,-9.02034 0.0736,-9.97568 1.01752,-12.98246 1.82451,-5.81177 4.10333,-8.64445 8.61629,-10.71054 2.1434,-0.98127 2.71532,-1.04848 7.59283,-0.89201 4.93364,0.15827 5.44281,0.25832 7.87135,1.54667 1.42807,0.75759 3.52149,2.08295 4.65205,2.94526 2.2438,1.71139 2.32213,1.64008 1.78253,-1.62325 -0.23896,-1.44522 -0.41773,-1.61961 -1.92066,-1.87353 -3.59009,-0.60654 -7.46492,-5.72332 -8.87823,-11.72374 -0.92872,-3.94311 -0.62476,-11.40586 0.61506,-15.10161 0.4791,-1.42807 1.18613,-3.86228 1.57118,-5.40936 0.96733,-3.88614 1.05924,-4.10479 1.52847,-3.63555 0.25004,0.25005 0.14324,1.39034 -0.28029,2.99341 -1.31659,4.98304 0.0669,18.41584 2.40626,23.36144 1.77128,3.74481 3.93299,5.78059 3.93299,3.70391 0,-1.369 0.78803,-1.45194 1.94404,-0.20463 l 1.08234,1.16789 4.00436,-0.53561 c 2.20238,-0.2946 4.7833,-0.87716 5.73534,-1.29459 2.38639,-1.04631 10.50342,-9.56462 13.51163,-14.17962 4.71051,-7.22872 7.04255,-14.37453 7.04255,-21.58415 0,-4.96228 0.70499,-10.92905 1.38882,-11.75449 0.61896,-0.74711 2.71787,-0.67925 3.3721,0.10906 0.41341,0.49812 0.46594,2.4945 0.22499,8.54678 -0.55072,13.83268 -0.46811,15.03721 1.03141,15.03721 1.14259,0 7.08565,-4.35494 11.51587,-8.4386 12.33697,-11.37184 24.422,-30.20105 34.16304,-53.22808 2.02024,-4.77565 2.78331,-5.8421 4.18013,-5.8421 1.75013,0 1.99238,0.94769 2.2339,8.73895 0.14266,4.6023 0.47727,8.34512 0.86792,9.70981 0.95576,3.33847 3.31269,7.45321 5.01006,8.74659 1.3178,1.00413 1.89634,1.14562 4.57021,1.11771 2.09277,-0.0218 3.85609,-0.34252 5.57298,-1.01347 12.09342,-4.72607 29.00749,-25.09702 31.16608,-37.53573 0.73606,-4.24154 0.86727,-4.47732 2.49172,-4.47732 2.08221,0 2.38566,1.30607 1.47606,6.35415 -0.87951,4.88146 -0.69079,13.42408 0.38303,17.33627 0.795,2.89647 2.21922,5.84113 3.29681,6.81631 2.93161,2.65307 12.2547,-1.82797 23.58705,-11.3368 11.58719,-9.72268 19.57949,-19.41196 24.41013,-29.59304 3.12973,-6.59626 3.94896,-9.42972 4.4738,-15.47353 0.48087,-5.5378 0.87671,-6.42087 2.33546,-5.21024 0.59347,0.49254 0.66704,1.31804 0.48502,5.44238 -0.20213,4.58086 -0.15548,4.94867 0.80743,6.3657 0.56205,0.82717 3.05239,5.65384 5.53411,10.72594 2.48169,5.07209 5.60895,10.85675 6.94947,12.85482 6.58431,9.81383 16.73863,20.16166 22.79763,23.23198 4.24223,2.1497 9.36511,2.3903 10.38865,0.48791 1.03327,-1.92057 0.57426,-8.28751 -1.10122,-15.27449 -1.69313,-7.0607 -1.84372,-8.38164 -1.04656,-9.17882 1.52665,-1.52665 2.60472,-0.43969 7.71158,7.77531 9.82517,15.80495 15.45393,23.90969 24.52143,35.30786 9.2118,11.57953 17.6212,18.89813 24.4881,21.31165 6.2718,2.20437 11.8387,1.9918 13.9633,-0.53317 0.755,-0.89731 1.046,-1.64085 0.8784,-2.24442 -0.7667,-2.75989 -1.5006,-8.40094 -1.622,-12.46644 -0.1292,-4.32975 -0.073,-4.70487 0.8342,-5.61272 0.9288,-0.92894 1.0541,-0.94415 2.7737,-0.33676 2.8515,1.00719 3.5398,2.31802 3.7509,7.14331 0.099,2.26411 -0.047,5.92089 -0.3247,8.12621 -0.5012,3.9817 -0.4952,4.03668 0.8558,7.88696 3.9613,11.28976 10.1767,20.63509 15.4086,23.16778 2.4589,1.19037 6.8862,1.33707 8.4971,0.28156 1.6992,-1.11341 3.593,-5.41478 4.4296,-10.06114 0.6104,-3.38979 0.9317,-4.27512 1.7451,-4.80807 0.7796,-0.51084 1.1965,-0.54646 1.9122,-0.1634 1.5256,0.81646 1.7887,2.26639 1.0818,5.96073 -0.7548,3.94478 -0.8281,9.14688 -0.1626,11.54406 1.5083,5.43238 6.3261,12.67828 9.5323,14.33627 0.6761,0.34963 1.9314,1.2522 2.7896,2.00569 1.4015,1.2305 1.6883,1.3217 2.8169,0.8957 0.691,-0.26086 1.3528,-0.31847 1.4705,-0.12809 0.1177,0.19044 1.7487,-1.18842 3.6244,-3.06414 3.9381,-3.93808 7.3587,-5.79248 12.025,-6.51895 5.77,-0.89831 9.3945,0.18028 13.1001,3.8985 3.9579,3.97122 4.9378,7.65671 4.9661,18.67696 0.016,6.36881 -0.1291,8.1627 -0.9147,11.28083 -1.2943,5.13752 -3.0224,9.29675 -6.2807,15.11683 -1.5323,2.73713 -3.909,7.17315 -5.2814,9.85783 -2.9868,5.84279 -5.3633,8.58328 -11.2795,13.00721 -4.7534,3.55448 -8.4569,5.4514 -11.548,5.91495 l -2.0144,0.30206 -0.278,2.228 c -0.1529,1.22537 -1.1628,6.60955 -2.2443,11.96481 -4.6993,23.27062 -13.31,49.9957 -21.6292,67.13108 -2.3087,4.75521 -3.1717,6.96076 -2.9075,7.43003 1.211,2.15059 7.0127,8.26398 9.2784,9.77705 3.3936,2.26613 5.1606,2.73999 8.3075,2.22779 3.0036,-0.48884 5.0624,-1.38856 9.7999,-4.28279 2.0029,-1.22355 4.0812,-2.22467 4.6185,-2.22467 0.5372,0 1.8195,0.676 2.8496,1.50224 3.5959,2.88431 5.0264,3.46004 8.5882,3.45619 4.9618,-0.006 6.5561,-1.27353 9.8809,-7.85992 1.4636,-2.89929 4.5341,-11.54617 4.9969,-14.07147 0.5793,-3.16097 3.4824,-3.81001 6.9916,-1.56305 4.0299,2.58031 8.3037,2.10251 14.2753,-1.59598 5.1986,-3.21964 8.9779,-7.84447 10.6016,-12.97328 0.3757,-1.18642 0.6361,-6.70033 0.8277,-17.52632 0.1537,-8.68742 0.4461,-16.16013 0.6496,-16.60599 0.2035,-0.44586 1.4596,-1.29193 2.7915,-1.88016 3.2053,-1.41569 7.0441,-4.19857 10.0978,-7.32029 2.9913,-3.05802 4.2955,-4.9258 6.10199,-8.73897 1.3581,-2.86661 1.3679,-2.93711 1.3679,-9.81132 l 0,-6.92397 -1.3927,-2.66525 c -2.71909,-5.20338 -5.85059,-7.88463 -18.62019,-15.94294 -1.6519,-1.04245 -2.0834,-1.56774 -2.19,-2.66598 -0.1548,-1.59629 0.053,-1.7759 5.7585,-4.97694 10.2082,-5.72721 12.4317,-9.11849 11.1004,-16.93012 -1.0846,-6.36412 -4.1123,-10.50758 -16.8641,-23.07851 -9.5964,-9.46033 -9.7052,-9.58795 -9.5206,-11.16914 0.1779,-1.52355 0.1342,-1.5879 -0.9195,-1.35585 l -1.1062,0.24361 1.0819,-0.6213 c 0.5951,-0.34171 1.4635,-1.20457 1.9299,-1.91748 0.4664,-0.71288 2.4137,-2.22239 4.3275,-3.35446 1.9137,-1.13206 4.5505,-2.69099 5.8596,-3.4643 3.1799,-1.87844 5.1535,-3.99353 7.7283,-8.28217 3.4121,-5.68346 4.8735,-10.20971 5.134,-15.90106 0.2551,-5.57369 -0.2668,-8.88861 -1.9739,-12.5366 -2.1237,-4.53826 -5.2768,-6.90554 -9.8827,-7.41975 -4.446,-0.49636 -4.8227,-1.5693 -2.7271,-7.76656 2.3677,-7.00149 2.7162,-16.78364 0.8172,-22.93209 -1.5577,-5.04332 -5.4406,-8.624 -11.2128,-10.34021 -3.9733,-1.18136 -10.3122,-1.96447 -15.9232,-1.96716 -5.0706,-0.003 -5.3707,-0.0525 -6.383,-1.06476 -0.5842,-0.58421 -1.0622,-1.31081 -1.0622,-1.61469 0,-0.30387 1.0839,-2.82626 2.4087,-5.6053 3.092,-6.48607 3.6359,-8.53796 3.946,-14.88546 0.5946,-12.17149 -2.0139,-21.96456 -7.4004,-27.78252 -2.6578,-2.87084 -5.1143,-4.25155 -8.7495,-4.91778 -5.4227,-0.99385 -5.4259,-2.46559 -0.033,-15.10281 1.5742,-3.68918 3.1639,-7.86825 3.5325,-9.28683 0.8269,-3.18161 0.8586,-8.79184 0.067,-11.76631 -2.4976,-9.38034 -13.8363,-19.02196 -26.9286,-22.89808 -3.2033,-0.94838 -4.9932,-1.17519 -10.766,-1.36421 -6.7823,-0.22206 -9.4799,-0.0224 -18.7391,1.38728 -4.8531,0.73883 -6.6174,0.42242 -6.9383,-1.24436 -0.086,-0.44504 0.5659,-2.34731 1.4481,-4.22727 1.5101,-3.21792 1.604,-3.66758 1.604,-7.67813 0,-4.967624 -0.7618,-8.072047 -2.9793,-12.140663 -4.3913,-8.057187 -11.5673,-13.96347 -20.9685,-17.258216 -5.3953,-1.890895 -9.7516,-2.409558 -17.6746,-2.104341 -7.4596,0.28736 -11.7999,0.975964 -18.7498,2.974714 -3.8215,1.099066 -4.86323,1.254985 -5.73392,0.85827 -1.03163,-0.470051 -1.06395,-0.62261 -1.06395,-5.021687 0,-3.550572 -0.19773,-5.065408 -0.90956,-6.967901 -1.72965,-4.622909 -7.19132,-8.75009 -14.66939,-11.0851 -3.01453,-0.941286 -3.93892,-1.011392 -12.98246,-0.984749 -8.62014,0.02539 -10.1293,0.137037 -13.15876,0.973396 -5.17109,1.427623 -9.30029,3.722633 -15.26966,8.486979 l -5.40871,4.31684 0.27059,1.692192 c 0.29527,1.84661 -0.24117,2.893717 -1.48246,2.893717 -0.53142,0 -0.83036,-0.458901 -1.00666,-1.545273 -0.50043,-3.083939 -3.60051,-8.614755 -6.39494,-11.409171 -4.53616,-4.536158 -13.23852,-9.13052 -21.92677,-11.576126 -3.55927,-1.001871 -5.06446,-1.188443 -9.69677,-1.201974 -6.3743,-0.01861 -7.16424,0.324244 -9.01091,3.910807 -0.98074,1.904743 -1.08455,2.604743 -1.08455,7.312023 0,6.776641 0.70295,8.225887 6.26364,12.913521 1.05561,0.889875 1.02821,2.359143 -0.0567,3.038991 -0.52959,0.331875 -1.71736,0.148707 -4.54386,-0.70072 -7.61957,-2.289832 -10.53262,-2.679811 -20.05491,-2.684802 -9.52947,-0.0043 -10.91876,0.190814 -20.30889,2.8622 -5.893,1.676511 -10.25861,3.516659 -12.2634,5.169167 -2.15747,1.77838 -2.24748,3.736654 -0.25203,5.48405 3.08692,2.703178 3.27872,3.043622 2.51669,4.467451 -0.6464,1.207801 -2.39583,1.046011 -4.70714,-0.435331 -3.62223,-2.321566 -16.51831,-6.795725 -23.18991,-8.045517 -2.83403,-0.530896 -5.36799,-0.677728 -9.3041,-0.539118 -4.78745,0.16857 -5.8074,0.347064 -8.87134,1.552471 -8.48967,3.339939 -23.79633,15.278261 -26.38711,20.580412 -1.48943,3.048178 -1.77072,6.530828 -0.9221,11.417308 0.38233,2.20172 0.69517,4.56641 0.69517,5.25488 0,1.31131 0.62099,1.7771 2.36921,1.7771 1.9111,0 1.83312,2.39418 -0.0938,2.87779 -1.08014,0.2711 -2.85805,-0.0649 -7.46846,-1.41151 -1.57577,-0.46026 -4.28127,-0.7158 -8.00585,-0.75617 -5.22704,-0.0567 -5.79624,0.0189 -8.03143,1.0673 -5.9483,2.78982 -11.84026,11.35113 -13.63318,19.80966 -0.81863,3.86206 -0.81171,9.15452 0.013,10.24542 0.8195,1.08348 0.8327,2.55576 0.0303,3.35833 -0.34802,0.34802 -1.9546,0.85826 -3.57018,1.13386 -3.76219,0.64181 -9.32076,3.40022 -12.42214,6.16442 -6.55769,5.8448 -11.22705,17.46304 -11.79984,29.36029 -0.23758,4.93421 -0.17755,5.61135 0.66669,7.51992 1.15008,2.59993 1.17764,3.98701 0.0907,4.5687 -0.46036,0.24637 -2.46191,0.44796 -4.44788,0.44796 -3.23808,0 -3.93797,0.15679 -6.78026,1.51892 -8.1719,3.91626 -18.27787,11.88205 -23.91066,18.84694 -9.2291,11.41174 -12.8065,20.75595 -12.43174,32.47204 0.15176,4.74447 0.22611,5.07538 1.93434,8.61241 2.1682,4.48946 4.98224,8.27992 8.52891,11.48848 2.76709,2.50322 3.71554,3.78046 3.7419,5.03896 0.009,0.40268 -0.9778,1.8632 -2.19157,3.24562 -2.40552,2.73971 -4.48445,6.4809 -5.48483,9.87021 -0.4511,1.5284 -0.6995,5.17972 -0.84585,12.43491 -0.17401,8.62454 -0.0893,10.80152 0.52877,13.57933 1.96797,8.84573 9.2941,17.96468 16.66377,20.74168 2.29988,0.86664 3.89473,2.44368 3.89473,3.85123 0,0.55506 -0.657,1.96429 -1.45996,3.13163 -2.22459,3.23396 -3.1756,5.32705 -3.69364,8.12929 -0.6573,3.55567 -0.57642,10.70338 0.16046,14.1805 0.95547,4.50881 3.84485,9.98911 6.91926,13.12391 2.24956,2.29371 2.94836,2.73999 4.96835,3.17291 2.71731,0.58238 3.4915,1.10066 3.4915,2.33728 0,1.74901 -1.21594,2.46939 -4.16819,2.46939 -3.85194,0 -4.27041,0.70018 -4.27041,7.14533 0,4.66093 0.0466,4.89561 1.59459,8.02716 1.99303,4.03187 5.37262,7.80257 9.63299,10.74777 3.90711,2.701 10.05383,5.67039 11.73778,5.67039 0.66025,0 1.50787,0.25909 1.88363,0.57577 0.37575,0.31669 1.59688,0.91271 2.71359,1.32447 2.61579,0.96447 4.89357,2.50514 4.89357,3.30997 0,0.99372 -4.2248,1.01315 -8.00585,0.0368 l -3.24562,-0.83802 -0.97883,1.1493 c -1.50744,1.76994 -4.21385,7.61685 -5.69294,12.2991 -2.50276,7.92255 -3.15889,11.68936 -3.39171,19.47144 -0.24662,8.24217 0.17423,11.30274 2.07096,15.06017 1.64358,3.25591 3.17166,5.0001 5.92191,6.7594 2.87743,1.84065 2.98726,2.86523 0.55638,5.19039 -1.12722,1.07823 -2.03089,2.51461 -2.59194,4.11989 -1.86493,5.33614 -2.18577,16.67398 -0.62217,21.98575 1.67379,5.6861 6.08986,11.83827 10.55375,14.70272 4.85998,3.11865 13.92745,4.94091 19.05764,3.83 4.27945,-0.92673 4.77222,-0.42816 4.43528,4.48765 -0.19106,2.78763 -0.0919,3.77235 0.48853,4.85011 0.93725,1.74034 4.00712,3.67222 7.36101,4.63232 3.51768,1.007 10.61576,1.07317 13.39868,0.12492 z M 555.16538,420.43294 c -0.5772,-4.05126 -2.44131,-23.48568 -2.91595,-30.40059 -0.5389,-7.85029 -0.83122,-8.84267 -2.92361,-9.92468 -1.37467,-0.71088 -8.03389,-1.72098 -10.54932,-1.60018 -1.33806,0.0642 -1.62281,-0.0677 -1.62281,-0.75172 0,-0.45631 0.34079,-0.96101 0.75731,-1.12157 1.46922,-0.56633 9.48537,-0.80079 10.87047,-0.31794 0.74506,0.25973 1.35468,0.30224 1.35468,0.0945 0,-0.79383 -11.49047,-12.23227 -13.16738,-13.10774 -1.23458,-0.64456 -1.54158,-0.96784 -1.02496,-1.07945 0.40561,-0.0876 2.56646,0.71851 4.80182,1.79138 3.0128,1.446 4.80927,2.67041 6.9438,4.73264 l 2.87946,2.78197 0,-1.7592 c 0,-4.18808 -1.00471,-14.02023 -1.53816,-15.05209 -0.92076,-1.78116 -5.15148,-5.4019 -7.8742,-6.7389 -2.26449,-1.11198 -2.89678,-1.21973 -7.03208,-1.19843 -3.80213,0.0196 -4.83999,0.17789 -6.35799,0.96969 -4.00245,2.08775 -5.65637,5.9449 -6.29701,14.68525 -0.64003,8.73235 -0.12824,12.54691 2.90318,21.63618 2.93027,8.7861 5.40101,13.99712 8.79384,18.5471 3.49713,4.68985 12.48865,13.29817 17.07639,16.34857 2.08178,1.38424 3.89457,2.69399 4.02846,2.91058 0.6515,1.05418 1.13808,0.26757 0.89406,-1.44533 z m 369.51463,-16.12001 c 3.6968,-2.35026 8.8147,-6.63717 10.212,-8.55386 0.7346,-1.00758 2.3619,-3.87672 3.6164,-6.37584 1.2544,-2.49912 2.9075,-5.60168 3.6737,-6.89458 2.6944,-4.54693 5.2264,-9.99851 6.3898,-13.75764 1.1215,-3.62395 1.1762,-4.22462 1.1915,-13.10217 0.015,-8.87224 -0.032,-9.40908 -1.0067,-11.56609 -1.0708,-2.36849 -4.0449,-5.47083 -5.9327,-6.18857 -1.9185,-0.72943 -6.8759,-0.49579 -9.3829,0.44219 -3.0431,1.13855 -6.9888,4.37961 -9.0911,7.46744 -1.4103,2.07152 -1.9051,2.4883 -2.9539,2.4883 l -1.2599,0 0,10.22228 0,10.22227 2.8239,-3.05013 c 4.0771,-4.40358 9.8923,-7.87395 13.1942,-7.87395 0.6578,0 1.6557,0.37501 2.2176,0.83335 0.9932,0.81015 0.9975,0.84198 0.1561,1.14349 -3.963,1.42008 -9.1184,4.35601 -11.4667,6.53018 -3.2877,3.04382 -6.263,7.15339 -6.8431,9.45205 -0.2403,0.95205 -0.5616,5.52836 -0.714,10.16959 -0.2432,7.40576 -1.098,17.34009 -1.7959,20.87101 l -0.2334,1.18094 2.5207,-1.1423 c 1.3864,-0.62826 3.4944,-1.76134 4.6844,-2.51796 z m -2.2497,-28.19672 c -0.8276,-2.1566 9.0932,-6.06811 15.7497,-6.20971 4.0087,-0.0853 4.0264,-0.0824 4.0264,0.64392 0,0.35248 -0.5356,0.76127 -1.1901,0.90844 -1.5063,0.33865 -4.8872,1.35284 -12.0088,3.60238 -3.0941,0.97737 -5.7779,1.77596 -5.9639,1.77466 -0.1859,-10e-4 -0.462,-0.32517 -0.6133,-0.71969 z m -320.8304,674.18229 c -3.92045,-5.3146 -6.34384,-9.7933 -10.12736,-18.7164 -1.36242,-3.2131 -2.65206,-6.0271 -2.86583,-6.2532 -0.21378,-0.2261 -0.3887,-0.7759 -0.3887,-1.2218 0,-1.5903 1.50765,-0.5452 2.66772,1.8493 5.70813,11.7821 7.38564,14.9402 10.28722,19.3671 1.83238,2.7958 3.65928,5.3505 4.0597,5.6771 1.10788,0.9038 0.87727,1.3535 -0.69417,1.3535 -1.19543,0 -1.66414,-0.3279 -2.93858,-2.0556 z m 9.83166,0 c -4.10229,-12.8315 -9.81089,-48.9396 -9.79241,-61.93899 0.007,-5.25564 0.22559,-6.11071 1.55915,-6.11071 1.02795,0 1.03141,0.0169 1.03535,5.0848 0.007,8.25502 2.58792,27.9733 6.1047,46.6287 0.93023,4.9345 3.5584,16.3077 4.07502,17.6345 0.24121,0.6194 0.0564,0.7573 -1.01484,0.7573 -1.1818,0 -1.37398,-0.2009 -1.96697,-2.0556 z m 79.29248,1.2569 c -0.32656,-0.4393 -2.26847,-3.0195 -4.31537,-5.7339 -5.77945,-7.6641 -12.21939,-17.5629 -11.92508,-18.33 0.45122,-1.1758 1.563,-0.7233 2.87345,1.1696 0.70032,1.0115 3.35133,4.8516 5.89118,8.5335 2.53984,3.6819 6.14845,8.599 8.01918,10.9269 l 3.40127,4.2326 -1.67547,0 c -1.12576,0 -1.87026,-0.2621 -2.26916,-0.7987 z m 57.27942,-7.3154 c -18.094,-24.248 -35.26083,-53.88837 -57.93106,-100.02413 -7.79042,-15.85418 -9.62913,-20.10195 -7.96967,-18.4119 0.21811,0.22213 4.13556,7.70652 8.70552,16.63196 13.15967,25.70198 26.17077,49.95468 32.96683,61.45027 7.55021,12.7712 18.86667,29.991 26.30635,40.0293 6.69662,9.0357 6.34029,8.4386 5.03547,8.4386 -0.87013,0 -2.13696,-1.445 -7.11344,-8.1141 z m 55.72335,7.6764 c 0,-0.2406 0.68019,-2.6815 1.5115,-5.4241 5.75521,-18.987 12.22679,-53.13298 13.61579,-71.84109 0.2484,-3.34563 0.4517,-6.5101 0.4517,-7.03217 0,-0.57179 0.2686,-0.94919 0.6756,-0.94919 0.5423,0 0.6304,0.36291 0.4465,1.83918 -0.1261,1.01155 -0.3428,3.78655 -0.4817,6.16667 -1.1904,20.40038 -3.9387,37.1842 -9.93125,60.6495 -3.38215,13.2437 -4.6073,17.0144 -5.53083,17.0224 -0.41652,0 -0.75731,-0.1905 -0.75731,-0.4312 z m 38.14469,-6.3781 c 6.2241,-14.0764 11.0755,-27.2122 16.7418,-45.3304 1.191,-3.80822 2.23,-7.36987 2.3091,-7.91483 0.2109,-1.45533 1.024,-0.96356 0.9226,0.55807 -0.1673,2.51129 -8.5516,28.27506 -12.6048,38.73256 -2.1927,5.6573 -6.1689,15.027 -8.3093,19.5803 -0.3076,0.6545 -0.9,1.1901 -1.3163,1.1901 -0.6251,0 -0.2323,-1.1863 2.2569,-6.8158 z m 87.1222,-3.462 c -0.4494,-14.1231 0.062,-59.52596 0.8689,-77.13744 0.8338,-18.19777 2.4183,-40.54811 4.3412,-61.23393 2.1056,-22.65054 4.3178,-47.46533 5.6712,-63.61404 1.1596,-13.83787 1.1605,-13.8805 1.1835,-58.63744 0.021,-41.01946 -0.058,-46.2465 -0.9407,-62.09942 -1.2937,-23.23851 -4.0318,-51.83623 -6.7744,-70.75439 -0.6038,-4.16521 -2.3965,-15.07047 -3.9838,-24.23392 -2.8103,-16.22379 -2.8868,-16.86513 -2.9173,-24.4503 -0.031,-7.75927 -0.028,-7.78999 0.9424,-7.92778 0.9853,-0.13992 1.3367,0.51203 0.541,1.0038 -0.5691,0.3517 -0.5537,6.37127 0.026,10.30305 0.2525,1.7117 1.411,8.07795 2.5745,14.14725 4.673,24.37608 5.7321,30.74982 7.5863,45.65498 5.1361,41.28555 6.6855,71.43562 6.6884,130.14957 0,31.94156 -0.015,32.55922 -1.2974,49.11696 -1.4864,19.18764 -2.2937,28.64995 -4.9754,58.31244 -4.2513,47.02584 -5.3515,69.69715 -5.7174,117.81581 l -0.2574,33.8626 -1.6165,0 -1.6164,0 -0.3271,-10.2778 z m 81.23969,5.8555 c 0.9254,-12.5766 12.6698,-71.80786 20.7033,-104.414 9.064,-36.78908 15.8667,-57.51653 32.3112,-98.4503 7.6039,-18.92752 11.4922,-30.10572 12.4274,-35.72625 0.7627,-4.58355 1.0502,-14.44381 0.5324,-18.25914 -0.5277,-3.88846 0.322,-3.45615 1.2757,0.64912 0.5938,2.55556 0.7749,5.10475 0.7612,10.71053 -0.016,6.76027 -0.1258,7.77779 -1.3458,12.54971 -1.624,6.35193 -4.7477,15.19346 -10.9142,30.89215 -16.3632,41.65746 -22.9714,61.97016 -32.1849,98.93243 -3.5465,14.22773 -9.5464,40.86367 -9.2676,41.14249 0.096,0.0965 0.8306,-1.52639 1.6315,-3.60636 2.2741,-5.90593 8.1512,-17.1374 12.2242,-23.3608 9.9412,-15.19026 23.6355,-30.17907 52.6841,-57.66449 5.1172,-4.84189 11.0567,-10.48913 13.1988,-12.54949 3.9456,-3.79499 16.3729,-14.79117 20.3392,-17.99689 4.1954,-3.39097 23.5336,-17.49079 23.989,-17.49079 1.1542,0 0.1178,1.02903 -4.4071,4.37595 -11.8985,8.80068 -67.9265,61.63963 -84.0876,79.30144 -5.4643,5.9718 -14.9523,17.81059 -18.7856,23.44018 -5.7392,8.42869 -12.6249,22.10687 -16.2235,32.22748 -1.8821,5.29321 -2.1628,5.87642 -2.7636,5.7427 -0.6628,-0.14748 0.4056,-5.26659 -9.9543,47.69933 -0.8495,4.3434 -1.3665,6.0912 -1.8279,6.1801 -0.5525,0.1064 -0.5971,-0.5042 -0.3159,-4.3251 z m 183.8762,1.5012 c 9.8715,-10.1778 25.5828,-31.9786 33.0269,-45.8279 3.0291,-5.63554 4.1629,-6.96728 4.4893,-5.27298 0.169,0.87748 -1.2515,3.73098 -7.181,14.42548 -6.8138,12.2895 -15.2532,24.3007 -24.1668,34.3946 l -4.5937,5.2019 -2.204,0 -2.2039,0 2.8332,-2.9211 z m 27.0542,2.3801 c 1.0891,-1.8499 5.099,-7.6379 7.72,-11.1432 1.6906,-2.2612 3.9324,-5.4743 4.9817,-7.1404 2.1402,-3.3987 3.0944,-4.6363 3.3656,-4.3652 0.2083,0.2083 -6.6544,11.5214 -11.2453,18.5377 -2.4838,3.7963 -3.2366,4.6521 -4.092,4.6521 -0.7201,0 -0.9486,-0.1695 -0.73,-0.541 z m 179.1069,-39.5411 c -10.7232,-1.1545 -14.8404,-2.6063 -26.9315,-9.4972 -4.4667,-2.5455 -8.9356,-5.0899 -9.9309,-5.6542 -1.9094,-1.08235 -20.4316,-9.62221 -26.3189,-12.13449 l -3.462,-1.47736 -9.2521,0.28535 c -6.7962,0.20958 -9.1726,0.15636 -8.952,-0.20053 0.5141,-0.83188 10.2101,-6.38014 16.5145,-9.44989 l 6.0171,-2.92997 9.0877,0.0115 c 11.837,0.0156 13.8891,0.56496 29.3948,7.8691 8.7912,4.14123 14.4379,6.17693 17.1896,6.19696 1.036,0.007 3.8308,0.29566 6.211,0.64021 6.7761,0.98096 16.71,1.28669 21.6411,0.666 8.2815,-1.0424 17.738,-4.64343 25.5276,-9.72096 2.04,-1.32975 3.8206,-2.41768 3.9567,-2.41768 0.1356,0 0.1677,2.96974 0.069,6.59942 -0.1695,6.28376 -0.2415,6.73395 -1.5061,9.41228 -0.7305,1.54707 -1.8882,3.6295 -2.5729,4.62764 -4.7772,6.96462 -16.3182,15.18432 -24.1632,17.20942 -3.2642,0.8427 -14.5259,0.8246 -22.5202,-0.036 z M 253.96905,981.69925 c -4.77868,-4.85665 -5.60586,-5.50482 -9.35341,-7.32924 -5.93685,-2.89024 -8.45595,-3.42586 -17.30994,-3.6804 -8.94199,-0.2571 -8.95211,-0.25463 -19.90282,4.86314 -8.27881,3.86903 -13.23988,5.59795 -17.88581,6.23323 -6.06011,0.82858 -14.93461,0.42954 -19.33419,-0.86931 l -1.94737,-0.57495 2.5965,-0.29773 c 1.42807,-0.16375 5.22543,-0.32002 8.43859,-0.34728 10.96764,-0.0929 15.66203,-1.26687 28.67819,-7.17168 9.51115,-4.31472 11.33769,-4.72488 19.57328,-4.39521 12.70034,0.50835 19.63999,3.1739 26.23544,10.07707 1.7553,1.83723 4.0191,4.17654 5.03065,5.19848 1.95981,1.97999 2.27431,2.91135 1.13119,3.34999 -0.51135,0.19625 -2.16402,-1.20811 -5.9503,-5.05611 z m 782.14375,-44.03217 c 0,-0.24272 0.4573,-1.16772 1.0163,-2.05555 0.5589,-0.88778 2.5943,-4.72999 4.5232,-8.53817 7.0906,-13.99942 15.1353,-26.24651 23.7418,-36.14386 10.3736,-11.92954 22.8172,-23.29023 34.1164,-31.1473 2.8561,-1.98609 6.5273,-4.64884 8.1582,-5.91727 1.631,-1.26839 3.27,-2.3062 3.6424,-2.3062 0.3723,0 0.5958,0.073 0.4967,0.16215 -0.099,0.0893 -1.8356,1.40699 -3.8587,2.92841 -6.7362,5.06584 -23.4905,19.90306 -30.9626,27.41973 -9.6427,9.70023 -15.4671,16.73785 -21.9997,26.58219 -5.707,8.60018 -7.5293,11.69693 -12.1749,20.68979 -1.6279,3.15128 -3.5232,6.41312 -4.2118,7.24854 -1.1977,1.453 -2.4873,2.01168 -2.4873,1.07754 z m -800.26954,-7.02801 c -0.38684,-0.29504 -1.09938,-1.60753 -1.58341,-2.91659 -1.1638,-3.14751 -4.45781,-8.88351 -5.72701,-9.97274 -0.55592,-0.47706 -2.27656,-1.77561 -3.82363,-2.88565 -1.54708,-1.11 -3.98129,-3.01725 -5.40936,-4.23825 -1.42807,-1.22105 -3.57018,-2.87956 -4.76024,-3.68559 -1.19006,-0.80604 -3.69339,-2.59662 -5.56295,-3.97913 -4.83069,-3.57208 -7.74642,-5.19229 -13.5664,-7.53843 l -5.10457,-2.05781 -5.40936,-0.006 c -2.97514,-0.004 -10.95935,0.2223 -17.74269,0.50047 -12.77965,0.52398 -16.45649,0.98645 -27.26316,3.42915 -5.39689,1.21992 -5.44177,1.22251 -19.47369,1.12813 -16.25859,-0.10934 -20.10738,-0.5643 -27.148055,-3.20887 -9.6259,-3.61566 -15.33822,-7.32908 -21.93034,-14.2563 -7.14808,-7.51139 -16.44113,-20.22442 -20.06268,-27.44609 -1.93795,-3.8644 -4.03315,-7.10568 -6.36698,-9.84974 -1.34906,-1.5862 -8.30912,-15.0333 -7.78105,-15.0333 0.10603,0 1.76269,1.89869 3.68161,4.2193 3.54925,4.29222 7.94013,8.14346 16.64257,14.59735 20.19592,14.9776 38.16353,23.67139 57.912355,28.02138 4.05743,0.89371 5.50863,0.97035 18.46778,0.97532 16.0432,0.006 19.14426,-0.3005 35.91813,-3.55148 9.93643,-1.92581 10.4081,-1.97571 20.57182,-2.17573 16.86663,-0.33192 20.86073,0.7561 27.61598,7.5229 5.31086,5.32 12.13059,15.57086 14.59515,21.93832 2.0269,5.23674 2.88267,10.22473 3.60975,21.03985 0.35924,5.34375 0.59705,9.77198 0.52847,9.84057 -0.0685,0.0687 -0.4412,-0.11669 -0.82804,-0.41176 z m 796.17764,-10.67504 c -0.1622,-0.26242 0,-3.63859 0.3706,-7.5026 1.8388,-19.41098 2.3102,-33.01426 1.6005,-46.18925 -0.6264,-11.62787 -0.8302,-13.3258 -3.7655,-31.37427 -1.3161,-8.0924 -3.0525,-19.67925 -3.8586,-25.74855 -0.8061,-6.06929 -2.059,-14.79731 -2.7843,-19.39561 -1.4669,-9.29999 -1.4894,-9.51679 -0.9244,-8.92778 0.2168,0.22611 1.0988,4.88577 1.9598,10.35476 0.861,5.46904 2.5205,15.01114 3.6877,21.20469 5.1044,27.08452 6.7979,38.27064 7.4376,49.12652 0.6077,10.31214 0.224,34.24379 -0.6696,41.76024 -0.3679,3.09416 -0.9514,8.03528 -1.2968,10.98026 -0.6021,5.13409 -1.1045,6.76733 -1.757,5.71159 z m 332.548,-10.69365 c -0.595,-0.0874 -2.5424,-0.3684 -4.3274,-0.62458 -1.7851,-0.25615 -7.043,-1.23481 -11.6843,-2.17478 -10.0301,-2.03137 -18.1434,-2.75341 -26.8304,-2.38765 -6.4497,0.27155 -11.4426,1.13224 -21.8057,3.75885 -2.8298,0.7172 -5.3614,1.23022 -5.6258,1.13999 -0.8588,-0.2931 2.8627,-1.8731 8.1742,-3.4706 11.2565,-3.38543 11.51,-3.42403 23.8012,-3.62556 12.4274,-0.20378 9.7215,-0.51471 29.8596,3.43104 6.614,1.29591 7.4181,1.35797 17.9591,1.38688 9.3311,0.0255 11.5698,-0.0948 14.4971,-0.77912 6.7103,-1.56867 17.6854,-5.49111 23.2399,-8.3057 3.0235,-1.53206 5.6036,-2.78556 5.7339,-2.78556 0.72,0 0.063,0.94023 -0.9816,1.40517 -0.6701,0.29821 -5.003,2.51873 -9.6287,4.93455 -9.0668,4.73522 -15.4151,7.08968 -21.3159,7.90562 -3.0924,0.42765 -18.502,0.56768 -21.0652,0.19145 z M 257.44208,865.53915 c -0.1522,-0.1522 -0.27673,-1.09339 -0.27673,-2.09156 0,-2.04089 -1.13604,-4.02292 -4.0444,-7.05614 -3.59625,-3.75068 -3.45987,-3.72203 -18.89128,-3.96917 l -13.63158,-0.21837 -2.59649,-1.37722 c -1.42807,-0.75748 -4.15438,-2.87999 -6.05848,-4.71666 -3.09897,-2.98921 -3.47951,-3.70307 -0.64912,-1.21771 1.47509,1.2953 6.28003,4.15984 8.65497,5.15979 1.76137,0.7416 3.18732,0.82171 14.92983,0.83871 12.47435,0.0182 13.06385,0.0564 15.06217,0.97884 2.5199,1.16322 6.33735,4.9686 7.59914,7.57513 1.27341,2.63051 1.19687,7.38927 -0.0981,6.09436 z m 826.71092,-8.46288 c 0.01,-1.92188 1.2213,-5.40758 4.0974,-11.7924 5.8375,-12.9593 8.0688,-19.71468 8.6969,-26.33132 0.2797,-2.94602 0.7246,-4.17745 1.5091,-4.17745 0.4632,0 0.072,5.32765 -0.7212,9.82828 -0.716,4.06122 -3.2396,11.64847 -5.8298,17.52679 -3.8951,8.84023 -5.2074,12.10216 -5.0539,12.56257 0.4406,1.32209 17.6895,-17.59413 22.292,-24.44688 1.9076,-2.84039 2.7003,-3.52794 2.7003,-2.34212 0,0.83762 -7.8118,12.37964 -11.4702,16.94738 -3.7088,4.63063 -9.116,10.13524 -11.7071,11.91799 -2.331,1.60376 -4.5211,1.7528 -4.5135,0.30716 z m 209.594,-21.76574 c -0.1413,-0.36805 -0.1562,-1.56196 -0.033,-2.65309 0.5467,-4.85051 7.6771,-11.41643 15.5907,-14.35652 3.7504,-1.39333 8.8803,-2.15332 19.507,-2.88999 10.5526,-0.73151 13.2303,-1.09347 19.3129,-2.61051 12.7639,-3.1833 24.1536,-8.74524 35.7018,-17.43431 9.8806,-7.43428 24.2107,-22.8358 30.0986,-32.34917 2.3993,-3.87665 2.8657,-4.38054 3.4826,-3.76362 0.4749,0.47494 -1.2222,3.59008 -7.5071,13.77976 -7.5115,12.17832 -21.9356,25.37668 -36.8929,33.7578 -5.4615,3.06036 -10.722,5.36392 -16.8111,7.36162 -9.9609,3.2679 -14.0246,3.90538 -31.6198,4.96004 -10.8097,0.64795 -14.4402,1.49259 -19.7669,4.59877 -4.924,2.87138 -8.4528,7.09461 -9.2568,11.07841 -0.2601,1.28903 -1.3864,1.61389 -1.8059,0.52081 z m -204.6423,-55.34114 c -1.4171,-2.16288 -1.8503,-7.4007 -2.1318,-25.7791 -0.5667,-37.00286 -3.2397,-75.34313 -5.6541,-81.10314 -0.2418,-0.5769 -0.1971,-0.73554 0.1473,-0.52267 0.7247,0.44789 1.1845,2.54144 2.6726,12.16966 3.1015,20.06729 4.2851,36.42748 4.7653,65.86464 0.3938,24.14365 0.5103,26.23755 1.5766,28.34486 0.3252,0.64272 0.5913,1.37298 0.5913,1.62281 0,0.8468 -1.2746,0.45993 -1.9672,-0.59706 z m 160.3531,-22.11211 c 0,-1.72758 0.2171,-2.17569 1.8392,-3.7969 1.9541,-1.95286 4.7285,-3.45744 7.7716,-4.21432 1.0214,-0.25407 7.6992,-0.62909 14.8395,-0.83339 13.9645,-0.39955 15.3206,-0.59875 20.7926,-3.05382 5.231,-2.34705 16.6233,-10.4996 22.5887,-16.16515 1.2686,-1.20477 1.9762,-1.6061 2.2861,-1.2963 0.7241,0.72417 0.1579,1.42461 -5.1465,6.366 -8.05,7.49888 -15.4585,12.32048 -22.7782,14.8244 -3.3736,1.1541 -3.8041,1.19249 -16.8772,1.50471 -7.3784,0.17622 -14.3547,0.53743 -15.5029,0.80267 -4.7128,1.08858 -8.5146,4.01573 -8.5146,6.55579 0,0.83599 -0.2202,1.26506 -0.6492,1.26506 -0.4813,0 -0.6491,-0.50615 -0.6491,-1.95875 z m -982.44308,-1.85697 c -0.33985,-0.40047 -1.1674,-2.28604 -1.83896,-4.19013 -3.73435,-10.58785 -8.72385,-16.90507 -14.87178,-18.82928 -2.51067,-0.78579 -3.9864,-0.86078 -16.93953,-0.86078 -15.74319,0 -20.97809,-0.38312 -27.17898,-1.98905 -10.34713,-2.67971 -21.18767,-9.59408 -27.53765,-17.56418 -2.35738,-2.95883 -4.38358,-6.30982 -4.02944,-6.66394 0.0926,-0.0926 2.04429,1.94772 4.33705,4.53408 6.71281,7.57241 12.73862,11.93927 20.75083,15.03806 9.50667,3.67672 15.68486,4.45553 35.47579,4.47202 6.54869,0.006 12.06495,0.20932 13.41521,0.49584 7.66336,1.62597 13.92455,8.64913 17.89173,20.06898 0.66147,1.90409 1.4632,3.76941 1.78163,4.14517 0.31841,0.37576 0.57894,0.89047 0.57894,1.1438 0,0.81845 -1.1989,0.94876 -1.83484,0.19941 z m 43.16233,-61.16257 c -2.12953,-2.17694 -11.57318,-9.45664 -15.3417,-11.82619 -8.40138,-5.28265 -17.25558,-6.3837 -60.82205,-7.56332 -29.81661,-0.80738 -34.7776,-1.14826 -44.57311,-3.06274 -4.76023,-0.93037 -10.99181,-1.97506 -13.84795,-2.32152 -6.12602,-0.74312 -10.54119,-2.40137 -16.66251,-6.2582 -9.7311,-6.13118 -15.94775,-13.54594 -23.3553,-27.8565 -11.33789,-21.90357 -18.33541,-44.82605 -20.37943,-66.759 -0.26618,-2.85614 -0.84354,-6.65351 -1.28301,-8.4386 -2.32663,-9.45032 -3.22651,-18.24602 -2.57898,-25.2076 0.59438,-6.39014 0.77767,-6.97184 1.59081,-5.04871 0.34384,0.81318 1.30848,3.71801 2.14364,6.45514 1.29232,4.23535 1.63875,6.33393 2.32584,14.08913 0.71172,8.03328 0.98283,9.62203 2.28911,13.4152 2.12263,6.1636 3.95298,10.43504 7.24827,16.91511 14.86473,29.23078 35.33906,42.38205 73.97735,47.51787 2.73714,0.36381 10.03977,1.15868 16.22807,1.76639 14.01613,1.3764 16.54847,1.80275 29.42691,4.95411 9.76331,2.38912 12.06497,2.84645 22.93302,4.55671 13.11419,2.06378 20.22152,5.76984 29.30309,15.27992 3.71346,3.88868 4.72953,5.68091 8.32574,14.68589 3.29642,8.25424 5.03787,15.09531 5.31626,20.88431 0.30918,6.42931 0.30039,6.44419 -2.26407,3.8226 z m 688.07876,-9.77142 c -11.9958,-39.58204 -30.384,-80.87231 -50.5444,-113.49593 -5.4488,-8.81721 -10.3024,-15.82783 -17.3767,-25.09942 -9.7246,-12.74497 -10.6313,-14.12708 -10.6313,-16.20656 0,-1.66842 0.506,-1.32686 2.0708,1.39777 0.7819,1.36152 4.4533,6.27282 8.1588,10.91405 12.0921,15.14599 17.7156,23.41811 27.5066,40.462 14.7376,25.65472 27.5351,54.87663 36.4254,83.17354 3.3077,10.52843 7.08839,25.04827 6.63899,25.49768 -0.099,0.0991 -1.11089,-2.89025 -2.24819,-6.64313 z m 199.59669,-4.64646 c -0.4164,-0.57283 -0.7573,-1.40375 -0.7573,-1.8465 0,-1.62696 6.9908,-11.56979 12.5549,-17.85676 1.5799,-1.78509 3.2474,-3.70481 3.7057,-4.26604 1.5361,-1.88142 7.6612,-6.98577 11.2412,-9.36784 4.3099,-2.86773 13.3679,-7.41588 18.3696,-9.22369 4.6699,-1.68785 12.5028,-3.75193 17.5263,-4.61851 9.661,-1.66647 16.3765,-1.95061 46.2654,-1.95753 35.1753,-0.009 42.2953,-0.3967 59.2782,-3.23549 13.8884,-2.32144 23.6427,-5.9998 33.1484,-12.50016 4.0873,-2.79508 12.9769,-11.37787 17.1568,-16.56484 4.2617,-5.28845 8.3793,-11.3709 8.3793,-12.37769 0,-0.88121 2.8134,-4.97847 5.5692,-8.11044 1.2161,-1.38225 1.8503,-1.81491 2.1852,-1.49095 0.8205,0.79353 0.7152,20.64466 -0.1444,27.23949 -0.4032,3.09415 -1.0223,7.8652 -1.3754,10.60234 -0.8669,6.71747 -2.2715,11.12055 -6.005,18.82456 -3.716,7.66779 -7.2654,12.66642 -10.974,15.45419 -5.7267,4.30485 -17.8169,9.5154 -24.9685,10.76081 -2.0024,0.34871 -6.0344,0.43729 -12.507,0.27484 -8.2861,-0.20794 -11.3585,-0.50342 -23.1836,-2.22948 -16.5017,-2.40868 -18.1732,-2.71753 -28.1545,-5.20237 -10.5168,-2.61813 -14.9151,-3.00228 -30.9157,-2.70001 -17.5083,0.33071 -31.0093,1.57322 -43.4834,4.00163 -8.6187,1.6779 -18.9921,4.8982 -25.0092,7.76386 -7.2993,3.47635 -10.557,5.89421 -21.7254,16.12507 -2.1435,1.9636 -4.2399,3.56408 -4.6584,3.55659 -0.4186,-0.007 -1.1018,-0.4823 -1.5184,-1.05508 z M 733.83792,672.5418 c -2.34446,-0.14709 -8.35862,-0.89142 -10.27778,-1.27202 -1.16712,-0.23144 -1.67876,-1.54509 -0.81075,-2.08157 0.20863,-0.12896 3.17836,0.076 6.59942,0.4553 9.36121,1.03799 25.63416,0.90604 33.71726,-0.27341 9.16176,-1.33685 17.1223,-3.2203 22.89651,-5.41724 4.94817,-1.88271 6.66,-2.37548 5.10396,-1.46926 -1.11298,0.64817 -15.94237,6.15857 -20.22861,7.51667 -6.46488,2.04846 -13.61289,2.83935 -24.88305,2.75327 -5.47427,-0.042 -10.9269,-0.13703 -12.11696,-0.21174 z m -147.51361,-6.70843 c -0.44754,-1.60147 -3.43455,-14.74162 -4.55697,-20.0466 -3.64469,-17.22651 -6.27762,-45.83167 -6.83336,-74.24135 -0.28154,-14.39028 -0.13732,-16.41948 1.16708,-16.41948 1.09334,0 1.19759,0.82166 1.50488,11.86013 0.23646,8.49329 1.42085,28.76886 2.39124,40.9352 1.49247,18.71227 4.47302,40.10774 6.95921,49.95542 1.42686,5.65169 1.51237,8.15354 0.28665,8.38584 -0.41726,0.0791 -0.83066,-0.11396 -0.91873,-0.42916 z m 177.58964,-31.87236 c 0,-0.1969 1.30893,-0.59914 2.90872,-0.89393 6.3357,-1.16738 16.91649,-5.1884 24.78719,-9.4199 5.81882,-3.12834 14.13443,-8.83958 19.28276,-13.24366 5.08289,-4.34805 13.78479,-13.05157 17.62529,-17.62845 5.328,-6.3495 21.1142,-27.0155 24.5422,-32.12855 3.4244,-5.10761 4.3605,-6.08475 4.9364,-5.15292 0.1249,0.20218 -1.3428,2.68508 -3.2616,5.51755 -1.9189,2.83243 -5.4725,8.26567 -7.8969,12.07386 -16.3321,25.65398 -36.82725,45.54082 -56.11593,54.45042 -4.24107,1.95901 -13.589,5.33734 -16.98253,6.13754 -2.87479,0.67786 -9.8256,0.8816 -9.8256,0.28804 z m -50.69866,-2.91006 c -0.63194,-0.33625 -3.45874,-1.47074 -6.28178,-2.52115 -17.12585,-6.37223 -27.24139,-11.57637 -39.43742,-20.28946 -9.20062,-6.57311 -15.01533,-11.65046 -25.07124,-21.89206 -9.42046,-9.59439 -9.67393,-9.89982 -12.00878,-14.47008 -2.28543,-4.47349 -2.86986,-6.36629 -1.9658,-6.36629 0.23065,0 1.85952,2.19079 3.61964,4.86842 2.71138,4.1247 4.50413,6.14486 11.73566,13.2241 4.69446,4.59562 10.70906,10.21568 13.36575,12.48908 14.71012,12.58767 33.76789,24.08536 49.95831,30.14017 3.39937,1.27124 6.7099,2.71558 7.35673,3.20961 1.04773,0.80019 1.10524,0.97035 0.527,1.55863 -0.56617,0.57594 -0.796,0.58222 -1.79807,0.049 z m 208.45712,-49.6081 c -0.1037,-0.31261 -0.5897,-2.59411 -1.08,-5.07003 -1.2224,-6.17368 -7.487,-27.76792 -9.5786,-33.01812 -0.9406,-2.36086 -2.2912,-5.44358 -3.0015,-6.85058 -1.2275,-2.43179 -1.6901,-4.7466 -0.9485,-4.7466 0.3661,0 2.7623,3.99591 4.5549,7.5959 3.4545,6.93735 8.2811,25.24712 10.8054,40.99047 0.1973,1.2303 -0.4123,2.12155 -0.7517,1.09896 z M 335.28426,571.4622 c -0.0998,-0.29751 -0.38858,-1.35104 -0.64175,-2.34121 -0.64513,-2.52306 -4.51067,-7.73274 -7.55579,-10.1831 -3.5196,-2.83216 -7.4011,-4.33432 -18.32679,-7.09249 -15.41826,-3.89235 -24.82569,-7.40908 -37.74663,-14.11072 -15.38617,-7.98023 -25.22017,-16.10344 -34.51341,-28.50934 -7.7802,-10.38601 -10.3169,-16.59509 -9.97539,-24.41659 0.10328,-2.3654 0.28359,-3.0536 0.82715,-3.15716 0.57862,-0.1102 0.73416,0.46906 0.92831,3.45753 0.4147,6.38339 3.22602,12.47576 9.84396,21.3326 9.752,13.05123 19.15292,20.6715 35.99832,29.17985 12.46145,6.29407 20.96334,9.45625 35.48149,13.19689 9.08456,2.34069 12.49657,3.53045 15.75873,5.49513 2.78465,1.67711 6.2616,4.9454 7.72165,7.25827 1.32222,2.0945 3.27423,7.5548 3.27423,9.15882 0,1.26644 -0.72831,1.76246 -1.07408,0.73152 z m 12.53445,-53.11465 c -2.1001,-1.42556 -4.63611,-2.5981 -8.22223,-3.80148 -8.98601,-3.01544 -18.12918,-7.22747 -32.44867,-14.94835 -11.55444,-6.23002 -18.61109,-11.02033 -21.34721,-14.49137 -2.93917,-3.72864 -6.67189,-13.44264 -8.67993,-22.58861 -3.34186,-15.22111 -3.99763,-18.43496 -4.38198,-21.47515 -0.91149,-7.20989 -3.33944,-17.71555 -5.45522,-23.60435 -4.01126,-11.1646 -12.02881,-21.96334 -21.80233,-29.3653 -1.07106,-0.81116 -3.01842,-2.36822 -4.32749,-3.46013 -4.15007,-3.46164 -8.62759,-6.00232 -11.46784,-6.50719 -1.89986,-0.33771 -2.54717,-0.59163 -15.1462,-5.94127 -23.20719,-9.85394 -38.20747,-17.30175 -54.74269,-27.18033 -23.29415,-13.91655 -34.6788,-24.55384 -42.10141,-39.33764 -5.75932,-11.47101 -8.75048,-24.21917 -11.11838,-47.38597 -0.49871,-4.87924 -1.20232,-11.30556 -1.56357,-14.28071 -1.30473,-10.74501 -3.17048,-35.18344 -3.63421,-47.60234 -0.1911,-5.11726 -0.31396,-9.34133 -0.27305,-9.38681 0.31401,-0.34924 3.41356,10.63974 4.17338,14.79616 1.90578,10.42503 8.15518,32.02336 10.15599,35.09974 0.63644,0.97857 3.76424,8.73901 6.08559,15.0991 2.54177,6.96405 6.05314,14.26984 11.05176,22.99449 7.1778,12.52819 15.5764,20.6661 29.17126,28.26582 6.39055,3.5724 14.94883,8.82509 22.93568,14.0769 15.05649,9.90049 19.10318,11.96316 34.83626,17.75668 13.14726,4.8413 18.11996,6.90586 26.61404,11.04953 15.64646,7.63281 37.34766,21.54727 41.98094,26.91753 4.585,5.31428 5.69698,10.79537 6.91392,34.07942 0.72696,13.90937 1.20367,19.54899 2.21299,26.18129 2.00212,13.15578 7.03093,24.87621 17.14109,39.95005 12.42157,18.52004 26.45242,35.7591 31.93871,39.24165 0.83654,0.53098 1.76762,1.26263 2.06908,1.62588 0.54698,0.65907 2.77362,6.01516 2.57382,6.19124 -0.058,0.0511 -1.47191,-0.83472 -3.1421,-1.96848 z m 747.14789,-5.18944 c -0.5932,-0.37458 -0.7336,-1.22078 -0.943,-5.68077 -0.065,-1.37723 4.1796,-9.19388 8.5474,-15.74158 5.0923,-7.63403 6.6945,-9.93219 7.2458,-10.39345 0.2844,-0.23802 2.1308,-2.32135 4.103,-4.62968 16.023,-18.75342 40.0794,-34.90113 64.7836,-43.48548 2.3801,-0.82706 5.788,-2.14188 7.5731,-2.92178 12.9209,-5.6453 18.4726,-6.54221 43.2749,-6.99136 12.5765,-0.22776 16.3828,-0.15514 20.9883,0.40034 4.143,0.49969 11.4698,0.73381 27.7987,0.8883 21.8882,0.20703 22.2494,0.19647 28.1287,-0.82209 13.7284,-2.37839 16.5519,-2.94014 20.6691,-4.11207 2.3801,-0.67747 6.6763,-1.72355 9.5471,-2.32464 3.1767,-0.66513 7.496,-2.00072 11.0351,-3.41231 7.881,-3.14321 10.1197,-3.92729 16.3735,-5.73439 6.9745,-2.01535 9.532,-3.81167 12.7123,-8.9288 0.3931,-0.63251 2.3403,-2.89122 4.3272,-5.01939 4.0651,-4.35434 6.3021,-7.58509 10.7847,-15.57555 6.6572,-11.86731 8.354,-16.23906 15.0534,-38.78652 6.5466,-22.03384 12.2021,-33.93897 26.4512,-55.6825 3.5171,-5.36677 6.9097,-10.78315 7.539,-12.03642 1.3628,-2.71308 2.2017,-3.17413 3.3025,-1.81482 1.0686,1.31968 1.0175,2.07128 -0.5011,7.38185 -0.7145,2.49864 -1.7968,7.65874 -2.4052,11.46693 -2.7637,17.30055 -4.345,24.55452 -8.3957,38.51463 -0.9669,3.33216 -1.9518,7.32427 -2.1888,8.87134 -0.237,1.54708 -0.7482,4.17603 -1.136,5.84211 -0.8512,3.65638 -5.2232,14.95128 -6.0269,15.57006 -0.3154,0.2429 -1.6293,3.36269 -2.9196,6.93287 -3.1748,8.78463 -4.9744,13.05006 -8.3579,19.80971 -9.9437,19.86538 -20.9508,34.06891 -38.6743,49.90496 -11.3714,10.16037 -27.8053,21.05201 -43.0585,28.53721 -11.7692,5.77551 -21.061,8.79969 -32.0693,10.43747 -7.6778,1.14228 -32.9284,1.03535 -51.2348,-0.21698 -22.5533,-1.54284 -44.1529,-1.23801 -56.9548,0.8037 -17.8118,2.84078 -59.8133,16.05934 -76.1154,23.95484 -7.3521,3.56079 -14.6536,9.43747 -16.9695,13.65815 -0.9181,1.67322 -1.3523,1.92681 -2.2878,1.33611 z m -56.7279,-20.61021 c -0.4963,-0.59815 -0.6091,-3.10605 -0.5998,-13.32792 0.011,-12.53868 0.016,-12.60731 1.216,-16.4737 3.7302,-12.02392 8.4002,-19.64064 15.1685,-24.74007 4.2323,-3.18866 8.3467,-5.05043 18.626,-8.42829 23.136,-7.6027 35.4819,-16.56411 47.5021,-34.47997 2.987,-4.45212 3.7043,-5.8295 6.0178,-11.55683 0.8838,-2.1878 1.2278,-2.70659 1.2386,-1.86769 0.026,2.074 -6.371,15.63523 -9.849,20.87735 -4.1051,6.18728 -13.082,14.43052 -20.6601,18.97152 -5.8064,3.47939 -15.1984,7.6815 -21.9995,9.84295 -13.6198,4.32848 -17.2912,6.19432 -22.5583,11.46447 -5.1216,5.12439 -8.6914,11.77625 -11.3058,21.06641 -1.0468,3.71974 -1.1507,4.85955 -1.3461,14.76179 -0.1906,9.65934 -0.1386,10.81171 0.5209,11.54037 0.9763,1.07876 0.7119,2.79032 -0.4567,2.95732 -0.4968,0.071 -1.1784,-0.20249 -1.5146,-0.60771 z M 431.58888,481.5463 c -2.99579,-1.07732 -8.68607,-3.98042 -11.24716,-5.73811 -5.6533,-3.8799 -11.3418,-11.39336 -13.82798,-18.26429 -2.31255,-6.391 -3.14475,-11.92322 -3.93886,-26.18406 -1.10856,-19.90808 -2.78755,-28.90678 -7.21259,-38.65676 -2.65154,-5.8423 -7.77795,-13.6159 -11.53524,-17.49186 -2.91565,-3.00773 -3.42445,-3.91252 -1.86331,-3.31346 1.1355,0.43574 7.96348,8.27113 10.3349,11.85974 3.36878,5.09786 6.48911,12.2735 8.12739,18.69005 1.85511,7.26575 2.53734,12.2738 3.87962,28.47955 0.48301,5.83128 1.15596,12.45234 1.49548,14.71345 1.75285,11.67382 6.12446,20.32382 13.37116,26.45712 3.94536,3.33926 12.43581,7.62849 15.86529,8.01494 2.92202,0.32928 3.87254,0.93192 2.75667,1.74787 -1.08685,0.79474 -3.45527,0.67483 -6.20537,-0.31418 z M 386.27227,320.58671 c -4.07462,-1.07433 -7.96625,-2.63882 -13.77942,-5.5395 -16.81717,-8.39153 -29.32954,-21.6626 -35.25867,-37.39662 -6.64917,-17.64479 -8.18286,-43.04455 -4.12353,-68.29078 2.05525,-12.78225 2.37455,-16.01695 2.37865,-24.09744 0.004,-8.0538 -0.54307,-11.33171 -2.87191,-17.20548 -3.67215,-9.26182 -7.72941,-15.59623 -14.39276,-22.47076 -4.26234,-4.39743 -7.74683,-7.37293 -17.78442,-15.18652 -9.04045,-7.0374 -14.4649,-11.71228 -19.67432,-16.95569 -12.03829,-12.11682 -21.32001,-27.062313 -24.95546,-40.183539 -1.92358,-6.942644 -1.94764,-7.140352 -0.86905,-7.140352 0.91017,0 2.22397,1.891602 2.22397,3.202065 0,1.037328 7.0479,14.780846 10.00877,19.517236 9.23093,14.76644 18.10823,24.01264 37.80995,39.3812 9.37638,7.31416 13.28125,10.72033 17.38101,15.16119 5.29487,5.73542 8.46558,10.33684 11.6185,16.86113 7.55367,15.63068 7.90662,23.57582 2.47995,55.82457 -1.08371,6.44014 -1.05559,33.73379 0.0423,41.08948 1.58317,10.60652 5.03549,21.41179 8.94225,27.98783 8.26896,13.91872 22.72683,25.37233 39.37809,31.19554 3.26719,1.14259 4.62165,1.3424 12.11696,1.78747 l 8.43859,0.5011 0,1.29824 0,1.29825 -8.00584,0.089 c -6.66465,0.0741 -8.52482,-0.0477 -11.10364,-0.7277 z m 679.20323,-24.56899 c -0.7521,-1.88204 -0.9963,-13.85982 -0.3755,-18.41293 1.0553,-7.73832 5.481,-18.58722 10.8714,-26.64911 6.4296,-9.61607 18.3636,-19.46578 32.6238,-26.92587 11.0208,-5.76544 20.876,-8.85673 47.469,-14.88956 16.9588,-3.84723 30.1575,-7.32894 36.1108,-9.52572 14.767,-5.44897 26.0677,-13.2075 32.8628,-22.56202 4.1041,-5.64998 8.08,-15.67556 9.534,-24.04127 1.0405,-5.98556 0.6382,-19.37073 -0.8748,-29.11927 -0.7064,-4.55023 -1.2404,-10.16323 -1.4,-14.71346 -0.4332,-12.354925 0.8631,-18.84989 5.7002,-28.561403 5.0502,-10.139545 9.8974,-15.96587 24.5513,-29.510771 4.2247,-3.90495 7.6789,-6.846732 7.6762,-6.537273 -0.014,1.189755 -1.2659,5.22717 -1.8364,5.90735 -1.7217,2.053002 -5.0825,11.243457 -5.0825,13.898716 0,0.606382 -0.599,2.853631 -1.3309,4.993875 -0.732,2.14026 -2.6012,9.051904 -4.1538,15.359214 l -2.8227,11.467838 0.1925,11.900584 c 0.1758,10.87014 0.3081,12.55632 1.5274,19.47369 0.7343,4.1652 1.6511,9.90994 2.0376,12.76608 0.3863,2.85614 1.3566,8.21141 2.1562,11.90059 0.7996,3.68918 1.8721,9.43392 2.3834,12.76608 0.5113,3.33217 1.5253,8.20059 2.2535,10.81872 1.2281,4.41591 1.307,5.12021 1.0905,9.73684 -0.2663,5.67502 -1.8803,14.40311 -3.4653,18.7399 -1.4676,4.01515 -4.6209,9.12367 -8.6123,13.95244 -5.4504,6.5941 -7.833,7.95565 -17.8237,10.18579 -3.7113,0.82844 -4.9365,0.84884 -34.4035,0.57267 -31.4053,-0.29432 -41.0276,-0.0359 -51.3271,1.37818 -17.0669,2.34332 -30.2225,7.61228 -42.6756,17.09204 -5.4729,4.16613 -15.1966,14.21197 -19.9138,20.57353 -2.3389,3.15412 -5.2516,6.66933 -6.4727,7.81159 -2.7199,2.54407 -6.8519,8.01678 -11.7853,15.60908 -2.0492,3.15366 -3.8346,5.73392 -3.9675,5.73392 -0.1329,0 -0.4557,-0.53553 -0.7172,-1.19006 z M 991.77021,141.81786 c -2.4022,-2.21423 -3.0764,-4.85129 -2.6341,-10.30236 0.5754,-7.09154 3.5259,-13.73177 8.1449,-18.33053 3.19829,-3.18429 4.78659,-3.96149 15.73219,-7.69844 4.9694,-1.69659 11.08,-4.05388 13.5791,-5.23846 5.6945,-2.699126 12.8679,-7.477075 18.0586,-12.028176 11.7894,-10.336561 25.1336,-29.763395 31.2826,-45.541582 4.2104,-10.803929 7.2444,-24.954087 7.7321,-36.0612157 l 0.2659,-6.05847996 1.0819,0 1.0819,0 0.1343,5.84210996 c 0.3012,13.1005087 -1.7146,25.0840957 -6.1778,36.7276437 -7.4833,19.522155 -23.0659,41.067351 -37.5403,51.904819 -8.7657,6.563271 -13.9773,9.105001 -28.6419,13.968981 -4.9743,1.64993 -10.066,3.58441 -11.3147,4.29888 -5.18069,2.96403 -9.09299,9.46094 -10.18199,16.90789 -0.7116,4.86687 -0.3918,7.89843 0.9895,9.37974 2.0927,2.24419 2.511,3.99335 0.955,3.99335 -0.3483,0 -1.4945,-0.79388 -2.5472,-1.76417 z m -505.05692,-6.65288 c -1.91794,-0.29806 -3.96268,-0.85742 -4.54386,-1.243 -1.4443,-0.95822 -7.9598,-8.05364 -10.82685,-11.79058 -1.29076,-1.68234 -3.61258,-5.16126 -5.15966,-7.73095 -1.54708,-2.56969 -3.61678,-5.88283 -4.59934,-7.36256 -4.65425,-7.0093 -7.95037,-19.24597 -7.95037,-29.515541 0,-1.95262 -0.2053,-5.026231 -0.4562,-6.830245 -0.25091,-1.803999 -0.49753,-8.585198 -0.54804,-15.069315 -0.0968,-12.437281 -0.0355,-11.934673 -2.55092,-20.851443 -0.95858,-3.397697 -4.54585,-12.70534 -7.26504,-18.85015 -1.0006,-2.26112 -2.40535,-5.76638 -3.12168,-7.7894797 -0.71632,-2.0231 -1.78028,-4.62272 -2.36433,-5.77695 -1.3286,-2.62560996 -0.92919,-3.13877996 0.87005,-1.11782 5.13594,5.7689 18.81831,23.4976757 22.85499,29.6140727 3.05901,4.635069 7.19388,11.997002 9.45845,16.840267 2.89864,6.199412 7.12261,17.579964 8.18471,22.052003 0.97589,4.108948 1.04366,4.760869 1.99839,19.224553 1.15777,17.539058 2.36168,20.536138 12.08035,30.073388 8.34815,8.19233 10.92781,9.39564 17.44115,8.13562 1.01155,-0.19569 1.83918,-0.24637 1.83918,-0.11266 0,1.36173 -5.55857,6.47735 -8.9511,8.2378 -1.25939,0.65354 -11.87384,0.56476 -16.38988,-0.13704 z"
       id="path6079"
       inkscape:connector-curvature="0" />
  </g>
</svg>
