<?xml version="1.0" standalone="no"?>
<!DOCTYPE svg PUBLIC "-//W3C//DTD SVG 20010904//EN"
 "http://www.w3.org/TR/2001/REC-SVG-20010904/DTD/svg10.dtd">
<svg class="Potrace" xmlns:xlink="http://www.w3.org/1999/xlink" version="1.0" xmlns="http://www.w3.org/2000/svg"
 width="641.000000pt" height="428.000000pt" viewBox="0 0 641.000000 428.000000"
 preserveAspectRatio="xMidYMid meet">
<defs>
  <g id="gp74268" transform="translate(0.000000,428.000000) scale(0.100000,-0.100000)"
>
<path d="M672 4217 c-2 -67 -3 -70 -52 -126 -27 -32 -50 -62 -50 -68 0 -7 378
-361 410 -383 4 -3 9 -10 11 -15 2 -6 184 -174 404 -374 220 -200 418 -380
440 -400 22 -20 51 -44 65 -52 22 -15 356 -303 404 -349 19 -18 19 -20 -3 -74
-30 -73 -18 -88 25 -32 19 25 42 49 50 54 11 6 13 12 6 16 -6 4 -27 -15 -49
-43 -20 -28 -39 -49 -41 -47 -2 2 6 22 17 45 12 22 21 49 21 59 0 12 -75 85
-210 202 -115 101 -210 189 -210 196 0 7 -4 16 -10 19 -6 3 -7 -1 -4 -9 10
-25 -4 -19 -49 23 -23 21 -222 202 -442 402 -220 200 -402 367 -404 373 -2 5
4 6 15 2 12 -5 15 -4 9 2 -5 6 -17 12 -26 14 -9 1 -107 86 -217 187 l-201 184
47 58 c26 32 57 61 70 65 20 6 22 11 20 73 l-2 66 -3 -60 c-6 -87 -27 -92 -34
-7 l-5 67 -2 -68z"/>
<path d="M1002 4227 c-2 -52 -6 -63 -42 -106 -22 -26 -40 -56 -40 -67 0 -12
49 -64 132 -139 73 -66 165 -151 203 -190 92 -91 341 -318 582 -531 455 -400
565 -495 570 -490 3 3 -7 15 -21 28 -15 13 -96 84 -181 158 -441 384 -810 717
-940 845 -38 39 -130 124 -203 190 -72 66 -132 124 -132 129 0 7 61 88 80 106
3 3 2 32 -1 65 l-6 60 -1 -58z"/>
<path d="M1661 4253 c0 -17 3 -43 9 -57 8 -21 16 -26 44 -26 28 0 35 -4 38
-22 2 -13 9 -22 16 -20 6 1 12 -2 12 -7 0 -6 20 -29 45 -52 25 -23 45 -48 45
-55 0 -16 73 -74 93 -74 28 0 246 -131 319 -192 l49 -41 -21 -21 c-11 -12 -20
-28 -20 -35 0 -7 24 -36 53 -65 l52 -51 180 9 c168 9 203 16 188 39 -6 10
-328 -2 -360 -14 -30 -11 -41 18 -10 31 12 5 103 14 202 19 134 8 182 14 189
24 7 11 75 -46 290 -242 155 -140 284 -262 288 -271 4 -8 8 -85 9 -170 l3
-155 4 135 c5 221 33 176 -293 470 -179 161 -284 262 -284 274 -1 17 2 17 28
-8 l29 -28 16 23 c15 22 14 25 -10 50 -22 23 -25 32 -17 56 5 15 13 27 17 26
4 -1 130 -115 281 -253 l273 -251 6 -52 c3 -29 8 -121 12 -205 6 -138 5 -154
-11 -172 -13 -14 -19 -40 -21 -91 l-4 -72 48 -56 c27 -31 71 -87 100 -126 91
-125 147 -185 172 -185 19 0 161 -144 180 -182 7 -15 41 -51 74 -79 l61 -52
148 7 149 7 41 -38 c23 -20 90 -82 150 -137 l107 -101 0 -77 c0 -42 3 -83 6
-91 3 -8 85 -89 182 -178 97 -90 214 -199 260 -243 l82 -80 -25 -26 c-14 -14
-25 -31 -25 -36 0 -6 -15 -21 -32 -34 -18 -13 -52 -42 -76 -64 -49 -45 -49
-50 -1 -152 16 -35 29 -67 29 -73 0 -5 32 -38 70 -74 63 -58 70 -68 64 -92 -6
-25 1 -34 62 -90 l69 -63 -32 -34 c-18 -19 -33 -39 -33 -46 0 -24 -19 -11
-116 79 -137 126 -139 128 -132 135 4 3 59 -43 124 -102 64 -59 115 -103 113
-96 -6 19 -221 212 -236 212 -7 0 -13 -9 -13 -20 0 -11 5 -20 11 -20 6 0 8 -7
5 -16 -3 -8 -2 -13 3 -10 5 3 61 -43 125 -102 112 -103 118 -111 166 -212 43
-91 110 -184 110 -154 0 6 -13 23 -30 39 -16 16 -30 32 -30 37 0 4 -22 53 -50
109 -53 108 -54 114 -6 158 14 14 26 32 26 42 0 10 -29 43 -64 75 -58 50 -64
60 -59 85 5 26 -2 36 -65 94 -39 36 -74 76 -78 88 -4 12 -20 51 -37 87 l-30
65 64 57 c35 31 67 60 71 65 38 43 68 82 68 90 0 11 -100 108 -347 337 l-183
169 0 85 0 85 -77 75 c-43 40 -110 103 -150 138 l-71 65 -149 -7 -148 -7 -61
52 c-33 28 -67 64 -74 79 -19 38 -161 182 -180 182 -25 0 -81 60 -172 185 -29
39 -73 95 -99 126 -47 54 -48 57 -45 116 1 44 7 68 20 82 17 19 18 33 12 178
-4 87 -9 184 -13 215 l-5 57 -275 253 c-152 139 -278 254 -282 255 -11 5 -26
-11 -39 -41 -12 -26 -11 -31 13 -56 23 -24 33 -50 19 -50 -14 0 -50 36 -48 48
1 7 0 8 -2 3 -3 -6 -55 -8 -138 -4 -112 5 -138 3 -166 -11 -18 -9 -48 -16 -66
-16 -37 0 -84 -18 -84 -32 0 -5 10 -2 22 6 12 9 41 16 63 16 22 1 51 7 65 15
27 15 137 19 228 9 40 -5 52 -11 52 -24 0 -10 -6 -23 -14 -29 -13 -11 -231
-30 -343 -31 -23 0 -48 -6 -56 -14 -12 -13 -19 -11 -48 14 l-34 28 23 24 c12
13 22 29 22 35 0 33 -321 243 -371 243 -17 0 -89 60 -89 75 0 7 -18 29 -40 49
-22 20 -40 40 -40 45 0 5 -9 13 -20 16 -11 3 -20 15 -20 26 0 15 -7 19 -34 19
-40 0 -48 9 -57 65 -6 37 -7 38 -8 8z m1095 -680 c-11 -11 -349 -31 -361 -21
-12 10 -18 10 115 18 171 10 254 11 246 3z"/>
<path d="M1202 4228 c-1 -27 2 -48 8 -48 6 0 -2 -18 -16 -40 l-27 -41 74 -68
c41 -38 77 -67 81 -64 5 2 -26 34 -66 70 l-74 66 23 31 c30 40 38 73 25 111
-10 29 -10 29 -5 -7 3 -20 1 -39 -4 -42 -6 -4 -11 12 -14 36 l-4 43 -1 -47z"/>
<path d="M1895 4039 c4 -5 13 -9 21 -9 41 0 225 -115 367 -229 48 -39 87 -66
87 -61 0 22 -267 218 -365 267 -49 25 -117 45 -110 32z"/>
<path d="M1377 3993 c-14 -13 -6 -25 8 -13 14 11 22 7 55 -25 l40 -39 -40 -41
c-22 -22 -40 -48 -40 -57 0 -17 83 -98 100 -98 5 0 87 -71 181 -157 95 -87
202 -184 238 -217 36 -32 98 -92 136 -133 80 -84 85 -84 139 -18 l35 43 42
-39 c40 -37 41 -40 26 -57 -26 -29 -20 -38 7 -13 30 28 27 38 -31 86 l-45 38
-47 -53 -46 -53 -59 64 c-32 35 -93 96 -136 134 -42 39 -154 141 -249 228 -94
86 -177 157 -184 157 -7 0 -33 20 -57 45 l-44 45 42 43 c23 23 42 48 42 54 0
15 -77 83 -93 83 -8 0 -17 -3 -20 -7z"/>
<path d="M670 3960 c0 -5 5 -10 11 -10 5 0 34 -22 62 -48 78 -72 147 -126 147
-114 0 6 -14 21 -32 33 -17 12 -63 51 -102 86 -71 63 -86 72 -86 53z"/>
<path d="M2076 3823 c64 -61 189 -163 198 -163 13 0 6 6 -117 108 -95 80 -139
110 -81 55z"/>
<path d="M2515 3738 c-46 -5 -86 -15 -95 -23 -9 -10 -10 -15 -3 -15 7 0 14 4
17 9 8 13 88 23 246 31 l135 7 -110 0 c-60 0 -146 -4 -190 -9z"/>
<path d="M2521 3659 c-74 -4 -138 -12 -142 -16 -5 -5 29 -5 74 -1 45 4 136 12
202 16 66 5 93 9 60 9 -33 0 -120 -4 -194 -8z"/>
<path d="M2420 3514 c0 -11 28 -38 105 -103 l40 -33 150 6 150 7 154 -146 c84
-80 156 -144 158 -141 4 4 -90 97 -249 245 l-57 53 -153 -7 -153 -7 -28 30
-28 29 103 6 c100 5 104 4 130 -21 15 -14 30 -23 33 -20 3 3 -9 18 -26 32 -28
24 -38 27 -78 22 -25 -3 -76 -7 -113 -8 -64 -3 -68 -1 -103 32 -19 18 -35 29
-35 24z"/>
<path d="M505 3363 l-20 -16 20 8 c46 17 54 16 86 -13 30 -27 32 -31 16 -37
-11 -5 -25 -1 -37 10 -14 13 -28 16 -51 11 -18 -3 -38 -1 -45 5 -9 8 -18 7
-31 -1 -16 -10 -16 -10 4 -5 12 3 24 1 28 -5 4 -6 20 -8 39 -5 23 5 36 2 45
-9 15 -18 47 -21 56 -6 3 5 13 7 23 3 9 -3 -3 13 -28 35 -49 44 -74 50 -105
25z"/>
<path d="M2754 3363 l99 -4 101 -92 c151 -138 167 -145 31 -14 l-120 117 -105
-2 -105 -2 99 -3z"/>
<path d="M2830 3341 c0 -6 -15 -12 -32 -12 -31 -2 -31 -2 -5 -6 58 -9 23 -22
-68 -25 -52 -2 -95 0 -95 5 0 4 26 7 58 8 70 1 58 6 -26 11 -34 3 -57 1 -51
-3 6 -4 9 -11 5 -17 -9 -16 5 -17 114 -14 89 3 100 5 100 22 0 10 5 20 12 22
9 3 9 6 0 12 -7 4 -12 2 -12 -3z"/>
<path d="M440 3304 c0 -14 121 -130 340 -324 102 -91 259 -232 349 -315 194
-177 388 -345 401 -345 16 0 80 84 79 104 0 21 -69 88 -69 68 0 -6 14 -22 30
-35 17 -14 30 -30 30 -35 0 -4 -16 -27 -36 -50 l-35 -42 -113 98 c-62 53 -187
165 -277 247 -90 83 -247 224 -349 315 -102 90 -222 200 -267 244 -46 44 -83
75 -83 70z"/>
<path d="M653 3288 c-13 -6 -23 -15 -23 -20 0 -5 -13 -7 -30 -3 -19 4 -30 3
-30 -5 0 -8 -6 -8 -22 0 -26 12 -19 6 248 -235 103 -93 260 -235 349 -315 345
-312 322 -294 348 -278 20 14 24 13 46 -8 14 -13 27 -21 30 -19 7 8 -69 75
-85 75 -7 0 -17 -6 -21 -14 -9 -16 -18 -9 -398 334 -379 341 -490 444 -485
450 3 3 23 4 46 3 31 -2 49 -11 78 -38 21 -19 42 -35 47 -35 5 0 9 -7 9 -15 0
-8 4 -15 8 -15 5 0 40 -30 79 -67 39 -38 92 -86 119 -108 27 -22 69 -59 94
-81 41 -39 293 -269 331 -304 51 -46 69 -58 69 -45 0 7 3 15 8 18 4 2 2 3 -4
1 -21 -5 -88 53 -267 227 -37 36 -69 64 -71 62 -2 -2 -22 15 -45 37 -23 23
-70 64 -104 92 -34 28 -80 70 -102 92 -22 23 -75 72 -118 111 -43 38 -74 71
-68 73 6 2 8 8 5 13 -4 6 -11 6 -20 -1 -7 -7 -19 -10 -26 -8 -8 3 -5 9 10 17
28 15 46 6 131 -66 35 -29 66 -52 68 -49 7 7 -105 104 -144 125 -26 13 -31 13
-60 -1z m852 -827 c6 -11 -29 -33 -39 -24 -7 7 12 33 25 33 4 0 10 -4 14 -9z"/>
<path d="M3290 3273 c0 -23 59 -83 76 -76 21 8 17 50 -8 73 -27 25 -68 27 -68
3z m55 -9 c23 -15 35 -54 17 -54 -10 0 -62 53 -62 63 0 12 19 8 45 -9z"/>
<path d="M1696 3181 c5 -4 54 -48 109 -97 55 -49 195 -175 310 -280 116 -104
218 -193 227 -197 12 -4 28 6 52 34 20 21 36 44 36 50 0 6 11 24 25 41 14 16
25 37 25 47 0 34 36 53 110 59 57 4 69 2 65 -9 -4 -10 -19 -13 -53 -11 -26 2
-58 -1 -72 -6 -18 -7 -6 -8 44 -4 l69 5 -6 -34 c-4 -19 -10 -46 -13 -61 -5
-24 -3 -28 15 -28 11 0 21 -4 21 -9 0 -8 -103 -21 -177 -21 -23 0 -44 -3 -47
-8 -2 -4 33 -4 77 0 45 3 99 7 120 7 30 1 37 5 37 21 0 13 -7 20 -20 20 -11 0
-20 3 -20 6 0 10 32 119 37 123 5 7 183 -171 183 -184 0 -5 -40 31 -90 80 -49
49 -90 85 -90 80 0 -18 167 -178 179 -171 23 14 9 35 -84 125 -60 58 -93 97
-88 104 10 16 15 55 6 41 -5 -6 -45 -13 -91 -16 -87 -5 -104 -11 -82 -31 7 -7
10 -7 7 -1 -8 14 37 24 110 24 48 0 53 -2 39 -15 -8 -9 -35 -15 -63 -16 -89
-2 -106 -10 -133 -61 -52 -96 -63 -114 -88 -140 -14 -16 -30 -28 -34 -28 -5 0
-105 87 -221 193 -333 303 -418 377 -430 377 -7 0 -7 -3 -1 -9z"/>
<path d="M2350 3123 c-19 -23 -36 -47 -38 -51 -3 -10 133 -132 147 -132 6 0 8
-8 4 -17 -5 -14 -3 -16 7 -6 8 7 19 9 29 4 9 -5 59 -6 111 -2 75 5 95 9 95 21
0 19 -77 25 -171 12 l-66 -9 -74 66 -75 65 35 35 34 34 66 -59 c64 -58 76 -77
56 -89 -5 -3 -10 -11 -10 -17 0 -6 9 -3 19 6 23 21 201 37 201 18 0 -7 -30
-12 -77 -15 l-78 -3 76 -2 c57 -1 80 2 89 13 19 23 -9 29 -111 22 -49 -3 -87
-2 -84 3 3 5 -7 18 -22 30 -16 12 -51 43 -78 69 l-50 48 -35 -44z m345 -182
c-10 -9 -148 -17 -190 -11 -33 5 55 17 130 19 41 0 65 -3 60 -8z"/>
<path d="M2632 3110 c3 -34 11 -33 80 1 49 25 51 24 33 -11 -14 -26 -21 -29
-72 -33 l-58 -3 63 -2 c61 -2 63 -1 75 27 l12 29 78 -70 c42 -38 77 -65 77
-60 0 13 -155 152 -169 152 -7 0 -29 -9 -51 -20 -22 -11 -44 -20 -50 -20 -17
0 -11 28 8 33 13 4 11 5 -6 6 -19 1 -22 -4 -20 -29z"/>
<path d="M2464 2719 c-4 -7 -3 -10 3 -6 6 4 16 0 23 -7 9 -12 5 -15 -22 -19
-30 -3 -30 -4 7 -5 22 0 60 3 85 8 l45 8 -47 -1 c-32 0 -54 5 -67 17 -14 13
-21 14 -27 5z"/>
<path d="M2543 2640 c-94 -5 -104 -7 -131 -33 -15 -15 -32 -24 -37 -20 -4 5
-5 3 -1 -4 3 -6 2 -14 -3 -17 -5 -4 -12 2 -14 11 -4 14 -5 13 -6 -4 0 -12 4
-25 9 -28 15 -9 12 -51 -3 -64 -20 -16 -26 -4 -20 34 3 18 1 35 -3 38 -14 8
-12 -77 2 -91 18 -18 48 29 41 64 -4 20 4 34 37 65 l41 38 93 1 c81 0 92 -2
92 -17 0 -38 -16 -46 -102 -50 -65 -4 -88 -9 -104 -25 -22 -19 -38 -78 -22
-78 4 0 8 10 8 23 0 46 37 65 130 70 64 3 86 7 88 18 2 9 45 -25 115 -92 62
-59 109 -110 106 -113 -3 -3 -52 37 -109 90 -56 52 -105 93 -107 90 -5 -4 111
-117 174 -170 32 -27 53 -27 53 -1 0 7 -49 60 -109 116 -77 71 -111 110 -113
128 l-3 26 -102 -5z"/>
<path d="M2947 2558 l-5 -73 40 -37 c22 -21 44 -38 48 -38 8 0 51 38 69 63 23
30 4 19 -31 -18 l-34 -36 -39 34 -40 34 3 67 4 66 69 -62 c38 -33 71 -59 74
-56 6 6 -130 128 -143 128 -5 0 -12 -33 -15 -72z"/>
<path d="M2597 2468 c-10 -40 -42 -154 -72 -253 -30 -99 -72 -238 -94 -310
-21 -71 -53 -175 -71 -230 -17 -55 -34 -127 -36 -160 -3 -41 -10 -64 -21 -72
-11 -9 -58 -13 -137 -14 -183 -2 -269 -11 -274 -29 -4 -12 -3 -13 10 -2 10 8
71 14 184 18 256 8 243 2 250 106 2 31 12 82 22 115 35 105 90 286 127 413 20
69 47 159 60 200 38 117 83 290 76 290 -4 0 -15 -33 -24 -72z"/>
<path d="M3127 2516 c-7 -16 1 -26 20 -26 7 0 13 9 13 20 0 23 -25 27 -33 6z"/>
<path d="M2337 2335 c-20 -25 -43 -70 -53 -98 -9 -29 -23 -65 -31 -80 -10 -20
-11 -32 -4 -41 8 -9 3 -25 -19 -59 -40 -63 -69 -126 -138 -301 -45 -114 -65
-152 -83 -162 -23 -12 -40 -36 -53 -76 -3 -12 -16 -18 -34 -18 -42 0 -60 -26
-57 -83 1 -26 5 -50 7 -53 3 -3 5 17 4 43 -3 56 15 83 54 83 21 0 30 8 44 41
10 22 29 45 42 51 18 8 33 36 60 107 91 239 167 385 230 441 39 34 45 63 12
58 -12 -2 -24 -10 -26 -18 -5 -13 -3 -13 12 -1 32 27 28 2 -6 -28 -18 -16 -36
-26 -40 -23 -4 4 3 34 17 67 13 33 25 65 25 70 0 6 18 34 41 64 22 29 38 55
36 58 -3 2 -21 -16 -40 -42z"/>
<path d="M2935 2226 c4 -11 36 -48 73 -81 36 -33 75 -71 86 -84 12 -13 34 -36
50 -50 38 -33 421 -379 543 -491 52 -47 117 -104 146 -126 29 -23 117 -99 197
-169 80 -70 153 -131 163 -137 15 -8 26 -2 58 33 42 46 49 39 29 -30 -12 -44
-2 -108 18 -116 8 -3 26 4 40 17 l24 23 -7 -35 c-4 -19 -14 -44 -21 -55 -27
-38 -9 -120 35 -159 30 -27 26 -8 -5 25 -32 34 -44 102 -21 127 22 25 33 102
14 102 -7 0 -22 -9 -32 -20 -10 -11 -21 -17 -25 -15 -16 10 -18 72 -6 130 l13
60 76 3 c42 2 77 7 77 12 0 6 4 10 9 10 14 0 171 -150 171 -163 0 -6 -31 20
-70 58 -38 38 -72 67 -74 64 -3 -3 25 -36 63 -73 63 -63 91 -76 91 -42 0 14
-112 124 -169 167 -29 22 -34 31 -34 68 0 23 -3 37 -8 30 -4 -7 -40 -14 -85
-17 -44 -2 -87 -8 -96 -13 -24 -13 -31 5 -10 24 12 11 49 19 112 24 79 7 95
11 98 26 3 13 -3 17 -27 17 -16 0 -33 5 -36 10 -3 6 -23 10 -43 10 -24 0 -32
-3 -24 -9 18 -11 -7 -21 -53 -21 -47 0 -78 -33 -63 -66 6 -13 15 -24 20 -24 4
0 8 -11 8 -24 0 -13 5 -26 12 -28 7 -3 5 -13 -7 -31 -10 -15 -15 -30 -12 -33
3 -3 13 8 21 25 21 39 37 47 116 55 57 5 67 4 77 -13 17 -27 8 -31 -63 -31
-71 0 -102 -13 -147 -64 l-32 -36 -155 136 c-85 75 -178 155 -207 178 -29 22
-94 79 -146 126 -99 90 -490 444 -548 496 -19 16 -41 39 -50 50 -8 10 -46 46
-84 80 -37 33 -66 65 -64 71 2 6 99 -75 215 -180 627 -571 834 -755 834 -743
0 3 -138 130 -307 283 -169 153 -362 328 -428 388 -67 61 -161 146 -210 190
-90 81 -131 102 -120 61z m1450 -856 c3 -5 20 -10 36 -10 17 0 28 -4 25 -8 -3
-5 -45 -12 -93 -16 -54 -4 -93 -12 -103 -21 -19 -17 -30 -19 -30 -6 0 23 34
39 97 46 49 5 62 10 48 16 -16 6 -17 8 -3 8 9 1 20 -3 23 -9z m49 -89 c3 -5
-30 -11 -75 -13 -44 -3 -85 -10 -91 -16 -9 -9 -3 -9 23 -2 34 10 157 14 147 5
-2 -3 -38 -9 -79 -13 -41 -5 -81 -11 -89 -13 -9 -2 -16 4 -18 18 -4 26 11 31
98 36 30 2 60 4 67 5 6 1 14 -2 17 -7z"/>
<path d="M20 2206 c0 -2 12 -11 26 -21 17 -11 25 -12 22 -4 -4 11 -48 34 -48
25z"/>
<path d="M290 2205 c0 -4 19 -24 42 -44 23 -20 110 -96 193 -170 82 -74 223
-200 313 -280 l163 -145 -31 -24 c-16 -13 -30 -29 -30 -35 0 -6 15 4 34 22
l34 33 82 -74 c46 -40 100 -87 121 -104 37 -30 150 -130 382 -336 60 -54 117
-98 127 -98 19 0 56 80 47 103 -3 7 -6 5 -6 -5 -1 -22 -32 -88 -42 -88 -4 0
-56 44 -116 98 -232 206 -345 306 -382 336 -47 38 -196 167 -236 205 -53 50
-306 274 -394 349 -47 41 -124 108 -171 150 -119 107 -130 116 -130 107z"/>
<path d="M69 2124 c39 -36 74 -76 77 -89 3 -12 19 -32 35 -44 17 -13 33 -30
37 -39 13 -31 516 -482 526 -471 4 4 -141 136 -283 258 -75 65 -172 156 -269
256 -16 17 -32 40 -36 52 -8 24 -131 143 -148 143 -6 0 22 -30 61 -66z"/>
<path d="M2852 2103 c0 -15 -4 -48 -9 -73 -5 -26 -7 -53 -4 -61 3 -8 35 -41
71 -73 36 -33 137 -127 225 -211 88 -84 197 -185 243 -225 46 -40 129 -115
185 -168 104 -96 354 -318 583 -517 225 -196 287 -253 300 -277 6 -13 20 -56
29 -95 27 -110 32 -114 90 -70 53 41 69 46 61 20 -21 -74 -18 -133 15 -242 18
-61 34 -109 36 -107 3 2 -10 52 -27 111 -32 106 -34 153 -13 242 8 35 -26 29
-80 -12 l-46 -35 -11 42 c-6 24 -21 76 -34 116 -12 40 -19 75 -14 78 12 7 10
98 -2 110 -8 8 1 23 29 51 40 40 40 40 137 46 l96 6 -5 -25 c-5 -30 -1 -35
136 -159 59 -53 107 -104 108 -113 0 -11 2 -13 6 -4 8 21 -20 53 -131 153 -93
82 -106 98 -106 126 l0 32 -102 -6 -103 -5 -42 -41 c-24 -23 -43 -37 -43 -31
0 5 17 26 38 46 37 36 38 37 147 45 101 7 110 10 110 28 0 18 -7 20 -70 20
l-69 1 -42 124 c-22 69 -47 139 -53 155 -7 17 -14 40 -14 52 -1 12 -5 19 -9
15 -4 -4 17 -79 47 -165 30 -87 55 -165 55 -173 0 -10 -12 -14 -40 -14 -32 0
-48 -7 -80 -36 -45 -41 -48 -58 -20 -114 20 -40 27 -114 12 -124 -5 -3 -43 25
-84 62 -42 37 -133 117 -202 177 -229 199 -479 421 -583 517 -56 53 -139 128
-185 168 -46 40 -155 141 -243 225 -88 84 -189 178 -225 210 -36 32 -69 65
-73 72 -18 30 13 8 98 -68 102 -90 145 -124 145 -112 0 4 -54 53 -120 108
-118 99 -120 101 -114 135 12 73 12 80 3 85 -4 3 -8 -7 -7 -22z m1865 -1299
c2 -7 -34 -13 -109 -18 -113 -7 -113 -7 -146 -41 -35 -38 -42 -42 -42 -22 0 7
17 29 38 49 40 40 55 43 186 43 42 0 71 -4 73 -11z"/>
<path d="M61 2050 c66 -64 76 -70 74 -42 -2 27 -16 44 -31 38 -7 -3 -19 3 -26
12 -13 17 -62 52 -73 52 -4 0 22 -27 56 -60z m59 -26 c0 -8 -4 -12 -10 -9 -5
3 -10 10 -10 16 0 5 5 9 10 9 6 0 10 -7 10 -16z"/>
<path d="M4107 1740 l-34 -30 -26 20 c-32 26 -45 26 -22 0 31 -34 53 -34 91
-1 28 25 43 31 82 31 29 0 60 -8 82 -20 l35 -21 -28 26 c-23 21 -38 25 -87 25
-52 0 -64 -4 -93 -30z"/>
<path d="M4230 1733 c-86 -7 -101 -13 -122 -49 -16 -27 -23 -32 -30 -22 -8 10
-9 9 -5 -4 4 -10 -7 -30 -29 -53 -19 -20 -34 -46 -34 -59 0 -13 22 -43 58 -79
53 -53 92 -72 92 -46 0 5 -5 7 -11 3 -12 -7 -129 103 -129 122 0 7 16 30 36
51 20 21 47 55 60 75 26 40 40 46 119 50 28 2 46 5 40 8 -5 3 -26 4 -45 3z"/>
<path d="M4174 1686 c-10 -25 3 -33 63 -41 53 -6 63 -12 112 -61 30 -30 56
-52 59 -49 3 3 -20 30 -50 60 -31 29 -58 64 -60 77 -3 21 -9 23 -61 26 -44 2
-59 -1 -63 -12z m114 -20 c4 -17 0 -18 -45 -11 -56 8 -66 13 -57 26 3 6 27 9
52 7 36 -2 48 -7 50 -22z"/>
<path d="M2070 1583 c50 -9 44 -23 -10 -24 -30 0 -50 -2 -45 -5 6 -2 75 0 155
5 l145 8 -102 2 c-56 0 -105 6 -108 11 -3 6 -18 9 -33 9 -27 -2 -27 -2 -2 -6z"/>
<path d="M4240 1563 c-70 -7 -105 -52 -84 -107 3 -9 14 -16 23 -16 10 0 23
-12 30 -26 9 -21 16 -25 39 -20 15 3 53 8 85 12 61 7 66 11 70 59 2 24 -2 29
-22 30 -18 0 -26 8 -35 35 -12 38 -20 41 -106 33z m90 -22 c22 -43 14 -51 -52
-51 -35 0 -70 -5 -78 -11 -12 -8 -11 -9 5 -5 19 5 108 9 170 7 17 -1 25 -5 20
-10 -6 -5 -59 -11 -120 -12 l-110 -4 -3 25 c-4 35 33 68 83 73 22 2 48 4 57 5
10 1 22 -7 28 -17z m-20 -101 l-85 -6 80 -3 c66 -2 74 -4 45 -11 -75 -17 -119
-18 -130 -4 -22 26 0 34 88 32 l87 -2 -85 -6z"/>
<path d="M2038 1533 c-51 -8 -27 -37 37 -46 24 -3 54 1 75 9 31 13 32 13 5 7
-37 -8 -73 -8 -109 1 -53 13 -15 21 127 27 l142 5 -125 1 c-69 0 -137 -2 -152
-4z"/>
<path d="M3980 1491 c0 -19 189 -201 209 -201 6 0 -36 43 -94 96 -58 53 -105
101 -105 107 0 6 17 -5 38 -24 l37 -34 -34 38 c-39 41 -51 46 -51 18z"/>
<path d="M3636 1429 c22 -17 64 -54 94 -82 30 -29 169 -155 307 -280 139 -125
255 -232 258 -238 4 -5 11 -9 17 -9 18 0 -7 24 -267 259 -137 124 -276 250
-307 280 -65 61 -117 101 -131 101 -6 0 8 -14 29 -31z"/>
<path d="M2069 1391 c-163 -7 -189 -17 -189 -73 0 -32 23 -38 50 -13 13 12 53
17 171 22 85 3 162 10 172 15 9 5 17 20 17 33 0 22 -4 25 -37 23 -21 -1 -104
-4 -184 -7z m211 -15 c0 -27 -28 -33 -184 -40 -121 -4 -163 -9 -176 -21 -23
-21 -30 -19 -30 8 0 41 34 52 185 58 77 3 155 6 173 7 21 1 32 -2 32 -12z"/>
<path d="M1000 1250 c0 -11 4 -20 8 -20 4 0 8 9 8 20 0 11 -4 20 -8 20 -4 0
-8 -9 -8 -20z"/>
<path d="M1986 1250 c-28 -3 -52 -12 -54 -19 -3 -8 -31 -66 -63 -129 -33 -64
-59 -119 -59 -123 0 -4 -27 -56 -60 -116 -33 -59 -60 -113 -60 -120 0 -22 21
-14 61 22 35 32 69 46 69 28 0 -3 -18 -21 -40 -40 -22 -19 -55 -60 -73 -91
-19 -31 -52 -83 -75 -116 -23 -32 -58 -102 -78 -155 -20 -53 -43 -103 -50
-111 -23 -28 -1 -36 91 -36 l90 1 -2 -32 c-2 -18 2 -44 7 -58 l10 -27 106 4
c88 2 107 6 115 21 9 15 21 7 102 -67 50 -47 94 -83 97 -80 3 3 -11 20 -30 37
-130 117 -152 138 -148 143 3 3 30 -17 59 -43 102 -92 169 -145 169 -135 0 5
-21 27 -47 48 -27 22 -71 60 -99 85 -28 26 -57 48 -64 51 -27 9 -19 57 45 260
25 79 61 196 80 261 19 64 43 135 54 157 10 22 16 40 12 40 -11 0 -56 -119
-81 -215 -11 -44 -27 -96 -34 -115 -29 -74 -84 -259 -91 -300 -1 -11 -21 -16
-76 -21 l-74 -5 69 -2 c38 -1 67 -4 65 -7 -11 -10 -229 -16 -229 -6 0 5 19 12
43 14 23 2 -20 4 -96 3 -75 0 -137 -1 -137 -1 0 0 18 45 39 100 54 136 198
360 257 400 17 11 28 27 26 34 -3 10 3 12 22 9 14 -3 26 -1 26 3 0 5 -23 9
-51 9 -45 0 -55 -4 -86 -35 -20 -20 -38 -33 -41 -31 -2 3 23 52 57 110 33 57
61 112 61 121 0 9 8 29 19 43 26 38 77 142 85 174 3 15 16 33 28 39 23 12 288
27 288 16 0 -4 -6 -24 -14 -44 -41 -111 -88 -286 -75 -277 5 3 9 11 9 19 0 7
20 79 45 158 25 80 45 148 45 151 0 8 -202 5 -264 -4z m-48 -1040 c1 -8 -9
-27 -23 -42 -24 -27 -31 -28 -116 -28 -86 0 -90 1 -99 25 -16 42 -4 54 58 58
117 7 177 3 180 -13z"/>
<path d="M1758 173 c29 -2 74 -2 100 0 26 2 2 3 -53 3 -55 0 -76 -1 -47 -3z"/>
<path d="M3142 1103 c-1 -89 -4 -168 -7 -175 -14 -36 18 -70 306 -324 63 -56
200 -177 304 -270 323 -288 367 -324 379 -317 6 4 20 6 31 5 14 -2 -2 19 -49
64 -52 50 -70 74 -72 98 -4 45 -9 64 -19 73 -4 4 -5 -3 -1 -17 3 -14 9 -38 13
-55 l6 -30 -24 21 c-112 98 -240 212 -269 238 -19 17 -109 97 -200 176 -91 80
-194 172 -230 205 -117 108 -130 119 -135 114 -5 -6 125 -126 385 -355 80 -70
159 -140 175 -155 17 -15 112 -100 213 -189 161 -143 192 -176 171 -183 -3 -1
-129 108 -280 242 -151 134 -325 289 -388 345 -176 156 -295 266 -301 279 -10
22 1 247 12 247 6 0 52 -37 103 -82 342 -307 509 -453 519 -456 6 -2 -2 8 -19
22 -16 14 -27 28 -23 31 3 3 28 -15 57 -41 28 -25 51 -43 51 -39 0 4 -21 26
-47 49 -27 22 -102 90 -168 151 -66 61 -138 125 -160 144 -22 18 -63 54 -90
80 -88 81 -199 176 -192 165 4 -6 103 -98 222 -204 118 -107 213 -196 210
-198 -3 -3 -18 6 -33 19 -63 58 -322 290 -377 338 -54 47 -61 57 -65 99 -3 26
-7 -26 -8 -115z m594 -441 c-7 -6 -106 77 -106 90 0 5 25 -12 55 -38 31 -26
53 -49 51 -52z"/>
<path d="M1060 1224 c0 -18 83 -104 100 -104 17 0 8 43 -10 48 -13 5 -13 3 -1
-12 27 -32 4 -25 -29 9 -19 19 -29 35 -23 35 7 0 15 -4 18 -10 3 -5 12 -10 18
-9 8 0 8 2 -1 6 -7 3 -17 16 -22 29 -11 27 -50 34 -50 8z m31 -7 c-1 -12 -15
-9 -19 4 -3 6 1 10 8 8 6 -3 11 -8 11 -12z"/>
<path d="M4693 1052 c5 -64 3 -103 -3 -107 -17 -11 -10 -39 13 -56 25 -18 63
-10 73 16 8 21 17 19 49 -11 15 -14 29 -23 32 -20 8 8 -48 56 -64 56 -8 0 -23
-10 -33 -22 -16 -21 -20 -21 -44 -8 -19 10 -24 18 -19 29 4 9 6 61 5 115 l-4
99 50 -44 c27 -24 84 -75 126 -113 61 -55 79 -67 89 -57 8 8 8 11 1 9 -6 -2
-64 44 -129 102 -64 58 -124 107 -132 109 -14 3 -15 -9 -10 -97z"/>
<path d="M562 832 c-256 -310 -288 -353 -275 -377 10 -17 213 -198 240 -213
14 -9 15 -12 4 -26 -8 -9 -12 -19 -9 -22 3 -2 34 32 69 77 35 45 102 131 149
190 47 60 94 123 104 141 27 47 0 20 -74 -77 -178 -232 -210 -274 -218 -279
-7 -4 -170 131 -246 204 -18 18 -17 20 50 107 51 65 350 428 380 462 2 2 10
-2 19 -9 10 -8 15 -9 15 -2 0 6 -8 16 -18 21 -16 8 -43 -20 -190 -197z"/>
<path d="M3172 979 l3 -54 35 0 c32 0 35 3 37 30 1 19 0 22 -4 10 -6 -23 -21
-35 -45 -35 -15 0 -18 9 -18 45 0 32 4 45 14 45 30 0 118 -55 161 -101 25 -26
45 -42 45 -35 0 15 -84 97 -121 117 -28 15 -34 17 -77 25 l-33 6 3 -53z"/>
<path d="M3967 820 c-43 -39 -75 -95 -57 -102 5 -2 16 -41 25 -88 23 -120 29
-131 100 -194 59 -52 102 -112 90 -124 -3 -3 -20 8 -38 24 -17 16 -52 48 -77
70 -25 23 -69 63 -98 89 -29 26 -55 46 -57 43 -3 -3 27 -35 67 -71 40 -36 96
-86 123 -111 44 -41 89 -66 100 -55 13 13 -44 94 -105 149 l-71 66 -25 119
-24 120 55 53 c65 61 58 71 -8 12z"/>
<path d="M3147 708 c-6 -18 4 -77 15 -84 5 -3 6 6 2 23 -4 15 -7 30 -6 33 0
22 3 30 12 30 6 0 10 -6 9 -12 -7 -53 3 -67 122 -178 66 -61 123 -110 125
-107 5 5 -76 84 -173 168 -58 50 -62 57 -63 97 0 34 -3 42 -19 42 -10 0 -21
-6 -24 -12z"/>
<path d="M4402 660 c5 -17 8 -37 5 -44 -3 -8 1 -22 9 -33 14 -17 15 -17 10 2
-2 11 -8 39 -11 63 -4 23 -11 42 -15 42 -5 0 -4 -14 2 -30z"/>
<path d="M996 612 c200 -182 406 -363 424 -372 12 -6 28 -9 36 -6 8 3 14 3 14
-1 0 -10 -52 -113 -57 -113 -2 0 -16 13 -31 28 -23 24 -415 371 -476 421 -10
9 -17 11 -15 5 2 -7 108 -103 234 -214 127 -111 237 -210 245 -220 8 -9 29
-25 47 -36 30 -17 33 -17 51 -1 13 12 17 26 14 42 l-4 25 98 2 c74 1 83 3 37
5 -92 6 -82 25 17 37 19 2 11 3 -18 2 -28 0 -54 4 -56 9 -2 6 -12 5 -27 -4
-20 -12 -25 -11 -40 7 -11 14 -23 19 -38 15 -29 -8 -26 3 7 22 26 15 26 15 2
9 -14 -4 -28 -12 -32 -18 -6 -7 -10 -8 -15 -1 -7 9 -82 76 -402 362 -20 18
-40 33 -46 33 -5 -1 8 -17 31 -38z m548 -415 c-7 -18 -54 -20 -54 -2 0 23 -20
-22 -20 -46 0 -15 -6 -32 -14 -38 -24 -20 -27 5 -6 53 18 42 21 45 48 40 18
-4 32 -1 37 6 10 16 17 6 9 -13z"/>
<path d="M4612 641 c-60 -6 -66 -9 -109 -54 -61 -65 -49 -70 14 -7 40 40 57
50 84 50 19 0 57 3 84 6 46 6 51 4 52 -14 1 -11 12 -42 24 -69 12 -26 30 -70
40 -98 10 -27 32 -88 49 -135 47 -123 101 -271 110 -300 5 -14 9 -18 9 -9 1 8
-20 71 -45 140 -25 68 -54 147 -64 174 -10 28 -39 103 -64 169 -25 65 -46 121
-46 124 1 4 15 -9 33 -29 42 -46 146 -133 152 -127 3 3 -20 27 -52 54 -32 27
-77 68 -100 91 -46 47 -43 46 -171 34z"/>
<path d="M65 537 c39 -34 106 -97 150 -141 159 -157 253 -236 282 -236 27 0
44 -12 186 -136 20 -18 27 -20 27 -9 0 8 -3 15 -7 15 -5 0 -46 34 -93 75 -67
59 -90 73 -108 68 -18 -4 -42 13 -125 88 -56 52 -118 111 -137 132 -47 51
-225 207 -236 207 -5 -1 23 -29 61 -63z"/>
<path d="M2567 303 c-10 -17 -17 -89 -10 -98 5 -5 46 -44 93 -84 47 -41 97
-86 113 -100 15 -14 27 -20 27 -14 0 5 -49 52 -109 104 -61 52 -113 101 -116
111 -3 9 0 30 7 47 l13 30 135 -115 c149 -128 189 -159 196 -151 3 3 -8 14
-23 25 -16 11 -89 72 -163 136 -128 109 -153 126 -163 109z"/>
<path d="M1770 291 c0 -5 -21 -12 -47 -14 -29 -2 -21 -4 22 -3 39 1 70 5 70
11 0 6 -10 11 -22 13 -13 2 -23 -1 -23 -7z m37 -7 c-3 -3 -12 -4 -19 -1 -8 3
-5 6 6 6 11 1 17 -2 13 -5z"/>
<path d="M43 178 c-21 -18 -40 -34 -42 -35 -2 -2 -2 -6 1 -9 4 -3 25 11 47 32
42 37 42 37 64 18 12 -11 64 -57 115 -103 50 -45 92 -78 92 -72 0 14 -211 201
-227 201 -7 0 -29 -14 -50 -32z"/>
<path d="M5170 141 c0 -20 13 -41 25 -41 18 0 26 15 19 34 -6 17 -44 23 -44 7z
m34 -17 c4 -10 1 -14 -6 -12 -15 5 -23 28 -10 28 5 0 13 -7 16 -16z"/>
<path d="M5243 109 c9 -5 17 -17 17 -26 0 -13 -3 -13 -15 -3 -25 21 -17 4 14
-29 31 -33 51 -40 51 -16 0 25 -23 65 -37 65 -7 0 -13 5 -13 10 0 6 -8 10 -17
10 -17 -1 -17 -1 0 -11z m47 -40 c0 -5 -4 -9 -10 -9 -5 0 -10 7 -10 16 0 8 5
12 10 9 6 -3 10 -10 10 -16z m10 -29 c0 -5 -2 -10 -4 -10 -3 0 -8 5 -11 10 -3
6 -1 10 4 10 6 0 11 -4 11 -10z"/>
<path d="M1740 61 c-17 -32 -12 -57 10 -57 11 0 20 4 20 8 0 4 -7 8 -15 8 -18
0 -18 5 -5 31 9 15 22 19 71 19 56 0 59 -1 49 -19 -5 -11 -10 -28 -9 -38 0
-10 5 -4 10 14 l9 32 30 -31 c17 -17 30 -27 30 -21 0 5 -15 23 -33 41 -30 29
-39 32 -95 32 -50 0 -63 -3 -72 -19z"/>
<path d="M1467 52 c-10 -10 -17 -27 -16 -38 0 -18 1 -18 9 1 10 27 38 50 48
40 4 -4 -3 -14 -15 -22 -13 -9 -23 -20 -23 -25 0 -5 13 0 30 12 18 13 27 26
23 35 -7 21 -37 19 -56 -3z"/>
<path d="M731 18 c1 -17 2 -19 6 -5 2 9 11 17 18 17 7 0 16 -8 18 -17 4 -14 5
-12 6 5 1 17 -4 22 -24 22 -20 0 -25 -5 -24 -22z"/>
</g>
</defs>
<mask id="mp74268">
  <use xlink:href="#gp74268" fill="white" />
</mask>
<use xlink:href="#gp74268" data-mask="url(#mp74268)" data-stroke="black" stroke-width="20px" fill="black"/>
</svg>
