<svg height="818" version="1.1" width="1226" xmlns="http://www.w3.org/2000/svg" id="svgSk0kgm5yo0" viewBox="0 0 1226 818" preserveAspectRatio="xMidYMid meet"><desc>Created with Snap</desc><defs><linearGradient x1="742.612" y1="802.3" x2="847.788" y2="318.5" gradientUnits="userSpaceOnUse" id="linearGradientSk0kgm5yo4u"><stop offset="0%" stop-color="#2c190a"></stop><stop offset="48.235%" stop-color="#221a19"></stop></linearGradient><linearGradient x1="423.237" y1="811.7" x2="454.362" y2="26" gradientUnits="userSpaceOnUse" id="linearGradientSk0kgm5yo4z"><stop offset="0%" stop-color="#392d25"></stop><stop offset="100%" stop-color="#14130f"></stop></linearGradient><linearGradient x1="427.538" y1="804.8" x2="454.262" y2="299.5" gradientUnits="userSpaceOnUse" id="linearGradientSk0kgm5yo53"><stop offset="0%" stop-color="#2d1f16"></stop><stop offset="100%" stop-color="#14130f"></stop></linearGradient><radialGradient cx="49.252975583214294" cy="41.999999999999986" r="157.85" fx="49.252975583214294" fy="41.999999999999986" gradientUnits="userSpaceOnUse" id="radialGradientSk0kgm5yo5m"><stop offset="0%" stop-color="#766041" stop-opacity="0.247"></stop><stop offset="68.627%" stop-color="#766041" stop-opacity="0"></stop></radialGradient><linearGradient x1="37.337" y1="14.737" x2="39.763" y2="5.662" gradientUnits="userSpaceOnUse" id="linearGradientSk0kgm5yo5r"><stop offset="0%" stop-color="#56462f" stop-opacity="0.498"></stop><stop offset="100%" stop-color="#20201e" stop-opacity="0.498"></stop></linearGradient><linearGradient x1="77.787" y1="56.15" x2="96.213" y2="45.05" gradientUnits="userSpaceOnUse" id="linearGradientSk0kgm5yo5v"><stop offset="0%" stop-color="#56462f" stop-opacity="0.498"></stop><stop offset="100%" stop-color="#20201e" stop-opacity="0.498"></stop></linearGradient><radialGradient cx="29.52499999999999" cy="27.924999999999997" r="67.325" fx="29.52499999999999" fy="27.924999999999997" gradientUnits="userSpaceOnUse" id="radialGradientSk0kgm5yo7k"><stop offset="0%" stop-color="#766041" stop-opacity="0.247"></stop><stop offset="68.627%" stop-color="#766041" stop-opacity="0"></stop></radialGradient><linearGradient x1="22.162" y1="15.675" x2="25.938" y2="7.125" gradientUnits="userSpaceOnUse" id="linearGradientSk0kgm5yo7p"><stop offset="0%" stop-color="#56462f" stop-opacity="0.498"></stop><stop offset="100%" stop-color="#20201e" stop-opacity="0.498"></stop></linearGradient><linearGradient x1="52.487" y1="33.138" x2="58.013" y2="30.362" gradientUnits="userSpaceOnUse" id="linearGradientSk0kgm5yo7t"><stop offset="0%" stop-color="#56462f" stop-opacity="0.498"></stop><stop offset="100%" stop-color="#20201e" stop-opacity="0.498"></stop></linearGradient><radialGradient cx="29.52499999999999" cy="27.924999999999997" r="67.325" fx="29.52499999999999" fy="27.924999999999997" gradientUnits="userSpaceOnUse" id="radialGradientSk0kgm5yo8o"><stop offset="0%" stop-color="#766041" stop-opacity="0.247"></stop><stop offset="68.627%" stop-color="#766041" stop-opacity="0"></stop></radialGradient><linearGradient x1="22.162" y1="15.675" x2="25.938" y2="7.125" gradientUnits="userSpaceOnUse" id="linearGradientSk0kgm5yo8t"><stop offset="0%" stop-color="#56462f" stop-opacity="0.498"></stop><stop offset="100%" stop-color="#20201e" stop-opacity="0.498"></stop></linearGradient><linearGradient x1="52.487" y1="33.138" x2="58.013" y2="30.362" gradientUnits="userSpaceOnUse" id="linearGradientSk0kgm5yo8x"><stop offset="0%" stop-color="#56462f" stop-opacity="0.498"></stop><stop offset="100%" stop-color="#20201e" stop-opacity="0.498"></stop></linearGradient><radialGradient cx="29.52499999999999" cy="27.924999999999997" r="67.325" fx="29.52499999999999" fy="27.924999999999997" gradientUnits="userSpaceOnUse" id="radialGradientSk0kgm5yo9w"><stop offset="0%" stop-color="#766041" stop-opacity="0.247"></stop><stop offset="68.627%" stop-color="#766041" stop-opacity="0"></stop></radialGradient><linearGradient x1="22.162" y1="15.675" x2="25.938" y2="7.125" gradientUnits="userSpaceOnUse" id="linearGradientSk0kgm5yoa1"><stop offset="0%" stop-color="#56462f" stop-opacity="0.498"></stop><stop offset="100%" stop-color="#20201e" stop-opacity="0.498"></stop></linearGradient><linearGradient x1="52.487" y1="33.138" x2="58.013" y2="30.362" gradientUnits="userSpaceOnUse" id="linearGradientSk0kgm5yoa5"><stop offset="0%" stop-color="#56462f" stop-opacity="0.498"></stop><stop offset="100%" stop-color="#20201e" stop-opacity="0.498"></stop></linearGradient><radialGradient cx="29.52499999999999" cy="27.924999999999997" r="67.325" fx="29.52499999999999" fy="27.924999999999997" gradientUnits="userSpaceOnUse" id="radialGradientSk0kgm5yob0"><stop offset="0%" stop-color="#766041" stop-opacity="0.247"></stop><stop offset="68.627%" stop-color="#766041" stop-opacity="0"></stop></radialGradient><linearGradient x1="22.162" y1="15.675" x2="25.938" y2="7.125" gradientUnits="userSpaceOnUse" id="linearGradientSk0kgm5yob5"><stop offset="0%" stop-color="#56462f" stop-opacity="0.498"></stop><stop offset="100%" stop-color="#20201e" stop-opacity="0.498"></stop></linearGradient><linearGradient x1="52.487" y1="33.138" x2="58.013" y2="30.362" gradientUnits="userSpaceOnUse" id="linearGradientSk0kgm5yob9"><stop offset="0%" stop-color="#56462f" stop-opacity="0.498"></stop><stop offset="100%" stop-color="#20201e" stop-opacity="0.498"></stop></linearGradient><radialGradient cx="43.255720794334664" cy="29.200000000000003" r="94.175" fx="43.255720794334664" fy="29.200000000000003" gradientUnits="userSpaceOnUse" id="radialGradientSk0kgm5yoc4"><stop offset="0%" stop-color="#766041" stop-opacity="0.247"></stop><stop offset="68.627%" stop-color="#766041" stop-opacity="0"></stop></radialGradient><linearGradient x1="59.487" y1="40.513" x2="66.912" y2="36.487" gradientUnits="userSpaceOnUse" id="linearGradientSk0kgm5yoc9"><stop offset="0%" stop-color="#56462f" stop-opacity="0.498"></stop><stop offset="100%" stop-color="#20201e" stop-opacity="0.498"></stop></linearGradient><linearGradient x1="27.337" y1="16.638" x2="29.863" y2="9.962" gradientUnits="userSpaceOnUse" id="linearGradientSk0kgm5yocd"><stop offset="0%" stop-color="#56462f" stop-opacity="0.498"></stop><stop offset="100%" stop-color="#20201e" stop-opacity="0.498"></stop></linearGradient><radialGradient cx="43.250000000000014" cy="29.14999999999999" r="138.05" fx="43.250000000000014" fy="29.14999999999999" gradientUnits="userSpaceOnUse" id="radialGradientSk0kgm5yod8"><stop offset="0%" stop-color="#766041" stop-opacity="0.247"></stop><stop offset="68.627%" stop-color="#766041" stop-opacity="0"></stop></radialGradient><linearGradient x1="32.812" y1="12.925" x2="34.588" y2="4.175" gradientUnits="userSpaceOnUse" id="linearGradientSk0kgm5yodd"><stop offset="0%" stop-color="#56462f" stop-opacity="0.498"></stop><stop offset="100%" stop-color="#20201e" stop-opacity="0.498"></stop></linearGradient><linearGradient x1="71.15" y1="43.862" x2="81.85" y2="39.538" gradientUnits="userSpaceOnUse" id="linearGradientSk0kgm5yodh"><stop offset="0%" stop-color="#56462f" stop-opacity="0.498"></stop><stop offset="100%" stop-color="#20201e" stop-opacity="0.498"></stop></linearGradient><radialGradient cx="49.252975583214294" cy="41.999999999999986" r="157.85" fx="49.252975583214294" fy="41.999999999999986" gradientUnits="userSpaceOnUse" id="radialGradientSk0kgm5yoe8"><stop offset="0%" stop-color="#766041" stop-opacity="0.247"></stop><stop offset="68.627%" stop-color="#766041" stop-opacity="0"></stop></radialGradient><linearGradient x1="37.337" y1="14.737" x2="39.763" y2="5.662" gradientUnits="userSpaceOnUse" id="linearGradientSk0kgm5yoed"><stop offset="0%" stop-color="#56462f" stop-opacity="0.498"></stop><stop offset="100%" stop-color="#20201e" stop-opacity="0.498"></stop></linearGradient><linearGradient x1="77.787" y1="56.15" x2="96.213" y2="45.05" gradientUnits="userSpaceOnUse" id="linearGradientSk0kgm5yoeh"><stop offset="0%" stop-color="#56462f" stop-opacity="0.498"></stop><stop offset="100%" stop-color="#20201e" stop-opacity="0.498"></stop></linearGradient><radialGradient cx="49.252975583214294" cy="41.999999999999986" r="157.85" fx="49.252975583214294" fy="41.999999999999986" gradientUnits="userSpaceOnUse" id="radialGradientSk0kgm5yof8"><stop offset="0%" stop-color="#766041" stop-opacity="0.247"></stop><stop offset="68.627%" stop-color="#766041" stop-opacity="0"></stop></radialGradient><linearGradient x1="37.337" y1="14.737" x2="39.763" y2="5.662" gradientUnits="userSpaceOnUse" id="linearGradientSk0kgm5yofd"><stop offset="0%" stop-color="#56462f" stop-opacity="0.498"></stop><stop offset="100%" stop-color="#20201e" stop-opacity="0.498"></stop></linearGradient><linearGradient x1="77.787" y1="56.15" x2="96.213" y2="45.05" gradientUnits="userSpaceOnUse" id="linearGradientSk0kgm5yofh"><stop offset="0%" stop-color="#56462f" stop-opacity="0.498"></stop><stop offset="100%" stop-color="#20201e" stop-opacity="0.498"></stop></linearGradient></defs><g token="svgSk0kgm5yo0" class="movieclip"><g token="13" transform="matrix(0.985,0.17,-0.17,0.985,1071.078,335.926)" style="opacity: 1; visibility: visible;" class="movieclip"><g token="1" transform="matrix(1,0,0,1,0,0)" class="shape"><path fill="#243c61" d="M 9.1 5.05l0.95 -4.35l-3.95 2.7l0.2 0.55l2.8 1.1" style=""></path><path fill="rgba(0,0,0,0)" d="M 9.1 5.05l4.95 1.9l1.55 -0.1" stroke="#243c61" style="stroke-width: 2;"></path><path fill="rgba(0,0,0,0)" d="M 0.8 1.75l5.5 2.2l-0.2 -0.55l3.95 -2.7l-0.95 4.35l-2.8 -1.1l2.1 4.25l0.7 -3.15" stroke="#243c61" style="stroke-width: 2;"></path></g></g><g token="12" transform="matrix(1,0,0,1,0,32.75)" style="opacity: 1; visibility: visible;" class="movieclip"><g token="3" transform="matrix(1,0,0,1,0,0)" class="shape"><path fill="#151515" d="M 449.9 18.35l-3.6 -1.75q-11.2 13.9 -22.4 27.75q-134.8 166.75 -271.1 329.35q-12.3 14.7 -24.65 29.35q-4.2 7.05 -4.45 14.65q-0.15 3.9 0.75 7.95q0 3.9 -3 8.9l-121.45 382.7l1226.85 0l0 -409.3l-337.7 -100.45l-66.35 -160.4l3.1 -4.35q2.15 -3.1 -2.1 -5.5l-367.8 -137.25l-6.1 18.35" style=""></path></g><g token="2" transform="matrix(1,0,0,1,0,0)" class="shape"><path fill="rgba(0,0,0,0)" d="M 1226.85 407.95l-337.7 -100.45" stroke="#050500" style="stroke-width: 3;"></path></g><g token="1" transform="matrix(1,0,0,1,0,0)" class="shape"><path fill="#1c1615" d="M 889.15 307.5l19.1 43.85l318.6 92l0 -35.4l-337.7 -100.45" style=""></path><path fill="url('#linearGradientSk0kgm5yo4u')" d="M 822.8 147.1l0.85 -1.2l-364.35 -136.9q-2.4 4.7 -1.85 8.75l-15.8 799.5l785.2 0l0 -373.9l-318.6 -92l-19.1 -43.85l-66.35 -160.4" style=""></path><path fill="#39342e" d="M 123.7 417.7q-0.15 3.9 0.75 7.95q0 3.9 -3 8.9l-121.45 382.7l416.9 0l31.65 -791.6l-324.85 392.05" style=""></path><path fill="url('#linearGradientSk0kgm5yo4z')" d="M 453.85 28.2l-5.3 -2.55l-31.65 791.6l12.35 0l24.6 -789.05" style=""></path><path fill="url('#linearGradientSk0kgm5yo53')" d="M 457.45 17.75q-2.55 3.35 -1.9 6.65l-1.7 3.8l-24.6 789.05l12.4 0l15.8 -799.5" style=""></path><path fill="#0a0a07" d="M 825.9 142.75q2.15 -3.1 -2.1 -5.5l-367.8 -137.25l-6.1 18.35l-3.6 -1.75q-11.2 13.9 -22.4 27.75q-134.8 166.75 -271.1 329.35q-12.3 14.7 -24.65 29.35q-4.2 7.05 -4.45 14.65l324.85 -392.05l5.3 2.55l1.7 -3.8q-0.65 -3.3 1.9 -6.65q-0.55 -4.05 1.85 -8.75l364.35 136.9l2.25 -3.15" style=""></path><path fill="rgba(0,0,0,0)" d="M 1226.85 443.35l-318.6 -92" stroke="#050500" style="stroke-width: 3;"></path></g></g><g token="11" transform="matrix(1,0,0,1,746.95,190.5)" style="opacity: 1; visibility: visible;" class="movieclip"><g token="1" transform="matrix(1,0,0,1,0,0)" class="shape"><path fill="#0f1317" d="M 16.5 15.1q-6.75 -2 -13.5 -4l6.25 23.3l24.8 7.45l-9.35 -24.25l-6.15 -1.9q-1.05 -0.3 -2.05 -0.6" style=""></path><path fill="#0f1317" d="M 24.7 17.6l-0.05 -0.15l-6.1 -1.75l6.15 1.9" style=""></path><path fill="#0f1317" d="M 24.7 17.6l6.4 1.9l-6.45 -2.05l0.05 0.15" style=""></path><path fill="#0f0f0c" d="M 47.5 24.45l3.7 -9.7l-51.2 -14.75l3 11.1q6.75 2 13.5 4q1 0.3 2.05 0.6l6.1 1.75l6.45 2.05l2.15 0.65q7.1 2.15 14.25 4.3" style=""></path><path fill="#0f1317" d="M 55.8 48.2l-8.3 -23.75q-7.15 -2.15 -14.25 -4.3l-2.15 -0.65l-6.4 -1.9l9.35 24.25l21.75 6.35" style=""></path><path fill="#20201e" d="M 47.5 24.45l8.3 23.75q3.95 2.05 8.5 -3.1l-13.1 -30.35l-3.7 9.7" style=""></path><path fill="rgba(0,0,0,0)" d="M 47.5 24.45l8.3 23.75" stroke="#2e3131" style="stroke-width: 1;"></path><path fill="rgba(0,0,0,0)" d="M 47.5 24.45q-7.15 -2.15 -14.25 -4.3l-2.15 -0.65l-6.4 -1.9l-6.15 -1.9q-1.05 -0.3 -2.05 -0.6q-6.75 -2 -13.5 -4" stroke="#2f3437" style="stroke-width: 1;"></path><path fill="rgba(0,0,0,0)" d="M 24.7 17.6l9.35 24.25" stroke="#2a2d2d" style="stroke-width: 2;"></path><path fill="rgba(0,0,0,0)" d="M 24.65 17.45l0.05 0.15" stroke="#2a2d2d" style="stroke-width: 2;"></path><path fill="rgba(0,0,0,0)" d="M 3 11.1l6.25 23.3" stroke="#1f1f1d" style="stroke-width: 2;"></path><path fill="rgba(0,0,0,0)" d="M 3 11.1l-3 -11.1" stroke="#1f1f1d" style="stroke-width: 2;"></path></g></g><g token="10" transform="matrix(1,0,0,1,783.55,300.3)" style="opacity: 1; visibility: visible;" class="movieclip"><g token="1" transform="matrix(1,0,0,1,0,0)" class="shape"><path fill="#0f0f0c" d="M 15.25 14.55l11.6 3.75l14.1 3.95l-25.7 -7.7" style=""></path><path fill="#0f1317" d="M 13.5 41.3l24.15 6.75l-10.8 -29.75l-11.6 -3.75l-11.7 -3.65l9.95 30.4" style=""></path><path fill="#20201e" d="M 60.65 17.65l-8.8 7.75l10 29.4l11.4 0.5l-12.6 -37.65" style=""></path><path fill="#0f1317" d="M 45.65 23.6l-4.7 -1.35l-14.1 -3.95l10.8 29.75l24.2 6.75l-10 -29.4q-3.1 -0.9 -6.2 -1.8" style=""></path><path fill="#0f0f0c" d="M 40.95 22.25l4.7 1.35q3.1 0.9 6.2 1.8l8.8 -7.75l-60.65 -17.65l3.55 10.9l11.7 3.65l25.7 7.7" style=""></path><path fill="rgba(0,0,0,0)" d="M 40.95 22.25l4.7 1.35q3.1 0.9 6.2 1.8" stroke="#2f3437" style="stroke-width: 1;"></path><path fill="rgba(0,0,0,0)" d="M 3.55 10.9l11.7 3.65l25.7 7.7" stroke="#2f3437" style="stroke-width: 1;"></path><path fill="rgba(0,0,0,0)" d="M 0 0l3.55 10.9" stroke="#1f1f1d" style="stroke-width: 2;"></path><path fill="rgba(0,0,0,0)" d="M 13.5 41.3l-9.95 -30.4" stroke="#1f1f1d" style="stroke-width: 2;"></path><path fill="rgba(0,0,0,0)" d="M 26.85 18.3l10.8 29.75" stroke="#2a2d2d" style="stroke-width: 2;"></path><path fill="rgba(0,0,0,0)" d="M 61.85 54.8l-10 -29.4" stroke="#2e3131" style="stroke-width: 1;"></path></g></g><g token="9" transform="matrix(1,0,0,1,829.75,445.7)" style="opacity: 1; visibility: visible;" class="movieclip"><g token="1" transform="matrix(1,0,0,1,0,0)" class="shape"><path fill="#0f1317" d="M 33 16.45l-29.65 -5.75l14.6 42.65l28.25 5.75l-13.2 -42.65" style=""></path><path fill="#0f0f0c" d="M 58.75 21.4l9.4 -7.75l-68.15 -13.65l3.35 10.7l29.65 5.75l25.75 4.95" style=""></path><path fill="#0f1317" d="M 46.2 59.1l27.4 4l-14.85 -41.7l-25.75 -4.95l13.2 42.65" style=""></path><path fill="#20201e" d="M 68.15 13.65l-9.4 7.75l14.85 41.7q0.55 0.6 6.9 0.75q6.3 0.15 7.65 -0.55l-20 -49.65" style=""></path><path fill="rgba(0,0,0,0)" d="M 0 0l3.35 10.7" stroke="#1f1f1d" style="stroke-width: 2;"></path><path fill="rgba(0,0,0,0)" d="M 17.95 53.35l-14.6 -42.65" stroke="#1f1f1d" style="stroke-width: 2;"></path><path fill="rgba(0,0,0,0)" d="M 3.35 10.7l29.65 5.75l25.75 4.95" stroke="#2a2d2d" style="stroke-width: 1;"></path><path fill="rgba(0,0,0,0)" d="M 33 16.45l13.2 42.65" stroke="#2a2d2d" style="stroke-width: 2;"></path><path fill="rgba(0,0,0,0)" d="M 58.75 21.4l14.85 41.7" stroke="#2e3131" style="stroke-width: 1;"></path></g></g><g token="8" transform="matrix(1,0,0,1,897.9,640.15)" style="opacity: 1; visibility: visible;" class="movieclip"><g token="1" transform="matrix(1,0,0,1,0,0)" class="shape"><path fill="#0f1317" d="M 37.45 17l-6.2 -1.1l21.8 62.5l32.15 4.6l-20.95 -60.9l-26.8 -5.1" style=""></path><path fill="#0f0f0c" d="M 64.25 22.1l14.65 -8.2l-78.9 -13.9l3.35 10.7l22.6 4.2l5.25 0.9l6.25 1.2l26.8 5.1" style=""></path><path fill="#20201e" d="M 85.2 83q0.85 0.2 9.3 0.95q4.2 0.35 8.25 0.7l-23.85 -70.75l-14.65 8.2l20.95 60.9" style=""></path><path fill="#0f1317" d="M 37.45 17l-6.25 -1.2l0.05 0.1l6.2 1.1" style=""></path><path fill="#0f1317" d="M 25.95 14.9l5.3 1l-0.05 -0.1l-5.25 -0.9" style=""></path><path fill="#0f1317" d="M 31.25 15.9l-5.3 -1l-22.6 -4.2l22.45 64.1l27.25 3.6l-21.8 -62.5" style=""></path><path fill="rgba(0,0,0,0)" d="M 64.25 22.1l20.95 60.9" stroke="#2e3131" style="stroke-width: 1;"></path><path fill="rgba(0,0,0,0)" d="M 31.25 15.9l-5.3 -1l-22.6 -4.2" stroke="#2e3131" style="stroke-width: 1;"></path><path fill="rgba(0,0,0,0)" d="M 31.25 15.9l6.2 1.1l26.8 5.1" stroke="#2e3131" style="stroke-width: 1;"></path><path fill="rgba(0,0,0,0)" d="M 25.8 74.8l-22.45 -64.1l-3.35 -10.7" stroke="#1d1d1c" style="stroke-width: 3;"></path><path fill="rgba(0,0,0,0)" d="M 31.2 15.8l0.05 0.1l21.8 62.5" stroke="#1e2123" style="stroke-width: 2;"></path></g></g><g token="7" transform="matrix(1,0,0,1,0,0)" class="shape"><path fill="#111318" d="M 1189.3 655.6l16.75 2.15l-18.25 -42.45l-22.45 -4.6l23.95 44.9" style=""></path><path fill="#111318" d="M 1146.45 649.9l18.6 2.45l-21.55 -45.9l-17.4 -3.45l20.35 46.9" style=""></path><path fill="#111318" d="M 1165.35 610.7l-21.85 -4.25l21.55 45.9l24.25 3.25l-23.95 -44.9" style=""></path><path fill="#060603" d="M 1187.8 615.3l6.7 -5.8l-73.15 -18.2l4.75 11.7l17.4 3.45l21.85 4.25l22.45 4.6" style=""></path><path fill="#20201e" d="M 1194.5 609.5l-6.7 5.8l18.25 42.45l9.3 0l-20.85 -48.25" style=""></path><path fill="#111318" d="M 1079.55 591.3l-81.9 -15l20.55 50.85l22.25 3.5l-19.4 -48.85l19.4 48.85l29.45 4.55l-20.95 -48.4l20.95 48.4l29.5 4.6l-19.85 -48.5" style=""></path><path fill="#20201e" d="M 1087.35 583.75l-7.8 7.55l19.85 48.5l16.55 2.8l-28.6 -58.85" style=""></path><path fill="#060603" d="M 992.9 564.6l4.75 11.7l81.9 15l7.8 -7.55l-94.45 -19.15" style=""></path><path fill="rgba(0,0,0,0)" d="M 997.65 576.3l81.9 15" stroke="#2a2d2d" style="stroke-width: 1;"></path><path fill="rgba(0,0,0,0)" d="M 1187.8 615.3l18.25 42.45" stroke="#2a2d2d" style="stroke-width: 1;"></path><path fill="rgba(0,0,0,0)" d="M 1126.1 603l17.4 3.45l21.85 4.25l22.45 4.6" stroke="#2a2d2d" style="stroke-width: 1;"></path><path fill="rgba(0,0,0,0)" d="M 1079.55 591.3l19.85 48.5" stroke="#2a2d2d" style="stroke-width: 1;"></path><path fill="rgba(0,0,0,0)" d="M 1165.05 652.35l-21.55 -45.9" stroke="#2a2d2d" style="stroke-width: 2;"></path><path fill="rgba(0,0,0,0)" d="M 1189.3 655.6l-23.95 -44.9" stroke="#2a2d2d" style="stroke-width: 2;"></path><path fill="rgba(0,0,0,0)" d="M 1040.45 630.65l-19.4 -48.85" stroke="#2a2d2d" style="stroke-width: 2;"></path><path fill="rgba(0,0,0,0)" d="M 1069.9 635.2l-20.95 -48.4" stroke="#2a2d2d" style="stroke-width: 2;"></path><path fill="rgba(0,0,0,0)" d="M 997.65 576.3l-4.75 -11.7" stroke="#20201e" style="stroke-width: 2;"></path><path fill="rgba(0,0,0,0)" d="M 1018.2 627.15l-20.55 -50.85" stroke="#20201e" style="stroke-width: 2;"></path><path fill="rgba(0,0,0,0)" d="M 1121.35 591.3l4.75 11.7" stroke="#20201e" style="stroke-width: 2;"></path><path fill="rgba(0,0,0,0)" d="M 1146.45 649.9l-20.35 -46.9" stroke="#20201e" style="stroke-width: 2;"></path></g><g token="6" transform="matrix(1,0,0,1,0,0)" class="shape"><path fill="#232d37" d="M 265.65 338.2l2.45 -30.75l-15.5 16.8l-2.8 31.2l15.85 -17.25" style=""></path><path fill="#232d37" d="M 265.65 338.2l14.05 -15.25l3.25 -31.6l-14.85 16.1l-2.45 30.75" style=""></path><path fill="#232d37" d="M 231.9 375.4l4.9 -5.45l13 -14.5l2.8 -31.2l-15.5 16.75l-5.2 34.4" style=""></path><path fill="#232d37" d="M 350.75 240.3l12.55 -13.5l2.1 -33.75l-20.5 24.1l-3.8 33.5l9.65 -10.35" style=""></path><path fill="#232d37" d="M 382.85 172.55l-17.45 20.5l-2.1 33.75l19.35 -22.05l0.2 -32.2" style=""></path><path fill="#232d37" d="M 401.85 182.85l0.4 -33.2l-19.4 22.9l-0.2 32.2l19.2 -21.9" style=""></path><path fill="#232d37" d="M 402.25 149.65l-0.4 33.2l19.2 -21.9l0.65 -34.2l-19.45 22.9" style=""></path><path fill="rgba(0,0,0,0)" d="M 402.25 149.65l-0.4 33.2" stroke="#474c4c" style="stroke-width: 2;"></path><path fill="rgba(0,0,0,0)" d="M 382.85 172.55l-0.2 32.2" stroke="#474c4c" style="stroke-width: 2;"></path><path fill="rgba(0,0,0,0)" d="M 365.4 193.05l-2.1 33.75" stroke="#474c4c" style="stroke-width: 2;"></path><path fill="rgba(0,0,0,0)" d="M 268.1 307.45l-2.45 30.75" stroke="#474c4c" style="stroke-width: 2;"></path><path fill="rgba(0,0,0,0)" d="M 252.6 324.25l-2.8 31.2" stroke="#474c4c" style="stroke-width: 2;"></path><path fill="rgba(0,0,0,0)" d="M 401.85 182.85l19.2 -21.9l0.65 -34.2l-19.45 22.9l-19.4 22.9" stroke="#161310" style="stroke-width: 3;"></path><path fill="rgba(0,0,0,0)" d="M 382.65 204.75l19.2 -21.9" stroke="#161310" style="stroke-width: 3;"></path><path fill="rgba(0,0,0,0)" d="M 350.75 240.3l-9.65 10.35l3.8 -33.5l20.5 -24.1l17.45 -20.5" stroke="#161310" style="stroke-width: 3;"></path><path fill="rgba(0,0,0,0)" d="M 382.65 204.75l-19.35 22.05l-12.55 13.5l-15.3 18.55" stroke="#161310" style="stroke-width: 3;"></path><path fill="rgba(0,0,0,0)" d="M 226.3 383.8l10.5 -13.85l-4.9 5.45l5.2 -34.4l15.5 -16.75l15.5 -16.8l14.85 -16.1l-3.25 31.6l-14.05 15.25l-15.85 17.25l-13 14.5" stroke="#161310" style="stroke-width: 3;"></path></g><g token="5" transform="matrix(1,0,0,1,0,0)" class="shape"><path fill="#171714" d="M 137.4 463.1l0.4 -5.85l-3.55 2.35l-0.75 7l3.9 -3.5" style=""></path><path fill="#171714" d="M 187.25 398.4l-4.65 2.75l0 7.8l4.25 -3.9l0.4 -6.65" style=""></path><path fill="#171714" d="M 232 433.45l7.05 -6.2l-0.4 -9.75l-5.85 6.6l-0.8 9.35" style=""></path><path fill="#101009" d="M 364.1 278.45l0 9.75l8.6 -7.4l0 -7.8l-8.6 5.45" style=""></path></g><g token="4" transform="matrix(1,0,0,1,484.95,120.95)" style="opacity: 1; visibility: visible;" class="movieclip"><g token="3" transform="matrix(1,0,0,1,0,0)" class="shape"><path fill="#ffffff" d="M 20.7 16.95l2.15 3.2l15 4.9l-17.6 -25.05l-17.75 12.65l-0.4 0.5q0 0.4 0.75 0.65q0.3 0.05 0.6 0l2.4 -1.8l14.85 4.95M 19.85 15.7l-13.05 -4.3l6.8 -4.95l6.25 9.25" style=""></path><path fill="#ffffff" d="M 66.4 20.3q-2 -2.65 -5.3 -4.55q-2.05 -1.25 -4.9 -2.4q-2.9 -1.15 -8.55 -3.1l-8.45 -2.75l0.55 18.15l13 4.3l-0.25 -4.2q4.45 3.6 7.8 5.75q4 2.55 6.25 3.3q0.95 0.25 0.95 -0.15q-0.05 -0.35 -0.7 -0.65q-2.7 -1.25 -5.05 -2.65q-2.35 -1.35 -4.4 -2.9q6.3 1.85 9.3 -0.2q1.9 -1.3 1.8 -3.45q-0.15 -2.1 -2.05 -4.5M 64.45 19.4q2.45 2.6 2.6 4.95q0.1 1.35 -0.8 2.4q-0.95 1.05 -2.75 1.4q-2.9 0.55 -7.2 -0.85l-1 -0.35l-2.85 -2.35l-0.35 -11.95q4.95 1.75 7.7 3.25q2.75 1.5 4.65 3.5" style=""></path><path fill="#ffffff" d="M 87.75 24.6l6.8 2.4q1.05 0.35 1 -0.1q-0.05 -0.35 -0.45 -0.6l-27.55 -9.3q-0.55 -0.1 -0.55 0.3q0.05 0.45 1 0.75l7.2 2.35l1.1 17.25l12.6 4.15l-1.15 -17.2" style=""></path><path fill="#ffffff" d="M 130.55 40.1q-2.6 -2.2 -5.8 -3.65q-2.1 -1 -6.1 -2.3l-10.5 -3.5l1.75 18.05l16.85 5.35q4.85 0.9 7.6 -1q2.25 -1.5 1.9 -4.35q-0.35 -2.8 -3 -5.9q-1.25 -1.45 -2.7 -2.7M 132.45 43.05q2.25 2.7 2.55 5.15q0.25 2.3 -1.3 3.65q-1.75 1.6 -5.2 1.45q-1.5 -0.05 -2.6 -0.3q-1.15 -0.25 -3.85 -1.15l-1.65 -16.3l0.8 0.25q4.8 1.6 8.2 4.3q1.7 1.35 3.05 2.95" style=""></path><path fill="#ffffff" d="M 162.35 53.9q-0.05 -0.35 -0.3 -0.45l-1.05 -0.5l-10.25 -3.35l-0.5 -4.05l9.75 3.4q0.85 0.25 0.8 -0.2q-0.1 -0.4 -0.5 -0.55q-0.25 -0.15 -1.6 -0.55l-20.35 -6.85l2.15 17.95l23.75 7.75q0.55 0.15 0.5 -0.2q-0.05 -0.5 -1.2 -0.85l-11.15 -3.55l-1.55 -11.45l10.3 3.45q1.25 0.45 1.2 0" style=""></path><path fill="#ffffff" d="M 192.75 63.1q-1.35 1.55 -0.95 4q0.25 1.85 1.65 4.05q2.25 3.5 6.65 6.55q3.3 2.25 6.8 3.4q3.2 1.05 6 0.95q3.7 -0.2 5.1 -2.45q0.9 -1.5 0.55 -3.5q-0.5 -2.55 -2.5 -5.2q-2.55 -3.35 -6.7 -5.95q-2.85 -1.75 -5.7 -2.7q-3 -1.05 -5.5 -1.05q-3.75 -0.05 -5.4 1.9M 203.65 63q2.8 0.9 5.5 2.6q3.6 2.25 5.9 5.25q1.9 2.5 2.3 4.75q0.3 1.7 -0.35 2.95q-0.85 1.95 -3.5 2.45q-2.95 0.55 -7.05 -0.8l-1.2 -0.5l-2.9 -17.1l1.3 0.4" style=""></path><path fill="#ffffff" d="M 185.6 58.9q0.95 0.8 1.7 1.7q0.6 0.75 1 0.85l0.4 0l0.15 -0.2q-0.1 -0.55 -2.15 -2.35q-4.35 -3.85 -9.7 -5.65q-3.15 -1.05 -5.7 -1.05q-3.6 0 -5.35 1.75q-1.65 1.6 -1.3 4.15q0.05 0.4 0.15 0.8q0.55 2.15 2.45 4.65q2.6 3.4 7.15 6.15q2.75 1.6 5.45 2.5q1.8 0.55 3.75 0.9q3.15 0.4 5.35 -0.4q0.95 -0.4 1.75 -1.05q0.75 -0.65 0.7 -1.05q-0.1 -0.4 -0.7 -0.6q-0.4 -0.1 -0.7 0.25q-0.45 0.65 -1.35 1.2q-0.9 0.5 -1.75 0.7q-1.4 0.25 -3.25 0.1q-1.9 -0.2 -3.7 -0.8l-1.7 -0.6l-2.55 -17.2l1.35 0.35q2.9 1 5.7 2.8q1.55 1 2.85 2.1" style=""></path></g><g token="2" transform="matrix(1,0,0,1,-460.2,-103.5)" class="shape"><path fill="rgba(0,0,0,0)" d="M 460.2 124.1l219.75 70.8" stroke="#ffffff" style="stroke-width: 1;"></path></g><g token="1" transform="matrix(1,0,0,1,0,0)" class="shape"><path fill="rgba(102,153,51,0)" d="M 232.95 104.35l0 -49l-239 -74l0 55l239 68" style=""></path></g></g><g token="3" transform="matrix(1,0,0,1,484.4,215.5)" style="opacity: 1; visibility: visible;" class="movieclip"><g token="4" transform="matrix(1,0,0,1,0,0)" class="shape"><path fill="#ffffff" d="M 36.05 63.05q-0.05 -2.2 -2.3 -4.1q-3.3 -2.85 -9.3 -4.45q-7.45 -2.15 -11.7 -0.65q-3.45 1.15 -3.45 4.5q0 1.45 0.8 3.2q0.75 1.75 2.9 5.1q-4.45 0.5 -6.45 1.95q-2.1 1.35 -2.1 3.9q0 2.8 2.45 5.35q1.4 1.55 3.95 2.95q2.45 1.3 5.15 2.05q5.4 1.35 9.8 0l3.05 2.85l21.5 5.65q-6.75 -6.7 -11.75 -12.95q3.3 -1.35 5.15 -1.75q1.9 -0.45 3.4 -0.15l1.9 0.25q0.35 -0.05 0.3 -0.55q0 -0.95 -1.55 -1.35q-3.65 -1 -10.5 2.05q-5.75 -7.35 -7.5 -9.9q6.35 -0.6 6.25 -3.95M 31.5 58.85q2.45 1.7 2.55 3.65q0.05 2.7 -5.45 3q-4.6 -6.45 -5.8 -10.05l1.5 0.4q4.6 1.25 7.2 3M 8.3 69.8q1.55 -1.15 5.65 -1.7l5.55 7.55l4.85 5.7q-3.85 1.2 -8.4 0q-2.05 -0.5 -4 -1.55q-2 -1.05 -3.15 -2.25q-2.15 -2.1 -2.15 -4.6q-0.05 -2.1 1.65 -3.15" style=""></path><path fill="#ffffff" d="M 44 12.3q-0.25 -0.35 -0.9 -0.55q-1.1 -0.35 -1.05 0.75l0.55 12.45q-24.8 -16.45 -36.8 -24.95l0.15 27.75q0 1.1 1.25 1.45q1.15 0.3 1.15 -0.55l-0.35 -12.9l19.2 12.7q11.75 7.9 17.9 12.25l-0.85 -27.4q-0.05 -0.75 -0.25 -1" style=""></path><path fill="#ffffff" d="M 127.4 83.45l-17.05 -4.7l2.3 28.95l34.5 9.05q0.9 0.15 0.8 -0.55q-0.1 -0.8 -1.7 -1.2l-16.25 -4.15l-2.6 -27.4" style=""></path><path fill="#ffffff" d="M 85.75 72.55l2 0.4q4.5 1.25 8.6 3.8q4.15 2.55 6.8 5.7q0.8 1 1.4 1.2l0.65 0l0.25 -0.35q-0.1 -0.9 -3.1 -3.6q-6.25 -5.7 -14.5 -8q-4.85 -1.3 -8.95 -0.95q-5.65 0.45 -8.6 3.5q-2.85 2.85 -2.6 7.1q0.15 4.05 3.3 8.55q3.7 5.35 10.55 9.25q4.25 2.4 8.35 3.45q2.8 0.7 5.85 0.95q4.9 0.2 8.45 -1.5q1.55 -0.75 2.95 -1.9q1.25 -1.15 1.2 -1.8q-0.05 -0.65 -0.95 -0.85q-0.7 -0.2 -1.15 0.45q-0.9 1.05 -2.3 2.1q-1.5 0.95 -2.9 1.4q-2.2 0.65 -5.1 0.7q-2.95 -0.05 -5.85 -0.8l-2.5 -0.8l-1.85 -28" style=""></path><path fill="#ffffff" d="M 88.95 44.7q1.65 -2.35 1.45 -5.45q-0.25 -3.8 -3 -7.8q-3.45 -4.9 -9.55 -8.6q-4.2 -2.5 -8.6 -3.8q-4.6 -1.35 -8.6 -1.25q-6 0.2 -9.05 3.25q-2.45 2.5 -2.3 6.15q0.1 2.9 1.85 6.1q2.9 5.3 9.45 9.65q4.85 3.25 10.2 4.75q5.05 1.45 9.5 1.05q6 -0.55 8.65 -4.05M 87.55 43.2q-1.75 2.95 -6.1 3.9q-4.8 1.05 -11.1 -0.7l-1.9 -0.65l-1.35 -26.05l2 0.45q4.35 1.25 8.3 3.7q5.3 3.25 8.45 7.7q2.5 3.6 2.75 7q0.2 2.6 -1.05 4.65" style=""></path><path fill="#ffffff" d="M 108.3 31.35l-14.35 -4.25l2.05 26.9l20.25 5.75l3.1 0.5q6.65 0.85 10.5 -2.15q3.05 -2.55 2.6 -6.8q-0.4 -4.15 -4.1 -8.55q-4.65 -5.55 -11.6 -8.55q-2.9 -1.25 -8.45 -2.85M 110.7 33.25l1.15 0.3q9.8 2.9 15.4 9.8q3.1 3.75 3.45 7.45q0.35 3.3 -1.8 5.55q-2.4 2.55 -7.15 2.75q-2.05 0 -3.6 -0.25q-1.6 -0.25 -5.3 -1.25l-2.15 -24.35" style=""></path><path fill="#ffffff" d="M 219.95 108.5q-1.1 -0.35 -0.9 0.8l1.3 7.05q1.35 8.4 1.4 11.5q0 3.1 -1.3 4.4q-2.55 2.6 -11.75 0.2l-2.35 -0.7l-4.2 -27.8l-15.95 -4.4l3.05 20.2q0.3 1.5 1.1 3.15q1.8 3.5 5.3 5.75q4.35 2.8 12.45 4.95q9.15 2.35 12.5 0.75q2.55 -1.3 2.8 -4.5l-0.05 -3.4l-2.1 -15.1q-0.1 -0.95 -0.2 -1.55q-0.2 -1.05 -1.1 -1.3" style=""></path><path fill="#ffffff" d="M 239.25 114.15l-13.25 -3.65l4.85 28.2l18.7 4.9l2.8 0.4q6.05 0.5 9.15 -2.9q2.45 -2.85 1.6 -7.3q-0.85 -4.35 -4.65 -8.75q-4.75 -5.6 -11.3 -8.3q-2.7 -1.2 -7.9 -2.6M 241.65 116.1l1.05 0.25q9.1 2.45 14.85 9.4q3.15 3.8 3.9 7.6q0.65 3.45 -1 5.95q-1.85 2.85 -6.1 3.25q-1.8 0.15 -3.2 0.05q-1.5 -0.3 -4.9 -1.1l-4.6 -25.4" style=""></path><path fill="#ffffff" d="M 192.7 78.25q1.2 1.55 2.9 2.9q3.8 2.95 10.25 4.8q4.35 1.2 7.35 1.3q2.95 0.05 4.75 -1q3.1 -1.8 2.3 -6.6l-2.85 -16.15l-15.1 -4.45l4.05 25.8l-1.55 -0.35q-3.35 -1 -6.45 -2.9q-3.85 -2.45 -4.65 -5.05q-0.4 -1.3 -1.45 -1.6q-1.05 -0.3 -0.9 0.55q0.15 1.1 1.35 2.75" style=""></path><path fill="#ffffff" d="M 170.75 95.85q-4.1 -2.45 -8.35 -3.65q-4.4 -1.15 -8.1 -0.8q-5.65 0.45 -8.25 3.85q-2.1 2.8 -1.7 6.65q0.35 3.05 2.25 6.4q3.15 5.45 9.6 9.7q4.8 3.25 9.95 4.55q4.8 1.3 8.95 0.65q5.55 -0.85 7.75 -4.7q1.4 -2.6 0.95 -5.9q-0.55 -3.95 -3.4 -8.05q-3.65 -5.05 -9.65 -8.7M 162.35 93.45q4.15 1.1 8.1 3.5q5.2 3.15 8.5 7.75q2.65 3.65 3.15 7.3q0.35 2.7 -0.65 5q-1.4 3.15 -5.4 4.4q-4.4 1.35 -10.45 -0.2l-1.85 -0.6l-3.3 -27.55l1.9 0.4" style=""></path><path fill="#ffffff" d="M 180.55 70.15q-3.45 -0.95 -5.4 -0.3q-1.95 0.55 -1.65 2.6q0.15 1.35 1.6 2.85q2.4 2.45 6.65 3.6q3.4 0.95 5.35 0.3q2 -0.6 1.7 -2.6q-0.3 -1.95 -2.55 -3.65q-2.3 -1.85 -5.7 -2.8" style=""></path><path fill="#ffffff" d="M 165.25 48.2q-0.3 -0.2 -2.15 -0.7l-27.7 -8.2l2.9 26.75l32.45 9.1q0.75 0.15 0.7 -0.4q-0.1 -0.75 -1.6 -1.15l-15.35 -4.25l-2.1 -16.9l14.1 4.25q1.65 0.45 1.6 -0.25q-0.05 -0.45 -0.4 -0.65l-1.5 -0.55l-13.95 -4l-0.65 -5.95l13.3 4.05q1.1 0.3 1 -0.35q-0.05 -0.55 -0.65 -0.8" style=""></path><path fill="#ffffff" d="M 245.7 73.4q-1.05 -0.9 -2.4 -1.75q-3.55 -2.3 -7.5 -3.45q-5.75 -1.7 -9.25 -0.65q-3.65 1 -3.05 4.5q0.4 2.3 2.95 5.5q1.9 2.4 7.5 7.9q4.35 4.25 5.55 5.65q1.2 1.35 1.4 2.3q0.2 1.3 -2.65 0.55q-2.65 -0.8 -5.45 -2.5q-2.9 -1.7 -5 -3.85q-0.75 -0.75 -1.2 -0.85l-0.5 0.1l-0.25 0.3q0.15 0.85 3.35 3.3q4.55 3.35 10 4.95q5.9 1.65 9.6 0.9q1.95 -0.4 2.8 -1.6q0.9 -1.25 0.55 -3.05q-0.4 -2 -2.45 -4.7q-2.05 -2.55 -10.25 -10.55q-2.55 -2.5 -3.75 -3.85q-1.15 -1.45 -1.3 -2.2q-0.1 -0.7 0.6 -0.8q0.7 -0.2 1.95 0.15q1.9 0.55 4.15 1.85q2.25 1.25 3.7 2.6q0.95 0.75 1.35 0.9l0.5 0l0.15 -0.35q-0.1 -0.4 -1.1 -1.3" style=""></path></g><g token="3" transform="matrix(1,0,0,1,-459.65,-198.55)" class="shape"><path fill="rgba(0,0,0,0)" d="M 463.3 234.2l250.25 70.85" stroke="#ffffff" style="stroke-width: 1;"></path></g><g token="2" transform="matrix(1,0,0,1,-459.65,-197.55)" class="shape"><path fill="rgba(0,0,0,0)" d="M 459.65 284.9l265.3 67.7" stroke="#ffffff" style="stroke-width: 1;"></path></g><g token="1" transform="matrix(1,0,0,1,0,0)" class="shape"><path fill="rgba(32,32,30,0)" d="M 275.85 162.75q-0.5 -0.35 -7.5 -54.65q-7.05 -54.3 -7.55 -54.7q-0.5 -0.35 -134.9 -36.1q-134.4 -35.7 -134.9 -36.1q-3 120.4 -4 121.35q2.05 0.15 144.45 30.1q144.9 30.5 144.4 30.1" style=""></path></g></g><g token="2" transform="matrix(1,0,0,1,484.95,375.7)" style="opacity: 1; visibility: visible;" class="movieclip"><g token="4" transform="matrix(1,0,0,1,0,0)" class="shape"><path fill="#ffffff" d="M 41.85 76.75l-0.5 1q0 0.6 0.95 0.8q0.4 0.05 0.75 -0.1l2.8 -3.6l18.3 3.8l2.75 4.45l18.45 3.65l-22.55 -35.15l-20.95 25.15M 47 73.6l8.05 -9.9l8 13.15l-16.05 -3.25" style=""></path><path fill="#ffffff" d="M 18.2 43.85l-12.55 -2.65l0.05 29.65l17.15 3.45l-0.15 -5.4l5.2 1.4q4.95 1 8.6 0q3.6 -0.9 5.55 -3.65q1.65 -2.3 1.55 -5.2q-0.1 -2.65 -1.65 -5.4q-2.05 -3.6 -5.65 -6.05q-2.65 -1.85 -6.55 -3.2q-3.95 -1.35 -11.55 -2.95M 22.4 46.2l0.8 0.15q5.7 1.15 9.3 2.9q3.6 1.75 5.95 4.45q3.25 3.6 3.35 7.4q0.1 3.9 -3.05 6.3q-1.85 1.35 -4.65 1.75q-2.7 0.45 -5.8 -0.2q-3.45 -0.7 -5.65 -1.55l-0.25 -21.2" style=""></path><path fill="#ffffff" d="M 25 22.7q4.35 -0.75 6.3 -3.65q1.3 -1.95 1.3 -4.3q-0.1 -2.95 -1.9 -5.8q-2.35 -3.55 -6.6 -6q-2.95 -1.75 -6.05 -2.45q-3.3 -0.75 -6.1 -0.35q-4.3 0.5 -6.55 3.05q-1.85 2.15 -1.85 4.95q0 2.15 1.2 4.6q1.95 3.8 6.4 6.7q3.35 2.15 7.15 3.05q3.5 0.7 6.7 0.2M 30.4 18q-1.35 2.35 -4.5 3.4q-3.5 1.05 -7.95 0.1l-1.3 -0.35l-0.2 -20l1.4 0.25q3.1 0.7 5.9 2.35q3.65 2.1 5.8 5.4q1.65 2.6 1.75 5.2q0 1.95 -0.9 3.65" style=""></path><path fill="#ffffff" d="M 62.6 19.85q-0.1 -1.85 -1.2 -3.75q-1.5 -2.5 -4.1 -4.35q-1.85 -1.35 -4.7 -2.3q-2.8 -1.05 -8.2 -2.25l-8.9 -2.05l0.5 20.65l12.05 2.65l-0.2 -3.75l3.75 1.05q3.45 0.75 6.1 0.2q2.5 -0.65 3.9 -2.5q1.1 -1.55 1 -3.6M 54.65 11.2q2.55 1.3 4.2 3.2q2.4 2.6 2.5 5.2q0.1 2.7 -2.1 4.35q-1.35 0.9 -3.25 1.2q-1.95 0.2 -4.15 -0.3q-2.5 -0.55 -4 -1.2l-0.45 -14.75l0.55 0.1q4.1 0.95 6.7 2.2" style=""></path><path fill="#ffffff" d="M 107.9 64.7q3.65 2.2 6 5.1q0.75 0.95 1.3 1.1l0.55 -0.05l0.2 -0.4q-0.05 -0.85 -2.8 -3.35q-5.6 -5.1 -12.85 -6.65q-4.35 -0.95 -7.9 -0.25q-5 0.9 -7.6 4.3q-2.5 3.05 -2.25 7.15q0.25 4.1 3.05 8.35q3.35 5 9.35 8.3q3.75 2 7.45 2.75q2.45 0.45 5.1 0.4q4.4 -0.15 7.5 -2.1q1.4 -0.95 2.55 -2.2q1.1 -1.3 1.05 -1.9q-0.05 -0.6 -0.9 -0.8q-0.5 -0.1 -0.95 0.6q-0.7 1.1 -2.05 2.25q-1.25 1.05 -2.5 1.65q-1.95 0.9 -4.5 1.15q-2.6 0.15 -5.15 -0.35l-2.25 -0.6l-1.9 -27.75l1.85 0.3q3.95 0.8 7.65 3" style=""></path><path fill="#ffffff" d="M 87.7 23.6q1.2 0.25 1.15 -0.35q0 -0.3 -0.2 -0.45l-1.1 -0.35l-10.1 -2.2l-0.2 -4.55l9.6 2.25q0.8 0.2 0.8 -0.25q-0.05 -0.45 -0.5 -0.65q-0.2 -0.1 -1.45 -0.35l-20.1 -4.65l1.05 20.5l23.3 5.1q0.5 0.1 0.5 -0.3q-0.05 -0.65 -1.15 -0.85l-10.95 -2.3l-0.85 -13.05l10.2 2.45" style=""></path><path fill="#ffffff" d="M 114.7 23.1q-0.7 -0.2 -0.65 0.55l0.8 9.35q-16.05 -10.5 -23.85 -15.9l1.4 20.65q0.05 0.8 0.8 1q0.7 0.15 0.7 -0.5l-0.85 -9.6l12.4 8.1q7.65 5 11.65 7.8l-1.6 -20.45q-0.05 -0.5 -0.25 -0.7q-0.15 -0.25 -0.55 -0.3" style=""></path><path fill="#ffffff" d="M 138.6 29.2q1.35 0.3 3 1.15q1.65 0.85 2.7 1.85q0.65 0.55 0.95 0.6l0.35 0l0.15 -0.3q-0.05 -0.4 -0.75 -0.95q-0.7 -0.7 -1.65 -1.2q-2.6 -1.6 -5.55 -2.3q-4.2 -0.95 -6.95 0.1q-2.8 1 -2.55 3.7q0.15 1.75 1.9 4.1q1.3 1.75 5.1 5.65q3.05 3.15 3.85 4.1q0.85 1.05 0.9 1.7q0.1 1.05 -2 0.6q-1.95 -0.4 -4 -1.55q-2.05 -1.25 -3.55 -2.75q-0.45 -0.5 -0.75 -0.55l-0.45 0.05l-0.15 0.3q0.05 0.6 2.3 2.4q3.2 2.3 7.25 3.2q4.3 0.9 7.15 0.1q1.5 -0.35 2.25 -1.35q0.75 -1.05 0.6 -2.35q-0.15 -1.6 -1.55 -3.55q-1.35 -1.9 -7.05 -7.65q-1.8 -1.85 -2.6 -2.85q-0.8 -1 -0.85 -1.6q-0.05 -0.55 0.5 -0.65q0.5 -0.25 1.45 0" style=""></path><path fill="#ffffff" d="M 177.35 101.45l2.8 4.25l16.7 3.35l-22.8 -33.75l-16.75 24.65l-0.1 0.4l-15.5 -24.5l10.25 -2.7q0.25 -0.25 0.25 -0.6q-0.1 -0.7 -1.4 -0.95q-0.6 -0.15 -1.4 0.05l-13.45 4.35l-0.5 -7.3l-15.25 -3.2l2.35 28.7l15.55 3.1l-2 -19.8l4.35 -1.35l14.95 24.75q0.25 0.25 0.85 0.4q0.6 0.15 1 0.05q0.2 0.2 0.65 0.3q0.35 0.05 0.65 -0.15l2.2 -3.45l16.6 3.4M 168.1 87.15l8.1 12.6l-14.5 -2.95l6.4 -9.65" style=""></path><path fill="#ffffff" d="M 195.55 86.3q-3 3.25 -2.35 8.15q0.35 2.65 1.85 5.6q1.9 3.55 5.3 6.65q2.55 2.3 5.7 4q3.2 1.65 6.35 2.3q3.55 0.7 6.7 0.1q3.1 -0.65 5.15 -2.45q3.65 -3.25 2.85 -9.3l-14.75 -3.05q-1.1 -0.25 -1 0.4q0.05 0.45 0.35 0.65l14.1 3.05q0.1 2.15 -0.75 4.15q-1.9 4.65 -7.85 5.4q-2.35 0.3 -5 -0.25l-1.85 -0.5l-3.7 -26.85l1.75 0.3q7.2 1.45 12.65 7.85q0.7 0.8 1.25 0.95l0.55 -0.1l0.15 -0.4q-0.1 -0.75 -2.55 -3.05q-5.5 -5.1 -12.25 -6.55q-3.95 -0.8 -7.3 -0.05q-3.4 0.8 -5.35 3" style=""></path><path fill="#ffffff" d="M 200.5 43.5q-0.1 -0.7 -0.7 -0.8q-0.8 -0.25 -0.65 0.5l0.8 5q0.8 5.85 0.85 8.05q-0.05 2.15 -0.95 3.2q-1.7 1.95 -7.8 0.55l-1.55 -0.4l-2.5 -19.4l-10.5 -2.4l1.9 14.05q0.2 1.1 0.75 2.2q1.1 2.4 3.35 3.8q2.9 1.75 8.2 2.95q5.95 1.3 8.2 0.05q1.7 -1 1.9 -3.25l0.05 -2.35l-1.25 -10.65q-0.05 -0.65 -0.1 -1.1" style=""></path><path fill="#ffffff" d="M 175.9 47.1q-0.35 -2.85 -2.15 -5.55q-2.4 -3.45 -6.3 -5.7q-2.7 -1.55 -5.45 -2.2q-2.95 -0.7 -5.3 -0.25q-3.65 0.6 -5.3 3.1q-1.4 2 -1.1 4.7q0.2 2.15 1.45 4.4q2.05 3.65 6.2 6.4q3.1 2.05 6.45 2.75q3.1 0.7 5.8 0.1q3.65 -0.8 5.05 -3.6q0.95 -1.85 0.65 -4.15M 172.8 41.75q1.65 2.45 2 5q0.2 1.9 -0.4 3.5q-0.95 2.3 -3.6 3.35q-2.85 1.05 -6.8 0.25l-1.15 -0.35l-2.15 -19.2l1.25 0.2q2.7 0.6 5.3 2.15q3.35 1.95 5.55 5.1" style=""></path><path fill="#ffffff" d="M 221.5 48.9q-1.7 -1 -4.1 -1.75q-2.3 -0.7 -6.8 -1.75l-6.8 -1.55l2.75 19.65l10.4 2.3l-0.7 -4.45q3.8 3.1 6.6 4.8q3.4 2.05 5.2 2.45q0.75 0.15 0.7 -0.3q-0.05 -0.35 -0.6 -0.6q-2.25 -0.9 -4.15 -1.85q-2.05 -1.15 -3.8 -2.45q5.1 0.85 7.1 -1.9q1.25 -1.75 0.9 -4.05q-0.4 -2.3 -2.1 -4.55q-1.9 -2.55 -4.6 -4M 214.3 47.2q3.9 0.9 6.25 2.05q2.25 1.1 3.9 3.05q2.25 2.35 2.65 4.8q0.2 1.5 -0.3 2.75q-0.55 1.4 -1.9 2.1q-2.1 1.1 -5.55 0.35l-0.85 -0.15l-2.45 -2.1l-1.75 -12.85" style=""></path><path fill="#ffffff" d="M 270.05 98.2q0.6 -0.35 1.7 -0.1q1.75 0.35 3.8 1.45q2 1 3.4 2.25q0.8 0.8 1.2 0.85l0.45 0l0.15 -0.35q-0.1 -0.5 -1 -1.35q-1 -0.85 -2.2 -1.6q-3.25 -1.95 -6.85 -2.7q-5.2 -1.1 -8.3 0.45q-3.25 1.45 -2.6 5.2q0.45 2.45 2.85 5.55q1.8 2.35 6.9 7.5q4.05 4.05 5.15 5.4q1.1 1.3 1.3 2.3q0.25 1.4 -2.35 0.9q-2.35 -0.45 -4.9 -1.95q-2.65 -1.55 -4.6 -3.5q-0.7 -0.75 -1.1 -0.85l-0.45 0.2l-0.15 0.4q0.15 0.9 3 3.05q4.2 3.1 9.1 4.1q5.3 1 8.6 -0.25q1.7 -0.7 2.5 -2.05q0.75 -1.45 0.4 -3.3q-0.45 -2.2 -2.35 -4.8q-1.9 -2.45 -9.5 -10.05q-2.4 -2.4 -3.4 -3.7q-1.1 -1.4 -1.2 -2.2q-0.15 -0.65 0.45 -0.85" style=""></path><path fill="#ffffff" d="M 254.1 95.25q0.95 0.25 0.85 -0.45q-0.1 -0.6 -0.6 -0.8q-0.25 -0.1 -1.85 -0.45l-23.85 -5.05l4.4 27.75l27.8 5.55q0.65 0.05 0.55 -0.55q-0.15 -0.75 -1.45 -1l-13.05 -2.45l-3.05 -17.65l12.1 2.65q1.5 0.3 1.35 -0.45q-0.1 -0.5 -0.4 -0.65l-1.25 -0.35l-12 -2.45l-0.95 -6.2l11.4 2.55" style=""></path><path fill="#ffffff" d="M 250.95 58.55q-0.1 -0.6 -1.95 -2.25q-3.9 -3.5 -8.6 -4.6q-2.75 -0.7 -4.95 -0.15q-3.05 0.55 -4.4 2.85q-1.35 2 -0.9 4.85q0.45 2.75 2.5 5.6q2.4 3.4 6.45 5.6q2.45 1.4 4.8 1.9q1.55 0.35 3.25 0.35q2.65 -0.15 4.5 -1.4q0.8 -0.6 1.45 -1.45q0.6 -0.9 0.55 -1.3q-0.1 -0.4 -0.65 -0.5q-0.35 -0.1 -0.55 0.35q-0.35 0.8 -1.1 1.55q-0.75 0.7 -1.45 1.1q-1.15 0.55 -2.75 0.7q-1.6 0.15 -3.25 -0.25l-1.45 -0.4l-3.1 -18.7l1.1 0.1q2.55 0.6 5 2.1q2.45 1.5 4.2 3.55q0.5 0.65 0.85 0.7l0.3 -0.05l0.15 -0.25" style=""></path><path fill="#ffffff" d="M 271.5 59.45q-0.2 -0.1 -1.25 -0.35l-17.05 -3.9l3.5 19.45l19.75 4.3q0.4 0 0.35 -0.35q-0.15 -0.55 -1.05 -0.75l-9.3 -2l-2.35 -12.3l8.65 2.1q1.05 0.2 0.95 -0.35q-0.05 -0.3 -0.25 -0.45l-0.95 -0.3l-8.55 -1.85l-0.75 -4.35l8.15 1.95q0.7 0.15 0.6 -0.3q-0.05 -0.4 -0.45 -0.55" style=""></path></g><g token="3" transform="matrix(1,0,0,1,-460.2,-358.25)" class="shape"><path fill="rgba(0,0,0,0)" d="M 460.2 382.65l283.35 63.6" stroke="#ffffff" style="stroke-width: 1;"></path></g><g token="2" transform="matrix(1,0,0,1,-460.2,-358.25)" class="shape"><path fill="rgba(0,0,0,0)" d="M 460.2 436.95l292.65 56.35" stroke="#ffffff" style="stroke-width: 1;"></path></g><g token="1" transform="matrix(1,0,0,1,0,0)" class="shape"><path fill="rgba(32,32,30,0)" d="M 306.5 145.5l-6.5 -101l-304.5 -57l0 107l311 51" style=""></path></g></g><g token="1" transform="matrix(1,0,0,1,488.35,602.6)" style="opacity: 1; visibility: visible;" class="movieclip"><g token="3" transform="matrix(1,0,0,1,0,0)" class="shape"><path fill="#ffffff" d="M 52.05 14.5q-0.05 -1.35 -3.95 -5q-8.05 -7.7 -19 -9.2q-6.4 -0.85 -11.95 0.8q-7.65 2.35 -11.85 8.05q-4 5.5 -4 12.35q0 6.7 3.95 13.3q4.65 7.8 13.75 12.4q5.6 2.7 11.05 3.35q3.8 0.4 7.85 -0.1q6.65 -1 11.5 -4.75q2.1 -1.7 4 -3.95q1.8 -2.25 1.75 -3.3q-0.05 -1 -1.25 -1.2q-0.9 -0.1 -1.55 1.1q-1.25 2 -3.2 4.05q-2.1 2 -4 3.2q-3 1.7 -6.9 2.5q-4 0.75 -7.8 0.35l-3.4 -0.65l-0.8 -45.55l2.65 0.1q6 0.85 11.35 3.9q5.4 3.05 8.75 7.5q1.05 1.5 1.85 1.6l0.8 -0.2l0.4 -0.65" style=""></path><path fill="#ffffff" d="M 110.4 35.55q-0.45 -6.5 -4.05 -12.45q-4.6 -7.35 -12.55 -11.7q-5.45 -3 -11.15 -3.75q-6 -0.75 -11.15 0.8q-7.8 2.2 -11.75 8.6q-3.15 5.2 -2.95 11.4q0.2 5 2.55 10.05q3.85 8.3 12.45 13.6q6.4 4.05 13.4 4.85q6.6 0.8 12.35 -1.5q7.75 -3 11.1 -9.95q2.1 -4.65 1.75 -9.95M 93.25 13.25q6.9 3.8 11.05 10.45q3.35 5.35 3.75 11.25q0.3 4.4 -1.25 8.5q-2.2 5.6 -7.8 8.8q-6.2 3.5 -14.45 2.55l-2.45 -0.5l-2.25 -44.8l2.6 0.15q5.65 0.75 10.8 3.6" style=""></path><path fill="#ffffff" d="M 159.85 20.9q-0.1 -1.2 -0.4 -1.55q-0.35 -0.5 -1.1 -0.6q-1.25 -0.2 -1.1 1.55l2.15 20.6q-30.7 -19.3 -45.6 -29.4l3.4 46.6q0.1 1.75 1.6 1.95q1.4 0.15 1.3 -1.3l-1.95 -21.65l23.9 14.9q14.6 9.3 22.3 14.6l-4.5 -45.7" style=""></path><path fill="#ffffff" d="M 237.65 67.35l4 6.35l22.3 2.6l-32.45 -49.55l-20.7 41.45l-0.5 1.55q0.15 0.95 1.3 1.1q0.55 0.05 0.9 -0.3l2.75 -5.9l22.4 2.7M 236.05 64.9l-19.6 -2.4l7.95 -16.2l11.65 18.6" style=""></path><path fill="#ffffff" d="M 209.85 27.6q-0.15 -0.9 -0.85 -1.25l-43.3 -6.05l-1.65 -0.1q-0.95 0 -0.85 1.05q0.1 1.15 1.8 1.35l11.75 1.35l4.7 42.8l20.8 2.4l-5 -42.45l11.05 1.8q1.65 0.2 1.55 -0.9" style=""></path><path fill="#ffffff" d="M 296.95 46.85q-0.25 -1.25 -3.8 -4.5q-7.4 -6.95 -16.2 -8.1q-5.15 -0.75 -9.25 0.9q-5.7 2.15 -8.15 7.5q-2.35 5.05 -1.35 11.35q0.95 6.05 4.95 12q4.75 7.1 12.5 11.1q4.75 2.4 9.15 2.95q3 0.35 6.1 -0.2q5.05 -0.95 8.3 -4.45q1.45 -1.6 2.6 -3.7q1.1 -2.05 0.95 -3q-0.2 -1 -1.2 -1.1q-0.7 -0.05 -1 1.05q-0.75 1.8 -2 3.7q-1.35 1.85 -2.7 2.95q-2.05 1.6 -5.05 2.4q-3 0.75 -6.05 0.35l-2.7 -0.5l-7.05 -41.5l2.1 0.05q4.8 0.6 9.45 3.35q4.65 2.75 7.9 6.75q1.05 1.3 1.65 1.4l0.65 -0.15l0.2 -0.6" style=""></path><path fill="#ffffff" d="M 328.05 44.4l9.8 1.6q1.45 0.2 1.25 -0.9q-0.15 -0.8 -0.8 -1.1l-2.25 -0.5l-36.1 -4.9l-1.45 -0.1q-0.85 0 -0.65 1.05q0.15 1.05 1.65 1.25l10.35 1.1l7.7 40.65l18.4 2.15l-7.9 -40.3" style=""></path></g><g token="2" transform="matrix(1,0,0,1,-463.6,-583.55)" class="shape"><path fill="rgba(0,0,0,0)" d="M 463.6 641.75l341.7 39.2" stroke="#ffffff" style="stroke-width: 1;"></path></g><g token="1" transform="matrix(1,0,0,1,0,0)" class="shape"><path fill="rgba(32,32,30,0)" d="M 373.7 113.1l-12.85 -107.3l-365.5 -44.95l0 128.5l378.35 23.75" style=""></path></g></g></g></svg>