<?xml version="1.0" standalone="no"?>
<!DOCTYPE svg PUBLIC "-//W3C//DTD SVG 20010904//EN"
 "http://www.w3.org/TR/2001/REC-SVG-20010904/DTD/svg10.dtd">
<svg class="Potrace" xmlns:xlink="http://www.w3.org/1999/xlink" version="1.0" xmlns="http://www.w3.org/2000/svg"
 width="641.000000pt" height="360.000000pt" viewBox="0 0 641.000000 360.000000"
 preserveAspectRatio="xMidYMid meet">
<defs>
  <g id="gp45018" transform="translate(0.000000,360.000000) scale(0.100000,-0.100000)"
>
<path d="M270 3568 c0 -18 -3 -50 -7 -72 l-6 -38 -131 5 -131 5 135 -12 135
-13 -135 -4 -135 -3 130 -6 130 -5 0 -39 0 -39 -130 0 -130 0 125 -6 c70 -3
131 -2 138 3 8 6 12 27 11 55 -1 25 2 81 6 124 4 42 5 77 1 77 -3 0 -6 -15 -6
-32z"/>
<path d="M396 3543 c-7 -69 -14 -231 -21 -483 -3 -102 -12 -392 -20 -645 -20
-628 -22 -573 17 -577 17 -2 33 -9 35 -15 4 -10 -44 -13 -204 -16 l-208 -2
213 -3 c202 -2 212 -1 212 17 0 20 -18 31 -51 31 -23 0 -23 -31 -4 560 8 250
17 552 20 670 4 118 10 282 15 365 9 151 7 205 -4 98z"/>
<path d="M1200 3590 c96 -5 178 -6 182 -2 4 4 -75 8 -175 8 l-182 2 175 -8z"/>
<path d="M1556 3577 c-6 -27 -7 -27 -74 -22 -74 7 -79 4 -104 -42 -29 -51 -22
-87 22 -120 11 -9 20 -8 35 4 20 15 20 15 -2 9 -40 -12 -78 45 -54 83 7 11 25
12 92 5 l84 -9 0 -40 c0 -37 -2 -40 -25 -37 -33 5 -22 -5 13 -12 28 -5 28 -5
25 47 l-3 52 -80 8 c-43 4 -81 10 -83 12 -3 2 -2 12 2 21 6 14 16 16 76 10 63
-6 70 -4 80 15 6 11 10 25 7 32 -2 7 -7 -1 -11 -16z"/>
<path d="M1814 3588 c3 -9 8 -32 11 -51 7 -33 6 -34 -32 -40 -21 -4 -57 -7
-80 -7 -36 0 -43 -3 -43 -20 0 -18 7 -20 63 -20 34 1 107 5 162 10 55 5 103 6
107 2 10 -10 27 -315 17 -326 -11 -13 -156 -25 -329 -28 -97 -2 -138 -5 -110
-9 46 -7 344 5 412 16 20 4 38 12 41 18 9 26 -14 332 -26 340 -7 4 -25 5 -42
3 -16 -3 -87 -8 -157 -12 -94 -5 -128 -4 -128 5 0 6 16 11 38 11 63 0 112 12
121 29 5 10 1 31 -11 56 -10 22 -16 32 -14 23z"/>
<path d="M3262 3575 c0 -16 2 -22 5 -12 2 9 2 23 0 30 -3 6 -5 -1 -5 -18z"/>
<path d="M3865 3420 l0 -185 33 -3 c35 -4 34 -7 37 118 1 25 2 60 3 78 l2 33
86 -2 c50 -1 90 3 96 9 6 6 8 25 4 46 l-7 36 -89 0 -89 0 -4 28 c-4 25 -4 25
-6 -5 l-1 -33 90 0 c87 0 90 -1 96 -24 10 -41 -2 -46 -97 -46 l-89 0 -2 -37
c-1 -21 -2 -58 -3 -83 -2 -108 -3 -112 -27 -108 -23 3 -23 6 -28 183 l-6 180
1 -185z"/>
<path d="M4927 3050 c3 -407 8 -558 16 -566 8 -8 161 -15 462 -23 248 -6 561
-14 696 -18 l247 -6 6 29 c7 34 0 1124 -8 1131 -3 3 -3 -248 -1 -558 3 -313 1
-570 -4 -578 -9 -14 -204 -11 -1181 18 l-215 6 -3 125 c-1 69 -7 321 -11 560
l-9 435 5 -555z"/>
<path d="M4952 3189 c-1 -229 1 -477 4 -551 l7 -135 481 -13 c265 -7 571 -13
681 -14 l200 -1 2 500 c1 329 -1 503 -8 511 -6 8 -7 20 -1 31 5 10 9 34 10 53
l1 35 -9 -29 c-5 -16 -7 -33 -4 -37 2 -4 0 -10 -6 -14 -13 -8 -13 -45 0 -45 6
0 8 -186 7 -497 l-2 -498 -200 1 c-110 1 -413 7 -672 14 l-473 13 -1 26 c-1
14 -5 260 -8 546 l-7 520 -2 -416z"/>
<path d="M5754 3576 c-11 -29 1 -51 29 -54 27 -3 28 -1 25 30 -2 25 -8 34 -26
36 -13 2 -24 -3 -28 -12z m44 -24 c2 -14 -2 -22 -12 -22 -19 0 -29 17 -22 36
8 22 30 12 34 -14z"/>
<path d="M4350 3572 c0 -5 -35 -12 -78 -15 -106 -8 -112 -11 -112 -57 l0 -37
53 -7 c28 -3 67 -6 85 -6 40 0 41 -10 3 -37 -38 -29 -42 -49 -20 -114 13 -39
16 -44 13 -19 -6 41 17 69 80 95 21 9 36 18 33 21 -8 8 -68 -25 -98 -53 l-26
-24 -6 22 c-5 18 3 31 32 58 45 43 43 61 -8 61 -21 0 -59 3 -85 6 -42 6 -46 9
-46 35 0 15 4 30 9 33 5 3 48 9 95 12 83 7 108 15 86 29 -5 3 -10 2 -10 -3z"/>
<path d="M3400 3544 c-9 -23 -15 -25 -40 -20 -17 3 -44 9 -62 12 -24 5 -34 2
-45 -12 -20 -28 -15 -42 6 -15 18 23 20 24 65 11 34 -9 46 -18 46 -31 0 -11 4
-19 9 -19 5 0 7 10 3 22 -4 17 -2 20 11 15 12 -4 17 1 19 20 4 35 26 41 37 10
11 -28 29 -38 51 -27 8 4 30 10 47 13 44 9 55 -11 86 -142 19 -81 30 -108 50
-125 21 -17 27 -33 32 -86 3 -36 12 -96 20 -135 7 -38 16 -101 20 -139 4 -38
11 -79 16 -90 7 -17 8 -15 4 9 -2 17 -9 71 -15 120 -6 50 -15 106 -20 125 -4
19 -12 69 -15 110 -6 65 -11 78 -35 100 -23 20 -32 43 -50 125 -26 117 -42
149 -73 142 -86 -21 -96 -20 -107 7 -13 35 -47 35 -60 0z"/>
<path d="M2684 3546 c-3 -8 -4 -31 -2 -52 3 -38 4 -39 47 -42 51 -4 61 6 61
59 0 41 -11 49 -66 49 -20 0 -37 -6 -40 -14z m91 -41 l0 -40 -40 0 c-36 0 -40
2 -43 28 -6 47 4 59 45 55 37 -3 38 -4 38 -43z"/>
<path d="M2877 3553 c-4 -3 -7 -16 -7 -27 -1 -20 -2 -20 -14 -3 -20 26 -43 21
-48 -11 -5 -37 0 -52 18 -52 14 0 18 12 15 38 -4 26 20 10 26 -18 5 -28 8 -30
54 -30 l49 0 0 49 c0 35 -4 51 -16 55 -21 8 -69 8 -77 -1z m81 -50 l3 -43 -39
0 c-44 0 -54 15 -45 65 5 23 9 26 42 23 35 -3 36 -5 39 -45z m-123 2 c-2 -37
-15 -43 -15 -7 0 18 4 32 8 32 4 0 7 -11 7 -25z"/>
<path d="M3063 3553 c-8 -3 -13 -24 -13 -54 l0 -49 49 0 c35 0 51 4 55 16 10
26 7 69 -6 82 -12 12 -62 15 -85 5z m82 -48 c0 -40 0 -40 -42 -43 l-43 -3 0
39 c0 48 5 54 50 50 34 -3 35 -4 35 -43z"/>
<path d="M3090 3498 c0 -26 2 -29 15 -18 8 7 15 18 15 25 0 7 -7 15 -15 19
-11 4 -15 -2 -15 -26z"/>
<path d="M5891 3541 c-6 -11 -11 -26 -11 -33 0 -7 6 -2 13 12 10 19 20 25 47
25 34 0 35 -1 38 -45 1 -28 -1 -40 -6 -32 -5 8 -27 16 -48 19 -30 4 -45 0 -66
-17 -28 -21 -28 -22 -28 -146 0 -144 10 -164 78 -164 75 0 77 5 77 212 l0 183
-42 3 c-33 2 -44 -1 -52 -17z m64 -77 c18 -13 20 -29 23 -134 3 -109 2 -120
-17 -139 -27 -27 -75 -27 -101 -1 -18 18 -20 33 -20 134 0 112 1 115 26 135
31 25 61 26 89 5z"/>
<path d="M5880 3415 c-11 -29 -13 -111 -4 -167 7 -38 23 -52 49 -41 13 4 15
24 13 117 -3 107 -4 111 -25 114 -17 3 -26 -3 -33 -23z m48 -90 c3 -99 -6
-131 -30 -107 -16 16 -23 164 -9 191 24 44 36 18 39 -84z"/>
<path d="M6083 3553 c-6 -5 -13 -22 -15 -38 -3 -26 -6 -30 -30 -27 l-28 3 0
-165 0 -166 25 0 24 0 3 133 c3 109 6 132 18 132 12 0 16 -24 21 -130 4 -71 7
-131 8 -133 0 -2 11 -2 24 0 22 3 22 5 22 146 0 78 4 142 8 142 4 0 7 24 5 53
-3 52 -3 52 -38 55 -19 1 -40 -1 -47 -5z m77 -46 c0 -24 -3 -46 -6 -50 -3 -3
-5 -66 -5 -141 1 -89 -2 -137 -9 -141 -21 -13 -25 6 -30 133 l-5 127 -25 0
-25 0 -3 -132 c-2 -109 -5 -133 -17 -133 -13 0 -15 25 -15 154 l0 155 27 -2
c23 -2 29 3 31 23 5 44 11 50 47 50 35 0 35 0 35 -43z"/>
<path d="M612 3503 c2 -28 8 -39 22 -41 20 -4 36 13 35 38 0 8 -4 4 -10 -8
-12 -30 -33 -23 -37 11 l-3 27 96 0 c104 0 110 -3 103 -57 -4 -25 -5 -26 -12
-8 -21 54 -25 60 -19 28 3 -21 1 -33 -6 -33 -6 0 -12 15 -12 33 l-2 32 -7 -35
-7 -35 -5 35 -5 35 -1 -34 c-2 -33 -3 -33 -39 -28 -21 4 -33 3 -27 -3 5 -5 41
-10 79 -11 l70 -3 0 45 0 44 -108 3 -108 3 3 -38z"/>
<path d="M2982 3503 c3 -33 7 -38 29 -41 25 -3 26 0 26 37 0 39 -1 41 -29 41
-28 0 -29 -2 -26 -37z m37 10 c-11 -13 -11 -17 -1 -20 19 -7 14 -23 -8 -23
-16 0 -20 7 -20 30 0 24 4 30 21 30 19 0 20 -2 8 -17z"/>
<path d="M864 3516 c-3 -8 -4 -27 -2 -43 l3 -28 95 0 95 0 0 34 c0 40 -26 64
-47 42 -11 -10 -10 -12 2 -11 32 5 39 -1 36 -27 l-3 -28 -84 0 -84 0 0 30 c0
27 4 30 34 33 33 3 34 3 27 -30 -4 -23 -3 -29 4 -18 5 8 10 25 10 38 0 19 -5
22 -40 22 -26 0 -43 -5 -46 -14z"/>
<path d="M964 3506 c-3 -8 -4 -23 -1 -33 4 -14 5 -13 6 5 0 12 6 22 11 22 6 0
10 5 10 10 0 15 -20 12 -26 -4z"/>
<path d="M1086 3483 c4 -21 9 -41 11 -45 2 -5 42 -8 89 -8 l84 0 0 39 c0 48
-7 51 -111 51 l-80 0 7 -37z m65 0 l1 -28 8 30 8 30 1 -27 c0 -16 5 -28 10
-28 4 0 6 12 3 26 -4 24 -3 25 34 22 36 -3 39 -6 42 -35 l3 -33 -80 0 c-73 0
-81 2 -81 19 0 11 -3 26 -6 35 -5 13 1 16 25 16 27 0 31 -4 32 -27z"/>
<path d="M1132 3480 c0 -14 2 -19 5 -12 2 6 2 18 0 25 -3 6 -5 1 -5 -13z"/>
<path d="M3455 3420 c6 -109 12 -129 35 -123 16 4 18 12 14 57 -9 95 -17 141
-21 129 -7 -18 -21 -16 -27 5 -3 9 -3 -21 -1 -68z m30 28 c7 -25 11 -138 4
-138 -11 0 -19 29 -26 92 -4 41 -2 58 6 58 6 0 13 -6 16 -12z"/>
<path d="M4470 3481 c-13 -25 -13 -74 0 -87 5 -5 10 -43 12 -84 l3 -75 63 -3
62 -3 0 121 0 121 -35 15 c-49 20 -92 18 -105 -5z m100 -6 l30 -16 0 -110 0
-110 -52 3 -53 3 -3 75 c-2 41 -7 79 -12 84 -14 14 -12 60 2 74 16 16 53 15
88 -3z"/>
<path d="M5303 3465 c-22 -15 -23 -23 -23 -141 0 -69 5 -134 10 -145 9 -16 22
-19 75 -19 l65 0 0 155 0 155 -24 0 c-13 0 -36 2 -52 6 -18 3 -37 -1 -51 -11z
m98 -5 c18 0 19 -10 19 -145 l0 -145 -55 0 c-71 0 -75 9 -75 151 0 129 11 155
64 145 15 -3 37 -6 47 -6z"/>
<path d="M5327 3423 c-11 -10 -8 -182 3 -204 6 -10 17 -19 25 -19 8 0 19 9 25
19 13 25 13 151 0 185 -9 25 -38 35 -53 19z m43 -22 c5 -11 10 -53 10 -93 0
-78 -12 -107 -37 -87 -14 12 -19 179 -6 192 11 12 22 8 33 -12z"/>
<path d="M5466 3464 c-16 -15 -20 -43 -16 -94 1 -14 22 -46 46 -72 48 -51 51
-60 30 -77 -15 -12 -27 -2 -39 32 -4 11 -14 17 -24 15 -14 -3 -17 -12 -16 -42
4 -52 18 -66 67 -66 52 0 66 14 65 60 -2 33 -2 34 -6 5 -7 -42 -20 -55 -58
-55 -36 0 -50 12 -60 51 -10 39 11 45 30 9 18 -34 40 -39 55 -11 14 26 4 49
-41 96 -36 39 -43 55 -40 102 4 75 111 65 111 -10 0 -34 -17 -35 -30 -2 -6 15
-17 25 -30 25 -16 0 -20 -6 -20 -32 1 -25 12 -45 50 -85 27 -29 56 -53 64 -53
9 0 22 -13 31 -30 16 -32 33 -38 53 -18 23 23 12 54 -39 103 -47 46 -50 53
-46 88 7 50 23 67 63 67 37 0 69 -34 62 -67 -5 -25 -32 -22 -36 4 -4 28 -27
36 -47 17 -22 -23 -10 -52 41 -100 38 -35 44 -46 44 -81 0 -51 -25 -76 -72
-71 -26 2 -36 10 -50 38 -13 25 -18 29 -18 15 0 -41 28 -65 74 -65 57 0 76 22
76 84 0 44 -4 51 -50 96 -54 52 -58 61 -35 80 13 11 17 8 26 -19 9 -24 16 -31
33 -29 17 2 21 9 20 40 -2 52 -18 68 -69 68 -51 0 -63 -12 -71 -73 -6 -44 -5
-47 47 -102 43 -46 51 -59 42 -73 -14 -23 -26 -20 -41 12 -7 14 -20 26 -28 26
-23 0 -113 101 -114 128 0 30 18 28 30 -3 6 -15 17 -25 30 -25 17 0 20 7 20
38 0 25 -7 45 -18 55 -23 21 -76 22 -96 1z"/>
<path d="M5754 3465 c-4 -10 1 -276 6 -302 0 -2 11 -3 25 -3 l25 0 0 160 0
160 -25 0 c-14 0 -28 -7 -31 -15z m46 -146 c0 -133 -2 -150 -16 -147 -14 2
-17 24 -21 136 -5 143 -2 162 22 162 13 0 15 -22 15 -151z"/>
<path d="M2286 3462 c-3 -5 -1 -87 3 -183 8 -166 7 -175 -11 -191 -21 -18 -18
-55 3 -42 8 5 8 9 -1 14 -9 6 -8 10 6 18 16 9 18 23 14 143 -6 236 -7 233 11
237 15 3 18 -18 24 -183 4 -102 5 -199 1 -216 -3 -18 -2 -28 4 -24 12 7 13 93
3 293 -6 139 -7 142 -29 142 -13 0 -25 -4 -28 -8z"/>
<path d="M5107 3463 c-9 -8 -9 -222 0 -330 6 -79 7 -83 29 -83 22 0 24 4 24
54 l0 54 37 0 c56 0 63 17 63 152 0 148 -7 160 -89 160 -32 0 -61 -3 -64 -7z
m125 -20 c15 -14 18 -32 18 -128 0 -130 -8 -149 -64 -147 l-36 1 0 -54 c0 -40
-4 -55 -14 -55 -9 0 -15 22 -20 77 -8 100 -8 308 1 316 13 14 96 7 115 -10z"/>
<path d="M5157 3424 c-9 -9 -9 -186 -1 -208 8 -22 41 -20 54 3 11 22 12 142 1
181 -7 24 -39 39 -54 24z m43 -30 c17 -42 13 -159 -6 -175 -13 -10 -17 -10
-25 2 -10 16 -12 182 -2 192 12 13 24 7 33 -19z"/>
<path d="M1435 3375 c22 -10 125 -21 125 -13 0 4 -12 8 -27 8 -16 0 -46 2 -68
5 -22 3 -35 3 -30 0z"/>
<path d="M550 3352 c0 -12 5 -22 10 -22 6 0 10 -12 10 -26 0 -21 3 -24 13 -15
8 6 45 9 98 7 105 -5 337 -15 489 -20 95 -4 103 -3 45 4 -38 4 -153 11 -255
14 -316 10 -375 16 -389 38 -7 11 -10 22 -7 25 5 5 423 -10 654 -23 83 -5 100
-9 92 -20 -13 -14 -16 -66 -6 -82 4 -6 9 -189 13 -406 5 -304 3 -399 -6 -410
-9 -11 -10 -20 -2 -35 14 -26 15 -557 1 -566 -6 -4 -11 43 -13 122 l-3 128 -2
-127 -2 -128 -50 0 c-53 0 -57 5 -50 64 1 10 -1 29 -5 43 -5 20 -11 24 -38 21
-29 -3 -32 -6 -33 -38 0 -19 -1 -47 -2 -62 l-2 -28 -295 0 -294 0 4 293 4 292
-10 -294 c-5 -162 -7 -296 -5 -298 2 -2 149 -4 327 -3 523 2 638 4 562 7 l-73
4 0 275 c0 176 -4 282 -11 295 -7 15 -7 24 1 34 13 16 12 484 -2 739 -5 107
-4 153 4 163 6 7 9 15 7 18 -4 4 -144 11 -621 31 -157 7 -158 7 -158 -14z
m625 -1482 c0 -52 -1 -55 -27 -58 -27 -3 -27 -3 -24 55 2 32 4 59 5 61 1 2 11
2 24 0 20 -3 22 -9 22 -58z"/>
<path d="M1750 3354 c-148 -17 -201 -22 -221 -23 -14 -1 -16 -21 -13 -175 3
-163 2 -175 -15 -181 -20 -6 -33 -37 -22 -52 3 -5 14 -12 24 -16 25 -9 23 -69
-3 -92 -32 -29 -22 -56 28 -73 52 -17 55 -45 4 -50 -42 -4 -42 -29 0 -40 38
-10 44 -27 58 -161 5 -52 14 -97 20 -101 7 -4 4 -13 -9 -24 -11 -10 -24 -15
-29 -12 -6 3 -17 3 -26 0 -14 -5 -16 -37 -16 -259 l0 -254 -22 -3 c-13 -2 -23
-10 -23 -18 0 -11 14 -16 58 -18 31 -2 57 1 57 5 0 4 -25 6 -56 5 -39 -3 -54
-1 -50 7 4 6 16 11 27 11 16 0 19 7 19 48 0 26 2 142 3 257 l2 210 27 0 c15 1
35 9 46 18 12 11 38 18 78 19 l59 2 -70 5 c-78 7 -82 11 -84 101 -1 25 -7 72
-14 104 -12 56 -15 61 -47 70 l-35 10 32 4 c31 3 52 30 39 51 -4 5 13 8 36 7
48 -3 51 -15 15 -54 l-22 -24 -6 29 c-5 23 -7 20 -6 -15 l0 -43 33 32 c18 17
35 42 38 55 4 15 15 24 34 27 15 2 -11 3 -58 2 -81 -2 -150 14 -150 34 0 4 9
16 20 26 14 13 20 31 20 62 0 37 -4 45 -26 53 -27 11 -25 25 8 48 16 11 17 29
15 182 -3 149 -1 170 12 171 9 1 25 3 36 4 21 2 323 33 385 38 19 2 6 4 -30 4
-36 0 -117 -5 -180 -13z"/>
<path d="M1760 3324 c-63 -8 -137 -16 -163 -18 -53 -5 -75 -15 -36 -17 13 -1
29 0 34 1 27 7 108 19 180 25 44 5 112 11 150 15 l70 7 -60 0 c-33 1 -112 -6
-175 -13z"/>
<path d="M109 3319 c121 -10 133 -15 129 -59 l-3 -25 -120 1 c-66 1 -112 -1
-103 -5 10 -3 66 -6 125 -6 l108 0 3 33 c2 18 8 30 13 27 5 -4 9 -2 9 2 0 22
-48 33 -157 37 l-118 5 114 -10z"/>
<path d="M547 3178 c-14 -247 -20 -727 -10 -740 6 -7 13 -24 16 -38 4 -24 4
-23 6 4 l1 28 138 -6 c75 -3 241 -8 367 -10 l230 -4 -215 9 c-118 5 -288 12
-377 15 l-163 6 0 137 c0 75 5 264 10 420 10 286 8 387 -3 179z"/>
<path d="M617 3250 c16 -29 25 -35 51 -35 27 0 37 6 53 35 l21 35 -29 -32
c-16 -18 -37 -33 -46 -33 -8 0 -28 15 -42 33 l-27 32 19 -35z"/>
<path d="M1556 3271 c-4 -5 0 -11 6 -14 10 -3 10 -7 -1 -20 -7 -10 -9 -17 -3
-17 11 0 22 23 22 46 0 16 -16 19 -24 5z"/>
<path d="M290 3250 c-8 -5 -10 -10 -5 -10 6 0 17 5 25 10 8 5 11 10 5 10 -5 0
-17 -5 -25 -10z"/>
<path d="M599 3188 c-5 -181 -4 -228 8 -228 23 0 28 4 25 20 -3 8 4 6 15 -8
20 -25 90 -34 257 -34 77 1 92 3 110 21 15 16 17 21 6 21 -13 0 -13 2 0 10 8
5 11 10 5 10 -5 0 -17 -5 -25 -10 -9 -6 -11 -10 -3 -10 7 0 10 -7 6 -16 -3 -9
-15 -14 -32 -12 -21 2 -26 8 -26 29 1 25 0 26 -22 12 -13 -9 -23 -22 -23 -29
0 -9 -12 -14 -32 -15 -53 -2 -102 2 -113 9 -5 4 -18 5 -29 3 -12 -2 -16 1 -11
9 5 7 19 10 38 6 21 -4 36 -1 48 10 19 17 39 11 39 -12 0 -8 4 -14 10 -14 10
0 1 32 -11 40 -5 3 -2 19 7 34 8 16 12 31 10 34 -3 2 -11 -7 -17 -22 -24 -51
-105 -78 -143 -46 -24 19 -19 31 9 24 23 -6 25 -3 25 24 0 31 44 92 56 79 4
-4 7 -26 7 -49 0 -24 3 -35 5 -25 3 14 7 16 18 6 8 -7 14 -7 14 -1 0 5 -7 15
-15 22 -8 7 -15 21 -15 31 0 53 -67 16 -76 -42 -6 -35 -8 -37 -36 -34 -28 4
-57 28 -58 49 0 5 -3 7 -6 4 -8 -9 11 -41 46 -80 17 -18 30 -36 30 -40 0 -15
-29 -8 -42 10 -15 21 -39 37 -37 25 3 -17 -1 -33 -9 -33 -5 0 -7 61 -5 135 1
74 0 135 -2 135 -3 0 -6 -24 -6 -52z m327 -245 c-11 -11 -19 6 -11 24 8 17 8
17 12 0 3 -10 2 -21 -1 -24z"/>
<path d="M1260 2943 c1 -164 1 -342 1 -395 l-1 -98 -100 0 c-66 0 -100 4 -100
11 0 6 6 9 14 6 8 -3 17 1 20 10 4 11 2 14 -9 9 -8 -3 -15 -1 -15 4 0 5 17 12
38 16 73 13 72 11 72 152 1 126 1 127 30 162 38 43 40 86 6 92 -18 4 -22 1
-19 -11 2 -9 0 -27 -6 -41 -8 -22 -10 -18 -10 26 l-1 52 -42 5 c-24 3 -63 2
-88 -3 l-45 -9 53 4 c29 2 67 2 83 -2 27 -5 29 -8 29 -55 0 -57 19 -62 34 -10
10 35 26 43 26 14 0 -10 -13 -33 -30 -52 -29 -35 -29 -36 -30 -161 0 -141 -3
-147 -64 -151 -38 -2 -56 -23 -56 -64 0 -20 208 -21 216 0 9 23 10 786 1 786
-5 0 -8 -134 -7 -297z"/>
<path d="M251 3197 c0 -10 -8 -25 -16 -34 -12 -12 -13 -18 -4 -29 15 -18 -9
-102 -31 -108 -9 -2 -6 -4 8 -5 17 -1 22 4 22 23 0 14 4 27 9 31 14 8 23 -31
17 -68 -6 -30 -5 -30 5 -7 5 14 8 34 5 45 -2 11 -10 40 -16 64 -8 31 -8 47 1
57 6 7 9 21 6 31 -4 17 -5 17 -6 0z"/>
<path d="M3875 3190 c-11 -17 -17 -403 -7 -418 10 -15 193 -29 236 -18 23 6
26 11 25 49 l-2 42 -6 -40 -6 -40 -105 0 c-58 1 -113 4 -122 8 -16 6 -18 22
-17 149 1 201 9 263 33 263 17 0 19 -13 23 -195 2 -107 6 -197 9 -199 3 -3 3
87 1 199 l-4 205 -26 3 c-14 2 -28 -2 -32 -8z"/>
<path d="M4291 3186 c-6 -7 -14 -37 -18 -65 -3 -28 -10 -51 -14 -51 -5 0 -13
-10 -20 -21 -9 -18 -7 -27 10 -50 34 -45 28 -59 -24 -59 l-45 0 0 -184 0 -183
-46 -7 c-26 -3 -97 -6 -159 -6 -123 0 -134 5 -115 56 l10 25 122 -4 c107 -4
114 -4 53 4 -38 6 -97 8 -129 7 -56 -3 -60 -5 -67 -30 -4 -15 -5 -37 -2 -49 6
-21 10 -21 162 -17 86 2 162 7 169 11 9 6 12 55 12 188 l0 179 43 2 c23 1 57
2 76 3 18 1 59 15 90 31 70 36 65 33 60 39 -3 2 -34 -11 -70 -29 -48 -25 -70
-31 -87 -25 -12 5 -22 14 -22 21 0 6 -10 23 -22 36 l-23 24 21 17 c14 11 23
33 26 64 8 69 20 78 92 75 l61 -3 6 -85 6 -85 -1 90 -1 90 -71 3 c-52 2 -74
-1 -83 -12z"/>
<path d="M4492 3188 c-8 -8 -11 -40 -10 -87 l2 -76 3 70 c5 80 13 95 58 95 63
0 65 -3 65 -107 0 -87 -2 -94 -17 -87 -10 4 -43 9 -73 10 l-55 2 52 -7 c93
-11 89 3 96 -332 4 -162 7 -383 7 -493 l0 -199 -60 7 c-60 7 -100 -3 -100 -26
0 -6 8 -4 19 6 15 14 30 16 86 10 l68 -7 -8 499 c-4 274 -6 545 -5 602 1 68
-3 108 -11 118 -14 17 -100 19 -117 2z"/>
<path d="M7 3168 c2 -5 11 -8 19 -8 8 0 14 -8 14 -17 0 -14 4 -13 24 6 36 34
78 26 92 -19 15 -44 47 -49 52 -7 3 23 0 27 -21 27 -14 0 -28 7 -31 15 -5 13
-20 15 -80 13 -41 -2 -72 -6 -69 -10z m191 -45 c-4 -22 -22 -20 -26 1 -2 10 3
16 13 16 10 0 15 -7 13 -17z"/>
<path d="M638 3162 c-11 -2 -18 -12 -17 -25 0 -15 2 -17 6 -7 9 24 24 29 55
18 20 -7 42 -7 71 0 37 10 44 9 63 -9 15 -14 29 -18 46 -14 30 8 58 -19 40
-37 -9 -9 -16 -7 -29 5 -11 9 -24 13 -31 8 -8 -5 2 -12 30 -21 24 -8 55 -22
70 -32 14 -10 31 -18 38 -18 7 0 10 -7 6 -15 -7 -19 8 -20 23 -2 8 11 0 18
-38 35 -53 23 -82 50 -40 37 47 -14 89 -47 111 -86 12 -21 26 -39 30 -39 5 0
4 8 -2 18 -6 9 -19 30 -28 46 -10 17 -38 40 -63 53 -24 12 -54 32 -65 44 -13
12 -31 20 -45 18 -13 -2 -35 4 -49 13 -21 14 -32 15 -67 6 -27 -6 -52 -7 -70
-1 -15 5 -36 7 -45 5z"/>
<path d="M5654 3115 c-8 -21 3 -48 19 -43 6 3 13 18 14 34 l2 29 -8 -30 c-6
-24 -9 -27 -15 -13 -4 9 -5 22 -1 28 3 5 4 10 0 10 -3 0 -8 -7 -11 -15z"/>
<path d="M6135 2920 c0 -196 1 -215 18 -218 16 -3 17 12 17 212 0 119 -3 216
-7 216 -5 0 -7 -96 -5 -212 2 -145 0 -210 -7 -203 -6 6 -12 94 -14 215 l-3
205 1 -215z"/>
<path d="M45 3103 c88 -6 92 -8 110 -66 9 -28 18 -57 21 -64 4 -9 -20 -13 -88
-16 l-93 -3 98 -2 c53 -1 97 1 97 5 0 4 -10 37 -22 74 -24 76 -30 80 -118 77
l-55 -2 50 -3z"/>
<path d="M5750 2930 c0 -179 7 -214 44 -224 64 -17 96 11 96 84 0 38 -4 50
-15 50 -10 0 -15 -10 -15 -31 0 -56 -32 -88 -58 -56 -5 6 -12 62 -14 122 l-3
110 50 5 c36 4 50 9 50 20 0 11 -14 16 -50 20 -48 5 -50 6 -53 38 -2 20 -9 32
-18 32 -12 0 -14 -29 -14 -170z m24 118 c6 -26 10 -28 57 -28 31 0 48 -4 44
-10 -3 -5 -26 -10 -51 -10 -28 0 -44 -5 -45 -12 -5 -54 5 -236 13 -245 12 -15
54 -17 63 -3 3 5 10 29 14 52 l9 43 1 -44 c2 -74 -54 -107 -99 -59 -19 20 -20
34 -19 192 0 94 2 167 4 161 2 -5 6 -22 9 -37z"/>
<path d="M5322 3029 c-37 -14 -44 -43 -40 -171 3 -105 5 -121 22 -134 23 -16
54 -18 90 -4 26 9 26 10 25 127 -2 157 -6 176 -45 183 -17 4 -40 3 -52 -1z
m82 -47 c3 -21 6 -83 6 -139 0 -91 -2 -103 -19 -113 -30 -16 -59 -12 -81 10
-18 18 -20 33 -20 134 0 109 1 115 24 134 16 12 35 17 54 14 25 -3 31 -9 36
-40z"/>
<path d="M5322 2998 c-14 -14 -17 -225 -3 -246 5 -8 21 -12 37 -10 l29 3 3
120 c2 104 0 121 -15 132 -21 16 -36 16 -51 1z m47 -12 c8 -9 11 -51 9 -122
-3 -97 -5 -109 -22 -112 -10 -2 -22 2 -27 10 -14 21 -11 212 3 226 16 16 23
15 37 -2z"/>
<path d="M5119 3013 c-10 -12 -14 -49 -14 -139 0 -106 3 -125 19 -143 19 -21
60 -27 83 -13 12 7 33 54 33 73 0 21 -38 8 -44 -16 -4 -14 -12 -25 -19 -25
-30 0 -37 25 -37 126 0 81 3 104 16 115 14 11 18 10 30 -6 8 -10 14 -25 14
-32 0 -7 7 -13 15 -13 18 0 20 41 5 71 -14 25 -81 27 -101 2z m89 -5 c7 -7 12
-23 11 -37 l-1 -26 -11 27 c-13 32 -42 45 -62 28 -18 -15 -21 -209 -5 -241 16
-29 58 -25 66 6 3 14 10 25 15 25 12 0 11 -4 -3 -35 -16 -36 -54 -43 -81 -16
-19 19 -22 35 -25 127 -3 84 -1 110 12 129 18 27 63 34 84 13z"/>
<path d="M5483 3023 c-10 -3 -13 -56 -13 -215 0 -194 1 -209 18 -206 13 2 18
15 20 54 3 49 4 51 34 51 50 0 58 21 58 158 0 143 -9 165 -68 164 -20 0 -43
-3 -49 -6z m89 -20 c15 -14 18 -32 18 -135 0 -105 -2 -120 -20 -138 -14 -14
-28 -18 -45 -14 -24 6 -25 4 -25 -44 0 -28 -4 -54 -10 -57 -11 -7 -15 387 -3
398 12 13 67 7 85 -10z"/>
<path d="M5518 3003 c-23 -6 -32 -68 -23 -169 5 -67 11 -86 25 -94 46 -24 60
6 60 127 0 113 -15 146 -62 136z m52 -137 c0 -65 -4 -98 -14 -112 -14 -18 -16
-18 -32 -2 -24 23 -27 223 -4 238 11 7 20 4 33 -11 13 -17 17 -40 17 -113z"/>
<path d="M5656 3015 c-3 -8 -3 -80 1 -160 5 -112 9 -145 20 -145 10 0 13 33
13 160 0 130 -3 160 -14 160 -8 0 -16 -7 -20 -15z m23 -147 l-2 -153 -8 140
c-8 131 -7 165 6 165 3 0 4 -69 4 -152z"/>
<path d="M5962 3022 c-23 -16 -34 -93 -27 -192 5 -63 12 -101 23 -112 17 -20
57 -23 97 -8 l27 10 -4 144 c-2 80 -6 148 -10 151 -11 12 -92 17 -106 7z m88
-12 c12 -7 16 -38 19 -141 3 -119 1 -134 -15 -146 -25 -18 -68 -16 -86 5 -36
39 -32 271 5 285 21 9 61 7 77 -3z"/>
<path d="M5981 2991 c-18 -18 -21 -33 -21 -122 0 -116 8 -139 50 -139 38 0 42
15 38 149 -3 94 -5 105 -25 118 -19 13 -24 12 -42 -6z m59 -122 c0 -109 -5
-129 -29 -129 -34 0 -41 22 -41 124 0 79 3 103 17 118 15 17 17 17 35 2 15
-14 18 -33 18 -115z"/>
<path d="M1568 3013 c-10 -2 -18 -9 -18 -14 0 -6 7 -6 18 -1 9 5 23 7 30 5 10
-4 7 -9 -9 -17 -12 -6 -25 -18 -27 -26 -4 -12 -1 -11 15 3 11 9 25 17 31 17
18 0 14 27 -4 34 -9 3 -16 5 -17 5 -1 -1 -10 -3 -19 -6z"/>
<path d="M218 2999 c-3 -8 3 -23 13 -33 22 -23 24 -12 5 23 -9 16 -14 19 -18
10z"/>
<path d="M5 2922 c2 -3 32 -6 67 -8 59 -3 63 -4 63 -27 -1 -26 16 -29 53 -8
l23 12 -6 -193 c-3 -106 -8 -209 -10 -228 -2 -19 0 -53 4 -75 4 -26 8 13 9
110 1 83 4 198 8 257 5 74 3 117 -5 136 l-12 29 -99 -1 c-55 0 -98 -2 -95 -4z
m191 -13 c7 -12 -12 -29 -33 -29 -7 0 -13 9 -13 20 0 22 34 28 46 9z"/>
<path d="M1566 2921 c-4 -6 -2 -11 3 -11 6 0 11 -20 11 -44 0 -50 13 -60 77
-54 43 3 57 -18 18 -28 -14 -3 -55 -4 -90 -2 -39 2 -59 1 -50 -4 8 -5 47 -8
86 -6 55 2 74 7 83 20 15 24 4 30 -56 32 l-53 1 -3 45 c-3 47 -15 69 -26 51z"/>
<path d="M4307 2819 c-21 -12 -22 -48 -2 -95 10 -24 20 -34 29 -31 20 8 28 -4
12 -17 -8 -6 -17 -29 -21 -51 -5 -37 -3 -43 25 -63 16 -12 30 -18 30 -13 0 6
-11 18 -25 27 -22 14 -25 22 -19 48 3 17 13 39 21 48 17 19 8 42 -13 34 -15
-6 -44 41 -44 72 0 31 21 44 42 25 10 -9 18 -11 18 -5 0 18 -33 31 -53 21z"/>
<path d="M15 2800 c19 -8 83 -14 74 -6 -2 2 -24 6 -49 9 -30 4 -38 3 -25 -3z"/>
<path d="M1117 2763 c-11 -10 -8 -33 3 -33 6 0 9 6 8 13 -2 6 5 11 14 11 10
-1 15 2 12 7 -6 11 -28 12 -37 2z"/>
<path d="M952 2753 c-44 -6 -36 -27 12 -31 26 -2 36 -7 33 -16 -3 -8 0 -19 6
-25 13 -13 106 -14 127 -1 9 6 -5 7 -42 3 -31 -3 -64 -3 -73 1 -27 10 0 34 43
39 34 4 33 4 -8 5 -68 1 -72 1 -65 12 3 5 13 6 22 3 11 -4 14 -3 9 5 -4 7 -13
11 -19 10 -7 0 -27 -3 -45 -5z m11 -20 c-7 -2 -19 -2 -25 0 -7 3 -2 5 12 5 14
0 19 -2 13 -5z"/>
<path d="M2012 2633 c3 -99 6 -118 19 -121 23 -4 25 9 21 131 -3 98 -5 107
-23 107 -18 0 -19 -7 -17 -117z m30 5 c4 -108 3 -122 -13 -113 -12 8 -12 215
0 215 5 0 11 -46 13 -102z"/>
<path d="M1853 2733 c-7 -3 -13 -17 -13 -31 1 -31 24 -67 39 -58 5 4 12 2 16
-4 3 -5 15 -10 25 -10 21 0 40 -27 33 -47 -2 -6 1 -14 6 -18 14 -8 14 30 1 56
-6 10 -21 19 -34 19 -26 0 -36 17 -36 60 0 28 -14 41 -37 33z m25 -53 l-3 -34
-14 27 c-7 14 -11 33 -7 43 11 28 28 1 24 -36z"/>
<path d="M3425 2718 c-110 -5 -206 -11 -212 -13 -9 -3 -13 -25 -13 -61 0 -73
50 -466 61 -478 4 -5 77 -2 171 7 90 9 199 19 243 22 126 10 135 12 135 43 0
25 -41 336 -58 442 l-7 45 -60 1 c-33 1 -150 -3 -260 -8z m310 -7 c3 -6 9 -40
14 -78 5 -37 19 -144 32 -236 18 -135 20 -170 10 -176 -7 -5 -54 -11 -104 -15
-51 -3 -163 -13 -251 -22 -87 -9 -162 -12 -166 -7 -11 10 -60 392 -60 462 0
32 5 53 13 56 10 4 310 19 454 23 28 1 54 -2 58 -7z"/>
<path d="M23 2683 c15 -3 27 -10 27 -18 0 -29 -20 -65 -37 -66 -10 -1 0 -5 22
-8 22 -3 64 -4 93 -3 48 4 52 6 52 28 0 14 -11 37 -25 51 -27 30 -29 27 -45
-41 -7 -29 -8 -28 -9 14 l-1 45 -53 1 c-28 0 -40 -1 -24 -3z m63 -79 c-3 -8
-12 -11 -22 -7 -12 4 -14 14 -10 36 9 45 30 54 34 16 2 -17 1 -37 -2 -45z m64
50 c0 -8 5 -14 10 -14 6 0 10 -9 10 -20 0 -15 -7 -20 -25 -20 -26 0 -31 13
-19 57 7 24 24 22 24 -3z"/>
<path d="M823 2673 c-7 -2 -13 -13 -13 -23 0 -20 -25 -44 -38 -36 -4 2 -33 -2
-63 -9 -51 -14 -52 -14 -9 -8 25 3 58 6 74 7 28 1 38 11 51 50 5 18 8 17 35
-12 16 -18 33 -32 39 -32 16 0 25 -71 12 -91 -6 -11 -11 -28 -11 -39 0 -18 -8
-20 -127 -22 l-128 -3 128 -5 128 -5 5 25 c3 14 10 35 16 46 13 28 1 104 -17
104 -8 0 -23 14 -35 30 -22 31 -25 32 -47 23z"/>
<path d="M1060 2580 c0 -11 6 -20 13 -21 6 0 25 -2 42 -4 21 -3 26 -2 15 5 -8
5 -25 10 -37 10 -13 0 -23 5 -23 11 0 7 15 9 43 5 31 -4 35 -3 17 3 -45 16
-70 13 -70 -9z"/>
<path d="M7 2574 c7 -3 14 -15 14 -27 1 -17 2 -18 6 -4 3 10 14 17 29 17 32 0
31 -26 -2 -34 -31 -8 -29 -40 4 -44 30 -5 29 -32 -2 -32 -15 0 -26 7 -29 18
-4 13 -5 12 -6 -4 -1 -18 6 -23 33 -26 28 -3 36 0 42 17 6 19 7 19 11 -2 5
-26 11 -28 33 -12 13 9 12 10 -2 5 -19 -6 -25 9 -8 19 6 3 10 15 10 26 0 10
-4 19 -10 19 -5 0 -10 9 -10 20 0 13 9 22 28 26 15 3 32 7 37 8 6 2 -21 3 -60
3 -38 -1 -83 2 -100 6 -17 3 -24 4 -18 1z m94 -47 c-8 -8 -11 -7 -11 4 0 20
13 34 18 19 3 -7 -1 -17 -7 -23z m4 -19 c38 -17 31 -44 -8 -28 -12 5 -30 11
-40 14 -20 6 -14 26 8 26 8 0 26 -5 40 -12z"/>
<path d="M968 2563 c18 -2 45 -2 60 0 15 2 0 4 -33 4 -33 0 -45 -2 -27 -4z"/>
<path d="M2164 2563 c-28 -5 -34 -37 -37 -175 -1 -66 1 -100 7 -91 5 9 6 55 4
102 -6 93 -3 111 15 107 7 -1 9 -1 5 1 -15 9 -9 45 6 40 8 -3 17 1 20 9 3 8 4
13 3 13 -1 -1 -12 -4 -23 -6z"/>
<path d="M2203 2527 c0 -20 5 -34 9 -31 11 7 10 35 -1 53 -6 10 -9 3 -8 -22z"/>
<path d="M975 2531 c-26 -6 -27 -7 -9 -13 12 -3 29 -1 38 4 13 7 16 4 17 -19
1 -17 3 -21 6 -10 2 9 9 17 15 17 6 0 6 6 -2 15 -13 16 -18 16 -65 6z"/>
<path d="M4044 2522 c-6 -4 -13 -15 -17 -25 -6 -16 -16 -17 -95 -11 -66 5 -91
3 -97 -6 -11 -19 14 -30 65 -28 l45 1 -45 4 c-25 3 -49 9 -55 15 -7 7 19 8 86
4 95 -7 95 -7 107 19 10 22 17 25 66 25 70 0 106 -13 106 -40 0 -18 6 -20 54
-20 59 0 116 -9 116 -19 0 -11 -415 -2 -418 9 -5 15 -32 -16 -32 -38 0 -26 10
-33 31 -21 14 7 19 6 19 -2 0 -9 29 -10 118 -4 64 4 134 8 155 10 21 1 41 6
45 10 4 4 -27 4 -68 -1 -41 -5 -113 -9 -160 -9 -69 0 -85 3 -85 15 0 13 25 15
165 15 242 0 327 -7 303 -24 -20 -13 -44 -95 -49 -169 -4 -42 -12 -87 -20 -99
-11 -17 -12 -38 -4 -95 l9 -73 -3 70 c-2 42 2 78 9 90 7 11 15 57 18 102 6 80
27 151 49 164 6 4 8 15 4 24 -5 13 -13 16 -37 11 -25 -5 -32 -2 -36 13 -5 21
-46 31 -124 31 -41 0 -48 3 -53 24 -4 16 -15 25 -37 30 -43 8 -122 7 -135 -2z
m-74 -108 c0 -8 -7 -14 -15 -14 -15 0 -21 21 -9 33 10 9 24 -2 24 -19z"/>
<path d="M1620 2490 c0 -13 83 -91 89 -84 3 3 -16 25 -42 50 -26 24 -47 40
-47 34z"/>
<path d="M2033 2493 c-7 -3 -13 -16 -13 -30 0 -24 -3 -25 -39 -20 -64 8 -66 3
-63 -135 1 -67 7 -125 12 -128 5 -3 31 -3 57 0 42 4 48 8 51 30 2 14 10 43 17
66 9 28 12 66 8 120 -6 86 -12 103 -30 97z m19 -119 c2 -58 -1 -96 -9 -105 -6
-8 -13 -27 -15 -44 -3 -28 -6 -30 -49 -33 l-46 -3 -5 97 c-3 54 -2 109 2 123
6 24 10 26 53 23 46 -4 47 -3 47 24 0 18 3 25 10 18 5 -5 11 -51 12 -100z"/>
<path d="M4113 2481 c-1 -14 5 -16 28 -13 19 3 29 10 29 21 0 14 -2 14 -10 1
-7 -12 -13 -13 -28 -4 -15 10 -18 8 -19 -5z"/>
<path d="M2425 2468 c-2 -7 1 -158 8 -335 l12 -323 -380 -3 c-209 -1 -29 -3
400 -3 429 -1 772 0 763 3 -13 3 -18 15 -18 39 0 19 3 34 8 34 4 0 88 -7 186
-15 99 -8 182 -13 184 -11 5 5 -79 16 -168 21 -147 8 -220 17 -220 27 0 6 6 8
14 5 8 -3 16 -1 18 4 2 6 28 15 58 19 l55 9 -52 -3 c-29 -2 -53 1 -53 5 0 4
24 10 53 12 39 3 36 4 -15 3 -37 -1 -71 -5 -75 -10 -4 -4 -8 -35 -8 -69 l0
-62 -370 0 -370 0 -12 315 c-7 173 -10 321 -8 328 7 20 24 14 31 -12 3 -13 15
-27 27 -30 l20 -5 -21 -18 -22 -18 11 -240 c5 -132 14 -256 19 -275 6 -28 7
-22 4 25 -2 33 -9 156 -14 274 -10 217 -9 222 23 234 12 4 -3 37 -17 37 -6 0
-16 10 -21 22 -11 26 -43 36 -50 16z m800 -538 c-3 -5 -11 -10 -16 -10 -6 0
-7 5 -4 10 3 6 11 10 16 10 6 0 7 -4 4 -10z"/>
<path d="M3900 2372 c-42 -4 -50 -15 -43 -61 9 -69 25 -143 29 -138 3 2 0 24
-5 48 -5 24 -11 64 -13 89 l-3 45 55 5 c30 3 46 7 35 10 -11 3 -36 4 -55 2z"/>
<path d="M70 2353 c112 -5 118 -7 123 -51 l4 -37 1 41 c2 52 -4 55 -116 52
l-87 -2 75 -3z"/>
<path d="M1602 2292 c-3 -8 -2 -61 1 -118 l6 -104 -27 -15 c-15 -8 -21 -14
-14 -15 8 0 12 -18 12 -54 0 -34 -5 -56 -12 -59 -8 -3 -6 -6 5 -6 14 -1 17 8
17 63 0 43 4 66 13 69 9 3 12 36 12 123 l0 119 84 -2 c55 -1 89 -7 98 -16 10
-9 15 -59 19 -175 l6 -162 -36 -15 c-35 -15 -36 -17 -34 -63 l1 -47 4 43 c4
39 8 45 39 58 l36 15 -6 172 c-7 193 -8 196 -80 199 -118 5 -138 3 -144 -10z"/>
<path d="M0 2257 c3 -3 43 -8 89 -11 46 -3 86 -8 89 -11 3 -3 1 -31 -4 -62
l-9 -58 -85 2 -85 1 75 -8 c105 -11 107 -10 115 61 4 35 3 65 -2 70 -5 5 -50
12 -99 15 -49 4 -87 4 -84 1z"/>
<path d="M4044 2225 c-5 -11 -15 -14 -38 -10 -26 5 -36 1 -61 -24 -30 -31 -72
-40 -91 -21 -17 17 -224 -10 -243 -32 -8 -10 -28 -18 -44 -18 -21 0 -41 -13
-77 -50 -27 -27 -43 -50 -37 -50 6 0 29 20 52 44 33 36 48 45 89 50 49 8 75
-2 62 -23 -4 -6 -18 -11 -32 -11 -17 0 -24 -5 -24 -19 0 -23 16 -36 25 -21 3
5 1 10 -4 10 -6 0 -11 5 -11 10 0 6 9 10 19 10 11 0 27 7 36 16 19 20 4 44
-28 44 -13 0 -17 4 -11 9 16 15 195 30 224 18 38 -15 71 -8 104 24 25 24 36
28 62 23 24 -4 33 -2 38 12 6 16 8 15 29 -4 12 -11 33 -22 47 -24 35 -4 36
-31 2 -69 -28 -31 -31 -32 -60 -20 -34 14 -52 8 -52 -17 1 -16 1 -16 10 0 9
14 15 14 46 5 35 -11 38 -10 66 23 37 44 35 84 -3 88 -15 2 -35 12 -45 23 -21
23 -42 25 -50 4z"/>
<path d="M1855 2113 c6 -38 8 -69 3 -71 -14 -6 -9 -40 7 -46 20 -7 32 21 18
43 -6 9 -14 45 -18 79 -4 34 -10 62 -14 62 -4 0 -2 -30 4 -67z m25 -93 c0 -5
-4 -10 -10 -10 -5 0 -10 5 -10 10 0 6 5 10 10 10 6 0 10 -4 10 -10z"/>
<path d="M4340 2140 c0 -11 4 -20 10 -20 5 0 6 8 3 17 -5 12 -2 15 10 10 9 -3
17 -2 17 3 0 6 -9 10 -20 10 -13 0 -20 -7 -20 -20z"/>
<path d="M3710 2120 c-25 -22 -25 -26 3 -34 21 -7 21 -7 2 -16 -11 -5 -32 -9
-47 -9 -17 -1 -28 -7 -28 -15 0 -17 106 -159 148 -199 l30 -29 138 17 c77 9
143 21 149 26 13 13 -8 45 -92 147 l-68 83 -102 -4 c-81 -4 -105 -2 -114 10
-21 25 3 30 108 22 101 -7 103 -8 151 -48 26 -23 55 -41 64 -41 15 0 48 -55
48 -78 0 -6 4 -13 9 -17 13 -8 -4 51 -24 81 -8 13 -24 24 -34 24 -10 0 -36 18
-57 39 -34 36 -44 40 -98 45 -157 14 -166 14 -186 -4z m285 -112 c76 -89 107
-135 96 -142 -4 -3 -66 -13 -136 -21 l-128 -16 -24 23 c-30 28 -157 188 -152
192 2 1 31 8 64 15 33 7 65 15 70 16 6 2 42 3 80 4 l70 0 60 -71z"/>
<path d="M4230 2116 c0 -15 -7 -27 -19 -31 -23 -7 -34 -31 -26 -56 8 -23 38
-24 70 -3 28 18 75 12 75 -10 0 -14 39 -67 40 -53 0 4 -7 18 -16 32 -12 18
-13 28 -5 44 16 30 12 40 -4 11 -8 -14 -14 -19 -15 -12 0 17 -61 15 -88 -4
-25 -17 -52 -13 -52 10 0 7 11 21 25 30 14 9 25 25 25 36 0 25 8 25 34 1 15
-13 27 -16 41 -11 18 8 17 9 -6 9 -15 1 -29 8 -33 16 -3 8 -15 15 -26 15 -15
0 -20 -7 -20 -24z"/>
<path d="M3233 2109 c-30 -9 -31 -11 -35 -72 l-3 -62 77 3 c89 4 117 -7 119
-46 l1 -27 7 30 c10 42 -16 54 -111 55 l-78 0 0 50 c0 60 5 63 99 64 59 1 66
-1 67 -19 2 -40 4 -45 19 -45 15 0 21 -17 28 -75 3 -20 5 -13 6 18 1 36 -4 51
-19 64 -11 10 -20 27 -20 40 0 12 -7 24 -17 26 -31 8 -107 6 -140 -4z"/>
<path d="M187 2083 c-4 -3 -7 -36 -7 -72 0 -36 -4 -71 -8 -77 -11 -17 -47 -23
-68 -11 -17 9 -17 9 -5 -6 8 -10 11 -27 7 -41 -5 -20 -14 -26 -44 -29 -20 -2
-3 -4 38 -3 l75 1 -3 30 c-1 17 2 39 8 50 7 15 20 165 14 165 0 0 -4 -3 -7 -7z
m-24 -195 c8 -29 1 -38 -29 -38 -27 0 -27 0 -14 34 12 32 36 34 43 4z"/>
<path d="M3270 2079 c0 -5 10 -9 23 -9 12 0 33 -3 47 -7 14 -3 22 -2 18 2 -11
11 -88 24 -88 14z"/>
<path d="M3508 2029 c21 -23 15 -40 -13 -33 -26 6 -55 -9 -55 -30 0 -6 6 -4
13 5 10 13 26 15 88 11 l76 -4 -5 -64 -5 -64 45 0 c25 0 61 -3 79 -6 20 -4 30
-3 26 2 -10 10 -13 10 -84 12 l-53 2 0 44 c0 26 6 51 15 59 12 13 12 16 -8 21
-12 3 -39 6 -59 6 -30 0 -37 4 -40 22 -2 12 -10 23 -18 26 -12 4 -13 2 -2 -9z"/>
<path d="M690 1931 c0 -24 19 -31 85 -31 80 0 115 9 115 31 0 17 -9 19 -100
19 -91 0 -100 -2 -100 -19z m160 -6 c0 -13 -12 -15 -72 -13 -46 2 -73 7 -76
16 -3 9 16 12 72 12 62 0 76 -3 76 -15z m30 5 c0 -5 -4 -10 -10 -10 -5 0 -10
5 -10 10 0 6 5 10 10 10 6 0 10 -4 10 -10z"/>
<path d="M28 1933 c20 -3 32 -10 32 -19 0 -12 -7 -14 -32 -9 -27 5 -30 4 -15
-5 26 -16 66 -5 63 17 -2 13 -13 18 -42 19 -33 1 -34 1 -6 -3z"/>
<path d="M4124 1891 c3 -4 16 -6 30 -4 13 3 27 0 30 -6 5 -7 -4 -11 -23 -11
-16 0 -32 -4 -35 -9 -3 -4 12 -5 34 -1 29 5 43 3 51 -7 7 -7 14 -11 17 -9 2 3
-6 17 -19 31 -16 16 -35 25 -57 25 -18 0 -31 -4 -28 -9z"/>
<path d="M760 1880 c0 -5 -26 -11 -57 -12 -32 -2 34 -5 146 -6 111 -1 207 -5
212 -8 5 -3 17 0 26 5 17 10 16 11 -2 9 -76 -5 -285 3 -280 12 4 6 -5 10 -19
10 -14 0 -26 -4 -26 -10z"/>
<path d="M1966 1854 c-3 -9 -6 -21 -5 -27 0 -7 4 -2 9 11 5 12 14 22 19 22 5
0 12 -10 14 -22 4 -20 4 -19 6 5 1 20 -4 27 -18 27 -10 0 -22 -7 -25 -16z"/>
<path d="M1558 1833 c6 -2 18 -2 25 0 6 3 1 5 -13 5 -14 0 -19 -2 -12 -5z"/>
<path d="M3780 1813 c33 -17 111 -18 1335 -13 l1300 6 -1302 1 c-888 1 -1309
5 -1322 12 -11 6 -26 11 -33 11 -7 0 3 -8 22 -17z"/>
<path d="M3192 1698 c-2 -102 -13 -97 130 -73 94 15 129 12 307 -26 51 -11 96
-17 99 -14 3 3 2 5 -2 5 -3 0 -48 9 -99 20 -175 37 -211 40 -305 25 -131 -22
-121 -28 -125 68 l-3 82 -2 -87z"/>
<path d="M2150 1764 c0 -2 13 -10 30 -16 16 -7 40 -29 52 -48 13 -19 29 -35
35 -35 6 0 15 -3 19 -7 4 -5 25 -8 46 -8 21 0 56 -9 78 -20 22 -11 51 -20 65
-20 65 0 129 -64 207 -206 38 -70 66 -110 74 -107 9 3 8 9 -5 22 -10 10 -39
58 -66 107 -68 128 -136 194 -198 194 -14 0 -44 9 -68 20 -24 11 -61 20 -81
20 -20 0 -40 5 -43 11 -4 6 -13 8 -21 5 -9 -3 -21 8 -33 32 -14 28 -29 41 -55
49 -20 6 -36 9 -36 7z"/>
<path d="M4195 1750 c-60 -9 -153 -22 -205 -29 -137 -16 -426 -64 -413 -68 6
-2 77 7 159 21 82 13 192 30 244 36 132 16 364 51 369 56 8 7 -42 2 -154 -16z"/>
<path d="M5041 1766 c2 -2 29 -12 59 -23 30 -12 85 -32 123 -47 70 -27 95 -27
30 1 -94 39 -228 83 -212 69z"/>
<path d="M762 1720 c-12 -16 -22 -39 -22 -52 0 -33 -11 -68 -20 -68 -10 0 -21
46 -22 88 -1 24 -4 27 -13 18 -7 -6 -10 -15 -5 -21 15 -21 18 -69 4 -82 -14
-15 -46 -19 -473 -64 -118 -13 -208 -25 -202 -27 11 -4 135 9 540 53 68 8 128
18 133 23 6 6 25 6 46 1 19 -4 72 -3 116 2 45 5 146 14 226 18 80 5 200 17
268 26 160 23 167 20 168 -73 2 -272 27 -502 47 -448 3 8 0 19 -7 25 -9 8 -15
59 -20 168 -3 87 -9 190 -12 228 -6 68 -6 71 19 82 18 9 28 9 37 0 10 -9 11
-9 8 3 -3 9 -15 14 -29 12 -13 -1 -38 5 -55 14 -30 16 -39 16 -155 -1 -68 -9
-189 -21 -269 -26 -80 -4 -183 -13 -230 -18 -62 -8 -86 -8 -91 1 -10 16 1 80
17 99 8 8 14 21 14 28 0 9 9 12 25 9 13 -3 22 -1 19 3 -11 18 -41 8 -62 -21z"/>
<path d="M2003 1688 c-18 -6 -42 -20 -53 -32 -64 -68 -110 -125 -119 -149 -6
-15 -13 -79 -15 -143 -3 -64 -10 -132 -17 -151 -10 -31 -9 -108 2 -141 4 -15
-16 -19 -139 -24 -40 -2 -69 -4 -65 -5 5 -2 8 -22 7 -46 -1 -30 0 -33 3 -10 5
43 23 51 118 54 44 2 83 7 87 13 3 5 2 20 -3 33 -12 32 -11 95 1 129 6 14 13
80 16 146 5 130 13 155 64 203 17 17 38 42 46 56 7 15 34 37 59 49 45 22 46
22 120 5 41 -9 87 -14 102 -12 25 3 24 4 -7 6 -19 1 -62 8 -95 16 -68 17 -68
17 -112 3z"/>
<path d="M4655 1677 c42 -35 25 -44 -32 -16 -35 17 -63 23 -107 22 -52 -2 -64
-6 -110 -43 -28 -23 -75 -59 -103 -81 -29 -22 -60 -54 -69 -72 -9 -17 -25 -43
-35 -56 -11 -13 -19 -33 -19 -45 0 -12 -7 -31 -15 -43 -8 -11 -17 -40 -21 -64
-4 -24 -13 -57 -21 -73 -9 -16 -16 -48 -17 -70 -1 -37 -4 -41 -26 -41 -22 0
-25 5 -28 42 -4 53 10 81 45 86 26 4 26 4 -5 6 -39 1 -52 -23 -52 -96 0 -36 4
-46 20 -50 21 -6 27 -37 10 -48 -16 -10 -56 -95 -64 -134 l-6 -34 36 6 c34 6
36 5 29 -16 -4 -12 -10 -56 -13 -97 l-7 -75 -99 -40 c-127 -52 -140 -70 -186
-246 l-12 -46 -60 -7 c-43 -4 -67 -2 -88 9 -40 21 -77 19 -107 -5 -22 -17 -41
-20 -139 -20 l-114 0 0 34 c0 43 8 46 125 46 73 0 97 4 110 16 24 24 14 38
-35 46 -23 4 -50 14 -59 21 -26 23 -46 26 -72 11 -13 -7 -40 -13 -59 -14 -50
0 -60 -14 -60 -89 0 -35 3 -62 6 -59 3 4 5 32 5 64 0 63 8 74 52 74 15 0 41 7
56 15 26 13 31 13 54 -5 13 -11 43 -22 66 -26 23 -4 44 -10 46 -14 12 -19 -29
-29 -135 -31 l-115 -3 0 -41 0 -40 -155 1 c-85 0 -141 -3 -125 -7 17 -4 143
-7 281 -8 237 -1 253 0 277 19 30 24 54 25 94 5 21 -11 47 -13 96 -8 73 6 68
2 87 93 6 30 24 79 41 108 32 56 43 63 184 118 l50 20 6 74 c4 41 14 111 22
155 20 96 21 139 2 71 -7 -28 -11 -56 -8 -63 4 -11 -33 -33 -57 -33 -13 0 6
61 34 110 14 25 30 55 35 67 5 11 15 24 21 28 6 4 10 23 9 43 -1 20 5 54 14
76 10 21 17 48 17 60 0 12 9 38 20 59 11 20 20 48 20 61 0 13 7 29 16 37 8 7
24 30 35 50 10 21 36 50 56 66 21 15 66 51 101 79 69 57 109 68 177 52 45 -10
76 -33 94 -66 6 -12 18 -22 26 -22 11 0 10 5 -6 21 -16 16 -18 23 -8 35 13 16
0 38 -35 55 -12 6 -8 0 9 -14z"/>
<path d="M4720 1595 c0 -9 7 -18 15 -22 23 -8 24 0 3 20 -15 14 -18 15 -18 2z"/>
<path d="M6244 1575 c-11 -29 6 -46 76 -77 l70 -31 0 -164 0 -164 -58 7 c-64
7 -76 -2 -65 -45 4 -16 18 -23 64 -32 l59 -12 0 -530 c0 -292 2 -528 5 -525 3
3 7 244 8 536 l2 530 -53 7 c-52 6 -86 27 -79 49 3 7 27 10 68 8 l64 -3 0 173
0 173 -53 21 c-69 29 -104 52 -99 67 5 14 82 13 100 -1 15 -11 63 -24 51 -13
-18 16 -95 41 -125 41 -17 0 -32 -6 -35 -15z"/>
<path d="M4740 1543 c0 -12 5 -25 10 -28 13 -8 13 15 0 35 -8 12 -10 11 -10
-7z"/>
<path d="M4808 1482 c-9 -32 30 -94 90 -148 l57 -51 0 -72 c0 -56 3 -71 15
-72 119 -5 229 -21 241 -35 14 -18 -21 -27 -71 -19 -34 6 -41 4 -55 -19 -11
-16 -15 -35 -11 -51 7 -27 7 -27 -65 -29 l-46 -1 9 39 c5 21 7 41 4 43 -8 8
-22 -81 -17 -112 l4 -30 10 28 c8 27 12 28 48 22 49 -9 70 6 63 44 -8 38 17
56 85 58 31 2 74 4 97 5 51 3 94 -23 94 -57 0 -18 -5 -25 -20 -25 -11 0 -20
-4 -20 -10 0 -5 9 -6 23 -1 15 6 23 18 25 39 4 39 -26 60 -97 69 -36 4 -51 10
-51 21 0 21 111 11 164 -14 49 -23 59 -53 51 -147 -5 -66 -4 -70 26 -108 40
-50 72 -59 105 -28 26 24 31 44 13 54 -6 4 -9 1 -8 -6 5 -23 -20 -59 -41 -59
-10 0 -35 20 -55 45 -34 40 -36 48 -30 86 4 22 4 66 0 96 -6 53 -8 55 -53 76
-39 17 -70 21 -177 23 -71 2 -152 5 -180 8 -27 3 -55 5 -62 5 -7 1 -9 14 -6
39 9 64 -12 117 -63 159 -54 45 -89 98 -86 130 2 28 -4 30 -10 5z"/>
<path d="M2091 1483 c-51 -10 -69 -32 -86 -104 -8 -39 -13 -74 -10 -78 7 -13
45 -21 45 -10 0 5 -9 9 -21 9 -22 0 -22 8 2 101 16 62 84 88 194 74 66 -8 119
-47 129 -95 6 -34 56 -124 63 -116 3 3 -9 29 -26 59 -17 30 -31 63 -31 74 0
63 -137 109 -259 86z"/>
<path d="M4470 1473 c-14 -2 -29 -9 -35 -15 -7 -8 -4 -9 10 -3 11 4 58 10 105
12 77 4 88 3 120 -19 58 -38 76 -92 94 -272 10 -96 13 -163 7 -170 -5 -6 -14
-31 -21 -56 -6 -25 -24 -65 -40 -90 -19 -32 -29 -66 -35 -115 -8 -75 -20 -105
-59 -152 -32 -38 -26 -73 13 -73 35 0 111 41 111 60 -1 12 -2 12 -10 -1 -5 -9
-21 -20 -35 -23 -14 -4 -25 -11 -25 -16 0 -16 -57 -12 -63 4 -3 8 3 22 13 31
30 27 57 95 65 165 4 38 16 79 30 100 41 66 68 160 66 230 -3 119 -29 300 -48
332 -34 58 -66 73 -156 75 -45 0 -93 -1 -107 -4z"/>
<path d="M4866 1419 c3 -5 10 -9 16 -9 20 0 47 -31 41 -48 -5 -14 -3 -15 7 -5
18 17 -10 59 -44 65 -14 3 -23 1 -20 -3z"/>
<path d="M3416 1378 c-9 -12 -16 -18 -16 -13 0 6 -4 4 -9 -4 -8 -12 -24 -12
-93 -4 -54 7 -87 7 -95 0 -9 -6 -13 -37 -13 -90 l0 -80 -69 7 c-93 9 -101 2
-102 -112 -2 -129 1 -166 17 -178 8 -6 44 -14 81 -18 52 -5 70 -4 81 8 22 21
8 46 -26 46 -44 0 -93 20 -100 41 -7 18 -8 17 -21 -4 -7 -12 -10 -19 -6 -15 5
4 15 2 23 -4 7 -7 39 -17 70 -23 37 -8 57 -17 57 -26 0 -19 -134 -14 -154 6
-17 17 -17 241 1 262 8 10 28 12 84 7 l74 -7 0 79 c0 80 9 112 28 100 6 -3 47
-8 91 -11 45 -2 86 -7 91 -10 17 -10 382 -56 425 -53 33 3 41 7 43 27 2 13 0
27 -5 32 -7 7 -393 59 -435 59 -4 0 -14 -10 -22 -22z m278 -18 c88 -11 164
-24 169 -29 20 -20 -1 -41 -40 -41 -66 1 -394 47 -404 57 -7 7 -5 16 6 27 13
13 28 15 63 11 26 -3 119 -15 206 -25z"/>
<path d="M2968 1353 c-10 -2 -18 -9 -18 -14 0 -5 -31 -9 -69 -9 -85 0 -101 -6
-101 -35 0 -13 -5 -25 -11 -27 -8 -3 -8 -34 1 -115 12 -120 7 -161 -31 -222
-13 -21 -18 -42 -15 -57 5 -17 2 -24 -9 -24 -10 0 -15 -10 -15 -32 -1 -18 -7
-51 -15 -73 -14 -40 -7 -65 20 -65 7 0 28 -10 46 -23 40 -27 49 -26 88 14 39
39 51 37 51 -8 0 -47 41 -315 48 -309 2 3 -5 65 -17 138 -11 73 -22 151 -23
173 -3 36 -5 40 -28 37 -14 -1 -35 -14 -47 -28 l-23 -25 -59 27 -58 27 13 45
c8 25 14 56 14 69 0 14 6 23 16 23 12 0 15 6 10 24 -4 16 1 37 13 58 37 63 43
112 31 226 -8 74 -8 108 -1 115 6 6 11 19 11 28 0 23 20 29 91 29 36 0 69 6
83 15 20 14 30 13 107 -10 46 -13 91 -24 99 -24 8 0 -28 13 -80 29 -52 16 -97
29 -100 29 -3 -1 -13 -3 -22 -6z"/>
<path d="M2148 1323 c-19 -5 -26 -43 -8 -43 5 0 7 6 4 14 -3 9 5 18 23 24 28
10 14 14 -19 5z"/>
<path d="M2686 1275 c2 -22 9 -69 14 -105 6 -36 10 -103 10 -149 0 -47 2 -82
5 -80 16 17 0 238 -24 334 l-10 40 5 -40z"/>
<path d="M4886 1290 c3 -14 12 -63 20 -110 l13 -85 -4 75 c-2 41 -11 91 -20
110 -9 20 -13 24 -9 10z"/>
<path d="M4590 1254 c0 -14 4 -23 10 -19 5 3 7 12 3 20 -4 12 3 15 30 15 20 0
47 -4 61 -10 14 -5 26 -6 26 -1 0 12 -37 21 -87 21 -39 0 -43 -2 -43 -26z"/>
<path d="M2154 1247 c-10 -26 0 -62 16 -59 8 2 37 5 64 6 38 1 50 5 52 18 3
25 -18 38 -75 45 -40 5 -52 3 -57 -10z m89 -6 c28 -11 44 -41 22 -41 -7 0 -21
7 -29 16 -15 14 -16 14 -16 0 0 -9 -4 -16 -10 -16 -5 0 -10 5 -10 10 0 6 -5
10 -11 10 -5 0 -7 -4 -4 -10 3 -5 -1 -10 -9 -10 -16 0 -22 31 -9 43 9 10 48 9
76 -2z"/>
<path d="M4415 1250 c-3 -5 -3 -10 2 -11 4 0 -3 -5 -17 -12 l-25 -11 30 -3
c54 -6 76 -13 70 -23 -3 -6 -21 -10 -40 -10 -20 0 -35 -6 -39 -15 -3 -8 -12
-15 -20 -15 -27 0 -44 -61 -49 -173 -3 -83 -1 -112 10 -125 14 -16 14 -15 7 3
-4 11 -6 69 -5 129 3 112 16 156 47 156 8 0 17 7 20 15 4 9 19 15 36 15 58 0
78 61 27 79 -39 14 -46 14 -54 1z m73 -29 c3 -8 -4 -10 -25 -5 -34 8 -37 10
-29 23 8 12 48 -1 54 -18z"/>
<path d="M3816 1060 c-4 -107 -10 -253 -11 -325 -2 -71 -4 -134 -4 -138 -1 -5
-15 3 -32 18 -35 29 -75 31 -93 3 -8 -13 -6 -21 7 -36 9 -10 17 -27 17 -37 0
-16 -1 -16 -22 -1 -13 9 -33 21 -46 26 -21 9 -23 14 -17 54 9 55 -1 86 -25 86
-24 0 -29 -9 -38 -61 -8 -49 -28 -65 -66 -55 l-28 7 5 107 4 107 79 5 79 5 6
60 c9 82 10 210 2 202 -3 -4 -6 -35 -5 -69 1 -35 -2 -90 -6 -123 l-7 -60 -79
-5 -80 -5 -4 -110 c-4 -121 3 -135 60 -135 30 0 48 23 48 62 0 13 7 33 15 44
13 16 16 17 25 4 6 -8 9 -34 6 -57 -7 -52 0 -73 25 -73 10 0 19 -4 19 -9 0
-16 83 -52 95 -40 7 7 4 10 -10 7 -15 -2 -21 3 -23 22 -2 14 -11 33 -19 42
-13 14 -13 20 -3 33 18 21 38 19 72 -10 40 -34 63 -19 54 35 -3 19 -1 152 5
295 6 143 9 274 7 290 -2 17 -7 -58 -12 -165z"/>
<path d="M2018 1226 c39 -18 35 -29 -19 -56 -37 -19 -39 -23 -39 -68 0 -26 11
-80 25 -120 14 -41 25 -81 25 -90 0 -22 52 -112 76 -133 11 -9 33 -21 49 -26
27 -9 31 -16 42 -69 6 -32 15 -69 18 -81 4 -13 3 -23 -3 -23 -15 0 -19 -124
-6 -207 9 -59 9 -76 -1 -79 -16 -6 -412 2 -440 9 -11 2 -26 0 -32 -5 -20 -16
-63 -1 -56 20 3 11 0 9 -11 -5 -17 -22 -23 -23 -181 -23 -169 0 -178 -2 -168
-41 4 -15 27 -16 191 -15 172 1 187 0 186 -16 -2 -18 6 -20 66 -22 16 -1 26
-8 28 -20 3 -16 -1 -18 -26 -14 -19 3 -30 0 -29 -6 1 -6 -7 -10 -18 -8 -11 2
-35 6 -52 9 -18 3 -33 10 -33 17 0 8 -2 8 -8 -1 -7 -12 -38 -17 -79 -15 -16 2
-23 8 -23 22 0 19 6 20 77 18 71 -3 78 -1 81 17 2 18 2 19 -8 2 -10 -15 -21
-17 -86 -11 l-74 6 0 -31 c0 -34 3 -35 111 -31 32 1 65 -4 77 -11 16 -10 26
-10 44 -2 13 6 36 14 52 18 23 5 27 8 15 16 -12 8 -12 10 1 19 16 10 14 11
-59 14 -32 1 -49 12 -37 23 9 9 126 12 121 3 -2 -4 21 -3 51 1 31 4 121 6 201
4 152 -3 166 1 148 43 -5 9 -10 27 -12 39 -4 22 -3 23 158 25 l163 3 78 120
c99 152 111 177 98 207 -10 22 -10 22 -5 -3 3 -19 -8 -45 -44 -100 -27 -41
-69 -107 -95 -146 l-46 -73 -154 0 -154 0 -8 32 c-10 43 -6 180 5 191 11 11
28 -18 40 -70 6 -27 9 -31 10 -14 1 13 -12 51 -28 85 -15 34 -31 83 -35 110
-10 65 -15 76 -35 76 -9 0 -27 7 -40 16 -26 19 -91 116 -91 138 0 8 -11 47
-25 88 -14 40 -25 92 -25 115 0 39 3 44 39 62 60 31 63 64 6 76 l-30 6 33 -15z
m-271 -983 c-3 -10 -5 -4 -5 12 0 17 2 24 5 18 2 -7 2 -21 0 -30z m-69 18 c20
-6 32 -6 32 0 0 5 5 9 10 9 15 0 12 -40 -2 -41 -60 -6 -138 -2 -138 6 0 7 -3
7 -8 0 -10 -14 -255 -15 -264 -1 -4 5 -4 14 -2 18 8 13 178 8 186 -5 6 -9 8
-9 8 1 0 8 16 12 45 12 29 0 45 -4 45 -12 0 -9 3 -9 9 1 5 8 16 11 25 8 9 -4
16 -2 16 3 0 12 -2 12 38 1z m285 -1 c129 0 167 -2 167 -12 0 -10 2 -10 9 0
12 19 65 11 69 -10 2 -10 -1 -18 -7 -18 -6 0 -11 8 -11 18 0 14 -2 15 -10 2
-12 -20 -103 -20 -112 0 -6 13 -7 13 -7 0 -1 -13 -24 -15 -149 -15 l-147 0 -3
24 c-3 20 -1 23 15 17 10 -4 93 -7 186 -6z"/>
<path d="M3319 1213 c-6 -16 -8 -49 -6 -74 5 -37 2 -50 -12 -63 -10 -9 -21
-13 -24 -9 -4 3 -21 6 -39 5 -17 0 -41 6 -52 14 -11 8 -39 13 -61 13 l-40 -2
45 -6 c58 -8 75 -18 60 -36 -6 -7 -19 -11 -29 -8 -10 3 -22 0 -25 -6 -4 -6
-19 -11 -34 -11 -15 0 -34 -5 -42 -11 -11 -7 -4 -8 25 -3 22 4 46 11 52 16 7
6 19 8 27 5 7 -3 22 1 33 8 22 15 81 17 89 3 3 -5 14 2 24 15 15 19 18 35 14
78 -9 89 -4 92 154 81 105 -7 135 -12 152 -27 11 -10 20 -13 20 -8 0 25 -37
36 -143 44 -179 13 -176 13 -188 -18z"/>
<path d="M4603 1214 c-18 -8 -16 -39 2 -54 10 -8 15 -9 15 -1 0 7 17 9 50 6
54 -5 66 3 47 30 -13 17 -89 30 -114 19z m81 -14 c41 -15 30 -26 -24 -25 -55
2 -72 11 -50 25 19 12 42 12 74 0z"/>
<path d="M2738 1100 c2 -58 6 -107 8 -109 7 -8 3 135 -5 174 -5 25 -7 2 -3
-65z"/>
<path d="M1604 1128 c5 -17 -9 -24 -37 -19 -9 1 1 -390 10 -399 3 -3 2 81 -2
187 l-7 192 26 7 c29 7 31 12 15 34 -9 13 -10 12 -5 -2z"/>
<path d="M2509 1138 c-1 -2 -2 -27 -4 -56 -1 -30 -7 -57 -12 -60 -6 -4 -14
-23 -18 -42 -4 -19 -14 -45 -23 -58 -8 -12 -12 -25 -9 -28 7 -8 33 43 41 83 9
39 36 53 36 19 0 -13 -7 -43 -16 -67 -8 -24 -22 -87 -29 -139 -8 -53 -22 -120
-31 -149 -8 -29 -13 -55 -11 -57 7 -7 45 145 52 211 4 33 16 87 26 120 11 33
22 97 26 143 5 72 4 82 -11 82 -9 0 -17 -1 -17 -2z m21 -58 c0 -27 -4 -50 -9
-50 -5 0 -7 21 -6 48 4 54 3 52 10 52 3 0 5 -22 5 -50z"/>
<path d="M4939 1093 c-6 -16 -12 -71 -14 -124 -4 -121 -21 -208 -48 -236 -11
-13 -18 -25 -15 -29 12 -11 46 54 58 110 7 33 13 102 15 155 2 53 8 108 14
124 6 15 8 27 6 27 -3 0 -10 -12 -16 -27z"/>
<path d="M4540 1030 c0 -5 10 -10 22 -12 12 -2 23 -10 25 -18 4 -12 3 -12 -5
-1 -6 8 -12 9 -16 3 -7 -11 18 -24 28 -15 14 14 4 32 -24 42 -16 5 -30 6 -30
1z"/>
<path d="M1776 980 c-9 -29 -13 -63 -10 -75 3 -13 1 -26 -5 -29 -13 -9 -15
-56 -2 -56 5 0 7 9 4 20 -3 11 0 27 7 35 6 8 9 22 6 33 -4 10 0 40 9 67 8 27
12 51 10 53 -2 2 -11 -20 -19 -48z"/>
<path d="M4485 1019 c-11 -17 1 -21 15 -4 8 9 8 15 2 15 -6 0 -14 -5 -17 -11z"/>
<path d="M5357 918 c5 -57 3 -70 -16 -94 -14 -18 -21 -41 -21 -71 0 -42 1 -44
45 -63 25 -11 48 -27 51 -37 3 -10 10 -26 15 -35 13 -24 11 -62 -3 -76 -16
-16 -48 13 -48 44 0 17 -12 31 -40 49 -22 14 -40 29 -40 33 0 14 -42 34 -52
24 -6 -6 0 -12 16 -16 14 -3 26 -11 26 -16 0 -5 17 -21 39 -34 26 -17 40 -34
44 -55 8 -37 41 -58 64 -40 11 10 14 25 11 54 -7 61 -29 99 -63 110 -17 6 -36
14 -42 18 -20 13 -15 72 8 101 23 29 28 101 10 147 -6 17 -7 3 -4 -43z"/>
<path d="M4465 931 c-46 -8 -65 -17 -65 -33 0 -6 9 -3 19 6 11 10 26 16 33 13
7 -2 24 0 36 5 15 5 40 4 63 -2 63 -17 47 -31 -30 -24 -39 4 -76 2 -86 -3 -13
-8 -5 -9 31 -6 28 3 65 1 84 -4 38 -11 63 -7 54 8 -8 14 40 11 56 -3 12 -11
12 -10 1 5 -7 9 -22 17 -33 17 -11 0 -27 4 -36 9 -27 14 -84 19 -127 12z"/>
<path d="M1820 856 c0 -13 -3 -32 -6 -40 -4 -11 -2 -15 8 -11 10 4 13 16 10
37 -4 23 -1 29 9 26 9 -3 15 -22 16 -54 0 -27 6 -62 12 -79 11 -30 11 -30 4 5
-3 19 -6 49 -5 65 2 52 -7 75 -28 75 -14 0 -20 -7 -20 -24z"/>
<path d="M1786 857 c3 -8 -6 -44 -21 -82 -14 -37 -25 -83 -25 -102 l0 -34 -57
7 -58 6 5 -93 5 -94 3 87 3 87 52 -2 52 -2 7 50 c3 28 16 74 27 103 23 57 26
82 11 82 -5 0 -7 -6 -4 -13z"/>
<path d="M3188 740 c-2 -72 0 -130 5 -130 4 0 7 59 7 130 0 72 -2 130 -4 130
-3 0 -6 -59 -8 -130z"/>
<path d="M4105 812 c0 -26 4 -50 9 -53 5 -4 2 -21 -7 -38 -8 -17 -12 -31 -7
-31 17 0 23 24 22 83 -2 71 -18 107 -17 39z"/>
<path d="M1595 687 c-4 -51 -3 -153 1 -227 8 -123 11 -135 29 -138 20 -4 20
-4 1 11 -18 13 -20 29 -20 231 -1 119 -2 216 -3 216 0 0 -4 -42 -8 -93z"/>
<path d="M2422 768 c-7 -7 -12 -31 -12 -55 0 -42 -5 -51 -54 -91 -9 -7 -16
-16 -16 -20 0 -12 59 -47 74 -44 10 2 9 -10 -5 -54 -11 -32 -17 -59 -15 -62 3
-2 12 22 22 54 14 50 18 55 29 41 7 -9 21 -17 31 -17 23 0 91 53 98 78 3 10
22 26 42 37 19 10 40 28 46 39 8 15 0 11 -30 -12 -22 -18 -45 -32 -50 -32 -6
0 -13 -9 -17 -20 -7 -21 -73 -80 -90 -80 -6 0 -17 9 -25 20 -8 11 -21 20 -28
20 -9 0 -12 6 -8 16 16 42 15 65 -1 27 l-18 -41 -23 18 -23 19 29 15 c34 17
42 34 42 82 0 20 5 44 10 55 12 22 9 24 -8 7z"/>
<path d="M5198 763 c-10 -11 -16 -38 -16 -70 0 -28 -3 -56 -6 -62 -11 -17 -33
-13 -48 8 -16 23 -62 32 -99 19 -34 -12 -79 6 -79 30 0 10 -9 27 -20 37 -11
10 -20 13 -20 8 0 -6 7 -16 15 -23 8 -7 15 -21 15 -31 0 -17 23 -37 45 -37 19
-1 16 -20 -6 -36 -20 -14 -26 -14 -46 -1 -12 8 -30 15 -40 14 -14 0 -15 -2 -3
-6 8 -3 27 -15 43 -25 15 -11 27 -15 27 -9 0 6 6 11 13 11 6 0 23 14 37 31 32
38 83 43 106 11 34 -49 84 -16 77 50 -4 33 0 49 14 67 25 31 53 22 53 -16 0
-19 3 -24 10 -17 7 7 8 19 1 37 -12 32 -50 37 -73 10z"/>
<path d="M1823 753 c3 -13 -1 -24 -9 -27 -15 -6 -8 -36 8 -36 6 0 5 6 -2 15
-10 12 -9 15 4 15 19 0 51 -64 41 -81 -4 -5 -19 -7 -33 -5 -15 2 -33 5 -39 5
-7 1 -13 11 -13 24 1 21 1 21 14 4 8 -10 17 -14 20 -9 3 5 -6 19 -20 31 l-25
22 3 -43 c3 -41 4 -43 38 -45 19 -1 43 -4 52 -7 10 -2 17 -1 16 3 -3 28 28 41
102 42 22 1 23 2 7 14 -9 6 -17 17 -17 23 0 18 -27 21 -47 6 -17 -14 -16 -14
5 -4 18 9 23 8 29 -6 7 -20 -13 -34 -49 -34 -23 0 -32 9 -58 58 -17 31 -29 47
-27 35z"/>
<path d="M5662 736 c-3 -37 20 -47 115 -52 64 -3 92 -9 106 -22 10 -9 42 -21
71 -27 l51 -10 3 -101 c2 -85 0 -103 -14 -115 -13 -11 -61 -14 -211 -15 -206
-2 -223 -6 -223 -50 l0 -24 354 0 c312 0 355 2 360 16 3 9 11 12 18 8 7 -4 5
2 -4 13 -10 11 -18 25 -18 31 0 6 -11 19 -25 28 -19 13 -25 25 -25 54 0 21
-13 63 -31 99 -32 65 -33 80 -3 63 14 -8 21 -5 31 15 18 36 16 42 -6 14 -27
-35 -52 -12 -28 27 11 17 -12 24 -59 19 l-39 -4 43 -1 c40 -2 43 -4 36 -24
-18 -58 -22 -88 -10 -88 19 0 56 -86 56 -129 0 -30 6 -42 24 -55 30 -19 43
-55 25 -67 -8 -5 -166 -9 -351 -9 -281 0 -338 2 -338 14 0 34 29 40 178 38
173 -2 237 4 258 25 12 12 14 37 12 121 l-3 107 -52 10 c-28 5 -60 18 -70 27
-14 13 -42 18 -106 21 -92 5 -118 16 -110 47 3 11 1 20 -4 20 -5 0 -10 -11
-11 -24z"/>
<path d="M2023 683 c-18 -7 -16 -52 7 -136 17 -66 88 -239 104 -254 10 -10
-18 64 -53 141 -31 69 -61 177 -61 219 1 38 16 -2 28 -70 6 -34 26 -97 45
-140 19 -43 40 -95 47 -116 6 -21 14 -37 16 -34 7 7 -21 84 -67 182 -10 22
-26 79 -35 125 -8 47 -16 86 -17 86 -1 1 -8 -1 -14 -3z"/>
<path d="M1939 618 c11 -11 18 -24 16 -28 -2 -4 -32 -17 -65 -29 -69 -25 -102
-62 -151 -169 -24 -54 -32 -63 -51 -60 -22 3 -23 6 -22 116 1 74 6 117 14 128
10 11 10 18 2 26 -16 16 -26 -48 -26 -172 l-1 -105 33 -3 c31 -3 34 -1 61 60
49 107 82 144 151 169 33 12 63 26 66 31 9 14 -17 58 -33 58 -10 0 -8 -6 6
-22z"/>
<path d="M4342 581 c-37 -33 -39 -25 30 -172 l41 -89 134 0 c143 0 173 7 173
43 0 13 8 50 19 83 23 75 41 148 36 152 -2 2 -9 -16 -15 -40 -6 -23 -20 -73
-31 -109 -10 -36 -19 -73 -19 -82 0 -29 -36 -37 -163 -37 l-124 0 -41 83 c-63
128 -66 138 -42 144 11 3 20 11 20 18 0 7 12 18 28 23 22 9 23 11 6 11 -11 1
-35 -12 -52 -28z"/>
<path d="M110 535 c-10 -12 -11 -24 -4 -43 l9 -27 166 -3 c181 -3 198 2 185
52 -8 31 -22 34 -197 35 -122 1 -148 -1 -159 -14z m338 -11 c13 -10 15 -17 6
-31 -10 -16 -28 -18 -169 -18 -136 0 -159 2 -168 17 -8 12 -7 21 2 32 11 13
38 16 162 15 105 -1 154 -6 167 -15z"/>
<path d="M5155 396 c-10 -52 -3 -71 27 -74 33 -4 43 -37 22 -70 -17 -26 -12
-68 8 -73 7 -2 74 -3 149 -1 l137 3 4 28 c5 32 13 30 -136 31 -93 1 -110 -2
-122 -17 -13 -17 -13 -17 -14 2 -1 11 -3 34 -6 50 -2 17 -4 49 -4 73 0 45 -14
82 -31 82 -5 0 -2 -11 7 -24 21 -33 15 -71 -11 -71 -18 0 -20 6 -18 48 3 55
-3 62 -12 13z m67 -183 l3 -28 21 23 c17 19 32 23 73 23 28 -1 74 -1 103 -2
58 0 68 -4 68 -24 0 -11 -28 -15 -136 -17 -119 -3 -137 -1 -145 14 -12 22 -11
38 0 38 5 0 11 -12 13 -27z"/>
<path d="M5136 305 c-3 -9 -6 -26 -5 -38 1 -16 4 -12 10 12 10 34 6 55 -5 26z"/>
<path d="M570 251 c0 -33 3 -39 25 -43 13 -3 22 -2 20 2 -2 4 34 7 81 7 87 0
109 9 97 40 -4 10 -26 12 -87 11 -76 -2 -77 -2 -18 -5 39 -3 62 -8 62 -16 0
-7 4 -6 10 3 7 11 12 12 20 4 19 -19 -3 -25 -105 -28 l-95 -2 0 28 c0 29 24
40 33 16 3 -8 6 -6 6 5 1 12 -7 17 -24 17 -22 0 -25 -4 -25 -39z"/>
<path d="M838 270 c-15 -4 -28 -7 -30 -5 -2 2 -3 -8 -3 -21 0 -28 21 -38 59
-28 16 4 26 13 26 24 0 31 18 33 22 3 3 -27 5 -28 61 -28 32 0 62 5 66 10 15
20 19 42 8 43 -95 8 -187 9 -209 2z m45 -20 c-3 -11 -12 -21 -19 -21 -35 -4
-39 -3 -39 11 0 12 24 24 57 29 3 1 4 -8 1 -19z m150 3 c21 -12 -4 -26 -51
-28 -55 -2 -68 5 -58 31 5 12 16 14 53 8 27 -3 52 -9 56 -11z"/>
<path d="M1158 273 c-68 -3 -87 -7 -92 -20 -10 -25 3 -31 78 -37 101 -7 126 0
126 35 0 18 -5 28 -12 27 -7 -1 -52 -4 -100 -5z m98 -41 c-11 -10 -168 -4
-179 7 -17 17 14 23 97 19 46 -2 76 1 77 7 1 6 3 2 6 -8 3 -10 2 -21 -1 -25z"/>
<path d="M2240 251 c0 -30 2 -31 40 -31 36 0 40 3 40 25 0 17 -6 25 -17 25
-10 0 -28 3 -40 6 -20 6 -23 3 -23 -25z m70 -7 c0 -9 -11 -14 -30 -14 -22 0
-30 5 -30 18 0 15 6 18 30 14 17 -2 30 -10 30 -18z"/>
<path d="M2330 268 c0 -7 3 -23 6 -35 6 -22 9 -22 133 -19 69 2 136 4 149 5
17 1 22 7 22 26 0 23 -4 25 -52 26 -125 4 -193 -3 -205 -19 -12 -14 -13 -13
-13 6 0 15 -6 22 -20 22 -11 0 -20 -6 -20 -12z m30 -18 c0 -24 8 -25 29 -6 15
14 69 19 189 17 39 -1 52 -5 52 -16 0 -16 3 -16 -165 -20 -72 -1 -113 1 -117
9 -11 16 -10 36 2 36 6 0 10 -9 10 -20z"/>
<path d="M3710 224 c-6 -14 -10 -29 -10 -33 0 -4 35 -8 79 -10 84 -2 103 9 81
49 -8 15 -17 18 -48 13 -52 -8 -56 -16 -5 -11 42 3 61 -10 47 -34 -5 -8 -144
-9 -144 0 0 2 5 13 12 25 11 21 11 21 19 2 7 -19 8 -19 8 3 1 31 -27 28 -39
-4z"/>
<path d="M3875 215 c0 -27 4 -35 18 -35 13 0 17 8 17 35 0 27 -4 35 -17 35
-14 0 -18 -8 -18 -35z m22 -12 c-3 -10 -5 -4 -5 12 0 17 2 24 5 18 2 -7 2 -21
0 -30z"/>
<path d="M3948 243 c-12 -3 -18 -14 -18 -34 l0 -29 93 0 c105 0 118 5 106 38
-7 19 -15 22 -66 22 -32 0 -67 2 -78 4 -11 2 -28 2 -37 -1z m107 -16 c48 -2
60 -5 63 -19 3 -16 -6 -18 -87 -18 -83 0 -91 2 -91 19 0 22 17 32 40 24 8 -3
42 -6 75 -6z"/>
<path d="M4172 239 c-9 -4 -20 -5 -24 -3 -3 2 -1 -9 5 -26 11 -30 12 -30 89
-30 l78 0 0 30 c0 20 5 30 15 30 8 0 15 -4 15 -10 0 -5 -4 -10 -9 -10 -5 0 -7
-9 -4 -20 3 -13 14 -20 29 -20 19 0 24 5 24 24 0 14 -5 28 -12 32 -14 9 -183
11 -206 3z m101 -12 c32 4 37 2 37 -16 0 -19 -6 -21 -70 -21 -38 0 -70 2 -70
4 0 2 -3 11 -6 20 -4 10 -1 16 9 16 9 0 18 -8 20 -17 3 -13 5 -12 6 5 1 18 4
21 19 14 9 -5 34 -7 55 -5z m107 -23 c0 -8 -7 -14 -15 -14 -15 0 -21 21 -9 33
10 9 24 -2 24 -19z"/>
<path d="M4625 241 c-21 -4 -31 -13 -33 -29 -4 -26 -22 -20 -22 8 0 16 -9 18
-80 19 l-80 0 0 -36 c0 -34 1 -35 31 -29 17 3 44 6 60 6 21 0 29 5 29 18 0 10
-3 13 -8 6 -4 -6 -28 -14 -54 -17 -46 -6 -48 -5 -48 17 0 23 3 24 60 23 54 -1
60 -3 60 -22 0 -19 6 -21 65 -23 46 -1 65 2 65 11 0 6 3 22 6 35 7 24 3 25
-51 13z m41 -17 c-3 -9 -6 -20 -6 -25 0 -6 -12 -9 -27 -7 -35 4 -37 30 -3 39
39 11 43 10 36 -7z m-103 -14 c3 -11 1 -20 -4 -20 -5 0 -9 9 -9 20 0 11 2 20
4 20 2 0 6 -9 9 -20z"/>
<path d="M4737 234 c-21 -7 -33 -18 -35 -32 -3 -21 0 -22 92 -22 l96 0 0 29
c0 29 -1 29 -60 33 -33 1 -75 -2 -93 -8z m111 -7 c27 5 32 2 32 -16 0 -19 -6
-21 -65 -21 -45 0 -65 4 -66 13 0 10 -2 10 -6 0 -6 -17 -33 -17 -33 0 0 17 59
35 85 26 11 -3 35 -4 53 -2z"/>
<path d="M5053 235 c2 -5 19 -9 37 -8 19 1 41 -3 49 -10 12 -10 13 -9 7 2 -6
9 -4 12 5 9 8 -3 15 -12 17 -21 3 -15 -10 -17 -123 -17 -115 0 -126 2 -123 18
3 13 14 17 55 17 29 1 56 4 60 9 4 4 -22 6 -57 4 -63 -3 -65 -4 -68 -30 l-3
-28 135 0 c123 0 136 2 136 18 0 9 -4 22 -8 28 -9 15 -123 23 -119 9z"/>
<path d="M5520 217 l0 -35 188 -4 c186 -4 223 1 190 26 -10 7 -18 18 -18 25 0
10 -34 16 -70 13 -40 -5 -244 -1 -266 4 -22 6 -24 3 -24 -29z m29 0 c1 12 18
13 285 14 29 0 49 -17 40 -33 -3 -4 3 -5 13 -1 11 4 14 2 8 -3 -6 -5 -87 -8
-187 -6 l-178 4 1 26 c0 24 1 25 9 7 5 -11 9 -14 9 -8z"/>
<path d="M1027 194 c-4 -4 -7 -19 -7 -33 l-1 -26 -13 23 c-12 22 -19 24 -109
26 l-95 1 -4 -27 c-3 -16 0 -28 6 -28 95 -5 556 -1 564 4 6 3 13 2 16 -2 3 -5
22 -9 43 -8 33 1 38 4 41 27 3 24 -1 27 -39 33 -45 7 -54 3 -62 -29 -4 -16 -5
-15 -6 6 l-1 26 -137 -1 c-76 0 -149 3 -163 7 -14 5 -29 5 -33 1z m201 -20
c118 3 123 2 120 -17 -3 -19 -11 -20 -138 -19 -187 0 -180 -1 -180 20 0 27 8
31 43 21 18 -4 87 -7 155 -5z m-233 -13 c3 -8 4 -15 3 -17 -2 -1 -43 -4 -93
-5 -83 -3 -90 -2 -93 16 -3 19 3 20 88 20 67 0 91 -3 95 -14z m464 4 c2 -2 0
-12 -4 -22 -5 -12 -9 -14 -12 -6 -3 10 -10 10 -24 2 -24 -12 -39 -4 -39 23 0
18 4 19 38 13 20 -4 39 -8 41 -10z"/>
<path d="M2436 192 c-4 -7 -60 -9 -159 -7 -83 2 -176 2 -204 -2 -48 -5 -53 -8
-53 -29 0 -27 -35 -25 350 -27 l226 -2 -4 28 c-5 29 -16 32 -96 27 -22 -1 -42
3 -46 10 -5 8 -10 9 -14 2z m127 -22 c21 0 23 -30 1 -30 -9 0 -12 5 -8 12 5 7
3 8 -7 2 -23 -14 -40 -16 -134 -14 -55 1 -93 6 -97 13 -5 9 -8 8 -8 -2 0 -8
-3 -12 -6 -8 -3 3 -18 1 -32 -4 -18 -7 -28 -6 -34 3 -5 9 -8 9 -8 1 0 -15 -40
-4 -40 11 0 8 -2 8 -8 -1 -9 -14 -22 -16 -94 -14 -43 1 -58 5 -58 15 0 8 12
16 28 18 20 3 343 2 505 -2z"/>
<path d="M590 159 l0 -29 94 0 c69 0 95 4 99 13 10 27 -9 34 -100 39 l-93 5 0
-28z m179 5 c11 -4 12 -7 2 -17 -9 -9 -14 -9 -21 3 -7 10 -10 11 -10 3 0 -7
-7 -13 -15 -13 -8 0 -15 6 -16 13 0 8 -2 8 -6 -2 -5 -11 -7 -11 -14 0 -6 10
-9 11 -9 2 0 -8 -15 -13 -40 -13 -32 0 -40 4 -40 18 0 15 9 17 78 14 42 -2 83
-5 91 -8z"/>
<path d="M1810 160 c0 -31 10 -37 58 -34 17 1 55 2 83 3 49 1 50 2 47 29 l-3
27 -92 1 -93 1 0 -27z m178 -2 c3 -14 -3 -18 -22 -18 -18 0 -26 6 -27 18 -1
16 -2 16 -6 0 -5 -19 -8 -20 -70 -22 -31 -1 -39 3 -41 19 -3 19 2 21 80 20 71
0 83 -3 86 -17z"/>
<path d="M4448 85 c2 -44 6 -82 8 -84 7 -8 2 114 -6 139 -4 14 -5 -11 -2 -55z"/>
<path d="M4620 115 l-12 -35 -71 -2 -72 -2 68 -3 67 -4 -15 -29 c-19 -37 -19
-51 -1 -24 24 33 66 134 56 134 -5 0 -14 -16 -20 -35z"/>
<path d="M2380 101 c-10 -19 -20 -21 -100 -21 -50 0 -90 -3 -90 -7 0 -5 39 -7
87 -5 l88 4 -28 -26 c-15 -14 -27 -30 -27 -36 0 -6 14 2 30 18 17 17 30 34 30
38 0 4 7 16 17 26 9 10 14 21 10 24 -3 3 -10 -4 -17 -15z"/>
<path d="M2163 57 c1 -34 5 -50 10 -41 8 13 2 83 -8 92 -2 2 -3 -21 -2 -51z"/>
<path d="M2965 44 c2 -20 7 -39 10 -42 3 -3 4 11 1 31 l-5 37 377 -2 377 -3 0
-32 c0 -18 4 -28 8 -24 5 5 7 21 5 37 l-3 29 -387 3 -388 2 5 -36z"/>
<path d="M5920 60 c10 -18 19 -21 68 -18 40 2 56 7 54 16 -2 10 35 12 164 11
91 0 168 2 172 5 3 3 -101 6 -232 6 -235 0 -237 0 -226 -20z m110 0 c0 -5 -20
-10 -44 -10 -25 0 -48 5 -51 10 -4 6 13 10 44 10 28 0 51 -4 51 -10z"/>
<path d="M3202 25 c0 -17 2 -22 5 -12 2 9 2 23 0 30 -3 6 -5 -1 -5 -18z"/>
</g>
</defs>
<mask id="mp45018">
  <use xlink:href="#gp45018" fill="white" />
</mask>
<use xlink:href="#gp45018" data-mask="url(#mp45018)" data-stroke="black" stroke-width="20px" fill="black"/>
</svg>
