<?xml version="1.0" encoding="UTF-8"?>
<svg width="1227px" height="254px" viewBox="0 0 1227 254" version="1.1" xmlns="http://www.w3.org/2000/svg" xmlns:xlink="http://www.w3.org/1999/xlink">
    <!-- Generator: Sketch 43.1 (39012) - http://www.bohemiancoding.com/sketch -->
    <title>sky-simple</title>
    <desc>Created with Sketch.</desc>
    <defs>
        <filter x="-2.3%" y="-12.7%" width="105.4%" height="130.1%" filterUnits="objectBoundingBox" id="filter-1">
            <feOffset dx="5" dy="5" in="SourceAlpha" result="shadowOffsetOuter1"></feOffset>
            <feGaussianBlur stdDeviation="10" in="shadowOffsetOuter1" result="shadowBlurOuter1"></feGaussianBlur>
            <feColorMatrix values="0 0 0 0 0.91372549   0 0 0 0 0.650980392   0 0 0 0 0.325490196  0 0 0 0.408118207 0" type="matrix" in="shadowBlurOuter1" result="shadowMatrixOuter1"></feColorMatrix>
            <feMerge>
                <feMergeNode in="shadowMatrixOuter1"></feMergeNode>
                <feMergeNode in="SourceGraphic"></feMergeNode>
            </feMerge>
        </filter>
        <radialGradient cx="50%" cy="12.9318078%" fx="50%" fy="12.9318078%" r="102.688737%" gradientTransform="translate(0.500000,0.129318),scale(0.155368,1.000000),rotate(105.746048),scale(1.000000,3.906710),translate(-0.500000,-0.129318)" id="radialGradient-2">
            <stop stop-color="#FFFFFF" offset="0%"></stop>
            <stop stop-color="#FFEAC6" offset="100%"></stop>
        </radialGradient>
        <radialGradient cx="62.9380286%" cy="18.6893251%" fx="62.9380286%" fy="18.6893251%" r="95.8527898%" gradientTransform="translate(0.629380,0.186893),scale(0.340519,1.000000),rotate(90.000000),scale(1.000000,2.370779),translate(-0.629380,-0.186893)" id="radialGradient-3">
            <stop stop-color="#FFFFFF" offset="0%"></stop>
            <stop stop-color="#FFEAC6" offset="100%"></stop>
        </radialGradient>
        <radialGradient cx="82.0073009%" cy="14.3445911%" fx="82.0073009%" fy="14.3445911%" r="126.604099%" gradientTransform="translate(0.820073,0.143446),scale(0.187820,1.000000),rotate(170.209387),scale(1.000000,0.693964),translate(-0.820073,-0.143446)" id="radialGradient-4">
            <stop stop-color="#FFFFFF" offset="0%"></stop>
            <stop stop-color="#FFEAC6" offset="100%"></stop>
        </radialGradient>
        <radialGradient cx="62.9380286%" cy="18.6893251%" fx="62.9380286%" fy="18.6893251%" r="102.451257%" gradientTransform="translate(0.629380,0.186893),scale(0.354669,1.000000),rotate(90.000000),scale(1.000000,1.783674),translate(-0.629380,-0.186893)" id="radialGradient-5">
            <stop stop-color="#FFFFFF" offset="0%"></stop>
            <stop stop-color="#FFEAC6" offset="100%"></stop>
        </radialGradient>
        <radialGradient cx="62.9380286%" cy="18.6893251%" fx="62.9380286%" fy="18.6893251%" r="102.451257%" gradientTransform="translate(0.629380,0.186893),scale(0.239672,1.000000),rotate(90.000000),scale(1.000000,1.783674),translate(-0.629380,-0.186893)" id="radialGradient-6">
            <stop stop-color="#FFFFFF" offset="0%"></stop>
            <stop stop-color="#FFEAC6" offset="100%"></stop>
        </radialGradient>
        <radialGradient cx="62.9380286%" cy="18.6893251%" fx="62.9380286%" fy="18.6893251%" r="102.451257%" gradientTransform="translate(0.629380,0.186893),scale(0.228721,1.000000),rotate(90.000000),scale(1.000000,3.311925),translate(-0.629380,-0.186893)" id="radialGradient-7">
            <stop stop-color="#FFFFFF" offset="0%"></stop>
            <stop stop-color="#FFEAC6" offset="100%"></stop>
        </radialGradient>
    </defs>
    <g id="Page-1" stroke="none" stroke-width="1" fill="none" fill-rule="evenodd">
        <g id="sky-simple" filter="url(#filter-1)" style="mix-blend-mode: color-dodge;" transform="translate(612.500000, 122.000000) scale(-1, 1) translate(-612.500000, -122.000000) translate(13.000000, 14.000000)">
            <path d="M1030.4865,79.843 C1027.35609,79.076 1024.00138,78.658 1020.51237,78.658 C1007.43552,78.658 996.2527,84.513 991.711453,92.791 L1198.87816,92.791 C1196.26002,80.344 1181.38467,70.807 1163.42044,70.807 C1154.13442,70.807 1145.67634,73.356 1139.30475,77.538 C1126.18775,67.134 1107.28204,60.604 1086.26354,60.604 C1063.73591,60.604 1043.63535,68.109 1030.4865,79.843" id="Fill-47" fill="url(#radialGradient-2)"></path>
            <path d="M434.217988,55.206 C434.217988,46.413 443.222949,39.141 454.93189,37.931 C460.283085,19.64 482.760874,5.909 509.678839,5.909 C536.985857,5.909 559.718398,20.034 564.641775,38.72 C566.339204,38.488 568.087861,38.366 569.87667,38.366 C585.329371,38.366 597.859336,47.413 597.859336,58.575 C597.859336,59.615 597.749958,60.636 597.540895,61.632 L435.90988,61.632 C434.818873,59.643 434.217988,57.476 434.217988,55.206 Z" id="Fill-48" fill="url(#radialGradient-3)"></path>
            <path d="M900.173479,17.151 C902.797157,8.094 913.919059,1.293 927.238204,1.293 C940.434127,1.293 951.467419,7.964 954.226781,16.893 C958.635113,15.067 963.735709,14.025 969.179667,14.025 C971.950105,14.025 974.627779,14.295 977.175308,14.8 C979.245176,6.618 989.163924,0.414 1001.09162,0.414 C1014.51737,0.414 1025.40252,8.276 1025.40252,17.975 C1025.40252,20.994 1024.3489,23.835 1022.49086,26.316 L887.493985,26.316 C889.637232,22.073 894.300318,18.703 900.173479,17.151 Z" id="Fill-50" fill="url(#radialGradient-4)"></path>
            <path d="M839.682253,199.179 C838.866497,199.179 838.060272,199.234 837.2712,199.338 C836.302967,190.656 829.269936,183.919 820.73786,183.919 C811.542506,183.919 804.089208,191.74 804.089208,201.388 C804.089208,202.345 804.162588,203.284 804.304583,204.199 C800.760431,199.663 795.378924,196.77 789.353198,196.77 C779.258226,196.77 770.97202,204.892 770.102897,215.248 L858.436048,215.248 C856.665402,206.08 848.944316,199.179 839.682253,199.179 Z" id="Fill-51" fill="url(#radialGradient-5)"></path>
            <path d="M379.079218,109.965 C381.367841,109.965 383.59139,110.176 385.708331,110.572 C390.49464,105.215 398.833643,101.669 408.31765,101.669 C418.557609,101.669 427.460114,105.804 431.999977,111.889 C436.376465,109.497 441.825962,108.079 447.736506,108.079 C462.153581,108.079 473.838985,116.521 473.838985,126.934 C473.838985,128.223 473.66315,129.483 473.319788,130.7 L352.817518,130.7 C352.748292,130.142 352.71091,129.578 352.71091,129.008 C352.71091,118.492 364.516768,109.965 379.079218,109.965" id="Fill-52" fill="url(#radialGradient-6)"></path>
            <path d="M57.3512436,65.727 C51.4642367,60.361 42.3595901,56.918 32.1431686,56.918 C14.3921536,56.918 0,67.312 0,80.133 C0,82.93 0.686725173,85.61 1.93972171,88.094 L205.901252,88.094 C199.688881,79.8 187.541045,74.165 173.568403,74.165 C172.64077,74.165 171.721445,74.189 170.807657,74.239 L170.81458,73.833 C170.81458,55.699 150.463424,41 125.357804,41 C102.691719,41 83.9078476,52.978 80.4672991,68.647 C74.8945797,66.659 68.6226744,65.541 61.9935612,65.541 C60.4221236,65.541 58.8728383,65.607 57.3512436,65.727" id="Fill-49" fill="url(#radialGradient-7)"></path>
        </g>
    </g>
</svg>