<?xml version="1.0" encoding="UTF-8"?>
<svg width="866px" height="228px" viewBox="0 0 866 228" version="1.1" xmlns="http://www.w3.org/2000/svg" xmlns:xlink="http://www.w3.org/1999/xlink">
    <!-- Generator: Sketch 43.1 (39012) - http://www.bohemiancoding.com/sketch -->
    <title>sky2</title>
    <desc>Created with Sketch.</desc>
    <defs></defs>
    <g id="Page-1" stroke="none" stroke-width="1" fill="none" fill-rule="evenodd">
        <g id="sky2" transform="translate(433.000000, 114.000000) scale(-1, 1) translate(-433.000000, -114.000000) " fill="#FFFFFF">
            <path d="M744.288,79.843 C742.027,79.076 739.604,78.658 737.084,78.658 C727.639,78.658 719.562,84.513 716.282,92.791 L865.912,92.791 C864.021,80.344 853.277,70.807 840.302,70.807 C833.595,70.807 827.486,73.356 822.884,77.538 C813.41,67.134 799.755,60.604 784.574,60.604 C768.303,60.604 753.785,68.109 744.288,79.843" id="Fill-47"></path>
            <path d="M314.844,61.632 C314.056,59.643 313.622,57.476 313.622,55.206 C313.622,46.413 320.126,39.141 328.583,37.931 C332.448,19.64 348.683,5.909 368.125,5.909 C387.848,5.909 404.267,20.034 407.823,38.72 C409.049,38.488 410.312,38.366 411.604,38.366 C422.765,38.366 431.815,47.413 431.815,58.575 C431.815,59.615 431.736,60.636 431.585,61.632 L314.844,61.632" id="Fill-48"></path>
            <path d="M641.009,26.316 C642.557,22.073 645.925,18.703 650.167,17.151 C652.062,8.094 660.095,1.293 669.715,1.293 C679.246,1.293 687.215,7.964 689.208,16.893 C692.392,15.067 696.076,14.025 700.008,14.025 C702.009,14.025 703.943,14.295 705.783,14.8 C707.278,6.618 714.442,0.414 723.057,0.414 C732.754,0.414 740.616,8.276 740.616,17.975 C740.616,20.994 739.855,23.835 738.513,26.316 L641.009,26.316" id="Fill-50"></path>
            <path d="M352.782,227.248 C350.924,218.08 342.822,211.179 333.103,211.179 C332.247,211.179 331.401,211.234 330.573,211.338 C329.557,202.656 322.177,195.919 313.224,195.919 C303.575,195.919 295.754,203.74 295.754,213.388 C295.754,214.345 295.831,215.284 295.98,216.199 C292.261,211.663 286.614,208.77 280.291,208.77 C269.698,208.77 261.003,216.892 260.091,227.248 L352.782,227.248" id="Fill-51"></path>
            <path d="M273.797,109.965 C275.45,109.965 277.056,110.176 278.585,110.572 C282.042,105.215 288.065,101.669 294.915,101.669 C302.311,101.669 308.741,105.804 312.02,111.889 C315.181,109.497 319.117,108.079 323.386,108.079 C333.799,108.079 342.239,116.521 342.239,126.934 C342.239,128.223 342.112,129.483 341.864,130.7 L254.829,130.7 C254.779,130.142 254.752,129.578 254.752,129.008 C254.752,118.492 263.279,109.965 273.797,109.965" id="Fill-52"></path>
            <path d="M41.423,65.727 C37.171,60.361 30.595,56.918 23.216,56.918 C10.395,56.918 0,67.312 0,80.133 C0,82.93 0.496,85.61 1.401,88.094 L148.716,88.094 C144.229,79.8 135.455,74.165 125.363,74.165 C124.693,74.165 124.029,74.189 123.369,74.239 L123.374,73.833 C123.374,55.699 108.675,41 90.542,41 C74.171,41 60.604,52.978 58.119,68.647 C54.094,66.659 49.564,65.541 44.776,65.541 C43.641,65.541 42.522,65.607 41.423,65.727" id="Fill-49"></path>
        </g>
    </g>
</svg>