<?xml version="1.0" encoding="UTF-8"?>
<svg width="612px" height="228px" viewBox="0 0 612 228" version="1.1" xmlns="http://www.w3.org/2000/svg" xmlns:xlink="http://www.w3.org/1999/xlink">
    <!-- Generator: Sketch 43.1 (39012) - http://www.bohemiancoding.com/sketch -->
    <title>sky3</title>
    <desc>Created with Sketch.</desc>
    <defs></defs>
    <g id="Page-1" stroke="none" stroke-width="1" fill="none" fill-rule="evenodd">
        <g id="sky3" transform="translate(306.000000, 114.000000) scale(-1, 1) translate(-306.000000, -114.000000) " fill="#FFFFFF">
            <path d="M490.288,79.843 C488.027,79.076 485.604,78.658 483.084,78.658 C473.639,78.658 465.562,84.513 462.282,92.791 L611.912,92.791 C610.021,80.344 599.277,70.807 586.302,70.807 C579.595,70.807 573.486,73.356 568.884,77.538 C559.41,67.134 545.755,60.604 530.574,60.604 C514.303,60.604 499.785,68.109 490.288,79.843" id="Fill-47"></path>
            <path d="M60.844,61.632 C60.056,59.643 59.622,57.476 59.622,55.206 C59.622,46.413 66.126,39.141 74.583,37.931 C78.448,19.64 94.683,5.909 114.125,5.909 C133.848,5.909 150.267,20.034 153.823,38.72 C155.049,38.488 156.312,38.366 157.604,38.366 C168.765,38.366 177.815,47.413 177.815,58.575 C177.815,59.615 177.736,60.636 177.585,61.632 L60.844,61.632" id="Fill-48"></path>
            <path d="M334.262,94.216 C330.01,88.85 323.434,85.407 316.055,85.407 C303.234,85.407 292.839,95.801 292.839,108.622 C292.839,111.419 293.335,114.099 294.24,116.583 L441.555,116.583 C437.068,108.289 428.294,102.654 418.202,102.654 C417.532,102.654 416.868,102.678 416.208,102.728 L416.213,102.322 C416.213,84.188 401.514,69.489 383.381,69.489 C367.01,69.489 353.443,81.467 350.958,97.136 C346.933,95.148 342.403,94.03 337.615,94.03 C336.48,94.03 335.361,94.096 334.262,94.216" id="Fill-49"></path>
            <path d="M387.009,26.316 C388.557,22.073 391.925,18.703 396.167,17.151 C398.062,8.094 406.095,1.293 415.715,1.293 C425.246,1.293 433.215,7.964 435.208,16.893 C438.392,15.067 442.076,14.025 446.008,14.025 C448.009,14.025 449.943,14.295 451.783,14.8 C453.278,6.618 460.442,0.414 469.057,0.414 C478.754,0.414 486.616,8.276 486.616,17.975 C486.616,20.994 485.855,23.835 484.513,26.316 L387.009,26.316" id="Fill-50"></path>
            <path d="M98.782,227.248 C96.924,218.08 88.822,211.179 79.103,211.179 C78.247,211.179 77.401,211.234 76.573,211.338 C75.557,202.656 68.177,195.919 59.224,195.919 C49.575,195.919 41.754,203.74 41.754,213.388 C41.754,214.345 41.831,215.284 41.98,216.199 C38.261,211.663 32.614,208.77 26.291,208.77 C15.698,208.77 7.003,216.892 6.091,227.248 L98.782,227.248" id="Fill-51"></path>
            <path d="M19.797,109.965 C21.45,109.965 23.056,110.176 24.585,110.572 C28.042,105.215 34.065,101.669 40.915,101.669 C48.311,101.669 54.741,105.804 58.02,111.889 C61.181,109.497 65.117,108.079 69.386,108.079 C79.799,108.079 88.239,116.521 88.239,126.934 C88.239,128.223 88.112,129.483 87.864,130.7 L0.829,130.7 C0.779,130.142 0.752,129.578 0.752,129.008 C0.752,118.492 9.279,109.965 19.797,109.965" id="Fill-52"></path>
        </g>
    </g>
</svg>