<?xml version="1.0" encoding="UTF-8"?>
<svg width="1225px" height="600px" viewBox="0 0 1225 600" version="1.1" xmlns="http://www.w3.org/2000/svg" xmlns:xlink="http://www.w3.org/1999/xlink">
    <!-- Generator: Sketch 43.1 (39012) - http://www.bohemiancoding.com/sketch -->
    <title>sphinx</title>
    <desc>Created with Sketch.</desc>
    <defs></defs>
    <g id="Page-1" stroke="none" stroke-width="1" fill="none" fill-rule="evenodd">
        <g id="pm1" transform="translate(0.000000, 254.000000)">
            <polyline id="Fill-3" fill="#EBDFA0" points="124.217289 346.285 283.579281 2.49 630.980649 346.285 124.217289 346.285"></polyline>
            <polygon id="Path-2" fill="#FFFAE6" points="284.165543 0.740668134 0.334847989 347.325592 130.22082 347.325592"></polygon>
        </g>
        <g id="pm2" transform="translate(544.000000, 423.000000)">
            <polyline id="Fill-6" fill="#D4C883" points="73.612 177.285 154.388 0.386 330.478 177.285 73.612 177.285"></polyline>
            <polyline id="Fill-7" fill="#FFFBE7" points="154.388 0.386 0.509 177.285 73.612 177.285 154.388 0.386"></polyline>
        </g>
        <g id="sp" transform="translate(857.000000, 271.000000)">
            <path d="M203.576,17.417 L207.668,16.689 C213.295,15.689 218.714,18.906 220.531,24.325 L252.173,118.67 C256.231,130.776 251.44,143.714 240.473,150.255 L234.893,153.584 C222.154,161.183 213.694,171.902 209.263,186.06 L198.813,219.459 L121.2,166.442 C121.287,163.987 124.867,156.099 125.746,153.567 L203.576,17.417" id="Fill-8" fill="#A06D2F"></path>
            <path d="M83.556,17.417 L79.465,16.689 C73.839,15.689 68.417,18.906 66.601,24.325 L34.961,118.67 C30.904,130.776 35.695,143.714 46.659,150.255 L52.239,153.584 C64.978,161.183 73.441,171.902 77.869,186.06 L88.322,219.459 L165.932,166.442 C165.845,163.987 162.265,156.099 161.386,153.567 L83.556,17.417" id="Fill-9" fill="#B67E36"></path>
            <path d="M214.951,39.722 L211.65,29.876 L75.485,29.876 L72.183,39.722 L214.951,39.722 Z M221.249,58.5 L217.946,48.653 L69.186,48.653 L65.885,58.5 L221.249,58.5 Z M227.544,77.277 L224.244,67.43 L62.888,67.43 L59.587,77.277 L227.544,77.277 Z M233.843,96.055 L230.542,86.207 L56.592,86.207 L53.292,96.055 L233.843,96.055 Z M240.141,114.832 L236.837,104.985 L50.294,104.985 L46.993,114.832 L240.141,114.832 Z M242.16,133.609 C243.424,130.569 243.759,127.158 243.023,123.762 L44.109,123.762 C43.373,127.158 43.709,130.569 44.972,133.609 L242.16,133.609 Z M219.228,152.386 C222.396,149.619 225.878,147.103 229.675,144.836 L233.524,142.539 L53.608,142.539 L57.458,144.836 C61.255,147.103 64.738,149.619 67.907,152.386 L219.228,152.386 L219.228,152.386 Z" id="Fill-10" fill="#DC9642"></path>
            <path d="M143.567,39.722 L143.567,29.876 L211.65,29.876 L214.951,39.722 L143.567,39.722 Z M143.567,58.5 L143.567,48.653 L217.946,48.653 L221.249,58.5 L143.567,58.5 Z M143.567,77.277 L143.567,67.43 L224.244,67.43 L227.544,77.277 L143.567,77.277 Z M143.567,96.055 L143.567,86.207 L230.542,86.207 L233.843,96.055 L143.567,96.055 Z M143.567,114.832 L143.567,104.985 L236.837,104.985 L240.141,114.832 L143.567,114.832 Z M143.567,133.609 L143.567,123.762 L243.023,123.762 C243.759,127.158 243.424,130.569 242.16,133.609 L143.567,133.609 Z M219.228,152.386 C222.396,149.619 225.878,147.103 229.675,144.836 L233.524,142.539 L143.567,142.539 L143.567,152.386 L219.228,152.386 L219.228,152.386 Z" id="Fill-11" fill="#CD8A38"></path>
            <polygon id="Fill-12" fill="#CD8A38" points="117.623 145.991 169.509 145.991 169.509 118.345 117.623 118.345"></polygon>
            <polygon id="Fill-13" fill="#BD7C31" points="143.567 145.991 169.509 145.991 169.509 118.348 143.567 118.348"></polygon>
            <path d="M83.556,17.417 L143.567,9.944 L203.576,17.417 L189.996,106.234 C187.68,121.373 174.884,132.36 159.572,132.36 L127.562,132.36 C112.248,132.36 99.454,121.373 97.136,106.234 L83.556,17.417" id="Fill-14" fill="#E9A653"></path>
            <path d="M143.567,9.944 L203.576,17.417 L189.996,106.234 C187.68,121.373 174.884,132.36 159.572,132.36 L143.567,132.36 L143.567,9.944" id="Fill-15" fill="#D9933D"></path>
            <path d="M189.75,163.619 C186.891,149.98 174.415,140.219 159.572,140.219 L127.562,140.219 C112.72,140.219 100.244,149.98 97.381,163.619 C94.627,176.731 88.109,187.222 77.334,195.878 C69.687,202.027 63.783,210.106 60.446,219.459 L226.689,219.459 C223.349,210.108 217.447,202.027 209.797,195.878 C199.022,187.222 192.504,176.731 189.75,163.619" id="Fill-16" fill="#E9A653"></path>
            <path d="M189.75,163.619 C186.891,149.98 174.415,140.219 159.572,140.219 L143.567,140.219 L143.567,219.459 L226.689,219.459 C223.349,210.106 217.447,202.027 209.797,195.878 C199.022,187.222 192.504,176.731 189.75,163.619" id="Fill-17" fill="#D9933D"></path>
            <polygon id="Fill-18" fill="#CA8634" points="52.678 228.612 234.457 228.612 234.457 219.459 52.678 219.459"></polygon>
            <polygon id="Fill-19" fill="#A06D2F" points="143.567 228.612 234.457 228.612 234.457 219.459 143.567 219.459"></polygon>
            <polyline id="Fill-20" fill="#DD9845" points="52.678 227.7 234.457 227.7 244.322 248.058 42.81 248.058 52.678 227.7"></polyline>
            <polyline id="Fill-21" fill="#CD8733" points="143.567 227.7 234.457 227.7 244.322 248.058 143.567 248.058 143.567 227.7"></polyline>
            <polygon id="Fill-22" fill="#CA8634" points="44.037 257.21 244.322 257.21 244.322 248.058 44.037 248.058"></polygon>
            <polygon id="Fill-23" fill="#A06D2F" points="143.567 257.21 244.322 257.21 244.322 248.058 143.567 248.058"></polygon>
            <polyline id="Fill-24" fill="#DD9845" points="44.037 254.967 244.322 254.967 255.413 276.66 32.943 276.66 44.037 254.967"></polyline>
            <polyline id="Fill-25" fill="#CD8733" points="143.567 254.967 244.322 254.967 255.413 276.66 143.567 276.66 143.567 254.967"></polyline>
            <polygon id="Fill-26" fill="#CA8634" points="32.943 329.285 255.413 329.285 255.413 276.66 32.943 276.66"></polygon>
            <polygon id="Fill-27" fill="#B57630" points="143.567 329.285 255.413 329.285 255.413 276.66 143.567 276.66"></polygon>
            <polygon id="Fill-28" fill="#CA8634" points="14.475 329.285 273.883 329.285 273.883 297.095 14.475 297.095"></polygon>
            <polygon id="Fill-29" fill="#B57630" points="143.567 329.285 273.883 329.285 273.883 297.095 143.567 297.095"></polygon>
            <path d="M143.5,0.95 L143.633,0.95 C148.759,0.95 152.939,5.13 152.939,10.257 L152.939,17.139 L143.567,26.511 L134.195,17.139 L134.195,10.257 C134.195,5.13 138.375,0.95 143.5,0.95" id="Fill-30" fill="#B67E36"></path>
            <path d="M116.391,44.281 C123.661,44.281 129.552,50.173 129.552,57.441 L103.233,57.441 C103.233,50.173 109.125,44.281 116.391,44.281" id="Fill-31" fill="#B67E36"></path>
            <path d="M116.391,56.258 C119.235,56.258 121.552,53.983 121.552,51.193 C121.552,48.403 119.235,46.127 116.391,46.127 C113.55,46.127 111.233,48.403 111.233,51.193 C111.233,53.983 113.55,56.258 116.391,56.258" id="Fill-32" fill="#81572A"></path>
            <path d="M116.391,55.17 C117.904,55.17 119.138,53.382 119.138,51.193 C119.138,49.003 117.904,47.216 116.391,47.216 C114.878,47.216 113.647,49.003 113.647,51.193 C113.647,53.382 114.878,55.17 116.391,55.17" id="Fill-33" fill="#45321D"></path>
            <path d="M170.741,44.281 C178.009,44.281 183.902,50.173 183.902,57.441 L157.582,57.441 C157.582,50.173 163.474,44.281 170.741,44.281" id="Fill-34" fill="#A66E30"></path>
            <path d="M170.741,56.258 C173.582,56.258 175.902,53.983 175.902,51.193 C175.902,48.403 173.582,46.127 170.741,46.127 C167.899,46.127 165.582,48.403 165.582,51.193 C165.582,53.983 167.899,56.258 170.741,56.258" id="Fill-35" fill="#734C26"></path>
            <path d="M170.741,55.17 C172.253,55.17 173.487,53.382 173.487,51.193 C173.487,49.003 172.253,47.216 170.741,47.216 C169.228,47.216 167.994,49.003 167.994,51.193 C167.994,53.382 169.228,55.17 170.741,55.17" id="Fill-36" fill="#36291A"></path>
            <path d="M143.567,84.454 C149.37,84.454 154.074,83.77 154.074,85.494 C154.074,87.222 149.37,90.702 143.567,90.702 C137.762,90.702 133.058,87.222 133.058,85.494 C133.058,83.77 137.762,84.454 143.567,84.454" id="Fill-37" fill="#CD8A38"></path>
            <path d="M143.567,84.454 C149.37,84.454 154.074,83.77 154.074,85.494 C154.074,87.222 149.37,90.702 143.567,90.702 L143.567,84.454" id="Fill-38" fill="#C07D30"></path>
            <path d="M143.567,112.573 C153.581,112.573 161.744,109.277 161.744,105.235 C161.744,101.193 153.581,97.897 143.567,97.897 C133.556,97.897 125.39,101.193 125.39,105.235 C125.39,109.277 133.556,112.573 143.567,112.573" id="Fill-39" fill="#A06D2F"></path>
            <path d="M156.987,110.184 C153.663,111.653 148.881,112.573 143.567,112.573 C138.252,112.573 133.469,111.653 130.148,110.184 C130.214,106.165 136.196,102.915 143.567,102.915 C150.936,102.915 156.92,106.165 156.987,110.184" id="Fill-40" fill="#81572A"></path>
            <path d="M287.801,312.64 L287.801,315.369 C287.801,323.022 281.539,329.285 273.883,329.285 C267.628,329.285 262.306,325.104 260.567,319.399 C258.829,325.104 253.504,329.285 247.25,329.285 C240.995,329.285 235.669,325.104 233.932,319.399 C232.192,325.104 226.868,329.285 220.613,329.285 C214.358,329.285 209.034,325.104 207.295,319.399 C205.558,325.104 200.234,329.285 193.979,329.285 C186.324,329.285 180.061,323.022 180.061,315.369 L180.061,312.64 C180.061,304.569 183.741,297.627 190.419,293.097 L191.168,292.588 C198.042,287.922 205.17,285.736 213.474,285.736 L254.391,285.736 C262.695,285.736 269.824,287.922 276.694,292.588 L277.443,293.097 C284.125,297.627 287.801,304.569 287.801,312.64" id="Fill-41" fill="#F0C07A"></path>
            <path d="M108.297,312.64 L108.297,315.369 C108.297,323.022 102.035,329.285 94.379,329.285 C88.125,329.285 82.8,325.104 81.062,319.399 C79.323,325.104 73.998,329.285 67.743,329.285 C61.488,329.285 56.166,325.104 54.426,319.399 C52.688,325.104 47.364,329.285 41.109,329.285 C34.854,329.285 29.529,325.104 27.792,319.399 C26.054,325.104 20.73,329.285 14.475,329.285 C6.82,329.285 0.555,323.022 0.555,315.369 L0.555,312.64 C0.555,304.569 4.234,297.627 10.913,293.097 L11.665,292.588 C18.535,287.922 25.664,285.736 33.97,285.736 L74.884,285.736 C83.191,285.736 90.32,287.922 97.188,292.588 L97.939,293.097 C104.618,297.627 108.297,304.569 108.297,312.64" id="Fill-42" fill="#F5CF9A"></path>
        </g>
        <polygon id="L" fill="#0B1425" points="327 600 486.75 600 486.75 595.5 394.5 595.5 394.5 285 327 285"></polygon>
        <path d="M825.45,586.05 L825.45,600 L757.95,600 L757.95,285 L825.45,285 L825.45,442.95 C838.95,434.4 855.15,429 872.25,429 C919.5,429 957.75,467.25 957.75,514.5 C957.75,561.75 919.5,600 872.25,600 C855.15,600 838.95,595.05 825.45,586.05 Z M872.25,595.5 C882.15,595.5 890.25,559.05 890.25,514.5 C890.25,469.95 882.15,433.5 872.25,433.5 C855.15,433.5 838.95,439.35 825.45,448.8 L825.45,580.65 C838.95,590.1 855.15,595.5 872.25,595.5 Z" id="b" fill="#0B1425"></path>
        <path d="M628.75,429.5 L561.25,429.5 L561.25,600.5 L628.75,600.5 L628.75,429.5 Z M561.25,386.75 C561.25,405.2 576.55,420.5 595,420.5 C613.45,420.5 628.75,405.2 628.75,386.75 C628.75,368.3 613.45,353 595,353 C576.55,353 561.25,368.3 561.25,386.75 Z" id="i" fill="#0B1425"></path>
    </g>
</svg>