<?xml version="1.0" standalone="no"?>
<!DOCTYPE svg PUBLIC "-//W3C//DTD SVG 20010904//EN"
 "http://www.w3.org/TR/2001/REC-SVG-20010904/DTD/svg10.dtd">
<svg class="Potrace" xmlns:xlink="http://www.w3.org/1999/xlink" version="1.0" xmlns="http://www.w3.org/2000/svg"
 width="641.000000pt" height="431.000000pt" viewBox="0 0 641.000000 431.000000"
 preserveAspectRatio="xMidYMid meet">
<defs>
  <g id="gp84504" transform="translate(0.000000,431.000000) scale(0.100000,-0.100000)"
>
<path d="M301 4116 c-16 -19 -16 -3683 0 -3703 17 -19 1357 -19 1365 0 3 8 6
409 7 893 l2 879 1410 0 1410 0 5 -65 c3 -36 8 -60 11 -55 3 6 3 37 0 70 l-6
60 -1420 0 -1420 0 -2 -879 c-1 -484 -4 -885 -7 -893 -8 -19 -1329 -19 -1345
1 -16 19 -16 3663 0 3682 17 21 5761 21 5778 0 16 -19 16 -3663 0 -3683 -9
-11 -312 -13 -1743 -10 l-1731 2 -3 39 c-2 22 1 49 6 60 16 36 32 92 32 112 0
21 20 42 75 80 32 22 43 22 205 -5 36 -6 76 -10 90 -9 23 1 -56 15 -209 37
-58 9 -67 7 -95 -12 -59 -41 -76 -60 -76 -86 0 -15 -9 -51 -20 -81 -11 -30
-20 -76 -20 -102 l0 -48 1744 0 c1441 0 1745 2 1755 13 16 20 16 3684 0 3703
-17 21 -5781 21 -5798 0z"/>
<path d="M380 4025 c-17 -21 2 -65 28 -65 41 0 57 51 23 70 -27 14 -36 13 -51
-5z m50 -11 c11 -12 10 -18 -3 -32 -16 -15 -18 -15 -34 0 -13 14 -14 20 -3 32
7 9 16 16 20 16 4 0 13 -7 20 -16z"/>
<path d="M3486 3824 c-19 -18 -19 -24 -6 -58 8 -21 16 -26 44 -26 35 0 46 12
46 54 0 44 -52 63 -84 30z m64 -9 c7 -8 10 -25 6 -40 -8 -31 -50 -35 -66 -6
-13 25 -13 27 6 45 19 20 38 20 54 1z"/>
<path d="M3505 3801 c-8 -15 3 -31 21 -31 9 0 14 7 12 17 -4 20 -24 28 -33 14z
m25 -11 c0 -5 -5 -10 -11 -10 -5 0 -7 5 -4 10 3 6 8 10 11 10 2 0 4 -4 4 -10z"/>
<path d="M5677 3833 c-4 -3 -7 -12 -7 -20 0 -9 17 -13 60 -13 47 0 60 3 60 15
0 8 5 15 10 15 6 0 10 -7 10 -15 0 -12 14 -15 66 -15 57 0 65 2 62 18 -3 15
-18 17 -129 19 -69 2 -129 0 -132 -4z m103 -12 c0 -6 -22 -10 -50 -9 -27 0
-47 4 -44 9 7 12 94 12 94 0z m80 -1 c0 -5 -9 -10 -20 -10 -11 0 -20 5 -20 10
0 6 9 10 20 10 11 0 20 -4 20 -10z m66 -1 c3 -5 -9 -9 -25 -9 -17 0 -31 4 -31
9 0 5 11 9 25 9 14 0 28 -4 31 -9z"/>
<path d="M3585 3820 c-3 -5 -1 -10 4 -10 6 0 11 -12 11 -26 0 -16 -4 -23 -11
-18 -7 4 -10 1 -7 -7 6 -17 68 -25 68 -9 0 6 5 8 10 5 6 -3 50 -8 100 -10 84
-4 90 -3 101 17 l12 22 8 -22 c7 -18 16 -22 48 -22 22 0 43 5 46 10 4 6 11 8
16 5 5 -4 37 -8 72 -10 l62 -3 -3 39 c-4 34 -1 39 17 39 23 0 30 -34 9 -44 -7
-3 -3 -3 10 0 15 4 24 0 28 -10 9 -24 31 -19 36 9 3 13 2 23 -1 22 -3 -1 -8 3
-11 8 -3 6 7 11 21 13 22 3 27 -2 32 -25 3 -15 2 -32 -1 -38 -4 -5 -10 6 -13
25 l-6 35 -2 -32 c0 -17 3 -34 8 -37 11 -7 36 22 28 31 -4 3 1 11 10 18 9 7
13 17 9 23 -9 14 -96 16 -96 2 0 -6 -9 -6 -23 1 -16 7 -39 8 -68 2 -41 -9 -44
-11 -43 -41 1 -18 -3 -32 -8 -32 -6 0 -8 17 -6 38 3 38 3 38 -32 39 -19 1 -27
-1 -17 -4 12 -3 17 -14 16 -36 0 -27 -2 -29 -9 -12 -18 46 -35 50 -194 51 -83
0 -145 -1 -138 -4 6 -2 12 -18 12 -35 l0 -32 -16 30 c-8 16 -21 33 -27 37 -17
11 -55 10 -62 -2z m54 -45 c14 -8 4 -25 -15 -25 -10 0 -14 11 -13 38 0 31 2
33 9 16 5 -12 13 -25 19 -29z m31 2 c0 -6 -9 -2 -20 8 -11 10 -20 23 -20 28 0
6 9 2 20 -8 11 -10 20 -23 20 -28z m37 -9 c-2 -13 -4 -5 -4 17 -1 22 1 32 4
23 2 -10 2 -28 0 -40z m33 17 c0 -19 -4 -35 -10 -35 -5 0 -10 16 -10 35 0 19
5 35 10 35 6 0 10 -16 10 -35z m88 0 c-1 -27 -6 -35 -20 -35 -14 0 -18 8 -18
35 0 28 4 35 20 35 16 0 19 -6 18 -35z m58 25 c9 0 14 -10 13 -32 -1 -24 -3
-27 -6 -10 -2 12 -7 22 -11 22 -12 0 -29 -15 -35 -30 -3 -8 -6 2 -6 24 -1 31
2 37 15 32 9 -3 22 -6 30 -6z m67 -10 c6 -22 -8 -28 -16 -7 -3 7 -6 4 -6 -7
-1 -14 4 -17 19 -13 24 6 36 -8 14 -17 -39 -15 -54 -7 -54 29 0 28 4 35 19 35
10 0 21 -9 24 -20z m84 -32 c-2 -13 -4 -5 -4 17 -1 22 1 32 4 23 2 -10 2 -28
0 -40z m248 42 c3 -5 1 -10 -4 -10 -6 0 -11 5 -11 10 0 6 2 10 4 10 3 0 8 -4
11 -10z m-505 -25 c0 -16 -6 -25 -15 -25 -9 0 -15 9 -15 25 0 16 6 25 15 25 9
0 15 -9 15 -25z m210 10 c6 -8 10 -19 8 -24 -1 -5 -11 2 -21 15 -19 26 -8 34
13 9z m120 -15 c0 -28 -2 -30 -20 -20 -30 16 -25 50 7 50 8 0 13 -12 13 -30z
m100 -13 c0 -6 -9 -2 -20 8 -11 10 -20 23 -20 28 0 6 9 2 20 -8 11 -10 20 -23
20 -28z"/>
<path d="M5970 3790 c0 -25 4 -31 18 -28 11 2 17 12 17 28 0 16 -6 26 -17 28
-14 3 -18 -3 -18 -28z m22 -12 c-9 -9 -12 -7 -12 12 0 19 3 21 12 12 9 -9 9
-15 0 -24z"/>
<path d="M5654 3769 c-15 -25 19 -34 144 -36 127 -2 147 3 135 34 -7 17 -268
19 -279 2z m271 -9 c3 -5 1 -11 -5 -15 -5 -3 -10 0 -10 7 0 9 -3 10 -8 2 -10
-15 -217 -13 -233 3 -8 8 22 11 120 12 71 0 133 -4 136 -9z"/>
<path d="M404 3742 c-14 -8 -35 -80 -26 -85 4 -2 32 -4 63 -5 40 -2 60 2 69
13 16 19 30 19 30 0 0 -8 7 -15 16 -15 8 0 22 7 30 15 9 8 20 15 25 15 5 0 9
-7 9 -15 0 -12 14 -15 70 -15 l70 0 0 51 0 50 -32 -3 c-28 -3 -34 -8 -38 -33
-6 -38 -24 -39 -28 -2 -2 15 -6 27 -10 28 -46 6 -181 5 -194 -2 -10 -6 -19 -5
-23 1 -7 12 -16 12 -31 2z m39 -39 l15 -38 -5 35 c-3 27 -2 31 6 20 6 -8 11
-24 11 -34 0 -18 1 -18 19 2 10 12 21 19 25 15 3 -3 6 -2 6 4 0 6 -7 13 -15
17 -10 3 -15 -1 -15 -11 0 -13 -3 -14 -11 -6 -22 22 2 31 83 29 l83 -2 5 -30
c7 -41 43 -41 50 1 4 22 11 31 28 33 20 3 22 -1 22 -37 l0 -41 -60 0 c-48 0
-60 3 -60 16 0 13 -6 15 -27 9 -16 -3 -29 -11 -31 -16 -6 -15 -22 -10 -22 6 0
19 -20 19 -46 0 -13 -8 -40 -13 -68 -12 -49 2 -58 16 -36 58 15 28 25 24 43
-18z"/>
<path d="M572 3710 c0 -14 2 -19 5 -12 2 6 2 18 0 25 -3 6 -5 1 -5 -13z"/>
<path d="M722 3700 c0 -14 2 -19 5 -12 2 6 2 18 0 25 -3 6 -5 1 -5 -13z"/>
<path d="M786 3743 c-3 -4 -6 -26 -6 -50 0 -32 4 -43 15 -43 8 0 15 8 15 18 0
14 -2 15 -10 2 -7 -11 -10 -3 -10 30 1 40 2 43 14 28 16 -22 32 -23 40 -3 4
11 21 15 61 15 46 0 55 -3 55 -17 0 -15 2 -16 10 -3 9 13 10 13 11 0 0 -10 3
-8 9 5 5 11 9 15 9 8 1 -11 17 -12 36 -2 6 3 25 5 44 5 29 -1 36 -5 42 -30 10
-36 4 -46 -27 -46 -15 0 -24 6 -24 15 0 18 12 19 28 3 9 -9 12 -9 12 -1 0 7
-9 15 -20 18 -11 3 -20 10 -20 14 0 21 -30 4 -35 -21 -6 -25 -25 -41 -25 -20
0 13 -30 10 -30 -2 -1 -19 -30 27 -31 48 -1 15 -3 16 -6 5 -2 -8 1 -27 6 -41
8 -22 16 -26 50 -26 34 -1 41 3 41 18 0 10 5 22 10 25 6 4 10 -5 10 -19 0 -23
4 -26 35 -26 41 0 50 14 38 61 l-9 33 -140 3 c-120 2 -141 0 -151 -14 -7 -9
-13 -12 -13 -6 0 13 -25 24 -34 16z"/>
<path d="M1453 3743 c-12 -2 -34 -18 -48 -34 -37 -44 -35 -108 4 -151 25 -28
36 -33 74 -33 58 0 99 29 111 78 23 89 -48 160 -141 140z m77 -18 c38 -20 60
-52 60 -90 0 -38 -22 -70 -60 -90 -43 -22 -65 -19 -105 16 -30 26 -35 37 -35
73 0 33 6 48 28 68 43 41 68 46 112 23z"/>
<path d="M1435 3680 c-3 -5 -1 -18 5 -29 7 -13 7 -22 0 -26 -5 -3 -10 -15 -10
-26 0 -14 7 -19 26 -19 14 0 23 4 19 10 -3 5 -12 7 -20 3 -16 -6 -19 5 -7 25
6 9 14 6 32 -13 13 -14 32 -25 42 -25 29 0 21 37 -17 75 -34 35 -59 44 -70 25z
m60 -35 c33 -33 44 -55 27 -55 -14 0 -83 76 -76 83 11 10 12 10 49 -28z"/>
<path d="M1502 3678 c6 -16 36 -34 44 -26 3 4 4 14 1 23 -7 17 -51 21 -45 3z
m33 -8 c3 -5 2 -10 -4 -10 -5 0 -13 5 -16 10 -3 6 -2 10 4 10 5 0 13 -4 16
-10z"/>
<path d="M903 3707 c9 -8 17 -22 17 -31 0 -23 -75 -23 -90 2 -10 15 -10 15 -8
-3 3 -17 12 -21 56 -23 50 -3 52 -2 52 22 0 16 -8 29 -22 36 -21 10 -21 10 -5
-3z"/>
<path d="M380 3601 c0 -12 5 -21 12 -21 7 0 5 -7 -5 -18 -22 -24 -7 -44 29
-40 27 3 29 6 29 48 0 43 -1 45 -32 48 -28 3 -33 0 -33 -17z m58 -29 c3 -34
-14 -50 -44 -38 -12 5 -13 8 -2 20 7 8 18 11 23 8 6 -3 2 4 -7 15 -24 26 -23
35 5 31 17 -2 23 -11 25 -36z"/>
<path d="M478 3595 c-17 -38 3 -75 41 -75 16 0 33 5 37 11 4 8 9 8 17 0 18
-18 65 -13 77 8 14 27 13 29 -15 26 -14 -2 -25 1 -25 6 0 5 13 9 29 9 25 0 30
-4 33 -27 2 -17 10 -29 21 -31 14 -3 17 3 15 35 -1 37 -1 37 -5 5 -5 -36 -23
-34 -23 3 0 25 -19 34 -57 27 -14 -3 -23 -12 -23 -22 0 -11 9 -20 23 -23 20
-3 21 -4 3 -12 -12 -5 -26 -3 -39 4 -16 10 -25 10 -44 0 -31 -16 -58 -2 -58
31 0 33 28 47 59 31 18 -10 29 -11 38 -3 9 7 88 10 233 9 l220 -2 3 -36 3 -36
-146 0 c-132 0 -147 2 -156 19 -5 10 -7 23 -4 28 3 6 1 10 -4 10 -14 0 -14
-11 -1 -44 l9 -25 153 2 153 2 0 45 0 45 -229 2 c-147 2 -234 -1 -242 -8 -8
-7 -14 -7 -19 1 -3 5 -20 10 -36 10 -22 0 -32 -7 -41 -25z"/>
<path d="M500 3570 c0 -13 7 -20 20 -20 13 0 20 7 20 20 0 13 -7 20 -20 20
-13 0 -20 -7 -20 -20z m30 0 c0 -5 -4 -10 -10 -10 -5 0 -10 5 -10 10 0 6 5 10
10 10 6 0 10 -4 10 -10z"/>
<path d="M752 3573 c5 -26 38 -29 38 -4 0 15 -6 21 -21 21 -14 0 -19 -5 -17
-17z m28 -3 c0 -5 -2 -10 -4 -10 -3 0 -8 5 -11 10 -3 6 -1 10 4 10 6 0 11 -4
11 -10z"/>
<path d="M3327 3514 c-4 -4 -7 -16 -7 -26 0 -13 7 -18 26 -18 21 0 25 4 22 22
-3 23 -27 35 -41 22z m33 -25 c0 -5 -7 -9 -15 -9 -15 0 -20 12 -9 23 8 8 24
-1 24 -14z"/>
<path d="M3727 3514 c-4 -4 -7 -16 -7 -26 0 -13 8 -18 31 -18 26 0 30 3 27 23
-3 22 -36 36 -51 21z m41 -22 c2 -7 -6 -12 -17 -12 -21 0 -27 11 -14 24 9 9
26 2 31 -12z"/>
<path d="M2568 3478 c-2 -16 -12 -24 -33 -28 -36 -6 -57 -43 -51 -88 8 -51 22
-62 82 -62 l54 0 0 100 c0 99 0 100 -24 100 -18 0 -25 -6 -28 -22z m42 -78 l0
-90 -44 0 c-35 0 -48 5 -60 22 -31 44 -9 104 42 110 19 2 28 9 30 26 2 12 10
22 18 22 11 0 14 -19 14 -90z"/>
<path d="M2537 3414 c-10 -11 -9 -72 2 -78 23 -14 42 7 39 43 -3 34 -24 52
-41 35z m31 -45 c-1 -13 -7 -23 -13 -22 -13 3 -18 30 -11 50 10 24 29 1 24
-28z"/>
<path d="M4620 3416 c0 -104 4 -116 41 -116 22 0 29 5 29 19 0 11 -4 23 -10
26 -5 3 -10 40 -10 81 0 72 -1 74 -25 74 -25 0 -25 -1 -25 -84z m42 2 c2 -40
8 -81 12 -90 6 -14 4 -18 -12 -18 -27 0 -32 18 -32 106 0 57 3 74 14 74 11 0
15 -18 18 -72z"/>
<path d="M1950 3395 c0 -87 2 -95 19 -95 25 0 31 24 21 80 l-9 45 2 -54 c1
-36 -2 -56 -10 -58 -10 -4 -13 17 -13 82 0 83 1 86 22 83 15 -2 26 -17 40 -53
12 -33 17 -40 14 -20 -9 63 -24 85 -56 85 l-30 0 0 -95z"/>
<path d="M2052 3433 l2 -58 3 53 c6 84 23 60 23 -33 0 -77 -2 -85 -19 -85 -12
0 -23 12 -31 33 -23 61 -31 75 -25 42 12 -64 26 -85 56 -85 l29 0 0 95 c0 88
-1 95 -20 95 -18 0 -20 -6 -18 -57z"/>
<path d="M2105 3395 l0 -91 27 -2 c23 -2 29 3 34 25 10 48 14 55 27 51 6 -3
13 -21 15 -42 3 -32 6 -37 25 -34 21 3 22 8 22 93 0 85 -1 90 -22 93 -18 3
-22 -2 -25 -30 -4 -43 -29 -43 -40 0 -7 27 -13 32 -36 30 l-27 -2 0 -91z m55
49 c9 -53 59 -41 60 14 0 15 5 22 13 20 8 -3 12 -29 12 -83 0 -54 -4 -80 -12
-82 -9 -3 -13 6 -13 25 0 60 -56 69 -62 10 -2 -21 -8 -33 -18 -33 -12 0 -16
16 -18 69 -2 38 -1 75 3 83 8 23 30 9 35 -23z"/>
<path d="M2292 3478 c-7 -7 -12 -27 -12 -45 0 -28 5 -35 36 -50 46 -22 44 -39
-2 -35 -32 3 -35 1 -32 -20 6 -43 111 -37 128 7 13 35 -3 69 -39 85 -38 15
-41 35 -4 26 30 -8 48 11 31 31 -13 16 -90 17 -106 1z m92 -4 c24 -9 8 -25
-19 -18 -52 13 -55 -25 -4 -46 78 -33 45 -111 -42 -98 -12 2 -24 9 -27 17 -3
10 3 12 24 7 62 -13 68 29 9 57 -37 18 -47 51 -23 75 13 13 56 16 82 6z"/>
<path d="M3602 3398 l3 -93 53 -3 c46 -3 52 -1 52 17 0 11 5 23 11 27 8 5 10
-1 7 -20 -4 -22 -2 -26 18 -26 28 0 35 22 31 97 -2 44 -5 52 -24 56 -24 4 -33
-14 -33 -71 0 -31 -2 -33 -32 -30 -33 3 -33 3 -38 68 -4 58 -7 65 -28 68 -22
3 -23 2 -20 -90z m38 11 c5 -61 6 -64 33 -67 16 -2 27 -9 27 -18 0 -12 -10
-14 -42 -12 l-43 3 -3 83 c-2 65 0 83 10 80 8 -3 15 -29 18 -69z m126 -25 c4
-36 3 -59 -5 -67 -6 -6 -13 -8 -16 -6 -9 9 -18 97 -12 113 12 32 26 15 33 -40z"/>
<path d="M2914 3465 c-4 -10 -21 -15 -54 -15 -55 0 -70 -13 -77 -65 -7 -54 17
-85 67 -85 21 0 42 5 45 10 9 15 -14 41 -33 38 -8 -2 -19 4 -25 14 -15 23 8
48 44 48 25 0 29 -4 29 -29 0 -16 4 -41 10 -55 8 -21 16 -26 45 -26 38 0 47
18 20 40 -17 14 -21 70 -5 70 16 0 12 28 -7 50 -21 24 -51 26 -59 5z m50 -17
c13 -14 15 -23 8 -26 -18 -6 -14 -73 5 -94 15 -17 15 -18 -10 -18 -31 0 -47
25 -47 74 0 35 -1 36 -40 36 -29 0 -42 -5 -50 -20 -13 -23 -5 -59 13 -61 7 -1
18 -2 24 -3 27 -3 16 -21 -14 -24 -40 -4 -69 33 -58 75 11 44 24 53 75 53 33
0 50 5 54 15 8 21 18 19 40 -7z"/>
<path d="M3320 3377 c0 -76 1 -78 23 -75 20 3 22 8 23 78 2 73 1 75 -22 75
-23 0 -24 -2 -24 -78z m35 -2 c0 -38 -4 -60 -12 -62 -10 -4 -13 13 -13 62 0
49 3 66 13 63 8 -3 12 -25 12 -63z"/>
<path d="M2650 3435 c-6 -8 -12 -35 -12 -60 0 -25 6 -52 12 -60 18 -21 83 -19
103 3 22 24 22 95 1 116 -20 20 -88 21 -104 1z m94 -11 c21 -20 20 -73 -1 -96
-19 -22 -66 -24 -83 -3 -6 8 -12 30 -12 50 0 20 6 42 12 50 16 20 64 19 84 -1z"/>
<path d="M2681 3398 c-14 -39 11 -77 36 -56 23 19 13 78 -13 78 -8 0 -18 -10
-23 -22z m33 -40 c-6 -21 -7 -21 -20 -3 -10 13 -11 23 -2 38 9 18 11 19 20 3
5 -9 6 -26 2 -38z"/>
<path d="M3019 3433 c-8 -9 -14 -35 -14 -58 0 -23 6 -49 14 -58 19 -23 83 -22
104 1 23 26 22 94 -1 115 -24 22 -85 22 -103 0z m93 -10 c22 -20 23 -70 1 -95
-23 -25 -68 -23 -87 4 -46 66 28 144 86 91z"/>
<path d="M3050 3401 c-14 -27 -13 -37 6 -56 29 -28 56 13 38 59 -8 22 -31 20
-44 -3z m35 -42 c-5 -16 -10 -18 -21 -8 -17 14 -18 31 -2 47 16 16 32 -10 23
-39z"/>
<path d="M3160 3373 c0 -71 1 -74 23 -71 18 2 23 11 28 47 3 25 13 47 22 53 9
5 17 17 17 28 0 15 -8 18 -45 18 l-45 0 0 -75z m80 56 c0 -4 -8 -12 -17 -17
-9 -6 -19 -28 -22 -53 -10 -71 -31 -61 -31 14 l0 65 35 0 c19 0 35 -4 35 -9z"/>
<path d="M3394 3436 c-3 -7 -4 -40 -2 -72 3 -51 6 -59 23 -59 17 0 21 8 25 48
7 64 24 64 28 0 3 -44 6 -53 21 -53 23 0 31 19 31 71 0 65 -13 79 -71 79 -33
0 -51 -5 -55 -14z m105 -10 c16 -18 10 -108 -6 -114 -9 -2 -13 10 -13 40 0 51
-12 73 -33 65 -11 -4 -17 -22 -19 -54 -2 -26 -7 -48 -13 -48 -11 0 -20 89 -11
111 7 19 80 18 95 0z"/>
<path d="M3794 3409 c4 -23 13 -57 21 -76 12 -29 19 -34 41 -31 24 3 29 10 45
68 23 83 23 82 -3 78 -16 -2 -26 -14 -34 -43 l-12 -40 -7 30 c-12 52 -14 55
-36 55 -20 0 -21 -4 -15 -41z m39 -12 c10 -41 37 -51 37 -14 0 25 25 66 34 57
3 -3 -3 -33 -13 -65 -13 -46 -22 -60 -36 -60 -22 0 -40 31 -51 89 -9 52 17 45
29 -7z"/>
<path d="M3940 3435 c-7 -8 -15 -34 -17 -58 -4 -33 -1 -46 15 -60 26 -24 95
-20 100 6 3 13 -3 17 -27 17 -17 0 -31 5 -31 10 0 6 16 10 35 10 32 0 35 2 35
29 0 16 -7 37 -16 45 -20 20 -78 21 -94 1z m84 -11 c9 -8 16 -24 16 -35 0 -15
-7 -19 -37 -18 -35 0 -36 1 -15 11 12 6 22 17 22 25 0 9 -8 13 -22 11 -23 -3
-24 -6 -19 -70 1 -13 10 -18 32 -18 17 0 28 -4 24 -10 -10 -16 -57 -12 -77 7
-37 33 -11 113 37 113 13 0 31 -7 39 -16z m-24 -18 c0 -11 -19 -15 -25 -6 -3
5 1 10 9 10 9 0 16 -2 16 -4z"/>
<path d="M4072 3377 c3 -64 5 -72 23 -72 16 0 21 8 23 35 2 19 12 44 21 55 10
11 21 27 24 35 3 8 6 -29 6 -82 1 -97 1 -98 25 -98 18 0 25 6 28 23 2 15 11
23 28 25 14 2 31 9 38 14 16 14 16 112 -1 126 -7 6 -57 11 -115 11 l-103 0 3
-72z m78 55 c0 -5 -9 -17 -19 -27 -11 -9 -21 -33 -23 -54 -5 -59 -23 -41 -26
27 l-3 62 36 0 c19 0 35 -4 35 -8z m128 -4 c16 -16 15 -93 0 -106 -7 -5 -24
-12 -38 -14 -17 -2 -26 -10 -28 -25 -2 -13 -10 -23 -18 -23 -11 0 -14 18 -14
83 0 46 3 87 7 90 11 12 78 8 91 -5z"/>
<path d="M4222 3408 c-26 -26 -7 -86 23 -75 12 5 15 17 13 44 -3 39 -16 51
-36 31z m26 -39 c-1 -13 -7 -23 -13 -22 -13 3 -18 30 -11 50 10 24 29 1 24
-28z"/>
<path d="M4337 3432 c-23 -26 -22 -94 1 -115 21 -19 64 -22 93 -7 15 9 19 22
19 63 0 29 -5 58 -12 65 -19 19 -82 15 -101 -6z m91 -4 c7 -7 12 -31 12 -55 0
-44 -17 -63 -56 -63 -47 0 -72 74 -37 112 18 20 63 24 81 6z"/>
<path d="M4367 3414 c-12 -12 -8 -61 6 -72 21 -18 39 2 35 39 -3 32 -24 49
-41 33z m33 -39 c0 -13 -4 -27 -10 -30 -11 -7 -25 39 -15 55 10 16 25 2 25
-25z"/>
<path d="M4486 3434 c-10 -9 -16 -33 -16 -59 0 -53 19 -75 65 -75 18 0 41 7
49 16 19 19 22 104 4 122 -17 17 -84 15 -102 -4z m92 -6 c17 -17 15 -84 -4
-102 -8 -9 -26 -16 -39 -16 -33 0 -55 26 -55 65 0 18 7 41 16 49 18 19 65 21
82 4z"/>
<path d="M4514 3407 c-3 -9 -4 -28 -2 -44 2 -20 8 -28 23 -28 17 0 20 7 20 40
0 30 -4 41 -18 43 -9 2 -20 -3 -23 -11z m34 -38 c-1 -13 -7 -23 -13 -22 -13 3
-18 30 -11 50 10 24 29 1 24 -28z"/>
<path d="M1447 3424 c-4 -4 -7 -20 -7 -36 l0 -29 63 3 c60 3 62 4 65 31 3 27
2 28 -40 26 -24 -1 -50 1 -59 5 -8 4 -18 3 -22 0z m51 -33 c10 -14 12 -14 10
-1 -2 10 7 16 25 18 22 3 27 -1 27 -17 0 -19 -6 -21 -55 -21 -52 0 -55 1 -55
25 0 19 4 23 18 18 9 -4 23 -14 30 -22z"/>
<path d="M377 3283 c-4 -3 -7 -39 -7 -80 0 -71 1 -74 28 -84 36 -14 131 -6
143 12 10 16 12 119 3 143 -5 13 -22 16 -83 16 -43 0 -81 -3 -84 -7z m161 -73
c4 -76 -8 -90 -76 -90 -71 0 -82 11 -82 84 0 34 3 66 7 70 4 4 39 5 78 4 l70
-3 3 -65z"/>
<path d="M416 3244 c-9 -22 -7 -94 2 -94 4 0 7 21 7 47 0 47 1 48 33 51 39 4
44 -15 5 -20 -22 -2 -29 -9 -31 -31 -3 -26 -1 -28 24 -25 15 2 29 9 30 16 1 7
0 8 -3 2 -9 -18 -43 -11 -43 9 0 15 7 19 31 19 30 -1 31 -3 25 -36 -4 -25 -2
-32 6 -24 6 6 8 28 4 56 -7 45 -8 46 -46 46 -25 0 -40 -5 -44 -16z"/>
<path d="M580 3219 c0 -42 11 -47 110 -50 l95 -4 3 28 c3 25 1 27 -35 29 -93
4 -110 6 -140 13 -30 7 -33 5 -33 -16z m100 -4 c96 -3 102 -5 98 -22 -2 -14
-14 -16 -68 -14 -117 5 -115 4 -118 29 -3 20 -1 22 25 15 15 -4 44 -7 63 -8z"/>
<path d="M3500 3215 c0 -20 5 -25 25 -25 20 0 25 5 25 25 0 20 -5 25 -25 25
-20 0 -25 -5 -25 -25z m40 0 c0 -8 -7 -15 -15 -15 -8 0 -15 7 -15 15 0 8 7 15
15 15 8 0 15 -7 15 -15z"/>
<path d="M4914 3225 c-8 -19 3 -35 26 -35 19 0 30 17 23 38 -6 17 -42 15 -49
-3z m41 -4 c7 -12 -12 -24 -25 -16 -11 7 -4 25 10 25 5 0 11 -4 15 -9z"/>
<path d="M2046 3213 c-9 -34 0 -173 13 -186 18 -18 41 17 41 65 0 21 5 38 10
38 6 0 10 -22 10 -49 0 -48 10 -63 38 -54 8 3 12 26 12 68 0 54 -3 66 -20 75
-11 6 -28 10 -37 8 -10 -2 -18 4 -19 12 -3 36 -5 40 -23 40 -11 0 -22 -8 -25
-17z m39 -14 c1 -24 14 -37 33 -32 29 7 43 -20 40 -79 -4 -68 -22 -69 -26 0
-3 44 -6 52 -23 52 -16 0 -19 -7 -19 -42 0 -45 -14 -78 -26 -65 -9 8 -15 167
-7 180 7 12 28 2 28 -14z"/>
<path d="M3180 3207 c0 -19 -7 -25 -37 -33 -34 -8 -39 -13 -47 -50 -6 -30 -4
-49 6 -70 12 -26 18 -29 62 -29 26 0 52 3 57 6 6 3 8 48 7 100 -3 89 -4 94
-25 97 -18 3 -23 -1 -23 -21z m35 -81 l0 -88 -42 -4 c-37 -3 -45 0 -59 22 -14
20 -15 33 -8 62 7 30 15 39 44 48 24 8 36 19 38 33 2 12 9 20 15 18 8 -2 12
-33 12 -91z"/>
<path d="M3137 3120 c-8 -31 3 -60 23 -60 22 0 34 31 25 60 -3 11 -15 20 -25
20 -9 0 -20 -9 -23 -20z m38 -20 c0 -27 -20 -38 -28 -15 -8 20 3 47 17 42 6
-2 11 -14 11 -27z"/>
<path d="M3677 3223 c-4 -3 -7 -49 -8 -102 0 -68 -3 -89 -9 -73 -5 12 -14 22
-20 22 -5 0 -10 14 -10 30 0 17 5 30 10 30 14 0 12 32 -4 53 -16 21 -52 22
-63 3 -5 -10 -29 -16 -68 -18 l-60 -3 -2 -40 c-1 -40 -1 -40 5 -6 4 19 13 36
21 39 10 3 12 -3 7 -27 -3 -17 -9 -44 -12 -61 -3 -16 -10 -32 -15 -36 -16 -9
-39 16 -39 42 0 35 -24 29 -35 -8 -19 -63 -47 -42 -60 46 -6 39 -5 48 6 44 8
-2 15 -19 17 -36 4 -35 32 -46 32 -13 0 58 34 69 45 15 8 -47 16 -39 8 9 -5
30 -10 37 -29 37 -19 0 -25 -7 -31 -37 l-7 -38 -6 35 c-4 27 -10 36 -27 38
-27 4 -29 -10 -12 -87 15 -71 56 -80 77 -18 l11 32 -3 -32 c-1 -18 0 -31 2
-28 3 2 13 0 23 -5 30 -17 48 -1 55 48 12 83 23 92 23 21 1 -66 9 -82 39 -72
8 3 12 27 12 71 1 63 2 66 15 42 8 -14 14 -42 15 -62 0 -54 16 -60 132 -49 4
1 8 22 10 49 4 60 22 61 26 2 4 -54 15 -68 38 -49 12 10 15 26 12 71 -5 66 -6
68 -44 72 -23 2 -30 9 -32 30 -3 25 -29 36 -45 19z m35 -30 c2 -23 8 -28 31
-28 16 -1 32 -7 38 -15 10 -17 12 -80 3 -104 -11 -30 -24 -16 -24 27 0 50 -12
72 -33 64 -11 -4 -17 -22 -19 -54 -2 -26 -7 -48 -13 -48 -10 0 -20 148 -11
172 9 22 25 14 28 -14z m-83 -25 c10 -16 10 -23 2 -26 -18 -6 -13 -73 7 -88
16 -12 16 -13 -1 -19 -25 -10 -47 12 -48 49 0 17 -4 40 -8 51 -10 23 4 55 22
55 7 0 18 -10 26 -22z m-91 -70 c-2 -35 -7 -63 -13 -63 -5 0 -11 28 -13 63 -2
51 0 62 13 62 13 0 15 -11 13 -62z"/>
<path d="M3960 3207 c0 -20 -6 -26 -34 -31 -41 -8 -62 -48 -52 -100 9 -46 25
-57 77 -52 24 3 48 5 52 5 4 1 6 45 5 99 -3 92 -4 97 -25 100 -19 3 -23 -1
-23 -21z m35 -81 l0 -88 -42 -4 c-34 -3 -45 0 -57 18 -34 48 -4 118 49 118 20
0 25 5 25 26 0 16 5 24 13 22 8 -3 12 -31 12 -92z"/>
<path d="M3920 3100 c0 -37 2 -41 23 -38 18 2 22 9 22 38 0 29 -4 36 -22 38
-21 3 -23 -1 -23 -38z m35 0 c0 -13 -6 -25 -12 -27 -9 -3 -13 6 -13 27 0 21 4
30 13 28 6 -3 12 -15 12 -28z"/>
<path d="M1940 3175 c-10 -20 -11 -28 -2 -37 7 -7 12 -29 12 -49 0 -45 21 -69
60 -69 24 0 27 3 22 23 -3 12 -11 26 -19 30 -17 11 -17 42 2 57 20 17 19 32
-5 53 -29 24 -54 21 -70 -8z m61 -4 c17 -16 18 -19 4 -31 -19 -16 -20 -69 0
-76 21 -8 19 -34 -3 -34 -29 0 -42 21 -42 66 0 24 -4 46 -10 49 -10 6 9 45 23
45 4 0 17 -8 28 -19z"/>
<path d="M2570 3185 c-17 -20 3 -135 27 -152 37 -28 78 -6 49 26 -19 21 -21
54 -4 81 24 38 -43 80 -72 45z m54 -14 c11 -12 14 -21 7 -26 -18 -10 -13 -76
7 -91 16 -12 16 -13 -1 -20 -28 -10 -49 17 -58 77 -11 72 9 99 45 60z"/>
<path d="M4560 3184 c-14 -7 -40 -14 -57 -14 l-33 0 0 -69 c0 -46 4 -70 13
-73 25 -10 37 4 37 42 0 29 5 42 20 50 29 15 40 5 40 -39 0 -20 5 -42 12 -49
14 -14 47 -15 67 -3 11 7 9 13 -8 30 -24 24 -28 66 -6 75 20 7 19 22 -5 46
-23 23 -44 24 -80 4z m70 -14 c17 -17 18 -21 5 -26 -22 -9 -20 -73 3 -90 16
-12 16 -13 -1 -19 -27 -11 -47 13 -47 57 0 44 -18 57 -55 40 -19 -9 -24 -20
-27 -54 -4 -62 -23 -48 -26 21 l-3 58 50 7 c28 4 53 11 56 16 9 15 23 12 45
-10z"/>
<path d="M4809 3179 c-8 -16 -8 -28 0 -46 6 -13 11 -39 11 -58 0 -38 22 -56
63 -53 18 2 23 7 19 21 -3 10 -11 21 -18 24 -16 6 -19 63 -4 63 17 0 11 36 -8
53 -25 23 -49 21 -63 -4z m57 -10 c14 -16 15 -23 7 -26 -20 -7 -16 -74 5 -89
16 -12 16 -13 -1 -19 -25 -10 -47 12 -48 49 0 17 -4 40 -8 51 -9 20 3 55 18
55 4 0 16 -10 27 -21z"/>
<path d="M2228 3172 l-38 -3 0 -69 c0 -46 4 -70 13 -73 25 -8 37 6 37 44 0 28
6 42 20 51 20 13 27 44 13 50 -5 2 -25 2 -45 0z m27 -39 c-10 -7 -21 -31 -24
-53 -9 -62 -26 -52 -29 17 l-3 62 33 3 c38 4 49 -9 23 -29z"/>
<path d="M2322 3173 c-23 -9 -44 -63 -37 -94 9 -41 46 -63 91 -55 43 9 45 41
2 41 -14 0 -30 3 -34 8 -4 4 9 7 29 7 42 0 55 23 36 63 -14 31 -52 44 -87 30z
m68 -25 c30 -32 22 -52 -23 -56 -23 -2 -37 -8 -37 -17 0 -15 27 -28 41 -19 5
3 14 2 20 -2 15 -9 -9 -24 -38 -24 -23 0 -63 43 -63 67 0 25 40 73 60 73 11 0
29 -10 40 -22z"/>
<path d="M2343 3143 c-21 -7 -15 -33 7 -33 11 0 20 6 20 14 0 18 -11 25 -27
19z m17 -13 c0 -5 -5 -10 -11 -10 -5 0 -7 5 -4 10 3 6 8 10 11 10 2 0 4 -4 4
-10z"/>
<path d="M2448 3169 c-13 -7 -15 -15 -9 -32 6 -15 4 -29 -5 -42 -15 -20 -10
-55 10 -67 6 -4 31 -5 56 -3 l45 3 0 62 c0 49 -4 65 -20 76 -22 16 -53 18 -77
3z m76 -21 c9 -12 16 -43 16 -68 l0 -45 -45 -2 c-36 -2 -47 2 -56 18 -14 27
15 62 47 56 19 -3 21 -1 14 17 -4 12 -16 21 -26 22 -35 2 -39 4 -24 14 25 16
58 11 74 -12z m-39 -18 c3 -6 -4 -10 -17 -10 -18 0 -20 2 -8 10 19 12 18 12
25 0z"/>
<path d="M2467 3084 c-10 -11 3 -24 24 -24 10 0 19 7 19 15 0 15 -31 21 -43 9z
m30 -10 c-3 -3 -12 -4 -19 -1 -8 3 -5 6 6 6 11 1 17 -2 13 -5z"/>
<path d="M2693 3170 c-46 -19 -40 -127 9 -144 37 -13 78 0 78 25 0 17 -5 20
-21 16 -11 -3 -28 -3 -37 1 -12 5 -4 9 23 12 34 4 40 9 43 30 6 48 -46 80 -95
60z m68 -21 c28 -28 21 -53 -16 -57 -17 -2 -34 -8 -40 -13 -14 -14 15 -30 43
-24 17 4 23 2 20 -7 -3 -7 -18 -14 -35 -16 -56 -6 -86 75 -43 118 25 25 45 25
71 -1z"/>
<path d="M2713 3143 c-23 -8 -14 -33 12 -33 15 0 25 6 25 14 0 16 -19 25 -37
19z m22 -13 c3 -5 -1 -10 -10 -10 -9 0 -13 5 -10 10 3 6 8 10 10 10 2 0 7 -4
10 -10z"/>
<path d="M2848 3173 l-38 -4 0 -69 c0 -46 4 -70 13 -73 26 -9 37 6 37 48 0 24
5 47 10 50 6 4 10 -11 10 -38 0 -49 22 -79 42 -59 18 18 10 124 -9 140 -9 6
-19 11 -22 10 -3 -1 -23 -3 -43 -5z m60 -15 c6 -7 12 -38 13 -68 2 -43 0 -55
-11 -55 -11 0 -16 15 -18 53 -3 44 -6 53 -20 50 -12 -2 -18 -17 -22 -51 -7
-69 -24 -63 -28 10 l-3 62 33 4 c18 2 36 5 39 5 4 1 11 -4 17 -10z"/>
<path d="M2980 3167 c-21 -10 -25 -21 -28 -64 -3 -44 0 -53 20 -67 39 -28 98
-18 98 16 0 17 -5 20 -30 15 -16 -4 -32 -2 -35 3 -3 5 11 10 32 12 30 2 38 8
43 28 11 47 -51 83 -100 57z m71 -18 c30 -30 21 -53 -24 -57 -23 -2 -37 -8
-37 -17 0 -17 22 -25 50 -18 17 4 21 2 18 -8 -7 -21 -57 -23 -79 -3 -28 25
-26 88 3 108 30 21 44 20 69 -5z"/>
<path d="M2997 3143 c-16 -15 -6 -33 18 -33 28 0 34 24 9 34 -19 7 -19 7 -27
-1z m28 -13 c3 -5 -1 -10 -10 -10 -9 0 -13 5 -10 10 3 6 8 10 10 10 2 0 7 -4
10 -10z"/>
<path d="M4053 3170 c-26 -11 -39 -66 -26 -106 16 -49 113 -60 113 -13 0 17
-4 20 -24 15 -14 -3 -28 -2 -31 4 -4 6 8 10 29 10 34 0 36 2 36 34 0 53 -43
78 -97 56z m69 -17 c10 -9 18 -27 18 -40 0 -20 -5 -23 -35 -23 -23 0 -35 -5
-35 -14 0 -17 25 -27 46 -19 12 4 15 2 12 -8 -2 -8 -16 -15 -31 -17 -57 -7
-90 75 -47 118 24 24 47 25 72 3z"/>
<path d="M4071 3136 c-13 -15 -4 -26 21 -26 21 0 24 25 4 33 -8 3 -19 0 -25
-7z m24 -6 c3 -5 -1 -10 -10 -10 -9 0 -13 5 -10 10 3 6 8 10 10 10 2 0 7 -4
10 -10z"/>
<path d="M4203 3173 l-33 -4 0 -100 c0 -98 0 -100 23 -97 14 2 23 11 25 26 2
13 10 22 20 22 10 0 28 7 40 16 18 12 22 25 22 64 0 39 -4 52 -22 64 -12 9
-27 15 -33 14 -5 0 -25 -3 -42 -5z m69 -20 c39 -36 13 -123 -38 -123 -16 0
-24 -7 -26 -22 -2 -12 -9 -23 -15 -26 -10 -3 -13 19 -13 87 l0 90 28 4 c15 2
31 5 36 6 5 0 18 -6 28 -16z"/>
<path d="M4210 3100 c0 -37 2 -41 23 -38 18 2 22 9 22 38 0 29 -4 36 -22 38
-21 3 -23 -1 -23 -38z m35 0 c0 -13 -6 -25 -12 -27 -9 -3 -13 6 -13 27 0 21 4
30 13 28 6 -3 12 -15 12 -28z"/>
<path d="M4343 3165 c-33 -23 -33 -107 -1 -129 12 -9 32 -16 43 -16 43 0 65
27 65 79 0 29 -6 53 -13 60 -25 20 -71 23 -94 6z m75 -11 c43 -30 20 -124 -31
-124 -33 0 -57 29 -57 68 0 62 42 88 88 56z"/>
<path d="M4360 3100 c0 -37 2 -41 23 -38 18 2 22 9 22 38 0 29 -4 36 -22 38
-21 3 -23 -1 -23 -38z m35 0 c0 -13 -6 -25 -12 -27 -9 -3 -13 6 -13 27 0 21 4
30 13 28 6 -3 12 -15 12 -28z"/>
<path d="M4691 3171 c-19 -12 -6 -45 15 -37 9 3 21 3 26 0 6 -4 -4 -12 -23
-18 -26 -8 -35 -17 -37 -37 -5 -43 22 -61 77 -53 25 4 47 8 49 9 4 3 -14 125
-20 130 -11 11 -73 15 -87 6z m68 -10 c11 -7 36 -110 28 -117 -1 -1 -21 -5
-44 -9 -39 -6 -44 -5 -54 19 -15 33 4 60 38 53 17 -3 23 0 23 14 0 11 -6 20
-12 21 -7 0 -17 2 -23 3 -5 2 -14 3 -18 4 -5 0 -5 6 -2 11 8 12 45 13 64 1z"/>
<path d="M4710 3075 c0 -8 9 -15 20 -15 11 0 20 7 20 15 0 8 -9 15 -20 15 -11
0 -20 -7 -20 -15z"/>
<path d="M5010 3167 c-21 -10 -25 -21 -28 -64 -3 -44 0 -53 20 -67 53 -38 111
-5 111 63 0 23 -7 49 -14 56 -22 21 -61 27 -89 12z m71 -15 c42 -35 18 -122
-34 -122 -55 0 -81 92 -35 124 29 21 41 20 69 -2z"/>
<path d="M5024 3126 c-11 -28 0 -61 21 -61 16 0 20 7 20 35 0 25 -5 36 -18 38
-9 2 -20 -3 -23 -12z m36 -26 c0 -25 -18 -36 -26 -16 -8 21 3 49 16 41 5 -3
10 -15 10 -25z"/>
<path d="M5170 3171 l-35 -6 -3 -61 c-2 -45 1 -64 13 -74 25 -20 45 5 45 56 0
24 5 44 10 44 6 0 10 -22 10 -49 0 -48 10 -63 38 -54 8 3 12 26 12 68 0 53 -3
66 -19 75 -11 5 -23 9 -28 9 -4 -1 -24 -4 -43 -8z m69 -15 c14 -17 11 -122 -4
-119 -5 2 -11 25 -13 53 -3 41 -6 50 -22 50 -16 0 -19 -9 -22 -52 -2 -39 -7
-53 -18 -53 -12 0 -15 13 -15 60 0 58 1 60 30 66 47 10 52 10 64 -5z"/>
<path d="M4910 3103 c10 -111 50 -113 50 -2 l0 69 -28 -2 c-27 -2 -27 -2 -22
-65z m40 -8 c0 -62 -11 -84 -24 -49 -8 21 -8 99 1 107 17 17 23 2 23 -58z"/>
<path d="M374 3077 c-3 -8 -4 -47 -2 -88 l3 -74 73 -3 c46 -2 79 2 88 9 18 15
19 140 2 157 -17 17 -157 16 -164 -1z m154 -9 c17 -17 16 -123 -2 -137 -9 -7
-40 -11 -78 -9 l-63 3 -3 64 c-2 35 -1 70 2 77 7 18 127 19 144 2z"/>
<path d="M411 3046 c-7 -8 -11 -34 -9 -58 l3 -43 51 -3 c59 -3 68 6 58 68 -5
28 -12 40 -28 44 -36 10 -63 7 -75 -8z m77 -4 c7 -5 13 -26 15 -48 l2 -39 -45
0 c-44 0 -45 1 -48 33 -2 19 -1 40 2 48 6 15 53 19 74 6z"/>
<path d="M436 2991 c-11 -4 -15 -10 -10 -13 5 -2 20 1 34 8 26 14 8 18 -24 5z"/>
<path d="M580 2998 c0 -32 -11 -30 145 -30 196 0 187 -2 183 30 l-3 27 -162 0
-163 0 0 -27z m318 -2 c3 -14 -2 -17 -25 -16 -15 1 -31 1 -35 0 -8 -1 -202 -2
-233 -1 -8 1 -15 9 -15 19 0 16 13 17 152 17 138 -1 153 -3 156 -19z"/>
<path d="M320 3000 c0 -15 5 -20 18 -18 9 2 17 10 17 18 0 8 -8 16 -17 18 -13
2 -18 -3 -18 -18z m30 0 c0 -5 -4 -10 -10 -10 -5 0 -10 5 -10 10 0 6 5 10 10
10 6 0 10 -4 10 -10z"/>
<path d="M2652 2958 c-18 -18 -15 -26 17 -42 l28 -15 -1 32 c-1 34 -22 47 -44
25z m32 -28 c-6 -6 -15 -6 -24 0 -13 9 -13 11 0 20 18 11 39 -5 24 -20z"/>
<path d="M3264 2956 c-9 -23 1 -42 24 -48 16 -5 19 0 18 26 -1 34 -31 50 -42
22z m31 -26 c-5 -8 -11 -8 -17 -2 -6 6 -7 16 -3 22 5 8 11 8 17 2 6 -6 7 -16
3 -22z"/>
<path d="M3688 2852 l-3 -98 27 -2 c22 -2 27 2 30 25 l4 28 12 -27 c8 -20 19
-28 37 -28 29 0 29 0 10 46 -10 25 -12 41 -5 54 14 26 12 50 -3 50 -18 0 -47
-32 -47 -51 0 -8 8 -2 18 14 18 30 38 37 27 10 -16 -39 -16 -52 0 -83 15 -30
15 -32 -1 -28 -9 1 -22 17 -28 34 -9 26 -13 30 -23 18 -7 -7 -13 -23 -13 -34
0 -13 -5 -20 -12 -18 -9 3 -14 33 -16 91 -2 72 0 87 12 87 11 0 16 -14 19 -52
l3 -53 2 58 c2 54 1 57 -22 57 -24 0 -25 -2 -28 -98z"/>
<path d="M3457 2913 c-11 -11 -30 -16 -53 -15 -59 4 -74 -5 -74 -44 0 -29 5
-36 33 -48 l32 -14 -29 -1 c-16 -1 -35 -9 -42 -18 -12 -16 -13 -9 -14 50 0 65
-1 67 -25 67 -24 0 -25 -2 -25 -69 l0 -69 53 -1 c28 -1 62 -2 75 -2 12 -1 29
4 37 11 17 14 20 56 5 65 -6 4 -8 10 -5 15 3 4 -3 6 -14 3 -10 -3 -22 0 -25 6
-5 7 5 11 28 11 38 0 42 -7 48 -75 l3 -30 103 -3 102 -2 0 59 c0 72 -15 91
-71 91 -32 0 -39 -3 -39 -20 0 -15 7 -20 25 -20 14 0 25 -5 25 -11 0 -7 -10
-9 -24 -7 -28 6 -48 -26 -39 -62 5 -20 2 -21 -33 -18 -37 3 -39 5 -45 43 -3
22 -8 49 -12 61 -5 14 -1 26 10 37 17 15 20 14 41 -8 18 -19 19 -24 7 -29 -20
-7 -20 -70 0 -86 9 -8 15 -9 15 -2 0 6 -4 14 -10 17 -13 8 -13 52 0 60 5 3 15
15 21 27 8 14 8 18 0 14 -6 -4 -18 2 -28 14 -21 24 -34 25 -56 3z m-42 -33 c4
-6 -5 -10 -19 -10 -35 0 -34 -25 1 -42 15 -7 29 -21 31 -30 4 -22 -38 -49 -66
-41 -32 8 -27 23 8 23 17 0 30 4 30 10 0 5 -13 16 -30 25 -31 16 -42 58 -17
68 21 9 56 7 62 -3z m233 -2 c7 -7 12 -36 12 -65 l0 -53 -45 0 c-35 0 -47 5
-55 21 -15 27 3 49 39 48 15 -1 19 -3 9 -6 -23 -6 -31 -32 -12 -40 24 -9 36
11 29 51 -6 29 -12 36 -31 36 -13 0 -24 5 -24 10 0 14 64 12 78 -2z m-350 -55
c-4 -81 -28 -85 -28 -4 0 48 3 61 15 61 13 0 15 -11 13 -57z m317 -23 c-3 -5
-11 -10 -16 -10 -6 0 -7 5 -4 10 3 6 11 10 16 10 6 0 7 -4 4 -10z"/>
<path d="M2625 2901 c-24 -5 -31 -13 -39 -46 l-9 -40 -11 40 c-9 29 -17 40
-31 40 -17 0 -20 -6 -18 -37 1 -20 9 -53 17 -73 13 -31 20 -36 43 -33 23 3 29
10 41 53 26 91 31 94 31 17 l1 -73 33 4 c17 2 44 0 59 -5 31 -11 82 8 84 32 3
32 7 34 13 5 6 -29 8 -30 66 -30 l60 0 -4 55 c-5 79 -13 90 -66 90 -38 0 -45
-3 -45 -20 0 -15 7 -20 25 -20 14 0 25 -5 25 -11 0 -7 -10 -9 -24 -7 -16 3
-27 0 -31 -9 -6 -16 -31 -12 -28 5 1 5 -6 8 -16 5 -10 -3 -22 0 -25 6 -5 7 3
11 19 11 20 0 26 4 23 18 -2 12 -14 18 -38 20 -57 4 -66 -9 -58 -82 1 -8 7
-12 14 -9 7 2 21 0 31 -6 15 -9 12 -10 -19 -11 -26 0 -38 -5 -41 -17 -3 -10
-5 12 -6 50 -1 65 -2 67 -27 67 -14 0 -23 4 -19 10 3 6 5 9 3 9 -2 -1 -16 -4
-33 -8z m-65 -73 c0 -40 23 -31 35 15 11 42 31 47 26 7 -9 -70 -43 -108 -69
-77 -15 18 -34 96 -26 109 11 17 34 -20 34 -54z m245 52 c4 -6 -5 -10 -19 -10
-33 0 -35 -27 -2 -39 35 -14 40 -48 10 -68 -21 -14 -29 -14 -52 -2 l-27 13 30
4 c45 5 51 18 17 36 -35 18 -43 34 -30 59 9 19 63 24 73 7z m133 -2 c6 -7 12
-35 13 -63 l3 -50 -49 0 c-49 0 -50 1 -50 30 0 25 5 31 30 35 38 7 40 34 3 38
-16 2 -28 8 -28 13 0 14 66 11 78 -3z m-250 -55 c-4 -81 -28 -85 -28 -4 0 48
3 61 15 61 13 0 15 -11 13 -57z"/>
<path d="M2898 2822 c-22 -4 -24 -42 -3 -42 16 0 30 23 23 38 -1 4 -11 6 -20
4z m12 -16 c0 -3 -4 -8 -10 -11 -5 -3 -10 -1 -10 4 0 6 5 11 10 11 6 0 10 -2
10 -4z"/>
<path d="M1960 2880 c-27 -27 -27 -90 0 -115 42 -38 120 -11 120 42 0 13 -7
39 -14 58 -13 31 -19 35 -50 35 -23 0 -44 -8 -56 -20z m95 -21 c21 -40 16 -68
-17 -92 l-28 -21 -27 21 c-53 38 -34 123 27 123 23 0 33 -7 45 -31z"/>
<path d="M1986 2844 c-10 -26 4 -64 24 -64 22 0 34 31 25 60 -8 24 -40 27 -49
4z m39 -24 c0 -13 -5 -25 -12 -27 -13 -5 -27 32 -18 47 11 18 30 5 30 -20z"/>
<path d="M2078 2894 c-3 -3 -2 -17 3 -32 5 -15 14 -46 20 -70 9 -40 12 -43 41
-40 29 3 32 7 49 68 18 67 17 80 -6 80 -20 0 -37 -36 -32 -68 4 -25 4 -25 6 4
1 30 22 60 33 48 3 -3 -2 -31 -11 -62 -15 -48 -21 -57 -41 -57 -20 0 -25 7
-37 59 -7 33 -11 61 -9 64 10 9 26 -10 26 -31 0 -12 5 -29 11 -37 7 -11 8 -4
3 25 -4 22 -12 43 -18 47 -13 9 -31 10 -38 2z"/>
<path d="M2231 2887 c-15 -19 -25 -72 -17 -101 12 -47 116 -58 116 -12 0 19
-5 22 -37 18 -29 -2 -34 -1 -23 7 8 6 27 11 43 11 23 0 27 4 27 28 0 16 -8 36
-18 45 -22 20 -75 22 -91 4z m81 -14 c25 -22 24 -53 -3 -53 -28 0 -61 -19 -54
-31 4 -5 19 -9 36 -9 34 0 39 -15 7 -23 -22 -6 -57 8 -70 27 -13 19 -9 60 8
84 18 26 50 28 76 5z"/>
<path d="M2257 2864 c-4 -4 -7 -15 -7 -25 0 -15 4 -17 23 -10 12 5 22 14 22
22 0 15 -27 24 -38 13z m23 -14 c0 -5 -5 -10 -11 -10 -5 0 -7 5 -4 10 3 6 8
10 11 10 2 0 4 -4 4 -10z"/>
<path d="M2362 2886 c-7 -13 -11 -95 -5 -118 5 -22 39 -24 47 -2 3 9 6 28 6
42 0 16 8 32 20 40 11 7 20 21 20 32 0 16 -7 19 -41 17 -22 -1 -43 -6 -47 -11z
m78 -6 c0 -5 -9 -15 -19 -22 -12 -9 -21 -28 -23 -53 -2 -28 -8 -40 -18 -40
-12 0 -15 13 -15 55 0 30 1 57 2 60 3 10 73 9 73 0z"/>
<path d="M3044 2885 c-3 -7 -4 -39 -2 -71 3 -52 5 -59 26 -62 20 -3 22 1 22
42 0 25 5 48 10 51 6 4 10 -8 10 -29 0 -47 9 -66 31 -66 14 0 19 9 21 47 4 67
28 70 28 3 0 -48 2 -51 23 -48 19 3 22 10 25 49 2 25 -1 57 -7 71 -9 24 -12
25 -96 25 -59 0 -88 -4 -91 -12z m177 -17 c13 -25 7 -100 -8 -106 -9 -2 -13
10 -13 42 0 34 -5 48 -16 53 -21 8 -34 -14 -34 -60 0 -57 -24 -42 -28 17 -3
38 -6 47 -20 44 -13 -2 -18 -16 -20 -51 -4 -63 -26 -58 -30 8 -5 71 -3 72 83
72 64 0 77 -3 86 -19z"/>
<path d="M3839 2883 c-8 -9 -14 -35 -14 -59 0 -55 22 -78 71 -77 40 1 43 3 48
30 4 16 -1 18 -32 15 -28 -2 -33 -1 -22 7 8 6 25 11 38 11 18 0 22 6 22 29 0
16 -7 37 -16 45 -20 21 -78 20 -95 -1z m85 -9 c28 -27 20 -51 -19 -58 -49 -9
-47 -36 2 -36 38 0 36 -12 -4 -24 -28 -9 -73 32 -73 66 0 56 58 88 94 52z"/>
<path d="M3868 2847 c-4 -20 -1 -23 19 -19 14 3 23 11 23 23 0 28 -37 25 -42
-4z m32 3 c0 -5 -4 -10 -10 -10 -5 0 -10 5 -10 10 0 6 5 10 10 10 6 0 10 -4
10 -10z"/>
<path d="M387 2884 c-16 -5 -17 -16 -15 -87 l3 -82 79 -3 c57 -2 82 1 87 10
11 17 11 129 0 147 -9 14 -120 24 -154 15z m128 -14 c25 -9 26 -13 23 -77 l-3
-68 -75 0 -75 0 -3 69 c-2 49 1 72 10 77 18 12 91 11 123 -1z"/>
<path d="M792 2798 l3 -33 119 0 c91 0 123 3 134 15 10 9 11 15 3 18 -19 6
-12 21 9 19 14 -1 20 -8 20 -24 0 -18 6 -22 28 -22 15 0 54 -2 87 -5 70 -6 90
2 80 33 -7 23 -4 23 -275 25 -143 1 -160 0 -160 -16 0 -5 6 -5 17 1 20 11 163
3 178 -10 5 -6 5 -13 -3 -21 -9 -9 -12 -8 -12 8 0 16 -2 17 -10 4 -7 -11 -10
-12 -10 -2 0 11 -3 10 -14 -1 -11 -11 -38 -14 -98 -13 -78 1 -83 2 -86 24 -2
12 2 22 8 22 7 0 9 -7 6 -16 -3 -8 -2 -12 4 -9 18 11 10 35 -11 35 -17 0 -20
-5 -17 -32z m430 -2 c5 -7 8 -6 8 4 0 13 1 13 10 0 8 -13 10 -13 10 0 0 10 3
11 11 3 6 -6 8 -16 5 -21 -9 -14 -56 -7 -67 9 -7 11 -9 10 -9 -5 0 -15 -5 -17
-22 -11 -13 4 -35 8 -50 9 -26 1 -36 15 -22 28 9 10 119 -4 126 -16z"/>
<path d="M576 2803 c-10 -26 3 -31 102 -35 l93 -3 -3 25 c-3 24 -5 25 -94 27
-78 3 -93 1 -98 -14z m182 -14 c2 -11 -12 -13 -75 -11 -88 3 -107 7 -98 22 10
17 169 7 173 -11z"/>
<path d="M374 2667 c-3 -8 -4 -45 -2 -83 l3 -69 79 -3 c57 -2 82 1 87 10 10
15 12 119 3 142 -8 21 -162 24 -170 3z m161 -72 l0 -70 -75 0 -75 0 -3 59 c-5
87 -4 87 80 84 l73 -3 0 -70z"/>
<path d="M431 2623 c1 -10 5 -29 10 -43 7 -21 8 -19 4 13 -3 31 -1 37 15 37
16 0 17 -4 9 -32 -11 -41 -11 -44 0 -32 5 5 12 24 16 42 6 31 5 32 -24 32 -23
0 -31 -4 -30 -17z"/>
<path d="M800 2602 c0 -27 4 -31 38 -36 20 -2 109 -4 197 -3 153 2 160 3 160
22 0 17 -9 21 -50 26 -27 4 -62 4 -76 2 -14 -3 -43 0 -63 5 -48 14 -66 6 -67
-27 0 -25 -1 -25 -11 -4 -7 14 -22 23 -47 26 -20 3 -46 8 -58 12 -20 7 -23 4
-23 -23z m109 -9 c10 -3 11 -7 3 -15 -6 -6 -27 -8 -56 -4 -35 6 -46 12 -46 25
0 18 18 17 99 -6z m184 9 c41 0 80 -3 86 -7 21 -12 2 -22 -36 -19 -21 2 -42 4
-48 4 -5 -1 -38 -2 -73 -4 -64 -2 -78 4 -68 29 4 10 12 12 34 6 16 -5 63 -9
105 -9z"/>
<path d="M2002 2583 l1 -48 4 43 c2 23 8 40 14 37 5 -4 9 -1 9 4 0 6 -7 11
-15 11 -11 0 -15 -11 -13 -47z"/>
<path d="M2850 2619 c0 -7 3 -9 6 -6 4 3 16 1 28 -5 11 -7 26 -12 31 -13 6 0
10 -7 10 -15 0 -12 -21 -16 -117 -18 l-118 -3 0 26 c0 20 3 24 15 17 9 -4 40
-5 70 -2 51 6 55 4 56 -14 0 -12 3 -15 6 -8 12 30 -4 38 -62 32 -31 -3 -58 -3
-61 2 -3 4 -12 8 -20 8 -9 0 -14 -11 -14 -35 l0 -36 128 3 127 3 0 25 c0 16
-6 25 -15 25 -8 0 -17 3 -20 6 -11 14 -50 20 -50 8z"/>
<path d="M3217 2618 c-2 -8 -20 -13 -43 -13 -35 0 -39 -3 -39 -25 0 -16 6 -26
18 -28 9 -2 17 1 17 7 0 6 -6 10 -12 9 -7 -2 -13 4 -13 12 0 11 14 15 60 17
33 1 98 3 145 4 92 3 130 -5 130 -26 0 -21 -18 -27 -23 -8 -4 14 -5 13 -6 -4
-1 -26 24 -31 33 -7 18 48 -18 63 -141 59 -51 -2 -93 1 -93 6 0 14 -28 11 -33
-3z m28 -8 c3 -5 1 -10 -4 -10 -6 0 -11 5 -11 10 0 6 2 10 4 10 3 0 8 -4 11
-10z"/>
<path d="M3702 2583 l1 -48 4 43 c2 23 8 40 14 37 5 -4 9 -1 9 4 0 6 -7 11
-15 11 -11 0 -15 -11 -13 -47z"/>
<path d="M4260 2619 c0 -7 -10 -9 -24 -5 -37 9 -56 -3 -56 -35 0 -25 4 -29 29
-29 17 0 32 4 35 8 3 5 -8 6 -25 4 -24 -4 -29 -1 -29 17 0 22 4 24 60 22 85
-4 110 -6 110 -13 0 -5 0 -12 0 -16 0 -5 -22 -8 -49 -7 -28 1 -48 -2 -45 -7 3
-4 25 -7 50 -6 32 2 48 8 55 20 15 28 1 41 -37 33 -26 -4 -36 -2 -40 10 -7 17
-34 21 -34 4z"/>
<path d="M5550 2623 c-20 -8 -44 -33 -32 -33 5 0 12 -9 15 -19 4 -17 14 -19
98 -18 l94 2 3 29 c4 28 3 28 -40 22 -30 -5 -56 -2 -81 9 -20 8 -38 15 -39 14
-2 0 -10 -3 -18 -6z m56 -19 c25 -10 51 -14 76 -10 33 6 38 4 38 -14 0 -18 -6
-20 -75 -19 -71 1 -81 5 -76 32 1 5 -3 6 -8 2 -6 -3 -7 -13 -4 -22 4 -11 3
-14 -5 -9 -16 10 -15 43 1 49 6 3 13 6 13 6 1 1 19 -6 40 -15z"/>
<path d="M576 2604 c-11 -28 5 -34 102 -37 90 -3 92 -3 92 20 0 21 -4 23 -57
23 -32 0 -74 3 -94 6 -29 5 -37 3 -43 -12z m130 -4 c37 0 54 -4 54 -12 0 -10
-21 -13 -75 -11 -42 0 -82 4 -91 7 -27 10 -3 28 28 22 17 -3 55 -6 84 -6z"/>
<path d="M1930 2612 c0 -18 26 -62 35 -59 6 2 11 18 13 35 3 28 0 32 -22 32
-14 0 -26 -4 -26 -8z m39 -29 c0 -16 -3 -22 -6 -13 -3 8 -10 21 -16 28 -7 8
-5 12 7 12 11 0 16 -8 15 -27z"/>
<path d="M2070 2604 c-30 -6 -46 -12 -35 -13 11 0 37 3 58 8 35 8 37 8 37 -15
0 -20 -5 -24 -29 -24 -16 0 -32 6 -34 13 -4 10 -6 10 -6 0 -1 -7 -10 -13 -21
-13 -11 0 -20 -3 -20 -7 0 -5 28 -6 62 -3 60 5 63 6 60 30 -5 36 -11 38 -72
24z"/>
<path d="M2164 2598 c-10 -31 12 -45 77 -47 l60 -2 -3 33 -3 33 -62 1 c-53 1
-63 -1 -69 -18z m124 -16 c3 -21 1 -22 -52 -20 -35 2 -58 8 -61 16 -8 23 1 27
57 27 48 0 53 -2 56 -23z"/>
<path d="M2322 2588 c-2 -34 1 -38 21 -38 31 0 34 4 29 40 -4 27 -32 44 -32
19 0 -5 5 -7 10 -4 6 4 10 -5 10 -19 0 -39 -28 -33 -33 7 -4 31 -4 31 -5 -5z"/>
<path d="M3076 2613 c-3 -4 -27 -6 -51 -6 -35 1 -48 -3 -56 -18 -16 -31 -2
-39 72 -39 l69 0 0 35 c0 33 -16 46 -34 28z m24 -28 c0 -24 -3 -25 -59 -25
-33 0 -62 4 -65 9 -10 15 18 28 62 28 24 0 46 3 49 7 11 10 13 7 13 -19z"/>
<path d="M3514 2607 c-14 -37 0 -52 49 -55 27 -2 55 2 63 9 11 9 14 8 14 -6 0
-29 35 -13 38 18 3 20 -1 27 -15 29 -10 1 -31 3 -48 4 -16 2 -45 6 -62 10 -25
5 -34 2 -39 -9z m101 -9 c41 2 60 -11 50 -34 -7 -17 -9 -17 -12 -2 -5 22 -33
32 -33 12 0 -12 -10 -14 -47 -12 -42 3 -48 6 -51 27 -4 22 -2 23 30 16 18 -4
47 -7 63 -7z"/>
<path d="M3770 2604 c-30 -6 -46 -12 -35 -13 11 0 37 3 58 8 35 8 37 8 37 -15
0 -20 -5 -24 -29 -24 -16 0 -32 6 -34 13 -4 10 -6 10 -6 0 -1 -7 -7 -13 -15
-13 -8 0 -17 -3 -19 -7 -3 -5 23 -6 56 -3 59 5 62 6 59 30 -5 36 -11 38 -72
24z"/>
<path d="M4028 2615 c-5 -5 -53 -10 -130 -14 -23 -1 -28 -6 -28 -26 l0 -26 93
3 c91 3 92 3 89 28 -3 26 -15 44 -24 35z m15 -47 c-8 -14 -123 -9 -124 5 0 10
-2 10 -6 0 -7 -18 -33 -16 -33 2 0 9 10 15 23 16 57 2 121 9 126 14 7 7 20
-27 14 -37z"/>
<path d="M4690 2586 l0 -37 63 3 c59 3 62 4 62 28 0 19 -6 26 -25 27 -14 2
-42 5 -62 9 l-38 6 0 -36z m95 10 c11 -2 20 -9 20 -17 0 -10 -15 -15 -52 -17
-52 -3 -53 -2 -53 24 0 25 2 26 33 19 17 -4 41 -8 52 -9z"/>
<path d="M5005 2609 c-22 -5 -68 -5 -102 -2 l-63 6 0 -32 0 -31 120 0 c66 0
120 3 120 8 0 4 -52 6 -115 4 -110 -3 -115 -2 -115 17 0 19 5 21 73 19 39 0
96 0 126 1 59 2 87 -13 71 -39 -8 -13 -10 -12 -10 3 0 9 -4 17 -9 17 -5 0 -7
-9 -4 -20 6 -23 63 -29 63 -7 0 40 -82 69 -155 56z m140 -49 c3 -5 1 -10 -4
-10 -6 0 -11 5 -11 10 0 6 2 10 4 10 3 0 8 -4 11 -10z"/>
<path d="M5387 2613 c-4 -3 -7 -16 -7 -28 0 -19 7 -23 46 -29 70 -9 74 -8 74
19 0 20 -5 25 -22 24 -17 -1 -19 -2 -5 -6 9 -2 17 -11 17 -20 0 -13 -8 -14
-47 -8 -56 8 -57 9 -49 30 7 19 38 16 48 -5 5 -11 7 -9 7 8 1 18 -4 22 -27 22
-16 0 -32 -3 -35 -7z"/>
<path d="M2432 2601 c-18 -3 -33 -9 -32 -13 0 -5 0 -15 0 -24 0 -12 13 -15 79
-13 l78 2 -11 28 c-9 25 -15 29 -46 28 -19 -1 -50 -4 -68 -8z m102 -17 c7 -20
-23 -31 -35 -13 -6 10 -9 10 -9 2 0 -8 -15 -13 -40 -13 -47 0 -58 27 -12 32
70 8 91 6 96 -8z"/>
<path d="M2570 2579 c0 -29 1 -30 43 -27 37 3 42 6 42 28 0 22 -4 25 -42 27
-41 1 -43 0 -43 -28z m75 1 c0 -10 -12 -16 -32 -18 -26 -3 -33 0 -33 15 0 14
8 18 33 18 22 0 32 -5 32 -15z"/>
<path d="M4070 2593 c0 -32 16 -45 51 -41 29 2 34 7 34 28 0 22 -5 25 -42 28
-36 3 -43 0 -43 -15z m75 -13 c0 -23 -59 -20 -63 3 -3 15 2 18 30 15 21 -2 33
-8 33 -18z"/>
<path d="M4400 2580 c0 -30 1 -30 54 -30 47 0 56 3 61 21 9 28 3 32 -60 36
l-55 3 0 -30z m105 -1 c0 -10 -15 -15 -47 -17 -43 -3 -48 -1 -48 18 0 19 5 20
48 17 31 -3 47 -9 47 -18z"/>
<path d="M4540 2578 l0 -29 63 3 c59 3 62 4 65 29 3 26 2 27 -62 27 l-66 0 0
-30z m120 0 c0 -15 -9 -18 -55 -18 -47 0 -55 3 -55 19 0 16 8 18 55 17 46 0
55 -3 55 -18z"/>
<path d="M5195 2600 c-3 -6 -4 -19 0 -29 6 -20 74 -32 134 -23 28 4 32 8 29
31 -3 24 -7 26 -53 27 -27 0 -56 -4 -62 -9 -9 -6 -13 -6 -13 2 0 14 -27 15
-35 1z m52 -15 c29 17 97 13 101 -6 1 -9 -4 -16 -13 -16 -8 0 -15 5 -15 11 0
6 -4 4 -10 -4 -6 -10 -22 -13 -52 -11 -47 3 -64 13 -53 31 6 9 10 9 16 -1 6
-10 13 -11 26 -4z"/>
<path d="M3185 2559 c3 -4 62 -8 132 -8 70 -1 125 0 122 3 -8 8 -259 13 -254
5z"/>
<path d="M1934 2485 c-12 -50 -3 -55 107 -55 56 0 100 3 96 6 -3 3 -48 7 -99
8 -84 1 -93 3 -96 21 -2 18 -2 18 8 3 15 -24 40 -23 40 2 0 20 11 26 24 13 14
-14 35 -11 29 5 -4 10 -2 13 5 8 7 -4 12 -2 12 3 0 6 -7 11 -15 11 -8 0 -15
-4 -15 -10 0 -6 -9 -6 -26 0 -43 17 -63 12 -70 -15z m49 -5 c-3 -11 -10 -20
-15 -20 -5 0 -6 5 -3 10 3 6 1 10 -4 10 -6 0 -11 5 -11 10 0 6 9 10 19 10 14
0 18 -5 14 -20z"/>
<path d="M2125 2490 c-50 -4 -60 -8 -63 -25 -3 -18 -3 -19 10 -3 8 11 32 18
66 20 l53 3 -3 -30 c-2 -16 -7 -28 -13 -25 -5 3 -9 11 -8 19 1 9 -2 10 -9 3
-15 -15 -1 -44 19 -40 19 3 32 65 16 77 -4 3 -35 4 -68 1z"/>
<path d="M377 2273 c-4 -3 -7 -41 -7 -84 0 -76 1 -79 26 -85 37 -10 136 3 145
18 13 20 11 132 -3 146 -13 13 -149 17 -161 5z m151 -15 c7 -7 12 -38 12 -70
0 -54 -2 -59 -27 -69 -15 -5 -50 -9 -77 -7 l-51 3 -2 65 c-2 36 -1 71 2 78 6
16 127 16 143 0z"/>
<path d="M417 2243 c-4 -3 -7 -31 -7 -62 1 -43 3 -52 11 -38 5 9 17 17 24 17
8 0 15 5 15 10 0 7 -7 7 -21 0 -19 -11 -20 -9 -17 27 3 42 17 47 35 13 11 -23
53 -36 53 -18 0 5 -8 8 -17 6 -12 -2 -22 6 -30 24 -11 27 -32 36 -46 21z"/>
<path d="M580 2210 c-20 -37 1 -44 135 -48 l125 -4 0 26 c0 28 0 29 -155 32
-33 0 -68 4 -77 8 -11 5 -20 1 -28 -14z m70 -2 c14 0 60 -2 103 -5 60 -4 77
-8 77 -20 0 -14 -17 -15 -120 -11 -66 3 -123 7 -125 10 -3 3 -3 13 1 22 4 11
12 15 23 10 9 -4 27 -7 41 -6z"/>
<path d="M2022 2074 c-1 -83 1 -114 11 -123 14 -11 456 -5 467 7 3 2 -100 2
-227 -1 l-233 -6 -5 22 c-3 12 -6 65 -8 117 l-3 95 -2 -111z"/>
<path d="M3410 2158 c-141 -63 -248 -122 -324 -178 -150 -111 -361 -325 -411
-419 -17 -31 -39 -70 -51 -86 -11 -17 -28 -48 -38 -70 -10 -22 -26 -56 -35
-75 -9 -19 -24 -42 -33 -52 -15 -15 -15 -18 -3 -18 14 0 65 87 65 110 0 6 17
37 37 68 20 31 51 82 67 114 52 96 271 316 418 421 96 69 296 177 327 177 6 0
13 5 16 10 8 13 -3 12 -35 -2z"/>
<path d="M415 2058 c-29 -16 -35 -28 -35 -70 0 -50 28 -78 78 -78 43 0 55 6
71 37 39 75 -40 153 -114 111z m90 -23 c30 -29 32 -64 5 -93 -43 -45 -120 -15
-120 48 0 35 34 70 67 70 13 0 35 -11 48 -25z"/>
<path d="M422 2031 c7 -25 35 -36 52 -22 9 8 16 18 16 24 0 5 -8 3 -18 -6 -17
-15 -19 -15 -36 1 -13 12 -17 13 -14 3z"/>
<path d="M484 1986 c-21 -43 -29 -45 -46 -9 -7 14 -20 29 -28 31 -13 4 -13 2
1 -14 9 -10 19 -27 22 -36 11 -30 41 -20 59 19 10 20 15 39 13 41 -2 3 -12
-12 -21 -32z"/>
<path d="M4492 2023 c3 -25 7 -28 48 -30 42 -1 39 0 -17 13 -13 2 -23 12 -23
20 0 10 6 14 15 10 8 -3 15 -1 15 4 0 6 -9 10 -21 10 -16 0 -20 -5 -17 -27z"/>
<path d="M582 1994 c3 -28 5 -29 66 -32 56 -3 62 -1 62 17 0 26 -7 29 -74 37
l-58 7 4 -29z m111 -1 c18 -11 4 -23 -28 -23 -26 0 -35 4 -36 18 -1 16 -2 16
-6 -1 -6 -22 -27 -17 -31 8 -4 16 1 17 45 10 26 -4 51 -9 56 -12z"/>
<path d="M734 2011 c-2 -2 -4 -15 -4 -28 0 -27 -10 -26 264 -24 99 0 184 5
189 10 5 5 7 17 4 25 -5 12 -21 16 -64 17 -32 0 -131 1 -221 2 -90 1 -166 0
-168 -2z m444 -16 c19 -18 -33 -26 -189 -26 -250 -2 -249 -2 -249 19 0 16 16
17 217 15 119 -2 219 -5 221 -8z"/>
<path d="M4490 1966 c0 -2 25 -35 56 -73 31 -37 69 -87 86 -110 16 -24 41 -49
57 -57 16 -9 34 -32 45 -58 20 -48 74 -164 116 -248 15 -30 30 -69 34 -85 7
-33 46 -98 46 -78 0 7 -9 27 -20 45 -11 18 -20 40 -20 49 0 9 -18 54 -41 100
-54 111 -84 175 -105 227 -11 27 -29 49 -46 58 -15 8 -38 30 -52 50 -64 95
-156 201 -156 180z"/>
<path d="M390 1860 c0 -11 4 -20 10 -20 5 0 7 7 4 15 -5 11 -2 13 10 9 9 -3
16 -1 16 5 0 6 -9 11 -20 11 -13 0 -20 -7 -20 -20z"/>
<path d="M435 1841 c-5 -23 -14 -31 -36 -36 -29 -7 -30 -9 -27 -53 l3 -47 82
-3 c81 -3 83 -2 89 23 7 30 1 132 -9 142 -4 3 -16 -2 -27 -12 -18 -16 -20 -16
-20 -2 0 11 -8 17 -24 17 -19 0 -26 -7 -31 -29z m49 4 c3 -8 -2 -19 -12 -24
-9 -6 -13 -11 -9 -11 4 0 19 7 33 16 35 23 46 8 42 -57 l-3 -54 -75 0 -75 0
-3 38 c-3 34 -1 38 26 43 23 5 31 13 36 35 6 31 30 39 40 14z"/>
<path d="M582 1804 c-5 -9 -7 -25 -5 -35 4 -15 17 -17 106 -16 l102 2 3 27 3
27 -73 -2 c-40 -1 -85 1 -100 6 -20 5 -29 3 -36 -9z m101 -13 c26 -5 47 -5 47
0 0 5 12 9 26 9 19 0 25 -4 22 -17 -3 -16 -16 -18 -93 -19 -52 -1 -93 3 -97 9
-11 18 3 37 26 32 11 -3 42 -9 69 -14z"/>
<path d="M377 1663 c-4 -3 -7 -41 -7 -84 0 -88 1 -89 86 -89 84 0 94 9 94 85
0 95 0 95 -89 95 -43 0 -81 -3 -84 -7z m161 -71 c4 -85 -4 -94 -87 -90 l-66 3
-3 64 c-4 92 -4 92 80 89 l73 -3 3 -63z"/>
<path d="M582 1604 c-5 -9 -7 -25 -5 -35 5 -18 18 -19 165 -19 l159 0 -3 23
c-3 21 -7 22 -138 27 -74 3 -142 9 -152 13 -11 6 -19 3 -26 -9z m34 -4 c5 -5
67 -11 138 -12 93 -2 131 -7 134 -15 3 -10 -31 -13 -146 -13 -152 0 -167 4
-154 38 5 14 15 15 28 2z"/>
<path d="M381 1456 c-7 -9 -11 -42 -9 -88 l3 -73 79 -3 c57 -2 82 1 87 10 5 7
9 43 9 80 0 56 -3 69 -19 78 -30 15 -136 13 -150 -4z m148 -10 c7 -9 11 -40 9
-78 l-3 -63 -75 0 -75 0 -3 54 c-5 95 -2 101 72 101 43 0 67 -5 75 -14z"/>
<path d="M580 1391 c1 -38 13 -42 171 -45 85 -2 165 -5 179 -8 14 -2 33 0 43
4 20 10 23 46 5 53 -7 3 -100 6 -205 8 -170 3 -193 1 -193 -12z m338 -1 c54 0
63 -2 60 -17 -4 -21 -46 -33 -70 -21 -10 5 -75 8 -145 7 -94 -1 -128 2 -131
11 -4 10 -6 10 -12 0 -9 -14 -30 -5 -30 13 0 9 35 12 133 10 72 -2 160 -3 195
-3z"/>
<path d="M1890 1353 c0 -9 219 -7 228 1 3 3 -47 6 -111 6 -64 0 -117 -3 -117
-7z"/>
<path d="M2498 1345 c-3 -4 -43 -10 -89 -15 -46 -6 -97 -12 -114 -15 -16 -3
-112 -12 -211 -19 -198 -15 -261 -23 -284 -38 -12 -7 -10 -8 5 -4 45 12 168
25 300 31 77 4 151 12 164 16 15 6 28 6 36 -1 9 -8 14 -8 17 1 2 6 40 15 83
20 95 10 165 26 124 28 -14 1 -28 -1 -31 -4z"/>
<path d="M373 1248 c-9 -15 -8 -142 2 -158 8 -13 131 -13 156 0 16 9 19 22 19
75 0 36 -3 65 -7 65 -5 0 -6 -25 -5 -55 4 -57 -8 -85 -34 -85 -8 0 -14 6 -14
14 0 14 -36 26 -58 18 -7 -2 -12 -10 -12 -19 0 -8 -7 -13 -17 -11 -12 2 -20
18 -25 48 -10 55 -2 97 20 110 16 9 16 9 0 10 -9 0 -20 -6 -25 -12z m107 -149
c0 -5 -11 -9 -25 -9 -24 0 -32 10 -19 22 8 8 44 -3 44 -13z"/>
<path d="M392 1208 l-2 -33 13 25 c14 25 13 40 -1 40 -4 0 -9 -15 -10 -32z"/>
<path d="M2501 1198 c-10 -25 -30 -85 -44 -134 -13 -49 -28 -98 -32 -109 -6
-14 -5 -17 3 -10 6 6 22 55 37 110 15 55 36 118 46 139 10 22 17 42 14 44 -2
3 -13 -15 -24 -40z"/>
<path d="M513 1180 c0 -30 2 -43 4 -27 2 15 2 39 0 55 -2 15 -4 2 -4 -28z"/>
<path d="M580 1176 l0 -36 138 2 c134 3 137 4 140 26 4 24 13 22 -128 26 -41
1 -92 6 -112 10 l-38 8 0 -36z m153 9 c60 -2 111 -6 114 -9 16 -16 -20 -23
-132 -24 l-125 -1 0 25 c0 21 4 25 18 19 9 -4 66 -9 125 -10z"/>
<path d="M376 1045 c-9 -24 -7 -138 3 -153 5 -9 30 -12 87 -10 l79 3 0 72 c0
40 -4 76 -10 82 -5 5 -42 12 -81 16 -61 6 -72 4 -78 -10z m152 -24 c8 -10 12
-37 10 -71 l-3 -55 -75 0 c-63 0 -75 3 -78 18 -2 10 3 17 11 17 8 0 20 7 27
15 8 10 25 13 57 10 25 -2 43 -1 39 2 -12 13 -81 11 -100 -3 -11 -8 -24 -14
-28 -14 -10 0 -11 94 -1 104 13 13 127 -5 141 -23z"/>
<path d="M460 923 c-30 -2 -58 -7 -62 -11 -4 -4 22 -5 57 -4 36 2 65 8 65 13
0 5 -1 8 -2 7 -2 -1 -28 -3 -58 -5z"/>
<path d="M585 1000 c-4 -6 -4 -22 -1 -36 7 -25 7 -25 109 -22 100 3 102 3 105
28 3 25 2 25 -80 25 -46 0 -93 4 -105 8 -13 5 -24 4 -28 -3z m118 -16 c73 1
87 -2 85 -14 -4 -20 -117 -27 -129 -8 -7 10 -9 10 -9 1 0 -16 -46 -17 -55 -3
-4 6 -4 18 0 28 4 11 8 13 13 5 4 -6 40 -10 95 -9z"/>
<path d="M398 833 c-14 -3 -18 -15 -18 -53 0 -43 2 -48 25 -52 14 -3 25 -1 25
3 0 5 -9 9 -20 9 -17 0 -20 7 -20 40 0 46 15 54 91 48 l44 -3 3 -42 c2 -33 0
-43 -12 -43 -8 0 -17 -4 -20 -9 -3 -4 6 -6 19 -3 22 4 25 9 25 52 0 34 -4 50
-16 54 -17 7 -99 6 -126 -1z"/>
<path d="M580 776 c0 -14 5 -28 10 -31 7 -4 9 2 4 19 -4 16 -2 26 4 26 6 0 13
-12 15 -27 l4 -28 2 28 c1 22 6 27 27 27 20 0 25 -4 20 -16 -3 -9 -6 -18 -6
-20 0 -12 -19 -1 -23 14 -4 13 -5 11 -6 -5 -1 -17 5 -23 19 -23 11 0 20 3 20
8 0 4 3 17 6 30 6 21 3 22 -45 22 -47 0 -51 -2 -51 -24z"/>
<path d="M697 784 c-4 -4 -7 -18 -7 -31 0 -23 2 -23 51 -17 33 4 58 2 73 -6
18 -9 29 -9 44 -1 12 6 77 11 157 11 136 0 136 0 133 23 -3 22 -3 22 -224 25
-121 1 -223 -1 -227 -4z m441 -21 c3 -10 -25 -13 -118 -13 -71 0 -119 4 -116
9 4 5 -11 1 -31 -9 -24 -11 -42 -15 -47 -9 -6 5 -23 9 -38 9 -15 0 -28 5 -28
11 0 6 -7 3 -16 -5 -8 -9 -22 -16 -30 -16 -14 0 -19 21 -7 34 4 3 101 5 217 4
157 -2 210 -6 214 -15z"/>
<path d="M447 723 c-15 -14 -7 -43 12 -43 24 0 33 13 25 34 -6 16 -25 21 -37
9z m24 -26 c-13 -13 -26 -3 -16 12 3 6 11 8 17 5 6 -4 6 -10 -1 -17z"/>
<path d="M1785 670 c-4 -6 -9 -8 -13 -6 -4 2 -5 -30 -2 -72 l5 -77 50 -9 c104
-18 156 -37 195 -72 48 -43 75 -40 68 6 -5 32 5 46 37 52 11 2 20 10 20 18 0
23 -51 24 -83 2 -15 -11 -36 -22 -47 -25 -16 -4 -15 -5 6 -6 14 0 34 8 44 19
19 21 60 27 70 10 3 -6 -5 -10 -19 -10 -30 0 -41 -15 -38 -52 3 -40 -12 -42
-50 -4 -33 33 -129 70 -175 68 -12 -1 -34 3 -48 8 -23 9 -25 14 -25 75 0 60 2
65 24 71 37 9 46 -2 47 -54 0 -26 4 -56 9 -67 8 -19 3 96 -5 123 -5 14 -61 16
-70 2z"/>
<path d="M2317 662 c-14 -15 -17 -39 -17 -118 0 -118 6 -144 31 -144 22 0 26
20 35 173 6 101 5 107 -13 107 -11 0 -27 -8 -36 -18z m37 -79 c-4 -49 -7 -101
-6 -118 1 -16 -3 -37 -8 -45 -19 -29 -30 12 -30 114 0 79 3 103 17 118 31 34
36 21 27 -69z"/>
<path d="M1930 649 c0 -25 33 -22 38 4 2 12 -3 17 -17 17 -15 0 -21 -6 -21
-21z m30 7 c0 -3 -4 -8 -10 -11 -5 -3 -10 -1 -10 4 0 6 5 11 10 11 6 0 10 -2
10 -4z"/>
<path d="M380 629 c0 -15 5 -20 22 -17 34 5 37 38 4 38 -20 0 -26 -5 -26 -21z
m40 1 c0 -5 -7 -10 -15 -10 -8 0 -15 5 -15 10 0 6 7 10 15 10 8 0 15 -4 15
-10z"/>
<path d="M518 603 c19 -4 22 -11 22 -51 0 -26 -5 -54 -10 -62 -7 -11 -9 -2 -6
30 l5 45 -11 -43 c-12 -47 -6 -61 17 -42 10 9 15 31 15 71 0 58 0 59 -27 58
-24 -2 -25 -2 -5 -6z"/>
<path d="M450 580 c-13 -11 -27 -20 -32 -20 -4 0 -8 -14 -8 -30 0 -23 6 -33
25 -42 22 -10 29 -9 45 8 11 10 22 33 26 51 5 25 2 33 -14 42 -15 8 -24 6 -42
-9z m35 -54 c-18 -38 -33 -44 -53 -24 -11 11 -17 48 -8 48 2 0 11 3 19 6 9 3
17 0 20 -8 2 -7 3 -4 1 8 -5 28 7 38 24 20 12 -12 12 -19 -3 -50z"/>
<path d="M577 579 c-10 -36 6 -43 96 -44 81 0 82 0 85 26 3 26 2 27 -55 26
-32 -1 -72 2 -89 7 -28 7 -32 5 -37 -15z m121 -3 c43 0 52 -2 50 -15 -2 -11
-17 -17 -47 -19 -59 -4 -91 5 -92 26 -1 16 -2 16 -6 -1 -2 -9 -8 -15 -13 -12
-5 3 -7 12 -4 20 5 11 13 13 33 7 14 -4 50 -7 79 -6z"/>
<path d="M5895 590 c-9 -15 4 -30 26 -30 12 0 19 7 19 20 0 21 -33 29 -45 10z
m35 -10 c0 -5 -7 -10 -16 -10 -8 0 -12 5 -9 10 3 6 10 10 16 10 5 0 9 -4 9
-10z"/>
<path d="M5620 551 c0 -10 -7 -22 -16 -25 -9 -3 -119 -6 -244 -6 -126 0 -231
-3 -233 -7 -3 -5 -1 -26 3 -48 l9 -40 -2 40 -2 40 243 3 c150 1 242 6 242 12
0 6 9 10 20 10 13 0 20 7 20 20 0 13 -7 20 -20 20 -13 0 -20 -7 -20 -19z m30
-1 c0 -5 -4 -10 -10 -10 -5 0 -10 5 -10 10 0 6 5 10 10 10 6 0 10 -4 10 -10z"/>
<path d="M2220 445 c-5 -29 -8 -30 -65 -36 -49 -5 -41 -6 40 -6 55 0 86 2 68
4 -27 4 -32 9 -35 36 l-4 32 -4 -30z"/>
<path d="M1867 453 c-4 -3 -7 -15 -7 -25 0 -13 -8 -18 -30 -18 -35 0 -40 17
-7 23 20 4 19 4 -4 6 -15 0 -29 -5 -32 -13 -4 -9 -24 -16 -54 -19 -26 -2 14
-4 90 -5 75 -1 137 1 137 6 0 4 -19 7 -42 7 -32 0 -43 4 -43 15 0 15 18 17 65
6 21 -5 20 -4 -5 8 -33 16 -58 20 -68 9z"/>
<path d="M473 443 c9 -2 25 -2 35 0 9 3 1 5 -18 5 -19 0 -27 -2 -17 -5z"/>
</g>
</defs>
<mask id="mp84504">
  <use xlink:href="#gp84504" fill="white" />
</mask>
<use xlink:href="#gp84504" data-mask="url(#mp84504)" data-stroke="black" stroke-width="20px" fill="black"/>
</svg>
