<?xml version="1.0" standalone="no"?>
<!DOCTYPE svg PUBLIC "-//W3C//DTD SVG 20010904//EN"
 "http://www.w3.org/TR/2001/REC-SVG-20010904/DTD/svg10.dtd">
<svg class="Potrace" xmlns:xlink="http://www.w3.org/1999/xlink" version="1.0" xmlns="http://www.w3.org/2000/svg"
 width="641.000000pt" height="360.000000pt" viewBox="0 0 641.000000 360.000000"
 preserveAspectRatio="xMidYMid meet">
<defs>
  <g id="gp82499" transform="translate(0.000000,360.000000) scale(0.100000,-0.100000)"
>
<path d="M2070 3584 c-23 -27 16 -48 161 -88 130 -36 142 -38 263 -34 137 3
146 7 146 60 0 27 2 26 -148 74 -7 2 -10 -1 -7 -6 3 -6 12 -10 20 -10 8 0 39
-9 70 -21 59 -22 70 -43 39 -73 -12 -13 -40 -16 -135 -16 -108 0 -133 4 -247
36 -138 40 -156 48 -149 76 6 22 3 23 -13 2z"/>
<path d="M6202 3583 c6 -34 51 -45 136 -34 l77 10 -82 -5 c-79 -5 -84 -4 -109
21 -20 20 -25 22 -22 8z"/>
<path d="M4398 3529 c-18 -10 -24 -45 -10 -65 9 -14 54 -37 123 -63 42 -17 77
-21 161 -21 58 0 113 3 122 6 23 9 20 59 -4 82 -11 10 -49 30 -85 45 -58 24
-78 27 -178 27 -61 0 -120 -5 -129 -11z m317 -35 c57 -27 76 -41 81 -61 10
-37 -8 -43 -128 -43 -101 0 -110 2 -187 36 -82 37 -104 61 -81 89 10 12 39 15
126 15 109 0 116 -1 189 -36z"/>
<path d="M2825 3470 c-22 -3 51 -5 161 -5 111 0 200 4 197 8 -5 8 -291 6 -358
-3z"/>
<path d="M2652 3423 c92 -2 245 -2 340 0 95 1 20 3 -167 3 -187 0 -265 -2
-173 -3z"/>
<path d="M3007 3392 c-10 -4 -24 -21 -33 -37 -13 -24 -13 -31 -1 -43 15 -14
167 -62 199 -62 30 0 58 37 58 75 0 60 -26 75 -122 74 -46 0 -91 -4 -101 -7z
m197 -24 c22 -31 20 -71 -5 -94 -20 -18 -22 -18 -92 0 -125 32 -149 54 -107
96 17 17 33 20 104 20 76 0 86 -2 100 -22z"/>
<path d="M706 3178 c-9 -43 -7 -949 2 -982 4 -14 7 208 7 494 0 286 -1 520 -1
520 -1 0 -4 -14 -8 -32z"/>
<path d="M1998 3117 c-24 -22 -28 -34 -28 -79 0 -29 -3 -129 -6 -223 -3 -93
-1 -182 3 -197 5 -15 9 79 10 220 l2 247 28 23 c27 23 32 23 138 16 132 -9
189 -9 360 4 l130 10 -130 -5 c-211 -7 -244 -7 -365 1 -115 8 -115 8 -142 -17z"/>
<path d="M3924 3130 c-12 -4 -24 -16 -28 -25 -5 -13 -1 -12 20 4 22 17 41 21
100 21 64 0 75 -3 88 -22 18 -25 21 -17 6 13 -9 16 -21 19 -88 18 -42 0 -86
-4 -98 -9z"/>
<path d="M4227 3083 c-43 -8 -76 -17 -74 -20 3 -2 40 2 83 11 114 21 228 -8
293 -75 39 -40 111 -85 111 -69 0 5 -18 19 -40 30 -22 11 -47 31 -56 45 -18
27 -137 80 -199 88 -22 2 -75 -2 -118 -10z"/>
<path d="M3823 3081 c-15 -10 -23 -40 -13 -46 6 -4 10 3 10 13 0 31 34 33 75
4 33 -24 39 -25 79 -14 24 6 58 9 77 6 38 -6 89 9 89 27 0 8 -5 7 -16 -2 -14
-11 -62 -17 -177 -21 -15 0 -36 7 -47 17 -21 19 -61 27 -77 16z"/>
<path d="M4769 3065 c-42 -7 -85 -18 -96 -23 -11 -6 -22 -9 -25 -7 -3 3 -25 9
-49 14 -24 5 -55 12 -69 16 -24 6 -23 5 3 -10 25 -15 78 -25 127 -26 8 0 39 7
69 15 77 22 202 31 229 17 12 -6 22 -8 22 -2 0 24 -88 27 -211 6z"/>
<path d="M4992 3024 c-1 -18 -8 -34 -14 -37 -7 -2 -68 -10 -134 -17 -112 -12
-123 -12 -139 4 -10 9 -20 14 -23 11 -11 -11 34 -34 68 -34 49 0 239 24 246
31 3 3 4 21 1 40 l-4 33 -1 -31z"/>
<path d="M6281 3039 c-35 -4 -66 -11 -69 -14 -8 -8 35 -5 123 10 88 14 48 17
-54 4z"/>
<path d="M2557 3013 c-3 -5 27 -7 67 -5 77 4 195 -19 233 -44 29 -18 29 -48 1
-68 -12 -9 -19 -18 -16 -22 11 -11 48 36 48 61 0 32 -28 49 -117 69 -74 16
-208 22 -216 9z"/>
<path d="M3747 3003 c-4 -3 -4 -23 -1 -43 5 -30 2 -42 -14 -58 -12 -12 -24
-38 -28 -58 -5 -30 -9 -34 -18 -23 -6 8 -19 13 -28 11 -14 -3 -18 4 -19 25 -1
22 -3 23 -6 7 -5 -27 22 -94 37 -94 6 0 8 -6 4 -12 -5 -10 -4 -10 7 0 11 10 9
15 -10 28 -16 12 -20 19 -12 27 8 8 14 8 23 -1 19 -19 25 -14 33 25 4 21 15
43 26 51 10 7 19 20 19 29 0 9 8 22 18 30 15 13 15 14 0 9 -18 -5 -30 16 -22
39 6 16 2 20 -9 8z"/>
<path d="M3975 3003 c11 -3 26 -10 34 -17 11 -9 13 -8 9 4 -2 8 -18 16 -34 17
-18 1 -22 0 -9 -4z"/>
<path d="M5907 3000 c-27 -5 -51 -11 -54 -14 -3 -3 -6 -22 -7 -43 -1 -46 25
-63 102 -63 63 0 188 17 220 30 26 11 29 45 6 78 -14 20 -22 22 -117 21 -56
-1 -124 -5 -150 -9z m255 -17 c23 -20 23 -50 1 -62 -25 -13 -151 -31 -215 -31
-79 0 -117 34 -89 79 12 19 73 28 190 30 75 1 98 -2 113 -16z"/>
<path d="M6236 2942 c-2 -4 28 -6 67 -4 111 5 121 9 25 11 -48 0 -89 -3 -92
-7z"/>
<path d="M6227 2840 c-17 -174 -9 -255 26 -264 30 -8 107 -6 137 4 15 5 1 6
-37 3 -85 -8 -109 0 -117 37 -3 16 -9 44 -12 61 -4 17 -1 54 5 83 7 28 11 76
9 106 -3 53 -3 51 -11 -30z"/>
<path d="M3620 2765 c0 -8 14 -21 30 -30 17 -9 30 -19 30 -24 0 -5 14 -14 31
-21 24 -10 35 -10 55 0 13 7 24 18 24 23 0 6 -8 3 -18 -6 -28 -25 -50 -22 -26
4 13 15 16 24 8 36 -12 19 -54 37 -54 23 0 -6 6 -10 13 -10 6 0 18 -4 25 -9
12 -7 12 -12 1 -30 -19 -30 -15 -31 -101 44 -16 13 -18 13 -18 0z"/>
<path d="M3967 2773 c-47 -12 -217 -134 -196 -141 5 -2 33 16 62 41 29 25 70
54 90 66 46 25 112 38 121 22 4 -6 15 -11 24 -11 11 0 6 6 -12 15 -28 15 -54
17 -89 8z"/>
<path d="M6250 2740 c-13 -25 -5 -73 15 -90 25 -21 69 -8 84 24 12 26 12 33 0
55 -20 36 -82 42 -99 11z m86 -11 c17 -19 17 -23 3 -47 -20 -37 -53 -40 -75
-7 -36 55 27 103 72 54z"/>
<path d="M4315 2699 c-30 -15 -55 -74 -55 -132 -1 -30 -7 -60 -15 -71 -19 -25
-11 -51 29 -98 17 -20 40 -51 51 -69 28 -47 48 -47 93 0 21 23 48 41 59 41 11
0 26 7 34 16 17 20 63 44 87 44 10 0 29 -11 42 -25 31 -33 31 -96 0 -185 -19
-56 -21 -76 -15 -148 7 -79 9 -85 42 -115 20 -18 47 -57 60 -87 14 -30 44 -75
67 -100 42 -45 43 -47 49 -133 3 -47 11 -96 17 -107 21 -39 6 -50 -65 -50 -47
0 -82 7 -125 25 -33 14 -66 25 -73 25 -8 0 -37 -26 -65 -58 -51 -59 -103 -92
-179 -112 -24 -6 -43 -16 -43 -22 0 -7 4 -7 13 -1 24 19 47 23 47 8 0 -25 -32
-34 -74 -22 -29 9 -54 31 -103 90 -35 43 -75 82 -87 87 -12 4 -36 24 -54 44
-34 39 -70 47 -93 20 -20 -24 -65 -44 -98 -44 -30 0 -29 2 46 75 74 73 102 91
69 43 -9 -12 -16 -27 -16 -33 0 -5 9 5 20 23 24 38 25 52 6 52 -19 0 -167
-150 -160 -161 14 -24 115 1 143 34 20 25 39 21 68 -13 14 -17 38 -37 54 -46
16 -8 58 -50 95 -94 40 -49 73 -80 85 -80 11 0 28 -5 38 -12 24 -14 71 3 71
26 0 8 21 24 48 36 29 13 70 46 109 86 l61 66 65 -26 c49 -19 83 -26 137 -26
79 0 92 11 70 58 -7 15 -14 65 -16 112 l-3 85 -51 60 c-29 33 -58 78 -65 100
-8 22 -31 56 -54 76 -38 34 -40 38 -46 115 -6 68 -4 88 15 144 13 36 23 86 23
111 1 105 -80 142 -161 74 -17 -14 -38 -25 -47 -25 -10 0 -36 -18 -57 -41 -43
-45 -55 -43 -85 15 -9 17 -31 48 -49 69 -38 42 -40 49 -19 67 10 9 15 31 15
72 0 70 20 110 64 132 17 9 24 15 16 15 -8 0 -24 -5 -35 -10z"/>
<path d="M1709 2675 c-3 -2 -33 -6 -68 -9 -35 -2 -68 -10 -75 -16 -8 -10 -5
-10 14 -4 14 5 57 9 97 9 58 0 82 -5 125 -27 29 -15 65 -30 80 -33 14 -3 52
-24 83 -48 l58 -44 106 -2 c58 -1 109 -5 113 -9 10 -10 12 -84 9 -304 -3 -185
-2 -187 23 -231 14 -24 26 -53 26 -65 0 -11 4 -23 9 -26 15 -10 -8 75 -32 114
-21 36 -22 44 -17 236 3 110 3 219 0 244 l-5 45 -111 5 c-84 4 -116 9 -135 23
-68 49 -115 77 -131 77 -11 0 -40 11 -66 25 -26 14 -54 25 -62 25 -9 0 -21 5
-26 10 -6 6 -13 8 -15 5z"/>
<path d="M3710 2656 c0 -7 6 -16 14 -19 15 -6 14 -12 -10 -144 -17 -90 -14
-112 23 -161 21 -28 23 -37 14 -65 -22 -72 -33 -165 -22 -185 6 -12 11 -63 11
-114 -1 -84 -6 -135 -26 -265 -6 -38 -4 -43 12 -43 37 0 153 33 148 42 -3 5
-11 5 -17 0 -18 -13 -126 -36 -134 -29 -3 4 -1 31 6 60 7 28 15 116 18 195 3
78 10 145 16 149 5 3 38 5 73 5 46 -1 68 3 79 15 14 13 14 18 3 28 -7 7 -24
15 -38 19 -23 5 -23 4 3 -6 15 -7 27 -17 27 -24 0 -16 -24 -23 -85 -23 -27 0
-59 -1 -70 -3 -16 -2 -20 2 -19 27 3 65 17 141 30 162 12 19 11 25 -10 50 -48
57 -47 55 -18 248 9 53 7 62 -9 78 -15 14 -19 15 -19 3z"/>
<path d="M5717 2484 c4 -10 8 -12 12 -5 5 7 119 12 347 14 l339 2 -352 3
c-318 2 -352 0 -346 -14z"/>
<path d="M2731 2407 c-41 -21 -47 -40 -32 -104 7 -32 15 -77 18 -100 5 -38 3
-43 -20 -54 -21 -10 -33 -8 -70 10 -36 18 -49 19 -75 10 -16 -6 -33 -17 -36
-25 -10 -25 6 -125 20 -131 7 -2 38 1 70 7 47 10 62 9 88 -3 17 -8 57 -26 88
-40 31 -15 65 -39 75 -53 32 -49 46 -331 21 -419 -26 -90 -63 -99 -186 -45
-50 22 -95 40 -101 40 -6 0 -29 -18 -52 -41 -50 -50 -71 -48 -84 8 -12 51 -28
70 -19 22 13 -65 22 -79 50 -79 19 0 37 12 62 41 39 45 32 46 149 -4 126 -54
165 -42 191 55 25 96 11 383 -22 433 -16 25 -106 75 -134 75 -8 0 -30 9 -49
21 -24 15 -37 18 -46 10 -7 -5 -33 -12 -57 -13 l-44 -3 -8 45 c-10 56 -4 74
28 89 23 10 32 8 69 -13 41 -24 44 -25 74 -10 37 18 39 37 15 140 -19 80 -16
95 22 120 26 18 27 17 46 -6 13 -16 18 -36 17 -61 -2 -21 1 -42 5 -46 5 -4 6
19 4 51 -4 42 -10 63 -23 72 -23 17 -24 17 -54 1z"/>
<path d="M3727 2413 c-3 -3 11 -27 32 -53 l39 -49 -18 -74 c-10 -41 -21 -86
-25 -98 -5 -16 -4 -21 3 -14 10 11 46 159 44 187 -1 19 -68 109 -75 101z"/>
<path d="M1705 2400 c-3 -5 -17 -10 -30 -10 -15 0 -50 -23 -93 -60 -61 -53
-72 -67 -94 -130 -14 -38 -22 -70 -18 -70 3 0 14 26 24 58 15 47 29 68 84 120
37 35 79 65 95 69 15 3 30 10 33 14 9 16 140 11 154 -6 7 -8 31 -20 53 -26 75
-20 107 -74 107 -180 l0 -49 -56 0 c-32 0 -71 -7 -91 -17 l-35 -16 4 -67 c5
-59 2 -73 -22 -116 -17 -32 -34 -50 -48 -52 -16 -3 -20 1 -16 12 3 9 2 16 -3
16 -5 0 -9 -9 -10 -20 -1 -15 4 -20 22 -20 13 0 27 5 30 10 3 6 19 10 35 10
27 0 40 15 40 46 0 7 -6 11 -14 8 -11 -4 -13 0 -9 15 6 25 10 25 56 6 23 -10
38 -11 42 -5 4 6 3 10 -2 9 -49 -8 -93 34 -93 89 0 56 25 75 106 80 43 3 64 1
64 -7 0 -7 -20 -11 -51 -11 -30 0 -48 -4 -44 -10 3 -5 25 -7 50 -3 56 7 62 -4
41 -85 -9 -33 -16 -75 -16 -93 0 -40 -52 -201 -80 -246 -22 -36 -91 -90 -127
-99 -29 -8 -159 24 -179 43 -8 8 -36 23 -62 33 -26 9 -71 34 -101 54 -29 20
-59 36 -66 36 -22 0 -46 49 -47 98 -1 29 9 72 26 113 14 36 26 70 26 76 0 5
14 29 31 52 36 51 32 67 -5 18 -14 -18 -41 -81 -60 -138 -28 -84 -33 -112 -27
-144 9 -50 28 -85 45 -85 7 0 44 -20 82 -45 37 -25 75 -45 83 -45 8 0 33 -11
56 -24 22 -14 75 -33 117 -44 l76 -20 44 25 c49 28 85 59 100 87 24 45 78 220
78 254 0 20 6 60 14 88 18 67 7 264 -18 311 -16 32 -61 63 -89 63 -8 0 -26 9
-40 20 -20 16 -40 20 -95 20 -39 0 -74 -4 -77 -10z m155 -500 c0 -12 -28 -25
-36 -17 -9 9 6 27 22 27 8 0 14 -5 14 -10z"/>
<path d="M3881 2372 c-14 -4 -26 -13 -28 -19 -3 -8 6 -7 27 3 38 20 129 12
209 -17 38 -14 57 -17 65 -9 7 7 3 10 -12 10 -12 0 -41 6 -64 14 -53 18 -164
28 -197 18z"/>
<path d="M67 2305 c-10 -96 3 -142 60 -196 l48 -46 135 -7 c74 -4 138 -10 142
-14 9 -9 12 -77 4 -132 l-6 -45 13 49 c6 27 10 71 9 97 l-4 47 -140 7 -141 7
-44 41 c-53 49 -59 59 -68 119 -6 39 -4 49 13 66 13 13 29 19 44 16 l23 -5
-23 10 c-12 6 -28 8 -36 5 -10 -4 -16 3 -18 18 -2 13 -7 -4 -11 -37z"/>
<path d="M3950 2344 c0 -7 -17 -15 -37 -19 l-37 -7 32 -15 c22 -10 32 -23 32
-37 0 -12 7 -31 16 -42 15 -19 16 -19 9 1 -4 11 -10 31 -13 45 -3 14 -12 30
-21 37 -22 17 -1 17 67 -1 28 -8 52 -11 52 -6 0 4 -18 10 -40 14 -21 3 -44 14
-49 24 -6 9 -11 12 -11 6z"/>
<path d="M4513 2313 c-9 -15 -13 -16 -24 -5 -16 15 -29 16 -29 2 0 -5 7 -10
16 -10 13 0 14 -8 8 -46 -7 -50 2 -64 44 -64 14 0 26 -9 32 -22 10 -23 10 -23
7 2 -2 20 -9 26 -37 30 -39 6 -48 27 -31 74 9 23 14 25 30 16 14 -7 22 -7 26
1 4 6 13 8 21 5 25 -10 15 10 -11 22 -34 16 -38 15 -52 -5z m47 -9 c0 -2 -9
-4 -21 -4 -11 0 -18 4 -14 10 5 8 35 3 35 -6z"/>
<path d="M1540 2220 c-10 -6 -4 -8 21 -4 20 4 54 0 80 -9 82 -28 129 -49 129
-58 0 -13 -12 -11 -55 7 -20 8 -39 13 -41 11 -3 -2 16 -12 42 -22 41 -16 47
-16 61 -2 14 13 13 16 -4 26 -35 18 -171 61 -195 61 -13 0 -30 -5 -38 -10z"/>
<path d="M6346 2166 c-9 -23 -34 -48 -70 -71 -80 -54 -117 -116 -177 -295 -30
-89 -35 -135 -19 -160 7 -11 8 -3 4 27 -5 33 1 64 31 150 21 59 45 119 53 133
46 76 69 102 118 135 36 23 61 48 70 70 7 18 22 36 31 38 14 4 13 5 -4 6 -17
1 -26 -8 -37 -33z"/>
<path d="M3075 2108 c-24 -95 -25 -329 -1 -398 9 -25 13 -34 11 -20 -28 131
-27 316 2 418 8 29 13 57 11 63 -2 5 -12 -23 -23 -63z"/>
<path d="M5690 2152 c-92 -55 -130 -114 -156 -239 -29 -140 -29 -147 4 -184
29 -33 30 -33 71 -19 37 12 44 12 58 -2 10 -11 13 -25 9 -42 -6 -24 -10 -26
-44 -20 -35 5 -41 3 -66 -26 -55 -66 -13 -148 61 -119 15 6 54 15 86 20 72 12
103 43 112 109 3 25 14 72 25 105 39 123 50 266 24 318 -19 37 -109 127 -127
126 -6 0 -32 -12 -57 -27z m120 -42 c42 -41 61 -70 66 -95 8 -47 -13 -216 -36
-280 -10 -27 -20 -69 -23 -92 -7 -56 -42 -100 -87 -108 -19 -3 -57 -12 -85
-20 -43 -13 -52 -13 -72 0 -33 22 -30 64 7 100 28 26 33 28 60 18 26 -10 32
-9 40 7 35 66 -14 111 -85 78 -24 -11 -29 -9 -51 18 -28 32 -28 42 -1 175 9
42 26 94 39 114 23 41 83 105 97 105 4 0 18 9 31 20 13 11 27 20 32 20 6 0 36
-27 68 -60z"/>
<path d="M3920 2155 c1 -5 7 -19 15 -29 13 -17 13 -22 0 -42 -8 -13 -15 -30
-15 -38 0 -8 -7 -19 -16 -24 -14 -8 -13 -10 5 -15 17 -4 21 -1 21 19 0 20 5
35 27 73 1 2 11 -7 22 -20 11 -13 20 -19 20 -14 0 6 -18 30 -39 55 -22 25 -40
41 -40 35z"/>
<path d="M1563 2140 c-13 -5 -23 -14 -23 -20 0 -6 11 -3 26 6 19 13 28 14 37
5 6 -6 15 -11 21 -11 5 0 1 7 -10 15 -22 17 -22 17 -51 5z"/>
<path d="M1642 2143 c14 -2 38 -15 53 -28 25 -24 25 -26 9 -50 -18 -27 -68
-34 -105 -15 -11 6 -19 7 -19 1 0 -13 26 -21 69 -21 47 0 83 34 74 68 -6 26
-51 53 -85 51 -20 -2 -20 -3 4 -6z"/>
<path d="M1471 2113 c0 -6 -4 -20 -7 -30 -5 -14 -4 -15 5 -7 7 7 11 20 8 30
-3 11 -5 14 -6 7z"/>
<path d="M1510 2101 c83 -27 131 -33 147 -19 15 11 16 11 10 -4 -3 -10 -2 -18
3 -18 14 0 13 27 -1 36 -6 3 -14 1 -18 -5 -6 -9 -24 -8 -72 4 -67 15 -112 19
-69 6z"/>
<path d="M1944 2069 c-12 -5 -13 -8 -5 -8 8 -1 22 -8 32 -17 26 -23 38 -13 13
12 -14 14 -27 18 -40 13z"/>
<path d="M1891 2018 c-7 -20 -4 -24 28 -35 20 -7 44 -17 54 -23 9 -6 17 -6 17
-1 0 5 -19 16 -42 24 -50 16 -59 43 -13 40 22 -2 26 0 15 7 -25 16 -50 11 -59
-12z"/>
<path d="M2338 2003 c15 -3 22 -12 22 -26 0 -12 9 -37 20 -55 11 -18 20 -35
20 -37 0 -3 -18 -14 -40 -25 -39 -20 -40 -22 -38 -68 l1 -47 4 43 c3 34 9 45
33 57 39 20 57 19 70 -6 7 -11 14 -18 17 -15 4 3 -1 14 -10 24 -27 30 -67 112
-67 138 0 20 -5 24 -27 23 -24 -2 -25 -2 -5 -6z"/>
<path d="M1217 1980 c-19 -28 -2 -142 21 -138 21 4 35 63 27 115 -7 47 -25 56
-48 23z m33 -3 c0 -7 -6 -19 -12 -26 -11 -10 -10 -12 2 -9 11 2 15 -6 14 -35
-1 -21 -6 -43 -12 -49 -15 -15 -31 91 -18 115 13 20 26 22 26 4z"/>
<path d="M3841 1987 c-16 -16 -13 -47 4 -47 8 0 15 -3 15 -7 0 -5 31 -8 68 -8
58 0 68 2 68 18 0 11 -10 20 -26 23 -14 3 -46 11 -72 19 -33 9 -50 9 -57 2z
m92 -22 c20 -4 40 -11 43 -16 7 -12 -107 -11 -125 0 -20 13 -3 34 23 27 11 -2
38 -8 59 -11z"/>
<path d="M1721 1941 c-8 -5 -9 -11 -3 -15 6 -3 14 -2 17 4 4 6 22 8 43 5 28
-5 33 -4 22 4 -18 13 -60 14 -79 2z"/>
<path d="M4645 1920 c17 -112 17 -127 0 -159 -9 -18 -14 -35 -11 -38 9 -9 36
68 36 101 -1 17 -7 54 -16 81 -10 34 -12 39 -9 15z"/>
<path d="M1650 1912 c-12 -15 -30 -29 -41 -32 -18 -5 -18 -6 3 -19 13 -7 20
-11 17 -7 -4 4 5 21 21 37 24 27 29 29 53 18 21 -9 32 -9 49 -1 23 12 23 12 1
7 -12 -4 -35 1 -52 9 -29 15 -30 15 -51 -12z"/>
<path d="M4678 1903 c7 -12 12 -42 12 -67 0 -94 -155 -334 -250 -387 -79 -45
-115 -70 -90 -64 14 4 44 20 67 36 23 16 46 29 51 29 29 0 170 195 208 289 29
68 32 152 7 172 -15 13 -15 12 -5 -8z"/>
<path d="M1286 1864 c-10 -74 -7 -109 10 -130 15 -19 16 -19 7 1 -4 11 -7 55
-6 98 1 42 0 77 -1 77 -2 0 -6 -21 -10 -46z"/>
<path d="M2933 1873 c-22 -8 -27 -70 -9 -98 21 -32 80 -35 96 -6 14 27 13 84
-2 99 -12 12 -62 15 -85 5z m75 -15 c15 -15 16 -53 2 -79 -21 -39 -90 -11 -90
37 0 44 58 72 88 42z"/>
<path d="M1582 1842 c-15 -2 -22 -9 -20 -20 3 -13 20 -19 78 -24 86 -9 135
-23 169 -49 45 -36 85 -14 43 24 -40 37 -206 79 -270 69z m186 -36 c44 -16 91
-46 92 -58 0 -15 -24 -8 -45 12 -23 21 -134 50 -197 50 -20 0 -40 5 -44 12
-10 16 137 4 194 -16z"/>
<path d="M2291 1777 c0 -9 12 -42 28 -72 25 -46 28 -60 20 -93 -5 -22 -4 -51
1 -68 l9 -29 -1 35 c-3 68 2 90 18 90 12 0 10 7 -10 31 -14 17 -26 36 -26 44
0 7 -6 18 -14 25 -8 6 -17 21 -19 33 -3 16 -5 17 -6 4z"/>
<path d="M4875 1711 c21 -21 176 -90 284 -127 97 -32 125 -46 189 -98 89 -72
135 -134 156 -214 9 -31 32 -111 51 -177 19 -66 48 -178 64 -250 27 -116 28
-131 14 -142 -15 -12 -18 -34 -15 -117 2 -42 4 -48 21 -43 24 6 31 -16 31
-106 0 -64 -1 -67 -19 -55 -15 9 -25 9 -45 0 -38 -17 -35 -54 7 -75 l32 -16
-32 0 c-22 -1 -33 -6 -33 -15 0 -20 57 -31 76 -15 22 18 13 61 -16 76 l-25 13
27 0 c21 0 29 6 34 25 7 26 0 136 -12 193 -4 22 -2 43 7 59 11 20 11 27 2 30
-10 4 -10 9 0 24 10 16 9 21 -2 28 -7 5 -26 67 -42 137 -16 71 -45 183 -64
249 -19 66 -44 152 -55 191 -12 42 -34 89 -54 116 -51 66 -160 148 -225 169
-99 31 -218 77 -273 106 -69 36 -96 47 -83 34z m785 -1030 c-7 -14 -7 -22 1
-27 8 -4 8 -9 0 -17 -6 -6 -11 -28 -11 -49 0 -57 -17 -46 -22 15 -5 61 5 97
27 97 12 0 14 -4 5 -19z m-5 -311 c4 -6 -5 -10 -19 -10 -31 0 -35 -25 -6 -33
27 -7 36 -35 17 -54 -13 -13 -21 -14 -39 -5 -23 11 -23 11 4 11 39 1 43 18 8
36 -32 16 -38 33 -18 53 15 15 45 16 53 2z"/>
<path d="M1344 1695 c-4 -9 -3 -33 1 -53 4 -20 8 -68 9 -106 l1 -69 39 -20
c45 -24 122 -32 199 -23 39 5 72 19 116 47 34 22 61 44 61 49 0 6 -24 -7 -52
-27 -71 -49 -110 -62 -194 -63 -56 0 -80 5 -115 23 l-44 24 -1 64 c-1 35 -5
81 -9 103 -6 27 -4 40 5 46 9 5 9 9 1 14 -6 4 -14 0 -17 -9z"/>
<path d="M4061 1681 c-8 -14 -7 -22 4 -31 8 -7 18 -30 21 -51 4 -22 10 -39 14
-39 10 0 -9 80 -23 98 -6 8 -5 17 3 27 8 10 9 15 2 15 -6 0 -16 -9 -21 -19z"/>
<path d="M3053 1642 l2 -54 -40 -13 c-42 -15 -61 -6 -49 25 3 8 2 11 -3 6 -4
-4 -8 -22 -9 -39 0 -18 -4 -77 -9 -132 -7 -90 -6 -104 13 -138 11 -22 22 -32
25 -25 2 7 -4 24 -14 37 -20 25 -24 88 -11 186 7 48 8 50 55 65 54 17 59 27
47 90 l-9 45 2 -53z"/>
<path d="M3640 1629 c-63 -32 -63 -35 2 -13 26 8 49 22 52 30 3 8 4 13 3 13
-1 -1 -27 -15 -57 -30z"/>
<path d="M4016 1638 c8 -29 62 -98 76 -98 5 0 52 -39 104 -87 52 -49 100 -89
107 -91 7 -2 -10 17 -38 43 -27 25 -73 68 -101 96 -28 27 -57 49 -65 49 -18 0
-48 50 -42 70 4 13 3 13 -6 0 -8 -12 -12 -9 -20 13 -13 33 -25 36 -15 5z"/>
<path d="M3522 1581 c-55 -22 -144 -106 -167 -159 -10 -22 -21 -40 -24 -40 -3
1 -13 -2 -21 -5 -8 -3 -68 -7 -133 -9 -111 -3 -120 -5 -138 -27 -10 -13 -19
-28 -19 -35 0 -6 11 3 24 19 24 30 24 30 146 33 l122 4 -7 -34 c-4 -18 -14
-49 -22 -69 l-14 -36 -72 1 c-55 2 -80 7 -107 24 -19 12 -41 20 -48 17 -8 -3
-22 -5 -32 -5 -27 0 -48 -26 -43 -53 3 -13 22 -43 44 -67 34 -37 43 -42 72
-38 17 3 60 2 95 -1 34 -4 62 -3 62 1 0 8 -88 14 -149 9 -29 -2 -40 4 -72 39
-52 57 -54 81 -9 96 37 13 73 2 99 -30 10 -12 18 -13 39 -5 15 6 47 7 72 4 33
-5 50 -2 57 7 14 17 45 121 41 139 -2 8 4 13 13 12 9 -2 22 12 33 39 24 54
108 134 171 163 58 27 50 31 -13 6z"/>
<path d="M3855 1469 c-8 -26 -3 -31 55 -53 25 -10 57 -29 73 -44 15 -14 27
-21 27 -15 0 17 -40 47 -93 69 -42 17 -52 25 -50 42 3 28 -4 28 -12 1z"/>
<path d="M2808 1353 c-46 -5 -45 0 -53 -207 -5 -133 -9 -162 -23 -173 -9 -7
-12 -13 -6 -13 26 0 33 32 39 180 8 201 7 197 50 202 39 4 37 8 55 -87 6 -33
19 -90 27 -128 14 -62 14 -69 -2 -93 -12 -18 -23 -24 -38 -21 -12 3 -31 2 -42
-3 -13 -5 -3 -7 30 -6 44 1 51 4 63 29 12 24 12 39 -1 95 -9 37 -21 96 -27
132 -16 85 -20 100 -28 98 -4 -1 -24 -3 -44 -5z"/>
<path d="M5962 1164 c-17 -12 -22 -25 -22 -60 0 -52 7 -56 75 -46 47 7 50 9
53 39 2 24 -2 34 -17 43 -12 6 -21 7 -21 3 0 -4 -9 3 -20 15 -25 26 -20 26
-48 6z m33 -62 c-16 -46 -39 -48 -43 -4 -4 44 26 82 44 57 9 -12 8 -24 -1 -53z
m60 -2 c0 -20 -6 -26 -27 -28 -29 -3 -35 9 -22 43 11 26 49 15 49 -15z"/>
<path d="M454 1055 c0 -97 2 -110 8 -67 4 29 4 83 0 120 -8 61 -8 56 -8 -53z"/>
<path d="M522 1127 c-1 -26 -11 -65 -22 -87 -11 -22 -20 -52 -19 -67 l1 -28 7
30 c4 17 15 45 25 63 12 23 16 49 13 85 l-3 52 -2 -48z"/>
<path d="M5106 1141 c-12 -19 -17 -263 -8 -355 9 -81 8 -101 -3 -112 -18 -18
-44 -18 -51 1 -8 20 -30 19 -40 -2 -10 -23 -10 -30 -1 -80 7 -42 36 -71 57
-58 15 9 12 32 -6 39 -24 9 -14 50 14 54 19 3 22 -1 22 -27 0 -30 29 -71 50
-71 19 0 24 32 7 42 -21 11 -22 47 -2 54 17 7 21 34 4 34 -35 0 -60 251 -42
413 9 77 9 85 -1 68z m-72 -522 c-4 -26 -1 -41 10 -52 9 -9 12 -18 7 -22 -26
-16 -52 75 -35 120 11 29 25 -6 18 -46z m99 18 c-18 -11 -17 -66 2 -73 16 -7
21 -24 6 -24 -24 0 -41 34 -41 79 0 57 6 65 29 43 14 -14 14 -19 4 -25z m-50
6 c-7 -2 -19 -2 -25 0 -7 3 -2 5 12 5 14 0 19 -2 13 -5z"/>
<path d="M5943 933 c2 -85 6 -105 22 -123 l20 -22 17 22 c20 25 23 57 7 80 -8
11 -9 7 -4 -18 6 -31 -6 -62 -25 -62 -14 0 -30 62 -30 117 0 46 3 55 23 62 12
5 25 7 30 4 4 -2 7 0 7 6 0 6 -12 8 -29 5 -23 -5 -30 -2 -35 12 -3 11 -4 -27
-3 -83z"/>
<path d="M1665 806 c-43 -14 -53 -31 -33 -59 18 -24 89 -40 123 -27 31 12 47
6 39 -14 -8 -21 -70 -29 -109 -15 -44 16 -79 1 -93 -41 -7 -18 -7 -28 -2 -25
6 4 10 13 10 20 0 8 11 22 25 31 19 12 31 14 57 6 18 -6 56 -9 83 -8 79 2 98
24 46 51 -23 11 -36 12 -56 5 -35 -13 -101 4 -115 30 -9 17 -7 22 15 30 36 14
45 13 45 -6 0 -10 -6 -14 -15 -11 -8 4 -17 2 -20 -2 -6 -11 23 -23 36 -15 5 3
9 16 9 30 0 21 5 24 34 24 27 0 42 -9 83 -53 63 -66 69 -79 78 -152 12 -94 30
-142 64 -171 48 -40 83 -106 75 -141 -14 -60 -104 -204 -104 -166 0 5 -27 31
-60 56 -33 26 -60 43 -60 38 0 -5 29 -32 65 -60 l65 -52 24 24 c30 30 60 88
76 145 10 38 9 49 -10 86 -11 24 -38 60 -60 80 -42 38 -54 70 -66 171 -8 74
-14 86 -77 152 -45 48 -54 53 -91 52 -23 -1 -59 -7 -81 -13z m159 -105 c3 -5
-1 -11 -9 -15 -9 -3 -15 0 -15 9 0 16 16 20 24 6z"/>
<path d="M3172 692 c-8 -24 -16 -29 -43 -30 -39 -1 -59 -23 -59 -64 0 -29 30
-68 53 -68 6 0 0 10 -15 21 -53 39 -26 106 40 100 7 -1 13 -17 13 -38 1 -32 3
-29 9 17 4 30 11 63 15 73 4 9 5 17 2 17 -3 0 -10 -13 -15 -28z"/>
<path d="M2826 656 c-13 -30 -27 -65 -31 -78 -4 -12 -12 -26 -17 -29 -6 -4 2
-6 17 -6 15 0 31 8 38 18 15 25 43 24 64 -1 26 -30 47 -26 40 8 -11 51 -56
142 -72 142 -9 0 -25 -23 -39 -54z m68 -8 c31 -70 39 -98 29 -98 -13 0 -36 43
-42 79 -6 33 -7 34 -24 17 -23 -23 -22 -35 6 -46 l22 -9 -22 0 c-12 -1 -29
-11 -37 -23 -26 -36 -28 -14 -5 48 20 56 36 84 46 84 2 0 14 -24 27 -52z m-24
-24 c0 -8 -5 -12 -10 -9 -6 4 -8 11 -5 16 9 14 15 11 15 -7z"/>
<path d="M2967 703 c-4 -3 -7 -42 -7 -85 0 -63 3 -78 15 -78 12 0 15 16 15 85
0 78 -5 96 -23 78z m10 -115 c-2 -24 -4 -7 -4 37 0 44 2 63 4 43 2 -21 2 -57
0 -80z"/>
<path d="M3017 703 c-2 -5 -3 -42 -3 -83 1 -63 4 -75 19 -78 15 -3 17 5 17 57
0 48 -3 60 -17 64 -15 4 -16 5 -2 6 24 2 32 41 9 41 -11 0 -21 -3 -23 -7z m23
-103 c0 -27 -4 -50 -10 -50 -11 0 -14 83 -3 93 12 12 13 8 13 -43z"/>
<path d="M3404 699 c-4 -6 -7 -43 -7 -81 -1 -73 7 -88 48 -88 38 0 69 24 76
58 3 17 3 32 -2 32 -5 0 -9 16 -9 35 0 24 -6 37 -19 45 -26 13 -78 13 -87 -1z
m83 -11 c6 -7 13 -36 17 -65 6 -46 4 -53 -16 -67 -30 -21 -65 -20 -75 2 -8 15
-8 35 -4 120 1 18 7 22 35 22 18 0 38 -6 43 -12z"/>
<path d="M3429 668 c-1 -7 0 -17 1 -23 1 -5 2 -27 1 -47 -1 -39 8 -45 43 -32
18 7 22 44 5 44 -5 0 -8 4 -5 9 4 5 -4 7 -16 5 l-23 -5 23 12 c31 17 29 49 -3
49 -14 0 -26 -6 -26 -12z m41 -7 c0 -14 -18 -23 -30 -16 -6 4 -8 11 -5 16 8
12 35 12 35 0z m5 -71 c0 -8 -8 -16 -17 -18 -13 -2 -18 3 -18 18 0 15 5 20 18
18 9 -2 17 -10 17 -18z"/>
<path d="M4216 703 c-3 -4 -6 -42 -6 -85 0 -70 2 -79 17 -76 10 2 19 12 21 23
4 20 4 20 -12 0 -14 -19 -15 -14 -16 60 0 79 14 96 23 25 4 -34 4 -34 5 6 2
39 -15 63 -32 47z"/>
<path d="M4420 695 c-7 -8 -10 -25 -6 -40 4 -14 2 -25 -3 -25 -5 0 -12 -14
-16 -31 -5 -22 -2 -36 11 -50 19 -21 64 -25 81 -8 8 8 17 8 32 -1 17 -9 22 -8
27 5 4 9 2 21 -4 27 -6 6 -8 26 -5 44 4 27 2 34 -10 34 -9 0 -19 -9 -22 -20
-4 -11 -10 -18 -15 -15 -4 3 -3 18 3 34 8 23 8 33 -2 45 -17 20 -55 21 -71 1z
m59 -9 c9 -11 10 -20 1 -36 -9 -16 -8 -25 1 -36 11 -14 15 -13 32 8 l19 23 -6
-34 c-4 -21 -1 -40 6 -49 11 -13 10 -15 -10 -10 -12 4 -36 1 -52 -5 -26 -10
-33 -9 -53 11 -21 22 -21 24 -5 52 10 17 15 37 12 45 -7 17 12 45 31 45 7 0
18 -6 24 -14z"/>
<path d="M4430 605 c-17 -20 -5 -45 20 -45 11 0 23 7 26 15 6 15 -11 45 -26
45 -4 0 -13 -7 -20 -15z m40 -26 c0 -12 -27 -11 -35 1 -11 17 5 32 21 19 8 -6
14 -15 14 -20z"/>
<path d="M4653 703 c-9 -3 -13 -30 -13 -84 0 -72 2 -79 20 -79 17 0 20 6 18
48 l-1 47 -4 -42 c-2 -24 -8 -43 -14 -43 -12 0 -12 137 0 145 5 3 21 -14 35
-37 31 -51 34 -43 6 12 -20 40 -24 43 -47 33z"/>
<path d="M4775 680 c-22 -42 -18 -50 6 -13 12 18 25 30 30 27 13 -8 11 -144
-2 -144 -7 0 -10 15 -7 39 2 22 0 37 -4 35 -5 -3 -8 -23 -8 -45 0 -33 3 -40
18 -37 14 3 18 16 20 77 2 53 -1 77 -10 82 -21 14 -27 11 -43 -21z"/>
<path d="M5261 684 c-25 -32 -28 -90 -6 -121 29 -41 125 -39 125 2 0 12 -8 14
-40 9 -36 -6 -40 -4 -51 20 -19 41 1 76 44 76 19 0 37 3 40 7 14 14 -17 33
-53 33 -30 0 -43 -6 -59 -26z m99 6 c11 -7 4 -10 -27 -10 -46 0 -63 -17 -63
-64 0 -38 27 -59 68 -53 29 5 32 4 22 -8 -18 -21 -53 -18 -84 6 -70 55 9 177
84 129z"/>
<path d="M5406 703 c-3 -4 -6 -42 -6 -85 0 -71 2 -78 20 -78 18 0 20 7 20 79
0 58 -4 80 -14 84 -8 3 -17 3 -20 0z m24 -83 c0 -40 -4 -70 -10 -70 -6 0 -10
30 -10 70 0 40 4 70 10 70 6 0 10 -30 10 -70z"/>
<path d="M5524 674 c-13 -26 -14 -38 -5 -47 6 -6 11 -28 11 -49 0 -27 4 -38
15 -38 19 0 24 12 28 77 1 29 6 55 10 59 15 16 6 34 -18 34 -18 0 -28 -9 -41
-36z m48 14 c-7 -7 -12 -38 -12 -69 0 -32 -4 -61 -10 -64 -6 -4 -10 10 -10 34
0 22 -4 42 -9 45 -14 9 18 66 37 66 12 0 13 -3 4 -12z"/>
<path d="M6008 688 c-2 -16 -12 -24 -33 -28 -54 -9 -71 -96 -24 -121 27 -14
89 -1 90 20 6 83 5 128 -4 139 -14 18 -25 15 -29 -10z m27 -64 c-1 -36 -5 -67
-7 -69 -3 -3 -18 -8 -35 -11 -26 -5 -34 -2 -49 21 -16 25 -16 30 -3 54 9 16
26 28 44 31 22 4 31 12 33 28 7 49 20 8 17 -54z"/>
<path d="M5960 620 c-15 -27 -3 -60 20 -60 27 0 44 34 30 60 -14 26 -36 26
-50 0z m40 -34 c-7 -9 -17 -16 -22 -16 -16 0 -21 30 -7 46 11 13 14 13 27 0
13 -12 13 -18 2 -30z"/>
<path d="M3810 665 c-9 -17 -10 -28 -2 -37 6 -7 12 -28 14 -47 4 -40 44 -64
55 -34 4 9 1 19 -5 21 -15 5 -16 54 -1 69 8 8 6 17 -7 32 -24 27 -38 27 -54
-4z m40 -51 c0 -30 5 -54 10 -54 6 0 10 -5 10 -10 0 -7 -6 -7 -20 0 -14 7 -20
21 -20 45 0 18 -4 37 -10 40 -6 4 -5 13 2 25 19 29 28 14 28 -46z"/>
<path d="M1856 666 c7 -17 -25 -30 -51 -20 -13 5 -16 4 -11 -4 4 -7 24 -11 45
-10 31 2 37 6 33 21 -2 9 -8 20 -13 23 -5 3 -6 -2 -3 -10z"/>
<path d="M3232 662 c-28 -4 -44 -34 -40 -75 4 -39 41 -63 81 -53 37 9 35 36
-2 36 -17 0 -33 5 -36 10 -4 6 8 10 30 10 35 0 36 1 33 31 -3 34 -25 48 -66
41z m58 -42 c0 -16 -6 -20 -32 -19 -24 1 -27 3 -10 6 23 5 29 18 12 28 -18 11
-41 -17 -38 -44 2 -21 9 -27 36 -29 35 -4 35 -22 0 -22 -47 0 -74 56 -45 92
26 33 77 25 77 -12z"/>
<path d="M4130 663 c-46 -16 -56 -92 -15 -119 16 -10 34 -14 50 -10 34 9 32
34 -2 38 -22 2 -28 8 -28 28 0 20 6 26 28 28 24 3 41 32 18 32 -5 0 -15 2 -23
4 -7 3 -20 2 -28 -1z m38 -12 c10 -6 4 -10 -18 -14 -28 -6 -31 -10 -28 -39 2
-28 8 -34 31 -36 28 -3 28 -22 0 -22 -25 0 -53 30 -53 57 0 22 31 63 48 63 4
0 13 -4 20 -9z"/>
<path d="M5729 656 c-50 -25 -44 -109 7 -122 41 -10 78 14 82 53 6 61 -38 95
-89 69z m69 -24 c17 -22 15 -52 -5 -74 -21 -24 -48 -23 -73 2 -26 26 -25 46 4
75 26 26 51 25 74 -3z"/>
<path d="M5730 620 c-15 -28 4 -62 33 -58 16 2 23 11 25 32 5 44 -38 64 -58
26z m48 -14 c6 -29 -15 -43 -35 -24 -14 14 -14 20 -3 33 16 19 34 15 38 -9z"/>
<path d="M3550 640 c-31 -57 14 -121 73 -106 37 9 35 36 -2 36 -17 0 -33 5
-36 10 -4 6 8 10 29 10 42 0 49 10 36 44 -8 22 -16 26 -49 26 -30 0 -43 -5
-51 -20z m90 -10 c13 -24 -4 -34 -42 -27 -20 4 -19 4 5 6 32 1 33 24 1 28 -18
3 -18 2 1 -6 18 -9 17 -10 -8 -10 -25 -1 -28 -4 -25 -28 2 -23 8 -29 36 -31
35 -4 35 -22 0 -22 -46 0 -71 48 -48 91 15 26 66 26 80 -1z"/>
<path d="M3680 600 c0 -47 3 -60 15 -60 10 0 15 10 15 34 0 33 20 62 33 49 4
-3 7 -24 7 -45 0 -31 3 -38 20 -38 17 0 20 7 20 41 0 63 -13 79 -65 79 l-45 0
0 -60z m88 38 c14 -14 16 -88 3 -88 -6 0 -11 19 -13 42 -5 66 -45 60 -58 -8
-8 -39 -8 -38 -9 14 l-1 52 33 0 c18 0 38 -5 45 -12z"/>
<path d="M3900 600 c0 -45 4 -60 14 -60 21 0 28 49 17 113 0 4 -8 7 -16 7 -12
0 -15 -13 -15 -60z m28 8 c1 -18 -3 -40 -8 -48 -7 -11 -10 1 -10 38 0 57 16
65 18 10z"/>
<path d="M3960 599 c0 -52 2 -60 18 -57 11 2 19 15 22 41 3 21 10 38 15 38 6
0 12 -17 15 -38 3 -26 11 -39 23 -41 14 -3 17 4 17 45 0 60 -12 73 -67 73
l-43 0 0 -61z m88 39 c15 -15 16 -92 2 -83 -5 3 -10 21 -10 40 0 37 -10 48
-34 39 -10 -4 -16 -18 -16 -39 0 -19 -4 -37 -10 -40 -6 -4 -10 13 -10 44 0 51
0 51 33 51 18 0 38 -5 45 -12z"/>
<path d="M4267 653 c-4 -3 -7 -11 -7 -17 0 -6 5 -5 12 2 7 7 19 12 27 12 11 0
9 -5 -7 -16 -12 -8 -22 -24 -22 -34 0 -10 10 -26 22 -34 16 -11 18 -16 7 -16
-8 0 -20 5 -27 12 -9 9 -12 9 -12 0 0 -16 25 -26 46 -18 15 6 14 10 -6 31
l-23 25 21 23 c12 13 19 27 15 30 -8 9 -38 9 -46 0z"/>
<path d="M4864 635 c-37 -56 10 -115 79 -97 27 7 33 14 35 41 2 19 1 44 -2 57
-6 21 -12 24 -51 24 -36 0 -48 -5 -61 -25z m104 -33 c3 -38 1 -43 -25 -53 -36
-13 -70 2 -79 36 -9 38 20 67 65 63 35 -3 36 -5 39 -46z"/>
<path d="M4890 625 c-7 -9 -10 -25 -6 -41 5 -20 12 -25 34 -22 21 2 28 9 30
32 5 42 -32 62 -58 31z m38 -4 c18 -11 11 -45 -9 -49 -19 -3 -31 21 -23 43 7
17 13 18 32 6z"/>
<path d="M5460 600 c0 -45 4 -60 14 -60 8 0 15 14 18 37 6 50 -1 83 -18 83
-10 0 -14 -16 -14 -60z m20 -21 c-7 -31 -8 -29 -8 21 -1 39 2 49 8 34 4 -11 5
-36 0 -55z"/>
<path d="M5840 600 c0 -53 2 -60 20 -60 16 0 20 7 20 35 0 24 6 39 20 47 33
21 24 38 -20 38 l-40 0 0 -60z m53 33 c-16 -11 -23 -26 -23 -49 0 -19 -4 -34
-10 -34 -5 0 -10 23 -10 50 0 50 0 50 33 49 32 0 32 0 10 -16z"/>
<path d="M1679 638 c-1 -7 -1 -17 0 -22 4 -21 -22 -54 -38 -49 -9 3 -5 -3 9
-13 14 -11 50 -21 83 -24 47 -5 55 -4 42 6 -9 7 -15 18 -14 26 1 7 1 27 0 45
-1 25 -4 30 -20 26 -10 -3 -22 0 -25 6 -10 15 -36 14 -37 -1z m53 -18 c14 0
18 -8 18 -40 0 -37 -2 -40 -27 -40 -16 0 -35 5 -43 10 -12 8 -11 13 8 39 19
26 20 31 7 31 -9 0 -13 5 -9 11 4 8 9 8 17 0 6 -6 19 -11 29 -11z"/>
<path d="M1628 627 c7 -7 7 -18 2 -27 -7 -11 -11 -11 -24 -1 -18 15 -50 1 -66
-29 -12 -23 -13 -83 -1 -76 4 3 6 17 3 31 -7 36 24 68 58 60 17 -4 31 -1 39 8
12 16 5 47 -11 47 -7 0 -7 -4 0 -13z"/>
<path d="M3112 631 c-8 -5 -12 -21 -10 -37 2 -23 8 -30 31 -32 20 -3 26 -7 19
-15 -5 -7 -17 -86 -26 -177 -9 -91 -18 -185 -20 -210 -3 -25 -7 -72 -10 -105
l-5 -60 10 55 c5 30 11 80 14 110 3 30 13 125 21 210 9 85 20 159 25 165 17
17 9 34 -18 37 -34 4 -43 36 -17 55 19 14 7 18 -14 4z"/>
<path d="M4690 612 c0 -7 7 -26 15 -42 25 -48 56 -36 70 25 l7 30 -19 -34
c-10 -19 -22 -35 -27 -35 -5 -1 -17 15 -27 34 -11 19 -19 29 -19 22z"/>
<path d="M3531 510 c0 -25 4 -88 9 -140 6 -52 11 -157 11 -233 1 -76 3 -136 6
-133 10 9 2 280 -11 416 -8 74 -14 115 -15 90z"/>
<path d="M5106 494 c-4 -19 -9 -84 -11 -144 -4 -107 -11 -156 -25 -175 -10
-13 -43 -165 -37 -171 2 -3 12 34 22 81 10 47 22 88 27 91 4 3 8 12 8 21 0 8
7 29 15 46 8 18 15 48 17 67 2 27 7 35 23 35 16 0 21 -8 23 -42 2 -28 8 -43
17 -43 18 0 22 18 17 68 -5 46 -26 65 -65 60 -21 -3 -22 0 -21 70 1 39 0 72
-1 72 -2 0 -6 -16 -9 -36z m71 -126 c14 -18 23 -87 13 -93 -5 -3 -10 14 -12
37 -3 38 -6 43 -30 46 -28 3 -31 -1 -41 -68 -3 -14 -5 -2 -6 27 -1 41 2 52 17
56 32 9 50 7 59 -5z"/>
<path d="M1816 504 c-4 -10 1 -25 10 -35 17 -18 12 -59 -8 -59 -12 0 -66 37
-91 62 -10 10 -22 16 -28 13 -5 -4 -9 -1 -9 4 0 6 -9 11 -20 11 -15 0 -20 -7
-20 -26 0 -40 -41 -72 -53 -41 -4 8 -6 7 -6 -3 -1 -18 43 -40 80 -40 15 0 41
-11 57 -25 20 -17 41 -25 63 -24 l34 2 -30 4 c-16 3 -40 14 -52 25 -11 11 -40
22 -62 25 -23 3 -44 9 -46 14 -3 4 12 21 32 38 36 30 38 30 53 13 24 -29 76
-62 99 -62 28 0 38 42 18 74 -12 17 -13 26 -4 35 8 8 8 11 0 11 -6 0 -14 -7
-17 -16z m-136 -23 c0 -6 -4 -13 -10 -16 -5 -3 -10 1 -10 9 0 9 5 16 10 16 6
0 10 -4 10 -9z"/>
<path d="M1567 488 c2 -5 12 -8 21 -8 12 0 13 -3 4 -12 -9 -9 -18 -9 -38 1
-39 17 -49 1 -46 -70 2 -65 -24 -143 -59 -175 -28 -25 -26 -123 3 -183 12 -25
23 -40 25 -34 2 6 -5 26 -16 44 -26 43 -29 140 -5 160 35 29 58 93 59 165 2
86 7 97 40 82 29 -13 51 -6 57 19 4 14 -1 18 -23 18 -15 0 -25 -3 -22 -7z"/>
<path d="M4411 429 c-47 -19 -64 -73 -42 -132 18 -47 131 -58 131 -12 0 12 -8
14 -39 9 -33 -5 -41 -3 -55 17 -9 13 -16 29 -16 36 0 23 39 53 70 53 36 0 41
25 8 34 -28 7 -27 7 -57 -5z m59 -9 c11 -7 8 -10 -16 -10 -46 0 -68 -21 -68
-65 0 -48 25 -68 74 -61 33 5 34 4 15 -10 -59 -44 -132 46 -94 117 17 32 62
46 89 29z"/>
<path d="M4764 432 c-22 -14 -30 -48 -26 -110 3 -52 7 -63 20 -60 13 3 18 17
20 68 2 35 8 68 14 71 6 4 8 14 5 23 -7 17 -16 20 -33 8z m18 -20 c-8 -2 -12
-27 -12 -67 0 -78 -18 -96 -22 -23 -3 58 16 113 34 101 9 -5 9 -8 0 -11z"/>
<path d="M5310 410 c0 -15 -7 -20 -28 -20 -38 0 -62 -28 -62 -73 0 -47 30 -69
83 -60 l37 6 0 83 c0 68 -3 84 -15 84 -8 0 -15 -9 -15 -20z m20 -64 l0 -73
-32 -7 c-22 -4 -37 -1 -50 10 -39 36 -11 104 44 104 21 0 28 5 28 20 0 11 2
20 5 20 3 0 5 -33 5 -74z"/>
<path d="M5254 346 c-3 -8 -4 -25 -2 -38 2 -17 9 -23 28 -23 22 0 25 5 28 38
3 34 1 37 -23 37 -14 0 -28 -6 -31 -14z m44 -23 c-3 -30 -25 -42 -34 -19 -9
22 2 46 21 46 12 0 15 -8 13 -27z"/>
<path d="M5815 407 c-4 -13 -5 -49 -3 -82 3 -54 5 -59 29 -66 36 -9 79 0 79
17 0 9 -12 14 -35 14 -28 0 -35 4 -35 20 0 16 7 20 36 20 28 0 35 3 32 18 -2
11 -14 18 -36 20 -46 5 -43 32 3 32 24 0 35 5 35 15 0 11 -12 15 -50 15 -43 0
-50 -3 -55 -23z m63 6 c-33 -4 -38 -8 -38 -29 0 -20 5 -24 29 -24 17 0 33 -5
37 -11 5 -8 -4 -10 -30 -7 -35 4 -36 3 -36 -29 0 -31 2 -33 38 -34 32 0 34 -1
14 -9 -13 -6 -32 -6 -47 0 -23 9 -25 15 -25 73 0 35 3 67 7 70 3 4 25 6 47 5
l41 -1 -37 -4z"/>
<path d="M5950 345 c0 -67 3 -85 14 -85 9 0 16 12 18 32 2 28 8 34 32 38 36 6
41 19 20 45 -8 11 -13 14 -9 8 4 -9 -2 -13 -20 -13 -38 0 -26 24 13 28 20 2
32 9 32 18 0 10 -13 14 -50 14 l-50 0 0 -85z m60 66 c-26 -4 -36 -12 -38 -28
-3 -20 1 -23 27 -23 16 0 33 -5 37 -11 5 -8 -4 -10 -28 -7 -33 3 -34 2 -37
-31 -4 -65 -11 -45 -11 32 l0 77 43 -1 42 -2 -35 -6z"/>
<path d="M4535 376 c-23 -16 -27 -88 -7 -108 16 -16 76 -15 96 1 25 21 21 86
-6 105 -28 20 -58 20 -83 2z m77 -13 c45 -41 -2 -120 -57 -95 -32 15 -42 55
-21 87 19 29 51 32 78 8z"/>
<path d="M4544 346 c-12 -32 0 -61 28 -64 32 -4 50 22 37 56 -10 25 -56 31
-65 8z m55 -15 c8 -14 7 -22 -4 -31 -19 -16 -45 -6 -45 18 0 36 33 45 49 13z"/>
<path d="M4826 371 c-27 -30 -18 -92 16 -109 33 -16 75 -1 87 30 10 26 -3 78
-21 90 -23 14 -64 9 -82 -11z m89 -23 c15 -37 7 -61 -26 -78 -30 -17 -69 11
-69 50 0 63 71 84 95 28z"/>
<path d="M4834 335 c-7 -29 10 -55 36 -55 26 0 43 26 36 55 -5 20 -13 25 -36
25 -23 0 -31 -5 -36 -25z m64 -11 c3 -23 -18 -37 -43 -28 -16 6 -20 35 -8 48
14 14 48 1 51 -20z"/>
<path d="M5376 371 c-27 -30 -18 -92 16 -109 31 -15 78 -6 78 14 0 9 -11 14
-29 14 -17 0 -33 5 -36 10 -4 6 6 10 22 10 35 0 54 16 46 39 -15 42 -68 54
-97 22z m78 -13 c19 -27 12 -38 -25 -38 -19 0 -29 5 -29 15 0 9 9 15 23 14 21
0 21 -1 2 -10 -17 -7 -17 -8 -2 -6 26 3 21 22 -5 22 -20 0 -23 -5 -23 -35 0
-32 3 -35 35 -40 32 -5 33 -7 12 -14 -54 -18 -95 52 -55 96 22 24 48 23 67 -4z"/>
<path d="M5523 383 c-37 -7 -44 -123 -7 -123 10 0 14 12 14 40 0 29 5 42 20
50 11 6 20 17 20 25 0 15 -6 16 -47 8z m20 -21 c-14 -11 -23 -31 -25 -57 -3
-30 -6 -36 -12 -22 -12 26 2 85 22 90 33 9 37 6 15 -11z"/>
<path d="M4950 336 c0 -60 25 -88 72 -79 18 3 34 7 36 8 1 1 4 26 5 56 2 43
-1 54 -15 57 -13 3 -17 -6 -20 -40 -2 -31 -8 -44 -20 -46 -13 -3 -17 6 -20 40
-2 31 -8 44 -20 46 -15 3 -18 -4 -18 -42z m30 -17 c0 -38 2 -40 28 -37 24 3
27 7 30 46 2 23 7 42 12 42 8 0 6 -89 -2 -95 -17 -13 -59 -12 -72 1 -18 17
-23 99 -6 89 6 -3 10 -24 10 -46z"/>
<path d="M1555 340 c11 -4 26 -5 33 -2 7 2 20 -5 29 -17 13 -19 23 -22 76 -21
100 3 167 12 167 22 0 5 -5 6 -11 3 -6 -4 -55 -8 -110 -9 -87 -3 -101 -1 -109
15 -7 13 -21 18 -53 17 -29 0 -36 -3 -22 -8z"/>
<path d="M2101 298 c-35 -56 -53 -88 -48 -88 3 0 20 23 38 50 31 47 33 49 51
33 21 -19 25 -41 4 -23 -12 9 -19 6 -38 -16 -13 -16 -42 -49 -65 -74 -43 -47
-113 -155 -113 -174 0 -6 19 18 41 54 23 36 58 83 78 105 20 22 46 53 57 69
18 25 23 27 42 17 20 -10 22 -9 22 12 0 23 -27 57 -46 57 -5 0 -16 -10 -23
-22z"/>
<path d="M1557 274 c31 -31 40 -35 67 -29 17 3 43 7 59 7 21 1 27 5 26 22 -1
17 -2 18 -6 3 -2 -9 -9 -15 -14 -11 -5 3 -24 0 -43 -7 -30 -11 -38 -10 -61 5
-22 14 -25 20 -14 27 9 6 18 3 26 -7 6 -9 14 -11 17 -5 9 14 -8 22 -53 26
l-39 4 35 -35z"/>
<path d="M5684 264 c-4 -14 -2 -30 4 -36 6 -6 8 -18 5 -27 -4 -13 -3 -14 5 -1
6 8 9 17 6 21 -2 4 0 10 6 14 5 3 10 17 10 31 0 32 -28 31 -36 -2z m17 -17
c-8 -8 -11 -7 -11 4 0 20 13 34 18 19 3 -7 -1 -17 -7 -23z"/>
<path d="M1649 196 c30 -8 31 -11 31 -60 0 -50 -18 -91 -47 -109 -7 -5 -11
-13 -7 -18 3 -6 17 3 30 18 23 27 31 53 36 122 2 27 9 36 29 43 24 8 32 4 71
-37 35 -37 51 -47 83 -50 l40 -4 -35 10 c-19 6 -54 29 -77 52 -42 40 -44 41
-114 41 -59 1 -66 -1 -40 -8z"/>
<path d="M1924 55 c-9 -13 -24 -27 -35 -30 -27 -9 -24 -20 5 -20 13 0 23 2 20
4 -2 2 6 19 17 38 24 38 18 46 -7 8z"/>
</g>
</defs>
<mask id="mp82499">
  <use xlink:href="#gp82499" fill="white" />
</mask>
<use xlink:href="#gp82499" data-mask="url(#mp82499)" data-stroke="black" stroke-width="20px" fill="black"/>
</svg>
