<?xml version="1.0" standalone="no"?>
<!DOCTYPE svg PUBLIC "-//W3C//DTD SVG 20010904//EN"
 "http://www.w3.org/TR/2001/REC-SVG-20010904/DTD/svg10.dtd">
<svg class="Potrace" xmlns:xlink="http://www.w3.org/1999/xlink" version="1.0" xmlns="http://www.w3.org/2000/svg"
 width="193.000000pt" height="692.000000pt" viewBox="0 0 193.000000 692.000000"
 preserveAspectRatio="xMidYMid meet">
<defs>
  <g id="gp95958" transform="translate(0.000000,692.000000) scale(0.100000,-0.100000)"
>
<path d="M292 6219 c-2 -629 -4 -711 -19 -750 -11 -30 -16 -72 -15 -134 1 -49
-3 -107 -9 -127 -5 -20 -23 -123 -39 -230 -23 -150 -38 -214 -66 -288 -21 -54
-38 -118 -39 -148 -2 -29 -8 -58 -13 -65 -6 -7 -13 -30 -17 -52 -4 -22 -13
-55 -22 -73 -10 -23 -14 -64 -13 -130 0 -53 -4 -153 -10 -222 -6 -69 -8 -158
-4 -198 3 -45 1 -91 -6 -120 -9 -33 -10 -61 -3 -93 6 -26 6 -55 1 -69 -11 -31
10 -138 33 -161 14 -14 25 -16 56 -9 21 5 92 10 158 12 l120 3 0 -135 c0 -74
-2 -242 -5 -372 -3 -130 -2 -234 1 -230 4 4 10 172 13 374 l7 367 -26 7 c-14
3 -89 1 -167 -5 -97 -8 -144 -8 -153 -1 -19 15 -38 126 -26 148 6 12 6 34 0
63 -6 24 -7 58 -4 74 4 17 7 102 8 189 2 144 4 160 21 170 36 21 78 66 61 66
-9 0 -18 -6 -21 -14 -3 -8 -17 -22 -31 -32 l-26 -16 7 53 c4 30 6 98 6 152 -1
70 2 104 13 120 7 12 16 41 20 65 3 23 11 50 18 59 7 8 14 41 15 72 1 37 14
88 38 151 29 75 43 137 66 288 16 107 34 210 39 230 6 20 9 78 9 127 -1 64 3
101 15 130 16 36 17 103 15 750 l-3 710 -3 -706z"/>
<path d="M357 6913 c-4 -4 -7 -236 -7 -517 l1 -511 29 0 30 0 0 518 0 517 -23
0 c-13 0 -27 -3 -30 -7z m43 -509 c0 -476 -1 -505 -17 -502 -17 3 -18 36 -21
493 -1 270 0 496 3 503 2 6 11 12 20 12 13 0 15 -58 15 -506z"/>
<path d="M500 6424 c0 -495 0 -496 -21 -513 -19 -16 -22 -29 -24 -117 -2 -96
-2 -96 4 -20 l6 79 40 0 40 0 3 -71 c3 -70 2 -71 -27 -87 -17 -8 -41 -15 -55
-15 -15 0 -30 -8 -36 -21 -20 -36 -25 -11 -21 102 l3 109 -31 0 -31 0 0 -140
c0 -77 -4 -140 -9 -140 -14 0 -23 -32 -12 -43 6 -6 16 -5 28 2 16 11 16 11 -4
6 -27 -8 -31 10 -5 26 15 9 17 26 14 145 -3 131 -3 134 18 134 21 0 21 -3 18
-115 -2 -64 -7 -116 -13 -118 -5 -2 2 -2 17 0 14 2 29 -1 33 -6 7 -13 55 -15
55 -3 0 5 -10 8 -22 8 -17 -1 -23 5 -23 19 0 15 9 21 35 25 73 13 80 22 80
110 0 57 -4 80 -12 81 -7 0 -26 2 -43 2 -36 2 -47 32 -16 42 21 6 21 11 21
506 0 326 3 499 10 499 12 0 12 22 19 -540 l6 -465 33 3 c17 1 32 -2 32 -8 0
-5 11 -10 25 -10 14 0 25 5 25 10 0 6 11 10 25 10 13 0 29 8 34 19 6 11 11
148 11 342 2 458 9 639 27 639 11 0 13 -45 14 -247 1 -419 -2 -575 -11 -599
-5 -12 -11 -47 -14 -76 -3 -30 -8 -63 -12 -74 -5 -13 -4 -16 4 -9 6 6 14 39
17 74 3 36 10 72 15 82 11 19 15 426 5 450 -3 10 -3 19 2 22 4 3 7 91 5 196
l-3 191 -23 0 c-23 0 -23 -1 -29 -162 -3 -90 -6 -309 -7 -487 -1 -325 -3 -351
-36 -351 -12 0 -14 82 -14 500 l0 500 -35 0 -35 0 0 -499 c0 -447 -2 -499 -16
-505 -9 -3 -20 -4 -25 0 -5 3 -9 159 -9 362 0 196 -3 421 -7 500 -6 129 -8
142 -25 142 -17 0 -18 -21 -18 -496z m160 -6 c0 -271 -4 -499 -9 -507 -5 -8
-16 -11 -25 -8 -14 6 -16 57 -16 507 l0 500 25 0 25 0 0 -492z"/>
<path d="M897 6914 c-4 -4 -7 -29 -7 -55 0 -43 -3 -50 -39 -78 -29 -23 -40
-40 -43 -66 -2 -22 0 -34 6 -32 6 2 9 14 8 27 -4 27 66 98 92 94 9 -1 21 6 26
17 13 24 4 25 -18 2 -16 -16 -17 -14 -20 26 -4 50 9 71 33 51 8 -7 15 -20 15
-29 0 -20 19 -41 37 -41 9 0 13 14 13 40 l0 40 355 0 c302 0 355 -2 355 -14 0
-8 -4 -17 -10 -21 -5 -3 -7 -12 -3 -20 7 -20 -59 -20 -158 -1 -89 17 -190 28
-144 16 40 -11 167 -31 235 -37 30 -3 60 -10 67 -15 8 -7 12 -4 11 9 0 10 3
35 7 56 l7 37 -366 0 -366 0 0 -40 c0 -48 -21 -46 -36 3 -9 31 -40 48 -57 31z"/>
<path d="M1778 6913 c28 -2 76 -2 105 0 28 2 5 3 -53 3 -58 0 -81 -1 -52 -3z"/>
<path d="M1070 6876 c-6 -8 -24 -17 -38 -19 l-27 -4 26 -2 c15 0 37 8 50 19
13 10 19 19 13 20 -6 0 -17 -6 -24 -14z"/>
<path d="M1377 6789 c-4 -13 0 -19 12 -19 28 0 81 -62 107 -124 19 -47 24 -77
24 -148 0 -82 -2 -91 -25 -112 -28 -26 -30 -38 -13 -66 14 -22 6 -34 -29 -45
-21 -6 -23 -3 -23 30 0 20 -7 49 -14 63 -8 15 -22 65 -31 112 -9 47 -18 93
-20 102 -10 51 -48 83 -76 65 -13 -8 -24 -8 -43 3 -30 15 -80 4 -151 -36 -22
-12 -63 -24 -90 -27 -62 -7 -97 -22 -114 -49 -17 -28 -34 -259 -21 -290 10
-23 10 -23 5 3 -8 43 11 254 26 277 16 26 77 52 121 52 17 0 64 16 104 35 75
36 108 43 119 24 4 -6 22 -8 45 -4 36 6 38 5 53 -34 9 -22 24 -80 33 -128 9
-48 22 -100 30 -115 8 -14 14 -43 14 -63 0 -36 1 -37 28 -30 45 11 58 30 42
60 -12 23 -11 27 13 49 26 24 27 30 27 123 0 76 -5 108 -20 142 -11 24 -20 49
-20 56 0 7 -16 28 -36 47 -20 18 -45 40 -55 50 -16 15 -17 15 -22 -3z"/>
<path d="M929 6769 c-13 -10 -19 -19 -12 -19 6 0 18 6 25 13 21 22 151 3 192
-27 23 -18 39 -22 64 -19 20 3 32 1 32 -6 0 -6 7 -11 15 -11 12 0 12 3 -2 18
-13 13 -25 16 -43 12 -18 -5 -35 -1 -59 16 -19 13 -55 26 -80 29 -25 3 -60 7
-77 9 -19 3 -39 -3 -55 -15z"/>
<path d="M840 6731 c-7 -13 -7 -22 0 -26 6 -3 10 4 10 16 0 16 5 20 20 16 11
-3 18 -1 14 4 -9 15 -33 10 -44 -10z"/>
<path d="M960 6742 c23 -4 21 -6 -15 -17 l-40 -13 47 5 c34 4 54 1 72 -11 14
-9 33 -16 42 -16 10 0 -9 14 -41 30 -32 17 -66 29 -74 29 -9 -1 -5 -4 9 -7z"/>
<path d="M896 6691 c-12 -5 3 -7 40 -7 54 0 93 -8 149 -29 14 -6 17 -5 10 2
-14 15 -117 43 -152 42 -15 0 -37 -4 -47 -8z"/>
<path d="M901 6666 c2 -2 36 -6 74 -9 42 -3 58 -2 40 3 -30 8 -122 13 -114 6z"/>
<path d="M1445 6561 c-3 -5 -1 -12 5 -16 5 -3 10 -2 10 4 0 5 10 12 23 14 19
4 19 4 -5 6 -15 0 -29 -3 -33 -8z"/>
<path d="M1190 6403 c-24 -9 -30 -25 -28 -73 1 -49 -3 -47 88 -52 43 -3 74 15
45 26 -9 3 -14 2 -11 -3 10 -15 -42 -22 -71 -9 -35 16 -43 26 -43 60 0 35 24
48 89 48 56 0 84 -8 75 -21 -3 -5 -1 -9 5 -9 20 0 21 19 2 29 -20 11 -125 14
-151 4z"/>
<path d="M943 6385 c-37 -16 -39 -22 -18 -48 12 -17 53 -24 105 -17 8 1 24 -1
35 -5 16 -6 16 -4 -3 10 -20 15 -27 16 -48 5 -30 -17 -44 -5 -18 15 10 8 14
15 8 15 -6 0 -17 -7 -24 -15 -16 -19 -27 -19 -46 0 -23 23 28 45 90 38 42 -5
50 -10 61 -37 7 -17 11 -34 9 -38 -3 -5 0 -8 6 -8 11 0 9 15 -11 68 -6 16 -17
22 -41 22 -18 0 -42 2 -53 5 -11 3 -35 -2 -52 -10z"/>
<path d="M800 6371 c0 -5 6 -11 14 -14 8 -3 18 -26 22 -52 3 -25 8 -44 11 -41
12 11 -10 93 -28 104 -10 7 -19 8 -19 3z"/>
<path d="M1248 6369 c18 -19 15 -29 -10 -29 -13 0 -30 -5 -38 -11 -12 -9 -12
-10 3 -5 10 3 30 6 44 6 19 0 24 4 21 22 -2 12 -10 23 -18 26 -12 4 -13 2 -2
-9z"/>
<path d="M1298 6363 c12 -2 22 -8 22 -13 0 -5 -10 -11 -22 -13 -19 -4 -18 -5
5 -6 22 -1 28 3 25 17 -2 10 -13 18 -28 19 -22 1 -22 1 -2 -4z"/>
<path d="M808 6293 c6 -2 12 -13 12 -24 0 -20 33 -92 54 -119 7 -8 18 -35 25
-60 7 -25 22 -62 32 -82 14 -27 19 -58 19 -114 0 -53 9 -111 30 -191 17 -62
30 -124 30 -137 0 -13 14 -68 31 -122 47 -150 85 -285 93 -326 10 -56 -8 -43
-133 97 -87 98 -109 128 -105 147 4 19 3 20 -4 4 -7 -17 -9 -16 -25 8 -18 26
-17 27 12 56 16 17 26 30 22 30 -4 0 -20 -13 -36 -30 -26 -28 -27 -32 -15 -56
22 -40 249 -292 270 -299 10 -3 23 -19 29 -35 18 -53 18 -32 0 53 -17 83 -42
172 -98 351 -17 54 -31 109 -31 122 0 13 -13 75 -30 137 -21 80 -30 138 -30
192 0 63 -5 89 -25 131 -14 30 -28 68 -32 86 -3 18 -11 40 -18 48 -27 35 -55
93 -55 116 0 16 -5 24 -17 23 -11 0 -13 -3 -5 -6z"/>
<path d="M1211 6211 c-7 -5 -11 -13 -8 -18 3 -5 -3 -19 -13 -33 -15 -21 -22
-22 -50 -14 -18 5 -38 18 -44 29 -6 11 -15 23 -21 27 -12 9 -65 -40 -65 -60 0
-7 12 0 26 17 14 17 31 31 36 31 6 0 4 -8 -5 -18 -24 -26 -21 -39 3 -17 19 17
20 17 26 -1 18 -58 23 -64 58 -64 37 0 71 36 60 64 -9 22 6 20 33 -6 13 -12
23 -16 23 -10 0 6 -13 21 -30 33 -16 12 -27 26 -24 31 3 4 22 -5 42 -22 46
-38 57 -29 11 10 -38 33 -39 33 -58 21z m-17 -92 c-19 -22 -54 -25 -72 -7 -21
21 -13 29 22 23 20 -4 36 -2 41 4 3 6 11 9 16 5 6 -4 3 -14 -7 -25z"/>
<path d="M1426 6074 c-9 -66 -7 -132 4 -179 25 -102 30 -514 10 -763 -7 -93
-8 -162 -2 -187 7 -34 9 -27 8 45 -1 47 5 175 12 285 10 152 11 233 3 339 -6
76 -8 142 -5 147 3 5 -2 49 -10 99 -22 124 -19 250 6 250 19 0 133 -118 201
-210 84 -113 139 -178 170 -199 12 -8 -3 14 -34 49 -31 36 -88 108 -126 160
-81 109 -183 210 -211 210 -15 0 -21 -9 -26 -46z"/>
<path d="M1220 6089 c-19 -7 -16 -7 13 -3 25 3 37 2 33 -5 -4 -5 -30 -12 -59
-15 -152 -15 -157 -15 -157 -1 0 10 11 12 43 8 55 -7 45 2 -12 11 -43 7 -43 6
-38 -20 5 -28 -10 -85 -25 -95 -5 -3 -2 -11 6 -18 12 -10 15 -9 13 6 -2 33 24
83 47 87 11 3 56 7 99 10 76 6 79 5 103 -22 21 -22 23 -23 15 -5 -6 12 -15 24
-20 27 -5 4 -7 15 -4 26 6 22 -12 25 -57 9z"/>
<path d="M819 6081 c20 -5 22 -8 9 -19 -9 -7 -24 -10 -34 -6 -18 5 -18 5 -1
-9 18 -15 18 -16 -5 -20 -21 -4 -20 -4 5 -6 17 -1 27 4 27 13 0 8 7 16 15 20
27 10 18 36 -12 35 -27 -1 -27 -1 -4 -8z"/>
<path d="M1154 6023 c47 -4 48 -5 30 -24 -21 -24 -32 -24 -57 -1 -16 13 -19
14 -15 2 2 -8 17 -19 31 -24 21 -8 31 -6 47 9 35 32 26 45 -32 43 l-53 -2 49
-3z"/>
<path d="M1360 5963 c-23 -23 -23 -25 -4 -19 17 5 23 0 33 -32 16 -48 4 -76
-61 -142 -63 -63 -77 -73 -99 -67 -10 3 -17 1 -13 -4 16 -26 89 17 147 88 47
57 53 83 33 133 -8 22 -13 46 -10 55 8 20 4 18 -26 -12z"/>
<path d="M1506 5957 c2 -16 13 -40 24 -54 11 -14 20 -31 20 -37 0 -7 23 -34
50 -61 28 -27 50 -45 50 -39 0 5 -18 28 -40 49 -37 36 -90 116 -103 155 -2 8
-3 2 -1 -13z"/>
<path d="M976 5962 c-3 -5 3 -17 14 -27 23 -21 26 -9 6 18 -8 10 -17 14 -20 9z"/>
<path d="M1576 5894 c-3 -7 4 -16 15 -19 11 -4 59 -46 108 -93 49 -48 95 -91
103 -97 7 -5 23 -17 33 -26 11 -9 31 -20 45 -24 14 -4 -2 11 -36 34 -33 22
-90 71 -125 108 -91 96 -137 133 -143 117z"/>
<path d="M981 5880 c-1 -18 12 -38 42 -66 49 -46 157 -119 157 -105 0 5 -28
27 -62 49 -70 44 -124 97 -131 127 -4 16 -5 15 -6 -5z"/>
<path d="M581 5878 c-1 -15 8 -18 54 -18 30 0 55 -3 55 -7 -1 -5 -14 -30 -30
-58 -40 -66 -62 -116 -56 -122 3 -3 12 10 20 28 9 19 29 57 46 84 44 75 41 85
-24 85 -34 0 -56 5 -59 13 -3 7 -6 5 -6 -5z"/>
<path d="M1849 5745 c35 -14 69 -25 75 -25 6 1 -18 12 -53 25 -35 14 -69 25
-75 25 -6 -1 18 -12 53 -25z"/>
<path d="M1293 5691 c-1 -11 7 -27 18 -35 17 -11 18 -14 4 -19 -8 -4 -15 -2
-15 3 0 19 -66 43 -120 44 -38 0 -72 -7 -109 -24 -30 -13 -49 -26 -43 -28 6
-2 25 4 42 13 27 14 32 14 46 1 11 -12 27 -14 60 -9 37 5 51 2 74 -16 16 -11
33 -21 38 -21 14 0 62 55 62 71 0 12 -2 12 -9 0 -8 -12 -12 -12 -25 -2 -9 7
-13 17 -11 21 7 11 72 1 110 -17 l30 -14 -24 21 c-13 11 -33 20 -46 20 -12 0
-36 3 -52 6 -24 5 -29 2 -30 -15z m-74 -21 c45 -13 83 -39 75 -51 -4 -6 -14
-3 -26 8 -15 13 -36 18 -78 18 -62 0 -84 10 -60 25 19 12 47 12 89 0z"/>
<path d="M1177 5603 c-16 -15 -5 -34 28 -47 42 -18 44 -30 10 -59 -14 -12 -32
-40 -40 -62 -12 -34 -14 -36 -15 -14 0 40 27 97 51 104 11 4 19 9 16 11 -2 2
-14 1 -27 -4 -26 -10 -50 -69 -50 -126 0 -37 1 -39 15 -20 8 10 15 26 15 34 0
9 13 31 30 50 42 50 40 12 -3 -49 -38 -52 -61 -124 -54 -167 3 -25 4 -23 6 11
3 49 18 88 54 142 30 43 46 95 39 126 -2 9 -20 24 -40 32 -25 11 -32 19 -25
26 8 8 18 7 34 -1 43 -22 59 -43 59 -74 0 -31 -42 -123 -81 -177 -10 -15 -21
-42 -24 -61 -5 -30 -4 -31 4 -6 5 15 18 40 29 55 11 15 34 56 51 90 48 95 40
152 -24 179 -38 16 -49 17 -58 7z"/>
<path d="M1745 5600 c-11 -4 24 -6 80 -3 55 3 102 7 104 9 9 8 -165 2 -184 -6z"/>
<path d="M1776 5582 c-3 -5 5 -14 18 -20 69 -31 124 -112 77 -112 -15 0 -21 8
-23 32 -3 36 -15 41 -113 51 -38 4 -53 3 -40 -3 11 -5 37 -9 57 -9 62 -1 88
-16 88 -51 0 -27 3 -30 29 -30 16 0 38 -3 48 -6 17 -5 17 -5 1 6 -10 6 -18 21
-18 34 0 32 -111 128 -124 108z"/>
<path d="M718 5569 c-27 -5 -69 -13 -95 -19 l-48 -9 50 5 c28 2 80 10 117 16
61 10 72 9 103 -8 19 -10 35 -23 35 -29 0 -5 -16 -23 -35 -38 -19 -15 -35 -32
-35 -38 0 -5 20 6 44 27 51 42 51 63 0 88 -38 17 -63 18 -136 5z"/>
<path d="M1324 5462 c-6 -4 -13 -15 -17 -25 -4 -11 -12 -15 -18 -11 -7 4 -9 3
-5 -4 6 -11 -30 -78 -87 -161 -26 -38 -30 -53 -31 -110 -1 -91 14 -191 29
-191 13 0 33 26 127 164 53 78 68 94 68 75 0 -25 -83 -156 -155 -243 -26 -33
-36 -52 -33 -73 6 -54 31 -36 118 87 51 73 86 114 88 104 4 -17 -37 -82 -125
-202 -55 -74 -65 -114 -31 -120 11 -2 35 24 75 80 79 112 95 138 85 138 -4 0
-31 -35 -60 -77 -28 -43 -63 -91 -76 -108 -21 -26 -25 -28 -31 -13 -5 12 3 31
23 55 122 156 182 273 140 273 -7 0 -51 -54 -98 -119 -46 -66 -88 -117 -92
-115 -17 10 -7 38 28 81 83 101 154 216 154 250 0 20 -5 33 -12 33 -7 0 -44
-47 -81 -103 -38 -56 -79 -115 -93 -132 l-24 -30 0 29 c0 18 13 44 33 70 19
23 61 82 95 133 47 69 62 101 62 127 0 55 -19 38 -106 -95 -66 -101 -80 -116
-82 -95 -2 15 -8 26 -13 26 -5 0 -9 4 -9 10 0 5 6 7 14 4 17 -7 151 189 161
235 7 34 -5 64 -21 53z m11 -52 c-4 -12 -39 -70 -78 -128 -55 -82 -73 -102
-75 -85 -2 12 5 31 15 42 27 32 123 191 123 204 0 8 3 8 11 0 6 -6 8 -21 4
-33z m-34 -212 c-38 -57 -81 -116 -94 -133 l-25 -29 -7 52 c-4 30 -4 56 -1 59
6 6 10 -32 6 -52 -5 -25 49 41 114 139 53 83 72 105 74 89 2 -14 -23 -60 -67
-125z"/>
<path d="M1414 4928 c-8 -27 -80 -139 -123 -192 -34 -42 -39 -67 -17 -85 11
-9 21 -3 48 31 86 107 102 139 103 205 1 35 0 63 -1 63 -2 0 -6 -10 -10 -22z
m-23 -126 c-16 -26 -48 -71 -69 -100 -32 -42 -41 -49 -46 -35 -4 10 1 27 13
43 12 14 45 61 73 104 42 63 54 74 56 57 2 -12 -10 -43 -27 -69z"/>
<path d="M1409 4768 c0 -7 -20 -40 -44 -73 -65 -87 -74 -106 -64 -132 5 -13
12 -23 17 -23 22 0 78 110 87 173 2 12 7 32 10 45 4 12 5 22 1 22 -3 0 -6 -6
-7 -12z m-24 -97 c-7 -21 -26 -58 -41 -81 -24 -36 -29 -39 -35 -24 -4 12 1 29
13 44 10 14 30 42 44 63 31 47 37 47 19 -2z"/>
<path d="M446 4264 c-3 -26 -6 -61 -6 -78 0 -18 -7 -56 -15 -86 -38 -135 -43
-164 -34 -188 7 -18 5 -46 -5 -91 -8 -36 -16 -117 -18 -178 -2 -76 -7 -113
-14 -113 -6 0 -17 -7 -24 -15 -11 -13 -11 -18 0 -28 8 -8 11 -8 7 -1 -8 14 14
35 40 38 16 3 19 17 23 112 3 60 1 116 -4 126 -6 10 -5 35 3 70 8 35 9 61 3
78 -8 22 -4 57 15 130 l6 25 7 -30 c14 -57 11 -103 -7 -114 -17 -10 -17 -10
-1 -11 25 0 33 43 20 110 -6 34 -7 74 -2 96 10 49 23 194 17 194 -2 0 -7 -21
-11 -46z m-55 -626 c-2 -67 -6 -103 -11 -88 -8 29 -1 212 9 206 3 -2 4 -55 2
-118z"/>
<path d="M465 4083 c-5 -109 -9 -270 -10 -358 0 -154 -7 -201 -26 -189 -5 3
-9 0 -9 -5 0 -19 19 -12 32 12 9 15 13 71 14 182 0 88 4 249 9 358 4 108 6
197 3 197 -3 0 -9 -89 -13 -197z"/>
<path d="M1343 4061 c-6 -10 -14 -39 -18 -65 -9 -57 9 -62 43 -10 27 44 30 94
4 94 -9 0 -22 -8 -29 -19z m37 -11 c0 -10 -12 -36 -26 -57 l-26 -38 6 39 c11
61 46 104 46 56z"/>
<path d="M1362 3934 c-42 -59 -46 -89 -12 -89 34 0 81 69 73 108 -8 39 -24 34
-61 -19z m27 -45 c-17 -21 -35 -39 -39 -39 -21 0 -16 20 18 68 33 48 37 51 44
31 6 -16 1 -30 -23 -60z"/>
<path d="M1406 3839 c-14 -11 -29 -18 -34 -15 -4 2 -6 -11 -4 -30 4 -35 34
-59 57 -46 5 3 -1 9 -15 12 -35 8 -38 43 -5 64 29 19 41 16 31 -10 -3 -9 -13
-14 -20 -11 -8 3 -17 -1 -20 -9 -6 -17 -5 -17 28 -4 18 7 26 17 26 34 0 35
-13 39 -44 15z"/>
<path d="M73 3570 c-13 -5 -23 -12 -23 -16 0 -3 8 -3 18 2 9 4 69 11 132 14
l115 6 -110 2 c-60 0 -120 -3 -132 -8z"/>
<path d="M275 3307 c-4 -20 -11 -40 -16 -43 -20 -12 -39 -79 -39 -136 0 -49 4
-63 25 -83 13 -14 30 -25 37 -25 7 0 -3 13 -22 29 -19 16 -32 33 -27 37 4 4
13 2 19 -4 20 -20 38 -13 39 16 0 15 4 36 9 47 6 14 9 -4 8 -55 -1 -41 -1
-663 0 -1382 2 -904 6 -1316 13 -1337 11 -30 32 -41 44 -22 3 5 -2 25 -11 44
-16 33 -16 38 -1 76 18 43 8 63 -19 40 -13 -10 -14 138 -14 1242 0 690 -3
1266 -6 1281 -4 15 -2 40 2 55 5 15 6 60 3 98 -5 60 -6 64 -9 25 l-3 -45 -6
40 c-4 22 -4 45 0 50 10 15 17 65 9 60 -4 -3 -10 -18 -14 -35 -3 -17 -10 -29
-15 -25 -6 3 -6 16 1 35 5 16 8 35 5 42 -2 7 -8 -4 -12 -25z m13 -92 c2 -16 1
-53 -3 -83 -5 -44 -9 -51 -21 -41 -18 15 -18 60 1 106 8 20 13 38 10 41 -7 7
-26 -46 -35 -98 l-8 -45 -1 48 c-2 82 49 145 57 72z m51 -2753 c-8 -23 -8 -41
0 -63 15 -44 12 -60 -4 -24 -17 36 -18 65 -5 101 15 37 23 24 9 -14z"/>
<path d="M61 3313 c-1 -33 27 -134 43 -152 7 -9 16 -36 19 -61 4 -32 13 -51
31 -65 14 -11 39 -42 56 -68 19 -31 37 -47 50 -47 20 0 20 -2 21 -1242 0 -684
1 -1342 1 -1463 l2 -220 5 220 c3 121 5 779 3 1463 l-2 1243 -24 9 c-13 4 -34
26 -46 47 -13 21 -34 49 -49 62 l-26 23 35 -6 c28 -4 31 -4 17 5 -10 6 -27 9
-37 6 -21 -5 -30 10 -30 52 0 16 -9 40 -20 54 -24 30 -26 53 -6 60 23 9 35
-15 45 -89 l10 -69 -5 74 c-5 83 -16 105 -50 97 -20 -5 -24 -2 -29 31 -9 51
-13 62 -14 36z"/>
<path d="M354 2855 c0 -60 1 -84 3 -52 2 32 2 81 0 110 -2 29 -3 3 -3 -58z"/>
<path d="M1906 2823 c-4 -10 -14 -31 -22 -46 -17 -30 -30 -96 -43 -212 -7 -66
-29 -126 -50 -140 -5 -3 -15 -31 -21 -63 -21 -101 -43 -187 -52 -199 -5 -6
-13 -38 -18 -70 -4 -32 -40 -149 -79 -260 l-71 -201 15 -124 c9 -68 27 -178
41 -244 13 -67 24 -132 24 -144 0 -12 25 -65 55 -118 81 -145 85 -158 77 -308
-7 -124 -8 -129 -29 -132 -28 -4 -29 -17 -3 -59 11 -18 15 -33 9 -33 -5 0 -7
-5 -4 -11 11 -18 -5 -121 -18 -116 -19 6 -31 83 -20 120 14 47 7 57 -40 56
l-42 -2 35 -6 35 -6 0 -79 c1 -73 3 -80 28 -98 22 -16 27 -27 27 -63 l0 -44
-57 -4 -58 -3 63 -2 62 -2 1 33 c2 46 -2 71 -11 80 -4 5 -4 25 1 45 5 20 9 52
9 70 0 19 4 31 10 27 5 -3 9 -54 9 -113 0 -115 16 -176 48 -185 32 -9 118 -19
112 -13 -3 3 -30 9 -60 13 -50 7 -55 11 -72 46 -15 29 -19 60 -18 144 0 104 0
107 -29 140 -36 41 -37 49 -6 57 22 5 23 9 28 137 7 154 -2 190 -78 322 -40
70 -50 99 -71 207 -13 69 -33 189 -44 267 l-19 142 75 216 c41 119 75 228 76
243 2 45 15 77 30 73 84 -21 150 -30 170 -22 21 8 19 9 -16 8 -44 0 -142 17
-152 26 -3 4 1 35 10 69 9 35 19 81 22 103 4 22 17 56 31 76 31 46 44 91 44
156 0 28 4 54 9 57 5 3 11 31 13 61 3 33 13 66 25 83 24 33 35 62 24 62 -5 0
-12 -8 -15 -17z"/>
<path d="M356 2560 c2 -63 6 -152 9 -197 2 -45 0 -85 -5 -88 -5 -3 -8 -149 -7
-348 l2 -342 2 291 3 291 33 11 32 12 -32 -5 c-27 -4 -33 -1 -33 14 0 17 6 18
41 14 35 -5 41 -3 46 16 4 15 13 21 34 21 37 0 37 -13 2 -28 -17 -7 -19 -9 -6
-6 34 8 35 -11 0 -25 -71 -29 -96 -42 -102 -51 -9 -14 -8 -14 75 25 109 52
105 49 101 81 -7 55 -12 274 -6 274 3 0 23 -9 43 -19 21 -11 72 -26 112 -35
164 -34 249 -54 260 -61 6 -4 20 -27 31 -51 15 -37 17 -53 9 -96 -24 -123 -7
-223 45 -278 l33 -35 3 -170 c4 -236 -6 -341 -38 -382 -13 -18 -30 -50 -37
-70 -8 -21 -21 -51 -30 -68 -27 -51 -21 -76 42 -152 28 -35 41 -43 67 -43 29
0 37 -6 62 -47 36 -58 42 -78 53 -168 7 -59 12 -73 37 -92 15 -13 36 -23 45
-23 43 0 65 -23 105 -110 22 -49 38 -91 35 -94 -3 -3 -18 -6 -34 -6 l-28 0 -2
-77 c-1 -75 -1 -76 -7 -23 -6 55 -6 55 -42 58 l-36 3 -9 -53 -8 -53 -6 70 c-4
54 -9 71 -21 73 -12 2 -22 -11 -34 -42 -10 -26 -21 -46 -24 -46 -4 0 -14 19
-22 43 -11 29 -22 42 -35 42 -17 0 -19 -9 -22 -77 -2 -63 0 -78 12 -78 19 0
27 26 15 52 -9 21 -9 21 -4 -4 3 -15 1 -30 -5 -33 -6 -4 -10 18 -10 59 0 74
12 90 35 47 18 -35 22 -76 5 -51 -8 11 -9 7 -4 -15 4 -16 11 -36 17 -43 12
-15 37 -16 37 -1 0 5 3 8 8 6 4 -3 8 9 8 26 l1 30 -16 -31 c-13 -25 -19 -30
-29 -20 -18 18 -14 38 8 38 11 0 20 5 20 11 0 21 32 79 41 73 5 -3 8 -35 7
-72 -1 -39 -3 -52 -5 -32 -6 51 -19 57 -15 6 l4 -43 105 -2 105 -2 -4 81 c-2
44 0 80 5 80 4 0 8 -8 8 -17 3 -40 -3 -249 -7 -265 -6 -21 -49 -23 -135 -9
-30 6 -83 12 -119 15 -55 4 -266 28 -335 38 -13 2 -20 -3 -20 -14 0 -26 -20
-26 -23 0 -5 34 -57 31 -74 -5 -14 -29 -26 -31 -123 -16 -32 4 -80 9 -182 19
-60 6 -62 6 -66 37 -2 18 -5 -1 -5 -41 l-2 -72 98 0 c53 -1 126 0 162 0 36 0
89 -4 118 -8 28 -5 52 -5 52 -1 0 5 -18 9 -40 9 -30 0 -40 4 -40 16 0 8 5 12
10 9 6 -4 9 -3 8 2 -5 16 35 63 53 63 27 0 23 -15 -7 -29 -15 -6 -24 -15 -20
-18 3 -4 12 -1 18 5 14 14 38 16 38 3 0 -5 -14 -14 -30 -20 -17 -5 -30 -13
-30 -16 0 -3 15 1 34 9 19 8 36 12 39 10 2 -2 12 5 22 16 10 11 13 20 7 20 -7
0 -12 5 -12 11 0 7 7 8 18 4 18 -7 218 -32 332 -41 36 -3 89 -9 119 -15 30 -5
74 -9 98 -9 51 0 50 -3 56 165 l4 120 -51 113 c-50 112 -52 113 -93 125 -75
20 -93 42 -103 127 -7 51 -20 96 -42 140 -31 61 -36 65 -72 70 -32 4 -45 14
-82 60 -46 58 -53 83 -31 115 8 11 21 39 30 61 9 23 27 57 40 77 31 46 42 162
38 402 l-3 170 -34 36 c-19 19 -39 51 -44 70 -12 42 -12 139 0 199 9 46 -8
118 -34 147 -6 6 -65 23 -131 38 -194 42 -208 45 -242 61 -18 8 -35 19 -38 24
-3 5 -13 6 -21 3 -14 -5 -16 -27 -13 -161 3 -121 1 -156 -9 -160 -9 -3 -11 3
-6 22 6 24 4 26 -30 26 -25 0 -38 -6 -46 -20 -13 -23 -38 -26 -65 -6 -17 12
-18 17 -7 37 12 24 11 55 -6 289 l-9 115 3 -115z m1042 -2122 c-2 -71 -2 -71
-5 -15 -2 33 -8 55 -14 52 -5 -4 -9 -3 -9 0 0 6 22 34 28 35 1 0 1 -33 0 -72z
m19 -35 c-2 -21 -4 -4 -4 37 0 41 2 58 4 38 2 -21 2 -55 0 -75z m-79 15 c3
-48 3 -48 -28 -48 -33 0 -49 22 -32 43 5 6 8 22 6 35 -4 20 0 23 23 20 26 -3
28 -7 31 -50z m39 -25 c-2 -16 -4 -5 -4 22 0 28 2 40 4 28 2 -13 2 -35 0 -50z
m-847 -147 c110 -12 145 -17 154 -26 5 -5 8 -12 5 -14 -4 -5 -79 -7 -236 -6
l-93 0 0 31 0 31 63 -6 c34 -3 82 -8 107 -10z"/>
<path d="M1304 453 c15 -4 16 -7 5 -14 -12 -7 -12 -9 1 -9 9 0 6 -6 -9 -16
-25 -18 -15 -41 14 -30 25 9 16 70 -10 73 -18 2 -18 1 -1 -4z m16 -47 c0 -3
-4 -8 -10 -11 -5 -3 -10 -1 -10 4 0 6 5 11 10 11 6 0 10 -2 10 -4z"/>
<path d="M385 230 c27 -12 43 -12 25 0 -8 5 -22 9 -30 9 -10 0 -8 -3 5 -9z"/>
<path d="M383 2555 c0 -22 2 -30 4 -17 2 12 2 30 0 40 -3 9 -5 -1 -4 -23z"/>
<path d="M1373 2405 c-17 -12 -27 -12 -52 -4 -18 6 -34 9 -37 6 -3 -3 8 -8 25
-12 42 -9 39 -27 -9 -65 -23 -18 -39 -35 -36 -37 8 -8 86 57 86 71 0 7 11 19
25 26 14 7 25 17 25 22 0 11 -2 10 -27 -7z"/>
<path d="M1520 2264 c1 -5 7 -38 15 -74 22 -100 19 -120 -31 -216 -48 -93 -69
-126 -118 -185 -28 -34 -31 -35 -55 -23 -14 8 -42 13 -61 13 -27 -1 -29 -3
-10 -6 14 -2 40 -9 57 -14 29 -9 32 -13 22 -30 -5 -11 -15 -17 -21 -13 -7 4
-6 10 3 16 10 7 8 8 -6 3 -11 -4 -45 -9 -77 -12 -60 -6 -86 -27 -103 -83 -4
-16 4 -8 24 21 30 44 34 46 88 52 31 3 60 4 65 1 5 -3 -4 -21 -19 -39 -58 -70
-105 -136 -100 -141 4 -5 43 41 91 107 12 16 50 63 86 106 73 89 129 176 155
246 10 26 22 50 26 53 13 8 11 64 -6 145 -14 64 -26 100 -25 73z"/>
<path d="M1736 2128 c3 -4 20 -8 37 -8 18 0 45 -7 61 -15 21 -11 36 -13 60 -5
l31 10 -31 -4 c-17 -3 -36 0 -41 5 -13 13 -124 29 -117 17z"/>
<path d="M1248 1925 c-24 -32 -22 -46 2 -17 26 31 36 9 11 -26 -11 -15 -45
-52 -75 -82 -31 -30 -56 -59 -56 -64 0 -6 31 21 70 59 69 69 106 125 96 148
-2 7 -5 3 -5 -7 -1 -18 -2 -18 -13 -3 -12 14 -15 14 -30 -8z"/>
<path d="M1220 1096 c0 -9 4 -16 9 -16 5 0 18 -17 28 -37 19 -37 19 -39 1 -68
-12 -19 -17 -44 -16 -70 3 -37 5 -40 32 -40 41 0 60 31 42 67 -25 48 -4 39 62
-28 35 -36 67 -63 69 -60 3 3 -23 34 -59 69 -61 60 -98 79 -98 51 0 -7 -3 -21
-6 -31 -5 -15 -4 -15 5 -3 8 12 11 12 17 -4 9 -24 -8 -51 -32 -51 -27 0 -30
45 -4 94 20 40 20 41 2 75 -10 18 -26 41 -35 51 -15 14 -17 15 -17 1z"/>
<path d="M1480 1108 c0 -19 121 -185 172 -235 64 -64 81 -71 85 -37 2 16 2 17
-5 2 -6 -14 -17 -7 -69 43 -34 33 -83 93 -108 134 -40 64 -75 107 -75 93z"/>
<path d="M1338 850 c-2 -22 0 -40 4 -40 5 0 8 18 8 40 0 22 -2 40 -4 40 -2 0
-6 -18 -8 -40z"/>
<path d="M1317 863 c-4 -3 -7 -18 -6 -32 1 -26 1 -25 10 3 9 31 7 41 -4 29z"/>
<path d="M1253 786 c15 -14 33 -26 40 -26 13 1 -16 26 -48 41 -13 7 -10 1 8
-15z"/>
<path d="M1585 699 c-4 -11 -5 -23 -2 -26 3 -2 8 5 12 16 3 11 14 22 23 24 13
4 11 5 -5 6 -14 1 -24 -7 -28 -20z"/>
<path d="M480 502 c0 -10 5 -23 11 -29 11 -11 8 -67 -6 -110 -6 -17 -3 -23 8
-23 36 0 55 108 28 158 -14 27 -41 29 -41 4z m40 -42 c8 -31 7 -47 -5 -76 -8
-20 -18 -35 -21 -31 -3 3 0 15 6 27 12 23 10 80 -5 114 -6 14 -5 17 3 12 6 -4
16 -24 22 -46z"/>
<path d="M614 506 c-3 -7 -4 -42 -2 -77 l3 -64 46 -3 c55 -4 69 10 77 73 6 61
-15 85 -75 85 -27 0 -46 -5 -49 -14z m98 -13 c22 -20 23 -71 2 -101 -12 -18
-24 -22 -52 -20 l-37 3 -3 54 c-2 29 -1 60 2 67 7 19 66 17 88 -3z"/>
<path d="M640 440 c0 -61 0 -61 27 -58 40 4 62 51 42 87 -9 16 -25 27 -42 29
-27 3 -27 3 -27 -58z m56 29 c17 -19 17 -23 3 -47 -8 -15 -22 -28 -32 -30 -14
-3 -17 5 -17 47 0 57 14 66 46 30z"/>
<path d="M848 443 c-1 -75 -1 -76 -7 -23 -6 55 -6 55 -42 58 l-36 3 -7 -52
c-7 -55 -1 -70 30 -70 96 2 120 0 131 -15 14 -19 53 -15 63 6 4 8 14 30 23 48
21 43 22 82 2 82 -9 0 -18 -13 -22 -31 l-6 -31 -13 31 c-7 17 -18 31 -24 31
-14 0 -13 -33 2 -65 9 -21 9 -31 0 -46 -8 -12 -8 -19 -2 -19 19 0 23 32 11 67
-7 19 -10 37 -7 40 3 3 10 -6 15 -21 13 -34 18 -33 35 7 10 23 14 26 15 12 0
-36 -43 -110 -64 -110 -18 0 -20 8 -23 88 l-3 87 -34 0 -35 0 -2 -77z m40 -5
c-2 -71 -2 -71 -5 -15 -2 33 -8 55 -14 52 -5 -4 -9 -3 -9 0 0 6 22 34 28 35 1
0 1 -33 0 -72z m19 -35 c-2 -21 -4 -4 -4 37 0 41 2 58 4 38 2 -21 2 -55 0 -75z
m-82 17 c0 -43 -1 -45 -30 -45 -23 0 -31 5 -33 23 -2 12 1 22 7 22 5 0 8 12 5
26 -4 23 -2 25 23 22 26 -3 28 -6 28 -48z m42 -27 c-2 -16 -4 -5 -4 22 0 28 2
40 4 28 2 -13 2 -35 0 -50z"/>
<path d="M795 451 c14 -7 15 -10 5 -10 -12 -1 -13 -3 -1 -10 11 -7 9 -10 -8
-16 -11 -3 -21 -10 -21 -15 0 -14 17 -21 35 -14 24 10 16 68 -10 71 l-20 3 20
-9z m15 -45 c0 -3 -4 -8 -10 -11 -5 -3 -10 -1 -10 4 0 6 5 11 10 11 6 0 10 -2
10 -4z"/>
<path d="M1635 455 c10 -115 22 -145 59 -145 20 0 19 1 -4 13 -24 12 -31 30
-50 132 l-9 50 4 -50z"/>
<path d="M1510 441 c0 -32 6 -56 18 -70 16 -20 18 -21 37 -6 20 16 20 16 -2 6
-12 -7 -24 -7 -27 -2 -6 9 16 21 40 21 20 0 17 -27 -5 -42 -10 -7 -22 -28 -25
-46 -4 -17 -12 -32 -16 -32 -5 0 -35 -24 -66 -54 -42 -40 -62 -52 -73 -47 -56
29 -144 19 -188 -21 -21 -20 -21 -20 -33 2 -10 20 -18 22 -55 17 -30 -5 -58 0
-96 15 -55 21 -128 25 -160 7 -26 -14 -39 -11 -40 9 0 14 -2 14 -8 -3 -5 -13
-3 -25 7 -35 14 -13 13 -15 -8 -18 -29 -5 -99 2 -125 12 -20 7 -20 7 -1 -8 15
-12 45 -16 120 -17 181 -2 203 0 203 18 0 9 -6 9 -26 -2 -31 -15 -142 -7 -148
12 -4 12 44 30 96 35 19 2 36 -2 38 -7 2 -7 -12 -9 -37 -7 -22 2 -40 0 -40 -4
0 -5 20 -10 45 -10 25 -1 45 2 45 6 0 9 51 0 67 -12 6 -5 34 -6 62 -2 42 5 51
4 51 -9 0 -8 5 -17 12 -19 8 -3 1 -19 -19 -48 -18 -24 -30 -47 -27 -52 3 -4
-4 -8 -15 -8 -12 0 -21 -4 -21 -8 0 -5 10 -8 23 -6 12 1 26 3 32 3 5 1 4 6 -2
12 -17 17 71 127 115 146 36 15 105 10 130 -9 6 -6 12 -28 12 -49 l0 -38 63
36 c73 43 114 73 100 73 -6 0 -41 -21 -79 -46 l-69 -46 -3 29 c-2 24 5 39 37
71 22 22 54 48 71 58 16 10 30 24 30 30 0 7 8 15 19 19 19 6 77 55 65 55 -3 0
-20 -12 -37 -26 -20 -17 -33 -22 -35 -14 -4 11 25 37 58 52 12 5 12 7 -3 7
-10 1 -15 6 -12 11 3 6 2 10 -2 10 -13 0 -14 43 -2 51 7 4 4 9 -5 12 -12 5
-16 0 -16 -22 0 -21 -6 -30 -22 -35 -37 -9 -38 -8 -38 40 0 37 3 45 15 40 8
-3 15 -1 15 4 0 6 -9 10 -20 10 -17 0 -20 -7 -20 -49z"/>
<path d="M392 468 c-17 -17 -15 -83 2 -97 22 -18 70 -10 74 13 3 15 0 18 -21
12 -30 -7 -41 5 -32 34 5 16 12 19 32 14 21 -6 24 -3 21 12 -4 23 -57 31 -76
12z m63 -8 c4 -6 -3 -9 -16 -7 -28 3 -48 -27 -33 -50 7 -10 22 -17 33 -16 13
2 20 -1 16 -7 -8 -14 -38 -13 -53 2 -7 7 -12 24 -12 38 0 14 5 31 12 38 15 15
45 16 53 2z"/>
<path d="M314 175 c0 -99 2 -138 3 -87 2 51 2 132 0 180 -1 48 -3 6 -3 -93z"/>
<path d="M1555 230 c-3 -5 -3 -14 0 -20 3 -5 -2 -10 -12 -10 -10 0 -29 -9 -43
-20 -32 -25 -20 -25 27 0 23 12 41 16 48 10 6 -5 16 -5 25 2 13 9 13 9 0 5
-22 -6 -42 17 -27 32 8 8 8 11 0 11 -7 0 -15 -4 -18 -10z"/>
<path d="M1675 185 c40 -15 117 -34 110 -27 -12 10 -87 32 -106 31 -8 0 -9 -2
-4 -4z"/>
<path d="M1553 144 c-24 -14 -66 -41 -95 -59 l-53 -35 54 0 c53 0 53 0 47 -28
-5 -22 -4 -24 5 -9 17 29 3 47 -38 48 -21 0 -31 3 -23 6 8 3 45 26 82 50 74
50 87 51 210 22 47 -11 60 -11 70 0 11 10 8 11 -14 6 -15 -4 -50 0 -81 9 -76
22 -115 20 -164 -10z"/>
<path d="M1850 123 c0 -5 11 -9 25 -9 14 -1 22 2 19 7 -6 11 -44 12 -44 2z"/>
<path d="M990 110 c25 -8 87 -13 79 -6 -2 2 -26 6 -54 9 -34 4 -42 3 -25 -3z"/>
<path d="M1690 88 c-19 -6 -29 -13 -23 -15 7 -3 29 1 49 7 22 8 69 10 127 7
71 -4 79 -4 37 3 -75 11 -148 10 -190 -2z"/>
<path d="M1654 51 c3 -5 -1 -14 -9 -21 -8 -7 -15 -17 -15 -23 0 -5 9 -2 20 8
21 19 27 45 9 45 -5 0 -8 -4 -5 -9z"/>
</g>
</defs>
<mask id="mp95958">
  <use xlink:href="#gp95958" fill="white" />
</mask>
<use xlink:href="#gp95958" data-mask="url(#mp95958)" data-stroke="black" stroke-width="20px" fill="black"/>
</svg>
