<?xml version="1.0" standalone="no"?>
<!DOCTYPE svg PUBLIC "-//W3C//DTD SVG 20010904//EN"
 "http://www.w3.org/TR/2001/REC-SVG-20010904/DTD/svg10.dtd">
<svg class="Potrace" xmlns:xlink="http://www.w3.org/1999/xlink" version="1.0" xmlns="http://www.w3.org/2000/svg"
 width="294.000000pt" height="223.000000pt" viewBox="0 0 294.000000 223.000000"
 preserveAspectRatio="xMidYMid meet">
<defs>
  <g id="gp84504" transform="translate(0.000000,223.000000) scale(0.100000,-0.100000)"
>
<path d="M134 2133 c-3 -16 -10 -44 -15 -63 -14 -57 -13 -59 37 -58 l46 1 -6
36 c-17 104 -48 146 -62 84z m40 -37 c20 -67 20 -88 2 -63 -16 21 -36 22 -36
2 0 -8 -5 -15 -11 -15 -7 0 -9 10 -5 28 17 67 27 102 31 102 2 0 11 -24 19
-54z"/>
<path d="M191 2138 c1 -17 2 -19 6 -5 3 11 14 17 34 17 16 0 29 -2 29 -5 0
-30 -26 -113 -38 -123 -16 -13 -15 -13 3 -10 15 2 22 17 32 63 18 86 18 85
-27 85 -35 0 -40 -3 -39 -22z"/>
<path d="M2188 2132 c-10 -2 -18 -12 -18 -23 0 -16 4 -19 23 -13 l22 6 -22
-24 c-42 -45 -32 -58 47 -58 67 0 71 1 81 27 6 16 6 36 1 52 -7 22 -15 26 -49
27 -23 1 -47 3 -55 6 -7 2 -21 3 -30 0z m81 -16 c26 5 32 3 42 -19 8 -18 8
-30 0 -46 -16 -30 -47 -27 -60 7 -11 26 -11 26 -6 2 4 -23 1 -26 -30 -28 -40
-3 -44 7 -15 33 11 10 20 25 20 33 0 9 -7 13 -20 9 -11 -3 -20 -1 -20 3 0 13
23 18 42 9 9 -5 30 -6 47 -3z"/>
<path d="M2267 2096 c-8 -20 4 -57 17 -53 14 5 14 59 0 64 -6 2 -14 -3 -17
-11z m23 -23 c-1 -24 -2 -26 -11 -10 -5 9 -7 22 -4 27 10 17 15 11 15 -17z"/>
<path d="M2217 2063 c-10 -9 -9 -23 1 -23 5 0 9 7 9 15 0 17 -1 18 -10 8z"/>
<path d="M2555 2131 c-33 -3 -66 -10 -72 -14 -8 -5 -13 -4 -13 2 0 6 -13 11
-30 11 -26 0 -30 -4 -31 -27 0 -16 -4 -37 -9 -48 -7 -16 -9 -14 -9 15 -2 44
-14 65 -35 57 -13 -5 -16 -15 -11 -44 4 -21 8 -43 10 -49 2 -7 30 -11 77 -10
70 1 73 2 75 26 3 25 3 25 -7 3 -7 -18 -18 -23 -44 -23 -42 0 -47 6 -39 53 4
27 11 37 24 37 10 0 21 -5 25 -12 5 -8 0 -9 -14 -6 -12 4 -22 2 -22 -3 0 -5 7
-9 15 -9 9 0 20 -10 26 -22 9 -21 9 -21 4 4 -3 15 -1 30 5 33 5 3 10 -2 11
-12 0 -14 2 -14 9 5 7 17 17 22 44 22 39 0 53 -22 42 -66 -8 -31 -43 -32 -56
-1 -10 22 -10 22 -7 -3 2 -20 8 -26 34 -28 28 -3 32 0 38 27 3 17 4 39 0 50
-6 21 14 31 47 23 15 -4 15 -7 0 -50 -8 -26 -17 -41 -20 -34 -2 7 1 26 7 42 7
22 7 30 -2 30 -7 0 -13 -18 -15 -45 -3 -62 18 -59 41 6 10 28 17 52 15 54 -10
8 -61 11 -113 6z m-175 -64 c0 -47 -17 -40 -20 8 -3 42 -1 47 10 40 6 -3 10
-25 10 -48z"/>
<path d="M689 2078 c0 -29 -3 -47 -6 -40 -2 6 -9 12 -14 12 -6 0 -7 -4 -4 -10
3 -5 1 -10 -5 -10 -6 0 -8 14 -4 40 6 38 -6 55 -21 30 -4 -6 -12 -7 -18 -3
-20 12 -75 14 -83 2 -4 -8 0 -9 15 -4 13 4 21 2 21 -5 0 -6 4 -9 9 -6 5 4 12
0 14 -6 3 -7 6 -4 7 7 1 19 1 19 11 2 10 -18 11 -18 25 0 13 17 13 17 14 -2 0
-31 -14 -45 -38 -40 -13 2 -22 -1 -22 -8 -1 -7 -7 0 -16 15 -14 27 -48 30 -38
3 3 -7 1 -16 -5 -20 -6 -3 -11 2 -12 12 0 16 -1 16 -9 -2 l-9 -20 -1 20 -1 20
-9 -20 c-9 -19 -9 -19 -16 3 -3 12 -14 22 -25 22 -12 0 -16 -5 -13 -14 3 -8 1
-17 -5 -21 -6 -3 -11 2 -12 12 0 16 -1 16 -9 -2 l-9 -20 -1 20 -1 20 -9 -20
c-7 -18 -9 -18 -19 9 -15 38 -9 53 12 32 16 -16 17 -16 18 1 0 16 1 16 9 -2 9
-20 9 -20 9 1 1 16 -5 20 -34 21 -38 1 -41 -6 -24 -56 9 -26 16 -31 43 -31 25
0 36 6 43 23 l10 22 7 -22 c6 -18 15 -23 41 -23 27 0 35 5 43 28 l10 27 6 -26
7 -26 150 0 c82 -1 149 3 149 8 0 5 -4 9 -9 9 -5 0 -11 10 -13 23 -4 30 -22
28 -28 -3 -5 -23 -10 -25 -62 -26 l-58 -2 1 47 c1 25 3 38 6 28 4 -14 11 -16
37 -11 24 4 38 1 49 -11 15 -15 17 -15 17 -1 0 10 9 16 25 16 17 0 25 -6 25
-17 0 -15 2 -16 10 -3 9 13 10 13 10 0 1 -12 3 -11 11 3 5 9 15 17 21 17 7 0
6 -5 -2 -15 -13 -16 -7 -45 10 -45 5 0 10 19 11 43 1 36 2 38 9 17 l8 -25 1
28 c1 29 -8 34 -26 16 -17 -17 -203 -18 -203 -1 0 6 -7 12 -15 12 -11 0 -15
-13 -16 -52z m148 -35 c-3 -10 -5 -4 -5 12 0 17 2 24 5 18 2 -7 2 -21 0 -30z
m80 15 c-3 -8 -6 -5 -6 6 -1 11 2 17 5 13 3 -3 4 -12 1 -19z"/>
<path d="M1300 2096 c0 -25 -5 -35 -20 -39 -13 -3 -20 0 -20 9 0 8 7 11 18 8
14 -5 14 -4 2 4 -18 14 -30 6 -30 -19 0 -43 56 -11 63 36 3 21 4 15 6 -17 l1
-48 -40 0 c-22 0 -40 4 -40 8 0 5 -7 9 -15 9 -8 0 -15 -4 -15 -9 0 -5 -10 -8
-22 -6 -16 2 -24 11 -25 28 -3 25 -3 25 7 3 13 -32 22 -29 10 3 -13 34 -13 34
10 34 14 0 20 -7 21 -22 1 -16 3 -18 6 -6 2 9 21 20 41 26 35 8 34 9 -25 9
-33 1 -75 4 -92 8 -26 5 -31 4 -31 -12 0 -10 -2 -29 -5 -43 -3 -14 2 -7 10 15
l14 40 -2 -40 c-1 -28 -7 -41 -19 -43 -12 -2 -17 5 -20 25 -2 19 -8 28 -20 27
-10 -1 -18 3 -18 8 0 6 11 8 25 6 14 -3 25 -2 25 3 0 10 -129 9 -135 -1 -3 -5
3 -6 13 -3 32 8 72 -14 72 -40 0 -22 -4 -24 -47 -24 -27 1 -51 6 -55 11 -5 7
-8 7 -8 -1 0 -19 -37 -16 -50 5 -10 15 -10 15 -8 -3 3 -18 12 -20 91 -22 85
-1 87 -1 87 22 0 13 5 27 10 30 6 4 10 -7 10 -24 l0 -31 145 1 c80 1 145 5
145 10 0 5 -4 9 -10 9 -5 0 -10 11 -10 24 0 13 -6 27 -12 29 -7 3 2 6 20 6 17
1 32 -4 32 -10 0 -5 4 -8 9 -5 5 4 12 0 14 -6 3 -7 6 -4 7 7 l1 20 9 -20 c9
-20 9 -20 9 0 1 18 -6 21 -51 23 -29 1 -54 7 -56 12 -2 6 -10 10 -18 10 -9 0
-14 -11 -14 -34z m-144 -31 c-1 -19 -6 -35 -11 -35 -7 0 -9 15 -7 35 5 45 19
45 18 0z m181 -22 c-3 -10 -5 -4 -5 12 0 17 2 24 5 18 2 -7 2 -21 0 -30z"/>
<path d="M1660 2120 c0 -5 -11 -10 -24 -10 -14 0 -27 -3 -29 -7 -3 -5 12 -8
33 -8 30 -1 37 2 32 15 -3 11 -2 12 6 5 7 -6 9 -25 5 -48 -6 -37 -7 -38 -47
-36 -41 2 -41 3 -42 41 -1 21 -3 40 -5 42 -6 7 -139 -6 -139 -13 0 -3 22 -5
48 -5 l48 2 -4 -34 c-4 -29 -8 -34 -29 -34 -20 0 -24 4 -20 20 3 11 1 20 -4
20 -5 0 -9 -11 -9 -25 l0 -25 105 0 c105 0 105 0 105 24 0 14 5 28 10 31 6 4
10 -6 10 -24 l0 -29 145 0 145 0 0 28 c0 19 -6 29 -19 33 -24 6 -31 0 -31 -27
0 -19 -6 -21 -78 -21 l-77 0 0 30 c0 30 1 30 58 31 39 1 62 -3 72 -13 13 -13
15 -13 15 1 0 12 11 16 44 16 39 0 45 -3 50 -25 4 -14 3 -31 -1 -38 -5 -8 -10
-1 -14 18 -7 30 -7 30 -8 3 0 -15 4 -30 10 -34 19 -11 31 12 24 50 l-7 36
-127 -3 -126 -2 -6 -40 c-3 -22 -7 -34 -8 -27 0 6 -6 12 -12 12 -5 0 -7 -4 -4
-10 3 -5 1 -10 -4 -10 -6 0 -11 15 -11 34 0 29 -5 37 -32 50 -36 19 -48 20
-48 6z m-80 -20 c0 -5 -5 -10 -11 -10 -5 0 -8 -4 -5 -9 4 -5 2 -20 -3 -33 -10
-23 -10 -23 -10 4 -1 14 2 33 5 42 7 18 24 22 24 6z m147 -41 c1 -24 0 -26 -4
-9 -3 14 -10 31 -16 39 -10 11 -9 13 3 9 9 -3 16 -18 17 -39z m-142 -9 c-4
-12 -9 -19 -12 -17 -3 3 -2 15 2 27 4 12 9 19 12 17 3 -3 2 -15 -2 -27z m382
-7 c-3 -10 -5 -4 -5 12 0 17 2 24 5 18 2 -7 2 -21 0 -30z m20 -5 c-3 -7 -5 -2
-5 12 0 14 2 19 5 13 2 -7 2 -19 0 -25z"/>
<path d="M435 2102 c-11 -12 -4 -24 8 -13 10 8 17 7 25 -1 7 -7 12 -8 12 -2 0
5 5 2 10 -6 8 -12 10 -12 11 5 l0 20 9 -20 c9 -20 9 -20 9 0 1 17 -6 21 -39
21 -21 1 -42 -1 -45 -4z"/>
<path d="M2540 2081 c0 -35 15 -48 28 -25 12 22 4 54 -14 54 -9 0 -14 -11 -14
-29z m23 6 c3 -8 1 -20 -4 -28 -6 -10 -9 -7 -9 14 0 29 5 35 13 14z"/>
<path d="M2089 2098 c0 -2 -1 -18 -2 -36 -2 -24 2 -32 14 -32 18 0 27 24 21
53 -3 13 -29 25 -33 15z m24 -21 c3 -8 2 -19 -3 -26 -5 -9 -9 -4 -12 13 -5 27
6 36 15 13z"/>
<path d="M2719 2098 c0 -2 -1 -18 -2 -36 -2 -24 2 -32 14 -32 18 0 27 24 21
53 -3 13 -29 25 -33 15z m24 -21 c3 -8 2 -19 -3 -26 -5 -9 -9 -4 -12 13 -5 27
6 36 15 13z"/>
<path d="M743 2074 c-8 -21 13 -42 28 -27 13 13 5 43 -11 43 -6 0 -13 -7 -17
-16z m27 -8 c0 -3 -4 -8 -10 -11 -5 -3 -10 -1 -10 4 0 6 5 11 10 11 6 0 10 -2
10 -4z"/>
<path d="M977 2077 c-3 -8 -1 -20 4 -28 11 -19 34 3 26 25 -8 20 -23 21 -30 3z
m23 -13 c0 -8 -5 -12 -10 -9 -6 4 -8 11 -5 16 9 14 15 11 15 -7z"/>
<path d="M1614 2076 c-8 -21 1 -31 32 -31 17 -1 24 5 24 17 0 10 -4 18 -9 18
-5 0 -16 3 -25 6 -10 4 -18 0 -22 -10z m35 -17 c-15 -9 -32 -2 -24 11 3 5 13
6 21 3 12 -4 13 -8 3 -14z"/>
<path d="M1803 2074 c-9 -24 11 -38 36 -25 12 7 21 16 21 22 0 6 -7 3 -16 -5
-16 -17 -39 -12 -28 5 3 5 10 6 16 3 7 -4 8 -2 4 4 -10 17 -26 15 -33 -4z"/>
<path d="M1873 2074 c-8 -21 13 -42 28 -27 13 13 5 43 -11 43 -6 0 -13 -7 -17
-16z m27 -8 c0 -3 -4 -8 -10 -11 -5 -3 -10 -1 -10 4 0 6 5 11 10 11 6 0 10 -2
10 -4z"/>
<path d="M1455 2053 c-7 -26 -8 -26 -15 -8 l-9 20 -1 -20 -1 -20 -9 20 -9 20
-1 -20 c-1 -18 -2 -18 -16 5 -8 14 -13 17 -10 7 3 -10 6 -23 6 -28 0 -5 16 -9
35 -9 29 0 36 4 41 25 4 14 4 28 1 31 -2 3 -8 -8 -12 -23z"/>
<path d="M1522 2060 c0 -14 2 -19 5 -12 2 6 2 18 0 25 -3 6 -5 1 -5 -13z"/>
<path d="M2431 2066 c-9 -10 -9 -16 -1 -21 17 -10 37 12 24 25 -8 8 -15 6 -23
-4z"/>
<path d="M107 1923 c-10 -20 0 -97 14 -101 12 -5 12 -3 0 11 -12 15 -11 17 13
17 19 0 26 5 26 19 0 11 5 23 10 26 7 4 9 -2 5 -18 -4 -14 -2 -28 3 -31 6 -3
8 2 6 11 -8 35 11 48 50 36 20 -6 36 -7 36 -2 0 5 4 9 9 9 4 0 3 -15 -3 -34
l-10 -34 -62 2 c-34 0 -60 -2 -57 -7 2 -4 33 -7 69 -6 60 1 64 3 64 25 0 12 5
26 10 29 6 3 10 12 10 20 0 10 -18 13 -80 12 -58 -2 -80 1 -80 11 0 13 -26 17
-33 5z m19 -30 c-10 -10 -19 5 -10 18 6 11 8 11 12 0 2 -7 1 -15 -2 -18z m27
-13 c-5 -20 -33 -29 -33 -10 0 7 25 27 37 30 0 0 -1 -9 -4 -20z"/>
<path d="M197 1877 c-3 -8 -1 -20 4 -28 11 -19 34 3 26 25 -8 20 -23 21 -30 3z
m23 -13 c0 -8 -5 -12 -10 -9 -6 4 -8 11 -5 16 9 14 15 11 15 -7z"/>
<path d="M300 1835 c0 -12 13 -15 55 -15 42 0 55 3 55 15 0 12 -13 15 -55 15
-42 0 -55 -3 -55 -15z"/>
<path d="M117 1703 c-4 -3 -7 -39 -7 -80 0 -57 3 -73 14 -73 24 0 28 18 21 91
-7 65 -13 78 -28 62z m14 -136 c-8 -8 -11 9 -10 64 l2 74 9 -63 c7 -45 7 -67
-1 -75z"/>
<path d="M596 1703 c-3 -3 -6 -39 -6 -80 0 -55 3 -73 14 -73 7 0 17 15 20 33
l7 32 27 -33 c20 -24 35 -32 59 -32 36 0 51 16 33 33 -9 9 -11 9 -8 -2 2 -8
-5 -17 -14 -19 -10 -2 -18 2 -18 8 0 7 -9 25 -20 41 l-21 28 21 18 c20 18 28
53 11 53 -5 0 -23 -11 -39 -25 -36 -30 -42 -31 -42 -6 0 21 -13 34 -24 24z
m25 -57 c5 -6 22 3 44 24 19 19 35 29 35 24 0 -6 -9 -19 -20 -29 -25 -23 -25
-30 1 -67 12 -16 19 -31 16 -34 -3 -3 -15 9 -27 25 -28 40 -44 39 -58 -1 -9
-29 -10 -24 -10 42 1 41 3 64 5 50 3 -14 9 -29 14 -34z"/>
<path d="M733 1700 c9 -6 17 -18 17 -25 0 -21 -18 -19 -23 3 -3 9 -4 -12 -4
-48 0 -44 2 -51 4 -22 5 49 21 55 30 11 l6 -32 11 34 c9 26 17 35 39 37 20 3
27 9 27 25 0 12 4 17 8 12 4 -6 6 -38 4 -72 -4 -61 -5 -63 -31 -63 -15 0 -33
6 -40 13 -11 10 -13 9 -9 -3 3 -9 20 -16 45 -18 l41 -3 4 68 c3 47 0 73 -9 83
-12 13 -14 12 -19 -8 -5 -15 -14 -22 -31 -22 -17 0 -27 -7 -31 -22 -6 -19 -8
-16 -12 17 -4 30 -10 41 -25 43 -18 2 -18 2 -2 -8z"/>
<path d="M1045 1700 c-9 -14 -15 -119 -8 -136 10 -26 33 -15 33 16 0 19 5 30
14 30 8 0 23 -13 33 -30 17 -30 18 -30 110 -30 l93 0 0 80 c0 64 -3 80 -15 80
-12 0 -15 -16 -16 -77 -1 -73 -2 -75 -9 -31 -11 61 -16 68 -48 68 -42 0 -53
-13 -54 -61 0 -35 -4 -45 -18 -46 -22 -2 -62 67 -42 74 6 3 12 13 12 24 0 15
-7 19 -35 19 -28 0 -35 -4 -35 -20 0 -11 6 -20 14 -20 8 0 18 -5 22 -12 5 -8
0 -9 -14 -6 -19 5 -22 2 -22 -29 0 -19 -4 -32 -9 -28 -12 7 -6 114 7 127 15
15 74 5 86 -14 7 -12 6 -24 -3 -42 -12 -21 -12 -28 -1 -41 7 -8 15 -13 18 -10
3 2 -1 11 -7 19 -8 10 -9 16 -1 21 18 11 12 63 -9 75 -25 13 -88 13 -96 0z
m75 -39 c0 -15 -16 -22 -34 -15 -25 9 -19 24 9 24 14 0 25 -4 25 -9z m140 -20
c5 -11 10 -33 10 -50 0 -29 -2 -31 -39 -31 l-40 0 1 43 c0 23 2 45 5 50 9 15
53 7 63 -12z m47 -58 c-2 -16 -4 -5 -4 22 0 28 2 40 4 28 2 -13 2 -35 0 -50z"/>
<path d="M1210 1639 c-13 -9 -13 -10 2 -6 9 3 19 -1 22 -9 11 -28 6 -44 -11
-44 -16 0 -16 2 -3 11 10 7 11 9 2 7 -20 -5 -15 -23 6 -23 13 0 17 8 17 34 0
37 -11 47 -35 30z"/>
<path d="M1208 1613 c7 -3 16 -2 19 1 4 3 -2 6 -13 5 -11 0 -14 -3 -6 -6z"/>
<path d="M1710 1690 c-6 -11 -10 -39 -9 -63 1 -23 0 -49 -2 -57 -3 -12 8 -16
49 -18 42 -2 52 0 52 12 0 10 -9 16 -24 16 -29 0 -44 18 -22 26 20 8 21 30 1
38 -29 11 -16 28 15 21 22 -5 30 -3 30 7 0 39 -71 53 -90 18z m70 -5 c11 -13
8 -14 -19 -9 -27 6 -31 4 -31 -15 0 -12 7 -24 16 -28 15 -5 15 -7 0 -15 -26
-15 -18 -37 17 -47 l32 -9 -40 -1 -41 -1 -1 57 c-1 32 3 63 9 70 14 17 43 16
58 -2z"/>
<path d="M2101 1697 c-6 -6 -11 -42 -11 -79 0 -54 3 -68 15 -68 22 0 30 27 17
53 -11 21 -11 20 -6 -4 3 -15 1 -30 -5 -33 -8 -5 -11 14 -11 58 0 74 12 90 35
47 17 -33 20 -65 6 -57 -5 4 -4 -10 2 -29 12 -41 34 -45 47 -9 15 38 11 43 -7
10 -13 -26 -17 -27 -25 -12 -5 9 -6 25 -3 36 7 23 -14 87 -31 94 -6 2 -17 -1
-23 -7z"/>
<path d="M1837 1668 c-13 -18 -27 -39 -31 -46 -10 -17 11 -42 35 -42 11 0 19
-7 19 -15 0 -21 27 -19 40 4 13 25 -7 131 -26 131 -7 0 -24 -15 -37 -32z m52
-31 c6 -35 5 -51 -5 -64 -13 -17 -13 -17 -14 0 0 11 -8 17 -24 17 -14 0 -27 4
-30 9 -6 9 53 96 60 89 2 -3 8 -26 13 -51z"/>
<path d="M1857 1633 c4 -11 3 -14 -5 -9 -7 4 -12 3 -12 -2 0 -6 7 -12 15 -16
11 -4 15 1 15 19 0 14 -4 25 -10 25 -5 0 -6 -7 -3 -17z"/>
<path d="M2006 1685 c-19 -14 -16 -45 4 -45 5 0 10 -21 10 -46 0 -38 3 -45 18
-42 20 4 27 42 17 105 -7 45 -18 52 -49 28z m43 -72 c1 -23 -3 -45 -9 -48 -6
-4 -10 12 -10 40 0 32 -5 47 -15 51 -14 6 -13 8 2 19 22 17 31 0 32 -62z"/>
<path d="M2188 1658 c-10 -23 -16 -43 -13 -46 2 -2 12 14 21 37 9 22 20 41 24
41 11 0 23 -107 13 -122 -5 -8 -10 3 -14 32 l-6 45 -1 -47 c-2 -35 2 -48 12
-48 21 0 27 28 20 92 -8 72 -30 78 -56 16z"/>
<path d="M2317 1693 c-9 -8 -9 -106 -1 -127 3 -9 14 -16 23 -16 15 0 17 9 15
65 -4 78 -14 101 -37 78z m26 -132 c-1 -1 -6 0 -12 4 -12 7 -15 108 -3 119 6
7 21 -112 15 -123z"/>
<path d="M172 1674 c5 -27 34 -40 52 -25 28 23 19 41 -20 41 -28 0 -35 -4 -32
-16z m48 -9 c-10 -12 -16 -13 -26 -4 -20 16 -18 19 12 19 22 0 25 -2 14 -15z"/>
<path d="M251 1640 c-7 -17 -10 -42 -7 -55 5 -20 3 -25 -13 -25 -10 0 -26 11
-35 25 -24 37 -18 44 9 10 14 -16 25 -24 25 -17 0 16 -37 52 -54 52 -18 0 -15
-17 7 -52 17 -24 24 -26 83 -27 60 0 65 1 74 25 11 28 3 75 -14 86 -27 18 -61
8 -75 -22z m65 12 c38 -25 20 -95 -23 -90 -35 4 -50 30 -35 60 l11 23 -5 -26
c-3 -16 0 -30 10 -38 24 -20 46 -6 46 29 0 23 -4 30 -19 30 -11 0 -23 5 -26
10 -7 12 25 13 41 2z m-6 -41 c0 -11 -4 -22 -8 -25 -14 -9 -35 12 -29 28 9 23
37 20 37 -3z"/>
<path d="M367 1663 c-4 -3 -7 -30 -7 -60 0 -39 4 -53 14 -53 10 0 16 13 18 37
4 50 26 55 30 6 3 -38 3 -38 51 -41 l47 -3 0 60 c0 48 -3 61 -15 61 -9 0 -15
-10 -15 -26 0 -14 -5 -35 -11 -46 -14 -27 -29 -7 -29 40 0 30 -2 32 -38 32
-21 0 -42 -3 -45 -7z m73 -25 c1 -79 38 -90 57 -18 l11 45 1 -53 1 -53 -37 3
c-36 3 -38 5 -43 44 -4 36 -8 40 -25 34 -14 -5 -22 -19 -26 -46 -6 -37 -6 -37
-8 14 l-1 52 35 0 c30 0 35 -3 35 -22z"/>
<path d="M887 1664 c-18 -18 -6 -55 20 -65 22 -8 24 -12 13 -19 -13 -8 -12
-10 3 -10 26 0 20 25 -9 39 -16 7 -24 18 -22 29 4 23 50 23 54 0 3 -21 0 -21
-29 -8 -20 9 -20 9 -4 -2 10 -7 26 -18 34 -24 25 -18 9 -46 -24 -42 -16 2 -27
8 -25 16 1 6 -3 12 -9 12 -6 0 -9 -8 -7 -17 2 -13 14 -19 41 -21 45 -4 52 9
40 70 -8 38 -12 43 -39 46 -16 2 -33 0 -37 -4z"/>
<path d="M1342 1658 c-22 -22 -13 -47 21 -63 l32 -15 -33 6 c-29 5 -33 3 -30
-13 2 -14 12 -18 43 -18 l40 0 0 55 c0 54 -1 55 -30 58 -17 2 -36 -3 -43 -10z
m63 -8 c4 -6 -3 -9 -16 -7 -32 3 -34 -17 -4 -31 17 -8 25 -19 23 -30 -4 -20
-45 -29 -62 -12 -8 9 -4 10 15 5 39 -10 45 11 9 30 -33 17 -36 25 -18 43 15
15 45 16 53 2z m-5 -20 c13 -8 13 -10 -2 -10 -9 0 -20 5 -23 10 -8 13 5 13 25
0z"/>
<path d="M1440 1651 c-14 -27 -13 -76 3 -89 6 -5 51 -10 99 -10 82 -1 88 1 93
21 3 12 1 38 -3 57 -9 40 -38 51 -79 29 -18 -10 -26 -10 -35 -1 -19 19 -66 14
-78 -7z m68 -3 c7 -7 12 -18 12 -26 0 -9 -7 -6 -21 9 -11 13 -17 18 -13 10 5
-11 3 -13 -9 -8 -14 5 -17 0 -17 -24 0 -32 24 -49 42 -31 8 8 5 9 -11 5 -16
-4 -21 -1 -21 16 0 13 6 21 16 21 13 0 14 -3 5 -14 -10 -12 -8 -13 9 -9 18 5
21 2 18 -13 -7 -40 -78 -24 -78 18 0 48 39 75 68 46z m107 2 c3 -5 -2 -9 -12
-7 -27 3 -29 -16 -2 -30 13 -7 24 -17 23 -23 -1 -5 -2 -14 -2 -20 -2 -13 -59
-13 -67 -1 -3 6 7 9 21 8 15 -1 29 4 31 11 3 6 -2 12 -10 12 -20 0 -40 27 -33
45 6 17 41 20 51 5z m-65 -25 c0 -8 12 -22 28 -30 26 -16 26 -16 3 -11 -14 3
-31 0 -38 -6 -10 -8 -13 -3 -13 26 0 20 5 36 10 36 6 0 10 -7 10 -15z m60 5
c13 -8 13 -10 -2 -10 -9 0 -20 5 -23 10 -8 13 5 13 25 0z"/>
<path d="M2374 1645 c-13 -20 -15 -33 -8 -58 8 -27 15 -33 42 -35 19 -2 40 2
48 9 17 14 19 80 2 97 -21 21 -66 14 -84 -13z m74 3 c7 -7 12 -24 12 -38 0
-32 -17 -50 -47 -50 -38 0 -56 55 -27 84 18 19 45 21 62 4z"/>
<path d="M2390 1610 c0 -36 24 -50 47 -27 22 22 8 57 -23 57 -20 0 -24 -5 -24
-30z m47 4 c6 -16 -15 -37 -29 -28 -4 3 -8 14 -8 25 0 23 28 26 37 3z"/>
<path d="M792 1608 c2 -25 8 -33 23 -33 15 0 21 8 23 33 3 29 1 32 -23 32 -24
0 -26 -3 -23 -32z m36 0 c-2 -13 -7 -23 -13 -23 -5 0 -11 10 -13 23 -2 15 2
22 13 22 11 0 15 -7 13 -22z"/>
<path d="M1930 1565 c0 -8 7 -15 15 -15 8 0 15 7 15 15 0 8 -7 15 -15 15 -8 0
-15 -7 -15 -15z"/>
<path d="M120 1371 c0 -66 3 -81 15 -81 13 0 15 13 13 77 -2 50 -7 78 -15 81
-10 3 -13 -17 -13 -77z m17 -38 c-2 -21 -4 -4 -4 37 0 41 2 58 4 38 2 -21 2
-55 0 -75z"/>
<path d="M580 1430 c-6 -11 -19 -20 -28 -20 -10 0 -23 -5 -30 -12 -9 -9 -17
-9 -34 0 -13 6 -52 11 -88 10 l-65 -1 -2 -51 -1 -51 7 42 c9 52 13 57 46 49
21 -5 24 -10 16 -25 -6 -10 -7 -31 -2 -47 6 -25 13 -29 45 -32 21 -2 43 2 51
8 9 8 15 8 20 0 3 -5 26 -10 51 -10 l44 0 0 74 c0 77 -11 102 -30 66z m20 -61
l0 -70 -37 3 c-35 3 -38 6 -41 36 -4 38 12 62 40 62 11 0 22 9 25 20 9 36 13
21 13 -51z m-114 2 c11 -21 13 -22 17 -5 3 11 5 3 6 -16 0 -23 -2 -30 -8 -22
-6 10 -10 9 -14 -7 -8 -33 -64 -29 -78 5 -22 59 50 101 77 45z"/>
<path d="M535 1369 c-11 -16 4 -59 20 -59 18 0 34 28 28 51 -6 20 -38 26 -48
8z m38 -13 c7 -19 -18 -42 -28 -26 -8 13 1 40 14 40 5 0 11 -6 14 -14z"/>
<path d="M425 1370 c-4 -6 -4 -22 -1 -36 5 -19 12 -25 29 -22 32 4 32 62 0 66
-11 2 -24 -2 -28 -8z m42 -16 c8 -21 -13 -42 -28 -27 -13 13 -5 43 11 43 6 0
13 -7 17 -16z"/>
<path d="M1403 1430 c-3 -12 -14 -20 -27 -20 -32 0 -46 -19 -46 -60 0 -46 15
-60 62 -60 l38 0 0 80 c0 51 -4 80 -11 80 -6 0 -13 -9 -16 -20z m17 -60 c0
-70 0 -70 -28 -70 -35 0 -52 16 -52 50 0 32 17 50 47 50 16 0 23 6 23 20 0 11
2 20 5 20 3 0 5 -31 5 -70z"/>
<path d="M1355 1359 c-9 -26 16 -55 40 -45 25 9 16 60 -12 64 -15 2 -23 -3
-28 -19z m42 -5 c8 -20 -8 -36 -26 -25 -15 10 -8 41 9 41 6 0 13 -7 17 -16z"/>
<path d="M1732 1433 c-8 -15 -10 -103 -3 -135 3 -21 30 -5 33 20 2 22 8 28 35
30 38 4 58 32 49 67 -9 36 -97 50 -114 18z m93 -9 c29 -30 11 -56 -47 -69 -22
-4 -28 -11 -28 -31 0 -14 -4 -23 -9 -20 -7 5 -9 93 -2 129 2 14 70 7 86 -9z"/>
<path d="M1752 1398 c2 -18 9 -23 33 -23 23 0 30 4 30 20 0 15 -8 21 -33 23
-30 3 -33 1 -30 -20z m51 -3 c-4 -15 -36 -12 -41 3 -3 9 3 13 19 10 13 -1 23
-7 22 -13z"/>
<path d="M284 1425 c-4 -8 -7 -41 -8 -74 l-1 -58 45 1 c45 1 45 1 48 39 2 20
7 37 13 37 5 0 9 4 9 10 0 5 -7 7 -15 4 -9 -4 -15 -19 -15 -40 0 -22 -6 -37
-15 -41 -24 -8 -30 4 -31 60 0 29 -1 58 -2 65 -3 17 -21 15 -28 -3z m21 -65
c1 -32 -2 -57 -7 -54 -4 3 -8 33 -8 66 0 78 13 68 15 -12z"/>
<path d="M1002 1368 l3 -73 52 -3 c43 -3 52 0 47 12 -3 8 -18 16 -32 18 -25 3
-27 7 -30 61 -3 49 -6 57 -23 57 -18 0 -20 -6 -17 -72z m30 5 c3 -55 4 -58 33
-65 26 -6 25 -6 -10 -5 l-40 2 -3 63 c-2 36 1 62 7 62 6 0 11 -26 13 -57z"/>
<path d="M2258 1423 c-2 -10 -2 -43 1 -73 l6 -55 62 -3 c52 -2 63 0 72 16 6
11 8 22 4 26 -3 3 -6 20 -7 38 -1 28 -5 33 -29 36 -60 7 -78 -48 -24 -73 25
-12 27 -14 7 -10 -14 2 -33 5 -44 5 -16 0 -18 5 -13 34 7 43 -1 76 -18 76 -7
0 -15 -8 -17 -17z m25 -13 c3 -12 0 -20 -8 -20 -8 0 -11 8 -8 20 3 11 7 20 8
20 1 0 5 -9 8 -20z m105 -32 c4 -20 -23 -25 -34 -6 -5 8 -1 9 12 4 14 -5 16
-4 7 5 -11 11 -33 5 -33 -9 0 -4 14 -15 31 -25 26 -14 29 -20 19 -32 -13 -15
-90 -19 -90 -4 0 4 15 6 34 3 46 -5 54 11 16 31 -33 17 -36 25 -18 43 17 17
52 11 56 -10z m-105 -41 c3 -22 2 -35 -4 -32 -5 4 -9 22 -9 42 0 45 5 40 13
-10z"/>
<path d="M2472 1420 c-4 -11 -5 -44 -2 -73 l5 -52 67 -3 c60 -2 69 0 79 19 14
27 3 85 -17 93 -56 21 -90 -10 -81 -73 6 -34 5 -35 -9 -16 -10 13 -13 31 -9
53 11 57 -16 99 -33 52z m22 -46 c-3 -18 0 -42 6 -54 10 -18 9 -21 -2 -18 -13
5 -27 79 -19 111 7 33 21 -5 15 -39z m110 10 c32 -31 14 -84 -29 -84 -28 0
-45 19 -45 50 0 47 42 66 74 34z"/>
<path d="M2545 1359 c-8 -26 16 -54 39 -46 10 4 16 18 16 37 0 25 -4 30 -24
30 -16 0 -27 -7 -31 -21z m45 -8 c0 -11 -4 -22 -8 -25 -14 -9 -35 12 -29 28 9
23 37 20 37 -3z"/>
<path d="M183 1404 c-19 -8 -17 -114 1 -114 10 0 16 13 18 37 4 52 28 56 28 4
0 -30 4 -41 15 -41 20 0 28 39 18 81 -8 28 -14 34 -39 36 -16 1 -35 0 -41 -3z
m71 -47 c7 -26 6 -41 -2 -49 -9 -9 -12 -2 -12 31 0 38 -2 42 -22 39 -18 -2
-24 -11 -29 -43 l-6 -40 -2 46 c-1 53 4 61 39 57 20 -2 27 -11 34 -41z"/>
<path d="M627 1404 c-9 -9 -9 -77 -1 -98 4 -11 19 -16 50 -16 l44 0 0 60 c0
46 -3 60 -14 60 -10 0 -16 -14 -18 -42 -4 -52 -21 -53 -28 -2 -5 36 -19 52
-33 38z m23 -50 c0 -22 6 -37 15 -41 22 -8 28 1 36 50 l6 42 2 -52 1 -53 -34
0 c-38 0 -46 12 -46 66 0 21 4 33 10 29 6 -3 10 -22 10 -41z"/>
<path d="M740 1391 c-15 -28 -12 -77 4 -90 20 -16 78 -10 84 9 4 12 2 13 -9 3
-17 -16 -51 -17 -67 -1 -17 17 -15 63 3 78 16 14 47 10 52 -6 2 -7 -5 -10 -20
-7 -29 6 -42 -19 -27 -48 13 -23 33 -25 50 -4 14 17 0 21 -16 5 -8 -8 -15 -6
-23 4 -17 20 -4 38 21 30 24 -7 42 14 26 33 -16 20 -66 16 -78 -6z"/>
<path d="M840 1391 c-5 -11 -10 -30 -9 -43 0 -18 3 -15 12 12 14 42 45 50 72
20 10 -11 15 -23 12 -26 -4 -4 -16 4 -28 17 -11 13 -17 18 -13 10 5 -11 3 -13
-9 -8 -14 5 -17 0 -17 -24 0 -32 24 -49 42 -31 8 8 5 9 -11 5 -16 -4 -21 -1
-21 16 0 13 6 21 16 21 13 0 14 -3 5 -14 -9 -11 -6 -12 15 -8 24 4 25 3 15
-17 -13 -23 -50 -28 -70 -8 -11 10 -13 9 -9 -3 3 -10 18 -15 43 -15 36 0 40 3
48 32 8 25 6 38 -7 58 -21 31 -70 35 -86 6z"/>
<path d="M1123 1398 c-19 -24 -22 -48 -11 -78 10 -29 13 -31 52 -28 41 3 41 3
44 46 2 24 -2 50 -9 58 -14 17 -63 18 -76 2z m66 -12 c7 -8 11 -30 9 -48 -3
-29 -7 -33 -36 -36 -27 -3 -34 1 -42 24 -19 50 37 99 69 60z"/>
<path d="M1135 1370 c-4 -6 -4 -22 -1 -36 5 -19 12 -25 29 -22 32 4 32 62 0
66 -11 2 -24 -2 -28 -8z m42 -16 c8 -21 -13 -42 -28 -27 -13 13 -5 43 11 43 6
0 13 -7 17 -16z"/>
<path d="M1232 1398 c-6 -6 -12 -34 -12 -61 0 -41 3 -48 18 -45 12 2 18 14 20
41 4 49 26 44 30 -6 2 -25 8 -37 18 -37 12 0 14 12 12 58 l-3 57 -35 3 c-19 2
-41 -3 -48 -10z m74 -53 c2 -48 2 -48 -5 -10 -5 31 -11 41 -28 43 -20 3 -23
-1 -23 -32 0 -19 -4 -38 -10 -41 -11 -7 -14 77 -3 89 4 4 21 6 38 4 29 -3 30
-5 31 -53z"/>
<path d="M1451 1391 c-15 -26 -14 -74 1 -89 7 -7 27 -12 45 -12 42 0 61 33 47
82 -8 29 -15 33 -46 36 -28 2 -39 -1 -47 -17z m83 -24 c12 -34 -1 -61 -33 -65
-43 -7 -64 35 -40 79 16 30 61 22 73 -14z"/>
<path d="M1470 1350 c0 -37 27 -52 45 -26 19 25 7 56 -21 56 -20 0 -24 -5 -24
-30z m43 6 c6 -16 -16 -40 -26 -29 -4 3 -7 15 -7 25 0 21 25 24 33 4z"/>
<path d="M1573 1403 c-19 -7 -17 -113 1 -113 10 0 16 13 18 37 4 53 28 56 28
3 0 -34 3 -41 18 -38 21 4 28 52 13 91 -8 21 -17 27 -38 26 -16 0 -34 -3 -40
-6z m67 -22 c13 -25 13 -68 0 -76 -6 -4 -10 10 -10 35 0 37 -2 41 -22 38 -18
-2 -24 -11 -29 -43 l-6 -40 -2 46 c0 25 2 49 6 52 13 14 53 6 63 -12z"/>
<path d="M1865 1398 c-2 -7 -6 -33 -7 -58 l-3 -45 48 -3 48 -3 -3 58 -3 58
-38 3 c-24 2 -39 -1 -42 -10z m73 -50 l3 -48 -35 0 c-41 0 -46 6 -39 42 3 16
13 28 26 32 22 5 22 5 2 -11 -18 -14 -18 -15 -2 -9 10 3 23 6 29 6 6 0 5 6 -2
15 -8 10 -21 13 -33 9 -13 -4 -17 -3 -12 6 4 6 19 10 33 8 25 -3 27 -7 30 -50z"/>
<path d="M1880 1324 c0 -10 7 -14 22 -12 32 5 35 28 4 28 -17 0 -26 -5 -26
-16z"/>
<path d="M1982 1401 c-5 -3 -11 -30 -13 -59 -3 -44 -1 -52 14 -52 13 0 17 8
17 33 0 18 6 39 13 46 10 11 9 13 -3 9 -8 -3 -18 -22 -21 -44 l-6 -39 -2 47
c-1 50 8 63 38 53 16 -5 19 -12 14 -40 -7 -43 10 -65 47 -65 49 0 56 7 52 53
-3 23 -9 47 -14 54 -10 12 -118 15 -136 4z m126 -13 c7 -7 12 -18 12 -26 0 -9
-7 -6 -21 9 -11 13 -17 18 -13 10 5 -11 3 -13 -9 -8 -14 5 -17 0 -17 -24 0
-32 24 -49 42 -31 8 8 5 9 -11 5 -16 -4 -21 -1 -21 16 0 13 6 21 16 21 13 0
14 -3 5 -14 -10 -12 -8 -13 9 -9 18 5 21 2 18 -13 -7 -40 -78 -24 -78 18 0 48
39 75 68 46z"/>
<path d="M2163 1404 c-19 -8 -17 -114 1 -114 10 0 16 13 18 37 4 52 28 56 28
4 0 -30 4 -41 15 -41 22 0 28 22 18 72 -8 38 -12 43 -38 45 -17 1 -36 0 -42
-3z m70 -47 c7 -26 6 -42 -2 -50 -8 -8 -11 0 -11 32 0 38 -2 42 -22 39 -18 -2
-24 -11 -29 -43 l-6 -40 -2 46 c-1 53 4 61 38 57 20 -2 27 -11 34 -41z"/>
<path d="M105 1180 c-9 -15 4 -30 26 -30 17 0 19 -7 19 -60 0 -47 3 -60 15
-60 12 0 15 13 15 60 0 53 2 60 20 60 11 0 20 5 20 11 0 5 -5 7 -12 3 -16 -10
-80 -6 -92 6 -7 7 13 10 63 10 63 0 74 -3 78 -19 3 -11 17 -21 34 -25 27 -5
29 -8 28 -53 l-2 -48 -6 40 c-5 32 -11 41 -28 43 -20 3 -23 -1 -23 -32 0 -66
-19 -48 -23 21 l-3 68 -2 -73 c-2 -65 0 -73 16 -70 12 2 18 14 20 41 4 49 26
44 30 -6 2 -24 8 -37 18 -37 10 0 14 14 14 55 0 54 -1 56 -30 62 -16 3 -30 11
-30 18 0 7 -7 16 -16 19 -26 10 -142 7 -149 -4z m62 -112 c-2 -18 -4 -6 -4 27
0 33 2 48 4 33 2 -15 2 -42 0 -60z"/>
<path d="M350 1131 c-15 -28 -12 -77 4 -90 8 -7 29 -11 48 -9 27 2 34 8 42 35
7 25 5 38 -8 58 -21 31 -70 35 -86 6z m75 -11 c10 -11 15 -23 12 -26 -4 -4
-16 4 -28 17 -11 13 -17 18 -13 10 5 -11 3 -13 -9 -8 -14 5 -17 0 -17 -24 0
-32 24 -49 42 -31 8 8 5 9 -11 5 -16 -4 -21 -1 -21 16 0 13 6 21 16 21 13 0
14 -3 5 -14 -9 -11 -6 -12 15 -8 24 4 25 3 15 -17 -21 -38 -81 -22 -81 22 0
53 42 74 75 37z"/>
<path d="M517 1054 c-9 -10 2 -24 19 -24 8 0 14 7 14 15 0 15 -21 21 -33 9z"/>
<path d="M570 1045 c0 -8 9 -15 20 -15 11 0 20 7 20 15 0 8 -9 15 -20 15 -11
0 -20 -7 -20 -15z"/>
<path d="M630 1045 c0 -8 7 -15 15 -15 8 0 15 7 15 15 0 8 -7 15 -15 15 -8 0
-15 -7 -15 -15z"/>
<path d="M406 901 c-4 -7 0 -10 11 -9 48 4 53 0 37 -29 -7 -16 -14 -33 -14
-40 0 -6 -5 -15 -11 -19 -12 -7 -8 20 7 60 4 11 1 16 -12 15 -11 0 -14 -3 -7
-5 9 -4 9 -13 2 -30 -5 -14 -9 -32 -9 -40 0 -20 30 -17 36 4 3 9 12 30 20 46
8 16 11 33 7 37 -15 14 -61 21 -67 10z"/>
<path d="M578 902 c-10 -2 -18 -12 -18 -23 0 -16 4 -19 23 -13 l22 6 -22 -24
c-42 -45 -32 -58 47 -58 65 0 71 2 80 24 5 13 5 37 1 53 -7 25 -12 28 -48 29
-23 1 -47 3 -55 6 -7 2 -21 3 -30 0z m81 -16 c27 6 32 3 41 -20 7 -19 7 -33 0
-47 -16 -28 -46 -24 -59 9 l-11 27 5 -28 c5 -24 4 -27 -9 -15 -7 7 -11 18 -8
23 2 6 -1 4 -9 -3 -12 -11 -12 -14 1 -22 12 -8 9 -10 -12 -10 -33 0 -35 10 -8
35 11 10 20 25 20 33 0 9 -7 13 -20 9 -11 -3 -20 -1 -20 3 0 13 23 18 42 9 9
-5 30 -6 47 -3z"/>
<path d="M656 862 c-8 -24 3 -54 18 -49 15 5 14 59 -1 64 -6 2 -14 -5 -17 -15z
m24 -19 c0 -20 -3 -24 -11 -16 -7 7 -9 19 -6 27 10 24 17 19 17 -11z"/>
<path d="M1433 903 c-13 -2 -23 -9 -23 -16 0 -8 -3 -8 -12 1 -26 26 -38 13
-38 -43 0 -43 3 -55 15 -55 9 0 19 10 24 22 l8 23 7 -22 c7 -21 13 -22 121
-22 63 -1 116 3 119 8 3 4 3 24 -1 44 -5 32 -9 37 -34 37 -21 0 -29 -6 -32
-22 -3 -17 -5 -14 -6 10 0 17 -6 32 -11 32 -13 0 -53 -22 -62 -35 -4 -5 -8 0
-8 13 0 17 -5 23 -17 20 -14 -2 -18 -13 -19 -43 l-1 -40 4 38 c5 41 18 49 27
15 14 -53 8 -68 -27 -68 -21 0 -36 7 -45 20 -14 23 -32 26 -32 6 0 -8 -4 -18
-10 -21 -6 -4 -10 12 -10 40 0 43 1 45 21 35 11 -6 29 -26 39 -43 13 -20 20
-26 20 -15 0 9 -5 20 -10 23 -7 4 -7 11 -2 18 8 11 24 49 19 46 -1 -1 -12 -4
-24 -6z m1 -28 c-4 -8 -10 -12 -15 -9 -11 6 -2 24 11 24 5 0 7 -7 4 -15z m136
-31 c0 -44 -1 -45 -27 -42 -22 2 -29 9 -31 30 -3 24 11 38 56 57 1 1 2 -20 2
-45z m73 -1 c6 -34 1 -43 -24 -43 -15 0 -19 7 -19 35 0 28 4 35 19 35 12 0 20
-9 24 -27z m-56 -35 c-3 -8 -6 -5 -6 6 -1 11 2 17 5 13 3 -3 4 -12 1 -19z"/>
<path d="M1520 837 c0 -19 10 -27 26 -20 21 8 17 33 -6 33 -11 0 -20 -6 -20
-13z m30 -1 c0 -3 -4 -8 -10 -11 -5 -3 -10 -1 -10 4 0 6 5 11 10 11 6 0 10 -2
10 -4z"/>
<path d="M2585 902 c-11 -2 -26 -9 -33 -15 -18 -15 -183 -12 -192 4 -5 6 -15
9 -24 6 -12 -5 -16 -20 -16 -56 l0 -50 165 0 165 0 0 24 c0 13 5 27 10 30 6 4
10 -7 10 -25 0 -26 3 -30 19 -25 14 4 19 1 17 -12 -2 -25 44 -30 61 -7 14 19
17 72 5 90 -4 7 -36 12 -75 12 -47 0 -72 5 -80 15 -7 7 -21 12 -32 9z m23 -43
c1 -23 4 -44 8 -48 3 -3 5 9 2 27 -2 17 -1 32 3 32 9 0 19 -26 19 -52 0 -19
-5 -20 -72 -17 -68 4 -73 6 -78 28 -7 35 -28 38 -32 5 -3 -31 -27 -45 -29 -17
-1 16 -2 16 -6 1 -3 -11 -14 -18 -29 -18 -20 0 -24 5 -25 33 l-2 32 -7 -35 -7
-35 -3 40 -3 40 -7 -40 -7 -40 -2 42 c0 23 4 45 9 48 6 3 10 1 10 -4 0 -6 7
-11 15 -11 10 0 15 -10 15 -30 0 -38 27 -41 32 -3 3 30 27 44 29 16 1 -16 2
-16 6 0 5 18 38 23 48 7 4 -7 12 -7 25 0 27 15 32 12 18 -10 -9 -15 -10 -22
-1 -31 18 -18 35 0 28 31 -3 15 -2 31 3 34 6 3 10 -10 10 -30 0 -19 3 -38 6
-41 3 -4 6 12 6 34 0 33 6 53 15 53 2 0 3 -18 3 -41z m-211 -26 c-3 -10 -5 -4
-5 12 0 17 2 24 5 18 2 -7 2 -21 0 -30z m371 -4 c2 -23 -2 -40 -12 -48 -21
-18 -48 -7 -39 15 5 14 2 16 -15 12 -17 -5 -21 -1 -24 21 -2 18 -9 26 -20 25
-10 -1 -18 2 -18 6 0 4 28 7 63 6 l62 -1 3 -36z m-291 -16 c-3 -10 -5 -4 -5
12 0 17 2 24 5 18 2 -7 2 -21 0 -30z"/>
<path d="M2723 844 c-3 -8 2 -23 11 -32 15 -15 16 -14 16 16 0 33 -16 43 -27
16z m14 -16 c-3 -8 -6 -5 -6 6 -1 11 2 17 5 13 3 -3 4 -12 1 -19z"/>
<path d="M140 861 c0 -35 -2 -39 -21 -34 -17 5 -20 2 -17 -13 3 -17 14 -19 91
-22 l87 -2 0 55 c0 41 -4 55 -14 55 -8 0 -16 -5 -18 -11 -2 -5 -18 -11 -36
-11 -23 -1 -30 -4 -22 -12 5 -5 10 -20 10 -33 0 -14 6 -23 15 -23 10 0 15 10
15 30 0 19 5 30 14 30 8 0 17 6 19 13 3 6 6 -9 6 -35 1 -54 -16 -65 -22 -15
l-4 32 -1 -32 c-2 -28 -6 -33 -27 -33 -17 0 -25 6 -25 18 0 14 -2 15 -10 2 -7
-11 -10 -2 -10 33 0 35 -4 47 -15 47 -11 0 -15 -11 -15 -39z m20 -11 c0 -43
-21 -63 -43 -40 -9 9 -8 11 8 8 17 -2 21 3 23 35 4 49 12 47 12 -3z m57 -17
c-3 -10 -5 -4 -5 12 0 17 2 24 5 18 2 -7 2 -21 0 -30z"/>
<path d="M347 892 c-10 -15 6 -102 18 -102 19 0 26 26 19 71 -6 35 -25 52 -37
31z m23 -12 c0 -5 -5 -10 -11 -10 -5 0 -7 5 -4 10 3 6 8 10 11 10 2 0 4 -4 4
-10z m10 -50 c0 -10 -4 -22 -10 -25 -6 -4 -10 7 -10 25 0 18 4 29 10 25 6 -3
10 -15 10 -25z"/>
<path d="M737 892 c-3 -4 -3 -29 0 -55 7 -63 27 -56 31 11 2 41 0 52 -12 52
-8 0 -17 -3 -19 -8z m23 -12 c0 -5 -5 -10 -11 -10 -5 0 -7 5 -4 10 3 6 8 10
11 10 2 0 4 -4 4 -10z m-3 -67 c-3 -10 -5 -2 -5 17 0 19 2 27 5 18 2 -10 2
-26 0 -35z"/>
<path d="M794 886 c-3 -8 -4 -31 -2 -52 3 -35 6 -39 32 -42 40 -5 49 8 41 62
-7 43 -9 46 -36 46 -16 0 -32 -6 -35 -14z m61 -32 c7 -40 -3 -58 -31 -52 -12
2 -20 13 -22 31 -5 39 4 57 27 57 14 0 21 -10 26 -36z"/>
<path d="M815 840 c-10 -17 12 -37 25 -24 8 8 6 15 -4 23 -10 9 -16 9 -21 1z"/>
<path d="M1000 845 c0 -42 3 -55 15 -55 8 0 15 7 15 17 0 15 2 15 18 0 13 -12
36 -15 92 -14 70 2 75 4 78 25 4 26 22 20 22 -9 0 -15 7 -19 35 -19 28 0 36 4
41 24 14 57 7 61 -101 62 -56 1 -106 -3 -113 -9 -8 -6 -11 -21 -7 -39 8 -34
-9 -37 -42 -6 l-23 21 -9 -24 c-8 -20 -10 -16 -10 26 -1 35 2 46 9 35 8 -12
13 -13 30 -2 25 15 38 16 22 0 -16 -16 -15 -30 3 -54 14 -18 15 -17 5 8 -6 18
-6 29 0 33 6 4 10 13 10 21 0 17 -31 19 -48 2 -9 -9 -12 -9 -12 0 0 7 -7 12
-15 12 -12 0 -15 -13 -15 -55z m162 3 l15 -22 12 22 c8 15 21 22 41 22 23 0
29 -5 32 -25 4 -35 22 -35 29 1 5 23 7 25 13 12 13 -29 2 -53 -25 -56 -21 -2
-28 2 -33 22 -7 30 -36 35 -36 7 0 -11 -4 -23 -10 -26 -5 -3 -10 -2 -10 4 0
10 -25 9 -36 -2 -25 -24 -65 22 -43 49 17 20 34 17 51 -8z m115 -15 c-3 -10
-5 -4 -5 12 0 17 2 24 5 18 2 -7 2 -21 0 -30z"/>
<path d="M1122 834 c4 -21 22 -23 26 -1 2 10 -3 17 -13 17 -10 0 -15 -6 -13
-16z"/>
<path d="M1662 883 c5 -25 28 -28 28 -4 0 12 -6 21 -16 21 -9 0 -14 -7 -12
-17z"/>
<path d="M2242 888 c-8 -8 -52 -11 -137 -11 -69 1 -125 -3 -125 -7 0 -5 -10
-12 -21 -15 -17 -6 -19 -9 -8 -16 11 -7 11 -9 -3 -9 -10 0 -18 9 -20 23 -3 19
-10 22 -60 25 -51 3 -58 1 -57 -15 0 -10 3 -13 6 -5 2 6 13 12 22 12 15 0 18
-8 17 -37 -1 -36 1 -38 32 -41 22 -2 34 2 38 12 8 20 40 21 47 2 5 -12 36 -14
156 -14 l151 0 0 54 c0 55 -12 68 -38 42z m28 -41 l0 -43 -137 0 c-138 0 -163
6 -163 38 0 8 3 9 8 3 4 -5 16 -17 27 -25 19 -14 20 -14 3 6 -10 11 -18 26
-18 32 0 7 8 12 18 12 23 0 48 -17 39 -27 -4 -4 -18 -1 -30 6 -20 13 -21 13
-9 -1 20 -25 52 -30 52 -8 0 24 16 34 38 24 28 -12 42 -13 42 -3 0 12 37 12
45 -1 4 -7 12 -7 25 0 27 15 32 12 18 -10 -9 -15 -10 -22 -1 -31 17 -17 35 0
29 28 -6 22 -1 43 10 43 2 0 4 -19 4 -43z m-355 -12 c0 -21 -5 -31 -19 -33
-26 -5 -40 12 -32 43 5 20 12 26 29 23 17 -2 22 -10 22 -33z"/>
<path d="M2150 860 c-11 -39 -1 -50 29 -31 9 6 10 11 2 15 -6 4 -11 1 -12 -6
0 -7 -4 -4 -9 7 -5 11 -9 18 -10 15z"/>
<path d="M2071 834 c0 -11 3 -14 6 -6 3 7 2 16 -1 19 -3 4 -6 -2 -5 -13z"/>
<path d="M1881 843 c-1 -24 13 -31 25 -11 4 6 3 8 -4 4 -6 -3 -13 2 -15 11 -4
14 -5 13 -6 -4z"/>
<path d="M1730 820 c0 -60 8 -72 30 -46 6 8 26 16 43 18 29 3 32 6 34 38 1 34
1 34 -5 5 -6 -25 -13 -30 -40 -32 -31 -3 -32 -2 -17 13 18 19 3 47 -21 37 -8
-3 -14 0 -14 7 0 8 11 11 30 8 17 -3 30 -1 30 4 0 4 -16 8 -35 8 l-35 0 0 -60z
m45 21 c3 -5 1 -12 -5 -16 -5 -3 -10 1 -10 9 0 18 6 21 15 7z m-23 -25 c3 -14
1 -31 -3 -38 -6 -8 -9 1 -9 25 0 42 6 48 12 13z"/>
<path d="M910 836 c0 -11 9 -16 26 -16 31 0 28 23 -4 28 -15 2 -22 -2 -22 -12z
m37 -2 c-3 -3 -12 -4 -19 -1 -8 3 -5 6 6 6 11 1 17 -2 13 -5z"/>
<path d="M480 795 c0 -16 6 -25 15 -25 9 0 15 9 15 25 0 16 -6 25 -15 25 -9 0
-15 -9 -15 -25z m17 -7 c-3 -8 -6 -5 -6 6 -1 11 2 17 5 13 3 -3 4 -12 1 -19z"/>
<path d="M236 693 c-3 -3 -6 -15 -6 -25 0 -15 6 -17 40 -13 34 5 40 3 40 -14
0 -28 28 -35 32 -8 2 14 11 23 27 25 20 3 23 0 18 -17 -3 -12 -1 -21 4 -21 5
0 9 7 9 15 0 8 4 15 9 15 5 0 18 3 28 7 16 6 16 5 4 -10 -14 -18 -9 -47 9 -47
5 0 10 19 11 43 l1 42 8 -34 c5 -19 6 -40 3 -48 -5 -14 -35 -18 -47 -6 -9 10
-36 13 -36 4 0 -13 -218 -13 -226 0 -3 6 -1 15 6 19 9 6 7 11 -8 19 -30 16
-32 14 -32 -21 0 -24 -3 -29 -11 -21 -7 7 -9 23 -5 37 6 23 11 26 50 26 41 0
45 -2 51 -31 9 -40 17 -32 9 9 -6 31 -8 32 -60 32 -53 0 -53 0 -60 -34 -3 -19
-3 -39 0 -44 3 -6 85 -10 191 -10 205 0 191 -6 185 68 -3 43 -5 46 -25 30 -21
-17 -195 -20 -195 -3 0 15 -15 25 -24 16z m11 -25 c-3 -8 -6 -5 -6 6 -1 11 2
17 5 13 3 -3 4 -12 1 -19z m-94 -58 c-7 -28 -13 -25 -13 6 0 14 4 23 9 20 5
-3 7 -15 4 -26z m294 8 c-3 -8 -6 -5 -6 6 -1 11 2 17 5 13 3 -3 4 -12 1 -19z"/>
<path d="M549 693 c-12 -3 -18 -19 -22 -56 -3 -29 -4 -53 -3 -54 8 -9 226 -3
226 6 0 3 -35 5 -77 3 -96 -4 -135 -4 -139 1 -2 2 1 16 5 33 9 28 12 27 15 -6
0 -8 10 -16 21 -17 15 -2 16 -1 5 5 -8 4 -15 16 -15 27 0 11 7 23 15 28 9 4 5
6 -12 4 -16 -3 -28 -1 -28 3 0 12 28 20 48 14 14 -5 15 -4 2 5 -8 6 -17 10
-20 10 -3 -1 -12 -3 -21 -6z"/>
<path d="M629 693 c-18 -4 -29 -33 -28 -68 0 -12 5 -5 11 15 10 36 26 53 40
44 14 -9 9 -26 -6 -21 -9 4 -16 -4 -19 -21 -6 -32 8 -51 25 -34 8 8 8 15 -2
27 -12 14 -11 16 12 10 20 -5 26 -2 31 14 6 23 27 27 57 11 13 -7 21 -7 25 0
3 6 20 9 36 8 27 -2 29 -5 29 -40 0 -32 -4 -39 -25 -44 -15 -4 -32 -1 -42 7
-14 12 -16 12 -11 -1 3 -10 20 -16 56 -17 47 -1 52 1 53 20 l0 22 16 -22 c8
-13 22 -23 29 -23 19 0 18 34 -2 51 -14 11 -14 13 0 21 9 5 16 16 16 23 0 21
-37 19 -49 -2 -10 -17 -10 -17 -11 -1 0 15 -11 17 -91 17 -83 -1 -91 -3 -99
-23 l-9 -21 0 21 c-1 23 -16 33 -42 27z m260 -29 c8 9 18 16 24 16 5 0 3 -8
-6 -18 -15 -16 -15 -21 -2 -38 19 -25 19 -40 0 -24 -8 7 -15 19 -15 26 0 21
-28 5 -33 -19 -2 -12 -5 0 -6 27 -1 43 1 47 12 32 12 -16 14 -16 26 -2z m-239
-44 c0 -5 -5 -10 -11 -10 -5 0 -7 5 -4 10 3 6 8 10 11 10 2 0 4 -4 4 -10z"/>
<path d="M1622 689 c-17 -7 -22 -17 -22 -47 0 -22 6 -44 13 -50 8 -7 87 -11
220 -10 l207 1 0 53 c0 54 -12 68 -36 44 -6 -6 -42 -11 -80 -11 -65 -1 -83 -8
-84 -33 0 -6 6 -1 14 10 13 17 18 18 45 7 17 -6 31 -7 31 -2 0 5 16 9 35 9 33
0 34 -1 23 -20 -9 -15 -10 -22 -1 -31 18 -18 35 0 28 31 -3 16 -2 31 4 35 7 4
11 -10 11 -40 0 -44 -1 -46 -27 -43 -19 2 -29 10 -34 28 l-6 25 -5 -25 c-5
-24 -5 -23 -8 5 l-2 30 -7 -30 c-6 -27 -11 -30 -49 -33 -35 -2 -42 0 -42 15 0
16 -2 16 -11 3 -8 -11 -9 -3 -5 33 6 47 6 47 -25 47 -16 0 -40 -9 -52 -21 -17
-15 -18 -19 -4 -14 14 6 17 1 16 -31 -1 -38 -2 -38 -9 -9 -7 29 -8 29 -9 4 -1
-25 -4 -26 -58 -26 -67 -1 -83 9 -83 48 0 34 28 52 65 43 33 -8 34 -45 1 -60
-29 -14 -51 -2 -42 21 4 12 14 16 31 13 13 -3 22 -1 19 3 -3 5 -16 9 -29 9
-31 0 -44 -36 -21 -58 14 -14 20 -14 37 -4 11 7 24 10 29 7 6 -4 10 9 10 30 0
20 4 34 9 30 5 -3 12 -1 16 5 4 6 12 7 18 4 7 -4 9 -4 5 0 -9 11 -111 14 -136
5z m208 -20 c0 -6 -9 -13 -20 -16 -11 -3 -17 -9 -14 -14 3 -5 10 -7 15 -4 5 4
9 -5 9 -19 0 -19 -5 -26 -20 -26 -17 0 -20 7 -20 45 0 41 2 45 25 45 14 0 25
-5 25 -11z"/>
<path d="M977 683 c-4 -3 -7 -28 -7 -55 l0 -48 35 0 c33 0 35 2 35 35 0 43
-22 43 -32 0 -5 -26 -6 -25 -5 10 l2 39 49 -3 c70 -4 96 -16 96 -44 0 -22 -4
-24 -42 -23 -40 1 -43 3 -43 28 1 17 -3 24 -8 19 -5 -5 -7 -21 -3 -35 6 -23
11 -26 56 -25 46 2 50 4 50 25 0 13 5 24 10 24 6 0 10 -12 10 -26 0 -35 23
-26 31 12 l7 29 1 -32 c1 -23 6 -33 17 -33 12 0 14 9 12 43 l-3 42 -104 2
c-57 1 -109 7 -115 13 -11 11 -39 13 -49 3z m13 -53 l-7 -45 -2 41 c0 22 2 44
6 47 10 11 11 5 3 -43z m247 -10 c1 -33 1 -34 -5 -6 -9 39 -25 39 -33 1 l-7
-30 -1 28 c-1 20 -6 27 -21 27 -11 0 -20 5 -20 11 0 6 17 9 43 7 40 -3 42 -4
44 -38z m-210 -22 c-3 -7 -5 -2 -5 12 0 14 2 19 5 13 2 -7 2 -19 0 -25z"/>
<path d="M1290 635 c0 -42 3 -55 15 -55 8 0 15 5 15 11 0 5 -4 7 -10 4 -6 -4
-10 12 -10 39 0 49 16 62 26 21 6 -23 34 -37 34 -17 0 5 7 17 15 28 13 18 14
15 15 -29 0 -30 -4 -46 -10 -42 -5 3 -10 1 -10 -4 0 -7 35 -11 94 -11 l94 0 0
45 c-1 25 -5 48 -10 51 -10 6 -132 -6 -125 -12 2 -2 15 -5 28 -6 22 -2 24 -6
21 -35 -3 -27 -8 -33 -28 -33 -20 0 -24 5 -25 33 l-2 32 -7 -35 c-7 -33 -7
-31 -9 18 -1 59 -23 72 -43 25 l-11 -28 -10 28 c-6 16 -18 27 -29 27 -15 0
-18 -9 -18 -55z m256 -7 c3 -35 1 -38 -22 -36 -19 2 -24 7 -21 20 7 25 -2 22
-13 -4 -8 -21 -9 -20 -9 10 -1 19 3 31 9 27 6 -3 7 1 4 10 -6 13 -1 16 21 13
24 -3 28 -8 31 -40z"/>
<path d="M1522 635 c0 -16 2 -22 5 -12 2 9 2 23 0 30 -3 6 -5 -1 -5 -18z"/>
<path d="M2278 679 c-2 -6 -41 -11 -98 -12 l-95 -2 -3 -42 -3 -42 115 0 116 0
0 54 c0 41 -4 55 -14 55 -8 0 -16 -5 -18 -11z m22 -44 l0 -46 -42 3 c-35 3
-43 7 -48 26 -7 31 -24 29 -28 -3 -3 -23 -8 -25 -48 -25 -45 0 -45 0 -42 33 2
24 8 33 26 35 19 3 22 -1 24 -30 l1 -33 5 35 5 35 7 -30 8 -30 1 28 c1 22 6
27 26 27 14 0 25 -4 25 -9 0 -4 16 -3 35 3 19 6 35 14 35 18 0 5 2 8 5 8 3 0
5 -20 5 -45z m-103 -32 c-3 -10 -5 -4 -5 12 0 17 2 24 5 18 2 -7 2 -21 0 -30z"/>
<path d="M2263 639 c-14 -14 -6 -39 13 -39 8 0 14 10 14 25 0 27 -9 32 -27 14z
m17 -15 c0 -8 -5 -12 -10 -9 -6 4 -8 11 -5 16 9 14 15 11 15 -7z"/>
<path d="M2366 640 c-20 -56 -16 -71 15 -52 14 9 24 10 33 3 7 -6 66 -10 140
-9 l127 1 -3 41 -3 41 -72 0 c-53 -1 -73 3 -73 12 0 17 -69 17 -75 1 -2 -7 0
-29 5 -48 l10 -35 -5 37 c-2 21 1 40 6 43 5 4 9 -14 9 -39 0 -39 -3 -46 -20
-46 -11 0 -29 6 -40 12 -16 10 -24 10 -41 -1 -20 -12 -21 -11 -14 6 4 10 12
30 17 46 14 38 26 34 48 -15 22 -50 27 -34 6 17 -22 52 -48 46 -70 -15z m131
-27 c-2 -16 -4 -5 -4 22 0 28 2 40 4 28 2 -13 2 -35 0 -50z m38 32 c6 0 16 4
23 8 22 14 52 -2 52 -29 0 -25 -3 -27 -62 -28 l-38 -1 1 45 c1 29 3 38 7 25 4
-11 12 -20 17 -20z m133 -23 c3 -30 1 -33 -20 -30 -23 3 -34 27 -24 54 11 28
41 11 44 -24z"/>
<path d="M2556 631 c-8 -12 17 -32 29 -23 6 4 11 13 13 20 2 14 -34 17 -42 3z
m24 -11 c0 -5 -2 -10 -4 -10 -3 0 -8 5 -11 10 -3 6 -1 10 4 10 6 0 11 -4 11
-10z"/>
<path d="M707 664 c-11 -11 -8 -52 4 -60 14 -8 30 15 27 40 -3 21 -20 31 -31
20z m23 -29 c0 -8 -4 -17 -10 -20 -6 -4 -10 5 -10 20 0 15 4 24 10 20 6 -3 10
-12 10 -20z"/>
<path d="M787 664 c-11 -11 -8 -52 4 -60 14 -8 30 15 27 40 -3 21 -20 31 -31
20z m23 -29 c0 -8 -4 -17 -10 -20 -6 -4 -10 5 -10 20 0 15 4 24 10 20 6 -3 10
-12 10 -20z"/>
<path d="M1077 637 c-3 -8 -1 -20 4 -28 11 -19 34 3 26 25 -8 20 -23 21 -30 3z
m23 -13 c0 -8 -5 -12 -10 -9 -6 4 -8 11 -5 16 9 14 15 11 15 -7z"/>
<path d="M1867 643 c-4 -3 -7 -15 -7 -25 0 -21 25 -24 33 -4 6 16 -16 40 -26
29z m18 -12 c3 -5 1 -12 -5 -16 -5 -3 -10 1 -10 9 0 18 6 21 15 7z"/>
<path d="M270 630 c0 -5 10 -15 23 -21 22 -12 22 -12 3 10 -21 23 -26 26 -26
11z"/>
<path d="M350 626 c0 -8 4 -17 9 -20 5 -4 7 3 4 14 -6 23 -13 26 -13 6z"/>
<path d="M1452 620 c0 -14 2 -19 5 -12 2 6 2 18 0 25 -3 6 -5 1 -5 -13z"/>
<path d="M1331 603 c-1 -14 5 -23 14 -23 9 0 15 9 14 23 0 21 -1 21 -8 2 l-8
-20 -5 20 c-5 18 -6 18 -7 -2z"/>
<path d="M133 482 c-21 -3 -23 -9 -23 -57 l0 -55 83 3 82 2 0 40 c0 38 -2 40
-30 40 -27 0 -30 -4 -34 -35 l-5 -35 -5 44 c-6 47 -24 60 -68 53z m55 -60 c-3
-34 -6 -37 -35 -40 -33 -3 -33 -3 -33 42 0 34 4 45 18 49 34 7 53 -12 50 -51z
m77 -7 c0 -23 -4 -30 -20 -30 -21 0 -31 25 -21 51 11 28 41 12 41 -21z"/>
<path d="M130 449 c0 -5 9 -9 20 -9 11 0 20 4 20 8 0 4 -9 8 -20 9 -11 1 -20
-2 -20 -8z"/>
<path d="M133 408 c2 -7 12 -13 22 -13 10 0 20 6 23 13 2 7 -6 12 -23 12 -17
0 -25 -5 -22 -12z m34 -4 c-3 -3 -12 -4 -19 -1 -8 3 -5 6 6 6 11 1 17 -2 13
-5z"/>
<path d="M1073 483 c-8 -3 -13 -25 -13 -59 l0 -54 117 2 118 3 6 30 6 30 4
-30 c3 -25 9 -30 36 -33 30 -3 32 -1 36 35 3 32 4 30 5 -14 2 -57 6 -62 34
-36 10 9 31 16 48 15 27 -1 30 2 29 31 l-1 32 -8 -30 c-8 -30 -8 -30 -9 7 l-1
38 83 -2 c45 -1 85 -7 89 -13 5 -6 8 -3 8 6 0 15 -21 17 -195 17 l-195 1 1
-27 c2 -23 2 -24 6 -4 4 19 11 22 49 22 44 0 44 0 44 -36 0 -31 -3 -35 -22
-32 -17 2 -24 11 -26 31 -2 15 -9 27 -17 27 -8 0 -15 -12 -17 -27 -2 -20 -9
-29 -25 -31 -21 -3 -23 0 -22 40 l2 43 7 -40 7 -40 2 44 c1 40 -1 43 -21 37
-13 -3 -38 -6 -55 -6 -31 0 -33 -2 -32 -37 0 -31 2 -34 9 -18 8 19 9 19 9 -2
1 -21 -4 -23 -50 -23 l-50 0 3 48 c3 44 5 47 33 49 25 2 27 1 10 -7 -19 -8
-19 -9 3 -9 13 -1 22 5 22 14 0 15 -39 20 -67 8z m157 -68 c0 -26 -3 -33 -15
-29 -8 4 -15 17 -15 30 0 13 -4 24 -8 24 -5 0 -8 -12 -7 -27 2 -19 1 -21 -2
-5 -2 12 -9 22 -14 22 -5 0 -9 5 -9 10 0 6 16 10 35 10 33 0 35 -2 35 -35z
m220 24 c0 -5 5 -7 10 -4 6 4 10 -5 10 -19 0 -19 -7 -27 -25 -32 -14 -3 -30
-14 -35 -23 -7 -12 -9 -2 -10 37 0 49 1 52 25 52 14 0 25 -5 25 -11z"/>
<path d="M1417 433 c-4 -3 -7 -17 -7 -29 0 -25 24 -24 34 1 5 15 -17 39 -27
28z m18 -12 c3 -5 1 -12 -5 -16 -5 -3 -10 1 -10 9 0 18 6 21 15 7z"/>
<path d="M1923 483 c-19 -7 -18 -113 1 -113 8 0 18 9 21 20 8 26 41 26 48 1 4
-18 14 -20 92 -20 49 0 93 -5 101 -12 17 -14 34 -3 34 22 0 12 -7 19 -17 18
-11 0 -13 -3 -5 -6 17 -7 15 -23 -3 -23 -11 0 -15 12 -15 49 l0 50 -69 -6
c-57 -5 -73 -3 -86 11 -16 15 -74 21 -102 9z m95 -15 c7 -7 13 -28 14 -47 l1
-36 4 33 c4 31 5 32 54 32 27 0 49 -4 49 -10 0 -5 4 -10 10 -10 5 0 7 7 4 15
-4 8 -1 15 5 15 6 0 11 -18 10 -42 0 -24 -3 -37 -6 -29 -5 11 -7 11 -14 0 -7
-11 -9 -9 -9 6 0 11 -5 27 -11 35 -8 11 -9 6 -4 -18 6 -31 5 -33 -17 -30 -17
2 -22 8 -20 26 2 12 -2 22 -8 22 -6 0 -9 -4 -6 -9 4 -5 3 -17 -1 -28 -6 -15
-9 -13 -14 12 l-7 30 -1 -28 c-1 -23 -5 -28 -23 -25 -19 2 -23 9 -21 38 0 19
-1 27 -4 17 -2 -10 -10 -17 -16 -16 -31 4 -45 -3 -52 -23 -7 -20 -9 -18 -12
16 -3 21 -2 44 1 52 7 17 77 19 94 2z"/>
<path d="M1947 463 c-14 -13 -7 -32 9 -26 12 4 13 8 3 13 -8 6 -6 9 7 13 14 3
15 5 3 6 -9 0 -19 -2 -22 -6z"/>
<path d="M2384 479 c-4 -8 -3 -9 4 -5 8 5 12 0 12 -13 0 -22 10 -24 50 -10 23
8 22 8 -7 5 -22 -1 -33 2 -33 10 0 18 -17 27 -26 13z"/>
<path d="M420 472 c0 -4 -10 -8 -22 -8 -13 0 -42 -1 -65 -2 l-43 -2 0 -45 c0
-33 4 -45 15 -45 10 0 15 10 14 33 l-1 32 -8 -30 c-8 -30 -8 -30 -9 8 -1 33 2
37 23 37 13 0 27 -7 30 -16 9 -25 7 -56 -4 -49 -5 3 -10 16 -10 27 0 12 -3 19
-6 15 -4 -3 -4 -18 0 -32 6 -24 9 -25 81 -25 l75 0 -1 33 -1 32 -8 -30 c-7
-29 -8 -29 -9 9 l-1 39 35 -6 c21 -3 33 -2 30 4 -4 5 -21 9 -40 9 -33 0 -34
-2 -38 -42 -3 -41 -4 -41 -5 10 -2 39 -6 52 -17 52 -8 0 -15 -4 -15 -8z m20
-47 c0 -41 -2 -45 -25 -45 -20 0 -25 5 -25 24 0 13 -3 31 -6 40 -3 9 -1 16 5
16 6 0 11 -16 11 -35 0 -24 5 -35 15 -35 11 0 15 11 15 40 0 22 2 40 5 40 3 0
5 -20 5 -45z m-60 -24 c0 -32 -6 -24 -14 19 -4 25 -3 31 4 20 5 -8 10 -26 10
-39z m37 7 c-3 -8 -6 -5 -6 6 -1 11 2 17 5 13 3 -3 4 -12 1 -19z"/>
<path d="M620 431 l0 -49 -52 2 c-46 2 -53 5 -59 27 -6 20 -7 20 -8 4 -1 -39
11 -44 104 -42 75 2 89 5 86 17 -3 8 -4 27 -3 43 1 21 -3 27 -18 27 -11 0 -20
5 -20 10 0 6 -7 10 -15 10 -11 0 -15 -12 -15 -49z m47 16 c13 5 15 2 10 -11
-4 -10 -3 -25 3 -35 8 -16 5 -18 -20 -17 -29 1 -30 3 -30 46 1 35 3 41 11 28
6 -11 16 -15 26 -11z"/>
<path d="M738 463 c-2 -10 -1 -35 1 -56 3 -36 5 -38 35 -35 28 3 31 6 32 38 1
24 0 27 -3 8 -2 -14 -11 -29 -19 -32 -11 -4 -14 4 -13 37 1 40 2 40 9 12 6
-24 8 -26 9 -7 1 19 6 22 45 22 27 0 51 -6 60 -16 15 -14 16 -14 16 0 0 12 11
16 44 16 39 0 45 -3 50 -25 4 -14 3 -31 -1 -38 -5 -8 -10 -1 -14 18 -7 30 -7
30 -8 3 0 -15 4 -30 10 -34 19 -11 31 12 24 49 l-7 36 -111 0 c-69 0 -113 4
-115 11 -6 17 -40 11 -44 -7z m26 -8 c-4 -8 -10 -15 -15 -15 -4 0 -6 7 -3 15
4 8 10 15 15 15 4 0 6 -7 3 -15z m-7 -62 c-3 -10 -5 -4 -5 12 0 17 2 24 5 18
2 -7 2 -21 0 -30z"/>
<path d="M2267 473 c-4 -3 -7 -28 -7 -55 l0 -49 37 3 c27 2 39 8 41 21 2 9 -2
17 -8 17 -6 0 -9 -4 -5 -9 3 -5 1 -12 -5 -16 -5 -3 -10 2 -11 12 0 16 -1 16
-9 -2 l-9 -20 -1 20 -1 20 -9 -20 c-7 -16 -9 -11 -9 21 -1 50 9 62 27 32 9
-15 11 -17 8 -5 -3 10 -6 23 -6 28 0 10 -23 12 -33 2z"/>
<path d="M2333 463 c-3 -10 -8 -21 -9 -24 -2 -4 3 -10 12 -13 12 -4 14 -1 9
13 -3 11 0 23 6 27 9 5 11 -6 7 -44 l-5 -50 194 -1 193 -1 0 55 c0 42 -3 55
-15 55 -9 0 -15 -9 -14 -22 0 -22 1 -22 9 -3 6 15 9 7 9 -30 l0 -50 -16 42
-17 41 -90 0 c-59 -1 -91 3 -94 11 -9 26 -32 10 -32 -23 0 -25 -5 -35 -20 -39
-13 -3 -20 0 -20 9 0 8 7 11 18 8 14 -5 14 -4 2 4 -18 14 -30 6 -30 -19 0 -43
56 -11 63 36 3 21 4 15 6 -18 l1 -48 -54 2 c-53 2 -55 3 -59 33 l-4 31 -1 -32
c-1 -18 -5 -33 -9 -33 -5 0 -6 22 -5 50 3 41 1 50 -12 50 -9 0 -19 -8 -23 -17z
m207 -30 c0 -15 2 -16 10 -3 7 11 10 7 10 -17 0 -35 -17 -45 -26 -15 -3 9 -10
25 -15 35 -7 13 -5 17 6 17 8 0 15 -8 15 -17z m74 10 c10 -11 36 -12 36 -2 0
5 9 9 19 9 23 0 35 -26 15 -34 -9 -3 -14 1 -15 12 -1 16 -2 16 -6 0 -2 -10 -9
-18 -14 -18 -5 0 -9 -8 -10 -17 -1 -12 -4 -10 -9 7 -8 24 -8 24 -9 3 -1 -17
-7 -23 -25 -23 -21 0 -24 5 -24 35 0 27 4 35 17 35 10 0 21 -3 25 -7z m-97
-50 c-3 -10 -5 -4 -5 12 0 17 2 24 5 18 2 -7 2 -21 0 -30z m193 0 c0 -15 -2
-16 -10 -3 -6 10 -10 11 -10 3 0 -7 -9 -13 -20 -13 -25 0 -26 17 -2 23 33 9
42 7 42 -10z"/>
<path d="M2602 410 c0 -14 2 -19 5 -12 2 6 2 18 0 25 -3 6 -5 1 -5 -13z"/>
<path d="M550 443 c0 -14 2 -15 9 -4 5 8 18 12 30 8 12 -3 21 -1 21 4 0 5 -13
9 -30 9 -22 0 -30 -5 -30 -17z"/>
<path d="M1080 449 c0 -5 11 -9 25 -9 14 0 25 2 25 4 0 2 -11 6 -25 8 -14 3
-25 1 -25 -3z"/>
<path d="M1675 452 c-3 -3 -5 -18 -5 -33 0 -34 -17 -48 -22 -17 -2 13 -11 24
-20 26 -14 3 -18 -4 -19 -25 -1 -27 -1 -27 -8 -4 -7 25 -40 39 -42 18 0 -7 -4
-3 -9 8 -8 19 -9 19 -9 -3 -1 -19 3 -21 24 -16 20 5 25 2 25 -12 0 -16 -2 -17
-10 -4 -6 10 -10 11 -10 3 0 -7 -9 -13 -19 -13 -21 0 -37 32 -25 52 5 10 4 10
-6 1 -8 -7 -10 -22 -6 -37 6 -24 11 -26 56 -26 47 0 50 2 50 25 0 14 5 25 10
25 6 0 10 -11 10 -24 l0 -25 108 2 107 2 3 28 c2 15 8 27 13 27 5 0 9 6 9 14
0 11 -20 14 -100 14 -55 0 -102 -3 -105 -6z m55 -38 c0 -31 -3 -35 -22 -32
-39 5 -37 68 2 68 16 0 20 -6 20 -36z m57 -1 c-3 -10 -5 -4 -5 12 0 17 2 24 5
18 2 -7 2 -21 0 -30z m44 20 c1 -17 2 -17 6 0 2 9 12 17 21 17 11 0 13 -3 6
-8 -7 -4 -14 -18 -15 -31 -5 -29 -29 -40 -30 -14 -1 16 -2 16 -6 1 -3 -11 -14
-18 -29 -18 -16 0 -24 6 -25 18 0 14 -2 14 -9 -3 -7 -17 -9 -15 -9 13 -1 22 4
32 14 32 9 0 15 -9 15 -25 0 -16 6 -25 15 -25 9 0 15 9 15 23 0 37 29 54 31
20z"/>
<path d="M1691 414 c0 -11 3 -14 6 -6 3 7 2 16 -1 19 -3 4 -6 -2 -5 -13z"/>
<path d="M843 424 c-8 -21 13 -42 28 -27 13 13 5 43 -11 43 -6 0 -13 -7 -17
-16z m27 -8 c0 -3 -4 -8 -10 -11 -5 -3 -10 -1 -10 4 0 6 5 11 10 11 6 0 10 -2
10 -4z"/>
<path d="M926 432 c-3 -3 -6 -15 -6 -26 0 -18 -6 -21 -42 -21 -36 0 -43 3 -49
25 -7 23 -8 23 -6 -5 l2 -30 73 -2 72 -3 0 29 c0 20 -6 30 -19 34 -11 3 -22 2
-25 -1z m11 -39 c-3 -10 -5 -4 -5 12 0 17 2 24 5 18 2 -7 2 -21 0 -30z m20 -5
c-3 -7 -5 -2 -5 12 0 14 2 19 5 13 2 -7 2 -19 0 -25z"/>
<path d="M566 421 c-10 -15 18 -31 34 -19 12 8 12 9 -2 4 -10 -3 -20 -1 -23 4
-3 5 5 11 17 13 23 4 23 4 1 6 -12 0 -24 -3 -27 -8z"/>
<path d="M1103 423 c-37 -7 -28 -33 10 -32 l32 1 -30 8 c-24 6 -26 8 -7 9 12
0 22 6 22 11 0 6 -1 9 -2 9 -2 -1 -13 -4 -25 -6z"/>
<path d="M1331 414 c0 -11 3 -14 6 -6 3 7 2 16 -1 19 -3 4 -6 -2 -5 -13z"/>
<path d="M123 273 c-20 -7 -17 -113 2 -113 8 0 15 9 15 20 0 13 7 20 19 20 11
0 22 4 25 9 3 4 -7 6 -22 4 -23 -4 -24 -3 -9 7 9 6 17 15 17 20 0 15 -37 12
-44 -2 -3 -7 -5 -4 -3 7 3 27 41 32 59 8 7 -11 25 -19 42 -18 16 0 31 -6 34
-14 3 -9 0 -11 -9 -6 -11 6 -12 5 -1 -6 20 -21 15 -41 -10 -37 -13 2 -25 13
-30 28 -6 23 -7 23 -5 -5 l2 -30 143 -2 142 -2 0 24 c0 13 4 27 10 30 6 4 10
-7 10 -25 0 -26 3 -30 19 -25 14 4 19 1 17 -12 -1 -22 52 -32 58 -11 27 94 35
111 35 85 1 -16 -4 -37 -9 -48 -11 -19 -7 -19 85 -18 l96 1 -3 42 c-3 46 13
40 -138 46 -30 1 -88 1 -129 0 -52 -1 -76 2 -82 12 -7 11 -9 11 -9 0 0 -7 7
-20 15 -28 8 -9 15 -26 15 -40 0 -21 -5 -24 -34 -24 -30 0 -35 4 -38 27 -4 36
-26 41 -30 7 -5 -43 -26 -41 -30 3 l-3 38 -67 2 c-43 1 -76 7 -90 17 -23 16
-42 19 -65 9z m214 -73 c1 -33 1 -33 -5 -6 -9 39 -30 45 -34 10 -4 -40 -28
-43 -28 -4 0 18 4 29 10 25 6 -3 10 -1 10 5 0 6 10 10 23 8 18 -2 22 -10 24
-38z m263 26 c0 -6 5 -4 10 4 14 21 12 2 -4 -45 -10 -27 -20 -40 -33 -40 -12
0 -17 6 -15 19 3 14 -1 18 -17 13 -16 -4 -21 1 -23 22 -2 18 -9 26 -20 25 -10
-1 -18 1 -18 5 0 4 27 8 60 8 36 0 60 -5 60 -11z m132 3 c12 -7 18 -6 18 1 0
6 10 10 23 8 18 -2 22 -10 24 -38 1 -33 1 -33 -5 -6 -9 39 -30 45 -34 9 -3
-27 -6 -28 -62 -31 -51 -3 -58 -1 -52 13 3 9 6 25 6 34 0 21 51 27 82 10z
m-415 -46 c-3 -10 -5 -4 -5 12 0 17 2 24 5 18 2 -7 2 -21 0 -30z m80 0 c-3
-10 -5 -4 -5 12 0 17 2 24 5 18 2 -7 2 -21 0 -30z m380 0 c-3 -10 -5 -4 -5 12
0 17 2 24 5 18 2 -7 2 -21 0 -30z m-650 -5 c-3 -8 -6 -5 -6 6 -1 11 2 17 5 13
3 -3 4 -12 1 -19z"/>
<path d="M563 214 c-3 -8 2 -23 11 -32 15 -15 16 -14 16 16 0 33 -16 43 -27
16z m14 -16 c-3 -8 -6 -5 -6 6 -1 11 2 17 5 13 3 -3 4 -12 1 -19z"/>
<path d="M687 223 c-4 -3 -7 -15 -7 -25 0 -21 25 -24 33 -4 6 16 -16 40 -26
29z m18 -12 c3 -5 1 -12 -5 -16 -5 -3 -10 1 -10 9 0 18 6 21 15 7z"/>
<path d="M1200 273 c-8 -3 -18 -11 -22 -17 -12 -18 -9 -73 5 -84 6 -5 65 -10
130 -11 l117 -1 0 29 c0 20 -6 30 -19 34 -25 6 -31 0 -31 -30 0 -26 -25 -32
-34 -7 -9 24 -7 54 3 54 6 0 12 -15 14 -32 l4 -33 1 33 2 32 55 0 55 0 -1 -37
-2 -38 -7 35 -7 35 -3 -30 c-2 -30 -2 -30 -10 -5 -9 24 -9 24 -7 -5 2 -28 5
-30 50 -33 41 -3 47 -1 47 17 0 10 2 26 5 34 3 7 0 14 -8 14 -9 0 -12 -10 -9
-29 4 -23 1 -28 -17 -28 -18 0 -21 5 -20 43 l2 42 7 -35 c7 -31 7 -32 9 -7 1
23 5 27 29 27 25 0 27 -3 27 -37 l0 -38 71 -2 c71 -2 72 -2 77 25 10 51 -4 59
-100 61 -48 1 -97 3 -108 3 -11 1 -55 1 -97 0 -76 -2 -78 -3 -78 -26 0 -14 -4
-28 -10 -31 -6 -4 -10 7 -10 24 0 21 -5 31 -15 31 -9 0 -15 -9 -14 -22 0 -22
1 -22 9 -3 7 18 8 16 11 -10 3 -21 9 -30 22 -29 9 1 17 -1 17 -5 0 -4 -32 -7
-71 -7 -80 1 -97 13 -85 59 7 30 50 47 69 28 8 -8 3 -11 -20 -11 -19 0 -33 -6
-37 -16 -9 -22 11 -54 34 -54 22 0 27 25 8 33 -10 4 -9 6 1 6 8 1 19 -6 26
-15 9 -13 10 -9 7 22 -6 50 -27 64 -72 47z m32 -45 c-8 -8 -9 -15 -1 -25 7 -8
8 -13 1 -13 -15 0 -35 28 -27 40 3 5 14 10 23 10 12 0 13 -3 4 -12z m385 -8
c-3 -11 -1 -20 4 -20 5 0 9 7 9 15 0 8 3 14 8 13 4 0 15 2 25 7 25 11 48 -14
41 -43 -8 -29 -42 -29 -54 1 -6 16 -9 18 -9 5 -1 -21 -48 -35 -63 -20 -17 17
-1 62 23 62 16 0 20 -5 16 -20z m-220 -37 c-3 -10 -5 -4 -5 12 0 17 2 24 5 18
2 -7 2 -21 0 -30z m20 -5 c-3 -7 -5 -2 -5 12 0 14 2 19 5 13 2 -7 2 -19 0 -25z"/>
<path d="M1580 206 c0 -8 4 -17 9 -20 5 -4 7 3 4 14 -6 23 -13 26 -13 6z"/>
<path d="M1660 200 c0 -11 4 -20 9 -20 5 0 7 9 4 20 -3 11 -7 20 -9 20 -2 0
-4 -9 -4 -20z"/>
<path d="M430 259 c0 -11 -9 -14 -35 -11 -32 4 -35 2 -34 -19 1 -18 2 -20 6
-6 8 31 47 17 53 -18 6 -28 6 -27 12 15 4 24 5 47 2 49 -2 2 -4 -2 -4 -10z"/>
<path d="M854 246 c-3 -13 -4 -37 -2 -52 2 -24 8 -29 35 -32 29 -3 32 -1 36
30 l3 33 9 -33 c8 -32 8 -33 59 -30 48 3 51 5 57 33 l7 30 1 -32 c1 -31 3 -33
37 -33 l35 0 -3 43 -3 42 -104 2 c-58 2 -109 7 -115 13 -18 18 -45 11 -52 -14z
m41 4 c3 -5 26 -10 51 -10 25 0 54 -5 65 -10 13 -8 19 -7 19 0 0 7 17 10 43 8
40 -3 42 -4 44 -38 1 -33 1 -33 -5 -6 -6 23 -13 29 -39 31 -28 2 -32 -1 -35
-24 -3 -23 -8 -26 -45 -29 -43 -3 -49 3 -44 45 1 6 -6 10 -16 9 -11 -2 -19
-13 -21 -30 -3 -21 -8 -27 -25 -24 -24 3 -32 26 -23 64 7 25 20 31 31 14z
m202 -67 c-3 -10 -5 -4 -5 12 0 17 2 24 5 18 2 -7 2 -21 0 -30z m-20 -5 c-3
-7 -5 -2 -5 12 0 14 2 19 5 13 2 -7 2 -19 0 -25z"/>
<path d="M967 223 c-4 -3 -7 -15 -7 -25 0 -21 25 -24 33 -4 6 16 -16 40 -26
29z m18 -12 c3 -5 1 -12 -5 -16 -5 -3 -10 1 -10 9 0 18 6 21 15 7z"/>
<path d="M892 200 c0 -14 2 -19 5 -12 2 6 2 18 0 25 -3 6 -5 1 -5 -13z"/>
<path d="M220 200 c0 -11 4 -20 9 -20 5 0 7 9 4 20 -3 11 -7 20 -9 20 -2 0 -4
-9 -4 -20z"/>
<path d="M1727 183 c-4 -3 -7 -15 -7 -25 0 -26 24 -17 28 10 3 21 -8 29 -21
15z m10 -25 c-3 -8 -6 -5 -6 6 -1 11 2 17 5 13 3 -3 4 -12 1 -19z"/>
<path d="M1800 175 c0 -8 7 -15 15 -15 8 0 15 4 15 8 0 5 18 8 40 7 22 -1 40
2 40 7 0 4 -25 8 -55 8 -42 0 -55 -3 -55 -15z"/>
</g>
</defs>
<mask id="mp84504">
  <use xlink:href="#gp84504" fill="white" />
</mask>
<use xlink:href="#gp84504" data-mask="url(#mp84504)" data-stroke="black" stroke-width="20px" fill="black"/>
</svg>
