<?xml version="1.0" standalone="no"?>
<!DOCTYPE svg PUBLIC "-//W3C//DTD SVG 20010904//EN"
 "http://www.w3.org/TR/2001/REC-SVG-20010904/DTD/svg10.dtd">
<svg class="Potrace" xmlns:xlink="http://www.w3.org/1999/xlink" version="1.0" xmlns="http://www.w3.org/2000/svg"
 width="319.000000pt" height="162.000000pt" viewBox="0 0 319.000000 162.000000"
 preserveAspectRatio="xMidYMid meet">
<defs>
  <g id="gp70368" transform="translate(0.000000,162.000000) scale(0.100000,-0.100000)"
>
<path d="M130 1557 c-51 -17 -85 -87 -71 -147 12 -53 44 -87 92 -100 100 -27
180 47 166 152 -6 46 -29 75 -74 94 -39 17 -66 17 -113 1z m117 -17 c49 -30
66 -63 60 -116 -5 -51 -24 -75 -74 -99 -45 -22 -96 -9 -135 32 -36 40 -42 85
-17 134 33 65 105 86 166 49z"/>
<path d="M164 1522 c-15 -10 -28 -61 -25 -99 2 -27 -1 -33 -18 -33 -11 0 -23
-5 -27 -11 -4 -8 0 -9 15 -4 14 4 23 1 27 -9 7 -17 69 -23 78 -8 3 5 8 38 12
73 5 54 3 68 -11 82 -18 18 -33 21 -51 9z m46 -17 c8 -9 10 -29 6 -52 -3 -21
-7 -49 -8 -63 -2 -19 -10 -26 -29 -28 -25 -3 -27 0 -31 45 -3 26 -3 54 0 61 5
15 42 16 42 1 0 -5 5 -7 10 -4 17 10 11 21 -11 22 -26 2 -33 8 -24 22 9 16 30
14 45 -4z"/>
<path d="M586 1552 c-2 -4 -43 -7 -90 -6 -47 1 -86 -2 -86 -7 0 -5 7 -6 15 -3
11 5 14 1 9 -12 -5 -16 -4 -16 5 -4 9 12 12 13 20 1 5 -8 10 -9 12 -2 2 6 19
13 36 17 26 5 34 3 39 -11 10 -25 -6 -30 -90 -27 -68 3 -76 6 -76 23 0 11 5
17 10 14 6 -3 10 -1 10 4 0 6 -7 11 -15 11 -10 0 -15 -10 -15 -29 l0 -29 79
-4 c103 -4 111 -2 112 30 1 21 2 23 6 7 10 -38 19 -40 160 -38 76 1 141 2 146
2 4 1 7 14 7 31 l0 30 -60 -7 c-36 -3 -65 -2 -72 5 -15 12 -155 16 -162 4z
m95 -19 c1 -17 2 -17 6 0 5 19 48 24 59 6 4 -7 29 -10 66 -7 54 4 59 3 56 -16
-4 -25 -28 -34 -28 -9 0 15 -2 16 -10 3 -9 -13 -10 -13 -10 0 0 13 -2 13 -9 1
-13 -20 -66 -18 -88 4 -16 16 -18 17 -21 3 -4 -21 -91 -30 -111 -12 -23 21 4
44 50 44 30 0 39 -4 40 -17z"/>
<path d="M600 1520 c0 -5 5 -10 11 -10 5 0 7 5 4 10 -3 6 -8 10 -11 10 -2 0
-4 -4 -4 -10z"/>
<path d="M923 1552 c-11 -7 -16 -25 -14 -52 1 -13 39 -15 293 -12 343 3 307 3
338 0 21 -3 25 2 28 27 l3 31 -63 1 c-97 3 -149 3 -348 0 -102 -1 -194 2 -205
5 -11 4 -25 4 -32 0z m237 -15 c385 4 402 3 398 -21 -4 -25 -28 -33 -28 -9 0
15 -2 16 -10 3 -9 -13 -10 -13 -10 0 0 12 -2 13 -9 1 -8 -13 -53 -15 -261 -13
-36 0 -121 0 -190 -1 -69 -1 -128 2 -132 7 -12 17 12 48 30 40 9 -5 105 -8
212 -7z"/>
<path d="M1807 1553 c-12 -20 6 -63 29 -69 39 -10 56 2 52 38 -3 30 -6 33 -40
36 -20 2 -38 -1 -41 -5z m32 -25 c1 33 36 25 36 -8 0 -35 -41 -41 -54 -8 -5
13 -6 27 -3 33 3 5 9 -1 13 -15 7 -25 7 -25 8 -2z"/>
<path d="M377 1444 c-9 -10 -9 -64 1 -65 14 -1 79 -1 185 0 l107 1 0 28 0 29
-102 -1 c-57 0 -121 3 -143 7 -22 5 -44 5 -48 1z m69 -14 c16 0 24 -6 24 -17
0 -11 3 -14 8 -7 11 17 50 23 83 14 18 -6 27 -5 23 1 -6 10 37 6 55 -5 5 -4
12 0 14 6 3 7 6 3 6 -9 1 -22 -2 -23 -91 -23 -51 0 -113 -1 -137 -3 -45 -2
-59 9 -47 39 4 10 12 14 22 10 9 -3 27 -6 40 -6z"/>
<path d="M1046 1443 c-11 -12 -6 -51 8 -62 9 -7 25 -9 43 -4 15 4 36 6 46 4
16 -2 17 2 11 21 -4 13 -7 28 -7 33 0 11 -91 17 -101 8z m42 -25 c16 20 19 21
37 8 11 -9 16 -16 10 -16 -5 0 -3 -5 5 -11 13 -9 13 -10 0 -6 -8 2 -26 0 -39
-5 -29 -10 -51 5 -50 36 0 19 1 19 10 -4 l10 -25 17 23z m-11 0 c-3 -8 -6 -5
-6 6 -1 11 2 17 5 13 3 -3 4 -12 1 -19z"/>
<path d="M1410 1441 c0 -6 -9 -11 -20 -11 -15 0 -20 -7 -20 -24 0 -23 4 -25
53 -28 28 -2 80 -1 115 0 57 3 62 6 62 27 0 20 -6 23 -67 28 -38 4 -80 9 -95
13 -18 4 -28 2 -28 -5z m113 -18 c47 -4 67 -10 67 -19 0 -8 -9 -14 -20 -14
-11 0 -20 6 -20 13 0 9 -2 9 -8 1 -13 -21 -162 -22 -162 -1 0 16 40 36 60 30
8 -2 45 -7 83 -10z"/>
<path d="M1624 1419 c3 -18 8 -34 10 -36 9 -9 102 -12 116 -3 11 7 12 15 4 37
-9 26 -13 28 -73 31 l-64 3 7 -32z m116 1 c6 -11 8 -25 5 -30 -8 -13 -45 -8
-45 8 0 7 5 10 10 7 6 -3 10 1 10 9 0 10 -6 13 -15 10 -8 -4 -15 -12 -15 -19
0 -8 -5 -17 -10 -20 -7 -4 -9 3 -5 22 5 25 4 26 -4 6 -10 -23 -31 -32 -31 -14
0 5 -3 16 -6 25 -5 13 2 16 45 16 40 0 52 -4 61 -20z"/>
<path d="M2550 1442 c0 -5 -66 -8 -147 -7 -218 1 -263 -3 -263 -27 0 -10 7
-21 15 -24 8 -3 117 -7 244 -7 l230 -2 4 23 c3 17 -2 26 -24 37 -31 16 -59 20
-59 7z m45 -14 c15 -7 25 -19 24 -32 0 -21 -1 -21 -9 -1 -5 11 -9 14 -9 7 -1
-17 -121 -14 -121 2 0 7 -3 7 -8 0 -6 -11 -100 -19 -169 -15 -44 2 -25 29 25
35 53 7 195 1 210 -8 6 -3 12 1 16 9 7 18 8 18 41 3z m-327 -20 c-3 -20 -8
-22 -53 -19 -27 1 -53 5 -57 7 -20 13 -4 23 40 27 26 2 53 4 60 5 8 1 12 -6
10 -20z"/>
<path d="M2251 1404 c0 -11 3 -14 6 -6 3 7 2 16 -1 19 -3 4 -6 -2 -5 -13z"/>
<path d="M690 1410 c0 -16 4 -30 10 -32 5 -1 57 -2 115 0 97 3 105 5 105 23 0
25 -5 27 -127 33 l-103 5 0 -29z m208 5 c6 -2 12 -9 12 -15 0 -15 -40 -12 -41
3 0 10 -2 10 -6 0 -2 -7 -11 -13 -19 -13 -8 0 -14 6 -15 13 0 10 -2 10 -6 0
-2 -7 -13 -13 -24 -13 -10 0 -19 6 -19 13 0 7 -3 8 -8 2 -4 -5 -11 -11 -17
-12 -5 0 -19 -3 -30 -5 -14 -2 -21 3 -23 18 -3 20 0 21 90 17 51 -2 99 -6 106
-8z"/>
<path d="M1180 1408 c0 -24 3 -26 52 -30 29 -2 69 -2 89 0 34 4 36 6 30 30 -7
26 -9 27 -89 27 l-82 0 0 -27z m93 -2 c6 -7 7 -4 3 7 -5 15 -1 18 26 15 21 -2
34 -9 36 -20 4 -19 -32 -26 -105 -19 -34 2 -43 7 -43 21 0 16 6 18 38 13 20
-3 41 -11 45 -17z"/>
<path d="M1775 1413 c3 -15 7 -29 8 -30 2 -2 88 -5 105 -4 9 1 19 50 10 51 -2
1 -32 3 -67 6 l-64 6 8 -29z m110 -9 c0 -16 -7 -18 -45 -15 -41 3 -59 13 -60
34 0 4 24 6 53 4 43 -4 52 -8 52 -23z"/>
<path d="M1926 1432 c-4 -3 -6 -16 -6 -29 0 -22 3 -23 80 -25 44 -1 88 -2 98
-2 11 -1 18 8 20 27 3 22 -1 27 -20 28 -13 0 -55 2 -95 4 -40 1 -74 0 -77 -3z
m167 -11 c12 -1 17 -7 15 -18 -2 -10 -11 -16 -19 -14 -8 1 -47 2 -86 2 -55 -1
-73 2 -73 12 0 8 2 16 5 19 4 4 67 4 158 -1z"/>
<path d="M2652 1413 l3 -28 155 0 155 0 3 26 3 26 -128 -1 c-128 -2 -153 -7
-153 -29 0 -7 4 -6 10 3 7 11 35 15 135 15 108 1 125 -1 123 -15 -4 -20 -137
-28 -149 -8 -7 11 -9 11 -9 0 0 -10 -17 -12 -67 -10 -54 2 -68 6 -71 20 -2 9
5 18 15 21 14 4 13 5 -5 6 -20 1 -23 -3 -20 -26z"/>
<path d="M940 1405 c0 -23 4 -25 45 -25 45 0 50 5 39 34 -4 11 -19 16 -45 16
-35 0 -39 -3 -39 -25z m78 -2 c2 -9 -8 -13 -32 -13 -26 0 -36 4 -36 16 0 19
61 16 68 -3z"/>
<path d="M1570 1338 c-19 -6 -56 -8 -82 -4 -48 5 -48 5 -48 -24 0 -30 0 -30
63 -32 34 -1 80 0 101 1 22 2 49 -3 62 -9 33 -18 56 -6 52 27 -3 25 -7 28 -48
31 -24 2 -49 7 -55 11 -5 5 -26 4 -45 -1z m86 -18 c47 0 68 -20 45 -43 -8 -8
-15 -7 -27 4 -11 12 -25 14 -52 9 -20 -3 -67 -4 -104 -2 -55 3 -68 8 -68 21 0
13 12 16 75 15 48 -1 75 3 76 10 0 7 3 6 6 -1 3 -8 23 -13 49 -13z"/>
<path d="M2224 1336 c-3 -8 -4 -25 -2 -38 l3 -23 184 2 c101 1 185 4 188 6 2
3 1 16 -3 31 -7 28 -39 38 -109 34 -38 -3 -40 -5 -38 -33 2 -24 1 -26 -6 -10
-8 20 -8 20 -12 0 -4 -17 -12 -20 -67 -20 -61 0 -62 0 -62 27 0 26 2 27 48 24
26 -2 56 0 66 4 10 3 -13 7 -53 7 l-71 0 0 -33 c0 -30 -3 -33 -27 -31 -23 2
-28 7 -28 27 0 18 5 25 18 24 9 -1 17 2 17 7 0 15 -40 10 -46 -5z m322 -2 c37
-5 57 -44 23 -44 -10 0 -19 7 -19 15 0 8 -7 15 -15 15 -8 0 -15 -6 -15 -14 0
-20 -12 -26 -38 -19 -19 5 -30 32 -17 44 6 7 45 8 81 3z"/>
<path d="M370 1308 l0 -28 81 0 c44 0 90 -5 101 -11 15 -8 26 -8 44 1 15 9 48
11 96 8 40 -3 79 -3 86 -1 18 7 15 43 -5 50 -9 4 -104 7 -210 7 l-193 1 0 -27z
m401 5 c6 -6 8 -17 3 -24 -5 -9 -9 -8 -15 7 -7 17 -8 17 -8 1 -1 -14 -6 -17
-23 -11 -13 4 -38 6 -55 6 -20 -1 -33 3 -33 11 0 8 -4 7 -10 -3 -8 -12 -10
-12 -10 5 0 18 7 20 70 20 39 0 74 -5 81 -12z m-161 -6 c0 -19 -34 -37 -51
-26 -8 5 -51 9 -96 9 -67 0 -83 3 -83 15 0 12 19 15 115 15 86 0 115 -3 115
-13z"/>
<path d="M843 1333 c-27 -4 -33 -9 -33 -29 0 -22 4 -24 50 -26 28 -1 58 -2 68
-2 11 -1 18 8 20 25 3 22 -2 27 -29 33 -17 3 -34 5 -38 4 -3 0 -21 -3 -38 -5z
m96 -18 c2 -2 1 -11 -2 -19 -5 -11 -15 -13 -44 -9 -21 3 -41 11 -45 17 -5 8
-8 7 -8 -1 0 -7 -4 -13 -10 -13 -5 0 -10 6 -10 14 0 21 100 30 119 11z"/>
<path d="M970 1311 c0 -38 4 -40 68 -34 46 5 52 8 52 28 0 18 -7 24 -37 29
-73 12 -83 9 -83 -23z m73 13 c44 -8 52 -35 10 -34 -16 1 -37 0 -48 -2 -14 -2
-21 3 -23 20 -4 24 2 25 61 16z"/>
<path d="M1127 1328 c-6 -4 -14 -5 -17 -3 -10 6 -6 -39 5 -47 15 -11 227 0
235 12 5 8 9 5 12 -7 7 -27 58 -30 58 -3 0 11 -5 20 -11 20 -5 0 -8 4 -4 9 3
5 0 13 -7 18 -16 9 -255 11 -271 1z m155 -5 c47 11 108 1 108 -18 0 -8 -4 -17
-10 -20 -5 -3 -10 0 -10 8 0 23 -27 28 -33 7 -4 -16 -10 -17 -40 -10 -20 4
-39 5 -42 1 -11 -10 -124 -10 -131 0 -13 22 15 35 68 29 29 -3 70 -1 90 3z
m128 -43 c0 -5 -5 -10 -11 -10 -5 0 -7 5 -4 10 3 6 8 10 11 10 2 0 4 -4 4 -10z"/>
<path d="M1730 1315 c0 -18 7 -28 27 -36 35 -13 53 -5 53 24 0 19 -7 26 -31
31 -47 9 -49 8 -49 -19z m48 9 c23 -6 30 -28 12 -39 -14 -9 -50 13 -50 30 0
17 5 18 38 9z"/>
<path d="M2008 1332 c-107 -3 -108 -3 -108 -27 0 -24 3 -25 63 -26 34 -1 76
-1 92 -1 156 2 145 0 145 26 0 21 -5 24 -42 27 -24 2 -91 3 -150 1z m182 -27
c0 -15 -3 -15 -135 -17 -109 -2 -145 2 -145 17 0 13 22 15 140 15 118 0 140
-2 140 -15z"/>
<path d="M2610 1320 c1 -38 15 -42 136 -42 196 0 184 -1 184 27 l0 25 -107 1
c-60 0 -132 2 -160 2 -41 2 -53 -1 -53 -13z m215 -1 c73 -1 95 -5 95 -15 0
-15 -25 -18 -100 -14 -25 1 -48 7 -52 14 -6 8 -8 8 -8 -1 0 -6 -12 -14 -27
-17 -36 -7 -104 6 -104 19 0 10 66 25 88 19 7 -2 55 -4 108 -5z"/>
<path d="M1836 1315 c-11 -28 -7 -35 20 -35 21 0 25 4 22 22 -4 27 -33 36 -42
13z m34 -16 c0 -5 -7 -9 -15 -9 -15 0 -20 12 -9 23 8 8 24 -1 24 -14z"/>
<path d="M2950 1305 c0 -22 4 -25 34 -25 38 0 49 10 40 34 -4 10 -18 16 -40
16 -30 0 -34 -3 -34 -25z m61 0 c0 -5 -12 -11 -26 -13 -18 -2 -25 1 -25 13 0
12 7 15 25 13 14 -2 26 -7 26 -13z"/>
<path d="M372 1208 c3 -33 4 -33 56 -33 52 0 52 0 49 30 -3 26 -8 30 -35 33
-28 3 -32 0 -31 -20 1 -17 3 -18 6 -5 2 9 14 17 25 17 14 0 18 -5 14 -16 -3
-8 -2 -12 4 -9 6 3 10 2 10 -3 0 -11 -69 -24 -82 -16 -4 3 -8 15 -7 27 0 21 1
21 9 2 8 -19 9 -19 9 3 1 14 -5 22 -15 22 -11 0 -14 -8 -12 -32z"/>
<path d="M600 1230 c-94 -5 -95 -5 -98 -32 l-3 -27 188 2 c103 1 194 6 201 10
6 5 12 17 12 28 0 16 -8 19 -47 21 -106 3 -162 3 -253 -2z m248 -9 c32 -1 42
-5 42 -17 0 -10 -6 -14 -15 -11 -8 4 -17 3 -19 -2 -3 -4 -82 -8 -176 -8 -153
-1 -171 1 -168 16 3 13 18 16 90 17 48 0 90 2 92 5 3 2 29 4 58 3 29 -1 72 -3
96 -3z"/>
<path d="M980 1231 c-50 -5 -55 -8 -55 -30 0 -24 3 -25 68 -26 37 -1 67 2 67
7 0 5 8 5 18 0 9 -5 97 -9 195 -9 l177 0 0 28 c0 28 -1 29 -57 31 -32 1 -83 2
-113 4 -30 1 -61 -1 -69 -6 -7 -4 -33 -3 -57 1 -54 10 -74 4 -75 -25 -1 -19
-2 -18 -8 4 -8 28 -14 29 -91 21z m77 -34 c-7 -19 -122 -16 -122 4 0 10 17 16
55 19 59 6 76 0 67 -23z m126 19 c20 -2 39 -1 41 3 3 4 24 6 48 6 24 -1 71 -3
106 -3 52 -2 62 -5 62 -20 0 -16 -14 -17 -172 -17 -136 0 -172 3 -176 14 -5
16 14 30 37 25 9 -2 33 -5 54 -8z"/>
<path d="M1956 1233 c-3 -4 -24 -6 -46 -5 -38 3 -40 1 -40 -26 l0 -30 115 1
115 1 0 27 c0 24 -5 28 -37 32 -58 8 -99 8 -107 0z m117 -11 c9 -1 17 -10 17
-20 0 -15 -12 -17 -105 -19 -97 -1 -105 1 -105 18 0 14 7 19 25 19 14 0 25 -6
25 -12 0 -9 4 -8 10 2 5 8 10 11 10 6 0 -6 4 -6 10 0 9 9 51 11 113 6z"/>
<path d="M1475 1220 c-3 -6 -4 -18 -1 -28 5 -16 21 -17 166 -16 88 1 163 -2
166 -7 3 -5 14 -9 25 -9 15 0 19 7 19 35 l0 35 -184 0 c-114 0 -187 -4 -191
-10z m365 -25 c0 -26 -14 -33 -26 -14 -4 8 -26 10 -65 5 -35 -3 -61 -2 -64 4
-4 6 -11 8 -16 4 -12 -7 -178 -9 -185 -1 -21 21 20 27 182 27 l174 0 0 -25z"/>
<path d="M2120 1213 c0 -34 14 -42 60 -37 57 7 49 7 158 0 l92 -6 0 30 0 30
-155 0 c-141 0 -155 -2 -155 -17z m230 -13 c0 -20 -4 -21 -47 -14 -27 3 -54
10 -62 14 -8 5 -20 2 -27 -5 -19 -18 -78 -13 -82 7 -3 14 11 16 107 17 106 1
111 1 111 -19z m70 2 c0 -13 -8 -18 -30 -17 -22 0 -30 5 -30 17 0 13 8 18 30
18 22 0 30 -5 30 -18z"/>
<path d="M451 1001 c-23 -23 -27 -61 -9 -79 22 -22 66 -14 85 14 15 24 15 29
2 53 -19 33 -52 38 -78 12z m65 -12 c20 -22 13 -43 -19 -63 -42 -26 -76 40
-35 68 29 20 31 20 54 -5z"/>
<path d="M1042 1001 c-8 -5 -12 -22 -10 -42 3 -30 7 -34 35 -37 23 -2 34 2 42
17 24 44 -24 89 -67 62z m53 -17 c9 -9 14 -21 12 -27 -6 -18 -33 -31 -51 -24
-19 7 -22 53 -3 60 20 9 25 8 42 -9z"/>
<path d="M567 986 c-3 -8 -3 -24 0 -36 5 -21 10 -22 87 -18 78 4 81 5 81 29 0
22 -4 24 -41 23 -51 -1 -77 -11 -68 -25 5 -8 9 -8 14 1 12 19 84 19 87 0 5
-23 -142 -28 -151 -5 -9 24 2 37 26 29 14 -4 18 -2 14 5 -10 16 -43 14 -49 -3z"/>
<path d="M762 968 l3 -33 123 -3 122 -3 0 36 c0 34 -20 49 -35 25 -8 -12 -123
-11 -131 1 -3 5 -23 9 -45 9 -39 0 -40 -1 -37 -32z m140 6 c33 -3 66 -1 78 6
18 9 20 8 20 -15 l0 -25 -112 3 c-110 2 -113 3 -116 26 -4 22 -1 23 35 17 21
-4 64 -9 95 -12z"/>
<path d="M1156 993 c-9 -9 -7 -63 2 -63 4 0 8 12 7 27 0 26 3 28 48 29 30 1
53 -4 63 -13 7 -8 14 -11 14 -6 0 4 18 9 40 11 31 2 41 -2 50 -18 6 -11 17
-20 24 -20 7 0 27 -7 45 -16 27 -14 37 -14 64 -3 19 8 71 14 127 14 l95 0 0
30 c0 22 -4 29 -15 26 -31 -10 -130 -10 -135 -1 -4 6 -24 10 -46 10 -32 0 -39
-3 -39 -19 0 -37 -43 -37 -53 0 -7 28 -27 23 -27 -6 0 -31 -25 -34 -33 -4 -5
18 -11 20 -56 16 -28 -3 -53 -1 -56 3 -6 10 -110 12 -119 3z m316 -51 c14 -2
29 2 33 8 3 5 12 7 18 4 8 -5 8 -3 0 7 -22 23 -14 31 25 25 83 -14 142 -17
162 -6 18 9 20 8 20 -16 l0 -27 -82 5 c-53 3 -99 1 -127 -8 -58 -17 -91 -5
-90 33 1 28 1 28 8 3 4 -18 14 -26 33 -28z"/>
<path d="M1972 968 c3 -30 6 -33 41 -36 36 -3 37 -3 37 32 0 35 -1 36 -41 36
-39 0 -40 -1 -37 -32z m27 2 l2 25 15 -25 c14 -23 14 -23 9 -2 -4 13 -2 22 4
22 6 0 11 -12 11 -26 0 -22 -4 -25 -27 -22 -22 2 -28 9 -30 28 l-2 25 8 -25 9
-25 1 25z"/>
<path d="M443 869 c-5 -5 -8 -22 -5 -38 l4 -29 81 -1 c84 -2 99 5 90 40 -7 24
-30 31 -68 21 -19 -6 -41 -4 -61 4 -20 9 -34 10 -41 3z m94 -23 c18 -1 34 3
36 8 2 5 11 1 21 -9 25 -26 7 -37 -55 -33 -47 3 -54 6 -52 23 2 18 1 18 -9 -2
-14 -30 -25 -29 -30 2 -7 32 -1 36 31 23 14 -5 41 -11 58 -12z"/>
<path d="M2761 862 c-12 -22 -4 -59 12 -64 7 -2 57 -1 112 2 99 5 100 5 100
30 0 18 -6 25 -20 26 -11 0 -42 4 -70 8 -125 17 -124 17 -134 -2z m69 -4 c8 1
36 -2 63 -4 37 -5 47 -10 47 -24 0 -16 -9 -18 -60 -19 -34 0 -69 -3 -80 -6
-26 -8 -47 29 -29 51 7 9 19 12 28 8 9 -3 23 -6 31 -6z m145 -28 c0 -7 -6 -15
-12 -17 -8 -3 -13 4 -13 17 0 13 5 20 13 18 6 -3 12 -11 12 -18z"/>
<path d="M632 835 l3 -30 109 -2 c59 -1 111 -4 114 -7 13 -14 42 -5 42 12 0
41 -29 51 -153 54 l-118 3 3 -30z m69 -4 c1 -14 2 -13 6 2 6 24 138 25 165 0
10 -9 18 -20 18 -25 0 -13 -17 -9 -34 8 -9 9 -16 11 -16 4 0 -8 -30 -11 -100
-9 -95 2 -100 4 -100 24 0 18 5 21 30 17 19 -3 30 -10 31 -21z"/>
<path d="M1110 861 c-18 -5 -26 -15 -28 -35 -3 -26 -2 -27 35 -24 35 3 38 6
41 36 3 34 -1 36 -48 23z m36 -36 c-3 -8 -17 -15 -31 -15 -35 0 -30 32 5 40
27 7 35 -2 26 -25z"/>
<path d="M1180 835 l0 -35 113 1 c61 1 120 -2 130 -6 9 -4 28 -4 41 -1 13 3
103 6 200 6 l177 1 -3 27 -3 27 -247 2 c-246 2 -247 2 -254 -20 l-7 -22 -8 23
c-8 20 -13 22 -43 17 -20 -4 -36 -2 -40 4 -4 6 -18 11 -32 11 -21 0 -24 -5
-24 -35z m90 11 c24 -1 35 -6 35 -16 0 -11 -14 -15 -57 -17 -56 -1 -58 -1 -58
24 0 22 3 24 23 18 12 -4 38 -8 57 -9z m352 -15 c6 -14 7 -13 7 2 1 16 11 17
98 15 86 -3 98 -5 101 -21 3 -15 -2 -18 -25 -15 -15 1 -31 7 -35 13 -5 6 -8 5
-8 -2 0 -9 -35 -12 -137 -12 -76 0 -150 -2 -164 -6 -16 -4 -30 -2 -34 4 -4 7
-20 9 -40 5 -33 -6 -52 6 -40 26 3 5 62 9 138 8 110 -1 133 -4 139 -17z"/>
<path d="M2208 864 c-3 -3 -77 -6 -164 -6 -88 -1 -165 -5 -171 -11 -7 -5 -13
-18 -13 -28 0 -20 11 -22 100 -22 25 1 98 1 163 2 l117 1 0 35 c0 32 -15 46
-32 29z m22 -30 c0 -25 -1 -25 -70 -23 -43 1 -70 6 -70 13 0 7 -3 6 -8 -2 -9
-13 -195 -22 -207 -11 -3 4 -3 13 0 21 5 12 36 15 171 16 92 0 169 3 172 6 10
10 12 6 12 -20z"/>
<path d="M2267 864 c-4 -4 -7 -19 -7 -34 0 -24 5 -28 37 -33 44 -8 53 -3 53
27 0 16 -7 25 -22 29 -13 2 -30 7 -39 11 -8 4 -18 3 -22 0z m71 -43 c-2 -8 -6
-14 -10 -13 -5 1 -19 2 -33 2 -20 0 -25 5 -25 24 0 23 2 24 35 13 23 -7 35
-16 33 -26z"/>
<path d="M2382 861 c-8 -4 -12 -19 -10 -32 3 -22 8 -24 61 -26 58 -3 58 -2 55
25 -2 20 -9 27 -25 27 -11 0 -25 3 -29 8 -10 9 -36 9 -52 -2z m76 -13 c15 0
22 -6 22 -19 0 -21 -20 -25 -38 -7 -7 7 -12 8 -12 2 0 -13 -38 -15 -46 -3 -12
20 5 42 29 34 12 -4 32 -7 45 -7z"/>
<path d="M927 854 c-4 -4 -7 -17 -7 -30 0 -21 4 -22 71 -22 70 0 70 1 67 27
-3 24 -7 26 -63 29 -34 1 -64 0 -68 -4z m121 -27 c4 -20 -18 -23 -36 -5 -9 9
-12 9 -12 -3 0 -12 -2 -12 -10 1 -6 10 -10 11 -10 3 0 -7 -11 -13 -25 -13 -24
0 -33 18 -18 34 4 4 30 5 58 3 37 -2 51 -8 53 -20z"/>
<path d="M2508 833 l-4 -28 116 0 115 0 0 25 c0 25 0 25 -111 28 l-112 3 -4
-28z m42 2 c0 -8 -7 -15 -15 -15 -8 0 -15 7 -15 15 0 8 7 15 15 15 8 0 15 -7
15 -15z m175 -5 c0 -12 -16 -15 -80 -15 -69 0 -80 2 -83 18 -4 17 3 19 80 15
65 -2 83 -6 83 -18z"/>
<path d="M2090 760 c-8 -6 -34 -7 -57 -4 -43 6 -43 6 -43 -25 l0 -31 69 0 c72
0 81 6 81 51 0 21 -25 25 -50 9z m40 -9 c0 -33 -14 -41 -71 -41 -53 0 -59 2
-59 20 0 19 4 20 38 14 20 -4 41 -12 45 -18 6 -7 7 -5 4 6 -6 16 5 26 31 27 6
1 12 -3 12 -8z"/>
<path d="M2192 763 c-29 -6 -45 -35 -29 -56 18 -24 64 -11 71 19 7 25 1 45
-12 43 -4 -1 -17 -4 -30 -6z m38 -20 c-1 -26 -49 -51 -61 -32 -13 21 2 39 32
39 16 0 29 -3 29 -7z"/>
<path d="M2538 765 c-3 -3 -30 -7 -62 -10 -65 -5 -76 -10 -76 -34 0 -26 37
-30 210 -26 80 3 166 4 193 5 43 0 47 2 47 25 0 14 -3 26 -7 26 -5 1 -65 3
-135 4 -71 1 -131 5 -135 8 -8 8 -28 9 -35 2z m64 -17 c20 2 28 -2 28 -14 0
-14 2 -14 15 0 23 23 189 17 193 -7 3 -13 -4 -17 -35 -16 -21 0 -115 -1 -210
-3 -94 -2 -175 0 -179 5 -15 15 15 29 72 33 32 2 60 6 62 9 3 2 10 1 16 -2 6
-4 23 -6 38 -5z"/>
<path d="M430 731 c0 -23 5 -30 27 -34 36 -7 58 4 58 28 0 26 -13 35 -52 35
-30 0 -33 -3 -33 -29z m67 3 c8 -21 -8 -34 -35 -28 -32 9 -30 44 3 44 14 0 28
-7 32 -16z"/>
<path d="M558 752 c-22 -3 -28 -9 -28 -28 0 -22 4 -24 53 -25 28 0 66 -2 82
-3 40 -4 75 10 75 29 0 12 -4 11 -19 -4 -15 -15 -28 -18 -63 -14 -23 3 -60 5
-80 4 -27 0 -38 4 -38 14 0 16 0 16 115 21 104 4 165 -4 165 -22 0 -21 -57
-18 -63 4 -4 13 -5 11 -6 -5 -1 -20 4 -23 39 -23 35 0 40 3 40 24 0 21 -6 24
-47 29 -50 6 -177 5 -225 -1z"/>
<path d="M852 733 l3 -28 103 -3 102 -3 0 26 c0 21 -5 25 -27 25 -16 0 -63 3
-106 5 l-78 5 3 -27z m176 7 c13 0 22 -6 22 -15 0 -11 -11 -15 -40 -15 -25 0
-40 5 -40 13 0 9 -2 9 -8 0 -4 -7 -26 -11 -52 -10 -34 2 -46 6 -48 19 -3 16 4
17 70 13 40 -2 83 -5 96 -5z"/>
<path d="M1100 750 c-8 -5 -17 -7 -21 -4 -4 2 -2 -7 4 -21 11 -23 17 -25 83
-25 39 0 86 -3 103 -6 36 -8 41 6 12 37 -14 15 -35 21 -92 24 -41 2 -81 0 -89
-5z m160 -12 c0 -4 8 -14 17 -24 17 -17 16 -17 -12 -10 -16 4 -33 13 -37 19
-6 9 -8 9 -8 0 0 -9 -17 -13 -50 -13 -33 0 -50 4 -50 13 0 8 -4 7 -10 -3 -8
-13 -10 -13 -10 2 0 9 6 18 13 21 19 7 147 3 147 -5z"/>
<path d="M1333 753 c-7 -3 -13 -16 -13 -29 0 -22 4 -24 58 -25 31 -1 73 0 92
0 77 2 156 0 172 -5 10 -3 21 3 28 16 22 42 12 45 -161 46 -90 0 -170 -1 -176
-3z m337 -18 c-1 -24 -18 -31 -67 -27 -41 3 -53 8 -54 20 0 14 -2 13 -9 -3 -7
-17 -9 -17 -9 -2 -1 16 -2 16 -19 -1 -12 -12 -29 -17 -57 -14 -22 2 -59 3 -82
3 -39 0 -55 13 -38 31 10 10 335 4 335 -7z"/>
<path d="M1694 743 c-2 -7 -6 -20 -9 -28 -3 -11 4 -15 28 -16 18 -1 38 -1 44
0 7 1 31 -3 54 -9 30 -8 45 -8 52 -1 6 6 25 12 42 12 l30 1 -30 7 c-19 5 -35
3 -43 -4 -10 -9 -25 -10 -55 -3 -22 5 -46 7 -53 4 -8 -3 -16 -1 -19 4 -3 5
-13 6 -21 3 -12 -4 -15 -1 -12 13 3 15 11 18 38 17 52 -4 70 -3 123 3 66 8 97
-1 96 -29 0 -21 -1 -21 -9 -2 -8 19 -9 19 -9 -2 -1 -32 25 -29 32 2 3 18 -1
29 -13 35 -26 14 -262 8 -266 -7z"/>
<path d="M2255 750 c-3 -6 -3 -19 0 -31 6 -17 14 -20 63 -17 49 3 57 6 60 24
3 18 -4 22 -44 28 -63 8 -72 8 -79 -4z m114 -15 c7 -7 -11 -25 -25 -25 -9 0
-12 5 -8 13 6 10 4 10 -7 0 -27 -26 -81 -10 -63 18 6 10 92 4 103 -6z"/>
<path d="M2870 730 c0 -25 4 -30 25 -30 21 0 25 5 25 30 0 25 -4 30 -25 30
-21 0 -25 -5 -25 -30z m40 0 c0 -11 -7 -20 -15 -20 -8 0 -15 9 -15 20 0 11 7
20 15 20 8 0 15 -9 15 -20z"/>
<path d="M906 662 c-4 -3 -27 -7 -53 -9 -44 -2 -66 -16 -60 -38 2 -5 37 -11
79 -13 l75 -3 -5 30 c-4 29 -23 46 -36 33z m24 -33 c0 -16 -8 -18 -62 -16 -94
3 -71 33 25 34 29 0 37 -4 37 -18z"/>
<path d="M1288 659 c-9 -5 -49 -7 -88 -5 l-70 4 0 -29 0 -30 103 3 c99 3 102
4 105 27 2 13 -2 28 -10 32 -16 11 -19 11 -40 -2z m40 -28 c3 -21 1 -22 -78
-20 -69 1 -80 4 -78 18 3 13 14 15 60 13 33 -1 59 2 63 8 10 17 30 6 33 -19z
m-168 -1 c0 -11 -4 -20 -10 -20 -5 0 -10 9 -10 20 0 11 5 20 10 20 6 0 10 -9
10 -20z"/>
<path d="M1695 662 c-4 -4 -77 -8 -163 -8 -86 -1 -160 -2 -164 -3 -5 -1 -8
-12 -8 -26 l0 -25 185 0 185 0 0 29 c0 28 -21 47 -35 33z m-205 -34 c0 -18 -2
-19 -17 -7 -11 10 -14 10 -9 2 5 -10 -6 -13 -43 -13 -36 0 -51 4 -51 13 0 20
4 22 64 23 50 1 56 -1 56 -18z m230 1 c0 -17 -10 -19 -110 -19 -85 0 -110 3
-110 13 0 8 2 16 4 18 3 2 52 4 110 5 97 1 106 -1 106 -17z"/>
<path d="M1883 657 c-13 -7 -23 -21 -23 -34 0 -20 5 -22 78 -25 42 -2 122 -1
177 2 99 5 100 5 100 30 l0 25 -120 1 c-66 1 -136 4 -155 7 -19 3 -45 0 -57
-6z m115 -9 c32 0 42 -4 42 -16 0 -14 1 -14 13 1 18 25 150 20 155 -6 2 -9 -1
-17 -7 -17 -6 0 -11 6 -11 13 0 9 -2 9 -8 0 -7 -11 -76 -15 -239 -14 -54 1
-73 4 -73 14 0 19 40 37 65 30 11 -3 39 -6 63 -5z"/>
<path d="M2270 661 c-18 -5 -26 -15 -28 -34 -3 -25 0 -27 31 -27 27 0 36 5 41
23 13 48 8 52 -44 38z m35 -30 c-8 -27 -58 -30 -53 -4 2 9 14 20 28 23 31 8
33 7 25 -19z"/>
<path d="M2342 635 l0 -35 72 0 c40 0 75 3 78 6 3 3 3 17 -1 32 -7 26 -11 27
-78 30 l-71 3 0 -36z m136 -2 c3 -22 0 -23 -60 -23 -60 0 -63 1 -64 25 -2 25
-1 26 60 23 55 -3 61 -5 64 -25z"/>
<path d="M426 636 c-3 -11 -2 -24 2 -27 9 -10 352 -16 352 -7 0 4 -5 10 -12
14 -7 4 -8 3 -4 -4 4 -7 2 -12 -3 -12 -6 0 -11 12 -11 28 l0 27 -159 1 c-153
0 -160 -1 -165 -20z m124 -7 c0 -15 -8 -19 -40 -19 -25 0 -40 5 -40 13 0 9 -3
8 -9 -2 -11 -16 -32 -6 -25 12 3 9 25 14 59 14 47 0 55 -2 55 -18z m190 -1 c0
-16 -8 -18 -52 -17 -29 1 -56 7 -60 13 -5 8 -8 7 -8 -1 0 -8 -13 -13 -30 -13
-18 0 -30 5 -30 13 0 21 3 22 94 22 76 1 86 -1 86 -17z"/>
<path d="M988 653 c-22 -3 -28 -10 -28 -29 0 -21 4 -24 41 -24 38 0 40 2 37
27 -3 29 -9 32 -50 26z m42 -29 c0 -17 -30 -19 -31 -1 0 10 -2 10 -6 0 -7 -18
-23 -16 -23 1 0 8 10 16 23 18 28 5 37 1 37 -18z"/>
<path d="M1745 640 c-10 -31 2 -40 51 -40 36 0 44 3 44 18 0 27 -20 42 -56 42
-24 0 -34 -5 -39 -20z m75 6 c0 -2 3 -11 6 -20 5 -13 -1 -16 -29 -16 -36 0
-53 12 -42 30 6 9 65 15 65 6z"/>
<path d="M2522 652 c-7 -2 -12 -14 -12 -28 l0 -23 245 -1 245 0 0 28 0 28
-233 0 c-129 0 -239 -2 -245 -4z m468 -23 c0 -16 -12 -18 -125 -18 -111 0
-125 1 -126 17 0 14 -2 14 -9 -3 l-9 -20 -1 20 c-1 18 -1 19 -11 2 -8 -14 -24
-17 -100 -15 -60 1 -89 5 -89 13 0 6 2 14 5 16 2 3 108 5 235 5 213 0 230 -1
230 -17z"/>
<path d="M1063 627 c-10 -21 -8 -23 18 -25 25 -2 29 1 29 23 0 33 -33 34 -47
2z m37 -2 c0 -8 -4 -15 -9 -15 -13 0 -22 16 -14 24 11 11 23 6 23 -9z"/>
<path d="M1116 563 c-11 -11 -6 -63 7 -64 6 -1 46 -2 88 -3 80 -1 87 4 62 49
-9 16 -24 20 -81 22 -38 1 -72 0 -76 -4z m34 -25 l9 -23 0 24 c1 22 4 23 47
18 42 -4 63 -18 64 -39 0 -5 -13 -8 -30 -8 -16 0 -30 5 -30 11 0 6 7 8 16 5 8
-3 12 -2 9 4 -10 17 -35 11 -35 -8 0 -15 -7 -19 -37 -18 -37 2 -49 15 -39 41
8 21 15 19 26 -7z"/>
<path d="M1182 530 c0 -14 2 -19 5 -12 2 6 2 18 0 25 -3 6 -5 1 -5 -13z"/>
<path d="M443 553 c-7 -2 -13 -17 -13 -32 l0 -28 113 4 c61 2 121 5 132 7 11
2 26 -1 33 -7 9 -7 16 -7 23 0 8 8 6 11 -7 10 -13 -1 -20 6 -22 21 -3 22 -1
23 35 16 21 -4 39 -8 41 -9 7 -6 -11 -34 -19 -29 -5 3 -9 0 -9 -5 0 -23 28
-10 34 15 4 15 6 28 4 29 -2 1 -24 5 -50 9 -45 7 -47 6 -51 -21 -4 -27 -4 -27
-12 -5 -6 18 -15 22 -49 23 -22 0 -70 2 -106 4 -36 2 -71 1 -77 -2z m67 -20
c0 -12 3 -14 8 -6 4 6 21 13 37 15 24 2 30 -1 30 -16 0 -16 -9 -19 -72 -20
-61 -1 -73 1 -73 15 0 22 9 29 42 29 20 0 28 -5 28 -17z m154 -8 c4 -12 -3
-15 -29 -15 -24 0 -35 5 -35 15 0 10 10 15 29 15 16 0 31 -6 35 -15z"/>
<path d="M808 536 c-14 -26 0 -36 63 -40 29 -2 62 -6 71 -10 9 -4 25 -3 37 3
11 6 30 11 43 11 18 0 20 2 8 9 -8 6 -18 7 -22 5 -4 -3 -8 0 -8 5 0 6 -9 2
-20 -9 -12 -12 -26 -18 -32 -14 -6 4 -30 8 -52 9 -22 1 -42 7 -44 15 -4 10 -6
10 -12 0 -10 -17 -31 -3 -24 15 4 10 15 13 37 9 18 -3 46 -4 62 -3 73 5 154 3
160 -3 4 -4 4 -15 1 -25 -6 -15 -8 -15 -16 -3 -8 13 -10 12 -10 -2 0 -28 29
-21 36 7 4 14 3 29 -1 33 -4 4 -65 7 -137 7 -116 0 -131 -2 -140 -19z"/>
<path d="M434 427 c-3 -9 -4 -26 -2 -39 3 -22 5 -23 97 -21 96 3 118 10 108
36 -4 10 -27 17 -69 20 -35 4 -78 9 -95 13 -25 5 -34 2 -39 -9z m131 -15 c33
-4 60 -11 59 -17 -1 -13 -75 -25 -94 -15 -16 8 -34 6 -62 -5 -20 -8 -34 15
-24 41 5 12 13 15 34 9 15 -4 54 -10 87 -13z"/>
<path d="M813 414 c-3 -7 -1 -20 5 -29 7 -14 28 -17 123 -18 l114 0 3 29 3 29
-122 1 c-88 0 -122 -3 -126 -12z m237 -21 c0 -20 -3 -21 -57 -16 -32 3 -61 11
-65 17 -5 7 -8 7 -8 1 0 -6 -10 -12 -22 -12 -13 -1 -33 -5 -44 -7 -21 -6 -40
16 -30 33 2 3 54 6 115 6 107 0 111 -1 111 -22z"/>
<path d="M1061 181 c-12 -22 -6 -47 12 -54 10 -3 34 -2 80 2 5 1 7 16 5 34 -3
30 -6 32 -45 35 -33 2 -44 -1 -52 -17z m84 -20 c0 -19 -6 -24 -32 -26 -38 -3
-62 18 -45 38 6 7 26 13 44 13 28 -1 33 -5 33 -25z"/>
<path d="M1593 163 c3 -37 3 -37 52 -40 79 -6 97 2 93 40 l-3 32 -72 3 -72 3
2 -38z m34 10 c4 -10 11 -21 17 -25 7 -5 4 -8 -6 -8 -10 0 -21 -1 -24 -2 -4
-2 -8 9 -10 25 -3 30 13 37 23 10z m98 -13 c0 -19 -6 -26 -24 -28 -21 -3 -23
-1 -18 25 l6 28 -14 -30 -14 -30 -1 30 c0 20 -3 26 -9 17 -7 -11 -9 -10 -15 3
-5 14 1 16 42 13 43 -3 47 -5 47 -28z"/>
</g>
</defs>
<mask id="mp70368">
  <use xlink:href="#gp70368" fill="white" />
</mask>
<use xlink:href="#gp70368" data-mask="url(#mp70368)" data-stroke="black" stroke-width="20px" fill="black"/>
</svg>
