<?xml version="1.0" standalone="no"?>
<!DOCTYPE svg PUBLIC "-//W3C//DTD SVG 20010904//EN"
 "http://www.w3.org/TR/2001/REC-SVG-20010904/DTD/svg10.dtd">
<svg class="Potrace" xmlns:xlink="http://www.w3.org/1999/xlink" version="1.0" xmlns="http://www.w3.org/2000/svg"
 width="641.000000pt" height="854.000000pt" viewBox="0 0 641.000000 854.000000"
 preserveAspectRatio="xMidYMid meet">
<defs>
  <g id="gp84504" transform="translate(0.000000,854.000000) scale(0.100000,-0.100000)"
>
<path d="M1622 8520 c-9 -15 -23 -20 -52 -20 -32 0 -43 -5 -62 -30 -18 -25
-29 -30 -62 -30 -36 0 -43 4 -55 31 -11 26 -11 33 0 40 21 13 -11 21 -67 16
l-49 -3 52 -2 c45 -2 52 -4 46 -19 -3 -10 -13 -26 -21 -35 -8 -9 -12 -21 -11
-27 4 -9 85 -81 152 -134 15 -12 35 -30 45 -40 9 -10 29 -25 45 -33 15 -8 27
-22 27 -32 0 -9 30 -44 67 -77 37 -33 102 -93 146 -134 43 -40 80 -71 83 -68
5 5 -100 109 -171 169 -91 77 -118 107 -111 123 3 9 10 14 15 10 6 -3 27 2 48
11 22 10 83 20 143 24 l105 8 -110 -2 c-82 -2 -119 -7 -144 -20 -34 -18 -50
-12 -51 20 0 7 -9 14 -20 17 -31 8 -24 36 13 52 25 11 27 14 11 15 -43 0 -74
-67 -35 -77 23 -6 35 -29 20 -39 -11 -7 -39 14 -162 119 -48 42 -93 77 -100
80 -9 3 -9 8 2 20 18 22 28 21 34 -3 4 -16 14 -20 49 -20 36 0 50 6 73 30 20
21 38 30 61 30 31 0 64 21 64 41 0 14 -4 11 -18 -11z"/>
<path d="M1800 8534 c0 -3 7 -12 15 -20 9 -10 15 -34 15 -63 0 -81 62 -118
110 -66 13 14 18 25 12 25 -7 0 -17 -9 -24 -20 -30 -48 -88 0 -88 72 0 29 -6
53 -16 62 -16 17 -24 20 -24 10z"/>
<path d="M1987 8529 c-24 -14 -21 -31 8 -59 15 -14 25 -35 25 -51 0 -15 8 -36
18 -48 19 -24 79 -45 87 -30 4 5 -7 9 -23 9 -35 0 -72 37 -72 72 0 15 -11 40
-25 57 -24 28 -24 30 -8 40 10 5 16 12 13 14 -3 3 -13 1 -23 -4z"/>
<path d="M2560 8531 c-33 -6 -35 -9 -38 -47 -2 -31 2 -45 19 -59 21 -20 21
-20 18 0 -3 16 3 21 30 25 45 7 60 42 26 60 -14 7 -22 17 -19 22 3 4 4 7 2 7
-2 -1 -19 -4 -38 -8z m40 -29 c27 -22 19 -42 -15 -42 -13 0 -27 -5 -30 -10 -4
-6 -11 -8 -16 -5 -10 7 -12 58 -2 68 12 13 40 7 63 -11z"/>
<path d="M1660 8494 c-18 -21 -29 -42 -26 -51 4 -8 9 -26 12 -39 3 -13 10 -24
15 -24 4 0 1 16 -7 36 -15 36 -15 37 13 66 15 17 37 34 48 38 19 8 19 9 -1 9
-13 1 -35 -14 -54 -35z"/>
<path d="M2720 8512 c-34 -27 -65 -85 -57 -106 9 -24 51 -17 55 9 l4 20 -15
-20 c-12 -15 -18 -17 -28 -8 -14 14 20 76 57 100 35 23 264 15 292 -10 24 -22
31 -21 58 4 30 28 54 19 54 -20 0 -16 4 -32 9 -35 10 -6 7 57 -4 74 -11 17
-53 11 -68 -11 -15 -20 -16 -20 -43 -2 -23 15 -53 19 -159 21 -118 4 -132 2
-155 -16z"/>
<path d="M2847 8461 c-32 -9 -63 -24 -68 -33 -6 -10 -14 -18 -19 -18 -5 0 -10
8 -12 18 -3 14 -5 13 -10 -5 -9 -32 27 -31 58 2 13 14 33 25 46 26 13 0 39 7
58 14 48 18 18 16 -53 -4z"/>
<path d="M2317 8463 c-17 -16 -6 -54 18 -63 15 -6 25 -17 25 -30 0 -19 6 -20
93 -20 85 -1 97 -3 151 -33 68 -37 99 -73 72 -83 -10 -4 -25 1 -37 12 -16 15
-35 17 -112 15 -211 -5 -276 -10 -323 -24 -27 -9 -70 -21 -97 -28 -26 -6 -50
-15 -52 -19 -5 -8 33 2 150 38 28 8 79 14 115 13 36 -1 79 3 96 8 18 5 47 6
65 2 19 -4 54 -4 78 1 38 7 48 5 67 -13 30 -29 70 -23 66 10 -4 36 -20 51 -89
83 -52 23 -76 28 -143 28 -75 0 -81 1 -89 24 -5 13 -19 26 -32 29 -17 5 -21
11 -17 31 6 28 5 30 -5 19z"/>
<path d="M3128 8416 c-8 -8 -33 -18 -54 -22 -114 -20 -224 -131 -171 -171 22
-17 92 -4 102 20 8 17 19 21 58 20 34 0 52 -6 61 -18 23 -31 238 -16 273 19 9
9 -45 -3 -69 -15 -9 -5 -55 -9 -102 -9 -69 0 -87 3 -94 17 -7 12 -24 16 -64
16 -61 0 -78 -7 -78 -29 0 -24 -84 -15 -88 9 -5 23 18 49 82 91 52 34 102 50
111 35 3 -4 17 4 31 18 14 14 23 27 21 30 -3 2 -11 -3 -19 -11z"/>
<path d="M3465 8408 c-8 -16 -21 -22 -55 -25 -50 -4 -70 -22 -70 -64 0 -29 14
-46 25 -29 3 5 1 10 -4 10 -15 0 -14 45 2 58 7 6 32 13 56 16 43 4 61 17 61
44 0 17 -4 15 -15 -10z"/>
<path d="M1391 8273 c9 -2 31 -22 48 -43 18 -22 37 -40 42 -40 6 0 60 -39 120
-87 308 -246 402 -320 492 -386 54 -40 115 -85 135 -100 20 -15 48 -35 62 -44
14 -10 51 -37 83 -61 32 -24 60 -42 63 -39 6 5 -110 97 -121 97 -4 0 -22 12
-40 28 -18 15 -62 48 -97 74 -34 26 -92 69 -128 96 -71 52 -277 215 -435 342
-55 45 -110 85 -122 90 -11 5 -33 25 -48 44 -17 23 -35 36 -49 35 -15 -1 -16
-3 -5 -6z"/>
<path d="M2768 8243 c18 -4 22 -9 16 -26 -9 -28 -21 -36 -59 -39 -16 -1 -43
-2 -60 -4 -16 -1 -44 -8 -62 -15 -29 -12 -35 -11 -72 14 -48 32 -95 33 -128 4
-12 -11 -30 -17 -41 -15 -10 3 -37 2 -58 -3 l-39 -8 35 1 c19 0 40 -1 45 -2
32 -7 51 -3 63 12 21 28 68 32 101 9 40 -29 86 -37 113 -19 13 7 48 14 78 13
55 0 90 16 90 42 0 7 4 13 10 13 5 0 7 7 4 15 -4 9 -17 14 -33 14 -24 -2 -24
-2 -3 -6z"/>
<path d="M4075 8211 c-33 -16 -55 -30 -50 -30 6 0 33 11 60 24 69 34 103 32
144 -7 18 -18 39 -47 46 -65 l13 -32 -44 -15 c-36 -12 -61 -13 -137 -5 -50 6
-107 14 -126 19 -19 5 -37 8 -39 5 -8 -7 72 -24 164 -34 66 -7 103 -7 130 1
59 18 64 24 51 61 -17 46 -28 60 -64 85 -42 29 -76 28 -148 -7z"/>
<path d="M2997 8194 c-17 -18 8 -29 59 -27 78 3 81 13 5 13 -39 0 -60 4 -56
10 7 11 2 14 -8 4z"/>
<path d="M3141 8186 c-8 -10 -8 -21 -1 -41 9 -24 14 -27 43 -21 17 3 57 9 87
12 30 4 60 10 65 15 6 4 17 4 25 -1 8 -6 44 -9 80 -8 l65 1 -65 6 c-65 6 -94
16 -86 30 3 4 -39 8 -92 10 -53 1 -99 4 -103 7 -4 2 -12 -2 -18 -10z m183 -12
c26 -10 8 -24 -30 -24 -19 0 -56 -5 -81 -12 -41 -10 -47 -9 -59 7 -7 10 -11
22 -8 26 6 10 154 12 178 3z"/>
<path d="M4380 8193 c-23 -9 -64 -43 -52 -43 6 0 18 8 28 18 12 12 34 17 70
17 29 0 55 3 58 5 7 8 -85 10 -104 3z"/>
<path d="M2805 8173 c5 -18 1 -24 -19 -29 -14 -3 -30 -3 -35 1 -6 3 -11 1 -11
-4 0 -6 -9 -11 -20 -11 -11 0 -20 -3 -20 -7 0 -5 11 -8 25 -8 14 0 25 3 25 8
0 4 11 7 24 7 14 0 28 5 31 10 12 19 45 10 56 -14 9 -20 18 -24 50 -22 21 0
39 5 39 10 0 5 -16 6 -35 3 -27 -4 -35 -2 -35 9 0 8 -12 20 -27 27 -16 6 -34
19 -41 27 -11 13 -12 12 -7 -7z"/>
<path d="M2645 8110 c-22 -14 -40 -18 -67 -13 l-38 6 0 -46 c0 -36 -4 -46 -20
-50 -26 -7 -26 -39 0 -62 18 -17 21 -17 60 4 23 12 45 19 49 17 4 -3 12 9 19
26 l11 30 -22 -24 c-31 -33 -85 -54 -106 -41 -22 14 -20 37 4 41 17 2 20 9 16
49 -3 46 -3 46 25 40 29 -6 114 21 114 36 0 11 -12 7 -45 -13z"/>
<path d="M6015 8120 c4 -6 12 -9 19 -7 6 3 33 1 59 -3 26 -4 44 -4 40 0 -4 4
-34 11 -67 15 -43 5 -56 4 -51 -5z"/>
<path d="M2635 8060 c-22 -32 -34 -37 -53 -18 -9 9 -12 9 -12 1 0 -7 10 -15
21 -18 15 -5 28 0 46 18 14 14 24 30 22 36 -2 6 -13 -3 -24 -19z"/>
<path d="M2728 8068 c-7 -17 14 -41 47 -52 16 -5 14 -2 -7 16 -14 13 -28 30
-30 37 -4 12 -5 12 -10 -1z"/>
<path d="M4337 8073 c-15 -14 -6 -22 13 -11 15 10 26 10 53 0 37 -13 89 -14
127 -2 15 5 -1 6 -41 3 -43 -3 -69 -1 -73 6 -8 12 -68 15 -79 4z"/>
<path d="M2245 8025 c55 -19 106 -32 114 -29 8 2 22 -3 32 -12 11 -10 19 -12
19 -7 0 17 -29 36 -45 29 -8 -3 -55 8 -104 24 -49 17 -95 30 -102 30 -8 -1 31
-16 86 -35z"/>
<path d="M3801 8045 c-1 -34 17 -87 35 -99 15 -11 14 -15 -10 -39 -26 -26 -35
-57 -16 -57 5 0 7 6 4 13 -2 7 7 24 21 37 29 27 32 45 9 58 -9 5 -22 31 -30
58 -7 27 -13 40 -13 29z"/>
<path d="M3639 8028 c-7 -12 -33 -49 -59 -83 -26 -33 -73 -98 -106 -145 -68
-100 -244 -345 -321 -446 l-54 -72 -61 1 c-48 0 -64 -4 -74 -18 -20 -27 -17
-44 4 -19 19 24 57 36 90 28 29 -8 27 -10 -126 -219 -313 -425 -441 -561 -747
-791 -176 -133 -566 -374 -604 -374 -7 0 -30 -10 -53 -21 -54 -27 -207 -79
-235 -79 -12 0 -24 -4 -27 -8 -3 -5 -37 -21 -75 -36 -84 -33 -81 -21 -45 -196
15 -71 29 -185 34 -265 6 -108 13 -150 28 -185 20 -44 96 -399 108 -503 4 -33
0 -74 -10 -112 -20 -73 -20 -125 -2 -151 14 -18 15 -18 21 11 4 17 8 36 11 43
2 6 -1 12 -6 12 -6 0 -10 -15 -10 -32 0 -25 -3 -29 -10 -18 -14 22 -12 63 7
142 16 68 16 73 -6 196 -39 217 -82 406 -99 432 -11 18 -17 62 -22 160 -4 81
-18 190 -34 273 -15 76 -26 144 -23 151 3 7 27 20 54 30 26 9 62 23 78 30 17
7 77 28 135 48 180 60 217 76 348 150 316 176 655 433 834 632 98 108 256 305
334 417 55 78 152 209 229 309 74 96 254 346 336 465 85 123 177 245 186 247
8 1 42 -60 43 -78 0 -5 -19 -37 -43 -70 -24 -32 -72 -99 -107 -149 -190 -269
-735 -996 -824 -1100 -279 -324 -571 -556 -991 -786 -143 -78 -202 -103 -370
-160 -187 -63 -200 -68 -198 -90 6 -64 21 -129 33 -144 9 -10 14 -47 16 -103
3 -120 2 -116 19 -138 14 -18 14 -17 4 11 -6 17 -12 71 -14 122 -1 59 -7 98
-15 109 -12 13 -25 68 -33 138 -2 17 25 29 195 87 253 86 464 193 703 357 282
193 454 346 661 587 89 104 634 831 824 1100 35 50 83 117 107 149 49 68 51
81 23 136 -23 45 -44 51 -61 18z"/>
<path d="M5192 8001 c-18 -11 -43 -61 -31 -61 5 0 9 4 9 10 0 5 7 7 15 3 9 -3
14 -10 12 -16 -2 -6 7 -20 20 -32 13 -11 25 -27 26 -35 4 -23 20 -44 47 -61
31 -20 69 -9 77 21 5 19 11 20 52 14 55 -7 76 -24 67 -52 -5 -14 -17 -22 -39
-24 -31 -3 -32 -5 -35 -53 -2 -33 1 -45 7 -36 5 8 16 11 25 8 9 -4 16 -3 16 2
0 5 -9 11 -20 14 -12 3 -20 14 -20 26 0 22 4 25 53 35 22 5 27 12 27 35 0 38
-14 47 -82 55 -54 7 -58 6 -58 -13 0 -50 -80 -29 -104 28 -8 20 -28 51 -46 70
-25 27 -29 36 -18 48 11 13 14 12 30 -7 23 -29 33 -22 12 8 -17 24 -22 26 -42
13z"/>
<path d="M5043 7993 c-27 -5 -30 -36 -7 -73 9 -14 13 -17 10 -7 -18 56 -18 65
1 69 13 3 21 -5 29 -27 7 -19 19 -32 35 -35 13 -3 33 -12 45 -20 23 -17 78
-109 70 -117 -3 -3 -19 -7 -36 -9 -18 -2 -36 -6 -41 -10 -5 -3 -32 0 -59 7
-40 10 -51 18 -60 42 -9 26 -13 29 -43 23 -49 -9 -105 35 -59 47 24 7 -56 -1
-95 -9 -18 -3 -33 -10 -33 -14 0 -9 50 2 70 15 6 4 24 -8 40 -26 26 -27 35
-31 65 -26 31 5 37 3 50 -24 14 -26 14 -30 0 -35 -9 -4 -25 2 -35 11 -21 19
-28 7 -8 -13 15 -15 50 -16 64 -2 8 8 20 7 40 0 16 -7 44 -8 64 -4 19 4 45 6
56 5 12 -1 24 4 27 12 6 17 -2 57 -12 57 -4 0 -12 15 -19 33 -11 32 -43 55
-95 71 -9 3 -20 19 -23 36 -4 16 -9 29 -13 29 -3 -1 -16 -4 -28 -6z"/>
<path d="M3891 7887 c-30 -23 -57 -49 -59 -57 -3 -8 12 0 34 18 21 18 50 42
63 53 16 13 32 18 47 15 13 -4 26 -2 29 4 4 6 -7 10 -27 10 -23 -1 -49 -13
-87 -43z"/>
<path d="M2863 7907 c-13 -5 -23 -14 -23 -19 0 -12 -21 -33 -40 -41 -11 -4
-11 -6 -2 -6 8 -1 25 8 39 19 14 11 22 20 17 20 -16 0 21 20 38 20 19 0 14
-36 -7 -44 -7 -2 -16 -20 -20 -38 -4 -18 -12 -38 -17 -45 -5 -7 -8 -20 -6 -30
2 -10 12 8 22 41 12 39 25 60 37 63 10 3 16 9 13 15 -3 5 -1 15 6 23 6 7 7 15
3 18 -23 12 -40 13 -60 4z"/>
<path d="M2963 7907 c-4 -6 -6 -24 -5 -39 2 -17 -3 -28 -11 -28 -13 0 -41 -60
-32 -68 2 -3 9 8 15 24 11 27 26 44 43 44 12 0 8 -35 -5 -49 -8 -9 -8 -11 -2
-8 7 4 14 0 18 -8 6 -17 -29 -39 -47 -29 -9 5 -9 4 -1 -5 9 -10 19 -8 48 7 25
14 32 21 22 25 -9 4 -14 18 -14 37 1 18 -4 35 -11 40 -7 4 -11 18 -9 31 3 22
7 24 50 21 27 -2 54 1 62 5 9 5 -11 9 -50 10 -40 1 -66 -2 -71 -10z"/>
<path d="M3770 7901 c-8 -4 -28 -15 -45 -24 -16 -8 -31 -21 -34 -28 -2 -7 10
-2 27 10 l31 21 44 -82 c95 -177 134 -251 249 -478 66 -129 128 -248 138 -265
10 -16 50 -93 90 -170 57 -112 72 -151 76 -195 2 -30 7 -66 11 -80 8 -25 8
-25 27 -6 16 16 16 18 3 13 -21 -8 -23 -3 -31 58 l-7 50 45 -77 c25 -42 46
-82 46 -88 0 -6 11 -31 25 -56 32 -57 31 -76 -2 -96 -16 -9 -54 -40 -85 -68
-61 -55 -64 -55 -48 0 5 19 15 73 21 120 9 72 15 88 38 107 14 12 21 22 15 23
-28 1 -52 -41 -59 -102 -4 -35 -14 -94 -22 -131 -22 -100 -21 -100 93 -4 37
31 71 57 74 57 3 0 16 -20 28 -45 12 -25 26 -45 32 -45 10 0 70 -118 70 -138
0 -7 4 -12 9 -12 12 0 2 40 -14 60 -7 8 -15 28 -19 43 -4 16 -17 38 -29 50
-30 29 -67 93 -67 117 0 11 -11 43 -24 72 -13 29 -29 64 -35 78 -7 14 -17 34
-24 45 -7 11 -42 76 -78 145 -37 69 -88 166 -114 215 -26 50 -98 189 -159 310
-62 121 -154 299 -205 395 -77 144 -91 177 -82 192 12 20 12 20 -9 9z"/>
<path d="M5800 7903 c-62 -9 -70 -14 -84 -48 -14 -33 -18 -35 -60 -35 -57 0
-123 35 -105 56 7 9 8 14 1 14 -25 0 -19 -31 11 -54 33 -25 110 -37 136 -22
14 9 34 -12 25 -26 -3 -4 0 -8 6 -8 8 0 9 7 5 18 -16 39 -16 51 3 70 21 21
106 36 148 26 19 -5 25 -4 20 5 -7 11 -53 13 -106 4z"/>
<path d="M4732 7865 c15 -8 29 -24 33 -35 5 -16 15 -20 52 -20 36 0 46 -4 50
-20 4 -15 14 -20 37 -20 17 0 38 4 45 9 10 6 1 8 -26 4 -35 -5 -41 -2 -46 16
-4 17 -13 21 -44 21 -31 0 -45 6 -66 30 -15 17 -35 30 -45 30 -12 -1 -9 -5 10
-15z"/>
<path d="M2740 7828 c0 -9 13 -20 30 -26 20 -8 32 -20 39 -44 5 -18 10 -25 10
-16 2 31 -18 66 -41 73 -13 4 -26 13 -30 19 -5 7 -8 5 -8 -6z"/>
<path d="M2330 7783 c0 -7 11 -22 24 -35 13 -13 37 -44 55 -70 17 -26 35 -49
39 -52 5 -3 30 -1 58 4 l49 9 -50 -2 -50 -2 -42 63 c-24 35 -43 60 -43 55 0
-4 -9 3 -20 17 -11 14 -20 20 -20 13z"/>
<path d="M5993 7745 c2 -5 23 -8 46 -7 34 3 48 -1 67 -19 13 -12 24 -27 24
-32 0 -12 -100 2 -126 18 -43 27 -164 31 -164 5 0 -4 15 -3 34 2 19 6 46 7 62
3 16 -5 31 -9 34 -10 3 0 14 -6 25 -12 31 -17 141 -27 150 -14 3 7 -7 24 -24
40 -24 22 -43 30 -81 33 -30 2 -49 -1 -47 -7z"/>
<path d="M4145 7700 c16 -16 37 -33 48 -36 19 -6 19 -7 3 -16 -12 -7 -24 -5
-43 7 -32 21 -88 13 -104 -16 -13 -26 -5 -49 18 -49 15 0 15 1 -2 13 -38 28
29 68 75 45 14 -7 28 -17 31 -21 3 -4 17 2 30 13 18 16 20 23 11 27 -8 3 -29
18 -47 34 -43 38 -57 37 -20 -1z"/>
<path d="M4252 7720 c4 -15 84 -39 129 -40 14 0 29 -4 35 -9 5 -5 31 -20 57
-35 38 -21 56 -25 88 -20 48 8 79 -14 79 -58 0 -16 7 -42 15 -59 9 -16 13 -33
11 -38 -3 -5 -39 -12 -81 -16 -83 -7 -108 -21 -39 -20 24 0 44 3 44 6 0 11 94
17 112 8 10 -5 18 -20 18 -34 0 -18 8 -26 35 -35 41 -14 43 -19 12 -48 -25
-24 -64 -20 -127 13 -19 10 -77 28 -129 41 -96 24 -116 33 -93 42 8 2 30 18
49 35 28 25 47 32 101 37 66 7 66 7 15 9 -62 1 -92 -9 -144 -51 -46 -37 -49
-55 -11 -63 78 -16 162 -41 207 -60 28 -12 62 -25 78 -29 26 -6 27 -9 27 -70
0 -96 9 -101 156 -88 128 11 131 11 189 -31 30 -21 47 -27 69 -23 20 4 32 1
41 -10 10 -14 22 -15 81 -8 38 4 74 8 79 9 6 0 21 12 35 28 20 21 29 24 38 15
7 -7 12 -8 12 -2 0 5 -9 15 -20 22 -11 7 -20 22 -20 35 -1 20 -2 20 -11 4 -8
-13 -7 -22 2 -33 10 -12 9 -19 -7 -34 -19 -19 -37 -24 -122 -37 -32 -4 -47 -2
-61 12 -12 10 -27 14 -39 11 -21 -7 -92 21 -92 36 0 21 -54 27 -170 16 -144
-12 -149 -10 -150 87 0 49 4 62 20 72 10 7 24 22 30 33 9 18 6 22 -30 36 -31
12 -40 22 -40 40 0 13 -9 28 -20 34 -25 13 -60 81 -60 115 0 40 -35 68 -78 62
-28 -4 -54 3 -107 28 -38 18 -99 39 -135 45 -36 7 -69 17 -73 23 -6 8 -7 7 -5
-3z"/>
<path d="M2705 7700 c-3 -5 -3 -20 0 -33 5 -18 1 -26 -19 -35 -14 -6 -26 -16
-26 -21 0 -4 15 -1 34 8 29 14 32 19 24 40 -15 40 6 48 54 21 58 -32 113 -41
153 -24 29 12 34 12 39 -2 3 -9 3 -20 0 -25 -9 -15 5 -61 16 -54 6 3 10 2 10
-3 0 -4 17 -16 37 -26 43 -20 35 -29 -35 -41 -32 -5 -45 -13 -52 -30 -12 -33
-27 -38 -52 -21 -12 9 -39 16 -60 16 -20 0 -39 4 -43 10 -3 5 -19 2 -38 -9
-27 -15 -31 -23 -29 -49 4 -34 -23 -57 -52 -46 -21 8 -20 23 4 86 22 57 22 57
-48 95 -41 22 -39 49 3 46 l30 -2 -29 9 c-35 11 -46 6 -46 -23 0 -16 15 -30
49 -51 l48 -28 -18 -49 c-11 -27 -19 -58 -19 -68 0 -26 33 -35 67 -19 23 11
27 19 25 45 -4 42 18 53 88 45 44 -6 57 -12 67 -32 9 -18 9 -28 0 -38 -9 -12
-13 -11 -20 6 -16 35 -57 40 -57 7 0 -7 -12 -22 -27 -34 -23 -16 -26 -23 -17
-38 17 -26 100 -21 163 12 28 14 62 25 76 25 15 0 28 7 32 16 10 27 -11 49
-48 49 -27 1 -35 5 -37 23 -4 24 28 42 72 42 12 0 27 5 34 12 15 15 -3 48 -27
48 -28 0 -64 44 -56 70 4 11 1 27 -5 35 -10 12 -17 12 -44 1 -40 -17 -91 -9
-138 20 -39 25 -73 31 -83 14z m244 -269 c12 -8 9 -11 -12 -17 -32 -7 -49 3
-27 16 19 12 21 12 39 1z m71 -16 c16 -19 4 -35 -25 -35 -13 0 -45 -11 -72
-25 -58 -28 -122 -40 -143 -25 -13 9 -12 13 6 28 12 9 27 28 34 41 12 23 13
24 26 6 7 -10 15 -22 17 -28 2 -6 16 -3 34 8 28 16 34 17 49 4 16 -12 17 -12
12 2 -13 34 38 53 62 24z"/>
<path d="M5409 7647 c7 -10 20 -17 27 -17 8 0 14 -9 14 -20 0 -13 7 -20 20
-20 10 0 36 -11 56 -25 20 -14 47 -25 60 -25 29 0 126 -25 153 -40 12 -6 21
-7 21 -1 0 5 -8 12 -17 16 -30 12 -127 34 -152 35 -13 0 -39 11 -57 25 -18 14
-42 25 -53 25 -14 0 -21 6 -21 19 0 10 -8 21 -17 25 -10 3 -25 9 -33 13 -13 5
-13 4 -1 -10z"/>
<path d="M5128 7639 c-10 -5 -18 -18 -18 -27 0 -9 -9 -23 -21 -30 -28 -18 -18
-26 12 -10 14 8 23 20 21 30 -7 38 84 50 158 20 19 -8 50 -29 68 -48 18 -19
41 -34 51 -34 34 0 64 -46 69 -106 4 -50 3 -56 -17 -61 -21 -5 -31 -43 -11
-43 5 0 7 7 3 17 -5 13 -2 15 14 11 18 -5 20 0 22 52 3 74 -22 129 -61 137
-16 3 -46 23 -67 44 -22 21 -57 42 -78 48 -48 14 -123 14 -145 0z"/>
<path d="M3160 7621 c-14 -4 -26 -14 -28 -22 -2 -11 15 -18 68 -27 77 -13 91
-10 89 16 -1 14 -2 14 -6 -2 -4 -15 -11 -17 -36 -11 -18 4 -48 9 -67 12 -66
10 -54 23 28 30 36 3 67 1 80 -6 12 -6 22 -8 22 -2 0 5 -7 12 -16 15 -20 8
-102 6 -134 -3z"/>
<path d="M6294 7612 c4 -7 18 -12 32 -12 27 0 30 -16 10 -42 -18 -24 -25 -23
-58 9 -15 15 -28 22 -28 15 0 -6 11 -19 24 -28 16 -10 23 -21 19 -32 -5 -14
-3 -15 8 -4 7 6 36 13 64 13 43 1 45 2 17 8 -36 7 -37 8 -26 34 4 12 12 16 26
11 13 -4 18 -2 14 4 -3 5 -22 13 -42 16 -19 4 -43 10 -51 13 -11 4 -14 2 -9
-5z"/>
<path d="M6136 7549 c3 -5 16 -9 28 -9 40 0 116 -39 109 -56 -8 -21 -36 -34
-73 -34 -24 0 -35 -7 -48 -31 -15 -26 -21 -30 -49 -25 -21 3 -38 0 -47 -10
-22 -21 -29 -70 -16 -108 11 -34 89 -116 110 -116 6 0 26 -11 43 -24 22 -16
52 -26 97 -31 36 -4 70 -11 75 -15 6 -4 19 -10 30 -14 16 -5 16 -3 -4 13 -17
13 -49 21 -98 26 -40 4 -73 10 -73 15 0 5 -19 18 -43 29 -53 26 -123 97 -132
134 -8 30 11 86 29 88 48 5 97 -25 136 -85 69 -104 133 -153 165 -126 21 17
19 36 -7 54 -16 12 -19 18 -10 29 9 10 9 16 0 25 -17 17 -45 15 -52 -4 -9 -22
-10 -21 34 -45 43 -24 44 -27 31 -47 -19 -30 -105 43 -160 136 -13 22 -35 45
-48 51 -23 11 -24 13 -11 33 18 27 33 35 81 43 27 4 41 13 46 28 11 29 6 36
-38 55 -45 19 -112 32 -105 21z m207 -275 c3 -3 3 -12 0 -20 -4 -11 -9 -12
-19 -3 -8 6 -11 15 -8 20 6 10 18 12 27 3z"/>
<path d="M3693 7493 c-24 -8 -13 -34 31 -81 55 -58 128 -152 203 -262 l58 -84
-3 -116 c-2 -63 -8 -146 -14 -185 -5 -38 -11 -88 -13 -110 -4 -40 -4 -40 5 5
31 147 42 385 21 430 -24 52 -181 263 -248 333 -52 55 -51 74 1 30 36 -29 111
-125 221 -282 l60 -85 0 -101 c0 -96 2 -104 28 -138 24 -32 103 -85 112 -75 1
2 5 40 7 86 3 46 1 77 -3 70 -5 -7 -9 -44 -9 -81 l0 -69 -32 20 c-18 11 -48
40 -67 63 l-33 44 6 90 7 91 -63 90 c-156 224 -245 327 -275 317z"/>
<path d="M4161 7486 c-19 -7 -37 -18 -39 -24 -2 -7 -15 -12 -28 -12 -30 0 -32
-27 -5 -85 28 -61 43 -71 92 -55 22 8 42 17 45 21 5 8 -48 -5 -66 -16 -15 -10
-49 23 -66 64 -18 44 -18 61 3 61 9 0 24 6 32 13 9 8 31 20 50 27 31 12 35 12
48 -6 15 -19 15 -19 11 1 -4 24 -31 28 -77 11z"/>
<path d="M3076 7452 c-3 -5 1 -24 10 -41 17 -34 52 -42 74 -16 9 10 9 15 1 15
-6 0 -11 -4 -11 -10 0 -19 -38 -10 -53 14 -25 38 4 49 57 21 31 -17 45 -15 23
3 -19 16 -93 26 -101 14z"/>
<path d="M4240 7439 c0 -3 -11 -11 -25 -17 -14 -6 -25 -16 -25 -22 0 -6 12 -3
28 8 35 25 65 34 86 26 24 -9 20 -20 -19 -44 -19 -12 -35 -26 -35 -31 0 -5 18
3 40 17 45 30 53 61 18 68 -31 6 -68 3 -68 -5z"/>
<path d="M4370 7327 c72 -17 100 -33 100 -57 0 -23 -17 -25 -44 -5 -25 19 -75
19 -100 0 -15 -11 -16 -15 -5 -15 25 0 119 -49 120 -63 1 -6 0 -19 -1 -27 -1
-11 1 -12 10 -4 20 20 -9 62 -53 77 -44 14 -61 37 -28 37 11 0 36 -7 55 -16
41 -20 63 -14 61 18 -2 29 -51 54 -120 62 l-50 5 55 -12z"/>
<path d="M4303 7178 c10 -5 25 -7 35 -4 9 3 30 -1 46 -9 27 -14 46 -13 46 3 0
4 -8 8 -17 9 -10 0 -43 3 -73 6 -38 4 -49 2 -37 -5z"/>
<path d="M2760 7171 c0 -5 15 -14 33 -20 17 -6 52 -27 76 -46 24 -19 49 -35
55 -35 16 0 -54 56 -94 76 -19 9 -43 21 -52 26 -11 5 -18 4 -18 -1z"/>
<path d="M4556 7062 c-17 -19 -34 -41 -38 -50 -9 -24 -10 -92 0 -92 4 0 6 17
4 38 -3 32 2 45 34 83 20 24 42 43 48 42 81 -12 87 -14 75 -29 -9 -11 -26 -15
-54 -12 -35 2 -41 0 -43 -16 -1 -14 2 -16 11 -7 6 6 28 11 49 11 26 0 40 6 47
19 14 26 -2 38 -58 43 -40 3 -47 1 -75 -30z"/>
<path d="M3842 7072 c-57 -17 -261 -249 -310 -355 -48 -101 -48 -120 0 -26 24
47 63 110 86 140 60 76 212 229 228 229 7 0 16 5 19 10 3 6 5 10 3 9 -2 -1
-13 -4 -26 -7z"/>
<path d="M4977 7062 c-38 -41 -33 -121 8 -148 38 -25 155 -63 161 -52 3 5 3
12 0 15 -3 4 -6 1 -6 -7 0 -9 -4 -9 -12 -2 -7 5 -31 15 -54 21 -106 28 -143
95 -89 160 28 32 20 44 -8 13z"/>
<path d="M15 7013 c7 -21 41 -105 75 -188 34 -82 65 -162 70 -176 9 -30 115
-234 156 -301 47 -76 104 -157 151 -215 34 -41 42 -59 37 -76 -13 -43 -124
-291 -142 -316 -9 -14 -40 -69 -68 -121 -35 -65 -59 -99 -78 -108 -15 -8 -25
-16 -23 -19 3 -3 18 1 33 9 19 9 42 41 76 108 27 52 55 101 63 110 8 9 26 43
41 75 14 33 34 78 44 100 35 77 70 169 70 182 0 7 -27 46 -60 87 -33 41 -60
77 -60 81 0 4 -13 24 -28 44 -28 35 -48 69 -109 181 -55 100 -87 164 -103 210
-9 25 -45 112 -78 194 -34 82 -62 155 -62 162 0 8 -4 14 -10 14 -5 0 -3 -17 5
-37z"/>
<path d="M6351 7013 c-37 -7 -101 -53 -107 -78 -8 -33 50 -125 101 -157 23
-16 49 -28 56 -28 8 0 6 5 -6 13 -70 42 -86 57 -114 105 -17 30 -31 58 -31 62
0 15 83 67 125 78 40 10 22 14 -24 5z"/>
<path d="M5520 6946 c0 -2 38 -22 84 -45 72 -35 83 -44 79 -62 -4 -14 -9 -17
-16 -10 -21 21 -147 13 -236 -16 l-85 -27 -60 22 c-33 12 -61 20 -63 18 -6 -6
108 -46 133 -46 29 0 30 -3 2 -40 -18 -24 -19 -32 -8 -45 16 -19 47 -11 70 18
11 13 23 18 33 14 15 -6 15 -8 0 -35 -22 -38 -11 -64 24 -60 24 3 29 9 37 48
5 25 13 47 17 50 11 8 -35 57 -49 52 -7 -2 -2 -12 12 -25 23 -21 23 -25 13
-67 -8 -29 -18 -46 -30 -48 -28 -6 -32 26 -6 54 20 21 21 27 9 34 -26 17 -56
11 -78 -15 -12 -14 -26 -25 -31 -25 -19 0 -19 29 0 46 11 10 18 26 16 36 -4
13 6 21 47 33 70 23 211 31 231 15 18 -15 20 -14 28 21 6 25 2 29 -74 68 -76
38 -99 47 -99 37z"/>
<path d="M3785 6917 c-40 -16 -78 -38 -73 -42 2 -2 27 7 56 21 67 32 108 30
104 -6 -2 -18 0 -22 9 -13 6 6 9 19 7 29 -4 23 -58 29 -103 11z"/>
<path d="M4186 6810 c3 -69 9 -154 13 -190 10 -71 -2 -230 -23 -322 -7 -32
-10 -55 -6 -53 25 15 51 277 38 380 -5 44 -13 132 -18 195 l-8 115 4 -125z"/>
<path d="M4740 6914 c-17 -10 -51 -14 -103 -13 -42 1 -81 -1 -85 -6 -15 -15
192 2 223 18 23 13 25 17 10 16 -11 -1 -31 -7 -45 -15z"/>
<path d="M5772 6918 c-19 -19 -14 -33 6 -15 25 22 48 21 79 -3 14 -11 32 -20
39 -20 18 0 18 -24 1 -38 -19 -16 -98 6 -104 29 -3 11 -9 16 -14 13 -20 -12
12 -41 58 -51 89 -21 115 26 39 71 -48 28 -85 33 -104 14z"/>
<path d="M4814 6885 c19 -17 26 -34 26 -60 0 -49 -14 -71 -58 -93 -20 -10 -58
-30 -84 -44 -41 -23 -49 -24 -65 -12 -10 7 -22 14 -28 14 -14 0 18 -28 35 -31
15 -2 110 37 120 49 3 4 18 12 35 17 36 13 55 47 55 103 0 42 -25 82 -51 82
-7 0 0 -11 15 -25z"/>
<path d="M3804 6872 c-21 -16 -58 -49 -81 -74 -41 -45 -57 -52 -46 -20 8 24
54 73 78 82 16 7 17 9 3 9 -22 1 -75 -44 -84 -71 -5 -18 -12 -78 -9 -78 1 0
43 41 93 90 51 50 91 90 89 90 -2 0 -22 -13 -43 -28z"/>
<path d="M3763 6789 c-29 -28 -53 -60 -53 -70 0 -10 -6 -19 -14 -19 -14 0 -56
-62 -56 -83 0 -6 8 4 18 23 11 19 29 39 40 45 12 5 22 18 22 29 0 10 26 43 58
72 31 29 53 53 47 53 -5 1 -34 -22 -62 -50z"/>
<path d="M4072 6780 c2 -8 14 -20 25 -25 12 -6 29 -17 39 -25 15 -13 17 -13
12 0 -2 8 -14 20 -25 25 -12 6 -29 17 -39 25 -15 13 -17 13 -12 0z"/>
<path d="M4292 6748 c-16 -16 -15 -43 2 -76 22 -44 26 -97 10 -121 -10 -13
-13 -32 -9 -53 7 -38 -12 -91 -48 -134 -13 -16 -26 -38 -29 -49 -3 -11 -9 -29
-14 -39 -5 -13 -4 -17 3 -13 6 4 14 19 17 33 4 15 20 43 35 63 36 45 55 102
46 141 -4 19 -1 37 9 51 17 25 13 63 -11 122 -13 29 -14 42 -5 62 13 28 12 31
-6 13z"/>
<path d="M6021 6742 c-6 -11 -24 -22 -41 -25 -22 -5 -30 -12 -30 -28 0 -13 -8
-31 -17 -42 -14 -16 -15 -19 -3 -15 8 2 19 19 25 37 7 24 17 34 38 38 15 3 32
14 38 25 9 17 19 18 97 13 55 -4 92 -11 102 -20 9 -8 33 -15 53 -15 40 0 52
-22 20 -35 -16 -6 -16 -8 5 -25 29 -24 28 -54 -1 -73 -19 -12 -23 -22 -19 -46
7 -48 -22 -51 -67 -7 -29 28 -45 36 -74 36 -20 0 -52 8 -71 17 -29 13 -40 14
-61 5 -14 -6 -25 -17 -25 -23 0 -8 7 -6 18 4 23 21 32 21 68 2 16 -8 45 -15
66 -15 28 0 44 -8 71 -35 35 -35 60 -44 72 -24 5 7 14 4 26 -7 10 -9 19 -12
19 -7 0 6 -6 16 -14 22 -8 6 -16 22 -18 35 -4 18 1 27 19 35 18 8 23 19 23 46
0 24 -5 35 -15 35 -8 0 -15 5 -15 10 0 6 5 10 10 10 6 0 10 13 10 28 0 26 -2
28 -35 24 -23 -3 -42 1 -53 11 -12 11 -47 18 -114 22 -88 5 -98 4 -107 -13z"/>
<path d="M3346 6718 c-9 -34 -7 -73 3 -83 5 -6 11 -49 12 -97 3 -85 3 -86 30
-92 45 -9 65 -50 88 -184 28 -165 42 -189 78 -135 10 15 41 50 69 79 51 52 72
84 54 84 -6 0 -10 -4 -10 -10 0 -5 -24 -33 -52 -63 -29 -29 -62 -66 -72 -81
-26 -39 -31 -26 -57 126 -24 140 -39 175 -79 189 -15 6 -31 20 -34 32 -10 38
-7 135 6 162 9 20 9 28 -2 38 -10 9 -11 9 -6 -1 10 -17 -3 -54 -16 -46 -6 4
-8 26 -5 55 6 52 3 64 -7 27z"/>
<path d="M5106 6695 c-9 -9 -16 -20 -16 -25 0 -5 -8 -7 -17 -4 -11 4 -14 3 -7
-3 6 -4 19 -23 28 -41 l17 -32 -67 -63 c-37 -34 -72 -63 -80 -65 -36 -9 -59
87 -40 170 7 32 5 37 -14 43 -16 5 -29 0 -51 -21 -25 -24 -28 -32 -22 -68 6
-44 31 -101 40 -93 2 3 -2 16 -10 29 -8 12 -17 39 -20 59 -4 31 -1 41 21 62
39 38 57 23 42 -33 -9 -32 -9 -54 0 -91 22 -90 53 -90 149 2 l63 61 -15 39
c-15 38 -15 41 4 60 12 12 19 23 16 25 -3 3 -12 -2 -21 -11z"/>
<path d="M5673 6698 c-21 -7 -33 -18 -36 -35 -2 -13 -2 -21 1 -19 2 3 13 -5
23 -17 10 -12 18 -18 19 -14 0 5 -7 15 -15 23 -24 24 -18 39 21 53 31 11 38
11 51 -2 13 -13 13 -19 -2 -51 -13 -27 -24 -36 -44 -37 -24 -2 -25 -2 -3 -6
30 -6 58 19 66 59 10 53 -14 67 -81 46z"/>
<path d="M4490 6673 c0 -15 2 -15 9 -4 8 12 15 8 38 -19 15 -18 33 -46 40 -62
7 -15 20 -28 29 -28 10 0 26 -7 36 -17 16 -14 18 -14 18 0 0 30 38 30 82 -1
42 -29 49 -32 66 -32 5 0 14 -12 21 -26 10 -22 9 -30 -5 -45 -9 -11 -12 -19
-7 -19 6 0 16 7 23 15 18 22 -5 72 -41 91 -16 8 -31 13 -33 12 -2 -2 -15 6
-28 18 -32 29 -54 35 -68 19 -21 -26 -90 0 -90 34 -1 21 -56 81 -75 81 -8 0
-15 -8 -15 -17z"/>
<path d="M4471 6662 c-1 -20 24 -76 42 -91 10 -7 17 -9 17 -3 0 5 -6 12 -14
15 -8 3 -21 25 -29 49 -9 24 -16 37 -16 30z"/>
<path d="M3154 6624 c3 -16 8 -51 11 -79 12 -104 55 -269 81 -318 14 -25 14
-29 -2 -45 -16 -16 -16 -17 -1 -20 9 -2 17 -8 17 -13 0 -12 -27 -12 -35 1 -3
6 -15 10 -25 10 -11 0 -29 5 -42 10 l-23 11 3 216 c2 118 0 219 -5 224 -4 4
-8 -96 -8 -222 l0 -230 40 -10 c44 -12 111 -44 135 -65 27 -23 41 -3 28 40
-13 42 -31 54 -52 37 -17 -14 -29 -2 -14 16 8 11 6 24 -10 57 -29 58 -69 222
-78 319 -4 43 -11 80 -16 84 -6 3 -8 -6 -4 -23z m164 -494 c13 -35 12 -36 -27
-12 -28 17 -29 20 -14 35 20 20 28 16 41 -23z"/>
<path d="M1778 6613 c-9 -10 -19 -38 -23 -63 -4 -25 -11 -50 -16 -56 -5 -7
-13 -40 -18 -75 -10 -75 -52 -215 -115 -389 -26 -68 -44 -126 -41 -128 2 -3 7
1 9 9 3 8 23 64 45 125 60 167 103 312 112 383 5 35 13 68 18 75 5 6 12 31 16
55 4 24 16 52 26 62 10 10 15 19 11 19 -5 0 -16 -8 -24 -17z"/>
<path d="M5900 6623 c0 -5 13 -19 29 -31 18 -13 31 -33 33 -49 3 -26 7 -28 55
-33 29 -3 58 -11 65 -18 6 -6 19 -12 28 -12 22 0 55 36 41 44 -5 4 -12 -3 -16
-14 -8 -24 -14 -25 -51 -5 -16 8 -38 15 -49 15 -43 1 -63 12 -68 40 -6 25 -67
83 -67 63z"/>
<path d="M27 6578 c17 -18 40 -60 52 -93 12 -33 29 -70 37 -83 20 -30 35 -117
25 -143 -4 -13 -2 -45 5 -76 11 -48 11 -53 -4 -53 -10 1 -28 10 -41 20 l-23
20 23 20 c13 10 20 19 14 19 -17 0 -45 -25 -45 -40 0 -17 36 -42 73 -50 27 -6
28 -5 21 20 -4 14 -8 69 -9 122 -1 83 -5 103 -28 148 -15 28 -34 73 -43 99
-16 46 -58 102 -78 102 -5 0 4 -15 21 -32z"/>
<path d="M4116 6593 c42 -3 53 -8 57 -24 8 -30 -11 -199 -34 -309 -11 -52 -22
-107 -25 -121 -9 -43 -334 -339 -371 -339 -26 0 -3 43 48 92 27 26 46 49 42
51 -5 3 -30 -16 -56 -42 -33 -32 -48 -55 -50 -76 -3 -46 29 -44 94 8 92 71
299 270 304 292 20 93 47 257 55 338 13 127 8 138 -63 135 l-52 -2 51 -3z"/>
<path d="M5594 6545 c4 -10 -3 -19 -18 -25 -33 -12 -40 -41 -19 -84 14 -30 22
-36 49 -36 26 0 34 -6 44 -30 12 -28 40 -42 40 -20 0 6 -5 10 -10 10 -6 0 -16
11 -22 25 -8 19 -19 25 -43 25 -26 0 -34 6 -48 36 -19 39 -16 51 18 64 23 9
32 50 12 50 -5 0 -6 -7 -3 -15z"/>
<path d="M5633 6543 c-7 -2 -13 -9 -13 -14 0 -6 8 -5 20 1 35 19 151 -10 180
-44 7 -9 18 -16 26 -16 7 0 25 -12 39 -26 14 -14 28 -24 31 -21 7 7 -44 57
-58 57 -7 0 -21 9 -32 20 -33 30 -156 58 -193 43z"/>
<path d="M15 6510 c24 -11 51 -13 41 -3 -4 4 -19 8 -34 10 -23 2 -24 1 -7 -7z"/>
<path d="M5113 6470 c-16 -6 -23 -18 -23 -35 0 -14 4 -25 8 -25 5 0 8 10 8 22
-1 32 41 45 91 29 21 -7 72 -18 113 -25 72 -12 75 -14 78 -41 3 -25 -4 -48
-28 -95 -5 -8 -14 -13 -22 -12 -17 5 -16 5 -65 3 -33 -1 -43 -5 -47 -21 -3
-11 -9 -29 -12 -40 -4 -15 -1 -20 13 -19 10 0 13 3 6 5 -8 4 -9 13 -1 34 9 28
12 29 70 27 l61 -3 18 44 c22 50 25 111 7 116 -7 2 -49 9 -93 16 -44 6 -84 16
-89 21 -12 11 -64 11 -93 -1z"/>
<path d="M6178 6438 c14 -14 84 -19 76 -6 -3 4 -16 5 -29 2 -12 -3 -26 -1 -29
5 -4 6 -12 11 -19 11 -8 0 -8 -3 1 -12z"/>
<path d="M20 6419 c-21 -7 -18 -8 13 -4 33 3 39 1 47 -21 14 -35 13 -40 -12
-52 -22 -10 -21 -11 9 -9 34 1 36 12 12 70 -12 28 -26 31 -69 16z"/>
<path d="M3342 6367 c-25 -27 -28 -52 -8 -60 15 -6 66 51 66 72 0 19 -36 12
-58 -12z m26 -17 c-20 -28 -38 -39 -38 -23 0 10 42 53 52 53 5 0 -1 -13 -14
-30z"/>
<path d="M6156 6344 c-21 -21 -20 -28 7 -57 23 -26 72 -43 81 -29 2 4 -5 9
-17 9 -55 5 -92 47 -61 70 25 18 47 16 88 -8 40 -23 41 -26 21 -53 -8 -10 -12
-23 -8 -29 5 -9 33 44 33 63 0 15 -71 50 -100 50 -16 0 -36 -7 -44 -16z"/>
<path d="M5587 6339 c-10 -6 -31 -8 -46 -4 -20 4 -30 2 -34 -9 -9 -23 14 -41
83 -66 78 -27 87 -33 95 -69 5 -24 35 -41 35 -19 0 4 -5 8 -11 8 -5 0 -15 13
-20 29 -8 24 -23 34 -84 57 -40 16 -71 33 -67 38 3 5 0 6 -6 2 -6 -3 -13 -2
-17 4 -7 11 4 13 47 10 14 -1 29 3 33 9 9 16 35 13 35 -3 0 -8 10 -22 22 -30
38 -27 40 -17 4 19 -38 38 -42 39 -69 24z"/>
<path d="M6001 6336 c-10 -12 -6 -22 23 -53 20 -21 36 -33 36 -27 0 6 -14 23
-31 39 -27 24 -30 29 -16 37 11 6 25 3 44 -9 l28 -17 -19 22 c-22 25 -48 28
-65 8z"/>
<path d="M3701 6275 c-1 -18 -14 -46 -30 -66 -17 -20 -33 -47 -36 -62 -4 -14
-15 -33 -26 -43 -15 -14 -19 -30 -18 -78 1 -34 3 -53 6 -43 2 9 10 17 17 17 7
0 28 16 47 36 60 62 206 126 161 71 -5 -7 -18 -37 -27 -68 -18 -57 -16 -89 6
-89 8 0 8 4 -1 15 -16 19 -1 75 38 148 14 26 23 50 20 53 -10 10 -173 -84
-208 -121 -19 -19 -38 -35 -42 -35 -17 0 -8 67 12 85 11 10 20 26 20 35 0 10
14 34 30 55 33 42 44 73 37 102 -3 11 -5 6 -6 -12z m141 -137 c-7 -7 -12 -8
-12 -2 0 14 12 26 19 19 2 -3 -1 -11 -7 -17z"/>
<path d="M6340 6252 c0 -7 5 -12 11 -12 5 0 7 -5 4 -10 -10 -16 14 -40 39 -40
20 0 19 1 -4 13 -14 7 -25 18 -25 24 0 7 -6 18 -12 25 -10 9 -13 9 -13 0z"/>
<path d="M5254 6226 c-8 -20 15 -59 29 -52 7 3 20 9 30 12 9 4 17 11 17 16 0
6 -11 3 -24 -5 -21 -15 -26 -15 -37 -1 -21 26 4 35 86 32 62 -2 80 -7 89 -21
9 -14 7 -21 -6 -31 -24 -18 -23 -29 2 -16 26 14 26 56 1 70 -31 16 -180 13
-187 -4z"/>
<path d="M4288 6173 c-10 -2 -18 -10 -18 -16 0 -7 -36 -41 -80 -76 -44 -36
-80 -68 -80 -72 0 -3 -26 -26 -57 -50 -32 -23 -62 -49 -66 -56 -4 -7 -13 -13
-19 -13 -7 0 -22 -10 -35 -22 -16 -15 -23 -17 -23 -7 0 9 -3 10 -8 3 -32 -45
-216 -139 -231 -117 -13 21 -58 37 -104 38 -35 1 -44 -1 -32 -8 9 -5 28 -6 42
-2 18 4 37 -1 66 -21 l41 -27 51 17 c27 10 75 35 107 57 31 21 63 39 71 39 7
0 22 9 32 20 10 11 24 20 31 20 7 0 17 6 21 13 4 7 34 33 66 56 31 24 57 47
57 50 0 4 36 36 80 72 44 35 80 69 80 76 0 7 7 13 15 13 8 0 15 5 15 10 0 6
-1 9 -2 9 -2 -1 -11 -3 -20 -6z"/>
<path d="M6260 6151 c-41 -5 -56 -10 -58 -23 -4 -22 38 -41 88 -39 19 0 45 -6
57 -14 13 -9 23 -11 23 -6 0 17 -31 28 -94 34 -64 6 -75 12 -59 28 10 10 82 8
163 -5 l35 -6 -35 11 c-19 6 -39 15 -44 20 -6 5 -12 8 -15 7 -4 -1 -31 -4 -61
-7z"/>
<path d="M5735 6040 c-14 -7 -9 -8 18 -4 49 8 107 -20 107 -53 0 -13 8 -24 20
-28 45 -14 13 -70 -52 -90 -60 -18 -98 -37 -98 -48 0 -5 10 -3 23 5 12 8 47
23 77 33 61 20 79 37 80 77 0 18 -6 29 -20 33 -11 3 -20 15 -20 26 0 40 -85
71 -135 49z"/>
<path d="M4795 6033 c-53 -9 -65 -14 -65 -28 0 -8 5 -15 11 -15 5 0 7 4 4 10
-8 14 45 25 64 13 24 -15 14 -28 -22 -28 -28 0 -32 -4 -35 -28 -2 -15 5 -39
16 -55 24 -33 99 -185 104 -210 2 -9 6 -12 10 -7 6 11 -71 182 -103 226 -10
15 -19 36 -19 48 0 18 4 20 33 14 17 -3 41 -10 52 -15 19 -9 19 -8 1 6 -10 8
-16 18 -13 23 10 16 -18 49 -38 46z"/>
<path d="M5055 6002 c-12 -12 -3 -19 20 -14 14 2 61 -1 105 -8 73 -11 82 -11
100 5 18 16 22 16 74 -8 31 -14 56 -30 56 -36 0 -5 19 -22 42 -38 32 -21 45
-39 54 -68 8 -32 16 -41 36 -43 13 -2 31 4 38 12 18 23 35 20 49 -10 12 -28 7
-44 -15 -44 -8 0 -22 -9 -31 -20 -10 -11 -22 -20 -28 -20 -39 0 -36 -119 4
-159 29 -29 13 -55 -26 -40 -13 5 -29 7 -34 4 -20 -13 -165 -15 -199 -3 -42
14 -100 11 -118 -6 -11 -11 -5 -11 34 -1 39 10 55 10 80 -1 39 -16 78 -17 214
-3 8 1 27 -1 41 -5 37 -11 44 22 14 66 -33 47 -35 138 -3 138 6 0 24 11 40 25
31 26 59 25 37 -1 -7 -9 -8 -14 -1 -14 17 0 25 20 13 34 -6 7 -9 15 -6 18 3 3
0 19 -6 36 -12 36 -41 42 -70 16 -25 -22 -45 -12 -52 25 -4 17 -18 41 -32 54
-14 12 -38 33 -53 47 -15 14 -51 36 -80 49 -49 20 -55 21 -77 7 -21 -14 -35
-14 -119 -2 -53 7 -98 11 -101 8z"/>
<path d="M140 5955 c-14 -8 -30 -14 -37 -15 -16 0 -85 -41 -79 -47 3 -3 22 4
43 15 72 38 114 54 129 48 18 -7 9 -26 -11 -26 -21 0 -108 -40 -102 -47 4 -3
12 -1 19 5 7 5 32 16 56 23 46 13 68 32 57 49 -9 14 -45 12 -75 -5z"/>
<path d="M4917 5863 c-18 -18 -2 -43 55 -82 l61 -44 -30 -26 c-30 -26 -49 -76
-32 -87 5 -3 9 7 9 23 0 19 9 36 30 53 40 33 34 49 -36 95 -30 20 -54 40 -54
46 0 23 33 19 75 -10 25 -17 49 -31 52 -31 14 0 -24 33 -58 51 -40 20 -61 24
-72 12z"/>
<path d="M5920 5823 c-17 -13 -30 -30 -30 -36 0 -6 15 3 33 20 l32 31 115 -2
c64 -1 121 -6 128 -10 7 -4 12 -2 12 3 0 13 7 12 -143 16 -113 3 -118 2 -147
-22z"/>
<path d="M590 5802 c-29 -13 -280 -255 -280 -269 1 -4 10 3 20 16 11 13 20 19
20 15 0 -5 29 20 63 56 34 36 91 91 126 123 l63 57 74 -2 c41 -1 77 2 81 5 8
9 -147 8 -167 -1z"/>
<path d="M4267 5789 c-14 -16 -21 -18 -32 -9 -10 8 -21 4 -47 -17 -18 -16 -52
-42 -76 -57 -24 -16 -89 -72 -145 -124 -56 -52 -140 -121 -186 -155 -68 -49
-92 -61 -132 -65 -45 -4 -53 -1 -106 39 -32 23 -62 49 -66 56 -4 7 -17 13 -29
13 -18 0 -20 -4 -15 -40 9 -66 49 -124 113 -159 49 -28 61 -31 102 -25 92 14
144 48 331 218 79 72 86 76 131 76 34 0 52 -5 65 -20 23 -26 29 -116 10 -147
l-14 -21 -42 20 c-52 25 -110 19 -186 -19 -60 -30 -76 -46 -90 -88 -6 -16 -16
-29 -22 -27 -6 1 -10 -1 -9 -5 1 -5 -3 -18 -10 -30 -8 -14 -9 -24 -2 -28 6 -4
8 -11 4 -16 -12 -20 6 -54 41 -78 34 -23 37 -23 116 -11 139 20 288 68 464
150 l80 38 68 134 c37 73 67 140 67 148 0 8 -33 -50 -72 -129 -82 -161 -65
-146 -253 -226 -127 -54 -244 -89 -353 -105 l-80 -12 -36 28 c-39 32 -49 66
-17 57 10 -3 31 3 45 12 37 24 59 14 46 -21 -6 -15 -8 -29 -6 -32 7 -6 15 15
18 48 4 31 -20 37 -66 15 -39 -19 -56 -14 -56 15 0 14 5 18 18 14 13 -4 14 -3
4 4 -11 7 -11 10 1 15 8 3 18 19 22 35 7 34 22 49 85 85 63 35 122 43 165 22
19 -9 35 -20 35 -25 0 -4 11 -3 24 3 28 13 35 40 31 115 -4 72 -23 92 -89 92
-62 0 -73 -7 -207 -128 -57 -51 -124 -106 -147 -122 -53 -35 -148 -58 -172
-41 -8 6 -31 20 -51 30 -42 23 -88 89 -96 137 -6 35 8 47 24 21 4 -7 33 -32
64 -55 62 -47 110 -54 174 -28 51 22 168 111 277 212 53 50 116 103 140 119
23 16 55 40 70 53 17 16 33 22 46 18 11 -4 26 -1 34 7 9 10 29 12 70 7 31 -3
54 -2 52 2 -3 4 -24 8 -48 8 -23 0 -46 4 -52 10 -6 6 -16 3 -27 -11z"/>
<path d="M6186 5761 c-10 -11 -28 -21 -39 -23 -23 -3 -34 -20 -72 -121 -20
-54 -23 -72 -14 -88 6 -12 13 -18 16 -15 3 3 1 12 -5 19 -9 10 -7 25 6 60 10
25 21 49 25 53 4 4 7 17 7 29 0 24 29 55 52 55 8 0 25 11 38 25 13 14 19 25
13 25 -5 0 -18 -9 -27 -19z"/>
<path d="M3883 5759 c-24 -24 -154 -89 -178 -89 -9 0 -48 20 -85 45 -68 45
-90 54 -90 34 0 -5 3 -8 8 -5 4 2 34 -14 67 -37 86 -58 117 -56 256 19 29 15
57 44 42 44 -5 0 -14 -5 -20 -11z"/>
<path d="M5750 5691 c-36 -28 -68 -51 -72 -51 -16 0 -7 30 12 40 11 6 20 20
19 33 0 22 0 22 -9 1 -4 -12 -15 -24 -24 -27 -9 -4 -16 -18 -16 -32 0 -38 26
-31 99 25 79 63 121 67 176 19 39 -35 49 -25 10 11 -18 17 -40 25 -77 28 -51
4 -55 2 -118 -47z"/>
<path d="M866 5720 c-12 -4 -31 -33 -47 -71 -27 -63 -28 -64 -71 -70 -23 -3
-62 -15 -85 -26 -24 -12 -45 -17 -49 -12 -3 5 -15 9 -27 9 -19 -1 -18 -3 8
-14 26 -12 35 -11 70 7 22 12 62 24 89 27 l48 5 22 57 c30 81 41 90 72 55 18
-21 22 -35 18 -55 -7 -29 -47 -102 -75 -140 -15 -19 -16 -27 -6 -43 9 -14 9
-21 -1 -31 -14 -14 -15 -47 -2 -68 7 -11 8 -6 4 16 -4 21 1 42 16 69 14 25 16
34 7 27 -9 -8 -18 -9 -21 -4 -3 6 1 15 9 22 23 19 71 112 79 150 8 46 -27 101
-58 90z"/>
<path d="M760 5703 c0 -6 7 -14 16 -17 25 -10 10 -19 -44 -27 -71 -10 -171
-38 -222 -61 -24 -11 -54 -24 -65 -28 -40 -15 -141 -99 -173 -143 -60 -84 -30
-108 37 -29 22 27 59 62 83 78 24 16 45 32 46 37 2 4 8 7 14 7 5 0 24 6 41 14
78 33 144 56 162 57 11 0 29 4 40 9 13 6 5 7 -25 3 -25 -3 -64 -14 -87 -24
-23 -11 -46 -19 -51 -19 -18 0 -94 -37 -135 -66 -23 -16 -65 -54 -94 -84 -60
-62 -68 -60 -21 7 33 45 134 128 175 144 13 5 41 17 62 28 39 18 170 54 244
66 42 7 45 14 17 40 -11 10 -20 13 -20 8z"/>
<path d="M5410 5681 c0 -5 8 -7 18 -4 24 6 36 -11 52 -70 15 -54 11 -63 -21
-47 -12 7 -36 14 -53 17 -17 2 -41 11 -52 18 -12 8 -31 11 -43 8 -29 -7 -39
22 -16 47 10 11 13 20 8 20 -18 0 -35 -28 -31 -52 2 -17 12 -24 38 -30 62 -12
124 -29 135 -37 5 -4 19 -7 30 -7 16 1 20 7 18 31 -2 41 -14 87 -26 103 -11
14 -57 17 -57 3z"/>
<path d="M5150 5564 c-6 -14 -10 -29 -10 -34 0 -4 -11 -15 -25 -24 -14 -9 -25
-22 -25 -28 0 -7 6 -4 13 7 10 12 16 14 21 7 4 -7 12 -12 19 -12 8 0 8 3 0 11
-12 12 18 84 39 92 8 3 6 6 -5 6 -10 1 -22 -10 -27 -25z"/>
<path d="M504 5508 c-46 -54 -100 -146 -90 -155 3 -3 13 12 23 33 10 22 24 43
31 47 6 4 12 14 12 21 0 8 7 19 16 26 15 13 38 50 31 50 -2 0 -12 -10 -23 -22z"/>
<path d="M661 5521 c-13 -8 -13 -12 -1 -26 13 -15 11 -21 -18 -46 -18 -16 -32
-37 -31 -46 0 -14 2 -14 6 -4 3 8 19 26 35 40 24 19 29 30 24 52 -3 17 -1 29
7 33 7 2 8 5 2 5 -5 0 -16 -3 -24 -8z"/>
<path d="M712 5483 c-33 -49 -37 -59 -14 -39 12 11 22 25 22 32 0 17 15 25 34
18 41 -16 -9 -66 -76 -78 -21 -4 -38 -11 -38 -17 0 -6 5 -7 11 -4 5 4 24 9 41
12 66 10 109 63 72 90 -25 18 -30 17 -52 -14z"/>
<path d="M4324 5441 c-21 -21 -50 -52 -62 -70 -28 -36 -77 -65 -99 -57 -8 3
-70 -12 -136 -35 -67 -22 -128 -43 -136 -45 -8 -2 -12 -6 -10 -8 5 -6 102 20
125 32 33 18 116 42 147 42 41 0 94 27 120 63 12 16 40 47 61 68 22 22 37 41
34 44 -2 3 -22 -12 -44 -34z"/>
<path d="M5036 5461 c-16 -17 -16 -25 -6 -58 7 -21 18 -47 25 -58 6 -11 15
-33 19 -50 11 -44 69 -160 74 -147 2 7 16 12 32 12 15 0 33 7 40 14 6 8 30 16
53 18 41 3 42 4 62 58 39 106 69 128 78 58 3 -22 14 -53 25 -67 10 -14 22 -44
25 -66 5 -30 19 -52 60 -93 48 -48 59 -54 113 -62 45 -6 64 -5 81 6 12 8 30
14 40 14 27 0 63 -28 63 -50 0 -28 21 -70 36 -70 14 0 44 38 44 55 0 5 -11 -3
-24 -20 l-24 -30 -10 25 c-6 14 -13 38 -17 53 -9 42 -80 63 -114 33 -12 -11
-28 -12 -71 -5 -49 8 -61 15 -112 68 -43 43 -58 67 -58 88 0 15 -12 46 -25 68
-14 22 -25 54 -25 71 0 23 -5 33 -19 37 -24 6 -52 -31 -70 -93 -18 -61 -27
-70 -71 -70 -21 0 -43 -6 -50 -14 -6 -8 -23 -16 -38 -18 -22 -3 -30 4 -53 49
-15 28 -30 65 -34 82 -6 26 -3 32 17 40 13 6 17 10 8 10 -9 1 -21 -4 -28 -11
-9 -9 -13 -7 -17 8 -4 10 -13 34 -21 53 -14 32 -14 35 7 57 12 13 18 24 12 24
-5 0 -18 -9 -27 -19z"/>
<path d="M531 5446 c-12 -12 -21 -26 -21 -30 0 -4 -11 -22 -25 -40 -14 -18
-22 -36 -18 -39 3 -4 18 12 31 35 32 56 52 78 69 78 22 0 16 -61 -9 -87 -17
-19 -19 -23 -5 -17 22 8 22 -4 0 -28 -9 -10 -11 -18 -5 -18 15 0 35 38 27 50
-11 17 5 32 21 20 15 -13 95 -9 157 8 36 10 37 9 37 -17 0 -31 -29 -64 -116
-132 -65 -52 -83 -90 -48 -103 22 -8 24 -8 24 9 0 15 167 145 187 145 15 0 45
-42 35 -50 -7 -6 -28 -15 -96 -40 -16 -6 -27 -12 -25 -15 10 -9 134 44 137 59
2 8 -8 27 -23 42 -25 25 -26 25 -53 8 -75 -48 -172 -127 -172 -140 0 -8 -4
-12 -10 -9 -22 14 -7 36 63 91 40 31 80 67 90 80 17 23 18 30 16 114 l-1 45
-10 -38 c-6 -21 -15 -36 -22 -34 -6 2 -25 -2 -43 -10 -18 -7 -52 -13 -77 -13
-47 0 -56 9 -56 60 0 37 -31 46 -59 16z"/>
<path d="M399 5451 c12 -8 13 -16 3 -47 -7 -24 -7 -33 -1 -27 17 17 16 75 -1
80 -13 4 -13 3 -1 -6z"/>
<path d="M6220 5444 c0 -14 22 -34 37 -34 8 0 26 -9 42 -21 21 -15 39 -19 72
-16 l44 4 -46 1 c-32 1 -52 8 -64 22 -10 11 -25 20 -33 20 -9 0 -24 7 -34 17
-10 9 -18 12 -18 7z"/>
<path d="M5675 5422 c-9 -9 -5 -42 4 -42 5 0 7 9 4 19 -5 18 -2 19 33 9 22 -6
53 -24 69 -40 38 -35 57 -37 25 -3 -22 23 -22 25 -5 32 24 9 70 8 117 -2 45
-9 138 3 118 15 -8 5 -22 4 -31 -1 -24 -12 -70 -11 -122 3 -36 9 -49 9 -75 -4
-17 -9 -34 -13 -37 -10 -9 10 -94 30 -100 24z"/>
<path d="M4461 5399 c-10 -11 -63 -43 -117 -70 -54 -27 -105 -55 -113 -62 -9
-7 -38 -24 -66 -36 -27 -13 -63 -30 -78 -37 -16 -8 -37 -14 -47 -14 -10 0 -33
-7 -51 -15 -27 -11 -30 -14 -12 -15 12 0 25 5 28 10 4 6 19 9 35 8 15 -1 34 3
42 9 7 6 33 19 58 29 25 10 63 29 85 44 22 15 83 48 135 73 85 42 160 97 131
97 -5 0 -19 -9 -30 -21z"/>
<path d="M205 5371 c-3 -16 -15 -37 -26 -47 -10 -9 -19 -21 -19 -26 0 -5 -16
-43 -35 -84 -19 -41 -35 -81 -35 -88 0 -7 -6 -19 -14 -25 -8 -7 -18 -27 -22
-44 -3 -18 -15 -50 -27 -72 -16 -31 -18 -45 -9 -67 7 -20 6 -32 -5 -48 -8 -12
-13 -24 -10 -27 3 -2 13 6 21 20 13 19 14 30 6 51 -12 33 2 74 99 277 17 37
31 71 31 77 0 6 12 24 26 41 14 17 28 44 30 61 7 38 -2 39 -11 1z"/>
<path d="M685 5331 l-70 -6 63 -5 c44 -4 67 -1 74 8 6 6 9 11 7 10 -2 -1 -35
-4 -74 -7z"/>
<path d="M426 5304 c-21 -8 -49 -23 -63 -34 -14 -11 -34 -20 -44 -20 -14 0
-17 -6 -13 -27 7 -38 10 -39 47 -20 55 29 152 87 146 87 -16 0 -88 -35 -127
-62 -35 -24 -46 -28 -53 -17 -6 10 0 18 19 28 15 8 37 22 50 32 13 10 36 21
52 24 17 4 32 11 35 16 8 11 0 10 -49 -7z"/>
<path d="M222 5268 c-7 -7 -12 -16 -12 -21 0 -21 -73 -154 -93 -169 -12 -10
-17 -18 -11 -18 20 0 49 36 78 98 25 53 32 60 48 51 15 -8 20 -5 28 16 6 15
14 23 20 20 5 -3 10 1 10 10 0 13 -4 14 -20 5 -11 -6 -20 -17 -20 -25 0 -8 -4
-15 -9 -15 -17 0 -22 19 -11 40 12 23 10 26 -8 8z"/>
<path d="M1295 5224 l-38 -55 11 -100 c6 -55 15 -106 20 -112 5 -7 14 -37 20
-67 22 -116 34 -177 44 -240 5 -36 13 -78 18 -95 16 -61 -2 80 -21 163 -10 46
-19 94 -19 107 0 25 -21 113 -38 155 -16 41 -26 196 -13 204 17 11 73 96 63
96 -5 0 -26 -25 -47 -56z"/>
<path d="M3705 5213 c-160 -145 -210 -190 -245 -217 -45 -34 -55 -58 -12 -28
30 22 141 118 157 137 6 6 42 39 81 73 56 49 73 59 84 49 10 -9 12 -9 8 3 -8
26 -32 21 -73 -17z"/>
<path d="M228 5147 c-19 -23 -47 -57 -62 -74 -15 -18 -23 -33 -18 -33 12 0
127 139 120 145 -2 3 -20 -15 -40 -38z"/>
<path d="M6050 5174 c0 -9 -10 -32 -21 -51 -17 -27 -22 -49 -20 -94 1 -33 6
-70 11 -83 31 -83 229 -226 268 -194 18 16 15 32 -10 47 -13 8 -60 43 -104 78
-69 54 -84 71 -94 107 -6 23 -10 56 -8 72 3 27 6 29 50 30 30 1 52 -3 59 -12
6 -8 25 -14 41 -14 33 0 58 -12 108 -51 38 -29 87 -49 76 -30 -4 6 -13 11 -19
11 -7 0 -28 13 -47 28 -48 40 -74 52 -108 52 -16 0 -35 7 -42 15 -8 10 -29 14
-69 12 -54 -2 -56 -3 -59 -32 -2 -16 2 -54 9 -82 11 -50 17 -57 102 -123 49
-39 96 -74 105 -79 8 -5 12 -13 8 -19 -23 -37 -227 116 -256 193 -20 52 -15
119 13 166 28 48 34 69 17 69 -5 0 -10 -7 -10 -16z"/>
<path d="M842 5164 c-19 -8 -66 -19 -105 -24 l-72 -9 70 4 c39 2 94 12 123 21
41 13 55 15 65 5 9 -9 9 -14 -3 -21 -36 -23 -122 -43 -204 -46 -49 -2 -92 -6
-95 -10 -15 -16 188 5 252 26 58 20 68 26 65 44 -4 26 -49 31 -96 10z"/>
<path d="M5250 5113 c-13 -19 -32 -38 -41 -42 -15 -5 -16 -9 -3 -36 8 -16 12
-21 9 -9 -7 30 61 106 75 84 5 -8 10 -10 10 -5 -1 6 -6 17 -13 27 -12 14 -15
13 -37 -19z"/>
<path d="M947 5103 c-13 -13 -7 -25 7 -14 9 7 17 8 20 2 3 -5 0 -12 -6 -15 -8
-3 -7 -5 2 -3 13 2 250 -197 250 -209 0 -2 -21 -25 -48 -51 -80 -81 -152 -163
-152 -174 0 -9 44 36 144 149 21 23 44 42 52 42 18 0 29 -65 17 -105 -9 -27
-7 -34 8 -43 28 -18 47 -14 21 4 -22 15 -30 44 -13 44 4 0 4 21 -2 48 -5 26
-10 58 -11 71 -1 18 -32 52 -113 124 -62 54 -113 102 -113 106 0 4 -11 13 -25
19 -30 14 -30 14 -38 5z"/>
<path d="M4275 5007 c-75 -71 -82 -77 -90 -77 -4 0 -31 -20 -59 -43 -85 -72
-165 -137 -171 -137 -3 0 -56 -25 -118 -55 -143 -70 -233 -88 -293 -59 -29 14
-41 27 -45 49 l-7 30 -1 -27 c-4 -100 159 -98 366 2 57 28 105 50 108 50 6 0
86 64 171 137 28 23 55 43 59 43 4 0 17 9 29 20 12 11 39 35 60 53 21 19 37
38 35 43 -2 5 -22 -8 -44 -29z"/>
<path d="M4100 4986 c-69 -24 -234 -115 -311 -172 -26 -19 -52 -34 -58 -34 -6
0 -19 -4 -29 -10 -9 -5 -44 -19 -77 -30 -32 -11 -63 -27 -68 -35 -4 -8 -15
-15 -22 -15 -8 0 -15 -4 -15 -10 0 -13 31 -1 52 21 10 10 45 26 78 35 33 9 63
21 66 25 3 5 12 9 21 9 8 0 36 15 62 34 43 31 186 118 256 154 17 9 57 24 90
33 33 10 51 18 40 18 -11 0 -49 -10 -85 -23z"/>
<path d="M5570 4976 c-28 -30 -39 -85 -40 -192 0 -91 -6 -99 -59 -84 -17 5
-31 5 -31 1 0 -14 73 -21 87 -9 9 7 13 37 13 92 1 137 29 207 79 191 29 -9 27
-30 -13 -108 -29 -59 -32 -72 -25 -109 4 -24 8 -47 9 -51 1 -17 45 -24 65 -11
11 8 40 14 65 14 43 0 47 2 74 46 l29 46 -21 43 c-33 67 -39 115 -17 132 18
12 17 13 -4 13 -23 0 -24 -2 -17 -57 4 -31 16 -73 27 -93 l21 -37 -29 -41
c-25 -37 -32 -41 -70 -42 -23 0 -54 -5 -69 -12 -23 -11 -28 -10 -40 7 -24 32
-17 88 19 156 27 51 40 65 65 71 29 8 65 48 43 48 -5 0 -11 -6 -14 -14 -3 -7
-19 -18 -36 -24 -29 -10 -31 -9 -31 13 0 18 -4 23 -15 19 -8 -4 -15 -1 -15 5
0 19 -26 12 -50 -13z"/>
<path d="M5974 4888 c2 -7 9 -35 17 -62 l14 -48 101 -49 c56 -27 108 -49 115
-49 7 0 33 -13 58 -29 25 -17 66 -33 91 -36 l45 -5 -45 13 c-25 7 -63 25 -85
40 -22 15 -48 27 -58 27 -15 0 -69 25 -183 84 -24 12 -33 26 -43 66 -7 27 -17
52 -21 55 -5 3 -7 -1 -6 -7z"/>
<path d="M4227 4812 c-14 -21 -79 -89 -146 -150 -66 -62 -115 -112 -108 -112
16 0 250 226 273 263 26 43 10 42 -19 -1z"/>
<path d="M2070 4825 c-14 -8 -52 -28 -86 -45 -57 -28 -63 -35 -97 -104 -21
-41 -37 -78 -37 -84 0 -6 -6 -17 -12 -24 -7 -7 -26 -30 -42 -51 -23 -32 -26
-41 -15 -50 8 -7 11 -8 7 -3 -6 7 34 71 54 86 3 3 14 25 24 50 9 25 23 52 29
60 7 8 17 29 22 45 7 23 26 39 79 67 85 47 111 58 130 58 24 0 185 -93 200
-115 21 -33 29 -94 12 -100 -30 -12 -182 21 -222 48 -21 15 -42 27 -47 27 -4
0 -21 -11 -37 -25 -17 -14 -38 -25 -48 -25 -12 0 -30 -18 -47 -45 -16 -25 -56
-70 -89 -100 l-61 -54 12 -45 c16 -65 14 -88 -14 -121 l-24 -30 -1 28 c0 15
-9 36 -19 46 -10 10 -22 29 -26 41 -4 12 -23 39 -42 61 -40 44 -39 48 38 142
45 53 47 59 36 84 -10 23 -9 28 22 53 35 30 80 44 95 30 9 -9 -29 -82 -92
-178 -19 -29 -32 -55 -29 -58 12 -12 137 206 137 241 0 14 -6 16 -42 10 -24
-4 -58 -18 -76 -32 -30 -23 -33 -29 -27 -60 5 -31 1 -40 -39 -88 -72 -84 -77
-114 -28 -158 11 -10 26 -33 33 -50 7 -18 21 -38 31 -45 10 -8 18 -26 18 -43
0 -42 29 -35 55 13 17 33 18 42 7 94 l-12 57 59 54 c33 29 72 73 88 98 15 25
35 45 44 45 8 0 30 11 49 25 l33 25 34 -26 c26 -19 57 -29 134 -41 122 -19
127 -16 110 61 -14 63 -24 73 -138 130 -79 39 -105 43 -143 21z"/>
<path d="M4190 4698 c-45 -68 -95 -137 -112 -154 -29 -31 -30 -31 -74 -18 -24
7 -44 10 -44 5 0 -4 21 -12 46 -18 41 -10 48 -8 74 13 31 26 205 283 197 291
-3 2 -42 -51 -87 -119z"/>
<path d="M5378 4790 c-36 -35 -43 -36 -57 -12 -13 21 -14 8 -2 -16 5 -9 28
-57 51 -107 24 -49 47 -99 53 -110 5 -11 13 -31 18 -45 5 -17 8 -19 8 -7 1 20
-22 76 -74 181 -27 53 -32 72 -23 78 18 11 28 10 28 -2 0 -5 5 -10 11 -10 8 0
8 5 -1 15 -11 13 -9 19 11 36 27 23 72 22 77 -3 4 -19 -40 -38 -46 -19 -2 6
-7 11 -12 11 -4 0 -3 -11 3 -23 11 -23 12 -23 39 -8 31 18 38 55 12 65 -33 13
-65 5 -96 -24z"/>
<path d="M3133 4732 c-12 -2 -27 -9 -33 -17 -8 -10 -19 -11 -43 -4 -49 14 -59
11 -55 -13 2 -18 -1 -22 -16 -20 -16 3 -14 -2 9 -27 31 -32 50 -34 21 -2 -11
12 -13 21 -7 25 6 4 8 13 4 21 -6 16 6 18 47 6 17 -5 36 -2 59 10 41 22 74 12
111 -31 20 -23 36 -31 75 -35 96 -11 170 -27 193 -42 13 -8 26 -12 29 -10 16
17 -93 47 -217 62 -34 4 -51 12 -70 35 -26 31 -69 48 -107 42z"/>
<path d="M4309 4708 c-60 -116 -129 -238 -168 -298 -53 -82 -59 -92 -75 -125
-9 -16 -68 -109 -131 -205 -64 -96 -120 -182 -123 -190 -6 -16 -74 -124 -177
-280 -35 -52 -87 -135 -118 -185 -30 -49 -87 -143 -127 -208 -40 -65 -70 -120
-67 -123 4 -5 45 60 204 321 31 50 83 133 118 185 103 156 171 264 177 280 3
8 59 94 123 190 63 96 122 189 131 205 15 32 16 33 82 138 75 117 176 306 168
314 -2 3 -10 -6 -17 -19z"/>
<path d="M1630 4671 c-31 -9 -84 -94 -110 -180 -26 -82 -25 -102 5 -159 14
-26 25 -54 25 -63 0 -13 59 -75 90 -94 11 -7 50 66 50 92 0 10 -18 46 -40 81
-51 80 -51 108 0 219 50 108 47 123 -20 104z m44 -10 c4 -5 -12 -47 -34 -92
-53 -109 -53 -142 1 -232 l41 -69 -17 -39 c-10 -21 -19 -39 -21 -39 -13 0 -84
78 -89 98 -3 15 -16 46 -28 69 -21 42 -21 44 -5 106 31 120 125 242 152 198z"/>
<path d="M1481 4657 c-14 -6 -34 -32 -46 -56 -12 -24 -29 -47 -36 -52 -11 -7
-10 -9 3 -9 11 0 26 17 39 46 23 47 60 80 81 71 7 -2 22 -1 33 4 16 6 13 8
-15 8 -19 0 -46 -5 -59 -12z"/>
<path d="M2820 4649 c0 -21 69 -221 80 -233 6 -6 25 -2 50 9 31 14 43 16 52 7
9 -9 7 -12 -9 -12 -58 0 -22 -66 64 -116 23 -14 48 -35 56 -47 8 -12 45 -58
83 -102 68 -78 190 -254 215 -308 7 -15 19 -27 28 -26 51 2 148 239 136 332
-5 33 -14 52 -28 62 -28 18 -117 48 -124 42 -2 -3 6 -8 19 -12 13 -4 44 -16
70 -27 44 -19 47 -22 53 -66 5 -38 0 -66 -25 -140 -27 -80 -82 -179 -101 -181
-3 -1 -11 11 -18 26 -25 54 -147 230 -215 308 -38 44 -75 90 -83 102 -8 12
-33 33 -56 47 -23 13 -55 38 -71 55 l-30 31 33 11 c25 9 29 14 20 25 -15 18
-37 18 -73 -1 -17 -9 -33 -12 -38 -7 -5 5 -27 60 -48 123 -22 63 -40 107 -40
98z"/>
<path d="M3215 4598 c28 -48 34 -148 14 -209 -16 -48 -24 -54 -50 -35 -13 9
-31 16 -41 16 -26 0 -22 18 5 23 19 4 18 4 -5 6 -22 1 -28 6 -29 24 -1 17 -3
15 -8 -8 -5 -24 -11 -30 -31 -28 -22 2 -23 1 -7 -8 13 -8 22 -7 31 0 10 9 15
8 20 -4 3 -8 1 -15 -4 -15 -6 0 -9 -10 -9 -22 1 -16 3 -18 6 -6 6 25 33 30 60
13 36 -24 54 -15 69 35 20 66 17 167 -6 218 -10 23 -23 42 -29 42 -5 0 1 -19
14 -42z"/>
<path d="M1511 4620 c15 -9 14 -19 -18 -102 -30 -81 -34 -101 -29 -153 5 -52
4 -62 -13 -75 -19 -14 -20 -21 -10 -125 6 -60 15 -117 20 -126 5 -10 10 -35
11 -56 l1 -38 4 34 c3 18 0 45 -6 60 -6 14 -15 71 -20 126 -8 89 -7 101 7 113
13 10 17 31 18 95 1 68 6 96 32 160 38 93 38 97 10 97 -20 -1 -21 -2 -7 -10z"/>
<path d="M6150 4615 c0 -2 17 -13 38 -24 36 -18 211 -56 220 -47 4 4 -20 10
-118 26 -36 6 -80 20 -98 31 -34 20 -42 22 -42 14z"/>
<path d="M1346 4474 c3 -22 12 -64 19 -94 7 -30 16 -77 20 -105 7 -52 21 -130
54 -300 11 -55 17 -103 15 -107 -3 -5 -21 -8 -40 -8 -19 0 -51 -7 -70 -15 -28
-12 -40 -12 -57 -3 -24 12 -232 12 -251 0 -6 -4 -67 -8 -136 -8 -69 -1 -137
-6 -152 -12 -15 -6 -81 -14 -145 -16 -65 -3 -132 -10 -150 -15 -17 -5 -71 -12
-120 -16 -153 -11 -317 -35 -327 -46 -8 -9 -8 -10 1 -5 14 8 206 32 326 41 49
4 103 11 120 16 18 5 88 12 156 15 68 3 134 10 145 16 12 7 75 12 151 12 72 1
135 4 141 8 19 13 218 12 241 0 18 -10 30 -9 59 3 20 8 51 15 69 15 50 0 55
14 38 100 -21 112 -42 225 -58 320 -26 150 -43 231 -48 237 -4 3 -4 -12 -1
-33z"/>
<path d="M2080 4340 c0 -5 12 -10 28 -10 33 0 250 -66 269 -81 9 -9 13 -8 13
0 0 14 -18 21 -150 59 -141 40 -160 44 -160 32z"/>
<path d="M5580 4282 c0 -19 29 -72 40 -72 6 0 10 -7 10 -15 0 -8 44 -102 98
-207 115 -229 110 -218 83 -194 -11 11 -21 15 -21 9 0 -5 9 -18 20 -28 18 -16
20 -16 26 -1 9 24 27 19 21 -6 -4 -15 12 -57 49 -131 30 -60 53 -114 51 -120
-2 -6 -23 28 -47 76 -24 48 -45 86 -46 84 -2 -2 17 -45 41 -95 29 -58 50 -89
58 -86 12 4 31 -29 179 -319 22 -43 42 -77 44 -74 5 5 -183 377 -202 398 -8 8
-14 21 -14 27 0 7 -22 55 -50 108 -27 53 -50 109 -50 124 0 19 -7 33 -20 40
-11 6 -28 27 -38 48 -10 20 -53 105 -95 189 -43 84 -77 155 -77 158 0 3 9 15
20 27 11 12 17 24 14 27 -3 3 -13 -5 -23 -18 l-18 -24 -16 24 c-8 13 -19 33
-25 44 -6 11 -12 14 -12 7z"/>
<path d="M3820 4224 c0 -5 7 -19 15 -30 21 -28 19 -39 -22 -102 -20 -31 -57
-93 -83 -137 -52 -87 -83 -121 -100 -110 -21 13 -64 90 -61 110 1 11 13 55 26
97 14 43 22 83 20 91 -3 7 0 21 8 30 12 17 14 17 40 -3 15 -12 27 -17 27 -12
0 11 -18 27 -42 35 -23 8 -51 -21 -44 -46 2 -11 -6 -54 -18 -96 -37 -121 -37
-118 -4 -167 40 -60 65 -69 94 -35 38 46 184 296 184 317 0 20 -39 77 -40 58z"/>
<path d="M2720 4104 c0 -16 48 -235 73 -334 13 -52 30 -126 37 -165 7 -38 18
-92 26 -120 74 -273 127 -560 141 -761 7 -107 -9 -268 -43 -442 -27 -138 -88
-361 -110 -403 -8 -16 -14 -34 -14 -41 1 -28 42 82 75 198 72 256 112 528 102
688 -14 201 -67 488 -141 761 -8 28 -19 82 -26 120 -7 39 -24 113 -37 165 -13
52 -35 149 -49 214 -21 105 -34 150 -34 120z"/>
<path d="M2050 3948 c-83 -21 -85 -22 -75 -38 5 -8 10 -7 18 3 7 8 40 20 75
27 34 7 65 17 68 21 6 11 6 11 -86 -13z"/>
<path d="M1501 3924 c0 -21 4 -48 9 -59 5 -12 6 1 3 35 -7 66 -13 79 -12 24z"/>
<path d="M2780 3947 c0 -4 49 -203 109 -444 60 -241 114 -460 120 -488 43
-201 43 -428 0 -630 -16 -77 -32 -153 -34 -170 l-4 -30 9 30 c5 17 23 93 39
170 43 203 43 429 0 630 -21 97 -230 929 -234 934 -3 2 -5 1 -5 -2z"/>
<path d="M1490 3824 c0 -16 5 -36 10 -44 6 -10 7 -2 3 25 -7 49 -13 58 -13 19z"/>
<path d="M1163 3788 c-50 -37 -93 -42 -110 -13 -9 15 -12 16 -13 5 0 -9 5 -21
11 -27 8 -8 5 -17 -11 -35 -12 -12 -26 -33 -31 -45 -9 -24 -29 -32 -29 -12 0
6 9 22 20 36 15 20 17 29 9 39 -17 20 -33 17 -57 -11 -12 -14 -27 -25 -34 -25
-11 0 20 41 52 67 9 7 10 12 4 13 -7 0 -28 -19 -48 -42 -19 -24 -44 -53 -56
-66 -11 -12 -23 -34 -26 -47 -3 -14 -10 -25 -15 -25 -12 0 -12 -37 0 -44 15
-10 32 21 26 47 -5 18 -1 30 16 46 27 25 39 19 15 -8 -17 -19 -17 -20 3 -18
11 0 18 3 16 5 -7 7 21 55 49 84 16 17 32 25 42 21 13 -5 12 -9 -6 -28 -24
-25 -24 -70 -1 -70 8 0 19 9 25 20 29 54 38 65 46 60 12 -7 -23 -76 -52 -101
-14 -11 -40 -52 -59 -90 -19 -38 -37 -71 -40 -74 -3 -3 -16 -27 -30 -55 -13
-27 -34 -61 -46 -73 -26 -28 -39 -67 -48 -145 -5 -45 -9 -56 -19 -48 -13 11
-26 5 -26 -10 0 -5 7 -6 16 -2 13 5 15 2 9 -18 -11 -37 10 -10 24 30 6 19 11
52 11 75 0 41 29 103 56 119 8 4 14 16 14 25 0 10 5 23 10 28 6 6 18 26 28 45
70 132 95 174 117 190 13 11 27 30 31 42 15 49 136 157 176 157 18 0 -40 -57
-71 -70 -34 -14 -71 -72 -70 -107 1 -20 3 -22 6 -8 11 50 61 115 89 115 9 0
74 64 74 73 0 1 -12 4 -27 4 -18 2 -44 -10 -70 -29z m-63 -47 c0 -13 -26 -32
-33 -24 -8 7 11 33 24 33 5 0 9 -4 9 -9z m-185 -50 c3 -5 1 -12 -5 -16 -5 -3
-10 1 -10 9 0 18 6 21 15 7z m-73 -113 c-7 -7 -12 -8 -12 -2 0 14 12 26 19 19
2 -3 -1 -11 -7 -17z"/>
<path d="M855 3800 c-11 -4 -37 -24 -59 -44 -21 -20 -41 -36 -43 -36 -8 0 -58
-54 -83 -90 -13 -19 -43 -57 -67 -84 -24 -26 -46 -59 -49 -72 -3 -13 -10 -24
-16 -24 -5 0 -15 -15 -23 -34 -8 -19 -20 -38 -26 -42 -20 -12 -49 -89 -49
-132 0 -36 -3 -43 -17 -40 -10 2 -24 14 -31 28 l-14 25 6 -25 c3 -14 6 -28 6
-32 0 -5 15 -8 33 -8 32 0 33 1 29 36 -5 41 20 114 48 139 11 10 20 26 20 36
0 10 8 24 18 31 10 7 24 27 31 44 7 17 28 47 48 65 l36 34 -5 -27 c-3 -16 -1
-25 4 -21 6 3 8 18 5 33 -8 38 44 102 157 193 48 38 65 47 86 42 19 -4 21 -3
10 5 -18 12 -28 12 -55 0z"/>
<path d="M1337 3781 c-14 -17 -27 -36 -30 -43 -2 -7 -8 -10 -12 -5 -5 4 2 22
14 40 18 26 15 24 -14 -8 -37 -42 -43 -51 -87 -133 -30 -55 -51 -76 -47 -46 4
26 -10 64 -23 64 -7 0 -7 -4 -1 -12 19 -24 23 -92 8 -112 -8 -11 -15 -28 -15
-38 0 -10 -11 -28 -25 -40 -14 -12 -25 -31 -25 -43 0 -11 -16 -45 -35 -75 -19
-30 -35 -66 -35 -81 0 -14 -5 -30 -11 -36 -6 -6 -13 -28 -16 -49 -2 -22 -15
-63 -29 -92 -13 -29 -24 -58 -24 -65 0 -7 -4 -17 -9 -22 -13 -14 -30 -104 -21
-110 4 -3 10 14 13 38 3 23 13 60 23 82 16 34 19 37 22 18 5 -32 18 -29 17 5
0 22 4 27 23 26 12 0 22 5 22 13 0 7 4 21 9 31 5 9 14 30 20 46 7 16 14 26 17
24 5 -5 -10 -80 -21 -110 -4 -9 0 -15 9 -15 8 0 12 6 10 12 -3 6 0 33 6 60 8
35 8 51 0 59 -8 8 -15 7 -23 -5 -18 -24 -57 -7 -50 21 3 11 9 23 14 26 5 3 9
17 9 32 0 15 11 43 24 62 12 19 29 53 37 75 7 22 24 53 36 68 13 16 23 37 23
47 0 18 27 47 36 38 4 -5 -17 -62 -37 -98 -42 -76 -49 -95 -44 -108 5 -13 8
-12 24 2 11 10 25 31 32 47 9 22 14 27 20 17 7 -10 9 -9 9 5 0 29 -18 19 -41
-23 -43 -77 -39 -39 6 49 25 49 45 92 45 96 0 4 8 19 18 33 23 36 55 105 44
98 -5 -3 -17 -23 -27 -46 -10 -22 -22 -37 -27 -32 -4 4 6 34 23 65 24 45 34
55 44 47 10 -8 18 -2 36 27 12 21 34 50 47 65 14 15 23 30 20 33 -3 3 -17 -8
-31 -24z m-51 -79 c-8 -9 -19 -13 -22 -9 -10 9 16 38 28 31 6 -4 4 -13 -6 -22z
m-95 -155 c-13 -13 -26 -3 -16 12 3 6 11 8 17 5 6 -4 6 -10 -1 -17z m-168
-410 c4 3 7 -5 7 -18 -1 -32 -25 -63 -44 -56 -9 4 -15 1 -13 -5 1 -6 -4 -13
-11 -15 -9 -4 -7 8 7 36 12 22 21 48 21 57 0 13 3 14 13 5 8 -6 17 -8 20 -4z"/>
<path d="M1446 3755 c-9 -14 -21 -23 -27 -20 -5 4 -8 1 -7 -7 2 -8 -10 -14
-34 -16 -26 -2 -38 -8 -38 -18 0 -9 -13 -21 -30 -27 -37 -14 -38 -22 -5 -22
18 0 29 8 38 28 12 28 57 40 57 15 0 -26 -32 -104 -54 -133 -12 -16 -37 -66
-55 -109 -36 -87 -40 -95 -66 -144 -9 -18 -15 -36 -12 -39 6 -5 67 112 67 128
0 16 54 124 77 156 13 17 32 58 41 90 9 33 31 76 49 97 l31 38 7 -68 c4 -38
10 -83 15 -100 9 -36 3 -80 -15 -109 -18 -28 -28 -78 -15 -70 5 3 10 16 10 28
1 32 23 58 41 46 8 -5 9 -9 3 -9 -6 0 -16 -25 -23 -56 -12 -52 -29 -97 -50
-134 -18 -32 -31 -90 -26 -113 5 -17 2 -26 -9 -30 -9 -4 -16 -17 -16 -31 0
-14 -4 -28 -10 -31 -13 -8 -13 -35 1 -35 5 0 8 4 4 9 -3 5 -1 12 5 16 5 3 10
17 10 30 0 13 7 28 16 33 12 7 15 18 11 37 -5 31 3 64 37 140 13 28 32 78 43
113 17 52 18 64 7 73 -16 13 -19 39 -4 39 6 0 6 8 0 23 -6 12 -16 62 -23 111
-6 49 -17 91 -23 93 -6 2 -19 -8 -28 -22z"/>
<path d="M520 3755 c-7 -8 -18 -15 -25 -15 -7 0 -33 -11 -56 -25 -51 -29 -63
-31 -55 -10 3 8 1 15 -3 15 -14 0 -21 -28 -8 -33 15 -5 -2 -27 -56 -69 l-40
-32 7 29 7 30 -17 -24 c-14 -19 -14 -25 -3 -32 11 -7 11 -12 2 -26 -6 -10 -16
-17 -23 -15 -6 1 -8 -2 -5 -8 4 -7 -2 -21 -13 -33 -29 -32 -63 -97 -57 -108 4
-5 -3 -21 -14 -35 -12 -15 -21 -35 -21 -45 0 -24 -17 -25 -23 -1 -4 13 -5 11
-6 -5 0 -13 4 -23 10 -23 7 0 9 -10 5 -26 -4 -15 -3 -23 2 -20 5 3 15 26 21
52 7 25 18 56 27 69 8 12 12 28 9 36 -3 8 20 47 50 86 30 40 55 76 55 79 0 22
178 164 204 164 17 0 2 -28 -23 -43 -40 -24 -131 -107 -131 -120 0 -6 19 7 43
29 23 22 64 57 90 78 29 23 46 44 43 52 -3 7 5 20 17 29 12 8 16 15 10 15 -6
0 -16 -7 -23 -15z"/>
<path d="M682 3737 c-30 -32 -28 -46 3 -17 46 43 37 13 -12 -38 -68 -72 -86
-92 -106 -126 -10 -16 -25 -35 -33 -43 -8 -8 -14 -20 -14 -26 -1 -22 -35 -53
-59 -54 -13 -1 -31 -8 -38 -16 -13 -12 -12 -15 1 -20 9 -4 15 -1 13 6 -1 7 10
13 24 15 25 3 83 55 73 65 -8 7 64 104 81 111 8 3 15 11 15 18 0 7 25 39 56
71 30 31 50 57 44 57 -6 0 -8 5 -5 10 12 20 -22 9 -43 -13z"/>
<path d="M102 3704 c-23 -14 -47 -22 -54 -18 -7 4 -8 3 -4 -5 4 -6 2 -18 -4
-27 -11 -12 -14 -12 -26 3 -13 17 -13 17 -14 1 0 -10 5 -18 11 -18 8 0 8 -5
-1 -15 -26 -31 5 -13 39 23 20 21 51 45 69 53 18 7 32 17 32 21 0 11 0 11 -48
-18z"/>
<path d="M2130 3703 c0 -4 28 -9 61 -11 34 -2 78 -9 97 -17 19 -8 49 -15 66
-15 17 0 42 -7 54 -16 13 -9 26 -14 29 -11 6 7 76 -17 120 -40 18 -9 62 -50
99 -91 36 -40 69 -71 71 -68 9 9 -127 151 -160 168 -29 15 -88 36 -120 42 -7
2 -25 8 -40 14 -16 7 -39 12 -51 12 -13 0 -41 6 -62 14 -48 16 -164 30 -164
19z"/>
<path d="M163 3633 c-57 -61 -79 -103 -53 -103 5 0 7 6 4 13 -3 8 25 45 63 85
37 40 64 72 59 72 -5 0 -38 -30 -73 -67z"/>
<path d="M1361 3659 c-7 -19 -19 -45 -26 -59 -40 -71 -135 -275 -132 -283 1
-5 18 24 36 64 18 41 46 99 62 129 51 96 80 162 76 173 -2 6 -9 -5 -16 -24z"/>
<path d="M1526 3655 c2 -22 7 -64 11 -93 3 -29 9 -54 13 -57 8 -5 -5 92 -19
150 l-11 40 6 -40z"/>
<path d="M429 3617 c-9 -7 -14 -17 -12 -24 5 -13 -31 -36 -40 -27 -3 3 -3 -3
0 -15 4 -15 -4 -29 -26 -50 -17 -16 -31 -38 -31 -48 0 -25 -19 -43 -44 -43
-12 0 -34 -9 -51 -20 -16 -11 -23 -20 -15 -20 8 1 24 7 34 15 11 8 29 15 41
15 24 0 53 30 47 48 -2 7 10 25 27 41 17 16 31 36 31 45 0 8 6 19 13 23 14 9
50 63 45 68 -2 2 -10 -2 -19 -8z"/>
<path d="M954 3611 c3 -5 -3 -20 -14 -34 -11 -14 -28 -43 -36 -64 -9 -21 -29
-57 -46 -80 -33 -49 -62 -113 -51 -113 5 0 18 22 31 48 28 57 72 138 106 197
29 49 31 55 15 55 -5 0 -8 -4 -5 -9z"/>
<path d="M1288 3574 c-54 -100 -89 -176 -85 -180 3 -3 24 35 48 83 23 48 49
96 57 105 8 9 12 22 10 29 -2 6 -16 -10 -30 -37z"/>
<path d="M460 3591 c0 -4 -18 -31 -40 -59 -22 -27 -40 -55 -40 -62 0 -7 -18
-32 -40 -57 -22 -25 -40 -51 -40 -57 0 -6 18 9 40 34 21 25 39 39 40 31 0 -16
-47 -74 -69 -83 -15 -6 -15 -7 0 -7 29 -2 77 63 77 103 0 27 10 49 41 87 36
45 51 79 36 79 -3 0 -5 -4 -5 -9z"/>
<path d="M39 3543 c0 -16 -2 -38 -3 -50 -1 -12 0 -20 4 -18 8 5 13 95 5 95 -3
0 -5 -12 -6 -27z"/>
<path d="M734 3561 c5 -7 1 -20 -8 -30 -15 -16 -15 -19 -2 -24 9 -4 15 -3 14
1 -2 12 14 42 23 42 16 0 9 -21 -21 -67 -16 -24 -30 -47 -30 -50 0 -3 -12 -17
-26 -30 l-27 -25 -26 27 c-24 24 -25 27 -8 36 9 6 17 16 17 24 0 8 10 21 22
29 18 13 19 16 5 16 -9 0 -23 -13 -32 -30 -9 -16 -20 -30 -25 -30 -14 0 -12
17 3 23 7 3 4 6 -6 6 -16 1 -18 -4 -12 -31 9 -38 40 -72 73 -81 18 -4 22 -2
18 8 -3 8 2 18 10 23 15 8 33 35 53 77 5 12 16 26 24 33 15 13 12 52 -3 52 -5
0 -16 3 -26 7 -12 4 -15 3 -10 -6z"/>
<path d="M810 3530 c0 -5 -8 -17 -18 -27 -10 -10 -25 -34 -32 -53 -8 -19 -24
-51 -37 -70 -13 -19 -23 -39 -23 -45 0 -6 -11 -30 -24 -55 -21 -40 -22 -48
-10 -64 13 -18 14 -17 25 10 6 16 11 42 11 59 -1 22 2 26 9 15 7 -11 8 -6 4
17 -7 35 10 55 20 23 4 -11 -5 -52 -19 -94 -30 -85 -30 -86 -15 -86 5 0 8 3 5
8 -8 13 32 117 45 117 7 0 14 7 16 15 4 13 3 13 -6 0 -9 -12 -11 -9 -11 16 0
16 -4 34 -9 40 -11 10 34 111 62 138 16 16 24 46 12 46 -3 0 -5 -4 -5 -10z
m-123 -279 c-6 -17 -14 -28 -19 -25 -8 5 12 54 23 54 4 0 2 -13 -4 -29z"/>
<path d="M1010 3495 c-19 -6 -39 -21 -45 -33 -5 -12 -15 -22 -21 -22 -6 0 -11
-23 -13 -52 -1 -35 -8 -56 -19 -65 -10 -7 -12 -13 -5 -13 6 0 15 5 18 10 4 6
12 4 21 -5 9 -8 22 -15 31 -15 10 0 13 -5 8 -17 -16 -39 -44 -147 -40 -151 5
-5 6 -2 28 78 8 30 18 63 22 72 5 12 -2 21 -24 33 -28 14 -31 20 -31 61 0 30
5 46 15 50 8 4 15 12 15 19 0 18 26 37 63 44 17 4 27 9 22 13 -6 3 -26 0 -45
-7z"/>
<path d="M1196 3499 c-2 -8 -9 -30 -15 -49 -7 -19 -8 -30 -3 -25 13 14 33 77
27 83 -2 3 -6 -1 -9 -9z"/>
<path d="M30 3413 c-16 -27 -21 -48 -17 -74 2 -19 0 -43 -5 -52 -6 -11 -5 -17
2 -17 11 0 14 18 11 67 -3 36 6 56 20 48 5 -4 5 -14 -1 -26 -6 -11 -7 -19 -2
-19 14 0 21 37 10 48 -16 16 10 54 32 47 10 -3 21 -2 23 3 3 4 -7 9 -23 10
-23 2 -32 -5 -50 -35z"/>
<path d="M585 3333 c-4 -15 -10 -22 -12 -15 -16 41 -103 -26 -103 -80 0 -29 2
-30 33 -25 17 4 42 9 55 13 16 5 22 2 22 -10 0 -11 -9 -16 -30 -16 -23 0 -30
-4 -30 -20 0 -11 4 -20 10 -20 5 0 7 7 3 16 -5 14 -1 16 25 12 33 -5 36 0 35
65 0 9 4 17 8 17 4 0 14 14 23 31 14 27 14 31 -2 36 -9 4 -20 11 -23 16 -4 5
-10 -4 -14 -20z m23 -35 c-12 -18 -22 -40 -20 -48 1 -10 -6 -15 -20 -16 -13 0
-38 -4 -55 -8 -30 -7 -33 -5 -33 16 0 13 13 35 29 51 30 28 51 35 51 16 0 -6
-7 -9 -15 -5 -8 3 -14 0 -12 -6 1 -6 -9 -18 -23 -25 l-25 -15 28 7 c19 4 26 2
22 -5 -8 -13 5 -13 25 0 13 8 12 10 -4 10 -16 0 -14 4 10 29 16 16 37 29 47
30 17 1 16 -2 -5 -31z"/>
<path d="M1418 3355 c-4 -4 -4 -13 -1 -21 4 -10 -4 -14 -28 -15 -19 -1 -37 -1
-41 0 -13 2 -9 -9 12 -36 21 -27 19 -43 -6 -43 -8 0 -14 -8 -14 -17 0 -14 2
-15 9 -5 13 21 34 -13 27 -43 -5 -18 -11 -23 -24 -18 -15 6 -15 5 -3 -11 14
-16 15 -16 27 6 16 28 18 68 4 68 -6 0 -6 7 2 19 9 15 8 24 -6 46 l-18 28 31
-5 c17 -3 35 0 40 6 10 12 -1 51 -11 41z"/>
<path d="M235 3340 c3 -6 13 -10 21 -10 8 0 12 -5 9 -10 -4 -6 -11 -8 -16 -5
-5 4 -9 2 -9 -4 0 -5 8 -12 18 -14 13 -4 12 -5 -5 -6 -21 -1 -21 -2 5 -31 25
-28 28 -29 39 -13 7 9 13 31 12 47 -1 33 -3 29 -14 -18 -8 -37 -20 -24 -20 21
0 28 -5 37 -23 44 -15 6 -21 5 -17 -1z"/>
<path d="M660 3324 c-6 -15 -19 -39 -30 -54 -26 -36 -26 -48 0 -25 11 10 17
21 15 25 -3 5 -1 10 5 12 10 3 33 68 24 68 -2 0 -9 -12 -14 -26z"/>
<path d="M1131 3314 c-12 -15 -21 -38 -21 -51 0 -13 -7 -38 -16 -54 -14 -28
-14 -32 0 -48 9 -10 12 -21 7 -27 -9 -10 -34 -154 -28 -161 3 -2 11 31 20 74
9 43 23 102 31 132 9 30 14 56 11 59 -2 2 -8 -11 -12 -29 -5 -18 -14 -34 -21
-37 -8 -2 -7 7 3 32 8 19 15 46 15 60 0 14 4 28 10 31 11 7 33 45 26 45 -2 0
-14 -12 -25 -26z"/>
<path d="M1170 3315 c0 -8 -9 -24 -20 -35 -10 -10 -15 -22 -10 -25 5 -3 12 0
15 6 4 5 13 8 21 5 8 -3 14 -1 14 4 0 6 -5 10 -10 10 -6 0 -8 11 -4 25 3 14 3
25 0 25 -3 0 -6 -7 -6 -15z"/>
<path d="M872 3288 c-15 -8 -27 -27 -35 -55 -6 -24 -16 -43 -22 -43 -16 0 18
-20 35 -20 9 0 20 14 25 33 8 26 15 32 38 32 15 -1 27 3 27 8 0 4 -17 7 -39 6
-35 -3 -38 -5 -39 -32 -1 -31 -8 -44 -18 -34 -4 3 -3 22 0 42 5 27 15 39 44
55 38 20 24 27 -16 8z"/>
<path d="M1050 3261 c-5 -11 -10 -29 -10 -40 0 -11 -7 -27 -16 -35 -8 -9 -11
-16 -5 -16 13 0 31 33 31 58 0 11 7 26 17 33 15 13 16 11 9 -14 -4 -19 -3 -26
4 -22 5 3 10 17 10 31 0 29 -25 32 -40 5z"/>
<path d="M1564 3262 c-6 -4 -14 -20 -18 -37 -6 -28 -5 -29 9 -11 8 10 12 22
10 27 -3 4 -1 10 4 13 10 7 20 -34 56 -224 13 -74 38 -207 54 -295 47 -248
101 -553 101 -565 0 -5 -12 -10 -27 -10 -26 0 -26 1 -7 15 10 8 14 15 7 15 -6
0 -18 -6 -25 -13 -20 -20 -76 -44 -138 -58 -30 -7 -62 -19 -71 -26 -9 -8 -33
-15 -52 -16 -20 -1 -45 -11 -56 -21 -26 -24 -79 -17 -113 16 -58 55 -76 67
-82 52 -3 -8 0 -14 8 -14 7 0 31 -16 54 -36 54 -46 103 -55 142 -26 18 14 31
18 35 11 5 -7 11 -6 21 2 11 9 18 8 31 -2 14 -12 16 -12 11 2 -8 20 14 33 82
49 30 7 71 20 90 30 24 12 45 15 68 10 27 -6 32 -5 32 12 0 25 -149 849 -185
1023 -8 39 -15 73 -15 78 0 9 -12 9 -26 -1z"/>
<path d="M208 3250 c-15 -4 -29 -6 -32 -3 -9 9 -19 -25 -13 -42 5 -12 12 -12
51 2 25 9 43 20 40 24 -2 4 -17 1 -32 -7 -31 -16 -52 -18 -52 -4 0 5 18 14 40
20 22 6 40 13 40 15 0 6 -9 5 -42 -5z"/>
<path d="M802 3113 c-5 -16 -14 -37 -18 -48 -7 -18 -6 -19 11 -5 17 14 17 13
10 -10 -4 -14 -14 -37 -21 -52 -8 -15 -14 -38 -14 -52 0 -14 -5 -28 -11 -32
-6 -3 -8 -17 -5 -31 8 -30 -5 -55 -14 -28 -6 18 -7 17 -12 -3 -5 -17 -2 -22
13 -22 23 0 24 -8 3 -31 -19 -21 -12 -49 10 -49 18 0 31 42 21 67 -11 27 -13
83 -3 89 4 3 8 15 8 27 0 33 55 172 67 170 6 -1 9 6 6 17 -8 29 -39 25 -51 -7z
m38 10 c-1 -11 -26 -43 -33 -43 -4 0 -1 11 5 25 10 23 28 35 28 18z m-74 -349
c-3 -8 -10 -12 -16 -9 -7 4 -6 14 2 28 12 24 24 8 14 -19z"/>
<path d="M869 3103 c-30 -49 -50 -95 -45 -101 3 -2 12 13 21 34 11 27 19 34
26 27 8 -8 7 -17 -1 -33 -6 -12 -9 -24 -6 -27 5 -6 26 40 26 58 0 5 -5 9 -10
9 -13 0 2 30 26 54 13 14 13 16 1 16 -8 0 -25 -17 -38 -37z"/>
<path d="M600 3106 c0 -17 9 -27 30 -36 22 -9 30 -20 32 -39 4 -65 -9 -89 -39
-75 -22 10 -73 12 -73 3 0 -13 28 -17 39 -6 8 8 14 8 23 -1 14 -14 -8 -62 -29
-62 -9 0 -13 -14 -13 -45 0 -25 4 -45 8 -45 4 0 6 15 4 34 -3 26 2 39 22 59
14 14 26 31 26 37 0 5 7 10 16 10 8 0 20 14 26 31 6 18 16 28 23 25 14 -5 42
50 31 61 -3 3 -6 -1 -6 -10 0 -14 -27 -37 -44 -37 -10 0 -7 45 4 56 15 15 -9
42 -47 53 -30 9 -33 8 -33 -13z m60 -11 c7 -9 11 -18 8 -21 -7 -7 -58 17 -58
28 0 14 37 9 50 -7z"/>
<path d="M995 2991 c-3 -7 0 -8 9 -5 13 5 16 -1 16 -30 0 -20 4 -36 8 -36 5 0
6 17 3 37 -6 36 -24 53 -36 34z"/>
<path d="M3633 2706 c-15 -13 -39 -27 -51 -31 -27 -8 -27 -5 15 -157 25 -87
30 -98 50 -98 29 0 29 18 3 102 -11 34 -20 72 -20 84 0 22 38 64 58 64 18 0
46 -51 67 -120 13 -44 23 -60 36 -60 10 0 21 5 24 10 10 16 -45 186 -67 210
-26 28 -79 26 -115 -4z m107 -8 c27 -30 74 -178 61 -191 -15 -15 -17 -11 -48
78 -32 91 -50 107 -90 85 -44 -25 -50 -57 -25 -142 26 -85 27 -98 9 -98 -9 0
-24 34 -40 88 -35 118 -37 145 -12 150 11 3 33 15 48 28 36 30 70 31 97 2z"/>
<path d="M3509 2623 c-11 -29 -10 -171 1 -178 3 -2 5 33 2 78 -3 64 0 86 12
102 14 18 15 4 13 -169 -1 -141 -5 -190 -14 -194 -10 -3 -13 13 -13 55 0 55
-3 63 -57 138 -31 44 -62 83 -67 87 -8 5 -7 11 0 18 12 12 16 7 78 -84 14 -21
26 -33 26 -25 0 16 -64 109 -82 120 -15 9 -38 0 -38 -15 0 -6 30 -51 65 -101
62 -86 65 -93 65 -147 0 -50 3 -58 19 -58 10 0 22 7 25 16 3 9 6 99 6 200 0
158 -2 184 -15 184 -9 0 -20 -12 -26 -27z"/>
<path d="M3261 2603 c-5 -10 -12 -98 -16 -196 l-8 -179 24 4 c20 2 25 10 30
46 6 48 9 52 64 81 l40 21 27 -29 c19 -20 34 -28 48 -24 29 8 25 22 -25 90
-24 34 -65 94 -90 132 -46 73 -75 89 -94 54z m86 -65 c25 -40 66 -99 91 -132
35 -45 42 -60 31 -67 -9 -5 -22 2 -39 23 l-26 31 -57 -26 c-51 -23 -56 -29
-62 -64 -9 -54 -13 -63 -26 -63 -8 0 -9 45 -4 173 9 226 18 239 92 125z"/>
<path d="M3292 2468 c-2 -84 2 -89 52 -67 38 18 39 36 1 91 -19 27 -35 44 -35
36 0 -8 14 -33 30 -56 l31 -41 -30 -15 c-17 -9 -32 -16 -35 -16 -3 0 -7 33 -9
73 l-3 72 -2 -77z"/>
<path d="M4034 2575 c-4 -8 1 -33 10 -55 22 -54 21 -56 -19 -56 -76 0 -125
-77 -105 -167 25 -119 88 -164 170 -122 27 14 48 50 36 62 -3 4 -6 1 -6 -6 0
-23 -52 -61 -85 -61 -71 0 -134 134 -101 214 19 45 71 78 109 70 32 -7 34 4
12 67 -11 29 -12 46 -5 53 6 6 13 6 18 1 15 -17 114 -324 107 -334 -3 -6 -12
-8 -20 -4 -8 3 -15 0 -15 -6 0 -16 40 -13 46 4 3 8 -20 91 -51 185 -48 142
-60 170 -76 170 -11 0 -22 -7 -25 -15z"/>
<path d="M429 2572 c-1 -4 -1 -10 0 -14 0 -5 -6 -8 -14 -8 -8 0 -37 -13 -65
-30 -28 -16 -53 -30 -56 -30 -3 0 -18 -9 -32 -20 -51 -39 -134 -90 -147 -90
-7 0 -20 -11 -29 -25 -9 -14 -25 -25 -35 -25 -10 0 -26 -9 -36 -20 -10 -11
-13 -20 -8 -20 6 0 16 6 22 14 7 8 23 17 36 20 13 3 29 15 35 26 6 11 17 20
24 20 14 0 83 42 158 96 20 15 40 27 45 27 4 0 25 11 45 23 21 13 42 24 47 24
5 0 14 6 21 14 6 8 19 12 28 9 9 -3 14 -3 11 1 -9 10 -49 16 -50 8z"/>
<path d="M5931 2516 c-14 -16 -9 -40 19 -96 25 -49 24 -55 -10 -52 -72 8 -130
-35 -150 -108 -22 -81 53 -236 126 -260 83 -28 186 17 183 79 -2 23 -2 24 -6
4 -2 -12 -20 -36 -39 -53 -44 -38 -104 -41 -155 -7 -46 31 -102 141 -102 200
0 81 69 144 145 134 21 -3 40 -1 43 4 3 4 -8 36 -25 70 -29 56 -30 63 -16 77
10 10 19 13 25 7 11 -11 201 -414 201 -425 0 -14 -33 -21 -41 -8 -4 7 -10 10
-13 7 -14 -13 14 -31 39 -25 38 10 34 25 -77 261 -97 206 -115 229 -147 191z"/>
<path d="M410 2487 c0 -7 -32 -37 -71 -66 -65 -50 -209 -207 -209 -229 0 -5
-9 -17 -20 -27 -11 -10 -20 -23 -20 -28 0 -6 11 0 25 13 14 13 25 28 25 33 0
5 13 24 29 43 24 27 30 30 34 16 3 -13 4 -13 4 3 1 40 3 46 15 39 6 -4 8 -3 5
3 -6 10 58 75 135 136 31 25 53 35 65 31 13 -4 14 -3 5 3 -7 5 -10 17 -6 26 3
10 1 17 -5 17 -6 0 -11 -6 -11 -13z"/>
<path d="M3991 2403 c-46 -38 -43 -134 5 -172 34 -26 54 -26 87 -1 64 51 29
190 -48 190 -13 0 -33 -8 -44 -17z m96 -32 c30 -44 29 -82 -3 -120 -32 -38
-53 -39 -86 -3 -40 42 -41 100 -3 138 33 33 63 28 92 -15z"/>
<path d="M326 2353 c-5 -13 -9 -14 -15 -5 -10 16 -65 -41 -58 -60 4 -10 6 -9
6 2 1 14 34 50 46 50 13 0 1 -20 -36 -59 -23 -23 -39 -44 -36 -47 5 -6 93 90
108 118 6 11 6 18 0 18 -5 0 -12 -8 -15 -17z"/>
<path d="M3800 2363 c-8 -3 -26 -16 -40 -28 -14 -13 -34 -25 -45 -27 -25 -5
-25 -8 18 -150 19 -65 31 -118 27 -118 -8 0 -46 114 -65 193 -4 15 -11 29 -15
32 -4 3 8 -49 28 -115 19 -66 32 -123 28 -127 -4 -4 -11 -1 -15 6 -7 11 -14 7
-32 -14 -13 -15 -39 -34 -57 -42 -30 -12 -37 -12 -65 4 -60 35 -84 124 -53
198 19 44 69 76 108 68 21 -4 28 -2 28 10 0 9 8 21 18 26 16 10 16 10 -1 11
-11 0 -21 -9 -24 -21 -4 -15 -11 -19 -26 -15 -29 7 -83 -18 -102 -48 -10 -14
-21 -49 -25 -78 l-8 -53 -1 58 c-1 51 -5 62 -31 89 -26 25 -37 30 -64 25 -45
-7 -123 -44 -128 -59 -3 -7 10 -69 29 -138 18 -69 37 -141 41 -160 6 -26 14
-36 30 -38 29 -4 37 18 24 66 -5 20 -22 82 -37 136 -26 95 -26 100 -9 113 66
48 134 -54 69 -105 -14 -11 -25 -26 -25 -34 0 -20 102 -118 123 -118 36 0 30
31 -14 76 l-43 44 21 22 c22 21 22 21 28 2 23 -75 75 -111 137 -93 21 5 46 21
57 35 11 14 24 23 29 20 8 -5 92 32 92 41 0 2 -12 45 -26 95 -26 90 -26 90 -7
117 11 14 29 27 41 29 25 4 50 -40 76 -130 13 -46 21 -58 37 -58 30 0 32 21 8
81 -11 30 -28 75 -35 101 -19 63 -56 88 -104 71z m69 -29 c11 -15 25 -40 30
-58 5 -17 18 -55 30 -85 15 -38 19 -57 11 -65 -15 -15 -25 1 -45 69 -26 92
-41 115 -74 115 -29 0 -54 -21 -65 -55 -3 -12 5 -59 18 -105 23 -79 25 -100 7
-100 -6 0 -72 212 -72 235 0 6 8 12 18 14 10 2 33 16 51 32 41 36 65 37 91 3z
m-425 -125 c21 -24 26 -41 26 -82 0 -30 -7 -60 -15 -71 -21 -28 -20 -31 25
-80 63 -68 29 -70 -38 -3 l-56 56 27 21 c21 17 27 30 27 62 0 25 -7 49 -17 60
-18 20 -64 24 -95 7 -24 -13 -22 -27 23 -185 30 -103 32 -140 7 -132 -13 5
-98 308 -90 322 7 13 104 55 129 55 12 1 32 -12 47 -30z"/>
<path d="M5905 2301 c-38 -16 -57 -47 -57 -94 0 -81 44 -136 115 -144 89 -10
133 77 87 172 -30 63 -88 89 -145 66z m83 -15 c34 -17 72 -84 72 -124 0 -47
-43 -92 -87 -92 -29 0 -44 8 -75 40 -53 56 -56 117 -7 163 33 30 57 34 97 13z"/>
<path d="M170 2291 c0 -19 -62 -69 -80 -64 -14 4 -24 -8 -45 -52 -14 -31 -24
-59 -22 -61 2 -3 17 20 31 51 15 30 31 55 36 55 17 0 20 -18 5 -30 -17 -14
-20 -35 -4 -24 6 3 17 22 25 40 8 19 18 34 22 34 5 0 18 14 30 30 13 17 18 30
12 30 -5 0 -10 -4 -10 -9z"/>
<path d="M5681 2248 c-7 -19 -14 -22 -49 -20 -56 5 -96 -19 -121 -71 -25 -52
-26 -71 -6 -127 8 -23 15 -45 15 -49 0 -3 -47 -26 -105 -51 -57 -25 -107 -51
-109 -57 -3 -7 5 -25 18 -40 19 -22 33 -28 64 -28 44 0 82 26 82 55 0 9 9 25
20 35 18 16 20 16 26 2 16 -43 -44 -129 -101 -143 -67 -17 -139 47 -172 152
-21 68 -8 119 42 163 62 54 144 31 192 -54 13 -22 23 -33 23 -24 0 27 -44 83
-80 102 -79 41 -165 0 -190 -89 -11 -39 -10 -53 6 -106 10 -33 30 -78 46 -99
51 -70 156 -75 211 -9 28 32 45 106 29 122 -15 15 -51 -8 -58 -37 -7 -29 -49
-65 -75 -65 -22 0 -83 50 -72 60 4 4 51 26 105 50 l96 43 33 -37 c55 -63 108
-79 177 -55 33 11 62 47 62 76 0 11 -7 6 -17 -15 -19 -39 -59 -62 -106 -62
-55 0 -120 64 -147 146 -28 82 -22 119 27 169 34 35 39 37 85 33 45 -5 50 -3
59 18 14 40 37 28 56 -28 10 -29 39 -96 66 -147 26 -52 45 -101 43 -108 -6
-15 -36 -18 -36 -3 0 6 -4 10 -10 10 -5 0 -7 -7 -4 -15 8 -20 53 -19 61 1 3 9
-14 55 -41 108 -25 50 -46 95 -46 98 0 4 -9 32 -21 63 -17 46 -24 55 -45 55
-16 0 -27 -8 -33 -22z"/>
<path d="M1330 2205 c-19 -13 -45 -24 -58 -24 -12 -1 -43 -12 -70 -25 -26 -13
-67 -30 -92 -37 -25 -8 -52 -21 -61 -30 -9 -9 -30 -20 -46 -23 -16 -4 -41 -18
-56 -31 -14 -14 -30 -25 -35 -25 -11 0 -203 -141 -232 -170 -11 -11 -32 -22
-47 -25 -42 -9 -80 -29 -164 -88 -41 -28 -91 -61 -109 -71 -19 -11 -49 -35
-68 -53 -18 -18 -41 -33 -52 -33 -10 0 -36 -16 -57 -35 -20 -19 -40 -30 -43
-25 -7 11 -107 17 -117 7 -3 -4 18 -7 48 -7 30 0 59 -4 65 -10 10 -10 84 35
84 52 0 4 11 8 25 8 14 0 38 14 59 35 19 19 49 42 68 53 44 24 144 90 189 125
20 15 46 27 58 27 24 0 77 24 83 38 3 8 134 109 182 141 11 8 39 26 61 41 22
15 51 31 64 35 12 4 38 17 57 30 19 13 49 27 67 30 18 4 49 17 70 28 33 19 40
20 48 7 21 -36 28 -44 34 -39 3 3 -4 18 -16 32 l-20 27 23 0 c13 0 41 11 63
25 47 29 70 31 79 9 4 -9 9 -14 13 -11 10 11 -19 37 -41 36 -11 0 -37 -11 -56
-24z"/>
<path d="M3577 2203 c-23 -6 -47 -54 -47 -93 0 -100 110 -140 146 -53 36 85
-20 167 -99 146z m72 -30 c29 -36 36 -68 21 -104 -23 -54 -67 -64 -105 -23
-29 31 -32 71 -10 114 24 47 63 53 94 13z"/>
<path d="M5582 2147 c-12 -13 -25 -37 -28 -55 -8 -42 19 -115 53 -142 33 -26
93 -26 124 -1 21 17 24 28 24 83 0 47 -5 70 -20 90 -39 53 -115 65 -153 25z
m108 0 c64 -51 81 -137 35 -182 -46 -47 -114 -24 -149 49 -23 48 -20 80 10
115 28 33 75 42 104 18z"/>
<path d="M1682 2095 c-7 -14 -12 -39 -12 -54 0 -28 -14 -44 -57 -68 -19 -11
-24 -10 -32 5 -6 9 -11 12 -11 5 0 -6 7 -19 16 -28 22 -21 10 -31 -20 -17 -22
10 -24 14 -14 40 7 19 18 28 32 28 15 -1 24 8 31 32 6 20 14 31 22 28 7 -3 13
-1 13 4 0 6 -8 10 -19 10 -14 0 -21 -10 -25 -35 -9 -45 -26 -45 -26 0 0 35 0
35 -24 20 -23 -15 -42 -65 -25 -65 5 0 9 11 9 24 0 13 7 26 15 30 20 7 19 -18
-2 -51 -10 -14 -17 -44 -18 -66 0 -27 -5 -42 -15 -45 -13 -5 -13 -3 -1 12 12
15 12 19 -4 34 -17 15 -17 15 -6 0 7 -9 8 -19 3 -22 -5 -3 -12 -14 -15 -25 -4
-17 -1 -18 25 -10 26 7 31 5 35 -12 4 -15 8 -17 13 -8 10 15 1 41 -11 33 -5
-3 -9 4 -9 15 0 25 13 27 34 6 13 -13 15 -13 22 7 5 13 8 26 9 31 0 4 15 16
33 27 24 15 32 27 32 49 0 16 5 42 10 57 14 35 7 42 -8 9z"/>
<path d="M1757 2068 c-2 -13 -8 -32 -12 -42 -6 -13 -5 -17 3 -13 6 4 13 21 17
37 4 17 10 30 14 30 11 0 31 -60 46 -140 21 -114 55 -303 58 -320 2 -16 29
-51 35 -46 2 3 -3 15 -11 28 -8 12 -25 77 -37 143 -11 66 -28 158 -36 205 -9
47 -20 89 -25 95 -5 5 -9 17 -9 27 0 27 -37 23 -43 -4z"/>
<path d="M4917 2044 c-14 -14 -6 -50 29 -134 71 -171 114 -279 114 -289 0 -13
20 -14 40 -1 15 10 11 28 -41 165 -25 68 -21 108 12 126 52 27 86 -12 139
-158 19 -53 26 -63 47 -63 38 0 38 26 0 108 -19 42 -40 94 -47 114 -6 21 -25
49 -43 64 -40 34 -95 29 -138 -12 l-29 -27 -15 39 c-9 21 -19 46 -24 54 -9 17
-33 24 -44 14z m58 -75 c9 -26 21 -48 27 -46 5 1 25 17 43 35 45 44 83 43 124
-3 17 -20 31 -41 31 -48 0 -7 18 -51 40 -97 40 -82 44 -110 16 -110 -9 0 -28
36 -52 97 -21 53 -46 105 -56 115 -40 40 -118 8 -118 -49 0 -16 16 -72 37
-126 28 -74 34 -100 25 -109 -6 -6 -13 -10 -15 -7 -4 5 -89 210 -129 311 -18
43 -28 84 -24 93 10 26 32 2 51 -56z"/>
<path d="M5302 2030 c-24 -23 -40 -86 -25 -101 15 -15 163 50 163 72 0 44 -99
65 -138 29z m108 -10 c14 -10 23 -21 20 -23 -18 -17 -141 -64 -146 -56 -10 16
5 57 28 79 27 25 65 25 98 0z"/>
<path d="M1402 1951 c-2 -64 0 -72 15 -69 12 2 18 13 18 32 1 16 6 31 11 33 6
2 9 16 7 31 -4 26 -4 26 11 7 12 -14 15 -31 10 -70 -7 -57 -20 -78 -34 -55 -8
13 -10 12 -10 -2 0 -10 -4 -18 -10 -18 -5 0 -10 -6 -10 -14 0 -18 -49 -76 -50
-59 0 6 5 15 10 18 6 3 10 11 10 18 0 7 -6 5 -16 -5 -11 -10 -14 -23 -9 -38 7
-21 7 -21 27 -3 11 9 26 33 34 51 7 18 18 31 23 28 5 -4 12 -2 16 4 4 6 10 8
14 5 10 -5 21 107 14 134 -5 19 -31 36 -40 27 -7 -6 -15 -57 -14 -88 0 -16 -4
-28 -9 -28 -5 0 -8 22 -6 48 1 27 0 57 -4 67 -3 10 -7 -14 -8 -54z"/>
<path d="M4673 1949 c-29 -28 -53 -57 -53 -65 0 -7 -20 -32 -45 -55 -25 -23
-45 -45 -45 -49 0 -4 -18 -26 -40 -48 -22 -22 -40 -48 -40 -58 0 -15 5 -12 19
11 10 17 28 39 40 49 19 17 26 18 55 8 45 -17 56 -15 56 7 0 11 4 22 9 26 9 5
19 -18 76 -180 16 -44 32 -85 37 -92 11 -14 -7 -27 -24 -16 -21 13 -38 12 -38
-2 0 -21 -59 -65 -88 -65 -67 0 -122 71 -141 180 -8 52 -9 52 -10 15 -2 -84
47 -176 104 -195 19 -6 35 -17 35 -25 0 -7 -40 -57 -89 -111 -48 -55 -102
-124 -119 -153 l-31 -55 -10 27 c-23 60 -23 72 1 82 13 6 24 19 26 31 2 11 21
42 42 68 22 27 40 53 40 59 0 14 -66 -62 -80 -93 -7 -14 -15 -31 -19 -39 -12
-25 -29 -23 -47 4 -15 23 -15 28 -3 36 11 7 11 9 -3 9 -21 0 -23 -18 -5 -45 7
-11 22 -55 32 -98 13 -51 26 -82 37 -88 22 -12 36 14 19 35 -18 21 30 98 130
209 49 55 89 106 89 114 0 8 15 20 34 28 19 8 43 26 54 39 12 16 26 23 38 20
20 -5 94 21 94 34 1 24 -107 302 -117 302 -28 0 -83 -35 -83 -52 0 -10 -2 -18
-4 -18 -12 0 -66 23 -66 29 0 4 20 26 44 50 44 44 64 43 51 -2 -6 -17 -1 -15
24 13 16 19 30 45 31 58 0 13 4 21 9 18 13 -8 61 51 61 75 0 33 -32 21 -87
-32z m77 30 c0 -17 -57 -69 -77 -69 -15 0 -16 -2 -3 -10 12 -7 12 -13 4 -27
-14 -22 -38 -23 -42 -2 -2 10 20 38 50 68 54 51 68 60 68 40z m-7 -301 c63
-174 61 -165 39 -177 -27 -15 -31 -8 -85 147 -51 145 -51 146 -38 138 5 -3 31
-67 57 -142 27 -74 50 -131 52 -126 1 5 -19 68 -46 140 -46 122 -50 142 -31
142 4 0 27 -55 52 -122z m-375 -627 c3 -8 -1 -12 -9 -9 -7 2 -15 10 -17 17 -3
8 1 12 9 9 7 -2 15 -10 17 -17z"/>
<path d="M1038 1947 c-13 -5 -38 -9 -57 -8 -19 0 -44 -8 -59 -19 -13 -11 -39
-20 -56 -21 -29 -1 -30 -1 -6 -8 18 -5 35 -1 62 16 21 12 48 23 60 23 13 0 51
3 86 6 l62 6 0 -27 c0 -25 -2 -26 -17 -14 -15 11 -16 11 -5 -1 16 -19 15 -51
-4 -78 -17 -25 -39 -30 -30 -6 3 8 2 12 -4 9 -17 -11 -11 -31 13 -44 19 -10
23 -20 22 -48 -2 -21 -9 -40 -19 -45 -9 -5 -16 -14 -16 -19 0 -6 4 -7 10 -4 5
3 20 -1 33 -10 21 -14 26 -14 36 -1 7 8 10 20 7 25 -9 14 36 81 54 81 12 0 13
2 1 9 -10 6 -12 20 -7 47 11 59 17 75 26 69 5 -3 11 -1 15 5 3 5 -3 10 -14 10
-21 0 -27 -11 -36 -81 -8 -54 -19 -74 -35 -64 -7 4 -9 20 -5 44 3 20 8 55 12
79 3 23 10 45 14 48 5 3 9 13 9 22 -1 10 -8 4 -18 -16 -18 -33 -32 -34 -32 -1
0 20 -65 30 -102 16z m118 -84 c-17 -71 -19 -115 -6 -123 11 -7 11 -11 1 -24
-7 -8 -10 -24 -6 -36 7 -21 -2 -25 -29 -14 -9 3 -13 11 -9 18 4 6 8 30 9 54 1
31 -2 42 -13 42 -11 0 -10 6 6 26 12 15 21 37 21 49 0 23 8 35 23 35 5 0 6
-12 3 -27z"/>
<path d="M3833 1926 c-63 -28 -82 -113 -49 -212 21 -63 42 -84 94 -91 50 -7
95 18 117 63 39 82 -4 120 -45 39 -9 -16 -28 -34 -43 -39 -22 -8 -31 -6 -52
14 -30 28 -27 31 78 75 60 26 67 32 67 57 0 40 -55 97 -100 103 -19 3 -49 -1
-67 -9z m118 -35 c58 -57 53 -72 -36 -111 -94 -41 -101 -49 -74 -84 36 -46 98
-31 124 29 16 40 35 46 35 12 0 -47 -59 -106 -105 -107 -43 0 -73 25 -97 79
-39 89 -22 172 41 206 43 24 70 18 112 -24z"/>
<path d="M3836 1868 c-32 -29 -44 -75 -22 -84 20 -8 123 34 130 53 8 19 -30
53 -58 53 -14 0 -36 -10 -50 -22z m85 -7 l24 -20 -58 -25 c-80 -36 -99 -23
-51 33 30 36 52 39 85 12z"/>
<path d="M1000 1899 c0 -7 -8 -31 -19 -53 -25 -55 -42 -108 -36 -114 5 -5 6
-2 22 52 12 37 32 46 26 11 -3 -14 -8 -25 -12 -25 -13 0 -6 -93 8 -98 16 -5
31 16 30 43 0 16 -3 14 -11 -8 -14 -38 -28 -24 -21 21 6 42 42 134 56 143 5 4
5 9 -1 13 -5 3 -15 -8 -22 -24 -7 -17 -16 -30 -21 -30 -5 0 -3 16 5 35 9 20
11 37 5 40 -5 4 -9 1 -9 -6z"/>
<path d="M4845 1893 c-26 -6 -65 -43 -65 -60 0 -7 12 0 28 16 15 17 39 33 55
37 42 10 84 -42 130 -158 40 -105 45 -128 23 -128 -9 0 -27 35 -47 92 -43 119
-63 143 -112 134 -66 -12 -72 -54 -27 -178 32 -88 37 -122 18 -116 -16 5 -120
277 -112 290 3 5 13 7 21 4 8 -3 11 -1 8 4 -9 14 -35 12 -40 -2 -3 -7 19 -78
49 -158 44 -119 57 -146 75 -148 30 -5 28 26 -9 126 -35 97 -37 125 -9 153 45
45 87 6 135 -131 24 -67 32 -80 51 -80 12 0 24 4 27 8 8 14 -79 233 -105 264
-25 28 -59 40 -94 31z"/>
<path d="M3515 1881 c-9 -16 20 -147 81 -353 6 -19 39 -24 49 -8 3 6 -3 44
-14 85 -12 41 -21 89 -21 105 0 29 29 70 50 70 21 0 46 -43 72 -123 20 -63 30
-82 45 -82 10 0 19 8 21 20 4 28 -55 205 -75 227 -25 28 -88 24 -119 -7 -26
-26 -27 -26 -42 35 -8 34 -34 51 -47 31z m41 -52 c8 -51 25 -58 57 -25 31 31
76 34 100 8 20 -22 79 -188 75 -210 -7 -35 -24 -12 -48 64 -35 108 -41 117
-80 117 -63 0 -74 -51 -40 -175 13 -48 17 -75 10 -82 -17 -17 -25 3 -63 144
-45 170 -49 189 -42 201 11 17 25 -1 31 -42z"/>
<path d="M3480 1863 c-8 -2 -48 -18 -87 -35 -67 -28 -73 -33 -73 -60 0 -27 2
-29 37 -26 l37 3 41 -145 c41 -146 56 -170 83 -137 9 10 2 47 -28 158 -22 79
-40 147 -40 152 0 4 11 13 25 19 21 9 25 18 23 45 -1 18 -2 33 -3 32 0 0 -7
-3 -15 -6z m8 -35 c1 -8 -9 -20 -23 -26 -14 -6 -25 -17 -25 -24 0 -7 18 -76
39 -153 28 -100 36 -144 28 -153 -17 -22 -27 -1 -67 144 l-38 139 -36 -2 c-29
-2 -36 1 -36 16 0 18 8 23 110 68 30 14 44 11 48 -9z"/>
<path d="M830 1828 c-24 -37 -50 -99 -50 -118 0 -15 -18 -30 -37 -30 -3 0 -2
17 1 38 5 27 4 33 -3 22 -6 -8 -11 -25 -11 -37 0 -37 -16 -26 -18 12 -2 23 2
37 11 41 9 3 12 14 9 31 -4 24 -6 23 -18 -13 -18 -51 -18 -89 1 -104 8 -7 15
-8 15 -3 0 12 47 10 60 -3 8 -8 7 -14 -5 -24 -8 -7 -15 -20 -15 -29 0 -10 8
-3 21 16 20 32 39 36 39 8 0 -14 24 -27 34 -18 3 4 6 17 6 29 0 21 16 41 26
32 5 -6 -23 -146 -36 -175 -5 -13 -14 -23 -20 -23 -7 0 -8 6 0 19 14 26 13 81
-1 81 -7 0 -18 -8 -26 -17 -12 -16 -13 -15 -7 8 3 17 1 30 -7 35 -9 5 -10 2
-6 -10 5 -12 -4 -28 -31 -52 -21 -20 -29 -32 -18 -28 17 7 18 4 13 -25 -5 -22
-3 -30 4 -25 6 3 9 20 7 36 -3 21 0 32 13 39 22 11 33 -4 21 -28 -5 -10 -12
-31 -16 -46 -6 -24 -5 -27 8 -15 7 7 12 16 9 21 -5 9 17 78 30 92 10 11 4 -47
-8 -77 -6 -14 -2 -18 14 -18 24 0 38 29 48 97 3 24 10 43 15 43 5 0 7 4 4 8
-3 5 1 34 8 65 14 58 6 73 -22 45 -14 -14 -17 3 -3 18 12 13 22 86 10 79 -5
-4 -9 -19 -9 -35 0 -16 -5 -32 -11 -35 -6 -4 -7 -19 -4 -35 3 -16 2 -31 -4
-35 -6 -3 -11 -17 -11 -31 0 -13 -4 -24 -10 -24 -5 0 -10 6 -10 13 0 8 -11 19
-25 25 -37 17 -31 63 18 135 10 15 17 32 15 37 -2 6 -10 0 -18 -12z m76 -135
c-11 -11 -19 6 -11 24 8 17 8 17 12 0 3 -10 2 -21 -1 -24z"/>
<path d="M1031 1800 c-6 -22 -16 -40 -22 -40 -6 0 -7 -4 -4 -10 12 -19 21 -9
37 40 9 28 13 50 9 50 -4 0 -13 -18 -20 -40z"/>
<path d="M839 1765 c-24 -48 -30 -68 -21 -77 8 -8 9 -5 5 12 -5 21 -4 21 18
11 21 -10 22 -10 7 1 -12 10 -14 19 -7 31 16 28 40 87 35 87 -2 0 -19 -29 -37
-65z"/>
<path d="M683 1788 c3 -10 2 -20 -3 -23 -6 -4 -10 -27 -10 -53 0 -26 -7 -60
-15 -76 -8 -15 -15 -38 -15 -51 0 -12 -6 -28 -14 -34 -7 -6 -14 -28 -14 -49 0
-20 -5 -50 -11 -65 -6 -15 -8 -27 -6 -27 10 0 26 53 27 87 1 18 7 38 15 44 7
6 13 23 13 38 0 15 5 32 10 37 6 6 13 35 16 65 3 30 11 64 17 77 8 17 7 25 -3
35 -10 10 -12 9 -7 -5z"/>
<path d="M4316 1764 c-13 -13 -13 -19 -1 -55 14 -38 13 -43 -6 -67 -16 -21
-27 -26 -57 -23 -41 2 -92 -28 -92 -55 0 -10 10 -4 26 15 36 44 72 42 116 -7
36 -39 45 -61 73 -158 18 -64 14 -94 -10 -74 -7 6 -16 23 -20 38 -4 15 -13 41
-20 57 -7 17 -16 42 -19 58 -14 61 -75 87 -112 46 -24 -27 -23 -77 6 -154 25
-68 30 -106 14 -112 -10 -3 -102 267 -93 277 2 3 10 4 17 4 6 -1 12 3 12 8 0
5 -10 8 -22 6 -29 -4 -29 -3 24 -171 38 -121 45 -137 63 -135 12 2 21 12 23
26 2 12 7 22 11 22 4 0 23 21 41 47 l34 46 17 -41 c19 -44 25 -48 49 -32 12 8
13 15 1 57 -8 26 -14 59 -15 73 -1 14 -7 31 -13 38 -15 16 -17 38 -4 46 5 4
24 -37 41 -89 26 -77 35 -95 51 -95 35 0 33 30 -9 151 -36 107 -39 120 -24
128 9 5 15 12 12 14 -3 3 -14 -1 -24 -9 -18 -13 -18 -16 -3 -51 41 -98 70
-204 59 -215 -17 -17 -27 -3 -50 72 -43 134 -54 160 -72 160 -26 0 -30 10 -14
35 12 19 12 27 0 63 -12 34 -13 42 -1 52 15 13 27 -3 39 -52 4 -19 13 -28 25
-28 11 0 28 -3 38 -6 12 -5 15 -4 8 4 -5 6 -21 12 -35 14 -19 2 -26 11 -33 40
-10 41 -30 54 -51 32z m-1 -164 c3 -5 12 -7 19 -4 9 3 17 -3 21 -16 12 -37 -9
-39 -38 -4 -16 19 -24 34 -19 34 6 0 13 -4 17 -10z m-36 -79 c12 -16 21 -36
21 -45 0 -8 5 -26 11 -39 9 -21 8 -28 -9 -45 -11 -11 -28 -32 -37 -46 -10 -14
-21 -26 -26 -26 -7 0 -59 148 -59 169 0 18 43 61 60 61 10 0 28 -13 39 -29z"/>
<path d="M4256 1437 c-14 -19 -26 -40 -26 -47 0 -7 14 6 31 29 37 51 32 67 -5
18z"/>
<path d="M577 1720 c-13 -16 -13 -19 -1 -24 9 -4 14 1 14 15 0 11 5 17 10 14
15 -10 12 -55 -5 -61 -8 -4 -12 -11 -8 -17 9 -14 33 21 33 49 0 13 5 26 12 30
8 5 9 -2 4 -27 -5 -24 -3 -30 5 -22 6 6 9 21 7 33 -4 30 -49 36 -71 10z"/>
<path d="M6270 1689 c-69 -28 -249 -97 -400 -155 -151 -58 -311 -119 -355
-136 -44 -17 -100 -39 -125 -49 -53 -22 -815 -307 -945 -354 -49 -18 -160 -58
-245 -90 -85 -31 -184 -67 -220 -79 -143 -50 -527 -189 -555 -201 -44 -19
-793 -270 -1049 -351 -120 -38 -221 -75 -224 -83 -3 -7 2 -54 11 -105 10 -56
14 -68 10 -31 -3 33 -7 78 -7 100 l-1 40 70 23 c818 269 1103 365 1315 442
140 51 386 139 545 197 674 244 2294 859 2314 879 11 11 -24 -1 -139 -47z"/>
<path d="M4534 1689 c-67 -34 -52 -176 21 -205 73 -29 133 47 107 134 -7 21
-20 46 -30 55 -24 22 -71 29 -98 16z m78 -19 c59 -46 59 -144 0 -174 -79 -41
-152 102 -86 168 32 31 53 33 86 6z"/>
<path d="M672 1582 c-13 -48 -27 -103 -33 -123 -5 -20 -9 -45 -8 -55 1 -11 5
0 11 24 5 23 13 42 18 42 5 0 7 6 4 14 -3 8 4 51 16 96 13 44 21 83 18 85 -2
2 -14 -35 -26 -83z"/>
<path d="M566 1555 c-19 -47 -30 -60 -46 -50 -6 4 -5 15 2 30 6 13 8 31 4 41
-6 15 -10 14 -36 -11 -17 -16 -30 -33 -30 -39 0 -5 14 3 30 19 33 31 36 30 18
-11 -10 -22 -10 -28 5 -39 23 -16 16 -114 -10 -132 -22 -16 -40 -16 -46 0 -4
8 -6 7 -6 -4 -1 -8 6 -24 15 -35 13 -16 15 -16 10 -1 -3 10 0 17 7 17 31 0 48
26 52 80 3 34 16 78 35 115 28 54 30 56 26 25 -4 -30 -3 -32 6 -13 11 23 5 53
-10 53 -5 0 -17 -20 -26 -45z"/>
<path d="M1025 1530 c-27 -30 -12 -34 15 -5 13 14 19 25 13 25 -5 0 -18 -9
-28 -20z"/>
<path d="M4053 1534 c-3 -9 6 -56 21 -105 31 -106 32 -123 6 -149 -45 -45 -81
-10 -117 113 -21 69 -30 87 -45 87 -31 0 -31 -26 1 -119 17 -49 31 -97 31
-106 0 -9 11 -27 25 -40 34 -35 94 -34 126 0 14 14 35 25 52 25 15 0 27 3 27
8 0 17 -86 282 -91 282 -4 0 13 -61 37 -136 24 -75 44 -138 44 -140 0 -2 -12
-4 -27 -4 -17 0 -38 -11 -52 -25 -27 -30 -70 -33 -99 -7 -23 19 -97 226 -87
242 14 23 25 5 51 -80 29 -98 52 -130 89 -130 32 0 65 33 65 66 0 14 -12 66
-27 116 -27 88 -27 91 -8 104 17 13 17 14 2 14 -10 0 -20 -7 -24 -16z"/>
<path d="M462 1465 c-2 -41 -44 -123 -63 -125 -23 -1 -14 85 12 116 9 11 9 14
0 14 -6 0 -14 -8 -18 -17 -3 -10 -13 -36 -23 -58 -10 -22 -21 -53 -24 -69 -4
-15 -16 -48 -27 -72 -15 -30 -19 -52 -14 -74 5 -23 2 -37 -11 -51 -9 -10 -12
-19 -6 -19 18 0 34 39 27 68 -3 17 2 42 15 69 11 23 20 48 20 55 0 9 3 9 12 0
19 -19 48 -15 48 6 0 11 14 38 31 62 22 31 33 58 35 92 2 26 1 48 -3 48 -5 0
-9 -20 -11 -45z m-71 -135 c5 0 9 -7 9 -15 0 -17 -2 -18 -24 -9 -9 3 -16 16
-16 28 0 30 14 43 18 17 2 -12 8 -21 13 -21z"/>
<path d="M3532 1436 c-75 -32 -76 -34 -57 -102 9 -33 27 -97 40 -144 13 -47
29 -104 35 -127 9 -35 15 -43 34 -43 34 0 37 18 15 95 -10 37 -16 72 -13 77 8
12 68 38 87 38 8 0 17 -13 20 -28 3 -16 19 -43 35 -60 37 -40 88 -50 136 -27
67 32 86 110 52 212 -30 92 -105 128 -176 86 -37 -22 -51 -49 -60 -120 -4 -32
-8 -49 -9 -37 -2 36 -19 43 -62 26 -47 -18 -58 -11 -66 45 -5 39 -5 40 41 57
45 17 52 28 40 60 -8 21 -29 20 -92 -8z m86 -7 c2 -12 -11 -22 -43 -35 l-47
-19 6 -49 c7 -67 17 -74 71 -55 38 14 45 14 49 2 10 -26 7 -31 -34 -47 -23 -9
-43 -22 -45 -29 -3 -6 4 -43 14 -82 11 -40 16 -74 11 -79 -19 -19 -36 5 -53
70 -9 38 -30 116 -46 174 -16 57 -27 109 -24 113 8 14 106 56 123 54 8 -1 16
-10 18 -18z m245 -36 c55 -59 79 -174 44 -223 -21 -30 -67 -60 -92 -60 -60 0
-125 87 -125 169 0 114 106 184 173 114z"/>
<path d="M3775 1370 c-36 -14 -49 -40 -49 -94 0 -65 24 -103 70 -112 69 -13
110 52 85 135 -17 58 -63 89 -106 71z m53 -16 c54 -37 68 -119 27 -159 -29
-30 -58 -32 -85 -5 -48 48 -49 123 -3 160 31 24 33 24 61 4z"/>
<path d="M335 1390 c-12 -4 -32 -25 -46 -46 -27 -41 -56 -130 -46 -141 10 -9
-12 -43 -29 -43 -8 0 -22 -16 -30 -35 -8 -20 -23 -44 -34 -55 -11 -11 -16 -20
-10 -20 5 0 10 -7 10 -15 0 -8 -6 -15 -14 -15 -16 0 -26 -30 -26 -82 0 -20 -5
-38 -12 -40 -7 -3 -6 -7 5 -11 15 -5 17 1 17 42 0 53 7 81 21 81 8 0 4 -79 -7
-112 -8 -26 1 -22 21 8 9 15 12 24 7 20 -15 -9 -3 122 13 154 8 14 16 33 19
43 3 9 16 21 29 26 25 10 41 36 32 51 -8 12 16 100 26 100 13 0 11 -17 -6 -50
-14 -27 -14 -30 -1 -30 10 0 13 6 10 15 -4 8 1 17 9 21 15 5 12 43 -4 54 -13
9 34 70 54 70 9 0 17 5 17 10 0 6 -1 10 -2 9 -2 0 -12 -4 -23 -9z"/>
<path d="M6365 1364 c-22 -8 -58 -21 -80 -29 -22 -7 -71 -26 -110 -40 -38 -15
-158 -58 -265 -95 -278 -97 -929 -325 -1033 -362 -48 -17 -86 -32 -84 -35 2
-2 35 8 73 21 69 25 677 238 1044 366 233 81 383 135 428 155 18 8 39 15 47
15 7 0 17 5 20 10 8 12 9 12 -40 -6z"/>
<path d="M100 1325 c-7 -9 -10 -18 -7 -22 4 -3 9 2 13 11 7 18 59 23 69 6 4
-6 -7 -10 -24 -10 -24 0 -31 -4 -31 -20 0 -11 4 -20 10 -20 5 0 7 7 4 15 -4 8
-2 15 4 15 15 0 33 -26 24 -35 -4 -5 -2 -5 5 -1 34 19 9 -69 -37 -132 -12 -15
-28 -55 -36 -88 -19 -70 -32 -204 -22 -211 5 -2 8 2 9 9 6 150 22 227 59 281
14 20 29 37 33 37 5 0 6 4 3 9 -3 5 1 25 9 45 19 44 19 41 -7 66 -19 18 -20
20 -4 20 12 0 16 5 12 16 -3 9 -6 18 -6 20 0 11 -69 2 -80 -11z"/>
<path d="M443 1270 c-7 -20 -8 -30 -1 -30 5 0 12 9 15 19 8 30 35 14 31 -18
-2 -18 -9 -26 -23 -27 -37 -2 -64 -16 -80 -40 -8 -13 -21 -24 -27 -24 -9 0 -9
3 0 12 7 7 12 21 12 33 0 11 9 26 20 33 11 7 20 22 19 35 l0 22 -9 -21 c-9
-23 -30 -41 -30 -27 0 5 5 14 11 20 6 6 7 13 2 16 -5 3 -16 -9 -25 -28 -8 -19
-11 -32 -7 -29 5 3 9 -4 9 -15 0 -11 -4 -23 -10 -26 -15 -10 -12 -35 5 -35 8
0 15 -7 15 -16 0 -8 -4 -13 -9 -10 -4 3 -13 -6 -20 -20 -9 -20 -9 -30 1 -41
10 -13 14 -13 25 3 7 10 13 34 13 53 1 53 45 98 92 92 20 -2 23 3 32 51 6 32
4 37 -9 32 -8 -4 -21 -1 -28 4 -10 9 -16 4 -24 -18z m-77 -195 c-3 -9 -11 -13
-16 -10 -8 5 -7 11 1 21 14 18 24 11 15 -11z"/>
<path d="M6195 1215 c-165 -52 -411 -130 -790 -249 -224 -70 -591 -184 -685
-213 -124 -37 -389 -121 -813 -257 -148 -47 -276 -86 -285 -86 -10 0 -29 -6
-43 -14 -15 -7 -55 -23 -90 -34 -35 -11 -215 -70 -399 -130 -184 -61 -380
-122 -435 -137 -159 -41 -267 -78 -255 -85 6 -4 32 4 58 16 26 13 53 24 60 24
40 1 465 133 1007 314 55 19 224 73 375 121 151 48 356 113 455 145 99 32 207
66 240 75 74 21 321 97 565 175 102 33 201 63 220 66 19 4 43 11 52 16 16 7
172 57 767 244 182 57 234 76 205 73 -5 0 -99 -29 -209 -64z"/>
<path d="M272 1187 c-2 -32 -20 -70 -30 -63 -4 2 -8 -10 -9 -27 -1 -17 -7 -35
-13 -41 -5 -5 -10 -23 -10 -39 0 -28 1 -29 23 -15 12 9 23 26 24 39 3 23 3 23
-6 3 -10 -23 -31 -41 -31 -27 0 19 33 99 46 115 10 10 14 29 11 50 -3 30 -4
30 -5 5z"/>
<path d="M3098 1093 c-11 -3 -18 -14 -18 -29 0 -20 5 -24 29 -24 34 0 44 11
34 37 -8 19 -17 22 -45 16z m37 -28 c0 -5 -10 -11 -22 -13 -16 -2 -23 2 -23
13 0 11 7 15 23 13 12 -2 22 -7 22 -13z"/>
<path d="M21 1053 c-5 -10 -9 -34 -9 -55 0 -20 -3 -50 -7 -66 -5 -23 -2 -33
12 -40 17 -10 17 -12 1 -45 -15 -31 -15 -37 -3 -47 19 -16 45 -6 45 17 0 15
-1 15 -13 -2 -20 -27 -32 -1 -17 35 7 16 10 36 7 44 -3 7 1 23 9 35 8 11 11
21 6 21 -5 0 -15 -12 -22 -27 -7 -17 -14 -23 -17 -15 -3 7 -1 18 4 25 5 7 8
33 7 59 -3 53 15 79 40 59 9 -7 17 -8 20 -3 6 10 -15 22 -39 22 -8 0 -19 -8
-24 -17z"/>
<path d="M3000 1051 c0 -29 11 -51 25 -51 17 0 23 17 17 47 -5 29 -42 32 -42
4z m33 -10 c5 -22 -1 -33 -14 -25 -12 7 -12 44 0 44 5 0 11 -9 14 -19z"/>
<path d="M2920 1017 c0 -32 27 -66 38 -49 15 22 2 72 -19 72 -13 0 -19 -7 -19
-23z m32 -12 c3 -14 1 -28 -3 -31 -5 -3 -9 -2 -9 3 0 4 -3 18 -6 31 -4 12 -2
22 4 22 5 0 12 -11 14 -25z"/>
<path d="M2341 953 c-45 -23 -61 -65 -61 -162 0 -96 27 -191 68 -241 25 -29
36 -35 70 -35 45 0 89 26 110 66 9 16 12 54 9 119 -4 106 -32 199 -70 238 -31
30 -83 37 -126 15z m103 -14 c53 -42 86 -141 86 -263 0 -75 -1 -79 -33 -111
-68 -68 -119 -54 -172 49 -25 49 -30 72 -33 152 -5 109 5 144 52 174 40 25 67
25 100 -1z"/>
<path d="M2355 918 c-30 -17 -36 -31 -19 -49 14 -16 14 -26 -2 -102 l-18 -84
32 -52 c18 -28 32 -55 32 -60 0 -22 31 -18 48 7 17 22 22 24 35 13 26 -21 34
-6 41 84 l7 85 -39 58 c-21 31 -46 69 -56 85 -18 29 -30 32 -61 15z m51 -19
c16 -17 16 -22 4 -29 -13 -8 -13 -10 0 -10 8 0 32 -24 52 -54 l38 -54 -7 -82
c-5 -65 -9 -80 -18 -67 -8 12 -15 13 -30 4 -11 -5 -24 -16 -28 -24 -12 -20
-21 -16 -35 16 -7 16 -22 39 -32 51 -24 28 -24 38 -4 130 14 60 15 77 4 93
-10 17 -10 23 6 34 24 17 28 17 50 -8z"/>
<path d="M2367 888 c4 -7 8 -16 8 -20 0 -11 15 -22 15 -10 0 19 -12 42 -22 42
-5 0 -6 -6 -1 -12z"/>
<path d="M2382 827 c-19 -22 -25 -93 -12 -146 16 -66 28 -75 74 -56 44 19 45
32 8 135 -27 75 -47 95 -70 67z m35 -9 c11 -13 53 -140 53 -157 0 -5 -14 -17
-32 -25 -36 -18 -41 -14 -58 44 -13 45 -13 80 1 119 12 33 21 38 36 19z"/>
<path d="M2637 923 c-4 -3 -7 -17 -7 -30 0 -21 4 -24 28 -21 21 2 28 9 30 31
3 23 0 27 -21 27 -13 0 -27 -3 -30 -7z m41 -20 c-5 -26 -38 -29 -38 -4 0 15 6
21 21 21 14 0 19 -5 17 -17z"/>
<path d="M2837 814 c-12 -12 -8 -54 6 -54 22 0 39 17 35 36 -3 19 -29 30 -41
18z m25 -36 c-15 -15 -26 -4 -18 18 5 13 9 15 18 6 9 -9 9 -15 0 -24z"/>
<path d="M1910 647 c0 -1 -4 -17 -9 -35 -6 -20 -6 -32 0 -32 14 0 49 39 49 55
0 8 -9 15 -20 15 -11 0 -20 -1 -20 -3z m30 -16 c0 -5 -7 -14 -15 -21 -16 -14
-18 -10 -9 14 6 17 24 22 24 7z"/>
<path d="M680 464 c-6 -14 -10 -36 -10 -50 0 -14 -7 -38 -15 -55 -19 -36 -39
-30 -25 7 13 32 13 64 1 64 -5 0 -7 -8 -4 -18 2 -11 -2 -34 -10 -53 -14 -35
-14 -35 12 -34 31 0 51 34 51 85 0 20 7 46 16 58 9 13 11 22 4 22 -6 0 -15
-12 -20 -26z"/>
<path d="M3650 440 c-9 -6 -10 -10 -3 -10 6 0 15 5 18 10 8 12 4 12 -15 0z"/>
<path d="M380 325 c-1 -5 -1 -21 0 -33 1 -13 -8 -33 -19 -43 -12 -11 -21 -26
-21 -33 0 -8 -7 -19 -15 -26 -13 -11 -15 -8 -15 19 0 17 -4 31 -9 31 -6 0 -7
-16 -4 -35 4 -27 2 -35 -10 -35 -8 0 -17 -7 -21 -15 -3 -9 -16 -20 -28 -25
l-23 -9 22 0 c12 -1 28 7 35 18 7 10 28 26 46 35 18 10 32 24 32 35 0 26 26
46 36 29 5 -7 8 -22 7 -33 -1 -17 -1 -17 3 -2 5 15 8 16 21 6 12 -11 14 -10
11 2 -4 17 36 59 56 59 8 0 18 5 22 11 3 6 15 9 25 6 10 -3 22 -1 25 4 8 14
-40 11 -72 -6 -16 -8 -40 -24 -52 -36 -29 -26 -34 -21 -43 39 -3 26 -7 43 -9
37z"/>
<path d="M1111 232 c-6 -12 -11 -30 -11 -41 0 -25 -8 -26 -32 -4 -11 9 -18 11
-18 5 0 -7 4 -12 10 -12 5 0 7 -21 3 -52 -7 -55 -41 -107 -62 -94 -18 11 -13
34 9 41 14 4 20 14 19 33 -2 25 -2 25 -6 4 -3 -16 -10 -22 -19 -18 -8 3 -13 2
-9 -3 3 -5 1 -11 -4 -13 -20 -8 -21 -43 0 -56 18 -11 24 -9 51 20 l31 33 -7
-40 c-4 -22 -4 -36 0 -32 4 4 9 39 10 78 1 47 6 74 15 79 19 12 31 2 20 -18
-5 -9 -5 -46 -1 -82 l8 -65 -1 70 c0 39 2 76 6 82 4 7 2 21 -5 33 -10 16 -10
24 0 41 7 12 11 23 9 26 -3 3 -10 -4 -16 -15z"/>
<path d="M1937 213 c-2 -5 -1 -19 4 -33 7 -23 7 -23 8 8 1 31 -3 40 -12 25z"/>
<path d="M1910 201 c0 -5 -9 -11 -20 -14 -18 -5 -20 -14 -20 -85 0 -83 5 -97
30 -81 13 7 12 9 -2 9 -15 0 -17 10 -15 73 2 62 4 72 20 71 10 -1 17 5 17 17
0 11 -2 19 -5 19 -3 0 -5 -4 -5 -9z"/>
<path d="M1276 79 c-8 -42 0 -50 9 -9 4 17 5 34 2 36 -2 3 -7 -10 -11 -27z"/>
</g>
</defs>
<mask id="mp84504">
  <use xlink:href="#gp84504" fill="white" />
</mask>
<use xlink:href="#gp84504" data-mask="url(#mp84504)" data-stroke="black" stroke-width="20px" fill="black"/>
</svg>
