<?xml version="1.0" standalone="no"?>
<!DOCTYPE svg PUBLIC "-//W3C//DTD SVG 20010904//EN"
 "http://www.w3.org/TR/2001/REC-SVG-20010904/DTD/svg10.dtd">
<svg class="Potrace" xmlns:xlink="http://www.w3.org/1999/xlink" version="1.0" xmlns="http://www.w3.org/2000/svg"
 width="641.000000pt" height="431.000000pt" viewBox="0 0 641.000000 431.000000"
 preserveAspectRatio="xMidYMid meet">
<defs>
  <g id="gp78401" transform="translate(0.000000,431.000000) scale(0.100000,-0.100000)"
>
<path d="M301 4116 c-16 -19 -16 -3683 0 -3703 10 -11 132 -13 688 -11 l676 3
5 525 5 525 848 3 848 2 -7 -22 c-11 -39 -95 -149 -128 -169 -32 -20 -20 -27
15 -8 23 12 133 158 125 166 -3 3 -1 14 5 24 9 18 -14 19 -851 19 -473 0 -861
-1 -862 -2 -2 -2 -5 -239 -8 -528 l-5 -525 -667 -2 c-536 -2 -668 0 -677 11
-16 19 -16 3663 0 3682 10 12 444 14 2889 14 2727 0 2878 -1 2892 -17 13 -15
15 -35 11 -110 l-6 -93 -2216 0 c-1219 0 -2517 -1 -2886 -2 l-670 -3 667 -2
667 -3 3 -103 3 -102 2218 -3 2217 -2 0 -1105 c0 -1045 -1 -1105 -17 -1106
-10 0 -261 0 -559 1 -479 1 -542 0 -553 -14 -19 -22 -228 -23 -257 -1 -16 12
-86 14 -444 15 -234 0 -430 -4 -437 -8 -6 -4 180 -6 414 -4 367 2 431 1 459
-13 46 -22 241 -21 272 1 20 14 86 15 560 14 295 -1 545 -1 555 -1 16 1 17 61
17 1116 l0 1115 -2218 2 -2217 3 -3 98 -3 97 2216 0 2215 0 2 -97 c1 -60 4
-23 8 97 5 155 4 200 -7 218 l-13 22 -2889 0 c-2454 0 -2890 -2 -2900 -14z"/>
<path d="M380 4025 c-17 -21 2 -65 28 -65 41 0 57 51 23 70 -27 14 -36 13 -51
-5z m50 -11 c11 -12 10 -18 -3 -32 -16 -15 -18 -15 -34 0 -13 14 -14 20 -3 32
7 9 16 16 20 16 4 0 13 -7 20 -16z"/>
<path d="M3768 3843 c-13 -3 -17 -15 -16 -53 0 -53 15 -68 50 -49 16 9 19 17
14 41 -3 17 -6 36 -6 43 0 15 -18 23 -42 18z m21 -24 c-12 -7 -12 -9 0 -9 8 0
11 -3 8 -7 -4 -3 -2 -12 5 -20 16 -20 -16 -53 -34 -35 -9 9 -8 12 8 13 18 0
18 1 -1 9 -11 5 -14 9 -7 9 10 1 10 5 0 21 -11 17 -10 22 2 30 8 5 18 6 23 3
5 -3 3 -9 -4 -14z"/>
<path d="M3858 3842 c-19 -4 -21 -9 -18 -62 3 -47 22 -60 54 -37 13 10 16 21
10 54 -7 43 -16 52 -46 45z m21 -23 c-12 -7 -12 -9 0 -9 8 0 11 -3 8 -7 -4 -3
-2 -12 5 -20 9 -11 8 -18 -4 -30 -19 -18 -37 -10 -33 15 1 9 -2 25 -6 34 -7
12 -4 20 8 27 21 11 41 2 22 -10z"/>
<path d="M3210 3791 l0 -51 36 0 35 0 -3 48 c-3 45 -4 47 -35 50 l-33 3 0 -50z
m58 -3 c3 -35 1 -38 -22 -38 -24 0 -26 4 -26 41 0 36 2 40 23 37 18 -2 23 -10
25 -40z"/>
<path d="M3230 3790 c0 -16 4 -30 9 -30 15 0 22 18 10 25 -5 4 -8 13 -5 21 3
8 1 14 -4 14 -6 0 -10 -13 -10 -30z"/>
<path d="M3298 3795 c-3 -41 -1 -45 25 -54 38 -14 70 16 65 62 -4 44 -32 43
-36 -1 -4 -39 -22 -33 -22 9 0 49 -27 36 -32 -16z m35 -32 c12 -11 27 10 27
38 0 18 4 28 10 24 15 -9 12 -46 -6 -66 -26 -29 -54 -8 -53 39 l1 37 8 -33 c4
-18 10 -35 13 -39z"/>
<path d="M3407 3833 c-8 -7 2 -84 12 -95 3 -4 16 -5 29 -2 19 6 22 13 22 55 0
47 -1 49 -28 49 -16 0 -32 -3 -35 -7z m41 -10 c-22 -5 -23 -22 -3 -29 19 -8
20 -40 1 -47 -22 -9 -28 5 -8 20 16 12 15 13 -3 6 -11 -3 -17 -3 -13 2 4 4 3
14 -3 21 -15 18 -3 34 24 33 17 -1 18 -2 5 -6z"/>
<path d="M3497 3826 c-10 -25 4 -86 19 -86 10 0 14 14 14 50 0 36 -4 50 -14
50 -8 0 -16 -6 -19 -14z m22 -38 c-1 -42 -1 -42 -10 -13 -5 17 -7 36 -4 43 9
24 15 11 14 -30z"/>
<path d="M3610 3825 c0 -18 -17 -20 -22 -3 -2 6 -12 9 -21 5 -22 -8 -25 -87
-3 -87 8 0 17 8 20 17 5 12 9 14 18 5 25 -25 38 -13 38 33 0 33 -4 45 -15 45
-8 0 -15 -7 -15 -15z m20 -32 c0 -29 -3 -34 -12 -25 -16 16 -23 15 -42 -4 -15
-14 -16 -13 -16 15 0 16 5 33 10 36 6 3 10 2 10 -3 0 -5 9 -12 20 -15 15 -4
20 0 20 14 0 10 2 19 5 19 3 0 5 -17 5 -37z"/>
<path d="M3667 3833 c-4 -3 -7 -23 -7 -44 0 -41 24 -64 54 -53 19 7 21 23 3
30 -16 6 -20 44 -4 41 6 -1 13 6 15 16 3 13 -3 17 -26 17 -16 0 -32 -3 -35 -7z
m41 -10 c-25 -6 -25 -63 -1 -63 13 0 14 -3 5 -12 -17 -17 -42 8 -42 42 0 32 7
40 34 39 17 -1 18 -2 4 -6z"/>
<path d="M3960 3790 c0 -38 4 -50 15 -50 11 0 15 12 15 50 0 38 -4 50 -15 50
-11 0 -15 -12 -15 -50z m17 -22 c-2 -13 -4 -3 -4 22 0 25 2 35 4 23 2 -13 2
-33 0 -45z"/>
<path d="M4074 3825 c-5 -11 -10 -12 -24 -2 -24 15 -28 10 -32 -38 -2 -31 1
-40 15 -43 11 -2 17 3 17 14 0 14 3 15 12 6 20 -20 35 -14 41 18 10 47 -14 84
-29 45z m21 -37 c-6 -25 -8 -25 -36 -11 -16 8 -29 21 -29 29 0 12 4 12 25 -2
24 -16 25 -16 25 7 0 16 3 20 11 12 5 -5 7 -21 4 -35z m-55 -24 c0 -8 -4 -12
-10 -9 -5 3 -10 10 -10 16 0 5 5 9 10 9 6 0 10 -7 10 -16z"/>
<path d="M4130 3791 c0 -50 13 -67 44 -55 20 8 24 23 18 67 -4 33 -7 37 -33
37 -28 0 -29 -2 -29 -49z m34 24 c-19 -15 -19 -15 1 -8 11 3 17 3 13 -2 -4 -4
-3 -14 3 -22 9 -10 8 -17 -1 -28 -20 -24 -33 -13 -37 33 -3 38 -1 42 19 42 21
0 21 0 2 -15z"/>
<path d="M4220 3790 c0 -38 4 -50 15 -50 11 0 15 12 15 50 0 38 -4 50 -15 50
-11 0 -15 -12 -15 -50z m17 -22 c-2 -13 -4 -3 -4 22 0 25 2 35 4 23 2 -13 2
-33 0 -45z"/>
<path d="M4276 3824 c-21 -56 5 -97 54 -85 19 5 26 14 28 40 2 18 -2 39 -9 47
-16 19 -65 18 -73 -2z m62 -6 c7 -7 12 -22 12 -35 0 -27 -37 -47 -57 -31 -14
11 -18 60 -6 71 10 11 38 8 51 -5z"/>
<path d="M4300 3785 c0 -33 2 -35 20 -25 23 12 26 30 8 48 -20 20 -28 14 -28
-23z m22 -7 c-9 -9 -12 -7 -12 12 0 19 3 21 12 12 9 -9 9 -15 0 -24z"/>
<path d="M4380 3791 c0 -41 4 -51 20 -56 11 -3 24 -3 30 0 17 10 11 35 -7 35
-17 1 -17 1 0 11 9 5 17 21 17 34 0 21 -5 25 -30 25 -29 0 -30 -1 -30 -49z
m34 24 c-16 -13 -16 -14 -1 -9 9 3 17 1 17 -5 0 -6 -7 -11 -15 -11 -8 0 -15
-7 -15 -15 0 -8 8 -15 17 -15 12 0 14 -3 6 -11 -19 -19 -33 0 -33 42 0 33 3
39 22 39 21 0 21 0 2 -15z"/>
<path d="M4470 3790 c0 -38 4 -50 15 -50 8 0 15 6 15 13 0 8 3 8 9 -2 5 -8 16
-11 25 -8 12 5 14 15 10 39 -9 54 -12 58 -44 58 -29 0 -30 -1 -30 -50z m61 -2
c3 -21 2 -38 -3 -38 -4 0 -8 5 -8 10 0 14 -27 12 -33 -2 -3 -7 -6 6 -6 30 -1
39 1 43 21 40 18 -2 24 -12 29 -40z"/>
<path d="M5677 3833 c-4 -3 -7 -12 -7 -20 0 -9 17 -13 60 -13 47 0 60 3 60 15
0 8 5 15 10 15 6 0 10 -8 10 -17 0 -16 8 -17 60 -13 33 3 60 8 60 13 0 4 0 12
0 17 0 6 -12 10 -26 10 -14 0 -23 -4 -19 -10 3 -5 12 -7 19 -4 8 3 17 1 21 -5
4 -7 -5 -11 -24 -11 -20 0 -31 5 -31 14 0 11 -20 14 -93 15 -52 1 -97 -2 -100
-6z m103 -13 c0 -5 -23 -10 -51 -10 -31 0 -48 4 -44 10 3 6 26 10 51 10 24 0
44 -4 44 -10z m80 0 c0 -5 -9 -10 -20 -10 -11 0 -20 5 -20 10 0 6 9 10 20 10
11 0 20 -4 20 -10z"/>
<path d="M5970 3790 c0 -25 4 -31 18 -28 11 2 17 12 17 28 0 16 -6 26 -17 28
-14 3 -18 -3 -18 -28z m22 -12 c-9 -9 -12 -7 -12 12 0 19 3 21 12 12 9 -9 9
-15 0 -24z"/>
<path d="M5499 3780 c-15 -4 -23 -12 -21 -23 4 -25 -27 -21 -38 6 -10 22 -10
22 -7 -3 2 -24 5 -25 72 -27 39 0 89 1 113 4 37 4 43 7 40 26 -3 19 -10 21
-69 22 -36 0 -77 -2 -90 -5z m151 -19 c0 -8 -7 -11 -20 -8 -11 3 -20 2 -20 -2
0 -4 -11 -7 -25 -7 -14 0 -25 4 -25 8 0 5 -10 4 -21 -3 -16 -8 -23 -8 -29 1
-6 9 -9 9 -13 -1 -4 -9 -6 -8 -6 5 -1 14 4 17 19 13 11 -3 20 -2 20 1 0 4 27
7 60 7 44 0 60 -4 60 -14z"/>
<path d="M5682 3758 c3 -20 9 -21 122 -25 121 -4 141 2 129 34 -4 10 -35 13
-130 13 -122 0 -124 0 -121 -22z m241 -3 c1 -6 -26 -10 -66 -11 -92 -1 -167 7
-167 18 0 12 229 6 233 -7z"/>
<path d="M1453 3743 c-12 -2 -34 -18 -48 -34 -37 -44 -35 -108 4 -151 25 -28
36 -33 74 -33 58 0 99 29 111 78 23 89 -48 160 -141 140z m77 -18 c38 -20 60
-52 60 -90 0 -38 -22 -70 -60 -90 -43 -22 -65 -19 -105 16 -30 26 -35 37 -35
73 0 33 6 48 28 68 43 41 68 46 112 23z"/>
<path d="M1435 3680 c-3 -5 -1 -18 5 -29 7 -13 7 -22 0 -26 -5 -3 -10 -15 -10
-26 0 -14 7 -19 26 -19 14 0 23 4 19 10 -3 5 -12 7 -20 3 -16 -6 -19 5 -7 25
6 9 14 6 32 -13 13 -14 32 -25 42 -25 29 0 21 37 -17 75 -34 35 -59 44 -70 25z
m60 -35 c33 -33 44 -55 27 -55 -14 0 -83 76 -76 83 11 10 12 10 49 -28z"/>
<path d="M1502 3678 c6 -16 36 -34 44 -26 3 4 4 14 1 23 -7 17 -51 21 -45 3z
m33 -8 c3 -5 2 -10 -4 -10 -5 0 -13 5 -16 10 -3 6 -2 10 4 10 5 0 13 -4 16
-10z"/>
<path d="M438 3732 c-43 -3 -47 -6 -53 -32 -9 -40 -7 -45 13 -46 9 0 27 -4 40
-8 16 -5 32 -2 49 10 19 12 28 13 31 6 5 -15 35 -15 49 -1 9 9 16 7 29 -6 15
-15 29 -16 93 -11 42 4 85 6 96 5 71 -6 90 -4 87 11 -2 8 -4 23 -5 32 -1 10
-5 18 -9 18 -4 0 -5 -14 -1 -31 6 -32 6 -32 -28 -25 -19 4 -47 8 -62 8 -24 1
-28 5 -25 26 2 20 10 25 38 29 48 5 251 6 256 0 12 -12 11 -47 -1 -57 -19 -16
-35 -4 -35 24 0 30 -27 30 -35 -1 -4 -18 -12 -23 -35 -23 -23 0 -31 5 -36 25
-4 14 -8 24 -11 22 -2 -3 -1 -16 3 -31 5 -22 12 -26 44 -26 30 0 39 4 45 23
l8 22 4 -23 c6 -29 25 -37 53 -22 18 10 21 18 16 43 -3 17 -8 32 -10 35 -4 3
-89 4 -281 1 -24 0 -34 -15 -36 -54 0 -29 -1 -29 -11 -7 -8 15 -8 29 -1 45 11
24 8 25 -54 18 -7 0 -13 -12 -13 -26 0 -14 -4 -25 -10 -25 -5 0 -10 11 -10 24
0 23 -3 25 -72 28 -40 2 -94 2 -120 0z m182 -38 c0 -17 6 -24 20 -24 15 0 20
7 20 25 0 14 5 26 10 27 30 4 34 1 34 -32 0 -35 -1 -35 -47 -38 -35 -2 -49 1
-53 12 -3 9 -15 16 -25 16 -10 0 -19 5 -19 10 0 6 -5 10 -11 10 -8 0 -8 -4 0
-14 9 -11 9 -16 0 -22 -7 -4 -15 -2 -17 4 -2 7 -12 12 -22 12 -10 0 -20 3 -23
8 -2 4 -2 2 -1 -5 5 -20 -23 -35 -48 -27 -13 4 -31 7 -40 5 -15 -2 -16 2 -7
28 13 36 38 41 40 9 2 -21 2 -21 6 2 l5 25 14 -30 c10 -21 12 -23 8 -6 -8 32
3 37 85 33 68 -3 71 -5 71 -28z"/>
<path d="M374 3599 c-4 -7 0 -17 8 -23 13 -10 13 -13 1 -25 -20 -19 -3 -33 42
-35 35 -1 38 1 41 30 3 25 -1 33 -16 37 -17 4 -20 0 -20 -30 0 -28 -3 -34 -16
-29 -9 3 -20 6 -26 6 -6 0 -3 9 6 19 17 18 17 20 -1 29 -16 10 -16 11 -2 17 9
3 36 5 60 3 46 -3 50 -10 34 -53 -6 -15 -5 -17 4 -9 6 6 13 24 14 40 2 29 2
29 -60 32 -40 2 -64 -1 -69 -9z m86 -39 c0 -5 -4 -10 -10 -10 -5 0 -10 5 -10
10 0 6 5 10 10 10 6 0 10 -4 10 -10z"/>
<path d="M534 3598 c-3 -5 -8 -22 -10 -38 -6 -37 13 -46 91 -45 65 1 116 25
114 54 0 9 -3 11 -5 4 -3 -7 -20 -21 -37 -31 -29 -18 -69 -21 -150 -13 -4 1
-6 13 -3 29 2 15 5 30 5 33 1 3 78 6 172 7 134 1 171 -2 175 -13 6 -15 32 -14
42 2 9 13 202 15 218 2 6 -5 9 -20 6 -34 -3 -19 -11 -25 -31 -26 -14 0 -88 -1
-164 -2 -145 -2 -165 3 -155 41 4 12 -1 18 -13 18 -14 0 -19 -8 -19 -29 0 -17
-4 -26 -11 -22 -6 4 -8 13 -6 19 3 7 1 19 -4 27 -7 10 -9 3 -7 -21 2 -27 8
-36 24 -38 18 -3 21 1 18 25 l-4 28 10 -25 c6 -13 15 -27 20 -30 11 -7 327 -3
338 4 17 10 20 57 6 71 -17 16 -211 19 -231 3 -8 -6 -19 -6 -32 1 -24 14 -349
12 -357 -1z"/>
<path d="M1996 3475 c-8 -21 -8 -188 0 -209 9 -23 140 -23 173 0 20 14 22 22
17 58 -7 45 -8 64 -5 102 3 43 -23 58 -105 62 -61 3 -74 1 -80 -13z m159 -20
c22 -21 24 -27 13 -50 -8 -19 -8 -31 0 -50 31 -68 2 -97 -94 -93 l-69 3 -3 94
c-1 52 -1 100 2 108 4 9 25 13 66 13 51 0 65 -4 85 -25z"/>
<path d="M2057 3443 c-4 -3 -7 -17 -7 -30 0 -22 4 -24 37 -21 60 5 57 57 -3
58 -11 0 -24 -3 -27 -7z m58 -23 c0 -9 -11 -16 -27 -18 -27 -3 -38 14 -21 32
12 12 48 2 48 -14z"/>
<path d="M2057 3353 c-13 -12 -7 -54 8 -59 23 -9 65 4 72 23 11 28 -58 59 -80
36z m61 -15 c15 -15 -3 -38 -29 -38 -22 0 -33 16 -25 35 7 18 37 20 54 3z"/>
<path d="M2534 3476 c-3 -8 -3 -20 1 -26 9 -14 -10 -20 -75 -23 l-55 -2 0 -85
c0 -84 0 -85 25 -85 23 0 25 4 28 48 3 42 7 51 33 65 16 9 29 24 29 33 0 24
26 42 51 36 17 -5 20 -1 17 21 -3 31 -44 44 -54 18z m41 -7 c10 -15 -1 -23
-20 -15 -9 3 -13 10 -10 16 8 13 22 13 30 -1z m-65 -65 c0 -8 -11 -19 -25 -24
-24 -9 -32 -27 -37 -85 -2 -19 -9 -30 -18 -30 -11 0 -16 15 -18 64 -2 35 -1
69 2 76 7 19 96 18 96 -1z"/>
<path d="M2915 3478 c-2 -7 -6 -47 -7 -88 -3 -75 -3 -75 -33 -80 -24 -4 -31
-11 -33 -33 -3 -26 -2 -27 47 -27 75 0 82 12 79 134 -3 96 -4 101 -26 104 -12
2 -24 -3 -27 -10z m43 -95 c3 -107 -6 -123 -69 -123 -33 0 -40 3 -37 17 2 11
15 20 33 23 30 5 30 5 33 80 3 86 7 103 25 98 8 -3 13 -34 15 -95z"/>
<path d="M3196 3473 c-4 -14 -2 -177 3 -215 1 -5 12 -8 26 -8 23 0 25 3 25 48
0 98 46 103 52 7 3 -46 5 -50 28 -50 24 0 25 3 28 63 4 81 -12 109 -65 114
-30 2 -38 8 -43 28 -7 31 -46 40 -54 13z m44 -24 c5 -19 13 -25 42 -27 54 -5
70 -28 66 -98 -2 -44 -7 -59 -18 -59 -11 0 -16 15 -20 54 -3 36 -11 58 -22 65
-26 16 -41 -5 -46 -69 -4 -44 -8 -55 -20 -53 -13 2 -16 22 -19 102 -1 54 0
103 3 108 10 15 28 3 34 -23z"/>
<path d="M4114 3477 c-3 -8 -4 -32 -2 -53 2 -31 7 -39 23 -39 17 0 20 7 20 50
0 39 -4 50 -18 53 -9 2 -20 -3 -23 -11z m34 -48 c-2 -19 -7 -33 -13 -32 -12 3
-19 49 -10 71 10 26 27 -2 23 -39z"/>
<path d="M5166 3473 c-4 -14 -2 -159 3 -215 1 -5 12 -8 26 -8 l25 0 0 120 0
120 -24 0 c-15 0 -27 -7 -30 -17z m44 -104 c0 -97 -2 -110 -16 -107 -14 2 -17
20 -20 102 -3 105 -1 116 22 116 11 0 14 -21 14 -111z"/>
<path d="M4453 3473 c-7 -3 -13 -10 -13 -18 0 -7 -7 -18 -15 -25 -8 -7 -15
-20 -15 -30 0 -10 7 -20 15 -24 10 -4 15 -20 15 -54 0 -57 12 -72 57 -72 28 0
33 4 33 24 0 13 -7 26 -15 30 -9 3 -15 19 -15 41 0 24 4 35 15 35 9 0 15 9 15
25 0 16 -6 25 -15 25 -8 0 -15 7 -15 15 0 17 -29 34 -47 28z m37 -34 c0 -10 7
-19 15 -19 8 0 15 -7 15 -15 0 -8 -7 -15 -15 -15 -11 0 -15 -12 -15 -45 0 -31
5 -47 15 -51 24 -9 18 -34 -8 -34 -35 0 -47 19 -47 72 0 34 -5 50 -17 57 -16
9 -16 11 -2 28 9 10 19 26 22 35 8 23 37 12 37 -13z"/>
<path d="M1447 3424 c-4 -4 -7 -20 -7 -36 l0 -29 63 3 c60 3 62 4 65 31 3 27
2 28 -40 26 -24 -1 -50 1 -59 5 -8 4 -18 3 -22 0z m51 -33 c10 -14 12 -14 10
-1 -2 10 7 16 25 18 22 3 27 -1 27 -17 0 -19 -6 -21 -55 -21 -52 0 -55 1 -55
25 0 19 4 23 18 18 9 -4 23 -14 30 -22z"/>
<path d="M2237 3418 c-26 -20 -36 -61 -27 -104 11 -47 32 -64 83 -64 53 0 74
14 86 55 12 44 -2 101 -29 115 -26 14 -93 13 -113 -2z m103 -8 c27 -14 41 -64
28 -100 -11 -34 -35 -50 -73 -50 -41 0 -63 17 -74 56 -11 39 5 87 31 97 22 9
68 7 88 -3z"/>
<path d="M2260 3365 c-14 -37 3 -75 35 -75 18 0 28 7 35 25 14 37 -3 75 -35
75 -18 0 -28 -7 -35 -25z m60 -5 c13 -24 -2 -60 -25 -60 -23 0 -38 36 -25 60
6 11 17 20 25 20 8 0 19 -9 25 -20z"/>
<path d="M2627 3412 c-33 -36 -18 -79 29 -88 54 -10 54 -27 0 -19 -42 7 -46 5
-46 -13 0 -30 24 -44 75 -44 49 0 70 11 77 40 9 33 -9 58 -51 71 -23 6 -39 16
-36 21 6 9 44 2 62 -12 16 -13 28 29 13 47 -18 22 -103 20 -123 -3z m112 -5
c15 -19 4 -26 -27 -18 -15 5 -33 6 -39 4 -26 -9 -12 -30 27 -42 51 -15 66 -41
42 -71 -20 -25 -82 -31 -107 -10 -26 22 -16 30 30 23 37 -5 45 -3 45 10 0 10
-14 20 -39 27 -47 12 -62 42 -35 71 20 22 86 26 103 6z"/>
<path d="M3028 3420 c-27 -16 -41 -74 -28 -115 14 -41 35 -55 85 -55 50 0 71
14 85 55 14 42 -1 100 -30 115 -24 13 -90 12 -112 0z m101 -10 c31 -16 46 -65
31 -100 -15 -35 -37 -50 -75 -50 -38 0 -60 15 -75 50 -14 34 0 83 29 100 21
12 68 13 90 0z"/>
<path d="M3050 3365 c-14 -37 3 -75 35 -75 32 0 49 38 35 75 -7 18 -17 25 -35
25 -18 0 -28 -7 -35 -25z m60 -5 c13 -24 -2 -60 -25 -60 -23 0 -38 36 -25 60
6 11 17 20 25 20 8 0 19 -9 25 -20z"/>
<path d="M3380 3340 c0 -89 0 -90 25 -90 27 0 33 13 37 85 2 28 8 40 18 40 11
0 16 -16 20 -60 5 -56 7 -60 30 -60 24 0 25 3 28 71 4 93 -6 104 -94 104 l-64
0 0 -90z m135 64 c22 -22 18 -139 -5 -139 -11 0 -16 16 -20 60 -5 56 -7 60
-30 60 -23 0 -25 -4 -30 -60 -4 -47 -9 -61 -22 -63 -16 -3 -18 6 -18 77 l0 81
54 0 c37 0 60 -5 71 -16z"/>
<path d="M3577 3412 c-10 -10 -17 -28 -17 -40 0 -23 34 -52 62 -52 9 0 20 -5
23 -11 5 -7 -7 -8 -39 -4 -42 7 -46 5 -46 -13 0 -30 24 -44 75 -44 59 0 77 15
73 60 -3 32 -7 37 -46 50 -23 7 -40 17 -37 22 6 9 44 2 62 -12 16 -13 28 29
13 47 -18 22 -103 20 -123 -3z m112 -5 c15 -19 4 -26 -27 -18 -63 18 -71 -18
-9 -39 33 -12 43 -20 45 -41 2 -14 -4 -31 -12 -38 -20 -16 -82 -17 -101 -1
-26 22 -16 30 30 23 37 -5 45 -3 45 10 0 10 -12 19 -27 23 -31 7 -63 32 -63
47 0 6 7 19 17 29 19 21 85 25 102 5z"/>
<path d="M3757 3418 c-28 -22 -38 -65 -27 -109 12 -44 33 -59 85 -59 50 0 71
14 85 55 14 42 -1 100 -30 115 -26 14 -93 12 -113 -2z m102 -8 c31 -16 46 -65
31 -100 -15 -35 -37 -50 -75 -50 -40 0 -62 16 -75 54 -9 28 -8 40 4 64 9 17
21 32 28 35 22 9 68 7 87 -3z"/>
<path d="M3780 3365 c-14 -37 3 -75 35 -75 32 0 49 38 35 75 -7 18 -17 25 -35
25 -18 0 -28 -7 -35 -25z m60 -5 c13 -24 -2 -60 -25 -60 -8 0 -19 9 -25 20
-13 24 2 60 25 60 8 0 19 -9 25 -20z"/>
<path d="M3928 3418 c-3 -11 -3 -116 1 -155 1 -7 12 -13 26 -13 23 0 25 3 25
48 0 98 46 103 52 7 3 -46 5 -50 28 -50 24 0 25 3 28 63 4 94 -10 112 -92 112
-42 0 -65 -4 -68 -12z m136 -17 c23 -25 19 -136 -4 -136 -11 0 -16 15 -20 54
-3 36 -11 58 -22 65 -26 16 -41 -5 -46 -69 -4 -44 -8 -55 -20 -53 -13 3 -17
17 -17 73 0 39 1 73 3 78 2 4 27 7 56 7 39 0 57 -5 70 -19z"/>
<path d="M4194 3405 c-25 -38 -12 -73 31 -81 54 -10 55 -27 1 -19 -42 7 -46 5
-46 -13 0 -34 28 -46 102 -43 18 1 34 10 44 26 24 37 7 68 -45 84 -23 6 -39
16 -36 21 6 9 44 2 62 -12 16 -13 28 29 13 47 -8 10 -31 15 -61 15 -41 0 -51
-4 -65 -25z m115 2 c15 -19 4 -26 -27 -18 -62 18 -71 -18 -10 -39 56 -20 69
-43 42 -71 -24 -24 -85 -29 -109 -9 -26 22 -16 30 30 23 37 -5 45 -3 45 10 0
10 -14 20 -39 27 -47 12 -62 42 -35 71 20 22 86 26 103 6z"/>
<path d="M4567 3418 c-9 -8 -16 -28 -17 -48 0 -19 -1 -50 -1 -68 -1 -18 3 -38
9 -44 15 -15 134 -11 144 5 13 18 4 132 -11 151 -16 20 -99 22 -124 4z m118
-22 c11 -16 15 -41 13 -78 l-3 -53 -47 -5 c-57 -7 -84 2 -93 30 -9 28 9 46 55
57 22 6 36 16 39 28 3 16 -2 17 -43 12 -26 -4 -46 -3 -46 3 0 16 33 29 72 30
29 0 41 -6 53 -24z m-50 -25 c-16 -15 -65 -25 -65 -13 0 11 21 19 55 21 12 1
15 -3 10 -8z"/>
<path d="M4599 3314 c-10 -13 -10 -17 1 -24 18 -11 54 3 58 24 5 21 -41 22
-59 0z m37 -9 c-10 -8 -23 -12 -29 -8 -11 7 12 23 33 23 12 -1 11 -4 -4 -15z"/>
<path d="M4730 3414 c0 -9 7 -28 16 -43 16 -27 15 -30 -11 -75 l-27 -46 29 0
c17 0 38 9 48 20 l18 20 14 -20 c14 -19 53 -27 66 -13 4 3 -4 25 -18 49 l-25
42 20 25 c11 14 20 32 20 41 0 21 -38 21 -60 1 -15 -14 -18 -14 -30 0 -17 20
-60 20 -60 -1z m51 -10 c18 -16 29 -15 61 8 23 17 35 2 16 -19 -26 -30 -27
-50 -7 -87 23 -43 23 -46 4 -46 -8 0 -20 9 -27 20 -7 11 -18 20 -24 20 -6 0
-19 -9 -29 -20 -17 -19 -45 -27 -45 -14 0 3 9 17 20 31 23 30 25 60 5 87 -28
37 -8 51 26 20z"/>
<path d="M4974 3416 c-3 -7 -3 -59 -2 -117 3 -104 3 -104 28 -104 20 0 26 6
28 28 3 24 7 27 41 27 53 0 76 28 76 90 0 72 -21 90 -102 89 -40 -1 -66 -6
-69 -13z m145 -22 c45 -57 11 -134 -59 -134 -35 0 -39 -3 -42 -27 -2 -17 -9
-28 -18 -28 -12 0 -16 18 -18 94 -1 52 -1 100 2 106 2 7 27 13 59 14 49 1 58
-2 76 -25z"/>
<path d="M5032 3378 c-7 -7 -12 -25 -12 -40 0 -21 7 -32 26 -40 22 -11 28 -10
40 7 35 48 -13 114 -54 73z m46 -10 c28 -28 -3 -83 -33 -58 -8 7 -15 20 -15
29 0 17 18 41 30 41 3 0 11 -5 18 -12z"/>
<path d="M5265 3417 c-13 -11 -16 -21 -11 -41 4 -16 3 -33 -2 -39 -10 -12 -22
-81 -14 -72 3 3 10 1 16 -4 13 -11 36 -14 99 -12 l47 1 0 74 c0 54 -4 79 -16
90 -19 20 -93 21 -119 3z m109 -13 c11 -11 16 -35 16 -79 l0 -63 -46 -4 c-106
-8 -132 66 -33 92 25 7 39 17 39 27 0 13 -8 15 -45 10 -46 -7 -59 4 -27 22 26
16 79 13 96 -5z m-39 -33 c-15 -13 -65 -23 -65 -12 0 10 22 18 55 20 11 1 15
-3 10 -8z"/>
<path d="M5293 3314 c-3 -9 0 -20 7 -24 20 -12 50 1 50 21 0 24 -48 26 -57 3z
m47 -3 c0 -12 -28 -22 -34 -12 -3 5 -3 11 1 15 9 9 33 7 33 -3z"/>
<path d="M5430 3340 c0 -89 0 -90 25 -90 27 0 33 13 37 85 2 28 8 40 18 40 11
0 16 -16 20 -60 5 -57 7 -60 33 -63 l27 -3 0 71 c0 103 -6 110 -90 110 l-70 0
0 -90z m140 61 c5 -11 10 -47 10 -81 0 -53 -2 -61 -17 -58 -14 2 -19 16 -23
63 -5 56 -7 60 -30 60 -23 0 -25 -4 -30 -60 -4 -47 -9 -61 -22 -63 -16 -3 -18
6 -18 77 l0 81 60 0 c48 0 61 -4 70 -19z"/>
<path d="M5626 3417 c-12 -9 -17 -23 -14 -47 3 -30 8 -36 40 -45 56 -15 59
-28 6 -21 -46 7 -48 6 -48 -17 0 -20 7 -26 38 -34 27 -7 50 -7 73 1 30 10 34
16 37 48 3 32 -1 39 -20 47 -13 5 -34 14 -48 20 -23 10 -22 11 15 8 32 -2 40
2 43 17 2 10 -2 22 -10 27 -20 13 -92 11 -112 -4z m104 -7 c22 -14 3 -25 -36
-21 -49 4 -44 -21 9 -39 36 -13 42 -19 42 -44 0 -38 -43 -58 -92 -44 -52 14
-43 37 12 30 61 -6 63 20 3 40 -33 10 -44 19 -46 37 -3 15 3 30 14 38 21 15
72 17 94 3z"/>
<path d="M2535 3397 c-4 -13 -5 -50 -3 -82 3 -56 4 -60 28 -60 24 0 25 2 28
83 3 82 3 82 -22 82 -18 0 -27 -7 -31 -23z m43 -59 c-2 -57 -6 -73 -18 -73
-11 0 -16 15 -18 59 -4 68 1 86 23 86 13 0 15 -12 13 -72z"/>
<path d="M377 3283 c-4 -3 -7 -39 -7 -80 0 -71 1 -74 28 -84 36 -14 131 -6
143 12 10 16 12 119 3 143 -5 13 -22 16 -83 16 -43 0 -81 -3 -84 -7z m161 -73
c4 -76 -8 -90 -76 -90 -71 0 -82 11 -82 84 0 34 3 66 7 70 4 4 39 5 78 4 l70
-3 3 -65z"/>
<path d="M416 3244 c-9 -22 -7 -94 2 -94 4 0 7 21 7 47 0 47 1 48 33 51 39 4
44 -15 5 -20 -22 -2 -29 -9 -31 -31 -3 -26 -1 -28 24 -25 15 2 29 9 30 16 1 7
0 8 -3 2 -9 -18 -43 -11 -43 9 0 15 7 19 31 19 30 -1 31 -3 25 -36 -4 -25 -2
-32 6 -24 6 6 8 28 4 56 -7 45 -8 46 -46 46 -25 0 -40 -5 -44 -16z"/>
<path d="M580 3219 c0 -42 11 -47 110 -50 l95 -4 3 28 c3 25 1 27 -35 29 -93
4 -110 6 -140 13 -30 7 -33 5 -33 -16z m100 -4 c96 -3 102 -5 98 -22 -2 -14
-14 -16 -68 -14 -117 5 -115 4 -118 29 -3 20 -1 22 25 15 15 -4 44 -7 63 -8z"/>
<path d="M4796 3135 c-9 -9 -16 -22 -16 -29 0 -8 -7 -19 -15 -26 -14 -12 -14
-15 0 -36 9 -14 15 -46 15 -79 0 -54 0 -55 30 -55 l30 0 0 60 c0 45 4 62 15
66 21 8 19 40 -2 49 -16 6 -15 8 5 16 15 6 22 15 20 26 -4 24 -60 29 -82 8z
m69 -6 c4 -6 -2 -13 -14 -16 -26 -7 -27 -28 -3 -43 16 -10 16 -10 0 -20 -14
-9 -18 -24 -18 -70 0 -53 -2 -60 -20 -60 -18 0 -20 7 -20 59 0 41 -5 62 -16
72 -14 11 -14 13 0 21 9 5 16 15 16 23 0 33 59 60 75 34z"/>
<path d="M2250 3120 c0 -16 7 -20 30 -20 23 0 30 4 30 20 0 16 -7 20 -30 20
-23 0 -30 -4 -30 -20z m50 0 c0 -5 -9 -10 -20 -10 -11 0 -20 5 -20 10 0 6 9
10 20 10 11 0 20 -4 20 -10z"/>
<path d="M2330 3024 l0 -115 28 3 27 3 3 113 3 112 -31 0 -30 0 0 -116z m48 4
c-3 -89 -5 -103 -20 -106 -16 -3 -18 7 -18 102 0 100 1 106 20 106 20 0 21 -5
18 -102z"/>
<path d="M2417 3133 c-9 -8 -9 -186 -1 -207 3 -9 17 -16 30 -16 24 0 24 0 24
115 0 114 0 115 -23 115 -13 0 -27 -3 -30 -7z m43 -109 c0 -95 -2 -105 -17
-102 -16 3 -18 17 -21 106 -3 97 -2 102 18 102 19 0 20 -6 20 -106z"/>
<path d="M2760 3025 l0 -116 28 3 27 3 0 110 0 110 -27 3 -28 3 0 -116z m45 0
c0 -87 -2 -100 -17 -103 -16 -3 -18 7 -18 103 0 96 2 106 18 103 15 -3 17 -16
17 -103z"/>
<path d="M3446 3124 c-9 -22 -7 -187 2 -200 4 -6 32 -14 63 -17 48 -6 60 -4
83 14 22 17 26 28 26 72 0 29 -4 57 -8 63 -13 20 -52 35 -80 32 -23 -3 -27 1
-30 25 -3 21 -9 27 -27 27 -12 0 -26 -7 -29 -16z m44 -19 c0 -25 6 -28 50 -26
65 4 97 -100 47 -147 -21 -20 -30 -21 -78 -15 l-54 8 -3 89 c-3 99 0 116 23
116 9 0 15 -9 15 -25z"/>
<path d="M3504 3027 c-3 -9 -4 -28 -2 -44 3 -24 7 -28 33 -28 28 0 30 2 30 40
0 36 -3 40 -28 43 -17 2 -29 -2 -33 -11z m51 -32 c0 -23 -4 -30 -20 -30 -21 0
-31 25 -21 51 11 28 41 12 41 -21z"/>
<path d="M3640 3120 c0 -17 5 -21 28 -18 16 2 27 9 27 18 0 9 -11 16 -27 18
-23 3 -28 -1 -28 -18z m50 0 c0 -5 -9 -10 -20 -10 -11 0 -20 5 -20 10 0 6 9
10 20 10 11 0 20 -4 20 -10z"/>
<path d="M3722 3028 l3 -113 28 -3 27 -3 0 115 0 116 -30 0 -31 0 3 -112z m48
-4 c0 -95 -2 -105 -17 -102 -16 3 -18 17 -21 106 -3 97 -2 102 18 102 19 0 20
-6 20 -106z"/>
<path d="M3802 3028 l3 -113 28 -3 27 -3 0 115 0 116 -30 0 -31 0 3 -112z m48
-4 c0 -95 -2 -105 -17 -102 -16 3 -18 17 -21 106 -3 97 -2 102 18 102 19 0 20
-6 20 -106z"/>
<path d="M3880 3120 c0 -16 7 -20 30 -20 23 0 30 4 30 20 0 16 -7 20 -30 20
-23 0 -30 -4 -30 -20z m50 0 c0 -5 -9 -10 -20 -10 -11 0 -20 5 -20 10 0 6 9
10 20 10 11 0 20 -4 20 -10z"/>
<path d="M374 3077 c-3 -8 -4 -47 -2 -88 l3 -74 73 -3 c46 -2 79 2 88 9 18 15
19 140 2 157 -17 17 -157 16 -164 -1z m154 -9 c17 -17 16 -123 -2 -137 -9 -7
-40 -11 -78 -9 l-63 3 -3 64 c-2 35 -1 70 2 77 7 18 127 19 144 2z"/>
<path d="M411 3046 c-7 -8 -11 -34 -9 -58 l3 -43 51 -3 c59 -3 68 6 58 68 -5
28 -12 40 -28 44 -36 10 -63 7 -75 -8z m77 -4 c7 -5 13 -26 15 -48 l2 -39 -45
0 c-44 0 -45 1 -48 33 -2 19 -1 40 2 48 6 15 53 19 74 6z"/>
<path d="M436 2991 c-11 -4 -15 -10 -10 -13 5 -2 20 1 34 8 26 14 8 18 -24 5z"/>
<path d="M2275 3083 l-30 -4 3 -85 4 -85 26 3 c27 3 27 4 28 91 1 48 1 86 0
85 0 0 -14 -3 -31 -5z m20 -88 c0 -58 -3 -70 -17 -73 -16 -3 -18 6 -18 73 0
67 2 76 18 73 14 -3 17 -15 17 -73z"/>
<path d="M2605 3081 l-40 -6 0 -110 0 -110 27 -3 c22 -3 27 1 30 24 3 23 8 27
42 29 52 3 76 32 76 92 0 33 -6 50 -25 68 -24 25 -37 27 -110 16z m102 -23
c34 -32 32 -99 -4 -128 -17 -13 -38 -20 -57 -18 -27 3 -31 0 -34 -25 -3 -20
-8 -27 -20 -25 -15 3 -17 18 -17 103 l0 100 35 6 c61 11 73 9 97 -13z"/>
<path d="M2620 3019 c-17 -31 2 -69 35 -69 26 0 40 29 33 67 -5 28 -54 30 -68
2z m55 0 c12 -18 -4 -61 -22 -57 -26 5 -39 34 -24 52 15 18 37 21 46 5z"/>
<path d="M2872 3080 c-53 -22 -36 -70 18 -51 18 6 37 8 42 5 6 -4 -11 -14 -38
-23 -46 -15 -49 -18 -52 -54 -3 -32 0 -38 23 -47 15 -6 51 -7 81 -4 l54 7 0
66 c0 39 -5 75 -13 85 -15 20 -82 30 -115 16z m96 -16 c19 -13 22 -24 22 -78
l0 -63 -50 -7 c-60 -8 -90 5 -90 39 0 26 41 55 80 55 24 0 27 28 4 37 -8 3
-27 0 -41 -6 -36 -16 -52 1 -22 23 30 20 68 20 97 0z"/>
<path d="M2908 2983 c-21 -5 -24 -43 -4 -43 28 0 46 12 46 31 0 19 -8 21 -42
12z m32 -12 c0 -11 -31 -24 -39 -16 -3 3 1 10 9 15 19 12 30 12 30 1z"/>
<path d="M3070 3083 c-37 -14 -50 -36 -50 -88 0 -66 23 -90 86 -90 49 0 79 21
68 49 -5 14 -14 16 -45 11 -31 -5 -39 -3 -48 13 -16 30 7 53 49 50 27 -2 35 1
38 16 7 35 -49 57 -98 39z m80 -18 c17 -21 7 -28 -36 -29 -42 -1 -57 -25 -43
-65 8 -21 14 -23 49 -18 47 6 59 -5 28 -27 -31 -22 -60 -20 -92 5 -21 16 -26
29 -26 64 0 35 5 48 26 64 31 25 76 27 94 6z"/>
<path d="M3216 3068 c-54 -46 -32 -148 34 -163 43 -9 100 11 100 37 0 17 -6
19 -37 17 -53 -3 -65 0 -58 11 3 6 29 10 57 10 l51 0 -6 37 c-8 47 -25 63 -74
70 -32 4 -45 1 -67 -19z m109 -13 c14 -13 25 -33 25 -45 0 -17 -6 -20 -50 -20
-36 0 -52 -4 -57 -15 -8 -23 3 -30 52 -27 52 2 58 -10 15 -28 -41 -17 -77 -5
-101 33 -50 81 50 169 116 102z"/>
<path d="M3247 3043 c-17 -16 -5 -33 23 -33 23 0 30 4 30 20 0 14 -7 20 -23
20 -13 0 -27 -3 -30 -7z m43 -13 c0 -5 -9 -10 -21 -10 -11 0 -17 5 -14 10 3 6
13 10 21 10 8 0 14 -4 14 -10z"/>
<path d="M3883 3000 c2 -85 2 -85 30 -88 l27 -3 0 88 0 88 -29 0 -29 0 1 -85z
m47 -6 c0 -66 -2 -75 -17 -72 -14 3 -19 15 -21 62 -4 68 1 86 23 86 12 0 15
-14 15 -76z"/>
<path d="M4003 3080 c-12 -5 -26 -18 -32 -29 -16 -29 -13 -93 4 -118 32 -45
131 -37 154 13 41 91 -34 171 -126 134z m101 -26 c54 -55 15 -144 -64 -144
-34 0 -70 44 -70 85 0 76 81 111 134 59z"/>
<path d="M4014 3026 c-3 -8 -4 -27 -2 -43 2 -23 8 -29 35 -31 25 -2 33 1 38
18 4 12 4 32 1 46 -5 19 -13 24 -37 24 -16 0 -32 -6 -35 -14z m61 -15 c9 -29
-5 -52 -29 -49 -37 5 -34 68 3 68 11 0 22 -8 26 -19z"/>
<path d="M4198 3083 l-38 -4 0 -85 0 -85 28 3 c25 3 27 7 32 58 4 40 9 55 20
55 11 0 16 -15 20 -55 5 -51 7 -55 33 -58 l27 -3 0 75 c0 66 -3 77 -22 90 -12
9 -32 15 -43 14 -11 -1 -37 -3 -57 -5z m94 -20 c14 -12 18 -31 18 -80 0 -56
-2 -64 -17 -61 -14 2 -19 16 -23 58 -5 51 -7 55 -30 55 -23 0 -25 -4 -30 -55
-4 -42 -9 -56 -22 -58 -16 -3 -18 6 -18 72 l0 75 33 4 c63 8 71 7 89 -10z"/>
<path d="M4362 3074 c-24 -17 -30 -65 -9 -82 6 -5 27 -13 45 -17 17 -3 32 -11
32 -17 0 -6 -11 -8 -27 -4 -52 12 -58 11 -61 -11 -4 -29 37 -47 86 -39 45 7
62 23 62 56 0 31 -13 45 -53 55 -46 12 -45 28 2 20 39 -6 41 -5 41 18 0 17 -7
27 -22 31 -39 10 -73 7 -96 -10z m92 0 c9 -3 16 -12 16 -20 0 -11 -9 -13 -41
-8 -36 6 -41 5 -38 -11 2 -9 19 -23 38 -29 43 -14 60 -39 45 -63 -16 -26 -59
-39 -91 -27 -29 10 -40 42 -13 35 55 -15 70 -13 70 7 0 14 -9 21 -32 26 -57
11 -74 42 -41 78 16 18 57 24 87 12z"/>
<path d="M4598 3060 c-27 -27 -30 -36 -25 -72 8 -57 36 -83 91 -83 51 0 81 22
90 66 19 96 -88 157 -156 89z m103 10 c28 -15 51 -65 43 -95 -8 -32 -49 -65
-81 -65 -34 0 -83 51 -83 86 0 35 45 84 78 84 13 0 32 -5 43 -10z"/>
<path d="M4630 3019 c-19 -34 2 -71 38 -67 24 3 27 7 27 43 0 36 -3 40 -27 43
-19 2 -30 -3 -38 -19z m55 -24 c0 -23 -5 -30 -19 -30 -28 0 -43 29 -26 50 21
25 45 14 45 -20z"/>
<path d="M1980 3073 c0 -4 9 -42 21 -85 21 -77 22 -78 54 -78 36 0 46 14 44
58 -1 23 -3 21 -8 -8 -5 -29 -11 -36 -33 -38 -25 -3 -28 1 -43 55 -9 32 -19
66 -21 76 -4 12 0 17 14 17 22 0 32 -18 33 -58 0 -15 3 -21 6 -14 3 7 2 29 -1
48 -6 30 -11 34 -36 34 -17 0 -30 -3 -30 -7z"/>
<path d="M2074 3046 c-3 -19 -4 -41 -1 -48 3 -7 6 -1 6 14 1 40 11 58 31 58
20 0 30 -18 31 -58 0 -15 3 -21 6 -14 3 7 2 29 -1 48 -6 29 -11 34 -36 34 -25
0 -30 -5 -36 -34z"/>
<path d="M2176 3064 c-3 -9 -5 -30 -5 -47 2 -29 2 -29 8 8 4 28 11 41 25 43
17 4 18 0 13 -34 -4 -22 -12 -56 -18 -77 -9 -33 -14 -38 -37 -35 -20 2 -28 9
-30 28 -2 14 -8 30 -14 35 -6 7 -7 0 -3 -20 12 -53 14 -55 48 -55 34 0 35 1
51 65 22 89 21 105 -8 105 -13 0 -27 -7 -30 -16z"/>
<path d="M3640 2996 c0 -85 0 -86 25 -86 30 0 37 22 33 105 -3 57 -4 60 -30
63 l-28 3 0 -85z m48 2 c-2 -60 -6 -73 -20 -76 -16 -3 -18 6 -18 72 0 70 2 76
20 76 19 0 21 -5 18 -72z"/>
<path d="M580 2998 c0 -32 -11 -30 145 -30 196 0 187 -2 183 30 l-3 27 -162 0
-163 0 0 -27z m318 -2 c3 -14 -2 -17 -25 -16 -15 1 -31 1 -35 0 -8 -1 -202 -2
-233 -1 -8 1 -15 9 -15 19 0 16 13 17 152 17 138 -1 153 -3 156 -19z"/>
<path d="M320 3000 c0 -15 5 -20 18 -18 9 2 17 10 17 18 0 8 -8 16 -17 18 -13
2 -18 -3 -18 -18z m30 0 c0 -5 -4 -10 -10 -10 -5 0 -10 5 -10 10 0 6 5 10 10
10 6 0 10 -4 10 -10z"/>
<path d="M387 2884 c-16 -5 -17 -16 -15 -87 l3 -82 79 -3 c57 -2 82 1 87 10
11 17 11 129 0 147 -9 14 -120 24 -154 15z m128 -14 c25 -9 26 -13 23 -77 l-3
-68 -75 0 -75 0 -3 69 c-2 49 1 72 10 77 18 12 91 11 123 -1z"/>
<path d="M792 2798 l3 -33 119 0 c91 0 123 3 134 15 10 9 11 15 3 18 -19 6
-12 21 9 19 14 -1 20 -8 20 -24 0 -18 6 -22 28 -22 15 0 54 -2 87 -5 70 -6 90
2 80 33 -7 23 -4 23 -275 25 -143 1 -160 0 -160 -16 0 -5 6 -5 17 1 20 11 163
3 178 -10 5 -6 5 -13 -3 -21 -9 -9 -12 -8 -12 8 0 16 -2 17 -10 4 -7 -11 -10
-12 -10 -2 0 11 -3 10 -14 -1 -11 -11 -38 -14 -98 -13 -78 1 -83 2 -86 24 -2
12 2 22 8 22 7 0 9 -7 6 -16 -3 -8 -2 -12 4 -9 18 11 10 35 -11 35 -17 0 -20
-5 -17 -32z m430 -2 c5 -7 8 -6 8 4 0 13 1 13 10 0 8 -13 10 -13 10 0 0 10 3
11 11 3 6 -6 8 -16 5 -21 -9 -14 -56 -7 -67 9 -7 11 -9 10 -9 -5 0 -15 -5 -17
-22 -11 -13 4 -35 8 -50 9 -26 1 -36 15 -22 28 9 10 119 -4 126 -16z"/>
<path d="M576 2803 c-10 -26 3 -31 102 -35 l93 -3 -3 25 c-3 24 -5 25 -94 27
-78 3 -93 1 -98 -14z m182 -14 c2 -11 -12 -13 -75 -11 -88 3 -107 7 -98 22 10
17 169 7 173 -11z"/>
<path d="M2860 2771 c0 -29 -2 -31 -38 -31 -56 0 -74 -18 -80 -78 -4 -44 -1
-54 21 -76 25 -25 44 -27 150 -17 4 1 6 52 5 114 l-3 112 -27 3 c-25 3 -28 0
-28 -27z m45 -90 l0 -104 -55 -3 c-70 -4 -100 20 -100 78 0 51 27 78 80 78 38
0 40 2 40 31 0 24 4 30 18 27 15 -3 17 -16 17 -107z"/>
<path d="M2802 2688 c-17 -17 -15 -63 3 -78 20 -17 54 -3 61 25 12 47 -33 84
-64 53z m46 -10 c28 -28 -3 -83 -33 -58 -8 7 -15 20 -15 29 0 17 18 41 30 41
3 0 11 -5 18 -12z"/>
<path d="M3177 2793 c-2 -5 -5 -53 -6 -109 -2 -106 7 -132 43 -118 13 5 16 24
16 120 l0 114 -24 0 c-14 0 -27 -3 -29 -7z m43 -18 c0 -8 -6 -15 -14 -15 -17
0 -28 14 -19 24 12 12 33 6 33 -9z m-7 -32 c-7 -2 -19 -2 -25 0 -7 3 -2 5 12
5 14 0 19 -2 13 -5z m7 -87 c0 -73 -13 -104 -31 -75 -10 16 -12 133 -2 142 3
4 12 7 20 7 10 0 13 -19 13 -74z"/>
<path d="M3948 2683 l-3 -119 25 2 c14 1 28 2 33 3 4 0 7 22 7 49 0 26 4 53 9
61 16 25 31 1 31 -49 0 -37 4 -52 18 -58 34 -18 42 -3 42 72 0 83 -8 96 -61
96 -34 0 -38 3 -41 28 -2 21 -9 28 -30 30 l-27 3 -3 -118z m50 74 c3 -24 7
-27 41 -27 20 0 42 -5 49 -12 13 -13 17 -134 4 -142 -18 -11 -31 13 -34 64 -3
48 -6 55 -25 58 -24 4 -31 -11 -35 -83 -2 -28 -8 -40 -18 -40 -12 0 -16 20
-18 108 -2 100 -1 108 15 105 11 -2 19 -14 21 -31z"/>
<path d="M4957 2793 c-4 -3 -7 -55 -7 -114 0 -86 3 -108 15 -113 22 -8 45 4
45 23 0 31 12 31 40 1 54 -58 84 -32 46 37 l-26 46 20 22 c28 30 25 45 -9 45
-20 0 -36 -8 -50 -27 l-20 -28 -1 58 c0 53 -2 57 -23 57 -13 0 -27 -3 -30 -7z
m43 -52 c0 -60 16 -74 42 -38 11 15 28 27 39 27 19 0 19 -1 -2 -29 l-22 -29
26 -46 c32 -57 16 -74 -24 -26 -31 36 -55 36 -61 -2 -2 -13 -10 -23 -18 -23
-12 0 -16 18 -18 94 -3 104 0 121 23 121 11 0 15 -12 15 -49z"/>
<path d="M3446 2758 c-18 -34 -21 -68 -7 -68 5 0 11 -25 13 -56 5 -60 16 -74
61 -74 37 0 47 28 19 51 -28 22 -29 65 -2 79 24 13 26 38 4 47 -8 3 -20 16
-25 29 -12 34 -44 31 -63 -8z m51 5 c3 -10 15 -25 26 -34 20 -17 20 -17 -1
-28 -29 -15 -30 -71 -2 -96 23 -21 18 -35 -15 -35 -31 0 -45 26 -45 84 0 26
-5 46 -12 48 -9 3 -7 14 5 41 19 40 34 47 44 20z"/>
<path d="M3840 2768 c-6 -13 -15 -31 -22 -40 -10 -14 -9 -20 5 -36 11 -12 17
-35 17 -65 0 -50 20 -71 63 -65 26 4 35 38 13 50 -21 12 -22 78 -1 78 9 0 15
9 15 25 0 14 -5 25 -10 25 -6 0 -15 11 -20 25 -12 32 -47 33 -60 3z m50 -13
c5 -14 14 -25 20 -25 5 0 10 -7 10 -15 0 -8 -7 -15 -15 -15 -22 0 -21 -86 1
-98 20 -11 10 -32 -15 -32 -28 0 -41 21 -41 71 0 29 -6 51 -15 59 -13 11 -13
15 -2 29 8 9 17 24 20 34 9 25 26 21 37 -8z"/>
<path d="M5323 2773 c-3 -10 -13 -26 -21 -35 -13 -16 -13 -20 2 -42 9 -14 16
-43 16 -65 0 -53 22 -75 69 -67 49 8 50 8 98 0 55 -9 93 14 93 55 0 15 -3 31
-7 35 -5 4 -8 24 -8 44 0 31 -4 36 -30 44 -43 11 -94 -8 -101 -38 -11 -44 2
-69 36 -70 17 -1 37 -7 43 -13 9 -10 2 -11 -35 -6 -44 7 -48 6 -48 -14 0 -11
-4 -21 -10 -21 -5 0 -10 6 -10 14 0 8 -7 16 -15 20 -20 7 -21 76 -1 76 22 0
27 28 7 47 -10 10 -21 26 -24 36 -4 9 -16 17 -27 17 -11 0 -23 -8 -27 -17z
m44 -10 c3 -10 15 -26 27 -35 l21 -18 -22 -6 c-19 -5 -23 -13 -23 -50 0 -30 5
-46 15 -50 24 -9 18 -34 -8 -34 -34 0 -47 19 -47 71 0 29 -6 51 -15 59 -13 11
-13 15 -2 29 8 9 17 24 20 34 4 9 11 17 17 17 6 0 13 -8 17 -17z m167 -33 c39
-15 32 -32 -11 -28 -28 2 -38 -1 -41 -13 -2 -11 7 -18 29 -23 58 -11 75 -42
42 -78 -18 -20 -64 -24 -94 -8 -34 19 -21 30 27 23 41 -5 46 -4 43 12 -3 12
-17 22 -39 28 -19 5 -39 12 -44 17 -14 14 2 56 26 68 29 14 32 14 62 2z m22
-51 c6 -10 -11 -11 -43 -3 -13 4 -21 10 -18 14 6 9 53 1 61 -11z"/>
<path d="M2245 2743 c-62 -15 -91 -107 -47 -154 32 -34 115 -35 143 0 56 69
-10 173 -96 154z m83 -36 c49 -45 11 -137 -58 -137 -69 0 -107 92 -57 137 41
38 73 38 115 0z"/>
<path d="M2241 2686 c-31 -37 9 -103 47 -80 36 23 23 94 -18 94 -10 0 -23 -6
-29 -14z m47 -8 c28 -28 -3 -83 -33 -58 -8 7 -15 20 -15 29 0 17 18 41 30 41
3 0 11 -5 18 -12z"/>
<path d="M2985 2742 c-33 -7 -45 -23 -45 -56 0 -40 9 -50 45 -54 17 -2 35 -8
40 -14 7 -6 -5 -7 -37 -3 -45 7 -48 6 -48 -14 0 -38 85 -55 128 -25 25 17 31
71 8 80 -11 4 -12 11 -3 35 7 18 8 32 2 38 -13 11 -65 19 -90 13z m78 -19 c20
-12 3 -24 -30 -21 -56 5 -56 -23 -1 -42 48 -17 59 -41 32 -71 -19 -21 -64 -25
-95 -9 -34 19 -21 30 26 23 37 -5 45 -3 45 10 0 9 -17 20 -42 29 -38 11 -43
17 -43 43 0 44 59 65 108 38z m-3 -44 c0 -5 -6 -9 -14 -9 -23 0 -46 11 -41 20
6 10 55 0 55 -11z"/>
<path d="M3612 2738 c-64 -17 -79 -115 -25 -158 35 -27 85 -26 120 4 23 20 28
32 28 70 0 28 -6 51 -15 61 -23 23 -71 33 -108 23z m103 -41 c22 -31 18 -61
-11 -96 -19 -23 -34 -31 -59 -31 -25 0 -40 8 -59 31 -29 34 -31 47 -14 85 25
55 108 61 143 11z"/>
<path d="M3610 2676 c-17 -47 12 -86 53 -71 39 16 24 95 -18 95 -18 0 -28 -7
-35 -24z m60 -5 c20 -38 -16 -74 -45 -45 -18 18 -18 20 -5 45 14 24 36 24 50
0z"/>
<path d="M4185 2739 c-41 -12 -55 -35 -55 -89 0 -33 6 -52 19 -64 24 -22 79
-30 112 -18 22 9 27 19 33 60 8 65 -4 97 -45 111 -17 6 -32 11 -33 10 -1 0
-14 -5 -31 -10z m65 -14 c27 -14 50 -58 38 -71 -3 -2 -29 -7 -57 -11 -41 -5
-51 -9 -49 -22 3 -12 15 -16 51 -14 49 1 60 -9 28 -27 -53 -28 -121 8 -121 65
0 49 9 66 44 81 39 17 32 17 66 -1z m30 -95 c0 -6 -6 -10 -12 -9 -7 1 -21 -1
-30 -5 -10 -5 -26 -5 -35 0 -14 6 -11 9 17 14 53 11 60 11 60 0z"/>
<path d="M4198 2702 c-34 -7 -20 -32 17 -32 23 0 35 5 35 14 0 15 -25 24 -52
18z m42 -18 c0 -2 -12 -4 -27 -4 -21 0 -24 3 -14 9 13 8 41 5 41 -5z"/>
<path d="M4635 2738 c-41 -11 -55 -33 -55 -88 0 -63 24 -85 91 -85 61 0 94 30
94 87 0 20 -3 34 -7 31 -5 -2 -8 2 -8 10 0 35 -62 60 -115 45z m95 -36 c27
-34 25 -77 -5 -107 -48 -49 -135 -17 -135 50 0 48 9 66 42 80 39 16 74 8 98
-23z"/>
<path d="M4636 2685 c-17 -47 4 -90 41 -83 23 4 41 53 27 76 -15 23 -60 28
-68 7z m52 -7 c17 -17 15 -43 -4 -58 -22 -19 -49 9 -40 44 7 28 25 33 44 14z"/>
<path d="M4839 2742 c-42 -5 -63 -36 -63 -93 0 -31 6 -55 15 -65 36 -36 139
-25 139 15 0 28 -18 36 -46 21 -27 -15 -54 0 -54 31 0 24 18 34 60 34 29 0 36
4 38 23 2 12 2 22 0 22 -2 0 -17 3 -33 8 -17 4 -42 6 -56 4z m78 -36 c-2 -6
-19 -10 -40 -8 -28 3 -38 -1 -47 -18 -25 -47 15 -94 59 -71 27 15 40 -7 16
-26 -27 -19 -69 -16 -96 6 -46 37 -23 134 35 143 29 5 78 -12 73 -26z"/>
<path d="M5170 2736 c-26 -8 -38 -20 -48 -48 -13 -33 -12 -41 4 -75 23 -46 57
-61 111 -47 35 8 38 12 45 54 5 27 4 58 -3 78 -6 17 -11 32 -12 32 -1 0 -16 4
-32 9 -20 5 -43 4 -65 -3z m100 -47 c7 -16 10 -32 8 -35 -3 -2 -29 -7 -57 -11
-41 -5 -51 -9 -49 -22 3 -12 15 -16 51 -14 49 1 60 -9 28 -27 -30 -16 -76 -12
-93 8 -33 38 -40 62 -27 94 26 63 114 67 139 7z m-6 -58 c8 -12 -61 -24 -77
-14 -8 5 1 10 23 14 19 4 38 7 42 8 4 0 9 -3 12 -8z"/>
<path d="M5188 2703 c-10 -3 -18 -11 -18 -19 0 -16 55 -20 65 -5 7 13 -25 29
-47 24z m42 -19 c0 -2 -12 -4 -27 -4 -21 0 -24 3 -14 9 13 8 41 5 41 -5z"/>
<path d="M1997 2733 c-4 -3 -7 -55 -7 -115 l0 -109 28 3 c19 2 28 9 30 26 3
17 10 22 35 22 44 0 73 23 81 62 7 38 -7 98 -26 110 -16 9 -132 11 -141 1z
m130 -11 c19 -12 34 -63 28 -93 -9 -40 -38 -61 -76 -57 -28 3 -34 -1 -39 -22
-3 -14 -14 -26 -23 -28 -15 -3 -17 8 -17 96 0 54 3 102 7 105 9 9 105 8 120
-1z"/>
<path d="M2052 2688 c-7 -7 -12 -24 -12 -40 0 -50 64 -61 76 -13 12 47 -33 84
-64 53z m46 -10 c28 -28 -3 -83 -33 -58 -8 7 -15 20 -15 29 0 17 18 41 30 41
3 0 11 -5 18 -12z"/>
<path d="M2379 2728 c-4 -44 5 -145 13 -156 12 -13 113 -12 136 2 13 8 17 121
6 150 -3 9 -17 16 -30 16 -22 0 -24 -4 -24 -48 0 -27 -6 -57 -14 -67 -13 -18
-14 -18 -25 3 -6 11 -11 41 -11 66 0 42 -2 46 -25 46 -14 0 -26 -6 -26 -12z
m43 -54 c4 -51 17 -73 41 -74 12 0 27 49 27 91 0 33 3 40 18 37 14 -3 17 -15
17 -77 l0 -75 -56 -3 c-37 -2 -60 1 -67 9 -5 7 -11 40 -12 73 -3 75 -3 75 14
75 9 0 15 -17 18 -56z"/>
<path d="M2560 2656 c0 -68 3 -85 16 -90 27 -10 43 13 46 67 2 38 7 52 18 52
11 0 16 -14 18 -57 3 -57 15 -74 47 -62 19 8 22 143 3 162 -7 7 -40 12 -80 12
l-68 0 0 -84z m139 60 c18 -22 10 -141 -9 -141 -11 0 -16 16 -20 60 -5 56 -7
60 -30 60 -23 0 -25 -4 -30 -57 -3 -31 -8 -59 -12 -63 -18 -18 -28 12 -28 81
l0 74 59 0 c38 0 63 -5 70 -14z"/>
<path d="M3256 2724 c-11 -28 -6 -130 7 -148 23 -32 47 -10 47 44 0 48 18 78
40 65 5 -3 10 -30 10 -60 0 -55 13 -71 46 -58 13 5 15 18 12 73 -2 37 -10 75
-17 84 -19 23 -136 23 -145 0z m139 -18 c21 -32 17 -131 -5 -131 -10 0 -16 12
-18 40 -4 67 -11 85 -32 85 -25 0 -40 -29 -40 -79 0 -42 -16 -63 -31 -40 -10
16 -12 133 -2 142 3 4 30 7 59 7 46 0 56 -4 69 -24z"/>
<path d="M4390 2624 l0 -115 27 3 c20 2 29 10 33 28 4 21 11 25 42 26 56 2 68
17 68 84 0 77 -15 90 -103 90 l-67 0 0 -116z m142 89 c13 -11 18 -30 18 -64 0
-40 -4 -51 -24 -65 -14 -8 -37 -14 -52 -12 -23 2 -29 -2 -34 -22 -3 -14 -14
-26 -23 -28 -15 -3 -17 8 -17 102 l0 106 57 0 c38 0 62 -5 75 -17z"/>
<path d="M4452 2688 c-17 -17 -15 -66 4 -76 40 -22 72 16 54 64 -10 26 -38 32
-58 12z m48 -17 c13 -25 13 -27 -6 -46 -12 -12 -19 -13 -30 -4 -17 14 -18 41
-2 57 17 17 26 15 38 -7z"/>
<path d="M374 2667 c-3 -8 -4 -45 -2 -83 l3 -69 79 -3 c57 -2 82 1 87 10 10
15 12 119 3 142 -8 21 -162 24 -170 3z m161 -72 l0 -70 -75 0 -75 0 -3 59 c-5
87 -4 87 80 84 l73 -3 0 -70z"/>
<path d="M431 2623 c1 -10 5 -29 10 -43 7 -21 8 -19 4 13 -3 31 -1 37 15 37
16 0 17 -4 9 -32 -11 -41 -11 -44 0 -32 5 5 12 24 16 42 6 31 5 32 -24 32 -23
0 -31 -4 -30 -17z"/>
<path d="M800 2602 c0 -27 4 -31 38 -36 20 -2 109 -4 197 -3 153 2 160 3 160
22 0 17 -9 21 -50 26 -27 4 -62 4 -76 2 -14 -3 -43 0 -63 5 -48 14 -66 6 -67
-27 0 -25 -1 -25 -11 -4 -7 14 -22 23 -47 26 -20 3 -46 8 -58 12 -20 7 -23 4
-23 -23z m109 -9 c10 -3 11 -7 3 -15 -6 -6 -27 -8 -56 -4 -35 6 -46 12 -46 25
0 18 18 17 99 -6z m184 9 c41 0 80 -3 86 -7 21 -12 2 -22 -36 -19 -21 2 -42 4
-48 4 -5 -1 -38 -2 -73 -4 -64 -2 -78 4 -68 29 4 10 12 12 34 6 16 -5 63 -9
105 -9z"/>
<path d="M576 2604 c-11 -28 5 -34 102 -37 90 -3 92 -3 92 20 0 21 -4 23 -57
23 -32 0 -74 3 -94 6 -29 5 -37 3 -43 -12z m130 -4 c37 0 54 -4 54 -12 0 -10
-21 -13 -75 -11 -42 0 -82 4 -91 7 -27 10 -3 28 28 22 17 -3 55 -6 84 -6z"/>
<path d="M2213 2453 c-7 -2 -13 -10 -13 -17 0 -8 -9 -25 -20 -38 -17 -22 -18
-27 -5 -44 9 -11 14 -43 15 -76 0 -58 0 -58 30 -58 30 0 30 0 30 59 0 43 4 60
15 65 18 7 20 42 3 50 -9 3 -8 8 5 16 9 6 17 20 17 30 0 16 -7 20 -32 19 -18
0 -39 -3 -45 -6z m67 -12 c0 -5 -10 -16 -22 -25 -23 -15 -23 -16 -3 -31 19
-15 19 -17 3 -29 -14 -10 -18 -28 -18 -70 0 -49 -2 -56 -20 -56 -18 0 -20 7
-20 59 0 41 -5 62 -16 72 -14 11 -14 13 0 21 9 5 16 15 16 23 0 21 29 45 56
45 13 0 24 -4 24 -9z"/>
<path d="M2383 2453 c-9 -3 -13 -37 -13 -119 l0 -114 78 0 c94 0 114 11 114
64 0 21 -4 42 -10 48 -6 6 -6 19 1 38 14 37 -10 75 -54 84 -36 7 -98 7 -116
-1z m126 -16 c37 -18 47 -41 33 -69 -11 -19 -10 -29 2 -52 29 -57 -2 -86 -96
-86 l-68 0 0 103 c0 57 3 107 7 110 11 12 97 7 122 -6z"/>
<path d="M2420 2385 c0 -22 4 -25 40 -25 36 0 40 3 40 25 0 23 -4 25 -40 25
-36 0 -40 -2 -40 -25z m70 0 c0 -10 -10 -15 -30 -15 -20 0 -30 5 -30 15 0 10
10 15 30 15 20 0 30 -5 30 -15z"/>
<path d="M2422 2293 c3 -25 7 -28 43 -28 36 0 40 3 40 25 0 22 -5 25 -43 28
-42 3 -43 2 -40 -25z m73 -3 c0 -23 -59 -20 -63 3 -3 15 2 18 30 15 21 -2 33
-8 33 -18z"/>
<path d="M2720 2445 c-16 -19 -4 -35 26 -35 28 0 34 34 8 44 -21 8 -20 8 -34
-9z m38 -13 c2 -7 -6 -12 -17 -12 -21 0 -27 11 -14 24 9 9 26 2 31 -12z"/>
<path d="M3123 2453 c-7 -3 -13 -13 -13 -24 0 -14 7 -19 25 -19 18 0 25 5 25
19 0 20 -17 31 -37 24z m27 -24 c0 -5 -7 -9 -15 -9 -15 0 -20 12 -9 23 8 8 24
-1 24 -14z"/>
<path d="M3381 2451 c-8 -5 -11 -25 -9 -52 2 -37 7 -45 26 -47 20 -3 22 0 22
46 0 50 -13 68 -39 53z m29 -52 c0 -28 -4 -39 -12 -37 -14 5 -23 51 -14 74 10
27 26 4 26 -37z"/>
<path d="M3820 2445 c-16 -19 -4 -35 26 -35 28 0 34 34 8 44 -21 8 -20 8 -34
-9z m38 -13 c2 -7 -6 -12 -17 -12 -21 0 -27 11 -14 24 9 9 26 2 31 -12z"/>
<path d="M4077 2447 c-12 -9 -15 -30 -13 -92 5 -141 4 -135 30 -135 21 0 24 5
28 55 5 61 10 70 33 62 11 -5 15 -21 15 -62 0 -54 0 -55 30 -55 l30 0 0 70 c0
84 -20 113 -73 108 -28 -3 -32 0 -35 24 -4 31 -24 42 -45 25z m33 -33 c0 -24
7 -28 48 -24 43 3 62 -26 62 -97 0 -56 -2 -63 -20 -63 -17 0 -20 7 -20 44 0
59 -8 76 -35 76 -24 0 -35 -29 -35 -91 0 -35 -29 -41 -32 -6 -6 96 -4 183 5
189 17 10 27 0 27 -28z"/>
<path d="M2804 2404 c-14 -29 -15 -40 -6 -55 7 -10 12 -33 12 -51 0 -54 10
-76 37 -83 40 -10 65 3 57 28 -4 12 -13 26 -20 30 -22 12 -17 65 6 77 11 6 20
17 20 24 0 8 -9 16 -20 19 -12 3 -20 14 -20 26 0 16 -6 21 -25 21 -18 0 -28
-9 -41 -36z m56 7 c0 -11 9 -23 22 -27 l22 -7 -22 -17 c-29 -24 -30 -79 -2
-103 23 -20 18 -37 -10 -37 -32 0 -50 28 -50 79 0 26 -5 52 -10 57 -7 7 -5 21
6 42 17 35 44 43 44 13z"/>
<path d="M4604 2400 c-19 -41 -34 -52 -34 -25 0 17 -58 30 -95 21 -30 -8 -49
-40 -41 -72 4 -16 18 -27 46 -35 45 -14 56 -35 13 -24 -48 13 -58 11 -61 -11
-5 -35 71 -56 122 -33 51 24 40 92 -18 103 -57 11 -50 24 12 22 l57 -2 10 -58
c11 -63 30 -82 71 -72 27 7 34 43 9 52 -9 4 -15 19 -15 40 0 22 6 37 15 40 17
7 21 44 5 44 -6 0 -16 11 -22 25 -18 39 -51 33 -74 -15z m63 13 c4 -10 14 -24
22 -31 14 -11 14 -13 -1 -23 -24 -14 -25 -87 -1 -104 19 -14 10 -35 -16 -35
-27 0 -38 19 -46 75 -4 28 -11 55 -16 61 -12 15 18 74 37 74 8 0 18 -8 21 -17z
m-123 -29 c9 -3 16 -12 16 -20 0 -11 -9 -13 -41 -8 -36 6 -41 5 -37 -11 2 -12
16 -22 38 -27 32 -9 60 -31 60 -50 0 -15 -45 -48 -66 -48 -32 0 -75 21 -71 34
3 6 10 10 18 8 63 -15 69 -15 69 7 0 12 -6 21 -15 21 -28 0 -75 30 -75 47 0
40 56 65 104 47z"/>
<path d="M2013 2376 c-23 -20 -28 -32 -28 -70 0 -62 29 -91 89 -91 76 0 117
66 82 133 -30 57 -94 70 -143 28z m121 -19 c34 -44 33 -72 -3 -108 -38 -38
-74 -38 -112 0 -36 36 -37 70 -3 110 37 44 84 43 118 -2z"/>
<path d="M2040 2329 c-17 -31 2 -69 35 -69 51 0 52 82 2 88 -18 2 -29 -3 -37
-19z m59 -8 c13 -24 -9 -57 -33 -48 -23 9 -31 34 -16 52 17 20 37 19 49 -4z"/>
<path d="M2625 2391 l-40 -6 0 -80 c0 -80 0 -80 28 -83 25 -3 27 -1 27 37 0
53 8 71 37 82 18 6 23 15 21 31 -3 25 -15 28 -73 19z m63 -19 c2 -7 -7 -16
-21 -21 -26 -10 -37 -36 -37 -89 0 -26 -4 -33 -17 -30 -15 3 -18 15 -18 73 l0
70 35 6 c43 8 53 6 58 -9z"/>
<path d="M2953 2390 c-16 -6 -23 -18 -23 -35 0 -28 6 -30 45 -15 15 6 31 7 37
4 6 -4 -11 -14 -38 -23 -51 -17 -61 -32 -50 -76 7 -28 36 -36 104 -28 l52 6 0
73 c0 64 -3 75 -22 88 -25 18 -70 20 -105 6z m99 -17 c26 -23 27 -143 1 -143
-10 0 -34 -3 -54 -6 -40 -7 -69 13 -69 46 0 21 46 50 80 50 15 0 20 5 18 18
-4 18 -38 22 -70 7 -13 -5 -18 -3 -18 8 0 36 79 50 112 20z"/>
<path d="M2988 2293 c-21 -5 -24 -43 -4 -43 28 0 46 12 46 31 0 19 -8 21 -42
12z m32 -12 c0 -11 -31 -24 -39 -16 -3 3 1 10 9 15 19 12 30 12 30 1z"/>
<path d="M3228 2393 l-38 -4 0 -85 0 -85 28 3 c25 3 27 7 32 58 4 40 9 55 20
55 11 0 16 -14 18 -57 3 -57 4 -58 32 -58 l30 0 0 68 c0 45 -5 75 -16 90 -15
22 -24 23 -106 15z m94 -20 c14 -12 18 -31 18 -80 0 -56 -2 -63 -20 -63 -16 0
-19 8 -22 58 -3 53 -5 57 -28 57 -23 0 -25 -4 -30 -55 -4 -42 -9 -56 -22 -58
-16 -3 -18 6 -18 72 l0 75 33 4 c63 8 71 7 89 -10z"/>
<path d="M3473 2391 c-51 -22 -40 -85 18 -102 44 -14 55 -35 12 -24 -48 13
-58 11 -61 -12 -2 -17 4 -24 33 -33 53 -17 103 -5 116 28 15 39 -2 68 -45 76
-52 10 -59 30 -7 21 33 -5 42 -4 47 10 4 9 2 21 -3 26 -15 15 -84 21 -110 10z
m93 -16 c20 -15 18 -17 -36 -19 -23 -1 -35 -6 -35 -15 0 -8 15 -19 35 -24 63
-16 76 -41 40 -77 -23 -23 -57 -26 -95 -8 -25 11 -29 36 -4 30 63 -15 69 -15
69 7 0 12 -6 21 -15 21 -30 0 -75 30 -75 50 0 42 76 65 116 35z"/>
<path d="M3725 2391 l-40 -6 0 -80 c0 -80 0 -80 28 -83 25 -3 27 -1 27 37 0
53 8 71 37 82 18 6 23 15 21 31 -3 25 -15 28 -73 19z m63 -19 c2 -7 -7 -16
-21 -21 -26 -10 -37 -36 -37 -89 0 -26 -4 -33 -17 -30 -15 3 -18 15 -18 73 l0
70 35 6 c43 8 53 6 58 -9z"/>
<path d="M3843 2393 c-18 -3 -23 -13 -28 -56 -11 -86 -5 -111 28 -115 l27 -3
0 90 c0 50 -1 90 -2 90 -2 -1 -13 -4 -25 -6z m17 -89 c0 -66 -2 -75 -17 -72
-31 6 -28 148 3 148 11 0 14 -17 14 -76z"/>
<path d="M3932 2390 c-41 -17 -57 -105 -27 -147 20 -28 74 -38 117 -23 29 11
34 17 30 37 -4 23 -8 24 -48 18 -36 -5 -43 -3 -48 13 -12 36 4 54 42 50 39 -3
66 22 45 43 -15 15 -83 21 -111 9z m88 -10 c33 -18 14 -39 -30 -33 -35 5 -40
3 -45 -20 -4 -14 -4 -35 0 -47 6 -20 12 -22 51 -16 47 6 58 -6 27 -30 -50 -37
-123 5 -123 71 0 64 65 104 120 75z"/>
<path d="M4276 2379 c-22 -17 -26 -28 -26 -73 0 -61 18 -84 71 -92 49 -8 89
10 89 40 0 22 -2 23 -36 16 -39 -9 -67 -4 -58 11 3 5 28 9 56 9 l50 0 -6 38
c-4 20 -16 45 -28 55 -27 23 -79 22 -112 -4z m107 -6 c8 -10 19 -30 22 -45 7
-28 7 -28 -44 -28 -37 0 -53 -4 -58 -15 -8 -23 3 -30 52 -27 47 2 58 -10 26
-28 -31 -16 -66 -12 -95 11 -34 27 -37 91 -4 126 26 28 78 31 101 6z"/>
<path d="M4307 2354 c-19 -19 -6 -35 26 -32 39 4 45 32 7 36 -14 2 -29 0 -33
-4z m48 -14 c4 -6 -5 -10 -20 -10 -15 0 -24 4 -20 10 3 6 12 10 20 10 8 0 17
-4 20 -10z"/>
<path d="M2715 2337 c-11 -86 -5 -111 28 -115 l27 -3 0 85 c0 84 0 86 -24 86
-22 0 -25 -5 -31 -53z m45 -33 c0 -66 -2 -75 -17 -72 -31 6 -28 148 3 148 11
0 14 -17 14 -76z"/>
<path d="M3110 2305 c0 -84 0 -85 25 -85 25 0 25 1 25 85 0 84 0 85 -25 85
-25 0 -25 -1 -25 -85z m40 0 c0 -60 -3 -75 -15 -75 -12 0 -15 15 -15 75 0 60
3 75 15 75 12 0 15 -15 15 -75z"/>
<path d="M402 2254 c-34 -23 -31 -95 4 -123 36 -28 79 -27 109 4 32 31 34 86
5 115 -24 24 -86 27 -118 4z m108 -14 c26 -26 25 -60 -1 -94 -40 -51 -119 -18
-119 50 0 58 77 87 120 44z"/>
<path d="M433 2222 c23 -25 9 -37 -16 -15 -22 20 -21 13 8 -34 20 -32 55 -45
55 -20 0 6 7 25 15 41 9 16 13 31 10 34 -3 3 -13 -13 -22 -36 -17 -45 -27 -52
-37 -26 -4 10 3 25 19 40 14 13 25 27 25 31 0 4 -8 -1 -16 -12 -14 -19 -16
-19 -25 -2 -6 9 -15 17 -21 17 -6 0 -4 -8 5 -18z"/>
<path d="M585 2220 c-4 -6 -4 -22 -1 -34 5 -21 12 -24 66 -25 57 -1 60 0 60
23 0 18 -7 25 -32 30 -18 3 -45 9 -59 12 -16 3 -30 1 -34 -6z m88 -17 c15 -3
27 -12 27 -19 0 -21 -57 -18 -69 4 -10 16 -10 16 -11 0 0 -20 -15 -24 -25 -8
-13 21 4 43 28 35 12 -4 34 -9 50 -12z"/>
<path d="M730 2188 c0 -26 0 -26 88 -30 48 -1 150 -1 227 2 140 5 140 5 140
29 l0 24 -228 1 -227 1 0 -27z m445 1 c0 -11 -29 -15 -131 -19 -72 -3 -170 -4
-217 -2 -73 3 -87 6 -87 20 0 15 20 17 217 16 178 -1 218 -4 218 -15z"/>
<path d="M2755 2098 c-9 -25 1 -208 12 -219 7 -7 19 -9 27 -6 13 5 16 26 16
122 l0 115 -25 0 c-14 0 -28 -6 -30 -12z m43 -105 c-2 -86 -6 -108 -17 -108
-12 0 -15 21 -18 99 -3 105 0 116 23 116 12 0 14 -18 12 -107z"/>
<path d="M390 2066 c0 -8 7 -16 15 -20 8 -3 15 -1 15 4 0 6 -6 10 -12 11 -7 0
-4 4 7 9 19 8 19 9 -2 9 -13 1 -23 -5 -23 -13z"/>
<path d="M440 2061 c-5 -11 -10 -27 -10 -35 0 -27 -48 -20 -53 7 -2 12 -3 -12
-3 -53 l1 -75 82 -3 c81 -3 83 -2 89 23 7 30 1 132 -9 142 -4 3 -15 -1 -26
-11 -17 -16 -19 -16 -24 4 -7 25 -33 26 -47 1z m40 -5 c0 -24 22 -30 36 -11
12 16 13 16 19 -7 3 -13 5 -47 3 -74 l-3 -49 -75 0 -75 0 0 40 c0 36 3 40 28
43 18 2 27 9 27 22 0 29 11 50 26 50 8 0 14 -6 14 -14z"/>
<path d="M2237 2050 c-40 -12 -56 -38 -57 -88 0 -59 33 -92 92 -92 24 0 49 4
56 8 19 13 21 137 2 155 -21 20 -59 26 -93 17z m86 -32 c37 -43 15 -68 -61
-68 -27 0 -33 -4 -30 -17 3 -14 13 -18 51 -16 33 1 47 -3 47 -12 0 -16 -22
-25 -65 -25 -41 0 -75 38 -75 84 1 74 85 109 133 54z m7 -78 c0 -5 -4 -10 -10
-10 -5 0 -10 5 -10 10 0 6 5 10 10 10 6 0 10 -4 10 -10z m-35 -10 c-3 -5 -15
-10 -25 -10 -10 0 -22 5 -25 10 -4 6 7 10 25 10 18 0 29 -4 25 -10z"/>
<path d="M2247 2009 c-24 -14 -12 -29 24 -29 31 0 41 23 13 34 -19 7 -15 8
-37 -5z m38 -9 c4 -6 -6 -10 -22 -10 -22 0 -25 2 -13 10 19 12 27 12 35 0z"/>
<path d="M2424 2053 c-38 -7 -59 -41 -59 -94 0 -60 18 -79 79 -86 39 -5 51 -2
71 17 47 44 25 160 -29 160 -8 0 -20 2 -28 4 -7 2 -23 1 -34 -1z m57 -13 c5 0
18 -9 29 -20 28 -28 27 -87 -2 -117 -46 -49 -138 -12 -138 54 0 49 51 100 88
87 8 -2 18 -4 23 -4z"/>
<path d="M2421 1991 c-15 -26 -14 -43 3 -66 12 -17 17 -18 41 -7 23 10 26 17
23 50 -3 32 -7 37 -30 40 -18 2 -30 -3 -37 -17z m57 -22 c4 -34 -22 -57 -43
-39 -18 15 -19 42 -3 58 19 19 43 10 46 -19z"/>
<path d="M2894 2053 c-38 -7 -59 -41 -59 -95 0 -40 5 -53 24 -69 25 -21 75
-25 115 -9 25 9 27 18 27 104 -1 48 -49 79 -107 69z m78 -32 c10 -9 19 -27 20
-41 3 -26 3 -26 -65 -28 -31 -2 -38 -5 -35 -19 3 -13 14 -18 43 -19 59 -2 62
-3 41 -19 -33 -25 -91 -19 -115 11 -63 81 38 185 111 115z m13 -81 c3 -5 -1
-10 -9 -10 -9 0 -16 5 -16 10 0 6 4 10 9 10 6 0 13 -4 16 -10z m-35 -10 c0 -5
-9 -10 -19 -10 -11 0 -23 5 -26 10 -4 6 5 10 19 10 14 0 26 -4 26 -10z"/>
<path d="M2903 2013 c-26 -10 -13 -33 17 -33 32 0 42 23 14 34 -9 3 -16 6 -17
5 -1 0 -8 -3 -14 -6z m32 -13 c3 -5 -3 -10 -15 -10 -12 0 -18 5 -15 10 3 6 10
10 15 10 5 0 12 -4 15 -10z"/>
<path d="M1997 2043 c-4 -3 -7 -55 -7 -115 l0 -108 30 0 c25 0 30 4 30 25 0
22 4 25 38 25 45 0 66 19 75 67 7 36 -7 93 -25 105 -16 9 -132 11 -141 1z
m130 -11 c19 -12 34 -61 27 -90 -11 -44 -33 -62 -76 -62 -34 0 -38 -3 -38 -25
0 -18 -5 -25 -20 -25 -19 0 -20 7 -20 98 0 54 3 102 7 105 9 9 105 8 120 -1z"/>
<path d="M2052 1998 c-7 -7 -12 -24 -12 -40 0 -50 64 -61 76 -13 12 47 -33 84
-64 53z m46 -10 c28 -28 -3 -83 -33 -58 -8 7 -15 20 -15 29 0 17 18 41 30 41
3 0 11 -5 18 -12z"/>
<path d="M2564 2037 c-2 -7 -3 -58 -2 -113 l3 -99 28 -3 c23 -3 27 0 27 22 0
23 4 26 38 26 20 0 42 4 48 8 35 23 46 111 18 150 -13 19 -24 22 -85 22 -48 0
-71 -4 -75 -13z m150 -19 c23 -32 20 -90 -4 -116 -15 -16 -33 -22 -60 -22 -36
0 -40 -2 -40 -26 0 -19 -5 -25 -17 -22 -15 3 -18 17 -21 92 -2 49 -1 95 2 103
4 9 25 13 65 13 51 0 62 -3 75 -22z"/>
<path d="M2620 1989 c-14 -26 -6 -65 16 -73 26 -10 54 12 54 42 0 50 -49 72
-70 31z m48 -1 c28 -28 -3 -83 -33 -58 -8 7 -15 20 -15 29 0 17 18 41 30 41 3
0 11 -5 18 -12z"/>
<path d="M577 1999 c-3 -9 -1 -23 3 -30 8 -12 23 -12 188 -9 19 0 23 5 20 26
l-3 27 -102 1 c-87 1 -103 -1 -106 -15z m201 -13 c2 -11 -4 -16 -20 -17 -48
-2 -83 3 -90 15 -6 8 -8 8 -8 0 0 -15 -63 -25 -72 -11 -16 25 5 32 95 31 76
-1 93 -4 95 -18z"/>
<path d="M400 1870 c-24 -6 -25 -9 -25 -85 l0 -80 73 -3 c46 -2 79 2 88 9 15
12 20 125 6 145 -8 13 -106 23 -142 14z m128 -15 c18 -6 16 -119 -2 -134 -9
-7 -40 -11 -78 -9 l-63 3 -2 68 c-2 62 0 69 20 76 20 7 95 5 125 -4z"/>
<path d="M412 1790 c0 -48 2 -59 8 -42 5 12 16 22 25 22 8 0 15 5 15 10 0 7
-6 7 -19 0 -18 -9 -20 -6 -24 32 -2 31 -4 25 -5 -22z"/>
<path d="M576 1796 c-3 -11 -1 -25 4 -30 6 -6 66 -12 135 -14 l125 -4 0 26 c0
17 -6 27 -17 28 -10 0 -29 2 -43 4 -14 1 -64 4 -112 6 -81 4 -87 3 -92 -16z
m204 0 c14 -2 31 -4 38 -4 6 -1 12 -9 12 -18 0 -14 -2 -15 -17 -3 -14 12 -16
12 -8 0 7 -12 -10 -13 -104 -9 -62 3 -114 8 -117 10 -2 3 -2 12 1 19 4 11 24
14 88 11 45 -2 93 -5 107 -6z"/>
<path d="M1992 1722 c-8 -6 -10 -19 -6 -40 l7 -32 153 0 c85 0 154 3 154 8 0
4 -3 17 -6 29 -6 20 -11 21 -112 20 -69 -2 -116 2 -132 10 -29 15 -40 16 -58
5z m53 -15 c14 -9 53 -13 125 -12 98 2 119 -3 120 -27 0 -5 -56 -8 -125 -8
-123 0 -125 0 -126 23 -1 21 -1 21 -9 -3 l-8 -25 -1 28 c-1 16 -5 26 -10 23
-5 -3 -7 -16 -5 -29 4 -22 4 -22 -6 1 -17 40 6 55 45 29z"/>
<path d="M2328 1719 c-20 -11 -24 -54 -6 -65 19 -12 262 -4 270 9 15 24 -10
42 -64 44 -94 4 -153 10 -168 16 -8 4 -23 2 -32 -4z m45 -25 c-3 -8 -13 -14
-22 -14 -14 0 -14 2 -1 10 9 6 10 10 3 10 -19 0 -26 -20 -8 -26 9 -4 24 1 34
10 18 17 27 18 128 14 57 -3 96 -19 76 -31 -5 -3 -62 -7 -128 -8 -100 -2 -120
0 -129 13 -7 11 -6 21 2 31 16 18 53 11 45 -9z"/>
<path d="M377 1663 c-4 -3 -7 -41 -7 -84 0 -88 1 -89 86 -89 84 0 94 9 94 85
0 95 0 95 -89 95 -43 0 -81 -3 -84 -7z m161 -71 c4 -85 -4 -94 -87 -90 l-66 3
-3 64 c-4 92 -4 92 80 89 l73 -3 3 -63z"/>
<path d="M582 1604 c-5 -9 -7 -25 -5 -35 5 -18 18 -19 165 -19 l159 0 -3 23
c-3 21 -7 22 -138 27 -74 3 -142 9 -152 13 -11 6 -19 3 -26 -9z m34 -4 c5 -5
67 -11 138 -12 93 -2 131 -7 134 -15 3 -10 -31 -13 -146 -13 -152 0 -167 4
-154 38 5 14 15 15 28 2z"/>
<path d="M381 1456 c-7 -9 -11 -42 -9 -88 l3 -73 79 -3 c57 -2 82 1 87 10 5 7
9 43 9 80 0 56 -3 69 -19 78 -30 15 -136 13 -150 -4z m148 -10 c7 -9 11 -40 9
-78 l-3 -63 -75 0 -75 0 -3 54 c-5 95 -2 101 72 101 43 0 67 -5 75 -14z"/>
<path d="M3990 1446 c0 -2 33 -29 73 -59 120 -92 207 -197 232 -281 9 -28 25
-75 37 -104 17 -42 19 -55 9 -61 -7 -4 -11 -21 -9 -37 3 -27 0 -29 -32 -32
-24 -3 -38 2 -48 15 -13 17 -14 17 -10 -2 3 -17 11 -20 53 -20 49 0 50 1 48
29 -1 17 2 35 8 42 11 14 3 59 -16 90 -7 11 -21 48 -30 82 -26 90 -105 191
-216 277 -57 43 -99 69 -99 61z"/>
<path d="M6102 1430 c-2 -25 -4 -26 -64 -22 -50 2 -70 -1 -95 -17 l-33 -21 2
-202 3 -203 2 202 3 203 36 15 c38 16 83 19 122 9 l22 -6 0 -478 c0 -398 -2
-479 -14 -489 -9 -8 -43 -11 -93 -9 l-78 3 -3 78 c-3 75 8 114 28 102 5 -3 15
-2 24 1 14 5 16 47 14 393 l-3 386 -2 -382 c-3 -369 -4 -383 -22 -383 -48 0
-51 -7 -51 -111 l0 -99 94 0 c67 0 97 4 105 14 8 9 10 156 8 527 -1 283 -3
503 -5 489z"/>
<path d="M580 1391 c1 -38 13 -42 171 -45 85 -2 165 -5 179 -8 14 -2 33 0 43
4 20 10 23 46 5 53 -7 3 -100 6 -205 8 -170 3 -193 1 -193 -12z m338 -1 c54 0
63 -2 60 -17 -4 -21 -46 -33 -70 -21 -10 5 -75 8 -145 7 -94 -1 -128 2 -131
11 -4 10 -6 10 -12 0 -9 -14 -30 -5 -30 13 0 9 35 12 133 10 72 -2 160 -3 195
-3z"/>
<path d="M4693 1388 c-6 -8 -13 -194 -17 -469 l-7 -455 40 -32 40 -32 130 0
131 0 -6 483 c-4 265 -11 490 -16 500 -8 15 -25 17 -147 17 -99 0 -141 -4
-148 -12z m284 -10 c7 -8 12 -195 14 -488 l4 -475 -118 -3 -117 -3 -40 33 -41
32 7 445 c4 268 11 451 17 459 7 8 47 12 137 12 90 0 130 -4 137 -12z"/>
<path d="M5466 1393 c-3 -4 -7 -183 -8 -397 0 -215 -3 -437 -5 -493 l-4 -103
185 0 c102 0 187 3 189 8 3 4 -77 7 -176 7 l-182 0 -3 84 c-2 46 1 88 7 94 10
10 322 10 333 -1 4 -4 12 -43 17 -87 l10 -80 -5 84 c-3 46 -7 88 -10 93 -3 4
-76 8 -162 8 -86 0 -163 4 -170 8 -9 7 -12 91 -10 388 l3 379 23 -1 c12 0 22
3 22 8 0 10 -44 11 -54 1z"/>
<path d="M373 1248 c-9 -15 -8 -142 2 -158 8 -13 131 -13 156 0 16 9 19 22 19
75 0 36 -3 65 -7 65 -5 0 -6 -25 -5 -55 4 -57 -8 -85 -34 -85 -8 0 -14 6 -14
14 0 14 -36 26 -58 18 -7 -2 -12 -10 -12 -19 0 -8 -7 -13 -17 -11 -12 2 -20
18 -25 48 -10 55 -2 97 20 110 16 9 16 9 0 10 -9 0 -20 -6 -25 -12z m107 -149
c0 -5 -11 -9 -25 -9 -24 0 -32 10 -19 22 8 8 44 -3 44 -13z"/>
<path d="M392 1208 l-2 -33 13 25 c14 25 13 40 -1 40 -4 0 -9 -15 -10 -32z"/>
<path d="M3206 1215 c-18 -27 -22 -90 -6 -80 6 3 10 1 10 -5 0 -5 -14 -19 -32
-30 -20 -12 -32 -28 -34 -45 -1 -14 2 -23 7 -20 5 4 9 15 9 25 0 10 8 21 19
25 22 7 92 80 84 88 -3 4 -14 -4 -24 -16 -13 -17 -20 -19 -30 -10 -9 9 -8 21
5 52 18 47 16 52 -8 16z"/>
<path d="M513 1180 c0 -30 2 -43 4 -27 2 15 2 39 0 55 -2 15 -4 2 -4 -28z"/>
<path d="M580 1176 l0 -36 138 2 c134 3 137 4 140 26 4 24 13 22 -128 26 -41
1 -92 6 -112 10 l-38 8 0 -36z m153 9 c60 -2 111 -6 114 -9 16 -16 -20 -23
-132 -24 l-125 -1 0 25 c0 21 4 25 18 19 9 -4 66 -9 125 -10z"/>
<path d="M384 1026 c-3 -7 -4 -31 -2 -52 3 -34 6 -39 31 -42 21 -3 27 -9 27
-28 0 -17 6 -24 19 -24 51 0 33 45 -22 56 -41 9 -42 10 -42 49 l0 40 65 0 65
0 3 -42 c3 -38 1 -43 -17 -43 -12 0 -21 -4 -21 -10 0 -6 9 -6 23 -1 19 7 22
16 22 57 l0 49 -73 3 c-56 2 -74 0 -78 -12z m88 -121 c0 -5 -5 -11 -11 -13 -6
-2 -11 4 -11 13 0 9 5 15 11 13 6 -2 11 -8 11 -13z"/>
<path d="M587 1004 c-11 -11 -8 -52 3 -59 7 -4 9 2 5 18 -8 30 4 39 43 31 24
-5 29 -10 24 -26 -5 -20 -5 -21 -19 -2 -14 19 -15 19 -11 -1 5 -32 35 -30 41
2 3 15 5 29 4 29 -8 7 -84 13 -90 8z"/>
<path d="M612 970 c0 -14 2 -19 5 -12 2 6 2 18 0 25 -3 6 -5 1 -5 -13z"/>
<path d="M690 963 l0 -28 83 1 c45 1 149 2 230 3 148 1 148 1 145 24 -3 22 -3
22 -230 25 l-228 2 0 -27z m448 0 c3 -10 -25 -13 -117 -13 -90 0 -121 3 -121
13 0 7 -3 8 -8 2 -16 -23 -100 -25 -113 -3 -5 7 -9 8 -9 2 0 -6 -6 -11 -12
-11 -7 0 -23 -3 -35 -7 -19 -6 -23 -4 -23 14 0 20 3 20 217 18 162 -2 217 -6
221 -15z"/>
<path d="M3292 880 c-7 -12 -16 -50 -19 -86 -4 -49 -9 -64 -19 -60 -24 9 -18
-87 6 -109 11 -10 20 -13 20 -8 0 6 -7 16 -15 23 -19 16 -20 76 -1 83 8 3 15
28 19 66 3 34 11 68 17 76 7 8 10 19 8 25 -2 6 -9 1 -16 -10z"/>
<path d="M382 848 c-7 -7 -12 -36 -12 -65 0 -50 2 -53 24 -53 14 0 28 5 31 10
3 6 26 10 51 10 24 0 44 3 44 8 0 10 -93 2 -104 -9 -24 -22 -36 -8 -36 41 0
44 3 50 24 56 14 3 31 2 38 -2 7 -4 27 -7 45 -5 28 2 35 -2 43 -24 5 -14 10
-46 10 -71 0 -55 -19 -65 -105 -54 -34 4 -46 8 -28 9 46 2 48 16 2 16 -23 0
-39 -5 -39 -12 0 -19 14 -23 90 -25 53 -2 74 1 81 12 12 17 5 138 -7 150 -16
14 -139 21 -152 8z"/>
<path d="M582 770 c3 -25 4 -25 111 -28 l107 -3 0 28 0 28 -110 0 -111 0 3
-25z m208 -2 c0 -15 -10 -18 -66 -18 -49 0 -63 3 -58 13 6 9 3 8 -9 -1 -20
-17 -61 -12 -65 8 -2 13 13 16 98 15 88 0 100 -2 100 -17z"/>
<path d="M3705 706 c-15 -20 -33 -36 -41 -36 -7 0 -18 -9 -24 -20 -6 -11 -7
-20 -1 -20 5 0 11 7 15 15 6 16 31 20 40 7 3 -4 -2 -19 -9 -33 -8 -13 -18 -34
-24 -45 -5 -12 -22 -31 -37 -43 -33 -26 -77 -98 -64 -106 5 -3 13 10 20 29 6
19 27 46 46 61 19 15 39 38 45 52 5 14 14 21 21 17 6 -4 8 -3 4 4 -3 6 -2 21
3 35 6 14 6 28 1 33 -10 10 35 74 51 74 5 0 14 -20 21 -44 6 -25 15 -43 19
-41 4 3 23 -6 43 -20 49 -33 100 -33 153 2 22 14 40 31 39 37 -3 21 -21 43
-41 49 -14 5 -12 1 8 -14 15 -11 24 -25 21 -31 -4 -5 -13 -3 -23 6 -10 9 -40
18 -67 21 -54 6 -50 0 7 -9 19 -4 44 -12 54 -20 18 -13 17 -15 -15 -35 -19
-11 -47 -21 -62 -21 -41 0 -116 55 -126 93 -12 46 -43 47 -77 3z"/>
<path d="M4196 703 c-2 -10 -10 -45 -15 -78 -12 -65 -26 -89 -40 -66 -6 8 -4
29 5 53 7 21 9 38 5 38 -5 0 -15 -20 -23 -45 -8 -24 -11 -42 -7 -39 8 5 13 -9
10 -28 0 -4 9 -4 22 1 18 7 25 23 39 91 10 46 16 85 14 88 -2 2 -7 -5 -10 -15z"/>
<path d="M380 629 c0 -15 5 -20 22 -17 34 5 37 38 4 38 -20 0 -26 -5 -26 -21z
m40 1 c0 -5 -7 -10 -15 -10 -8 0 -15 5 -15 10 0 6 7 10 15 10 8 0 15 -4 15
-10z"/>
<path d="M518 603 c19 -4 22 -11 22 -51 0 -26 -5 -54 -10 -62 -7 -11 -9 -2 -6
30 l5 45 -11 -43 c-12 -47 -6 -61 17 -42 10 9 15 31 15 71 0 58 0 59 -27 58
-24 -2 -25 -2 -5 -6z"/>
<path d="M5195 601 l-120 -6 -3 -97 -3 -98 160 0 c88 0 162 3 164 8 3 4 -65 7
-151 7 l-157 0 0 85 0 85 140 6 c78 4 144 3 150 -2 5 -5 12 -44 15 -87 l7 -77
0 65 c1 36 -2 76 -6 90 -8 29 -12 29 -196 21z"/>
<path d="M450 580 c-13 -11 -27 -20 -32 -20 -4 0 -8 -14 -8 -30 0 -23 6 -33
25 -42 22 -10 29 -9 45 8 11 10 22 33 26 51 5 25 2 33 -14 42 -15 8 -24 6 -42
-9z m35 -54 c-18 -38 -33 -44 -53 -24 -11 11 -17 48 -8 48 2 0 11 3 19 6 9 3
17 0 20 -8 2 -7 3 -4 1 8 -5 28 7 38 24 20 12 -12 12 -19 -3 -50z"/>
<path d="M577 579 c-10 -36 6 -43 96 -44 81 0 82 0 85 26 3 26 2 27 -55 26
-32 -1 -72 2 -89 7 -28 7 -32 5 -37 -15z m121 -3 c43 0 52 -2 50 -15 -2 -11
-17 -17 -47 -19 -59 -4 -91 5 -92 26 -1 16 -2 16 -6 -1 -2 -9 -8 -15 -13 -12
-5 3 -7 12 -4 20 5 11 13 13 33 7 14 -4 50 -7 79 -6z"/>
<path d="M3794 555 c4 -16 17 -38 27 -48 21 -20 39 -58 39 -82 0 -12 -69 -14
-441 -14 -243 0 -444 -3 -447 -6 -3 -3 388 -4 869 -3 675 2 778 4 455 8 l-419
5 -10 30 c-5 17 -21 45 -34 63 -14 18 -26 40 -27 47 -1 8 -6 18 -10 22 -5 4
-6 -5 -2 -22z"/>
<path d="M3728 533 c-10 -3 -18 -8 -18 -13 0 -4 9 -6 20 -3 14 4 20 0 20 -12
0 -14 -6 -16 -36 -11 -19 4 -41 9 -47 11 -7 3 -18 1 -26 -4 -12 -8 -13 -14 -3
-35 6 -14 17 -26 23 -26 7 0 4 8 -6 20 -21 23 -8 49 17 34 7 -5 36 -10 63 -12
68 -4 74 -7 69 -34 -4 -21 -4 -21 5 -3 17 35 12 45 -19 45 -23 0 -30 5 -30 19
0 23 -8 29 -32 24z"/>
<path d="M473 443 c9 -2 25 -2 35 0 9 3 1 5 -18 5 -19 0 -27 -2 -17 -5z"/>
</g>
</defs>
<mask id="mp78401">
  <use xlink:href="#gp78401" fill="white" />
</mask>
<use xlink:href="#gp78401" data-mask="url(#mp78401)" data-stroke="black" stroke-width="20px" fill="black"/>
</svg>
