<?xml version="1.0" standalone="no"?>
<!DOCTYPE svg PUBLIC "-//W3C//DTD SVG 20010904//EN"
 "http://www.w3.org/TR/2001/REC-SVG-20010904/DTD/svg10.dtd">
<svg class="Potrace" xmlns:xlink="http://www.w3.org/1999/xlink" version="1.0" xmlns="http://www.w3.org/2000/svg"
 width="641.000000pt" height="431.000000pt" viewBox="0 0 641.000000 431.000000"
 preserveAspectRatio="xMidYMid meet">
<defs>
  <g id="gp66833" transform="translate(0.000000,431.000000) scale(0.100000,-0.100000)"
>
<path d="M301 4116 c-16 -19 -16 -3683 0 -3703 9 -10 40 -13 123 -11 61 1 92
3 68 5 -53 5 -52 27 0 31 29 3 38 -1 43 -17 6 -21 10 -21 571 -21 l564 0 1
278 c1 152 0 397 -1 543 -1 191 1 269 9 274 22 13 155 -17 205 -47 60 -36 74
-29 15 8 -45 28 -195 61 -226 50 -13 -5 -15 -41 -13 -279 1 -149 2 -395 1
-544 l-1 -273 -554 0 c-546 0 -555 0 -561 20 -6 18 -14 20 -83 19 -42 -1 -65
-4 -49 -6 15 -2 27 -11 27 -19 0 -19 -113 -20 -129 -1 -16 20 -16 3664 0 3683
17 21 5761 21 5778 0 16 -19 16 -3663 0 -3683 -9 -11 -129 -13 -645 -13 -627
0 -634 0 -634 20 0 20 14 27 23 13 2 -5 2 -2 1 5 -5 17 14 62 25 62 5 0 26
-17 45 -37 19 -21 37 -35 40 -32 3 2 -11 22 -31 42 -40 43 -76 47 -81 9 -2
-13 -10 -26 -18 -29 -8 -3 -14 -18 -14 -34 l0 -29 644 0 c524 0 646 2 655 13
16 20 16 3684 0 3703 -17 21 -5781 21 -5798 0z"/>
<path d="M380 4025 c-17 -21 2 -65 28 -65 41 0 57 51 23 70 -27 14 -36 13 -51
-5z m50 -11 c11 -12 10 -18 -3 -32 -16 -15 -18 -15 -34 0 -13 14 -14 20 -3 32
7 9 16 16 20 16 4 0 13 -7 20 -16z"/>
<path d="M3486 3824 c-19 -18 -19 -24 -6 -58 8 -21 16 -26 44 -26 35 0 46 12
46 54 0 44 -52 63 -84 30z m64 -9 c7 -8 10 -25 6 -40 -8 -31 -50 -35 -66 -6
-13 25 -13 27 6 45 19 20 38 20 54 1z"/>
<path d="M3505 3801 c-8 -15 3 -31 21 -31 9 0 14 7 12 17 -4 20 -24 28 -33 14z
m25 -11 c0 -5 -5 -10 -11 -10 -5 0 -7 5 -4 10 3 6 8 10 11 10 2 0 4 -4 4 -10z"/>
<path d="M5677 3833 c-4 -3 -7 -12 -7 -20 0 -9 17 -13 60 -13 47 0 60 3 60 15
0 8 5 15 10 15 6 0 10 -7 10 -15 0 -12 14 -15 66 -15 57 0 65 2 62 18 -3 15
-18 17 -129 19 -69 2 -129 0 -132 -4z m103 -12 c0 -6 -22 -10 -50 -9 -27 0
-47 4 -44 9 7 12 94 12 94 0z m80 -1 c0 -5 -9 -10 -20 -10 -11 0 -20 5 -20 10
0 6 9 10 20 10 11 0 20 -4 20 -10z m66 -1 c3 -5 -9 -9 -25 -9 -17 0 -31 4 -31
9 0 5 11 9 25 9 14 0 28 -4 31 -9z"/>
<path d="M3585 3820 c-3 -5 -1 -10 4 -10 6 0 11 -12 11 -26 0 -16 -4 -23 -11
-18 -7 4 -10 1 -7 -7 6 -17 68 -25 68 -9 0 6 5 8 10 5 6 -3 50 -8 100 -10 84
-4 90 -3 101 17 l12 22 8 -22 c7 -18 16 -22 48 -22 22 0 43 5 46 10 4 6 11 8
16 5 5 -4 37 -8 72 -10 l62 -3 -3 39 c-4 34 -1 39 17 39 23 0 30 -34 9 -44 -7
-3 -3 -3 10 0 15 4 24 0 28 -10 9 -24 31 -19 36 9 3 13 2 23 -1 22 -3 -1 -8 3
-11 8 -3 6 7 11 21 13 22 3 27 -2 32 -25 3 -15 2 -32 -1 -38 -4 -5 -10 6 -13
25 l-6 35 -2 -32 c0 -17 3 -34 8 -37 11 -7 36 22 28 31 -4 3 1 11 10 18 9 7
13 17 9 23 -9 14 -96 16 -96 2 0 -6 -9 -6 -23 1 -16 7 -39 8 -68 2 -41 -9 -44
-11 -43 -41 1 -18 -3 -32 -8 -32 -6 0 -8 17 -6 38 3 38 3 38 -32 39 -19 1 -27
-1 -17 -4 12 -3 17 -14 16 -36 0 -27 -2 -29 -9 -12 -18 46 -35 50 -194 51 -83
0 -145 -1 -138 -4 6 -2 12 -18 12 -35 l0 -32 -16 30 c-8 16 -21 33 -27 37 -17
11 -55 10 -62 -2z m54 -45 c14 -8 4 -25 -15 -25 -10 0 -14 11 -13 38 0 31 2
33 9 16 5 -12 13 -25 19 -29z m31 2 c0 -6 -9 -2 -20 8 -11 10 -20 23 -20 28 0
6 9 2 20 -8 11 -10 20 -23 20 -28z m37 -9 c-2 -13 -4 -5 -4 17 -1 22 1 32 4
23 2 -10 2 -28 0 -40z m33 17 c0 -19 -4 -35 -10 -35 -5 0 -10 16 -10 35 0 19
5 35 10 35 6 0 10 -16 10 -35z m88 0 c-1 -27 -6 -35 -20 -35 -14 0 -18 8 -18
35 0 28 4 35 20 35 16 0 19 -6 18 -35z m58 25 c9 0 14 -10 13 -32 -1 -24 -3
-27 -6 -10 -2 12 -7 22 -11 22 -12 0 -29 -15 -35 -30 -3 -8 -6 2 -6 24 -1 31
2 37 15 32 9 -3 22 -6 30 -6z m67 -10 c6 -22 -8 -28 -16 -7 -3 7 -6 4 -6 -7
-1 -14 4 -17 19 -13 24 6 36 -8 14 -17 -39 -15 -54 -7 -54 29 0 28 4 35 19 35
10 0 21 -9 24 -20z m84 -32 c-2 -13 -4 -5 -4 17 -1 22 1 32 4 23 2 -10 2 -28
0 -40z m248 42 c3 -5 1 -10 -4 -10 -6 0 -11 5 -11 10 0 6 2 10 4 10 3 0 8 -4
11 -10z m-505 -25 c0 -16 -6 -25 -15 -25 -9 0 -15 9 -15 25 0 16 6 25 15 25 9
0 15 -9 15 -25z m210 10 c6 -8 10 -19 8 -24 -1 -5 -11 2 -21 15 -19 26 -8 34
13 9z m120 -15 c0 -28 -2 -30 -20 -20 -30 16 -25 50 7 50 8 0 13 -12 13 -30z
m100 -13 c0 -6 -9 -2 -20 8 -11 10 -20 23 -20 28 0 6 9 2 20 -8 11 -10 20 -23
20 -28z"/>
<path d="M5970 3790 c0 -25 4 -31 18 -28 11 2 17 12 17 28 0 16 -6 26 -17 28
-14 3 -18 -3 -18 -28z m22 -12 c-9 -9 -12 -7 -12 12 0 19 3 21 12 12 9 -9 9
-15 0 -24z"/>
<path d="M1453 3743 c-12 -2 -34 -18 -48 -34 -37 -44 -35 -108 4 -151 25 -28
36 -33 74 -33 58 0 99 29 111 78 23 89 -48 160 -141 140z m77 -18 c38 -20 60
-52 60 -90 0 -38 -22 -70 -60 -90 -43 -22 -65 -19 -105 16 -30 26 -35 37 -35
73 0 33 6 48 28 68 43 41 68 46 112 23z"/>
<path d="M1435 3680 c-3 -5 -1 -18 5 -29 7 -13 7 -22 0 -26 -5 -3 -10 -15 -10
-26 0 -14 7 -19 26 -19 14 0 23 4 19 10 -3 5 -12 7 -20 3 -16 -6 -19 5 -7 25
6 9 14 6 32 -13 13 -14 32 -25 42 -25 29 0 21 37 -17 75 -34 35 -59 44 -70 25z
m60 -35 c33 -33 44 -55 27 -55 -14 0 -83 76 -76 83 11 10 12 10 49 -28z"/>
<path d="M1502 3678 c6 -16 36 -34 44 -26 3 4 4 14 1 23 -7 17 -51 21 -45 3z
m33 -8 c3 -5 2 -10 -4 -10 -5 0 -13 5 -16 10 -3 6 -2 10 4 10 5 0 13 -4 16
-10z"/>
<path d="M401 3730 c-13 -7 -32 -60 -26 -70 8 -12 94 -10 117 3 16 9 22 9 25
0 6 -15 43 -17 43 -3 0 6 7 10 15 10 8 0 15 -4 15 -10 0 -6 27 -10 60 -10 l60
0 0 46 c0 44 -1 45 -27 42 -22 -2 -29 -9 -31 -30 -2 -16 -7 -28 -12 -28 -5 0
-12 12 -17 28 l-10 27 -101 1 c-56 0 -106 -2 -111 -6z m29 -22 c8 -21 9 -21
10 -3 1 18 2 17 15 -5 l15 -25 -3 25 c-2 24 -1 25 70 25 71 1 72 0 78 -27 9
-38 42 -39 47 -1 2 17 10 29 21 31 14 3 17 -4 17 -32 l0 -36 -50 0 c-27 0 -50
5 -50 10 0 14 -47 12 -54 -2 -5 -10 -7 -10 -12 0 -7 14 -50 16 -59 2 -3 -5
-25 -8 -48 -6 -34 3 -41 7 -39 23 4 17 20 43 29 43 2 0 8 -10 13 -22z"/>
<path d="M785 3731 c-2 -5 -16 -6 -30 -3 -23 4 -25 2 -25 -35 l0 -39 70 -2
c76 -2 82 3 54 48 -14 23 -13 12 3 -27 6 -16 -63 -18 -72 -3 -4 7 -13 7 -26 0
-17 -10 -19 -7 -19 20 0 27 2 30 25 24 17 -4 25 -2 25 6 0 10 17 11 68 6 37
-4 72 -6 77 -6 108 5 100 7 100 -25 0 -23 -5 -31 -22 -33 -14 -2 -23 2 -23 10
0 10 -3 9 -10 -2 -8 -13 -10 -13 -10 2 0 9 8 19 18 21 13 4 13 5 -4 6 -13 1
-24 -6 -26 -17 -8 -30 -58 -21 -74 14 l-13 29 6 -30 c3 -16 7 -33 9 -36 2 -4
39 -6 81 -5 l78 1 0 40 0 40 -127 2 c-70 1 -130 -2 -133 -6z"/>
<path d="M377 3596 c-4 -9 -2 -18 3 -21 6 -4 6 -13 0 -26 -14 -25 1 -31 71
-27 l54 3 0 40 0 40 -61 3 c-48 2 -63 -1 -67 -12z m118 -31 c0 -29 -2 -30 -52
-33 -53 -3 -63 4 -41 26 9 9 9 12 0 12 -7 0 -12 7 -12 15 0 11 12 14 53 12 51
-2 52 -3 52 -32z"/>
<path d="M534 3596 c-3 -8 -4 -27 -2 -43 3 -28 4 -28 78 -31 67 -2 78 0 105
22 25 21 28 27 16 38 -8 7 -11 8 -7 1 3 -6 -7 -21 -24 -33 -24 -17 -41 -20
-92 -18 -63 3 -63 3 -63 33 l0 30 178 0 c97 0 177 3 177 8 0 4 -81 7 -180 7
-147 0 -182 -3 -186 -14z"/>
<path d="M917 3595 c-4 -8 -2 -15 3 -15 6 0 10 4 10 9 0 6 46 9 108 8 l107 -2
3 -31 3 -31 -170 -1 -170 -2 -4 32 c-4 33 -4 33 -5 -4 l-2 -38 178 3 177 2 0
40 0 40 -116 3 c-97 2 -118 0 -122 -13z"/>
<path d="M751 3558 c-1 -28 3 -38 14 -38 8 0 15 9 15 19 0 11 3 27 7 37 4 12
3 15 -5 10 -7 -4 -13 -19 -13 -34 -1 -24 -3 -23 -9 8 l-7 35 -2 -37z"/>
<path d="M3600 3496 c0 -21 5 -26 26 -26 21 0 25 4 22 23 -2 14 -11 23 -25 25
-19 3 -23 -1 -23 -22z m38 -4 c2 -7 -3 -12 -12 -12 -9 0 -16 7 -16 16 0 17 22
14 28 -4z"/>
<path d="M3130 3478 c-22 -36 -26 -63 -10 -73 6 -3 10 -26 10 -51 0 -40 2 -44
25 -44 23 0 25 4 27 53 1 28 2 63 3 77 0 14 5 25 10 25 6 0 11 -34 13 -75 3
-74 10 -90 44 -90 14 0 16 10 11 83 -7 130 -5 127 -63 127 -46 0 -52 -3 -70
-32z m120 -73 c3 -49 4 -92 3 -94 -1 -2 -9 -1 -18 2 -11 5 -15 22 -15 74 0 37
-4 74 -9 82 -13 21 -42 5 -40 -21 1 -13 1 -47 1 -75 -2 -40 -6 -53 -17 -53
-11 0 -15 12 -15 44 0 25 -4 48 -10 51 -14 9 -13 15 10 53 19 30 24 33 63 30
l42 -3 5 -90z"/>
<path d="M3524 3496 c-3 -9 -4 -52 -2 -96 3 -88 13 -103 58 -96 14 3 35 5 48
5 21 1 22 5 22 71 0 68 -1 70 -25 70 -24 0 -25 -2 -25 -72 0 -104 -23 -74 -30
40 -4 72 -8 87 -23 90 -9 2 -20 -4 -23 -12z m38 -98 c4 -87 -2 -106 -22 -69
-11 22 -14 154 -3 165 14 14 21 -12 25 -96z m78 -18 c0 -47 -3 -60 -15 -60
-12 0 -15 13 -15 60 0 47 3 60 15 60 12 0 15 -13 15 -60z"/>
<path d="M4597 3504 c-4 -4 -7 -49 -7 -99 l0 -92 41 -7 c63 -10 89 11 89 74 0
39 -4 52 -22 64 -12 9 -30 16 -40 16 -10 0 -18 9 -20 22 -3 23 -27 35 -41 22z
m33 -35 c0 -13 7 -19 22 -19 34 0 58 -29 58 -70 0 -51 -26 -74 -74 -65 l-36 7
0 82 c0 46 3 86 6 89 11 10 24 -3 24 -24z"/>
<path d="M4630 3380 c0 -37 2 -41 23 -38 18 2 22 9 22 38 0 29 -4 36 -22 38
-21 3 -23 -1 -23 -38z m35 0 c0 -13 -6 -25 -12 -27 -9 -3 -13 6 -13 27 0 21 4
30 13 28 6 -3 12 -15 12 -28z"/>
<path d="M5417 3503 c-4 -3 -7 -48 -7 -100 0 -93 0 -93 25 -93 21 0 25 5 25
28 l1 27 14 -26 c16 -29 44 -44 57 -31 5 5 1 25 -7 47 -12 27 -13 41 -6 48 6
6 11 19 11 29 0 26 -35 23 -54 -4 -15 -22 -16 -20 -16 30 0 44 -3 52 -18 52
-10 0 -22 -3 -25 -7z m33 -53 c0 -55 11 -63 40 -27 10 12 22 19 26 14 4 -4 2
-13 -4 -19 -16 -16 -15 -37 2 -70 20 -39 0 -47 -22 -9 -21 37 -42 40 -42 6 0
-16 -6 -25 -15 -25 -12 0 -15 16 -15 83 0 46 3 87 7 90 16 17 23 3 23 -43z"/>
<path d="M1944 3475 c-4 -8 -4 -43 -2 -77 5 -75 32 -103 86 -94 56 9 62 20 62
107 0 77 -1 79 -25 79 -23 0 -24 -3 -27 -67 -2 -53 -6 -68 -18 -68 -11 0 -16
16 -20 65 -4 58 -7 65 -28 68 -13 2 -25 -3 -28 -13z m46 -66 c5 -60 6 -64 30
-64 24 0 25 3 28 68 2 51 6 67 17 67 12 0 15 -15 15 -69 0 -61 -3 -72 -22 -85
-57 -40 -108 2 -108 89 0 28 3 55 7 59 17 17 28 -6 33 -65z"/>
<path d="M2114 3477 c-3 -8 -4 -47 -2 -88 3 -68 5 -74 26 -77 27 -4 35 14 22
53 -9 28 -10 28 -4 -8 4 -34 3 -38 -13 -35 -15 3 -18 14 -18 78 0 60 3 75 15
75 10 0 14 -8 12 -21 -5 -34 23 -36 47 -3 12 16 29 29 37 29 13 0 12 -5 -5
-26 -26 -33 -26 -62 -1 -94 21 -27 26 -50 11 -50 -9 0 -32 26 -58 66 -10 15
-10 13 -1 -14 17 -53 78 -81 78 -35 0 8 -9 28 -21 44 -21 30 -19 58 6 79 23
19 18 40 -8 40 -25 0 -57 -28 -57 -49 0 -7 -5 -9 -10 -6 -6 4 -10 12 -9 18 3
28 -2 37 -21 37 -11 0 -23 -6 -26 -13z"/>
<path d="M3418 3455 c-9 -19 -9 -28 0 -37 7 -7 12 -31 12 -55 0 -36 4 -45 24
-55 14 -6 32 -8 40 -5 20 8 21 36 1 43 -17 7 -21 64 -5 64 14 0 12 32 -4 53
-20 25 -54 21 -68 -8z m61 -7 c10 -16 10 -23 2 -26 -18 -6 -13 -73 7 -88 16
-12 16 -13 -1 -19 -26 -11 -47 13 -47 54 0 20 -4 43 -9 50 -11 17 4 51 22 51
7 0 18 -10 26 -22z"/>
<path d="M4884 3463 c-4 -10 -6 -22 -5 -28 2 -5 7 -34 12 -64 5 -30 14 -58 20
-61 6 -4 42 -7 81 -8 56 0 74 4 89 19 10 10 19 25 19 33 0 19 -27 46 -46 46
-8 0 -14 4 -14 10 0 5 10 9 22 7 33 -3 36 29 4 37 -38 9 -73 -3 -80 -27 -10
-39 -7 -48 24 -58 42 -15 29 -27 -22 -20 -34 5 -44 11 -46 27 -2 11 4 27 13
34 20 17 19 33 -3 53 -24 22 -58 22 -68 0z m60 -12 c15 -16 15 -19 1 -31 -16
-13 -20 -47 -7 -66 4 -7 29 -13 57 -15 41 -3 50 -1 53 14 2 9 -3 17 -10 17 -8
0 -22 6 -32 13 -38 28 6 77 54 62 26 -8 17 -25 -10 -18 -15 4 -20 0 -20 -15 0
-13 9 -22 25 -26 34 -9 42 -32 20 -56 -20 -22 -50 -25 -89 -10 -17 6 -26 6
-26 0 0 -17 -39 -11 -48 8 -11 21 -21 112 -15 130 7 18 27 15 47 -7z"/>
<path d="M5168 3455 c-8 -19 -8 -31 0 -50 7 -14 12 -39 12 -55 0 -46 18 -50
183 -41 26 1 27 3 27 56 0 42 -5 60 -20 75 -20 20 -56 26 -75 12 -17 -12 -41
-47 -27 -38 6 4 12 2 12 -4 0 -7 6 -8 19 0 12 6 22 6 25 1 4 -5 -7 -12 -23
-16 -33 -7 -45 -27 -35 -59 6 -21 6 -21 -15 1 -21 23 -29 73 -11 73 14 0 12
32 -4 53 -20 25 -54 21 -68 -8z m61 -7 c10 -16 10 -23 2 -26 -18 -6 -13 -73 7
-88 16 -12 16 -13 -1 -19 -23 -9 -47 12 -47 41 0 12 -5 35 -10 49 -7 18 -7 33
0 46 14 25 32 24 49 -3z m133 -15 c13 -11 18 -30 18 -63 l0 -47 -42 -7 c-34
-6 -45 -3 -55 10 -17 23 -16 29 4 49 9 9 26 15 39 12 19 -3 21 -1 14 17 -5 14
-15 20 -29 19 -12 -2 -21 1 -21 5 0 26 45 30 72 5z"/>
<path d="M5305 3360 c-8 -12 20 -24 35 -15 5 3 10 10 10 16 0 12 -37 12 -45
-1z m32 -6 c-3 -3 -12 -4 -19 -1 -8 3 -5 6 6 6 11 1 17 -2 13 -5z"/>
<path d="M2721 3459 c-62 -12 -66 -18 -55 -86 8 -51 12 -58 34 -61 14 -2 30
-8 35 -14 7 -6 -6 -7 -37 -3 -37 6 -48 4 -48 -6 0 -25 14 -34 57 -37 59 -5 85
11 81 51 -3 29 -7 33 -43 38 -27 4 -32 7 -14 8 35 1 45 16 53 74 8 52 11 51
-63 36z m52 -36 c-6 -41 -26 -63 -56 -63 -32 0 -13 -25 24 -30 37 -5 50 -30
29 -55 -16 -19 -71 -19 -96 0 -17 13 -15 14 29 8 39 -5 47 -3 47 10 0 10 -13
20 -32 25 -30 7 -34 13 -42 56 -11 63 -5 68 96 85 4 0 4 -16 1 -36z"/>
<path d="M2700 3400 c0 -13 7 -20 20 -20 13 0 20 7 20 20 0 13 -7 20 -20 20
-13 0 -20 -7 -20 -20z m30 0 c0 -5 -4 -10 -10 -10 -5 0 -10 5 -10 10 0 6 5 10
10 10 6 0 10 -4 10 -10z"/>
<path d="M2541 3451 c-8 -5 -12 -19 -9 -35 3 -15 1 -29 -3 -32 -5 -3 -9 -19
-9 -35 0 -21 7 -32 23 -40 27 -12 102 2 101 19 -1 7 -2 31 -3 55 -1 23 -5 48
-9 55 -11 16 -73 26 -91 13z m68 -10 c20 -13 32 -111 14 -118 -31 -12 -76 -7
-87 10 -16 24 4 52 38 52 18 -1 26 4 26 16 0 19 -23 31 -45 23 -15 -6 -21 7
-8 19 9 10 45 8 62 -2z m-24 -31 c4 -6 -6 -10 -22 -10 -22 0 -25 2 -13 10 19
12 27 12 35 0z"/>
<path d="M2560 3355 c0 -8 9 -15 20 -15 11 0 20 7 20 15 0 8 -9 15 -20 15 -11
0 -20 -7 -20 -15z"/>
<path d="M2824 3446 c-24 -17 -36 -70 -23 -104 17 -45 109 -56 109 -13 0 17 4
18 38 10 51 -12 52 -11 52 9 0 9 -10 22 -22 27 -46 20 -26 81 23 73 31 -4 38
-29 8 -26 -36 4 -35 -25 1 -39 20 -7 30 -18 30 -32 0 -28 -34 -43 -83 -37
l-42 5 40 -10 c58 -15 95 1 95 41 0 25 -6 34 -32 45 -32 14 -31 19 5 16 11 -2
17 5 17 18 0 26 -42 38 -76 22 -34 -15 -34 -67 1 -83 27 -12 35 -34 9 -24 -9
3 -24 6 -33 6 -14 0 -18 8 -17 38 1 20 -4 43 -11 50 -19 20 -66 25 -89 8z m63
-4 c15 -9 34 -58 26 -66 -4 -3 -21 -6 -40 -6 -21 0 -33 -5 -33 -14 0 -17 25
-27 46 -19 12 4 15 2 12 -8 -9 -26 -54 -22 -77 7 -41 53 13 140 66 106z m-7
-92 c0 -5 -4 -10 -9 -10 -6 0 -13 5 -16 10 -3 6 1 10 9 10 9 0 16 -4 16 -10z"/>
<path d="M2853 3423 c-21 -7 -15 -33 7 -33 11 0 20 6 20 14 0 18 -11 25 -27
19z m17 -13 c0 -5 -5 -10 -11 -10 -5 0 -7 5 -4 10 3 6 8 10 11 10 2 0 4 -4 4
-10z"/>
<path d="M3301 3451 c-8 -5 -12 -19 -9 -35 3 -15 1 -29 -3 -32 -5 -3 -9 -18
-9 -34 0 -38 26 -52 85 -43 41 5 46 8 41 27 -3 12 -6 37 -6 56 0 19 -4 41 -8
48 -11 16 -73 26 -91 13z m68 -10 c11 -7 34 -109 27 -118 -1 -1 -21 -3 -45 -5
-32 -2 -46 1 -55 15 -16 24 4 52 38 52 18 -1 26 4 26 16 0 19 -23 31 -45 23
-15 -6 -21 7 -8 19 9 10 45 8 62 -2z m-24 -31 c4 -6 -6 -10 -22 -10 -22 0 -25
2 -13 10 19 12 27 12 35 0z"/>
<path d="M3320 3355 c0 -8 9 -15 20 -15 11 0 20 7 20 15 0 8 -9 15 -20 15 -11
0 -20 -7 -20 -15z"/>
<path d="M3708 3453 l-38 -4 0 -70 c0 -67 1 -69 24 -69 23 0 25 5 28 48 4 61
22 61 26 -1 3 -43 5 -48 25 -45 21 3 22 7 18 68 -2 36 -4 66 -5 66 -6 6 -48
10 -78 7z m58 -11 c17 -10 22 -114 7 -119 -9 -3 -13 7 -13 34 0 46 -13 68 -34
60 -11 -5 -16 -19 -16 -52 0 -33 -4 -45 -15 -45 -12 0 -15 13 -15 59 l0 60 33
4 c17 2 34 4 37 5 3 1 10 -2 16 -6z"/>
<path d="M3843 3450 c-13 -5 -23 -14 -23 -20 0 -6 -4 -9 -8 -6 -18 11 5 -97
23 -110 35 -26 95 -15 95 18 0 14 -6 19 -22 18 -44 -4 -53 3 -13 9 36 5 40 9
43 38 5 49 -41 75 -95 53z m71 -19 c24 -26 17 -55 -14 -59 -46 -6 -54 -11 -40
-27 8 -10 21 -13 37 -8 19 4 24 2 21 -8 -2 -8 -18 -15 -35 -17 -56 -6 -86 75
-43 118 25 25 52 25 74 1z"/>
<path d="M3857 3424 c-16 -16 -6 -34 19 -34 19 0 25 5 22 17 -3 19 -29 29 -41
17z m28 -14 c3 -5 -1 -10 -10 -10 -9 0 -13 5 -10 10 3 6 8 10 10 10 2 0 7 -4
10 -10z"/>
<path d="M4031 3451 c-19 -12 -6 -45 15 -37 9 3 21 3 26 0 6 -4 -4 -12 -23
-18 -27 -9 -35 -17 -37 -40 -2 -16 1 -33 7 -39 16 -16 202 -17 229 0 34 21 30
62 -8 76 -16 6 -30 15 -30 19 0 11 8 10 31 -2 16 -9 19 -7 19 14 0 33 -49 45
-85 22 -34 -22 -32 -53 5 -74 39 -22 38 -33 -2 -27 -29 4 -30 4 -8 -4 40 -14
50 -12 50 9 0 11 -6 20 -13 20 -8 0 -22 9 -32 20 -18 20 -18 21 2 42 16 15 28
19 47 14 14 -3 26 -11 26 -16 0 -6 -11 -8 -25 -4 -38 10 -34 -28 5 -43 60 -22
20 -80 -48 -68 l-39 6 -6 57 c-4 37 -12 61 -23 69 -20 15 -63 17 -83 4z m79
-16 c7 -9 15 -37 18 -64 l4 -48 -42 -7 c-46 -7 -70 4 -70 34 0 25 25 42 52 37
l23 -4 -22 -8 c-28 -9 -30 -35 -4 -35 12 0 20 9 23 23 7 34 -9 69 -29 66 -28
-2 -35 0 -28 11 10 15 61 12 75 -5z"/>
<path d="M4378 3452 l-38 -3 0 -70 c0 -67 1 -69 25 -69 22 0 25 4 25 34 0 18
9 45 20 59 34 43 27 54 -32 49z m28 -38 c-10 -7 -20 -31 -23 -53 -4 -25 -11
-41 -19 -41 -10 0 -14 16 -14 59 l0 60 33 3 c37 3 48 -10 23 -28z"/>
<path d="M4460 3442 c-20 -16 -25 -29 -25 -66 0 -25 6 -51 13 -58 20 -20 91
-16 108 7 17 23 18 85 2 108 -21 27 -70 32 -98 9z m80 -12 c39 -39 12 -120
-40 -120 -27 0 -60 35 -60 64 0 31 36 76 61 76 10 0 28 -9 39 -20z"/>
<path d="M4480 3380 c0 -33 3 -40 20 -40 13 0 22 9 26 25 8 34 -1 55 -26 55
-17 0 -20 -6 -20 -40z m35 0 c0 -13 -6 -25 -12 -27 -9 -3 -13 6 -13 27 0 21 4
30 13 28 6 -3 12 -15 12 -28z"/>
<path d="M4763 3445 c-33 -23 -33 -107 -1 -129 29 -20 58 -20 87 0 20 15 23
23 19 66 -3 27 -9 53 -14 58 -19 19 -69 21 -91 5z m77 -15 c39 -39 16 -120
-33 -120 -33 0 -57 29 -57 68 0 64 50 92 90 52z"/>
<path d="M4780 3380 c0 -37 2 -41 23 -38 18 2 22 9 22 38 0 29 -4 36 -22 38
-21 3 -23 -1 -23 -38z m35 0 c0 -13 -6 -25 -12 -27 -9 -3 -13 6 -13 27 0 21 4
30 13 28 6 -3 12 -15 12 -28z"/>
<path d="M5579 3453 c-33 -8 -48 -72 -28 -117 20 -44 109 -47 109 -4 0 16 -5
19 -24 14 -14 -3 -28 -2 -31 4 -4 6 8 10 29 10 34 0 36 2 36 34 0 50 -37 74
-91 59z m63 -20 c10 -9 18 -27 18 -40 0 -20 -5 -23 -35 -23 -23 0 -35 -5 -35
-14 0 -17 25 -27 46 -19 12 4 15 2 12 -8 -8 -24 -54 -22 -77 2 -27 29 -27 69
-1 97 25 26 47 28 72 5z"/>
<path d="M5592 3417 c-14 -16 -6 -27 20 -27 13 0 18 6 16 17 -4 22 -22 27 -36
10z m23 -7 c3 -5 -1 -10 -10 -10 -9 0 -13 5 -10 10 3 6 8 10 10 10 2 0 7 -4
10 -10z"/>
<path d="M2321 3433 c0 -10 6 -40 13 -68 10 -46 13 -50 41 -50 27 0 30 3 32
35 1 34 1 34 -5 5 -4 -17 -15 -31 -25 -33 -18 -4 -30 18 -41 81 -5 29 -4 37 8
37 10 0 16 -13 19 -37 l4 -38 1 43 c2 39 0 42 -23 42 -18 0 -25 -5 -24 -17z"/>
<path d="M2388 3420 c-3 -16 -1 -30 4 -30 4 0 8 12 8 26 0 37 33 28 41 -11 l5
-30 5 36 c4 34 3 35 -27 37 -28 2 -32 -1 -36 -28z"/>
<path d="M2464 3415 c-3 -20 -4 -39 0 -42 3 -4 6 3 6 15 0 28 10 52 22 52 10
0 3 -74 -9 -106 -10 -27 -41 -16 -48 17 -9 40 -17 32 -9 -9 5 -27 11 -32 34
-32 26 0 29 4 39 50 16 74 14 90 -9 90 -14 0 -21 -9 -26 -35z"/>
<path d="M1447 3424 c-4 -4 -7 -20 -7 -36 l0 -29 63 3 c60 3 62 4 65 31 3 27
2 28 -40 26 -24 -1 -50 1 -59 5 -8 4 -18 3 -22 0z m51 -33 c10 -14 12 -14 10
-1 -2 10 7 16 25 18 22 3 27 -1 27 -17 0 -19 -6 -21 -55 -21 -52 0 -55 1 -55
25 0 19 4 23 18 18 9 -4 23 -14 30 -22z"/>
<path d="M377 3283 c-4 -3 -7 -39 -7 -80 0 -71 1 -74 28 -84 36 -14 131 -6
143 12 10 16 12 119 3 143 -5 13 -22 16 -83 16 -43 0 -81 -3 -84 -7z m161 -73
c4 -76 -8 -90 -76 -90 -71 0 -82 11 -82 84 0 34 3 66 7 70 4 4 39 5 78 4 l70
-3 3 -65z"/>
<path d="M416 3244 c-9 -22 -7 -94 2 -94 4 0 7 21 7 47 0 47 1 48 33 51 39 4
44 -15 5 -20 -22 -2 -29 -9 -31 -31 -3 -26 -1 -28 24 -25 15 2 29 9 30 16 1 7
0 8 -3 2 -9 -18 -43 -11 -43 9 0 15 7 19 31 19 30 -1 31 -3 25 -36 -4 -25 -2
-32 6 -24 6 6 8 28 4 56 -7 45 -8 46 -46 46 -25 0 -40 -5 -44 -16z"/>
<path d="M3851 3240 c-18 -11 -10 -41 14 -50 18 -7 21 -4 23 20 2 29 -16 44
-37 30z m24 -30 c-5 -8 -11 -8 -17 -2 -6 6 -7 16 -3 22 5 8 11 8 17 2 6 -6 7
-16 3 -22z"/>
<path d="M4525 3240 c-4 -6 -4 -22 -1 -36 6 -21 9 -23 27 -11 11 7 18 20 17
32 -3 22 -32 32 -43 15z m30 -30 c-5 -8 -11 -8 -17 -2 -6 6 -7 16 -3 22 5 8
11 8 17 2 6 -6 7 -16 3 -22z"/>
<path d="M580 3219 c0 -42 11 -47 110 -50 l95 -4 3 28 c3 25 1 27 -35 29 -93
4 -110 6 -140 13 -30 7 -33 5 -33 -16z m100 -4 c96 -3 102 -5 98 -22 -2 -14
-14 -16 -68 -14 -117 5 -115 4 -118 29 -3 20 -1 22 25 15 15 -4 44 -7 63 -8z"/>
<path d="M2186 3230 c-66 -5 -70 -7 -88 -38 -10 -18 -15 -39 -11 -45 4 -7 10
-34 13 -62 4 -42 8 -50 28 -53 20 -3 22 0 22 47 0 44 3 51 20 51 17 0 20 -7
20 -51 0 -47 2 -50 23 -47 19 3 22 10 25 51 4 54 22 65 22 13 0 -47 9 -66 31
-66 10 0 19 3 19 8 7 114 1 146 -26 141 -5 -1 -18 0 -29 1 -14 2 -11 4 10 9
37 8 46 37 13 42 -13 2 -54 2 -92 -1z m98 -21 c-3 -5 -16 -9 -30 -9 -29 0 -33
-29 -4 -31 11 -1 25 -3 30 -4 6 -1 13 -3 18 -4 4 0 6 -27 5 -58 -1 -41 -5 -58
-15 -58 -8 0 -14 16 -16 48 -3 38 -7 47 -22 47 -15 0 -19 -9 -22 -47 -4 -66
-28 -70 -28 -4 0 50 -1 51 -30 51 -29 0 -30 -1 -30 -51 0 -64 -24 -63 -28 2
-2 24 -7 48 -11 54 -5 5 -1 24 9 40 13 23 24 31 53 33 26 2 37 -1 37 -11 0 -9
-9 -12 -30 -9 -23 3 -30 0 -30 -12 0 -25 57 -21 65 5 4 11 16 24 28 28 25 9
59 3 51 -10z m-101 -26 c-7 -2 -19 -2 -25 0 -7 3 -2 5 12 5 14 0 19 -2 13 -5z"/>
<path d="M2657 3234 c-17 -17 -5 -34 24 -34 24 0 30 4 27 18 -3 17 -38 29 -51
16z m43 -14 c0 -5 -9 -10 -20 -10 -11 0 -20 5 -20 10 0 6 9 10 20 10 11 0 20
-4 20 -10z"/>
<path d="M2880 3131 l0 -101 54 0 c30 0 58 5 61 11 10 15 23 119 14 114 -4 -3
-9 2 -13 10 -3 9 -18 15 -35 15 -23 0 -30 5 -33 23 -2 14 -11 23 -25 25 -23 3
-23 1 -23 -97z m38 61 c3 -17 10 -22 32 -22 33 0 50 -23 50 -65 0 -49 -16 -65
-65 -65 l-45 0 0 91 c0 68 3 90 13 87 6 -3 13 -14 15 -26z"/>
<path d="M2920 3105 c0 -38 25 -59 41 -34 17 25 6 64 -18 67 -20 3 -23 -1 -23
-33z m35 -3 c0 -31 -19 -28 -23 4 -3 18 0 25 10 22 7 -3 13 -14 13 -26z"/>
<path d="M3696 3208 c-3 -13 -4 -41 -2 -63 1 -22 3 -57 4 -78 2 -34 5 -38 25
-35 19 3 22 10 25 51 2 26 7 47 12 47 5 0 10 -21 12 -47 3 -41 6 -48 26 -51
21 -3 22 0 22 60 0 68 -10 88 -46 88 -16 0 -24 7 -26 23 -4 32 -46 36 -52 5z
m42 -16 c2 -15 10 -22 26 -22 34 0 46 -19 46 -78 0 -68 -24 -67 -28 1 -3 39
-6 47 -23 47 -16 0 -19 -7 -19 -44 0 -39 -13 -66 -25 -54 -7 7 -16 159 -10
169 10 16 30 5 33 -19z"/>
<path d="M4384 3216 c-3 -7 -4 -51 -2 -97 3 -78 4 -84 26 -87 19 -3 22 1 21
30 -2 31 -2 31 -6 5 -3 -16 -10 -26 -16 -24 -17 5 -16 169 0 174 8 3 13 -12
16 -44 l3 -48 2 53 c2 46 0 52 -18 52 -11 0 -23 -6 -26 -14z"/>
<path d="M4596 3214 c-9 -25 -7 -130 4 -158 7 -19 17 -26 36 -26 24 0 26 3 19
28 -4 15 -9 60 -12 100 -4 61 -7 72 -23 72 -10 0 -21 -7 -24 -16z m36 -66 c3
-40 8 -81 12 -90 11 -25 -20 -24 -34 1 -11 22 -14 144 -3 154 16 16 21 3 25
-65z"/>
<path d="M4670 3153 c0 -108 6 -123 42 -123 25 0 29 3 22 18 -5 9 -10 54 -12
100 -3 79 -4 82 -28 82 -23 0 -24 -2 -24 -77z m40 -11 c0 -47 5 -83 12 -90 9
-9 7 -12 -9 -12 -28 0 -33 17 -33 106 0 59 3 74 15 74 12 0 15 -15 15 -78z"/>
<path d="M4968 3208 c-2 -16 -11 -24 -28 -26 -14 -2 -30 -8 -36 -13 -17 -14
-24 -76 -12 -110 10 -29 12 -30 67 -27 l56 3 3 98 3 97 -25 0 c-18 0 -25 -6
-28 -22z m40 -75 l-3 -88 -46 -3 c-40 -3 -47 0 -57 22 -13 28 -6 80 12 95 6 5
22 11 36 13 17 2 26 10 28 26 2 12 10 22 18 22 12 0 14 -16 12 -87z"/>
<path d="M4934 3137 c-10 -28 0 -72 18 -75 21 -4 36 43 21 66 -14 22 -32 26
-39 9z m34 -38 c-1 -13 -7 -23 -13 -22 -13 3 -18 30 -11 50 10 24 29 1 24 -28z"/>
<path d="M4113 3183 c-44 -6 -55 -23 -51 -85 3 -50 5 -53 36 -63 17 -5 32 -13
32 -18 0 -9 -29 -5 -65 9 -13 5 -16 2 -13 -17 4 -33 62 -48 104 -28 34 17 45
57 19 75 -12 9 -14 17 -7 31 5 10 13 37 17 61 7 46 10 45 -72 35z m64 -20 c-3
-10 -8 -30 -11 -45 -5 -23 -12 -28 -36 -28 -44 0 -38 -26 8 -37 45 -11 50 -40
10 -62 -30 -17 -78 -7 -86 17 -3 11 0 12 16 3 34 -18 62 -14 62 9 0 13 -7 20
-19 20 -42 0 -51 11 -51 60 0 51 10 65 50 73 52 9 62 8 57 -10z m-32 -93 c-3
-5 -12 -7 -20 -3 -21 7 -19 13 6 13 11 0 18 -4 14 -10z"/>
<path d="M4100 3124 c0 -33 33 -30 38 4 3 17 -2 22 -17 22 -16 0 -21 -6 -21
-26z m30 7 c0 -6 -4 -13 -10 -16 -5 -3 -10 1 -10 9 0 9 5 16 10 16 6 0 10 -4
10 -9z"/>
<path d="M1960 3160 c-26 -26 -27 -90 -2 -113 29 -27 88 -22 108 8 18 28 14
85 -7 111 -17 21 -76 17 -99 -6z m94 -12 c47 -66 -27 -145 -86 -91 -39 35 -10
113 42 113 18 0 34 -8 44 -22z"/>
<path d="M1986 3124 c-10 -26 4 -64 24 -64 22 0 34 31 25 60 -8 24 -40 27 -49
4z m39 -24 c0 -13 -5 -25 -12 -27 -13 -5 -27 32 -18 47 11 18 30 5 30 -20z"/>
<path d="M2357 3167 c-26 -18 -33 -81 -13 -112 13 -19 25 -25 54 -25 20 0 44
4 52 10 8 5 19 5 25 0 11 -9 37 -13 73 -11 16 1 22 7 22 24 0 21 -4 23 -31 19
-22 -3 -30 -1 -25 7 4 6 20 11 37 11 25 0 29 4 29 29 0 16 -7 37 -16 45 -17
18 -79 22 -89 6 -4 -7 -12 -7 -25 0 -26 14 -73 13 -93 -3z m73 -12 c0 -9 -9
-15 -24 -15 -16 0 -26 -7 -29 -22 -8 -29 9 -58 33 -58 11 0 20 -4 20 -10 0
-16 -52 -11 -72 7 -39 35 -10 113 43 113 19 0 29 -5 29 -15z m124 -1 c28 -27
20 -52 -16 -56 -46 -4 -53 -38 -9 -38 32 0 44 -19 14 -21 -50 -4 -83 21 -83
60 0 59 57 92 94 55z m-98 -49 c-1 -30 -4 -55 -8 -55 -5 0 -8 5 -8 10 0 6 -8
10 -19 10 -10 0 -24 6 -30 14 -15 18 -3 46 20 46 11 0 22 7 25 15 12 30 20 14
20 -40z"/>
<path d="M2499 3143 c0 -5 -2 -15 -4 -24 -2 -12 3 -15 21 -11 30 6 34 42 4 42
-11 0 -20 -3 -21 -7z m31 -13 c0 -5 -4 -10 -10 -10 -5 0 -10 5 -10 10 0 6 5
10 10 10 6 0 10 -4 10 -10z"/>
<path d="M2744 3166 c-23 -17 -27 -94 -5 -119 19 -23 83 -22 104 1 23 26 22
94 -1 115 -23 21 -71 22 -98 3z m88 -13 c22 -20 23 -70 1 -95 -23 -25 -68 -23
-87 4 -46 66 28 144 86 91z"/>
<path d="M2767 3118 c-7 -26 8 -58 28 -58 16 0 30 42 21 65 -8 23 -43 18 -49
-7z m39 -3 c4 -8 3 -23 0 -32 -6 -15 -8 -15 -22 -2 -8 9 -12 23 -8 32 8 21 23
22 30 2z"/>
<path d="M3043 3174 c-7 -3 -13 -21 -13 -40 0 -28 5 -37 28 -46 l27 -12 -33
-4 c-24 -2 -32 -8 -30 -20 4 -18 42 -30 76 -24 26 5 47 46 36 71 -4 9 -7 19
-6 22 1 4 -7 5 -17 2 -10 -3 -22 0 -25 6 -5 7 3 11 19 11 20 0 26 4 23 18 -3
17 -58 27 -85 16z m72 -14 c4 -6 -5 -10 -19 -10 -34 0 -34 -25 1 -42 33 -16
37 -28 20 -52 -15 -21 -62 -25 -80 -7 -8 8 -3 11 21 11 39 0 44 26 7 40 -24 9
-35 47 -18 63 10 11 61 8 68 -3z"/>
<path d="M3282 3168 c-16 -16 -16 -170 0 -186 16 -16 48 3 48 28 0 15 7 20 30
20 35 0 50 23 50 75 0 60 -14 75 -68 75 -27 0 -53 -5 -60 -12z m108 -17 c25
-47 5 -111 -35 -111 -16 0 -28 -9 -37 -27 -7 -16 -18 -28 -23 -28 -10 0 -20
148 -11 172 3 8 22 13 50 13 35 0 48 -5 56 -19z"/>
<path d="M3320 3100 c0 -33 3 -40 20 -40 13 0 22 9 26 25 8 34 -1 55 -26 55
-17 0 -20 -6 -20 -40z m35 0 c0 -13 -6 -25 -12 -27 -9 -3 -13 6 -13 27 0 21 4
30 13 28 6 -3 12 -15 12 -28z"/>
<path d="M3427 3174 c-12 -12 -8 -109 6 -128 10 -13 24 -17 62 -14 l50 3 0 70
c0 63 -2 70 -20 70 -17 0 -21 -8 -25 -48 -6 -61 -24 -61 -30 0 -5 46 -24 66
-43 47z m33 -49 c0 -43 9 -65 26 -65 14 0 21 21 26 73 5 51 23 28 23 -30 l0
-58 -38 -3 c-21 -2 -45 2 -53 9 -14 12 -20 99 -8 112 13 13 24 -5 24 -38z"/>
<path d="M3582 3168 c-6 -6 -12 -24 -12 -38 0 -20 8 -30 33 -43 l32 -16 -32 0
c-25 -1 -33 -5 -33 -20 0 -23 43 -33 79 -18 15 5 28 10 31 9 3 0 4 15 2 34 -2
19 -8 34 -14 34 -5 0 -6 5 -2 12 4 7 3 8 -4 4 -7 -4 -20 -2 -29 3 -15 9 -14
10 10 11 22 0 28 4 25 18 -4 21 -67 29 -86 10z m73 -8 c4 -6 -5 -10 -19 -10
-36 0 -33 -25 4 -40 18 -7 30 -20 30 -31 0 -25 -40 -50 -68 -42 -32 8 -27 23
8 23 19 0 30 5 30 14 0 7 -13 19 -30 26 -31 13 -39 37 -18 58 15 15 54 16 63
2z"/>
<path d="M3914 3165 c-3 -7 -4 -39 -2 -71 3 -52 6 -59 25 -62 20 -3 22 2 25
44 4 68 28 71 28 4 0 -48 2 -51 23 -48 19 3 22 10 25 61 2 34 -2 65 -9 73 -14
17 -109 17 -115 -1z m105 -9 c16 -18 10 -108 -6 -114 -9 -2 -13 11 -13 48 0
48 -2 51 -22 48 -20 -3 -23 -10 -26 -51 -4 -63 -26 -58 -30 8 -2 26 -1 53 1
60 7 17 82 18 96 1z"/>
<path d="M4266 3165 c-28 -29 -16 -60 31 -81 l28 -12 -37 -1 c-37 -1 -52 -21
-27 -36 17 -11 79 -8 94 5 17 14 20 56 5 65 -6 4 -8 10 -5 15 3 4 -3 6 -14 3
-10 -3 -22 0 -25 6 -5 7 3 11 19 11 20 0 26 4 23 18 -4 24 -70 29 -92 7z m79
-5 c4 -6 -5 -10 -19 -10 -34 0 -34 -27 -1 -40 30 -12 42 -35 26 -54 -17 -20
-43 -25 -71 -13 -25 10 -25 10 8 16 41 8 45 22 9 39 -37 18 -45 41 -22 58 22
16 61 18 70 4z"/>
<path d="M4456 3158 c-25 -36 -18 -46 9 -13 24 30 34 20 15 -16 -8 -14 -7 -27
5 -48 18 -37 19 -41 1 -41 -7 0 -19 14 -26 30 -7 17 -15 28 -18 26 -2 -3 1
-19 8 -36 10 -23 19 -30 41 -30 27 0 28 2 18 27 -6 15 -15 33 -21 41 -8 9 -8
16 0 24 17 17 15 58 -2 58 -8 0 -22 -10 -30 -22z"/>
<path d="M4757 3162 c-19 -21 -22 -74 -6 -103 23 -43 109 -44 109 -1 0 15 -6
18 -30 14 -18 -3 -30 0 -30 7 0 6 16 11 35 11 32 0 35 3 35 28 0 16 -8 36 -18
45 -25 22 -75 21 -95 -1z m85 -9 c28 -25 23 -53 -9 -53 -63 0 -69 -35 -8 -42
l30 -3 -24 -14 c-21 -11 -27 -11 -50 6 -17 13 -27 31 -29 52 -6 59 49 92 90
54z"/>
<path d="M4787 3144 c-4 -4 -7 -15 -7 -25 0 -15 4 -17 23 -10 12 5 22 14 22
22 0 15 -27 24 -38 13z m23 -14 c0 -5 -5 -10 -11 -10 -5 0 -7 5 -4 10 3 6 8
10 11 10 2 0 4 -4 4 -10z"/>
<path d="M2657 3164 c-4 -4 -7 -35 -7 -69 0 -33 -5 -66 -11 -72 -16 -16 -4
-43 19 -43 34 0 45 27 46 108 1 70 -1 77 -19 80 -12 2 -24 0 -28 -4z m38 -75
c-2 -72 -20 -110 -45 -94 -8 5 -9 10 -1 18 6 6 11 42 11 79 0 59 2 68 18 68
17 0 19 -8 17 -71z"/>
<path d="M3840 3100 c0 -68 1 -70 25 -70 24 0 25 2 25 70 0 68 -1 70 -25 70
-24 0 -25 -2 -25 -70z m40 0 c0 -47 -3 -60 -15 -60 -12 0 -15 13 -15 60 0 47
3 60 15 60 12 0 15 -13 15 -60z"/>
<path d="M4527 3163 c-9 -8 -9 -96 -1 -117 3 -9 15 -16 25 -16 17 0 19 8 19
70 0 61 -2 70 -18 70 -10 0 -22 -3 -25 -7z m33 -64 c0 -81 -24 -77 -28 4 -2
46 0 57 13 57 12 0 15 -13 15 -61z"/>
<path d="M374 3077 c-3 -8 -4 -47 -2 -88 l3 -74 73 -3 c46 -2 79 2 88 9 18 15
19 140 2 157 -17 17 -157 16 -164 -1z m154 -9 c17 -17 16 -123 -2 -137 -9 -7
-40 -11 -78 -9 l-63 3 -3 64 c-2 35 -1 70 2 77 7 18 127 19 144 2z"/>
<path d="M411 3046 c-7 -8 -11 -34 -9 -58 l3 -43 51 -3 c59 -3 68 6 58 68 -5
28 -12 40 -28 44 -36 10 -63 7 -75 -8z m77 -4 c7 -5 13 -26 15 -48 l2 -39 -45
0 c-44 0 -45 1 -48 33 -2 19 -1 40 2 48 6 15 53 19 74 6z"/>
<path d="M436 2991 c-11 -4 -15 -10 -10 -13 5 -2 20 1 34 8 26 14 8 18 -24 5z"/>
<path d="M3148 3040 c-4 -46 12 -69 32 -45 6 8 13 29 13 47 2 27 -2 34 -19 36
-19 3 -22 -3 -26 -38z m37 19 c8 -12 -14 -71 -24 -64 -10 5 -1 75 10 75 4 0
11 -5 14 -11z"/>
<path d="M576 3014 c-13 -34 4 -42 107 -46 104 -4 148 1 154 18 8 24 -18 32
-134 36 -97 4 -123 2 -127 -8z m242 -10 c7 -2 10 -9 6 -15 -4 -8 -9 -7 -15 2
-7 11 -9 11 -9 -1 0 -13 -1 -13 -10 0 -9 13 -10 13 -10 0 0 -12 -15 -14 -92
-12 -91 4 -116 11 -105 30 6 8 207 6 235 -4z"/>
<path d="M320 3000 c0 -15 5 -20 18 -18 9 2 17 10 17 18 0 8 -8 16 -17 18 -13
2 -18 -3 -18 -18z m30 0 c0 -5 -4 -10 -10 -10 -5 0 -10 5 -10 10 0 6 5 10 10
10 6 0 10 -4 10 -10z"/>
<path d="M2944 2955 c-4 -9 -2 -21 4 -27 16 -16 47 -5 47 17 0 26 -42 34 -51
10z m41 -4 c7 -12 -12 -24 -25 -16 -11 7 -4 25 10 25 5 0 11 -4 15 -9z"/>
<path d="M4277 2963 c-4 -3 -7 -15 -7 -25 0 -21 45 -26 52 -5 11 28 -24 52
-45 30z m38 -13 c3 -6 -1 -13 -10 -16 -19 -8 -30 0 -20 15 8 14 22 14 30 1z"/>
<path d="M2393 2948 c-5 -7 -10 -52 -11 -99 -2 -73 0 -88 15 -93 23 -9 35 7
30 40 -4 28 -4 28 -6 -4 0 -22 -5 -32 -13 -29 -9 2 -13 30 -13 93 0 72 3 89
15 89 12 0 15 -12 14 -50 l-2 -50 10 42 c8 32 8 46 -2 58 -15 18 -25 19 -37 3z"/>
<path d="M3472 2948 c-15 -15 -16 -136 -2 -172 7 -19 17 -26 36 -26 25 0 26 2
19 33 -4 17 -6 56 -5 85 2 83 -15 113 -48 80z m34 -71 c1 -37 5 -78 8 -92 8
-31 -18 -35 -34 -6 -11 22 -14 154 -3 165 18 17 28 -6 29 -67z"/>
<path d="M4432 2948 c-7 -7 -12 -20 -12 -30 0 -13 -8 -18 -30 -18 -35 0 -50
-23 -50 -79 0 -53 21 -72 74 -70 61 3 66 11 66 103 0 74 -9 106 -30 106 -3 0
-11 -5 -18 -12z m33 -94 l0 -89 -42 -3 c-49 -3 -73 16 -73 59 0 44 17 69 46
69 13 0 27 7 29 15 3 8 7 22 10 31 3 9 11 14 18 11 8 -2 12 -30 12 -93z"/>
<path d="M4385 2850 c-9 -30 4 -60 26 -60 16 0 19 7 19 40 0 33 -3 40 -19 40
-11 0 -23 -9 -26 -20z m35 -20 c0 -31 -16 -41 -26 -15 -8 19 2 45 16 45 5 0
10 -13 10 -30z"/>
<path d="M4811 2943 c-5 -10 -6 -56 -2 -103 6 -82 7 -85 32 -88 l27 -3 -5 93
c-2 51 -6 99 -8 106 -6 18 -33 15 -44 -5z m41 -96 c2 -74 1 -87 -12 -85 -19 4
-34 156 -17 176 18 22 25 0 29 -91z"/>
<path d="M3164 2913 c-8 -13 -24 -16 -77 -14 l-67 2 0 -70 c0 -72 6 -86 34
-75 11 4 16 19 16 49 0 24 5 47 10 50 6 4 10 -13 10 -43 0 -36 4 -52 16 -56
27 -11 34 3 34 72 0 78 19 75 27 -5 7 -59 17 -73 54 -73 37 0 45 15 19 37 -24
21 -26 45 -4 78 14 22 14 25 -5 44 -25 25 -52 27 -67 4z m55 -12 c17 -17 18
-21 5 -32 -19 -15 -18 -75 1 -83 21 -8 19 -26 -3 -26 -28 0 -42 20 -42 60 0
19 -4 41 -9 49 -9 14 6 51 21 51 5 0 17 -9 27 -19z m-91 -80 c2 -48 0 -62 -10
-59 -8 3 -14 25 -16 57 -3 43 -6 52 -20 49 -12 -2 -18 -17 -22 -52 -8 -78 -30
-71 -30 9 l0 66 48 -3 47 -3 3 -64z"/>
<path d="M2552 2900 c-43 -18 -52 -98 -15 -135 25 -26 103 -17 103 11 0 9 -11
14 -29 14 -17 0 -33 5 -36 10 -4 6 8 10 29 10 34 0 36 2 36 34 0 48 -41 74
-88 56z m56 -16 c13 -9 22 -26 22 -41 0 -23 -3 -25 -35 -21 -32 4 -36 2 -33
-16 2 -15 13 -22 38 -26 32 -5 33 -6 12 -14 -35 -12 -67 0 -80 29 -17 38 -15
53 13 80 28 29 33 30 63 9z"/>
<path d="M2560 2855 c0 -8 9 -15 20 -15 11 0 20 7 20 15 0 8 -9 15 -20 15 -11
0 -20 -7 -20 -15z"/>
<path d="M2791 2902 c-13 -2 -26 -12 -28 -23 -3 -10 -9 -19 -13 -19 -5 0 -6 9
-3 20 5 18 0 20 -41 20 l-47 0 3 -72 c3 -65 5 -73 23 -73 14 0 21 8 23 25 5
46 12 70 21 70 14 0 80 -44 81 -53 0 -4 -11 -5 -25 -1 -18 4 -27 1 -31 -11 -9
-22 12 -35 56 -35 43 0 60 15 60 52 0 23 -7 32 -32 43 l-33 14 28 1 c20 0 27
5 27 19 0 20 -27 29 -69 23z m59 -23 c0 -5 -11 -9 -25 -9 -35 0 -31 -23 5 -37
32 -12 40 -39 18 -61 -14 -14 -57 -15 -78 -2 -16 10 -11 12 30 14 14 1 25 7
25 14 0 7 -11 18 -25 25 -34 17 -39 54 -9 66 26 9 59 3 59 -10z m-110 1 c0 -5
-7 -13 -15 -18 -9 -4 -19 -28 -23 -52 -11 -65 -27 -55 -30 18 l-3 62 36 0 c19
0 35 -4 35 -10z"/>
<path d="M4163 2903 c-15 -3 -23 -12 -23 -24 0 -15 7 -19 33 -20 l32 -1 -35
-12 c-30 -11 -35 -18 -38 -49 -4 -40 8 -47 81 -44 l37 1 0 62 c0 37 -5 65 -12
72 -18 13 -49 20 -75 15z m55 -19 c18 -12 22 -25 22 -67 l0 -52 -38 1 c-59 1
-62 3 -62 29 0 26 32 50 56 41 9 -3 14 1 14 14 0 16 -7 20 -30 20 -46 0 -39
18 10 29 3 0 16 -6 28 -15z"/>
<path d="M4170 2799 c0 -14 5 -19 17 -17 26 5 29 38 4 38 -15 0 -21 -6 -21
-21z m30 7 c0 -3 -4 -8 -10 -11 -5 -3 -10 -1 -10 4 0 6 5 11 10 11 6 0 10 -2
10 -4z"/>
<path d="M4912 2900 c-32 -13 -46 -56 -33 -102 13 -44 20 -46 131 -46 101 0
120 8 120 48 0 24 -6 33 -32 44 l-33 14 28 1 c35 1 39 36 5 43 -46 8 -73 -6
-76 -40 -2 -18 -8 -32 -14 -32 -6 0 -8 11 -6 25 4 20 -1 27 -27 40 -18 8 -35
15 -37 14 -1 0 -13 -4 -26 -9z m56 -16 c13 -9 22 -26 22 -41 0 -23 -3 -25 -35
-21 -32 4 -36 2 -33 -16 2 -14 13 -23 33 -27 24 -5 27 -7 12 -14 -40 -17 -87
21 -87 71 0 16 43 64 57 64 5 0 19 -7 31 -16z m142 -5 c0 -5 -11 -9 -25 -9
-35 0 -31 -23 5 -37 32 -12 40 -39 18 -61 -14 -14 -57 -15 -78 -2 -16 10 -8
13 28 10 15 -1 22 4 22 17 0 10 -10 23 -22 28 -32 14 -36 53 -7 64 26 9 59 3
59 -10z m-40 -80 c0 -10 -129 -9 -135 1 -4 6 7 10 27 10 18 0 39 4 46 9 13 8
62 -7 62 -20z"/>
<path d="M4920 2855 c0 -8 9 -15 20 -15 11 0 20 7 20 15 0 8 -9 15 -20 15 -11
0 -20 -7 -20 -15z"/>
<path d="M1936 2892 c-5 -8 18 -114 29 -131 16 -26 51 -7 61 33 5 21 4 27 -5
22 -6 -4 -11 -16 -11 -26 0 -24 -18 -36 -33 -21 -17 17 -36 110 -25 118 14 8
28 -16 29 -52 0 -16 3 -24 6 -17 3 7 2 29 -1 48 -5 24 -12 34 -26 34 -10 0
-21 -3 -24 -8z"/>
<path d="M2006 2885 c-3 -9 -5 -26 -5 -38 1 -16 3 -14 8 8 3 17 13 30 21 30 8
0 18 -13 22 -30 6 -29 6 -29 5 5 -2 27 -7 36 -23 38 -13 2 -24 -4 -28 -13z"/>
<path d="M2082 2861 l1 -36 4 33 c2 17 9 32 15 32 10 0 5 -68 -8 -113 -8 -28
-38 -16 -45 18 l-7 30 -1 -32 c-1 -24 4 -33 19 -38 26 -8 50 11 50 40 0 35 12
85 20 85 4 0 5 -20 2 -45 -3 -35 0 -50 13 -65 22 -24 77 -27 98 -5 23 23 30
71 15 102 -13 27 -16 28 -96 29 l-82 0 2 -35z m164 4 c40 -62 -34 -137 -88
-88 -22 20 -24 76 -2 97 24 25 71 20 90 -9z"/>
<path d="M2174 2856 c-11 -30 0 -61 24 -64 21 -3 23 0 20 35 -3 40 -32 59 -44
29z m36 -32 c0 -26 -17 -33 -26 -9 -8 20 3 48 16 40 5 -3 10 -17 10 -31z"/>
<path d="M2287 2893 c-4 -3 -7 -34 -7 -69 0 -47 4 -63 16 -68 24 -9 34 2 34
38 0 20 8 40 20 51 11 10 20 26 20 37 0 14 -8 18 -38 18 -21 0 -42 -3 -45 -7z
m73 -10 c0 -3 -7 -15 -17 -25 -9 -10 -19 -35 -22 -56 -4 -20 -11 -37 -16 -37
-11 0 -19 89 -11 111 5 14 66 20 66 7z"/>
<path d="M2451 2873 l-11 -28 19 23 c27 31 43 28 26 -5 -12 -23 -12 -31 1 -61
8 -19 12 -37 9 -40 -7 -8 -35 19 -35 34 0 7 -5 16 -11 20 -17 10 0 -39 19 -53
39 -31 54 -5 27 46 -12 25 -12 31 0 47 21 28 18 44 -8 44 -16 0 -28 -9 -36
-27z"/>
<path d="M2947 2893 c-14 -13 -7 -120 8 -133 25 -21 35 -1 35 71 0 60 -2 69
-18 69 -10 0 -22 -3 -25 -7z m33 -69 c0 -48 -3 -65 -12 -62 -13 5 -23 89 -14
114 13 35 26 9 26 -52z"/>
<path d="M3271 2887 c-28 -35 -21 -107 13 -129 19 -13 60 -9 84 8 27 19 31 93
6 118 -19 20 -87 21 -103 3z m93 -13 c21 -20 20 -73 -1 -96 -35 -39 -103 -7
-103 49 0 53 68 83 104 47z"/>
<path d="M3300 2830 c0 -37 2 -41 23 -38 18 2 22 9 22 38 0 29 -4 36 -22 38
-21 3 -23 -1 -23 -38z m35 0 c0 -13 -6 -25 -12 -27 -9 -3 -13 6 -13 27 0 21 4
30 13 28 6 -3 12 -15 12 -28z"/>
<path d="M3550 2881 c-5 -11 -10 -37 -10 -59 0 -53 26 -77 76 -69 44 7 54 19
54 70 0 61 -14 77 -65 77 -34 0 -47 -5 -55 -19z m100 -10 c15 -29 12 -77 -6
-95 -35 -35 -94 -6 -94 46 0 48 16 68 55 68 24 0 38 -6 45 -19z"/>
<path d="M3587 2864 c-4 -4 -7 -22 -7 -41 0 -29 3 -33 26 -33 23 0 25 3 22 37
-3 36 -23 54 -41 37z m33 -40 c0 -15 -6 -24 -15 -24 -15 0 -21 40 -9 53 12 11
24 -3 24 -29z"/>
<path d="M3685 2848 c9 -72 13 -85 30 -92 25 -9 43 4 48 37 6 42 -1 49 -9 8
-14 -67 -48 -45 -58 37 -5 42 -4 53 6 50 7 -3 15 -22 18 -43 4 -31 7 -36 17
-24 6 8 13 25 15 39 4 35 38 40 38 6 0 -14 5 -28 12 -32 8 -5 9 -2 5 10 -4 10
-7 26 -7 37 0 13 -7 19 -24 19 -25 0 -35 -16 -37 -53 -1 -24 -4 -18 -13 26 -5
19 -13 27 -27 27 -19 0 -20 -4 -14 -52z"/>
<path d="M3822 2858 l1 -43 4 38 c3 24 9 37 16 34 13 -4 11 -45 -5 -95 -12
-41 -40 -39 -49 3 l-7 30 -1 -32 c-1 -24 4 -33 20 -38 30 -10 46 11 57 75 11
62 9 70 -19 70 -16 0 -19 -7 -17 -42z"/>
<path d="M3980 2799 c0 -98 0 -100 23 -97 14 2 23 11 25 26 2 15 10 22 25 22
33 0 46 13 57 51 7 23 6 44 -1 66 -10 32 -12 33 -70 33 l-59 0 0 -101z m119
63 c9 -21 9 -36 1 -57 -13 -34 -26 -45 -57 -45 -14 0 -23 -7 -25 -22 -2 -12
-9 -23 -15 -26 -10 -3 -13 19 -13 87 l0 91 49 0 c44 0 50 -3 60 -28z"/>
<path d="M4027 2864 c-4 -4 -7 -22 -7 -41 0 -29 3 -33 26 -33 23 0 25 3 22 37
-3 36 -23 54 -41 37z m33 -40 c0 -15 -6 -24 -15 -24 -15 0 -21 40 -9 53 12 11
24 -3 24 -29z"/>
<path d="M4277 2893 c-14 -13 -7 -120 8 -133 25 -21 35 -1 35 71 0 60 -2 69
-18 69 -10 0 -22 -3 -25 -7z m33 -68 c0 -62 -11 -84 -24 -49 -8 21 -8 99 1
107 17 17 23 2 23 -58z"/>
<path d="M4560 2831 c0 -72 6 -86 34 -75 11 4 16 19 16 43 0 24 7 42 20 54 35
29 26 47 -25 47 l-45 0 0 -69z m80 49 c0 -5 -9 -14 -19 -20 -14 -7 -21 -23
-23 -52 -2 -23 -9 -43 -15 -46 -10 -3 -13 14 -13 62 l0 66 35 0 c19 0 35 -4
35 -10z"/>
<path d="M4669 2883 c-22 -25 -18 -102 5 -119 28 -20 80 -18 99 4 19 21 22 83
7 113 -14 25 -91 27 -111 2z m101 -12 c15 -29 12 -72 -7 -93 -23 -25 -68 -23
-87 4 -34 49 -7 108 49 108 24 0 38 -6 45 -19z"/>
<path d="M4707 2864 c-4 -4 -7 -23 -7 -41 0 -30 3 -34 23 -31 18 2 22 9 22 38
0 33 -20 51 -38 34z m31 -40 c-5 -28 -28 -29 -28 -1 0 13 3 27 7 31 10 10 25
-10 21 -30z"/>
<path d="M387 2884 c-16 -5 -17 -16 -15 -87 l3 -82 79 -3 c57 -2 82 1 87 10
11 17 11 129 0 147 -9 14 -120 24 -154 15z m128 -14 c25 -9 26 -13 23 -77 l-3
-68 -75 0 -75 0 -3 69 c-2 49 1 72 10 77 18 12 91 11 123 -1z"/>
<path d="M3880 2840 c0 -17 7 -20 40 -20 33 0 40 3 40 20 0 17 -7 20 -40 20
-33 0 -40 -3 -40 -20z m70 0 c0 -5 -13 -10 -30 -10 -16 0 -30 5 -30 10 0 6 14
10 30 10 17 0 30 -4 30 -10z"/>
<path d="M792 2798 l3 -33 119 0 c91 0 123 3 134 15 10 9 11 15 3 18 -19 6
-12 21 9 19 14 -1 20 -8 20 -24 0 -18 6 -22 28 -22 15 0 54 -2 87 -5 70 -6 90
2 80 33 -7 23 -4 23 -275 25 -143 1 -160 0 -160 -16 0 -5 6 -5 17 1 20 11 163
3 178 -10 5 -6 5 -13 -3 -21 -9 -9 -12 -8 -12 8 0 16 -2 17 -10 4 -7 -11 -10
-12 -10 -2 0 11 -3 10 -14 -1 -11 -11 -38 -14 -98 -13 -78 1 -83 2 -86 24 -2
12 2 22 8 22 7 0 9 -7 6 -16 -3 -8 -2 -12 4 -9 18 11 10 35 -11 35 -17 0 -20
-5 -17 -32z m430 -2 c5 -7 8 -6 8 4 0 13 1 13 10 0 8 -13 10 -13 10 0 0 10 3
11 11 3 6 -6 8 -16 5 -21 -9 -14 -56 -7 -67 9 -7 11 -9 10 -9 -5 0 -15 -5 -17
-22 -11 -13 4 -35 8 -50 9 -26 1 -36 15 -22 28 9 10 119 -4 126 -16z"/>
<path d="M576 2803 c-10 -26 3 -31 102 -35 l93 -3 -3 25 c-3 24 -5 25 -94 27
-78 3 -93 1 -98 -14z m182 -14 c2 -11 -12 -13 -75 -11 -88 3 -107 7 -98 22 10
17 169 7 173 -11z"/>
<path d="M374 2667 c-3 -8 -4 -45 -2 -83 l3 -69 79 -3 c57 -2 82 1 87 10 10
15 12 119 3 142 -8 21 -162 24 -170 3z m161 -72 l0 -70 -75 0 -75 0 -3 59 c-5
87 -4 87 80 84 l73 -3 0 -70z"/>
<path d="M431 2623 c1 -10 5 -29 10 -43 7 -21 8 -19 4 13 -3 31 -1 37 15 37
16 0 17 -4 9 -32 -11 -41 -11 -44 0 -32 5 5 12 24 16 42 6 31 5 32 -24 32 -23
0 -31 -4 -30 -17z"/>
<path d="M800 2602 c0 -27 4 -31 38 -36 20 -2 109 -4 197 -3 153 2 160 3 160
22 0 17 -9 21 -50 26 -27 4 -62 4 -76 2 -14 -3 -43 0 -63 5 -48 14 -66 6 -67
-27 0 -25 -1 -25 -11 -4 -7 14 -22 23 -47 26 -20 3 -46 8 -58 12 -20 7 -23 4
-23 -23z m109 -9 c10 -3 11 -7 3 -15 -6 -6 -27 -8 -56 -4 -35 6 -46 12 -46 25
0 18 18 17 99 -6z m184 9 c41 0 80 -3 86 -7 21 -12 2 -22 -36 -19 -21 2 -42 4
-48 4 -5 -1 -38 -2 -73 -4 -64 -2 -78 4 -68 29 4 10 12 12 34 6 16 -5 63 -9
105 -9z"/>
<path d="M1934 2605 c-8 -31 -4 -35 33 -41 57 -9 204 -10 181 -1 -12 4 -32 7
-45 5 -12 -2 -22 0 -23 5 -1 23 1 28 9 23 5 -4 11 -2 13 3 1 4 38 5 81 2 42
-4 77 -3 77 1 0 17 40 7 60 -14 11 -12 20 -24 20 -27 0 -3 -34 -6 -75 -6 -67
0 -75 2 -78 20 -3 15 -5 14 -6 -6 l-1 -25 85 0 c91 1 101 8 69 51 -13 18 -25
20 -104 17 -54 -2 -91 1 -95 8 -4 7 -12 7 -25 0 -24 -13 -117 -13 -125 0 -12
20 -45 10 -51 -15z m94 -3 c41 -4 53 -14 32 -27 -5 -3 -10 -1 -10 5 0 7 -7 4
-16 -5 -18 -17 -41 -15 -36 4 1 7 -3 9 -9 5 -6 -3 -15 0 -20 7 -7 11 -9 9 -9
-5 0 -15 -3 -17 -11 -9 -18 18 -3 47 19 37 9 -4 36 -9 60 -12z"/>
<path d="M2540 2621 c0 -6 -15 -12 -32 -14 -18 -3 17 -5 77 -5 164 0 165 0
165 -17 0 -18 9 -17 -200 -18 -136 0 -165 2 -165 14 0 8 10 14 21 15 12 1 27
5 34 9 7 4 16 2 21 -6 7 -11 9 -10 9 4 0 16 -5 18 -42 12 -24 -4 -46 -13 -50
-19 -10 -14 -10 -36 0 -37 26 -3 529 -4 540 -1 6 2 12 15 12 28 0 21 -5 24
-38 24 -21 0 -43 5 -48 10 -7 7 -19 7 -35 2 -32 -12 -239 -13 -239 -1 0 5 -7
9 -15 9 -8 0 -15 -4 -15 -9z m337 -21 c35 0 44 -3 41 -16 -2 -13 -19 -16 -80
-18 -68 -2 -78 -1 -78 14 0 20 47 34 54 16 2 -6 5 -2 6 9 1 11 4 14 7 8 3 -8
23 -13 50 -13z"/>
<path d="M3071 2613 c0 -11 3 -13 6 -5 2 6 13 12 24 12 14 0 19 -7 19 -25 0
-27 6 -25 -108 -31 -30 -1 -45 3 -49 12 -7 19 -4 21 35 27 27 5 32 2 33 -16 1
-17 2 -18 6 -4 2 9 10 17 16 18 7 0 1 5 -12 10 -34 13 -91 1 -91 -20 0 -30 15
-39 60 -37 25 1 62 3 83 4 35 2 37 4 37 37 0 32 -2 35 -30 35 -22 0 -30 -5
-29 -17z"/>
<path d="M3720 2620 c10 -6 -9 -8 -58 -6 l-73 4 3 -31 3 -32 87 2 c49 2 90 -2
93 -7 3 -6 17 -10 31 -10 21 0 24 5 24 35 0 35 0 35 -45 35 -25 0 -45 5 -45
10 0 6 -8 10 -17 10 -15 0 -16 -2 -3 -10z m-96 -38 c-5 -15 -4 -15 8 -1 21 24
48 31 55 13 3 -9 8 -11 12 -6 7 12 23 15 79 13 38 -1 42 -3 42 -26 0 -25 -23
-35 -35 -15 -4 6 -43 9 -93 8 -83 -3 -87 -2 -90 19 -3 17 1 21 12 17 8 -3 12
-13 10 -22z"/>
<path d="M3970 2595 c0 -41 -12 -39 188 -35 15 0 22 6 22 19 0 11 8 22 18 24
9 3 -31 5 -90 6 -59 0 -110 5 -113 11 -13 21 -25 9 -25 -25z m111 5 c72 0 89
-3 89 -15 0 -8 -8 -15 -17 -15 -10 -1 -47 -2 -83 -3 -82 -4 -90 -1 -89 32 0
14 3 20 6 14 3 -9 32 -13 94 -13z"/>
<path d="M4300 2619 c0 -5 -5 -7 -10 -4 -6 4 -24 3 -41 0 -25 -6 -30 -11 -27
-33 l3 -27 120 0 120 0 3 32 3 33 -44 -6 c-28 -4 -47 -2 -51 5 -9 14 -76 15
-76 0z m67 -10 c6 -6 30 -10 52 -7 37 3 41 1 41 -19 0 -27 -21 -30 -44 -7 -13
12 -16 13 -16 1 0 -11 -18 -13 -82 -12 -69 1 -84 5 -86 18 -2 9 1 17 6 17 6 0
17 3 26 6 11 4 16 0 16 -12 0 -16 2 -16 16 4 16 24 53 29 71 11z"/>
<path d="M4727 2624 c-4 -4 -7 -20 -7 -34 0 -33 19 -38 125 -34 39 1 82 -2 97
-8 40 -15 56 -5 50 31 -4 29 -7 31 -47 31 -26 0 -45 5 -48 13 -3 9 -9 9 -29
-2 -25 -13 -86 -12 -119 3 -8 4 -18 3 -22 0z m158 -14 c-4 -6 13 -10 43 -10
45 0 50 -2 55 -26 4 -22 2 -25 -17 -19 -11 4 -34 9 -51 12 -16 3 -34 11 -38
17 -6 7 -7 5 -4 -5 5 -14 -3 -16 -56 -14 -34 2 -68 3 -74 4 -7 1 -13 10 -13
21 0 18 5 19 59 14 35 -4 66 -2 77 4 24 14 27 14 19 2z"/>
<path d="M5280 2596 l0 -33 71 -7 c80 -7 89 -4 89 28 0 20 -6 24 -39 29 -22 2
-54 1 -73 -4 l-33 -8 35 1 c76 2 100 -2 100 -16 0 -23 -14 -26 -79 -20 -55 6
-61 9 -61 30 0 12 6 25 13 27 7 3 5 6 -5 6 -14 1 -18 -7 -18 -33z"/>
<path d="M576 2604 c-11 -28 5 -34 102 -37 90 -3 92 -3 92 20 0 21 -4 23 -57
23 -32 0 -74 3 -94 6 -29 5 -37 3 -43 -12z m130 -4 c37 0 54 -4 54 -12 0 -10
-21 -13 -75 -11 -42 0 -82 4 -91 7 -27 10 -3 28 28 22 17 -3 55 -6 84 -6z"/>
<path d="M3210 2611 c-50 -5 -55 -8 -55 -30 0 -23 3 -24 70 -25 l70 -1 3 33
c3 26 0 32 -15 30 -10 -1 -43 -4 -73 -7z m78 -23 c-3 -20 -8 -22 -63 -21 -43
1 -60 5 -60 14 0 10 18 16 55 20 30 3 59 6 63 7 5 1 7 -8 5 -20z"/>
<path d="M3350 2613 c-33 -6 -43 -17 -36 -40 6 -18 16 -19 129 -18 117 2 122
3 125 23 2 12 -3 24 -10 26 -21 7 -181 13 -208 9z m102 -26 c6 -9 8 -9 8 1 0
8 16 12 44 12 43 0 67 -13 51 -28 -4 -4 -10 -1 -12 6 -3 6 -11 12 -18 12 -7 0
-16 -6 -19 -12 -5 -10 -7 -10 -12 1 -4 9 -9 10 -13 2 -8 -13 -151 -22 -151
-10 0 5 -1 12 -2 16 -8 23 109 23 124 0z"/>
<path d="M4573 2613 c-63 -4 -88 -18 -74 -42 6 -9 33 -13 90 -13 45 1 81 -3
81 -9 0 -5 7 -9 15 -9 8 0 15 8 15 18 -1 23 -35 63 -52 60 -7 -1 -41 -3 -75
-5z m98 -25 c10 -13 18 -27 18 -33 0 -5 -6 -2 -13 7 -7 10 -16 15 -19 11 -4
-3 -7 2 -8 13 0 18 -1 18 -9 -1 -6 -13 -9 -15 -9 -5 -1 13 -2 13 -11 0 -10
-16 -97 -17 -113 -1 -11 11 15 19 83 24 25 2 49 4 53 5 5 1 17 -8 28 -20z"/>
<path d="M5034 2613 c-29 -4 -31 -6 -25 -31 8 -29 7 -29 184 -23 9 1 17 5 17
11 0 5 -10 6 -22 2 -13 -4 -54 -7 -93 -7 -56 0 -70 3 -73 16 -4 22 38 28 146
21 74 -4 82 -7 82 -25 0 -21 0 -21 -16 -1 -14 17 -15 17 -10 1 3 -10 6 -21 6
-23 0 -2 7 -4 15 -4 10 0 15 10 15 30 0 29 -1 30 -47 30 -27 0 -70 2 -98 4
-27 2 -64 2 -81 -1z"/>
<path d="M5517 2612 c-57 -3 -58 -4 -55 -30 l3 -27 104 1 c64 1 106 5 108 11
2 6 13 9 23 6 14 -4 20 0 20 11 0 9 -6 18 -12 20 -23 7 -132 12 -191 8z m160
-16 c1 -1 -2 -8 -7 -15 -6 -11 -33 -14 -102 -14 -77 0 -94 3 -96 16 -3 13 8
17 55 19 49 3 143 -1 150 -6z m33 -6 c0 -5 -4 -10 -10 -10 -5 0 -10 5 -10 10
0 6 5 10 10 10 6 0 10 -4 10 -10z"/>
<path d="M3850 2586 c0 -32 7 -36 58 -29 36 5 42 9 42 29 0 22 -4 24 -50 24
-46 0 -50 -2 -50 -24z m90 -1 c0 -9 -10 -16 -25 -16 -14 -1 -31 -2 -37 -3 -7
-1 -14 7 -16 17 -3 14 4 17 37 17 30 0 41 -4 41 -15z"/>
<path d="M2099 2505 c-3 -3 -38 -7 -78 -8 -73 -3 -98 -15 -88 -40 3 -9 27 -17
69 -21 70 -7 66 -7 128 -2 25 1 51 -2 59 -8 10 -8 15 -8 18 2 6 16 184 17 201
0 22 -22 37 6 21 40 l-13 30 -125 -1 c-69 -1 -140 2 -156 6 -17 4 -33 5 -36 2z
m194 -20 c100 3 116 1 121 -14 3 -9 9 -22 12 -29 5 -11 2 -12 -14 -3 -11 6
-34 11 -51 11 -18 0 -31 5 -32 13 0 10 -2 10 -6 0 -3 -8 -26 -13 -63 -13 -37
0 -60 -5 -63 -12 -3 -8 -6 -6 -6 5 -1 14 -5 16 -18 8 -22 -11 -214 -4 -226 8
-15 15 15 25 86 27 37 1 70 4 73 7 3 2 20 1 39 -3 18 -4 85 -6 148 -5z"/>
<path d="M2756 2503 c-3 -3 -70 -7 -148 -7 l-143 -2 -3 -27 c-3 -22 1 -27 20
-27 13 0 77 -1 143 -3 140 -4 169 1 173 30 3 22 -29 49 -42 36z m34 -39 c0 -8
-7 -14 -15 -14 -10 0 -15 10 -15 26 0 22 2 25 15 14 8 -7 15 -19 15 -26z m-40
2 c0 -20 -5 -21 -110 -21 -91 0 -110 3 -110 15 0 12 -2 12 -9 1 -6 -10 -10
-10 -16 -1 -6 9 -9 9 -16 -1 -10 -16 -24 -5 -17 13 4 10 40 13 142 14 132 1
136 0 136 -20z"/>
<path d="M2820 2477 l0 -34 86 -7 c47 -3 90 -4 95 -1 15 10 10 55 -6 61 -14 6
-43 7 -75 3 -8 -1 -34 1 -57 5 l-43 8 0 -35z m73 9 c15 -4 35 -2 45 3 24 13
64 -5 60 -26 -2 -13 -12 -18 -38 -17 -136 4 -127 2 -127 29 0 19 4 24 16 21 9
-2 28 -7 44 -10z"/>
<path d="M396 2283 c-11 -12 -6 -33 8 -33 19 0 28 27 11 33 -7 3 -16 3 -19 0z"/>
<path d="M434 2248 c-8 -26 -16 -34 -37 -36 -25 -3 -27 -6 -27 -53 0 -27 1
-49 3 -50 1 0 34 -2 73 -5 90 -7 104 4 104 81 0 29 -3 61 -6 70 -6 14 -9 14
-30 0 -23 -15 -24 -14 -24 5 0 14 -7 20 -24 20 -18 0 -25 -8 -32 -32z m46 2
c0 -11 -4 -20 -10 -20 -5 0 -10 -4 -10 -10 0 -5 15 -1 34 9 19 11 37 17 40 14
3 -4 6 -30 6 -58 0 -68 -12 -78 -92 -72 l-63 4 -3 41 c-3 38 -1 41 24 44 22 2
30 10 36 36 9 35 38 44 38 12z"/>
<path d="M576 2203 c-14 -34 4 -41 110 -42 l105 -1 -3 27 -3 28 -102 0 c-74 0
-104 -3 -107 -12z m137 -8 c9 -2 17 1 17 7 0 17 45 4 48 -14 3 -15 -5 -18 -52
-18 -31 0 -56 4 -56 9 0 5 -15 4 -35 -2 -37 -11 -64 0 -51 22 6 9 74 7 129 -4z"/>
<path d="M2617 1728 c-4 -265 -6 -666 -5 -892 2 -381 2 -364 9 234 3 355 7
754 8 887 l1 243 567 0 c311 0 569 2 571 5 3 3 -253 5 -570 5 l-575 0 -6 -482z"/>
<path d="M381 2066 c-7 -9 -11 -42 -9 -88 l3 -73 73 -3 c46 -2 79 2 88 9 20
17 19 132 -2 153 -21 21 -136 22 -153 2z m147 -8 c17 -17 16 -123 -2 -137 -9
-7 -40 -11 -78 -9 l-63 3 -2 55 c-3 99 -2 100 70 100 36 0 68 -5 75 -12z"/>
<path d="M413 2000 c0 -36 1 -58 4 -49 2 9 14 21 26 28 l22 11 -22 -5 c-20 -5
-22 -1 -26 37 -2 30 -4 23 -4 -22z"/>
<path d="M575 2000 c-8 -26 1 -40 28 -39 12 0 60 0 107 -2 125 -3 130 -2 130
20 0 11 -5 23 -11 27 -6 3 -64 8 -129 10 -111 3 -119 2 -125 -16z m198 2 c21
-2 27 -7 26 -24 0 -22 -1 -22 -9 -3 -6 13 -9 15 -9 5 -1 -12 -15 -15 -70 -14
-38 1 -75 5 -81 9 -6 4 -17 4 -25 1 -15 -5 -29 9 -22 22 5 6 118 9 190 4z m57
-23 c0 -5 -4 -9 -10 -9 -5 0 -10 7 -10 16 0 8 5 12 10 9 6 -3 10 -10 10 -16z"/>
<path d="M435 1863 c-36 -9 -55 -34 -55 -75 0 -50 27 -78 78 -78 51 0 72 18
79 66 8 61 -39 101 -102 87z m78 -35 c37 -44 6 -108 -53 -108 -80 0 -96 106
-20 133 23 8 53 -2 73 -25z"/>
<path d="M413 1819 c-15 -15 22 -79 46 -79 9 0 23 14 31 33 7 17 15 35 17 38
8 13 -31 19 -38 7 -7 -10 -11 -10 -21 0 -15 15 -21 15 -35 1z m49 -19 c10 0
18 5 18 12 0 6 3 8 6 5 8 -8 -16 -67 -27 -67 -8 0 -39 52 -39 67 0 4 5 2 12
-5 7 -7 20 -12 30 -12z"/>
<path d="M580 1798 c0 -37 12 -44 70 -44 49 1 55 3 58 24 3 18 -1 22 -22 22
-14 0 -28 5 -31 10 -3 6 -22 10 -41 10 -29 0 -34 -3 -34 -22z m65 2 c3 -5 18
-10 31 -10 35 0 25 -25 -10 -26 -19 -1 -30 5 -36 20 -9 20 -9 20 -9 -2 -1 -29
-25 -24 -29 6 -3 18 2 22 22 22 14 0 28 -4 31 -10z"/>
<path d="M732 1780 l3 -25 205 -3 c234 -3 253 -1 248 31 -3 22 -3 22 -231 22
l-228 0 3 -25z m443 0 c0 -13 -32 -15 -217 -18 -203 -2 -218 -1 -218 15 0 17
16 18 218 18 186 0 217 -2 217 -15z"/>
<path d="M3956 1698 c-25 -7 -60 -32 -100 -72 -103 -102 -131 -217 -83 -341
20 -53 29 -63 72 -86 46 -25 69 -49 46 -49 -6 0 -11 -10 -11 -22 1 -23 1 -23
13 -3 7 12 20 19 30 17 12 -2 17 3 17 20 0 40 -24 94 -40 90 -9 -1 -23 15 -37
45 -13 27 -23 40 -23 31 0 -29 34 -87 51 -88 18 0 39 -40 39 -73 l0 -22 -18
21 c-9 12 -36 32 -60 44 -36 17 -48 31 -68 76 -52 118 -18 244 94 344 33 30
73 55 97 61 58 16 205 6 217 -15 5 -9 21 -16 36 -16 25 0 53 -21 61 -45 1 -5
5 -12 8 -15 4 -3 3 1 -1 8 -5 8 0 12 13 12 22 0 61 -44 61 -69 0 -10 6 -23 13
-29 6 -7 17 -48 24 -90 l11 -77 -5 75 c-3 41 -11 85 -19 97 -8 12 -14 29 -14
36 0 23 -40 67 -61 67 -10 0 -27 9 -36 20 -10 11 -30 20 -45 20 -15 0 -31 7
-36 16 -11 20 -187 29 -246 12z"/>
<path d="M377 1663 c-4 -3 -7 -41 -7 -84 0 -89 0 -89 90 -89 77 0 90 13 90 90
0 90 0 90 -89 90 -43 0 -81 -3 -84 -7z m161 -71 c4 -85 -4 -94 -87 -90 l-66 3
-3 64 c-4 92 -4 92 80 89 l73 -3 3 -63z"/>
<path d="M580 1598 c0 -44 7 -45 210 -49 l195 -4 3 28 3 27 -68 1 c-37 1 -118
2 -180 3 -61 0 -115 4 -119 9 -17 16 -44 7 -44 -15z m33 6 c9 -3 13 -13 10
-25 -7 -25 -27 -19 -31 9 -4 24 -2 25 21 16z m310 -13 c50 -1 58 -4 55 -18 -2
-13 -12 -18 -36 -17 -17 0 -95 1 -172 2 -114 2 -140 5 -140 16 0 18 29 22 145
19 50 -1 116 -2 148 -2z"/>
<path d="M4263 1540 c-13 -5 -23 -14 -23 -19 0 -5 14 -3 31 6 16 8 32 13 34
12 30 -31 63 -84 56 -89 -10 -6 -1 -59 18 -105 47 -111 47 -112 39 -260 -3
-49 -3 -78 -1 -62 2 15 8 27 13 27 6 0 6 10 0 25 -6 15 -6 43 -1 70 10 56 -2
121 -41 210 -22 51 -27 85 -13 92 11 6 5 19 -23 56 -37 48 -49 53 -89 37z"/>
<path d="M5434 1486 c-106 -38 -244 -117 -285 -164 -46 -52 -33 -55 19 -4 85
84 276 175 398 189 36 4 48 0 88 -31 26 -20 59 -36 73 -36 32 0 185 -151 233
-230 18 -30 38 -59 45 -65 15 -12 38 -77 42 -120 12 -123 19 -343 11 -357 -10
-20 6 -58 24 -58 6 0 3 9 -8 21 -18 20 -18 22 -2 33 10 7 15 16 11 19 -3 4
-10 78 -14 164 -5 87 -10 172 -12 188 -5 41 -29 108 -43 120 -6 6 -26 35 -44
65 -45 74 -203 230 -233 230 -13 0 -46 16 -73 35 -62 45 -105 45 -230 1z"/>
<path d="M345 1443 c17 -3 20 -12 22 -68 1 -36 5 -69 8 -75 3 -5 32 -10 65
-10 53 0 58 2 53 20 -4 15 -14 20 -39 20 -19 0 -34 -4 -34 -8 0 -5 14 -7 30
-4 18 3 30 0 30 -7 0 -14 -87 -15 -96 0 -3 6 -7 40 -7 75 -1 62 -1 64 -26 63
-20 -1 -21 -3 -6 -6z"/>
<path d="M545 1439 c-4 -6 -13 -8 -21 -5 -11 4 -14 -6 -12 -52 2 -57 2 -57 5
-9 6 65 23 59 23 -8 0 -41 -4 -57 -17 -65 -16 -10 -16 -10 2 -8 18 3 20 12 23
76 l3 72 552 3 552 2 -552 3 c-383 1 -554 -1 -558 -9z"/>
<path d="M580 1378 c0 -31 -10 -29 145 -29 139 0 135 -1 135 21 0 27 -4 28
-152 32 l-128 4 0 -28z m264 1 c18 -17 -2 -21 -101 -21 -155 0 -153 0 -153 20
0 15 11 17 122 14 68 -2 127 -8 132 -13z"/>
<path d="M1870 1386 c-30 -17 -64 -74 -80 -136 -6 -25 -23 -65 -36 -89 -13
-24 -22 -46 -20 -48 9 -10 36 45 62 127 20 63 36 93 61 118 34 31 76 42 88 22
3 -5 14 -10 24 -10 26 0 71 -52 86 -101 8 -24 14 -37 14 -28 2 51 -55 139 -90
139 -10 0 -21 5 -24 10 -9 14 -55 12 -85 -4z"/>
<path d="M1989 1273 c6 -12 15 -25 21 -28 12 -7 10 -166 -3 -182 -14 -19 -27
-16 -27 7 0 11 4 20 8 20 5 0 9 7 9 15 0 20 -13 19 -21 -1 -9 -25 -7 -64 4
-64 15 0 12 -96 -5 -136 -14 -35 -34 -38 -36 -6 0 11 -2 12 -6 4 -3 -7 0 -18
6 -25 7 -9 6 -21 -4 -41 -8 -16 -15 -33 -15 -40 0 -22 -47 -69 -80 -80 -18 -6
-36 -18 -38 -26 -4 -12 -1 -11 15 3 11 9 29 17 41 17 18 0 55 35 64 60 2 6 37
6 92 0 66 -8 108 -19 162 -45 106 -50 136 -97 117 -181 -7 -31 -7 -57 2 -91
l12 -48 758 -2 c540 -2 762 1 772 8 15 13 18 55 4 63 -4 3 -17 -4 -27 -17 -16
-19 -17 -20 -1 -8 22 17 31 9 22 -18 -6 -20 -13 -21 -197 -21 l-190 0 5 33 c3
17 13 61 22 97 12 48 15 86 11 143 -6 71 -5 78 11 75 27 -5 51 -58 54 -118 4
-78 -14 -65 -27 20 -6 38 -14 73 -17 77 -4 4 -4 -9 0 -28 3 -19 7 -57 7 -85 1
-41 4 -50 16 -46 13 5 13 4 0 -13 -17 -22 -19 -22 71 37 64 42 92 50 97 27 3
-16 -57 -67 -137 -116 -20 -13 -29 -23 -20 -23 9 0 50 25 92 56 59 43 77 62
77 80 0 36 -42 35 -101 -2 -21 -13 -41 -24 -44 -24 -3 0 -5 21 -5 48 -1 66
-27 116 -63 120 l-28 3 6 -83 c5 -62 2 -100 -10 -148 -9 -36 -20 -78 -24 -95
-6 -28 -10 -30 -60 -33 l-54 -3 6 38 c4 21 7 46 7 56 0 10 16 34 35 54 25 26
37 49 45 92 6 31 20 86 31 123 l20 67 77 25 c99 32 263 73 327 81 28 4 59 12
69 17 19 10 19 6 13 -163 -4 -96 -11 -221 -17 -278 -5 -57 -7 -107 -4 -112 6
-11 491 -12 497 -1 3 4 8 70 12 147 3 77 11 150 17 163 9 17 7 43 -5 110 -17
89 -22 174 -11 185 4 4 19 -2 34 -13 16 -11 37 -20 47 -20 11 0 42 -6 69 -14
27 -7 83 -21 124 -30 171 -38 255 -59 263 -66 5 -4 17 -41 27 -83 11 -42 29
-95 41 -118 21 -42 21 -43 4 -98 -10 -31 -20 -63 -22 -71 -3 -12 -8 -11 -21 6
-26 33 -58 47 -82 34 -27 -14 -25 -26 8 -59 15 -16 26 -33 24 -40 -7 -20 13
-11 32 15 18 26 18 26 -1 15 -17 -8 -25 -5 -47 17 -19 21 -23 31 -14 40 13 13
42 1 71 -30 25 -26 41 -18 48 23 4 19 13 49 20 66 12 29 11 38 -10 85 -13 29
-33 89 -45 132 l-21 79 -100 23 c-55 13 -131 30 -170 39 -171 38 -212 50 -241
71 -23 17 -34 20 -43 11 -16 -16 -14 -103 5 -198 12 -59 14 -86 6 -102 -6 -12
-13 -85 -17 -162 -3 -77 -10 -144 -14 -148 -5 -4 -34 -7 -66 -5 l-59 3 -17 65
c-9 36 -21 76 -26 90 -12 30 -4 64 32 119 14 24 24 45 21 48 -7 8 -54 -71 -64
-108 -6 -25 -4 -47 9 -85 10 -29 21 -70 25 -93 l6 -40 -166 0 c-91 0 -168 3
-170 8 -3 4 -1 50 5 102 5 52 11 179 14 282 6 209 2 226 -54 255 -19 9 -34 22
-34 27 0 6 -7 15 -16 22 -13 9 -14 14 -3 24 6 7 12 18 12 24 0 5 -7 2 -14 -8
-16 -20 -31 -7 -39 33 -4 25 -4 25 -6 -2 -1 -32 63 -128 85 -128 8 0 26 -12
40 -27 22 -24 23 -27 8 -44 -10 -11 -38 -20 -73 -25 -58 -7 -212 -45 -337 -83
l-71 -22 -21 -72 c-11 -40 -25 -96 -31 -125 -8 -39 -20 -62 -44 -85 -28 -26
-35 -42 -40 -86 -4 -30 -10 -58 -15 -63 -4 -4 -230 -7 -501 -6 l-494 3 -12 42
c-9 31 -10 54 -3 83 13 49 4 100 -24 135 -29 37 -154 92 -225 100 -94 10 -123
15 -123 24 0 4 14 29 31 55 25 37 32 61 36 114 3 37 11 74 18 82 8 9 13 47 13
100 0 76 -2 88 -25 115 -16 20 -21 23 -14 8z"/>
<path d="M377 1253 c-10 -9 -9 -151 1 -157 5 -3 41 -7 81 -8 85 -4 91 2 91 84
0 87 -1 88 -89 88 -43 0 -81 -3 -84 -7z m161 -75 c4 -81 -6 -89 -93 -79 l-60
6 -3 59 c-5 87 -4 87 80 84 l73 -3 3 -67z"/>
<path d="M580 1176 l0 -36 158 3 c154 2 157 2 160 25 3 21 0 22 -70 24 -162 3
-194 5 -220 13 -27 7 -28 6 -28 -29z m174 7 c71 -1 131 -5 133 -7 18 -18 -24
-24 -152 -25 l-145 0 0 25 c0 21 3 25 18 18 9 -4 75 -9 146 -11z"/>
<path d="M4342 1135 c3 -25 0 -30 -19 -29 -12 0 -20 -3 -17 -8 3 -4 -13 -8
-35 -8 -23 0 -41 -4 -41 -8 0 -9 102 2 119 13 14 8 14 35 1 55 -8 11 -10 8 -8
-15z"/>
<path d="M376 1045 c-9 -24 -7 -138 3 -153 5 -9 30 -12 87 -10 l79 3 0 72 c0
40 -4 76 -10 82 -5 5 -42 12 -81 16 -61 6 -72 4 -78 -10z m152 -24 c8 -10 12
-37 10 -71 l-3 -55 -75 0 c-63 0 -75 3 -78 18 -2 10 3 17 11 17 8 0 20 7 27
15 8 10 25 13 57 10 25 -2 43 -1 39 2 -12 13 -81 11 -100 -3 -11 -8 -24 -14
-28 -14 -10 0 -11 94 -1 104 13 13 127 -5 141 -23z"/>
<path d="M460 923 c-30 -2 -58 -7 -62 -11 -4 -4 22 -5 57 -4 36 2 65 8 65 13
0 5 -1 8 -2 7 -2 -1 -28 -3 -58 -5z"/>
<path d="M585 1000 c-4 -6 -4 -22 -1 -36 7 -25 7 -25 109 -22 100 3 102 3 105
28 3 25 2 25 -80 25 -46 0 -93 4 -105 8 -13 5 -24 4 -28 -3z m118 -16 c73 1
87 -2 85 -14 -4 -20 -117 -27 -129 -8 -7 10 -9 10 -9 1 0 -16 -46 -17 -55 -3
-4 6 -4 18 0 28 4 11 8 13 13 5 4 -6 40 -10 95 -9z"/>
<path d="M5640 964 l-25 -15 27 5 c35 8 58 -23 58 -77 0 -31 -7 -44 -37 -72
-21 -19 -44 -35 -51 -35 -7 0 -10 -5 -7 -10 8 -13 30 -1 73 39 28 26 32 36 32
80 0 38 -6 56 -22 75 -22 24 -24 24 -48 10z"/>
<path d="M4401 903 c-1 -30 -58 -71 -108 -79 -37 -6 -94 -44 -66 -44 6 0 16 6
22 14 7 8 28 17 49 21 73 14 117 48 109 87 -4 23 -4 23 -6 1z"/>
<path d="M393 853 c-21 -8 -16 -43 6 -43 20 0 35 25 25 41 -6 10 -12 10 -31 2z
m18 -26 c-13 -13 -26 -3 -16 12 3 6 11 8 17 5 6 -4 6 -10 -1 -17z"/>
<path d="M505 811 c-3 -6 -17 -11 -31 -11 -14 0 -24 -6 -24 -14 0 -7 -9 -16
-20 -19 -13 -3 -20 -14 -20 -29 0 -30 17 -48 47 -48 27 0 57 51 50 86 -4 25
20 43 29 20 10 -25 -1 -99 -14 -104 -11 -3 -12 0 -3 16 6 11 11 29 11 39 -1
14 -29 -49 -30 -65 0 -2 10 -2 23 0 20 3 22 8 22 68 0 52 -3 65 -17 68 -9 2
-19 -2 -23 -7z m-9 -35 c7 -19 -23 -76 -40 -76 -20 0 -39 27 -32 45 7 18 33
20 39 3 2 -7 2 -1 0 15 -3 20 0 27 12 27 8 0 18 -6 21 -14z"/>
<path d="M574 777 c-3 -10 -4 -21 -1 -24 7 -6 48 -11 112 -13 76 -3 77 -2 73
26 -3 26 -4 26 -90 28 -78 2 -89 0 -94 -17z m171 -13 c0 -16 -8 -18 -55 -15
-30 1 -58 8 -62 14 -4 7 -8 8 -8 2 0 -5 -5 -3 -10 5 -8 13 -10 12 -10 -4 0
-15 -3 -17 -11 -9 -21 21 -1 28 78 26 67 -1 78 -4 78 -19z"/>
<path d="M4225 760 c-11 -5 -41 -9 -67 -9 -35 -1 -65 -11 -113 -37 -71 -39
-84 -59 -16 -25 45 24 51 25 51 12 0 -5 -13 -14 -30 -20 -16 -5 -30 -12 -30
-15 0 -7 23 -1 47 12 20 11 24 9 36 -15 24 -47 28 -82 16 -126 -21 -76 -28
-110 -20 -101 5 5 16 41 25 79 15 63 15 75 2 118 -8 27 -22 57 -31 67 -16 17
-15 19 4 29 11 6 38 11 60 11 22 0 51 4 64 9 23 9 109 2 187 -14 18 -4 21 -3
10 4 -8 5 -40 12 -70 15 -30 4 -66 9 -80 11 -14 2 -34 0 -45 -5z"/>
<path d="M5992 718 c-7 -7 -12 -22 -12 -35 0 -18 6 -23 25 -23 26 0 50 32 41
56 -7 17 -38 18 -54 2z m43 -8 c8 -13 -13 -40 -31 -40 -17 0 -18 22 -2 38 15
15 25 15 33 2z"/>
<path d="M5116 648 c-2 -7 -11 -36 -20 -65 -20 -65 -20 -70 2 -75 14 -4 21 6
35 53 11 38 23 59 32 59 8 0 15 5 15 11 0 6 -7 8 -16 5 -9 -3 -20 -6 -25 -6
-6 0 -8 -4 -5 -9 8 -12 -24 -101 -35 -101 -11 0 -12 -6 10 65 14 46 24 61 42
66 23 7 23 7 -4 8 -15 1 -29 -5 -31 -11z"/>
<path d="M384 616 c-3 -8 -4 -31 -2 -52 3 -34 6 -39 31 -42 18 -2 27 -9 27
-22 0 -21 21 -32 40 -20 23 14 5 34 -41 45 -43 11 -44 12 -44 50 l0 40 68 3
67 3 0 -41 c0 -33 -4 -43 -22 -50 -23 -10 -23 -10 2 -7 23 2 25 7 28 55 l3 52
-76 0 c-55 0 -77 -4 -81 -14z m94 -117 c-2 -6 -8 -10 -13 -10 -5 0 -11 4 -13
10 -2 6 4 11 13 11 9 0 15 -5 13 -11z"/>
<path d="M580 577 c0 -14 4 -28 9 -31 4 -3 6 6 3 19 -4 21 -1 25 19 24 41 -1
59 -12 49 -29 -9 -13 -11 -13 -20 0 -8 13 -10 12 -10 -2 0 -26 36 -23 43 4 8
28 9 27 -46 34 -45 7 -47 6 -47 -19z"/>
<path d="M3691 560 c-35 -22 -72 -47 -82 -56 -10 -9 -35 -22 -56 -30 l-38 -15
34 6 c19 3 48 15 65 28 57 41 154 97 170 97 9 0 16 -7 16 -15 0 -8 -6 -15 -14
-15 -17 0 -169 -110 -162 -117 3 -3 36 17 73 44 77 57 113 78 113 65 0 -5 -31
-30 -70 -57 -70 -48 -77 -55 -62 -55 8 0 98 63 130 90 9 8 14 7 19 -6 4 -10 2
-19 -5 -22 -19 -6 -94 -63 -89 -68 2 -2 27 10 55 28 53 35 66 64 37 88 -8 7
-15 21 -15 31 0 31 -48 22 -119 -21z"/>
<path d="M698 579 c-16 -10 -5 -55 12 -50 14 3 48 3 120 -1 14 -1 91 -1 173 0
l147 2 0 25 c0 23 -4 25 -52 26 -155 5 -391 3 -400 -2z m395 -8 c32 -1 47 -5
47 -14 0 -19 -229 -24 -241 -5 -7 10 -9 10 -10 -2 0 -10 -3 -8 -9 5 -7 16 -9
16 -9 4 -1 -23 -22 -29 -68 -18 -24 5 -53 5 -72 -1 -26 -7 -31 -6 -31 9 0 10
2 20 4 22 4 4 271 4 389 0z"/>
<path d="M612 560 c0 -14 2 -19 5 -12 2 6 2 18 0 25 -3 6 -5 1 -5 -13z"/>
<path d="M5699 513 l-34 -38 37 34 c40 37 65 36 31 -2 -25 -27 -46 -67 -40
-74 3 -2 11 6 17 19 7 12 22 33 33 45 18 21 18 53 -1 53 -4 0 -24 -17 -43 -37z"/>
<path d="M1880 453 c0 -5 5 -15 10 -23 8 -13 -6 -16 -103 -21 -66 -3 -1 -5
158 -5 149 0 201 2 117 3 -152 4 -153 4 -162 28 -9 24 -20 34 -20 18z"/>
</g>
</defs>
<mask id="mp66833">
  <use xlink:href="#gp66833" fill="white" />
</mask>
<use xlink:href="#gp66833" data-mask="url(#mp66833)" data-stroke="black" stroke-width="20px" fill="black"/>
</svg>
