<?xml version="1.0" standalone="no"?>
<!DOCTYPE svg PUBLIC "-//W3C//DTD SVG 20010904//EN"
 "http://www.w3.org/TR/2001/REC-SVG-20010904/DTD/svg10.dtd">
<svg class="Potrace" xmlns:xlink="http://www.w3.org/1999/xlink" version="1.0" xmlns="http://www.w3.org/2000/svg"
 width="259.000000pt" height="194.000000pt" viewBox="0 0 259.000000 194.000000"
 preserveAspectRatio="xMidYMid meet">
<defs>
  <g id="gp16379" transform="translate(0.000000,194.000000) scale(0.100000,-0.100000)"
>
<path d="M1817 1913 c5 -28 2 -34 -21 -43 -27 -10 -33 -36 -16 -75 6 -15 8
-10 7 20 -2 39 -2 39 57 63 l60 24 70 -19 71 -18 -2 -40 -2 -40 9 40 c4 22 5
43 2 46 -4 3 -37 14 -74 23 -55 15 -73 16 -103 6 -20 -7 -37 -10 -39 -8 -1 1
-7 14 -13 28 -11 24 -12 23 -6 -7z"/>
<path d="M2367 1933 c-3 -4 -10 -25 -15 -46 -13 -47 -2 -83 32 -98 26 -12 31
-30 42 -133 l7 -65 -42 -17 c-49 -19 -61 -42 -62 -117 0 -29 -4 -72 -7 -97
l-7 -44 -13 28 c-7 16 -15 27 -17 24 -8 -8 20 -58 30 -55 13 5 24 67 24 140 1
74 11 91 61 111 l41 16 -4 76 c-3 41 -8 78 -11 81 -3 4 -6 17 -6 29 0 14 -8
25 -20 29 -11 4 -27 17 -36 30 -13 20 -13 27 0 66 14 39 15 62 3 42z"/>
<path d="M2467 1933 c52 -3 85 -9 92 -17 8 -9 10 -106 9 -317 l-3 -304 -22 -3
c-16 -2 -26 5 -38 27 -23 46 -85 38 -105 -13 -8 -22 -16 -24 -122 -30 -62 -3
-178 -7 -257 -7 -138 -2 -145 -1 -152 19 -7 18 -18 21 -86 24 -81 3 -98 -4
-82 -33 8 -15 4 -19 -26 -25 -19 -3 -54 -3 -77 0 -100 15 -137 0 -156 -61 -9
-29 -9 -40 2 -53 13 -14 27 -122 44 -325 l7 -90 45 -6 c25 -4 144 -14 265 -23
121 -9 267 -21 325 -26 58 -5 157 -12 221 -16 136 -8 144 -3 153 78 8 75 13
318 6 312 -3 -3 -7 -84 -10 -180 -5 -144 -9 -177 -22 -191 -15 -15 -32 -15
-180 -5 -481 34 -775 59 -789 67 -4 3 -10 47 -13 97 -12 172 -29 303 -42 318
-10 12 -10 22 2 49 21 50 33 29 36 -69 l3 -85 85 -7 c109 -8 873 -10 894 -2
13 5 16 24 16 100 0 56 4 94 10 94 17 0 11 30 -10 52 -10 12 -16 26 -13 32 4
6 -4 4 -17 -5 -13 -9 -26 -22 -28 -30 -3 -10 0 -9 13 3 17 16 19 15 37 -8 25
-32 15 -48 -20 -31 -20 10 -70 11 -207 7 -99 -4 -162 -7 -141 -8 72 -4 29 -14
-71 -17 -60 -2 -88 0 -73 5 15 5 -27 8 -110 7 -115 0 -124 -2 -60 -7 76 -7 70
-9 -32 -13 -31 -1 -54 1 -51 6 2 4 -37 8 -86 9 -50 0 -96 1 -103 2 -6 1 -13
-5 -16 -13 -3 -9 0 -11 8 -6 18 11 173 6 185 -6 6 -6 10 -38 10 -72 l0 -62
253 -1 c289 -2 266 -11 260 97 -3 50 -5 54 -28 56 -62 3 -35 7 95 13 81 3 150
1 163 -4 22 -9 23 -14 20 -100 l-3 -91 -345 -3 c-190 -2 -409 0 -487 3 l-143
7 0 82 c0 45 -5 87 -11 93 -16 16 47 36 73 22 11 -6 51 -9 91 -7 56 4 71 8 73
21 1 9 -2 17 -7 17 -5 0 -9 6 -9 13 0 9 19 11 71 9 61 -3 71 -7 78 -25 8 -20
13 -21 152 -19 79 1 199 5 267 9 117 5 124 7 132 29 9 22 38 44 59 44 6 0 17
-13 26 -30 11 -21 23 -30 40 -30 l25 0 0 -220 c0 -121 3 -220 8 -220 4 0 7
107 8 238 0 130 1 368 3 529 2 198 -1 298 -9 312 -10 19 -19 21 -98 19 l-87
-2 82 -3z m-544 -710 c-21 -4 -23 -9 -21 -66 l1 -62 7 60 c4 33 8 51 9 40 l2
-20 9 20 9 20 1 -20 1 -20 9 20 c6 14 9 0 9 -46 1 -66 1 -66 -26 -64 -16 1
-31 3 -35 3 -5 1 -9 26 -10 55 l-1 52 -6 -55 -6 -55 -75 0 -75 0 1 60 2 60 36
3 36 3 2 -58 2 -58 5 55 5 55 6 -55 7 -55 1 59 2 59 30 -6 c23 -5 28 -3 23 8
-4 12 3 15 28 14 24 -1 27 -3 12 -6z m165 -22 c3 -10 0 -12 -11 -8 -25 9 -29
-5 -6 -29 27 -29 23 -79 -6 -79 -12 0 -21 8 -24 20 -3 16 -1 17 12 7 25 -21
32 6 8 32 -21 22 -28 56 -14 70 11 10 36 3 41 -13z m127 -50 c0 -61 -1 -64
-25 -68 -14 -2 -40 -1 -57 2 -28 5 -33 10 -32 33 l1 27 8 -25 c7 -22 8 -20 9
15 2 74 8 82 54 81 l42 -2 0 -63z m-238 -38 c-2 -21 -4 -6 -4 32 0 39 2 55 4
38 2 -18 2 -50 0 -70z m55 60 c3 -20 2 -49 -1 -63 -4 -18 -8 -8 -12 35 l-6 60
-1 -62 c-3 -84 -22 -82 -22 2 0 57 2 65 19 65 14 0 20 -9 23 -37z m84 21 c-3
-9 -6 -23 -6 -32 0 -10 -3 -13 -10 -6 -11 11 -2 54 12 54 6 0 7 -7 4 -16z
m-46 -75 c0 -6 -4 -7 -10 -4 -5 3 -10 11 -10 16 0 6 5 7 10 4 6 -3 10 -11 10
-16z"/>
<path d="M1777 1183 c-4 -3 -8 -22 -8 -42 l-2 -36 -7 40 -7 40 -2 -41 c-1 -32
3 -43 17 -46 14 -4 17 2 17 44 0 26 0 48 -1 48 0 0 -4 -3 -7 -7z"/>
<path d="M1843 1150 c0 -25 2 -35 4 -22 2 12 2 32 0 45 -2 12 -4 2 -4 -23z"/>
<path d="M1863 1150 c0 -25 2 -35 4 -22 2 12 2 32 0 45 -2 12 -4 2 -4 -23z"/>
<path d="M2151 1188 c-1 -10 6 -18 14 -18 8 0 15 8 15 18 0 13 -2 14 -9 3 -7
-11 -9 -11 -14 0 -4 10 -6 9 -6 -3z"/>
<path d="M1890 1865 c0 -8 -6 -15 -14 -15 -17 0 -31 -35 -21 -51 4 -6 17 -8
28 -5 18 5 214 -39 227 -50 2 -3 -23 -3 -55 0 -37 3 -62 1 -66 -6 -5 -8 -19
-8 -49 0 -27 7 -51 7 -67 1 -14 -5 -28 -7 -31 -5 -4 2 -13 -2 -20 -10 -17 -19
6 -19 43 0 23 12 34 12 83 -1 31 -8 92 -17 136 -21 71 -7 81 -10 107 -40 38
-42 41 -107 6 -148 l-23 -27 24 -24 c18 -18 38 -25 76 -28 l51 -4 -49 9 c-26
5 -56 17 -66 28 -17 18 -17 20 -2 36 12 12 17 34 17 82 0 61 -2 67 -33 95 -29
26 -40 29 -96 29 -36 0 -71 3 -80 6 -32 12 -14 21 40 20 67 -1 84 18 27 30
-21 4 -41 8 -45 9 -5 2 -12 3 -17 4 -6 0 -16 13 -23 28 -16 33 -34 40 -41 14
-4 -16 -12 -19 -45 -17 -23 1 -44 5 -48 9 -8 8 42 57 58 57 29 0 88 -25 88
-37 0 -7 4 -13 9 -13 5 0 8 7 7 17 -5 30 -136 58 -136 28z m100 -61 c0 -8 -7
-14 -15 -14 -17 0 -18 2 -9 24 7 18 24 12 24 -10z"/>
<path d="M55 1861 c-6 -5 -21 -11 -35 -14 -22 -4 -22 -4 6 -6 16 0 35 4 41 10
8 8 12 -1 15 -31 l4 -42 -46 6 c-42 5 -43 5 -12 -5 19 -6 41 -9 50 -7 10 2 22
-2 27 -9 6 -8 40 -15 80 -18 39 -3 97 -12 130 -20 105 -28 180 -44 195 -44 37
1 -262 70 -320 74 -75 5 -100 25 -100 81 0 34 -15 44 -35 25z"/>
<path d="M558 1838 c-18 -26 -23 -47 -24 -103 l-2 -70 6 65 c5 44 14 75 31 98
21 31 25 32 45 19 31 -21 50 -78 42 -131 -7 -45 -7 -45 -46 -43 -24 1 -46 -5
-57 -15 -18 -17 -28 -16 -123 2 -188 36 -220 44 -220 56 0 7 -8 10 -20 7 -13
-3 -20 -13 -19 -27 1 -17 2 -17 6 -3 2 9 9 17 15 17 5 0 8 -6 5 -14 -7 -18 17
-40 35 -33 8 4 7 6 -4 6 -17 1 -27 21 -11 21 4 0 63 -11 132 -25 70 -13 137
-26 151 -27 21 -3 25 -8 25 -35 0 -18 3 -33 7 -33 5 0 8 11 8 25 0 36 44 78
73 69 35 -10 42 -22 42 -73 l0 -49 48 -5 c26 -4 55 -11 65 -17 13 -9 5 -10
-36 -5 -29 3 -59 8 -67 11 -9 4 -18 -1 -22 -12 -9 -23 39 -64 75 -64 26 0 28
-4 40 -67 7 -37 15 -69 18 -72 2 -3 23 2 46 10 34 13 44 22 51 48 15 59 7 74
-48 88 l-50 12 52 -3 c31 -2 58 -9 68 -19 9 -10 32 -17 51 -17 29 0 34 3 34
24 0 31 -16 42 -69 49 -29 4 -40 2 -30 -4 7 -5 25 -9 40 -9 28 0 49 -16 49
-38 0 -9 -10 -12 -32 -10 -22 2 -33 8 -32 18 1 9 -7 16 -20 16 -101 1 -107 3
-100 28 6 27 -1 31 -70 41 -42 7 -46 9 -46 36 0 25 4 29 29 29 17 0 33 -4 36
-10 3 -5 18 -10 33 -10 15 0 60 -9 101 -20 41 -11 90 -20 108 -20 31 0 38 -7
34 -36 -2 -15 37 -25 45 -13 3 5 2 9 -3 8 -17 -3 -33 1 -32 9 6 33 -3 42 -39
42 -21 0 -65 7 -97 16 -59 15 -117 28 -185 42 l-35 7 0 92 c0 76 -3 96 -20
119 -30 40 -59 40 -87 2z m207 -358 c0 -24 -57 -24 -88 0 -15 12 -25 25 -22
30 9 14 110 -14 110 -30z m103 -66 c4 -25 -14 -74 -27 -74 -5 0 -11 10 -13 23
-3 23 -29 30 -36 9 -2 -7 2 -10 12 -6 12 4 16 0 16 -15 0 -12 -2 -21 -4 -21
-2 0 -11 -3 -19 -6 -11 -4 -18 7 -25 43 -11 52 -9 61 10 46 7 -6 25 -13 40
-15 24 -4 26 -3 17 13 -5 11 -17 19 -27 18 -14 0 -14 -2 3 -9 l20 -9 -20 0
c-25 0 -59 24 -51 37 4 6 24 5 53 -2 35 -9 49 -18 51 -32z"/>
<path d="M1815 1820 c-11 -5 -14 -9 -7 -9 29 -2 5 -35 -33 -45 l-39 -11 23
-22 24 -22 -27 -7 c-19 -4 -26 -13 -26 -31 0 -15 -4 -22 -11 -18 -6 4 -8 13
-5 21 3 8 2 14 -3 14 -5 0 -8 8 -7 17 0 10 -6 19 -14 20 -19 4 -40 -40 -40
-83 0 -30 -30 -70 -37 -49 -26 77 -91 125 -170 125 -65 0 -93 -30 -100 -105
-4 -49 -2 -67 16 -98 11 -21 21 -50 21 -65 -1 -30 -21 -62 -39 -62 -20 0 -75
31 -91 52 -15 18 -18 15 -67 -68 -47 -77 -53 -84 -58 -61 -11 42 -2 72 23 75
12 2 22 7 22 12 0 5 11 21 25 36 14 15 25 37 25 49 0 12 9 30 19 39 22 20 45
99 36 126 -6 20 -114 63 -148 58 -13 -2 -28 -16 -36 -33 -14 -29 -16 -45 -19
-173 l-2 -62 -27 5 c-28 6 -28 6 2 -8 17 -8 31 -14 32 -13 1 1 3 51 6 113 4
119 20 163 56 163 29 0 131 -48 131 -62 0 -31 -22 -87 -40 -103 -11 -10 -20
-26 -20 -35 0 -27 -52 -99 -74 -102 -28 -4 -35 -73 -11 -103 9 -11 18 -15 21
-10 16 36 94 158 94 147 0 -19 87 -55 115 -48 32 8 47 73 26 114 -29 57 -33
75 -29 117 4 29 14 55 29 72 51 54 181 9 210 -72 8 -22 20 -35 30 -35 23 0 32
16 39 64 6 46 35 59 44 20 8 -29 36 -32 36 -4 0 12 10 25 25 32 29 13 32 33 9
46 -14 8 -11 12 18 21 28 9 37 18 40 41 3 17 4 30 4 29 -1 0 -10 -4 -21 -9z
m-120 -109 c3 -5 1 -12 -5 -16 -5 -3 -10 1 -10 9 0 18 6 21 15 7z"/>
<path d="M1915 1676 c30 -14 27 -19 -10 -17 -11 1 -29 -6 -40 -14 -20 -17 -20
-17 0 -10 44 16 55 17 55 6 0 -6 -8 -11 -17 -11 -10 -1 -29 -8 -43 -16 -16
-10 -18 -13 -5 -8 11 4 32 9 48 12 15 2 27 10 27 17 0 7 19 22 43 34 35 18 37
21 12 15 -35 -8 -42 -8 -75 1 -21 5 -20 4 5 -9z"/>
<path d="M10 1652 c8 -5 38 -13 65 -16 92 -13 125 -25 125 -46 0 -11 -1 -20
-2 -20 -2 0 -39 6 -83 14 -73 12 -115 16 -115 11 0 -2 7 -22 15 -46 23 -64 24
-244 2 -270 -12 -14 -13 -19 -4 -19 7 0 20 13 29 28 12 20 30 31 67 41 28 7
53 17 57 22 11 18 24 7 80 -68 32 -43 60 -80 62 -83 8 -11 30 33 25 48 -4 10
-22 35 -41 56 -21 24 -31 41 -24 44 15 5 16 52 2 52 -5 0 -10 8 -11 18 0 13
-3 12 -11 -5 -13 -27 -30 -29 -48 -8 -7 8 -20 15 -30 15 -21 0 -35 16 -44 52
-5 21 -1 30 22 47 15 11 21 21 14 21 -6 0 -21 -9 -32 -20 -15 -15 -19 -28 -15
-52 7 -37 31 -69 49 -62 11 4 96 -68 96 -82 0 -4 7 -15 16 -25 9 -10 11 -19 6
-23 -6 -3 -26 16 -46 44 -39 55 -47 58 -96 34 -18 -9 -48 -20 -67 -24 l-34 -8
2 86 c1 48 -4 106 -11 130 -7 23 -11 44 -8 47 2 3 42 -2 89 -10 105 -19 99
-19 99 9 0 34 -15 42 -100 56 -41 6 -84 14 -95 16 -16 4 -17 3 -5 -4z m256
-288 c-5 -13 -10 -14 -18 -6 -6 6 -8 18 -4 28 5 13 10 14 18 6 6 -6 8 -18 4
-28z m57 -140 c-4 -12 -10 -9 -24 12 -10 15 -15 32 -12 37 9 15 43 -32 36 -49z"/>
<path d="M297 1624 c-17 -9 -39 -13 -53 -10 -14 4 -24 2 -24 -4 0 -15 57 -12
89 5 26 13 30 13 44 -3 22 -24 37 -67 37 -106 0 -38 20 -86 36 -86 17 0 100
48 115 66 7 9 13 28 14 42 0 23 6 28 35 33 l35 6 -37 2 c-21 0 -38 -3 -38 -8
0 -17 -52 -22 -106 -11 -32 7 -54 17 -54 24 0 18 -39 66 -53 66 -7 -1 -25 -8
-40 -16z m206 -89 c37 0 47 -14 29 -41 -7 -11 -104 -66 -107 -62 -14 18 -25
54 -25 82 0 35 1 35 33 28 17 -4 49 -7 70 -7z"/>
<path d="M560 1619 c0 -4 12 -9 27 -11 17 -2 32 -12 40 -28 12 -23 13 -23 13
-4 0 12 -6 26 -12 31 -17 13 -68 22 -68 12z"/>
<path d="M1911 1578 c-1 -34 -4 -38 -26 -38 -29 0 -34 24 -7 39 16 10 16 10 0
11 -9 0 -20 -5 -24 -11 -3 -6 -21 -9 -39 -7 -31 4 -33 2 -39 -32 -8 -49 -7
-100 2 -100 4 0 6 20 4 45 -4 45 -4 45 29 46 19 0 51 1 72 2 41 2 45 -13 6
-25 -23 -7 -23 -7 3 -4 21 2 36 -6 62 -33 18 -20 48 -47 65 -61 34 -27 41 -42
14 -34 -15 5 -15 4 -3 -4 18 -14 30 -6 30 20 0 14 5 18 16 14 9 -3 12 -2 9 5
-4 5 -15 7 -26 4 -21 -7 -73 27 -61 40 4 3 2 5 -4 3 -20 -6 -65 61 -74 109 -7
47 -8 47 -9 11z m-61 -28 c0 -5 -13 -10 -30 -10 -16 0 -30 5 -30 10 0 6 14 10
30 10 17 0 30 -4 30 -10z"/>
<path d="M1375 1580 c-3 -11 -4 -24 -1 -29 7 -11 46 -3 46 9 0 5 -9 6 -20 3
-16 -4 -19 -2 -14 11 15 38 54 8 54 -42 0 -30 -2 -33 -22 -27 -22 6 -22 5 -4
-9 10 -9 23 -13 27 -10 12 7 11 71 -1 95 -14 26 -57 25 -65 -1z"/>
<path d="M30 1572 c0 -5 9 -21 21 -36 18 -23 20 -36 16 -109 -2 -45 -2 -62 0
-38 4 40 5 42 19 25 15 -18 15 -18 8 1 -4 11 -9 40 -12 65 -3 28 -14 56 -28
73 -13 16 -24 24 -24 19z"/>
<path d="M2018 1563 c-17 -19 -29 -93 -16 -93 4 0 8 15 8 33 0 67 72 89 99 31
6 -15 14 -24 17 -21 7 7 -15 49 -30 59 -20 14 -63 8 -78 -9z"/>
<path d="M1134 1545 c-4 -9 -1 -28 4 -43 6 -15 13 -38 16 -52 2 -14 3 -9 1 10
-2 19 -7 49 -11 65 -6 26 -5 28 8 17 9 -7 19 -24 22 -37 4 -14 11 -25 16 -25
6 0 5 11 -2 28 -23 52 -43 66 -54 37z"/>
<path d="M870 1528 c109 -25 110 -25 114 -40 2 -7 9 -33 16 -56 6 -24 13 -42
15 -40 5 4 -21 107 -29 115 -6 7 -167 43 -186 42 -8 -1 23 -10 70 -21z"/>
<path d="M1470 1486 c4 -53 8 -61 25 -61 11 0 21 6 21 13 3 26 5 26 22 5 9
-13 32 -26 50 -29 l32 -6 0 55 c0 31 -4 58 -8 61 -5 3 -7 -19 -4 -49 4 -46 2
-55 -12 -55 -20 0 -56 35 -56 55 0 23 18 18 23 -7 5 -20 5 -20 4 2 -2 21 -6
25 -29 22 -25 -2 -28 0 -28 28 0 25 -4 29 -22 28 -22 -2 -23 -5 -18 -62z m28
24 c-4 -25 -1 -30 16 -30 19 0 19 -1 1 -13 -11 -9 -15 -19 -10 -27 5 -8 3 -11
-6 -8 -22 7 -25 108 -3 108 3 0 4 -13 2 -30z"/>
<path d="M1583 1500 c0 -25 2 -35 4 -22 2 12 2 32 0 45 -2 12 -4 2 -4 -23z"/>
<path d="M330 1478 c-21 -35 -26 -83 -10 -93 6 -4 8 5 4 22 -4 20 2 39 20 66
14 20 21 37 16 37 -6 0 -19 -15 -30 -32z"/>
<path d="M1663 1503 c-24 -9 -13 -32 23 -49 l36 -17 -4 -56 c-3 -31 -3 -48 -1
-38 5 19 24 22 39 7 5 -5 32 -13 59 -16 28 -4 54 -12 58 -18 5 -6 6 -1 2 11
-6 22 -4 23 55 21 56 -1 62 -4 80 -32 11 -17 20 -25 20 -18 0 7 -7 23 -15 36
-13 20 -24 23 -85 24 -40 1 -70 -3 -70 -8 0 -16 -46 -12 -90 7 -36 16 -40 21
-40 55 0 20 5 40 11 44 8 5 10 -1 7 -20 -3 -14 -1 -26 3 -26 5 0 9 18 9 40 0
24 -5 40 -12 40 -6 0 -9 -3 -5 -6 3 -4 0 -13 -8 -21 -12 -12 -19 -12 -46 3
-25 12 -29 18 -18 25 22 14 37 11 42 -8 4 -14 5 -12 6 5 1 17 -4 22 -21 21
-13 0 -29 -3 -35 -6z"/>
<path d="M1820 1488 c19 -7 37 -15 40 -19 11 -15 63 -14 68 1 4 12 2 13 -9 3
-12 -10 -21 -9 -41 1 -15 8 -42 17 -60 20 l-33 5 35 -11z"/>
<path d="M365 1443 c6 -37 4 -43 -12 -44 -14 0 -15 -2 -3 -6 27 -10 30 -28 9
-44 -19 -14 -20 -18 -8 -37 8 -12 20 -22 28 -22 11 0 12 14 6 73 -4 39 -9 80
-9 89 -1 10 -6 21 -10 25 -5 5 -5 -11 -1 -34z m15 -120 c0 -26 -1 -26 -17 -10
-16 16 -16 19 -3 27 20 13 20 13 20 -17z"/>
<path d="M610 1461 c-14 -26 -60 -29 -61 -3 0 12 -3 10 -10 -7 -7 -17 -5 -45
5 -91 9 -37 15 -91 14 -122 -1 -43 3 -62 20 -83 12 -15 22 -23 22 -17 0 6 -8
18 -17 27 -12 12 -16 33 -15 73 1 31 -5 85 -13 120 -8 35 -15 65 -15 68 0 2
16 4 35 4 22 0 38 6 41 15 4 8 10 15 15 15 17 0 29 -79 29 -200 0 -69 4 -130
8 -137 8 -12 5 191 -4 273 -3 32 -12 58 -24 69 -17 16 -19 15 -30 -4z"/>
<path d="M2122 1465 c-18 -21 -26 -71 -13 -80 8 -4 10 1 6 17 -3 13 0 31 9 43
14 19 15 19 21 2 12 -29 -4 -127 -21 -127 -8 0 -14 7 -14 15 0 8 5 15 11 15 5
0 7 5 3 11 -9 16 -27 -18 -20 -37 9 -23 39 -12 47 16 20 72 0 157 -29 125z"/>
<path d="M2177 1443 c-11 -11 -8 -22 13 -43 15 -15 32 -20 73 -19 l52 2 -51 6
c-55 7 -88 26 -80 48 6 14 3 17 -7 6z"/>
<path d="M717 1429 c7 -7 15 -10 18 -7 3 3 -2 9 -12 12 -14 6 -15 5 -6 -5z"/>
<path d="M1034 1385 c-1 -41 12 -38 18 5 3 17 0 30 -6 30 -6 0 -11 -16 -12
-35z"/>
<path d="M984 1375 c-8 -31 2 -58 19 -53 6 3 13 13 14 24 3 19 3 19 -5 0 -12
-27 -24 -4 -16 29 3 14 4 25 0 25 -3 0 -8 -11 -12 -25z"/>
<path d="M707 1344 c-14 -14 -7 -35 11 -32 9 2 17 10 17 17 0 16 -18 25 -28
15z"/>
<path d="M944 1264 c9 -36 14 -40 27 -27 16 16 7 47 -15 51 -16 3 -18 0 -12
-24z m26 -6 c0 -19 -2 -20 -10 -8 -13 19 -13 30 0 30 6 0 10 -10 10 -22z"/>
<path d="M196 1138 c-8 -13 -18 -42 -22 -65 -5 -35 -4 -43 9 -43 9 0 19 5 23
12 5 8 2 9 -10 5 -16 -6 -17 -3 -11 30 3 21 14 46 24 56 16 17 20 17 47 2 37
-20 672 -79 690 -64 8 6 13 6 16 0 1 -6 31 -14 65 -17 47 -5 68 -13 84 -30 12
-13 29 -24 38 -24 12 0 11 3 -4 14 -18 13 -18 13 1 24 17 10 17 11 2 12 -10 0
-18 -5 -18 -10 0 -6 -10 -4 -22 4 -13 7 -48 16 -77 20 -35 3 -58 11 -64 21 -4
9 -22 29 -38 46 -25 26 -34 29 -62 24 -41 -9 -47 -13 -47 -30 0 -16 22 -25 66
-25 20 0 34 5 34 13 0 7 7 3 15 -7 8 -11 12 -23 8 -27 -14 -13 -666 51 -684
67 -23 20 -46 17 -63 -8z m713 -1 c6 -8 8 -17 4 -20 -9 -10 -56 -8 -73 3 -12
7 -10 11 10 19 35 14 46 13 59 -2z"/>
<path d="M551 1133 c0 -11 3 -13 6 -5 2 6 10 9 15 6 7 -4 8 -2 4 4 -11 18 -26
14 -25 -5z"/>
<path d="M225 1100 c-26 -7 -27 -8 -6 -9 18 -1 22 -5 16 -18 -16 -38 -23 -93
-30 -208 -3 -66 -11 -187 -16 -269 -6 -81 -8 -159 -5 -172 6 -24 8 -24 131
-24 132 0 140 -3 116 -48 -5 -9 -12 -24 -14 -32 -8 -27 -104 -49 -222 -51
-147 -4 -150 -2 -150 98 0 76 -1 78 -25 80 l-25 3 24 -10 c23 -10 23 -13 17
-85 -7 -74 -7 -74 21 -88 19 -9 51 -13 96 -10 l67 4 0 -29 c0 -17 -7 -43 -15
-58 -33 -63 -15 -80 93 -90 86 -8 107 -2 93 25 -16 28 -77 63 -100 56 -10 -3
-29 -1 -43 5 -20 10 -23 17 -20 51 4 38 5 39 41 39 32 0 92 15 151 37 8 4 22
5 30 4 10 -2 9 2 -5 13 -17 13 -18 18 -8 35 7 12 13 30 13 41 0 19 -6 20 -124
20 -77 0 -127 4 -131 11 -6 9 3 197 25 494 8 114 22 171 45 187 12 9 2 9 -40
-2z m55 -944 c36 -1 100 -38 100 -58 0 -16 -151 -1 -168 16 -20 19 -6 60 16
50 10 -4 33 -8 52 -8z"/>
<path d="M1112 1080 c-7 -11 -8 -20 -3 -20 6 0 14 7 19 16 11 20 59 15 53 -6
-7 -24 -20 -164 -31 -325 -12 -180 -15 -193 -48 -202 -14 -3 -145 0 -291 7
-146 8 -340 14 -431 14 l-165 1 -3 -66 -3 -66 288 -7 c158 -3 358 -8 443 -10
101 -3 68 0 -95 9 -137 7 -334 14 -437 14 l-188 1 0 55 c0 43 4 57 17 62 9 4
161 0 337 -8 177 -7 373 -14 436 -14 l115 0 13 27 c7 15 17 96 22 180 9 137
24 296 30 323 6 26 -2 35 -33 35 -21 0 -36 -7 -45 -20z"/>
<path d="M370 1075 c0 -9 7 -18 15 -21 12 -5 11 -9 -5 -27 -44 -47 -12 -72 85
-66 24 2 47 0 51 -4 12 -12 52 -8 61 6 4 6 11 30 15 52 6 36 7 35 4 -12 -3
-46 -1 -53 15 -53 12 0 19 7 18 18 0 10 -3 12 -6 5 -10 -27 -18 -11 -15 32 4
48 16 59 27 24 4 -11 9 -19 11 -16 2 2 1 15 -4 28 -9 23 -29 28 -106 30 -26 0
-29 -5 -37 -59 l-7 -47 1 55 1 55 -39 7 c-64 11 -85 9 -85 -7z m64 -4 c4 -5
-2 -23 -11 -39 -10 -17 -15 -34 -11 -37 11 -12 56 -13 52 -1 -2 6 1 27 5 46 9
34 9 33 10 -17 l1 -53 -42 0 c-64 0 -76 11 -50 47 20 28 20 31 4 46 -15 16
-15 17 10 17 15 0 29 -4 32 -9z m22 -46 c-4 -14 -13 -25 -21 -25 -12 0 -12 5
3 34 18 36 28 31 18 -9z m124 -9 c0 -40 -24 -65 -48 -49 -23 14 -27 66 -7 87
25 25 55 4 55 -38z"/>
<path d="M528 1023 c-6 -25 1 -43 17 -43 16 0 29 35 20 50 -10 16 -32 12 -37
-7z m27 -22 c-9 -16 -25 -3 -18 15 4 10 9 12 15 6 6 -6 7 -15 3 -21z"/>
<path d="M2535 915 c1 -108 6 -170 16 -190 10 -22 15 -118 19 -380 3 -192 7
-339 9 -325 5 51 1 577 -5 635 -4 33 -11 69 -17 80 -6 11 -14 92 -18 180 l-7
160 3 -160z"/>
<path d="M654 1048 c-5 -8 -2 -9 9 -5 14 5 16 0 10 -41 -7 -58 -10 -61 -22
-31 -9 23 -10 23 -10 2 -1 -12 3 -24 7 -27 4 -2 53 -7 107 -11 55 -3 112 -8
126 -11 26 -5 27 -3 34 46 4 29 3 55 -1 60 -5 4 -28 10 -51 14 -43 6 -43 6
-44 -26 -1 -18 -5 -44 -9 -58 -7 -19 -9 -12 -7 29 1 39 -3 55 -15 62 -27 15
-48 0 -49 -35 0 -17 -4 -40 -9 -51 -7 -16 -9 -14 -9 15 -1 19 -5 41 -10 49 -6
8 -7 -5 -5 -35 3 -34 2 -43 -5 -29 l-8 20 -5 -20 c-4 -14 -6 -12 -7 10 -1 51
10 77 30 72 11 -3 19 -1 19 4 0 13 -68 11 -76 -3z m134 -51 c2 -36 -1 -49 -13
-53 -9 -4 -21 -2 -26 3 -12 12 -1 45 12 37 5 -3 7 -10 4 -15 -4 -5 -1 -9 4 -9
17 0 13 27 -4 34 -15 6 -20 37 -8 50 16 15 28 -4 31 -47z m62 17 c0 -8 7 -14
15 -14 8 0 15 7 15 15 0 8 7 15 15 15 16 0 19 -19 9 -66 -5 -27 -8 -29 -46
-26 -39 4 -40 5 -34 34 3 17 6 39 6 50 0 10 5 16 10 13 6 -3 10 -13 10 -21z"/>
<path d="M870 965 c0 -8 2 -15 4 -15 2 0 6 7 10 15 3 8 1 15 -4 15 -6 0 -10
-7 -10 -15z"/>
<path d="M956 1018 c-3 -13 -6 -40 -6 -60 0 -36 1 -37 46 -44 48 -7 69 6 59
34 -3 8 -5 22 -5 33 0 14 -7 19 -30 19 -23 0 -30 4 -30 20 0 27 -26 25 -34 -2z
m37 -29 c7 -1 19 -1 28 0 18 2 33 -48 20 -62 -5 -5 -25 -5 -45 -2 -33 7 -36
10 -36 40 0 18 3 42 7 52 7 16 8 16 11 -4 2 -13 9 -24 15 -24z"/>
<path d="M984 965 c-4 -9 -4 -19 0 -22 3 -4 6 0 7 8 0 8 4 6 9 -6 8 -19 9 -19
9 2 1 27 -17 40 -25 18z"/>
<path d="M1714 1003 c-17 -3 -23 -14 -27 -46 -8 -55 7 -66 89 -65 58 0 65 2
70 23 12 48 1 70 -36 73 -19 2 -39 8 -44 13 -10 9 -15 9 -52 2z m86 -25 c33
-3 35 -5 35 -38 l0 -34 -60 -3 c-76 -3 -86 3 -78 49 4 27 11 38 27 40 11 2 26
1 31 -3 6 -4 26 -9 45 -11z"/>
<path d="M1725 950 c-4 -17 -5 -34 -2 -36 2 -3 7 10 11 27 8 42 0 50 -9 9z"/>
<path d="M1580 950 l0 -49 35 1 c20 1 38 5 41 9 7 12 -18 59 -33 59 -7 0 -13
7 -13 15 0 8 -7 15 -15 15 -11 0 -15 -12 -15 -50z m57 -10 c8 -12 9 -21 3 -25
-6 -3 -10 0 -10 7 0 9 -3 9 -10 -2 -8 -12 -10 -10 -11 10 l-1 25 -8 -25 -8
-25 -1 28 c-1 33 28 38 46 7z"/>
<path d="M1874 964 c-3 -13 -3 -35 0 -49 6 -23 11 -25 69 -26 34 -1 101 -3
149 -4 l87 -3 7 35 c12 65 5 68 -160 70 l-146 1 -6 -24z m46 6 c0 -5 -4 -10
-10 -10 -22 0 -9 -38 15 -42 13 -3 24 -2 23 1 0 3 0 18 1 32 l1 26 103 -1 c57
-1 108 -5 114 -9 6 -4 11 -18 11 -32 0 -13 -4 -22 -9 -19 -5 3 -6 -1 -3 -9 4
-12 -17 -13 -128 -10 -73 2 -139 5 -145 8 -14 5 -18 57 -6 68 10 11 33 8 33
-3z m15 -30 c-3 -5 -10 -10 -16 -10 -5 0 -9 5 -9 10 0 6 7 10 16 10 8 0 12 -4
9 -10z"/>
<path d="M2052 935 c0 -16 2 -22 5 -12 2 9 2 23 0 30 -3 6 -5 -1 -5 -18z"/>
<path d="M2121 940 c-1 -20 -3 -22 -11 -10 -6 9 -10 10 -10 3 0 -6 5 -15 10
-18 12 -7 24 19 17 37 -3 7 -6 2 -6 -12z"/>
<path d="M2072 930 c0 -14 2 -19 5 -12 2 6 2 18 0 25 -3 6 -5 1 -5 -13z"/>
<path d="M2332 978 c-7 -7 -12 -30 -12 -52 0 -21 -3 -36 -7 -32 -4 4 -7 19 -8
34 0 22 -5 27 -25 27 -22 0 -25 -5 -28 -37 l-3 -38 55 0 56 0 0 40 c0 22 5 40
10 40 6 0 10 7 10 15 0 18 -31 20 -48 3z m31 -5 c-8 -2 -13 -22 -13 -44 0 -21
-4 -39 -10 -39 -11 0 -14 49 -4 74 3 9 14 16 23 15 10 0 11 -2 4 -6z m-66 -53
c0 -22 -5 -30 -19 -30 -12 0 -18 7 -18 23 0 26 7 37 25 37 6 0 12 -13 12 -30z"/>
<path d="M15 880 c-3 -5 -3 -15 1 -22 5 -8 10 -6 15 8 12 30 10 -237 -2 -276
-15 -48 -19 -111 -7 -104 6 4 8 17 5 31 -2 13 2 40 9 61 19 55 19 312 0 312
-8 0 -18 -4 -21 -10z"/>
<path d="M256 879 c-3 -8 -4 -30 -3 -49 2 -30 5 -35 27 -35 20 0 26 6 28 28 4
37 22 35 22 -3 0 -47 26 -38 33 12 3 24 5 44 4 45 -1 1 -26 5 -55 9 -40 5 -53
3 -56 -7z m41 -36 c-2 -41 -29 -54 -36 -18 -3 18 -2 18 15 5 19 -14 19 -14 1
7 -20 23 -16 43 8 43 10 0 14 -11 12 -37z m60 21 c-3 -3 -12 -4 -19 -1 -8 3
-5 6 6 6 11 1 17 -2 13 -5z m-10 -51 c-3 -10 -5 -4 -5 12 0 17 2 24 5 18 2 -7
2 -21 0 -30z"/>
<path d="M384 860 c-1 -8 -4 -27 -9 -42 -6 -25 -4 -28 16 -29 13 0 31 -2 40
-4 14 -2 15 2 6 31 -6 19 -7 37 -4 41 11 10 17 -1 22 -37 2 -18 7 -35 10 -39
4 -3 6 1 5 9 -5 31 3 44 9 15 5 -25 11 -30 44 -33 l37 -3 0 50 0 50 -88 3
c-73 2 -88 0 -88 -12z m36 -14 c0 -8 3 -21 6 -30 5 -12 0 -16 -20 -16 -30 0
-29 0 -16 34 10 28 30 35 30 12z m130 -6 c0 -11 -4 -20 -10 -20 -5 0 -10 -5
-10 -11 0 -5 4 -8 8 -5 5 3 9 -2 9 -10 0 -8 -7 -13 -16 -12 -11 3 -16 14 -14
37 1 39 -6 34 -17 -11 l-8 -33 -1 37 c-1 29 -4 36 -16 32 -8 -4 -15 -1 -15 5
0 6 19 11 45 11 38 0 45 -3 45 -20z"/>
<path d="M603 849 c-7 -7 -13 -25 -13 -40 0 -33 14 -44 55 -45 84 -2 154 -7
293 -20 85 -8 162 -12 173 -9 21 7 30 67 13 84 -2 3 -73 7 -157 11 -130 5
-154 4 -164 -10 -11 -13 -12 -12 -13 8 0 17 -6 22 -24 22 -14 0 -28 -5 -31
-10 -4 -7 2 -9 19 -4 20 5 26 2 26 -9 0 -9 -4 -19 -10 -22 -5 -3 -10 -12 -10
-18 0 -8 3 -8 9 1 10 17 21 17 31 2 5 -8 10 -2 14 14 8 31 26 26 27 -7 1 -20
2 -20 9 3 8 24 8 24 9 3 1 -13 5 -23 10 -23 5 0 7 9 4 20 -6 22 12 28 20 8 4
-10 6 -10 6 0 1 7 15 12 39 11 20 0 31 -3 25 -6 -15 -6 -17 -39 -3 -48 11 -7
31 35 23 48 -2 4 19 7 47 7 l51 0 -7 -37 c-8 -46 -9 -47 -29 -40 -18 7 -21 28
-3 25 6 -2 13 6 15 17 1 11 0 14 -3 8 -8 -18 -22 -16 -27 5 -4 13 -5 11 -6 -5
0 -13 -6 -23 -12 -23 -6 0 -8 9 -4 23 5 17 4 19 -4 7 -6 -8 -11 -23 -11 -32 0
-12 -8 -18 -22 -18 -30 0 -45 10 -51 35 -4 17 -5 16 -6 -5 -1 -20 -3 -22 -11
-10 -6 9 -10 10 -10 3 0 -8 -20 -11 -71 -8 -40 3 -74 7 -77 9 -3 3 3 18 13 33
13 20 14 24 3 16 -8 -7 -19 -9 -23 -5 -5 4 -5 2 -2 -5 17 -28 -4 -42 -57 -39
-60 3 -76 10 -76 35 0 28 26 46 45 31 8 -7 16 -9 16 -4 1 5 5 -4 9 -21 l8 -30
1 28 c2 39 29 35 34 -5 4 -32 4 -32 5 5 2 33 -1 37 -22 37 -13 0 -36 3 -52 6
-17 3 -34 0 -41 -7z m518 -51 c3 -34 -10 -57 -33 -58 -10 0 -10 32 -2 54 7 19
33 21 35 4z"/>
<path d="M1511 838 c0 -21 1 -22 8 -4 7 18 8 18 14 -5 10 -34 8 -46 -3 -29 -8
13 -10 13 -10 -2 0 -18 17 -34 27 -25 3 3 2 24 -2 46 -7 44 -36 59 -34 19z"/>
<path d="M1572 853 c-16 -3 -22 -9 -18 -20 3 -8 6 -28 6 -43 0 -25 5 -30 33
-34 80 -12 137 -15 132 -6 -4 6 -1 10 4 10 6 0 11 -4 11 -10 0 -5 32 -9 70 -9
l70 0 0 40 c0 28 -4 39 -15 39 -10 0 -15 -9 -14 -27 l1 -28 8 25 c8 24 8 23 9
-7 1 -41 -21 -44 -35 -5 -8 21 -20 31 -44 35 -45 10 -88 9 -94 -2 -3 -4 6 -6
19 -3 20 3 25 0 25 -17 0 -13 -6 -21 -17 -21 -15 0 -16 2 -3 10 13 8 12 10 -3
10 -14 0 -17 -5 -12 -21 4 -12 3 -19 -2 -16 -5 3 -33 7 -61 8 l-52 3 0 43 c0
25 5 43 11 43 7 0 9 -10 5 -25 -6 -23 -5 -24 19 -15 14 5 25 6 25 1 0 -5 -5
-11 -12 -13 -9 -3 -9 -6 0 -12 8 -5 14 3 18 23 9 44 24 38 17 -6 -7 -49 2 -40
11 10 6 32 4 37 -12 37 -11 0 -22 -7 -26 -15 -8 -22 -26 -18 -26 5 0 20 -5 21
-48 13z m8 -48 c0 -19 -2 -35 -4 -35 -2 0 -6 16 -8 35 -2 19 0 35 4 35 4 0 8
-16 8 -35z m200 -25 c0 -20 -5 -30 -15 -30 -8 0 -15 5 -15 11 0 5 5 7 10 4 6
-3 10 1 10 10 0 9 -4 13 -10 10 -5 -3 -10 1 -10 9 0 9 7 16 15 16 10 0 15 -10
15 -30z m22 -5 c3 -14 1 -25 -3 -25 -5 0 -9 11 -9 25 0 14 2 25 4 25 2 0 6
-11 8 -25z m28 -15 c0 -13 -1 -13 -10 0 -5 8 -10 22 -10 30 0 13 1 13 10 0 5
-8 10 -22 10 -30z"/>
<path d="M0 840 c0 -6 7 -10 15 -10 8 0 15 2 15 4 0 2 -7 6 -15 10 -8 3 -15 1
-15 -4z"/>
<path d="M1917 833 c-10 -10 -8 -91 2 -97 5 -4 58 -8 118 -11 59 -3 126 -7
148 -9 22 -3 91 -7 154 -11 129 -7 131 -6 131 63 0 35 -3 42 -20 42 -17 0 -20
-6 -18 -47 l1 -48 4 43 c2 23 9 42 14 42 6 0 9 -19 7 -42 -2 -36 -7 -44 -26
-46 -16 -2 -25 3 -31 20 l-10 23 0 -23 c-1 -18 -6 -23 -23 -20 -18 2 -23 10
-23 33 0 26 3 30 25 28 22 -2 23 -1 7 8 -27 16 -47 3 -47 -31 0 -27 -3 -30
-30 -30 -29 0 -30 1 -30 47 0 25 3 43 7 39 4 -4 7 -23 6 -44 0 -26 1 -29 4 -9
2 15 8 27 13 27 5 0 11 -12 13 -27 l4 -28 2 28 c1 26 -28 67 -49 67 -5 0 -10
-22 -10 -50 0 -36 -4 -50 -14 -50 -7 0 -16 10 -20 23 -10 37 -5 44 9 12 l14
-30 -2 37 c-2 40 -4 43 -26 29 -9 -6 -12 -19 -8 -40 4 -18 2 -31 -3 -31 -6 0
-10 23 -10 50 0 52 -15 65 -39 36 -8 -9 -32 -12 -78 -11 -38 1 -58 1 -47 -2
14 -2 21 -11 19 -21 -1 -9 0 -11 2 -4 3 6 11 12 18 12 7 0 15 -6 18 -12 2 -7
3 -5 2 5 -2 9 2 17 8 17 7 0 12 -13 12 -29 0 -27 -2 -28 -45 -26 -25 1 -48 3
-52 4 -5 0 -8 21 -8 46 0 33 -4 45 -14 45 -11 0 -16 -14 -18 -47 -3 -46 -4
-47 -16 -23 -12 24 -12 24 -8 2 3 -18 0 -22 -12 -20 -20 4 -29 65 -13 81 8 8
11 5 11 -9 0 -12 7 -21 15 -21 19 0 19 2 -2 27 -19 21 -26 24 -36 13z m80 -75
c-2 -13 -4 -3 -4 22 0 25 2 35 4 23 2 -13 2 -33 0 -45z m185 -30 c-15 -15 -30
-2 -27 24 1 13 0 15 -2 6 -2 -10 -11 -18 -19 -18 -27 0 -14 35 19 50 l32 15 3
-34 c2 -18 -1 -38 -6 -43z"/>
<path d="M2172 760 c0 -19 2 -27 5 -17 2 9 2 25 0 35 -3 9 -5 1 -5 -18z"/>
<path d="M614 819 c-3 -6 -1 -16 5 -22 9 -9 14 -8 21 3 9 15 4 30 -10 30 -5 0
-12 -5 -16 -11z"/>
<path d="M2401 773 c0 -5 4 -17 9 -28 8 -17 8 -16 7 8 -1 15 -5 27 -9 27 -4 0
-8 -3 -7 -7z"/>
<path d="M2350 746 c0 -8 4 -17 9 -20 5 -4 7 3 4 14 -6 23 -13 26 -13 6z"/>
<path d="M380 722 c0 -11 7 -22 15 -26 11 -4 15 -20 15 -56 0 -36 4 -50 14
-50 17 0 26 22 26 62 0 16 9 41 19 54 l19 24 -1 -67 -2 -68 68 -3 67 -3 1 28
1 28 10 -27 c5 -17 18 -29 29 -29 10 -1 25 -2 32 -3 6 -1 17 1 22 5 6 4 17 4
25 -1 29 -19 40 -11 38 28 0 21 4 47 10 58 9 15 11 8 9 -37 -2 -32 2 -56 8
-57 5 0 20 -4 32 -7 55 -17 90 97 40 130 -19 12 -30 13 -57 3 -26 -9 -35 -9
-38 0 -2 7 -21 12 -42 12 -34 0 -38 -3 -44 -31 -3 -17 -6 -48 -7 -68 0 -29 -2
-32 -9 -16 -5 11 -6 40 -3 64 6 49 -3 61 -53 61 -32 0 -32 0 -40 -67 -4 -38
-9 -60 -11 -50 -3 9 -13 17 -24 17 -10 0 -19 5 -19 10 0 6 9 10 19 10 10 0 21
7 25 15 4 11 -1 15 -19 15 -14 0 -25 5 -25 10 0 6 9 10 20 10 30 0 24 28 -7
33 -16 3 -58 5 -95 6 -61 2 -68 0 -68 -17z m85 -2 c3 -6 -1 -13 -9 -16 -11 -4
-16 -19 -16 -49 0 -24 -4 -47 -10 -50 -6 -4 -10 13 -10 45 0 36 -4 52 -15 56
-8 4 -15 10 -15 15 0 12 67 11 75 -1z m85 0 c12 -8 11 -10 -7 -10 -16 0 -23
-6 -23 -20 0 -14 7 -20 23 -21 21 -1 21 -1 -3 -8 -31 -9 -33 -35 -2 -39 35 -5
26 -24 -10 -20 -38 3 -43 18 -33 84 6 45 22 55 55 34z m115 -62 c0 -60 -10
-76 -21 -33 -3 14 -12 25 -20 25 -8 0 -14 -10 -14 -25 0 -14 -5 -25 -11 -25
-8 0 -10 15 -5 46 3 26 6 53 6 61 0 10 10 13 33 11 l32 -3 0 -57z m109 36 c3
-8 2 -23 -3 -32 -5 -10 -7 -30 -4 -45 7 -34 -4 -35 -17 -2 -11 30 -30 33 -30
6 0 -11 -4 -23 -10 -26 -11 -7 -14 56 -4 93 8 27 58 32 68 6z m98 -1 c10 -9
18 -28 18 -43 0 -36 -31 -75 -54 -67 -36 14 -41 88 -8 115 20 15 22 15 44 -5z
m-135 -85 c-3 -8 -6 -5 -6 6 -1 11 2 17 5 13 3 -3 4 -12 1 -19z"/>
<path d="M610 685 c0 -8 9 -15 20 -15 11 0 20 7 20 15 0 8 -9 15 -20 15 -11 0
-20 -7 -20 -15z"/>
<path d="M727 694 c-14 -14 -7 -35 11 -32 9 2 17 10 17 17 0 16 -18 25 -28 15z"/>
<path d="M824 655 c-7 -29 11 -56 32 -48 8 3 14 19 14 39 0 27 -4 34 -20 34
-13 0 -22 -9 -26 -25z m36 -9 c0 -14 -5 -28 -10 -31 -13 -8 -24 20 -16 40 9
24 26 17 26 -9z"/>
<path d="M917 703 c-4 -3 -7 -35 -7 -70 0 -49 3 -63 15 -63 8 0 15 7 15 15 0
8 5 15 10 15 6 0 10 -7 10 -15 0 -8 8 -15 18 -15 15 0 18 10 20 64 1 58 0 64
-21 70 -29 8 -52 8 -60 -1z m60 -11 c6 -4 11 -29 10 -60 -2 -53 -11 -68 -20
-32 -6 23 -33 18 -40 -8 -3 -10 -5 8 -6 39 0 31 2 59 6 62 8 9 35 9 50 -1z"/>
<path d="M942 663 c5 -25 28 -28 28 -4 0 12 -6 21 -16 21 -9 0 -14 -7 -12 -17z"/>
<path d="M1476 643 c-3 -10 -2 -31 2 -48 11 -40 48 -49 317 -75 115 -12 269
-27 340 -35 72 -9 173 -17 225 -19 52 -2 77 -2 55 1 -22 2 -105 10 -185 19
-80 8 -237 24 -350 34 -264 26 -355 39 -377 55 -11 8 -17 26 -17 49 0 40 -2
44 -10 19z"/>
<path d="M1502 628 c-2 -44 1 -46 75 -58 65 -11 722 -78 823 -85 l65 -4 -65 9
c-36 5 -200 23 -365 40 -378 37 -486 50 -507 61 -9 5 -19 24 -21 42 -4 32 -4
32 -5 -5z"/>
<path d="M1628 655 c-17 -18 13 -44 50 -44 20 0 46 -1 57 -3 15 -2 20 2 19 20
-1 20 3 22 30 16 40 -8 54 -21 33 -30 -10 -3 -25 0 -34 7 -14 12 -16 12 -11
-1 7 -22 54 -25 62 -4 4 10 3 21 -3 27 -11 11 -193 22 -203 12z m120 -27 c4
-21 -11 -23 -30 -5 -15 14 -27 15 -46 3 -9 -5 -20 -2 -30 8 -16 16 -13 17 43
14 48 -2 60 -7 63 -20z"/>
<path d="M1931 633 c0 -24 1 -25 9 -8 8 19 8 19 18 -5 10 -24 11 -24 11 -3 1
13 -8 27 -19 33 -18 10 -20 8 -19 -17z"/>
<path d="M2044 639 c-3 -6 -19 -9 -34 -7 -23 4 -26 1 -22 -16 3 -11 7 -15 10
-8 5 16 49 16 56 0 3 -7 3 -2 -1 12 -5 22 -4 23 11 11 9 -7 16 -21 16 -31 0
-15 -8 -17 -62 -13 -35 2 -72 5 -83 7 -11 3 -28 5 -37 5 -26 1 -22 29 5 34 19
4 18 4 -5 6 -21 1 -28 -4 -28 -18 0 -11 -8 -22 -17 -24 -10 -3 0 -6 22 -7 22
-1 49 -3 60 -5 11 -3 47 -7 80 -9 33 -3 83 -8 112 -11 28 -3 54 -1 57 3 3 5
-11 9 -32 9 -60 1 -62 2 -62 26 0 36 -31 60 -46 36z"/>
<path d="M2120 605 c-19 -11 -21 -15 -7 -15 9 0 27 6 38 13 18 10 23 9 27 -2
4 -11 6 -11 13 0 7 12 9 11 9 -1 0 -13 1 -13 10 0 8 13 10 12 10 -2 0 -10 -4
-18 -10 -18 -5 0 -10 -5 -10 -11 0 -20 24 -3 31 22 6 20 7 18 8 -12 2 -63 61
-60 61 2 0 16 -1 29 -2 29 -2 1 -37 3 -78 5 -53 3 -82 0 -100 -10z m170 -24
c0 -24 -16 -45 -29 -37 -12 8 -15 48 -5 59 10 10 34 -5 34 -22z"/>
<path d="M387 513 c-4 -3 -7 -14 -7 -24 0 -16 9 -18 65 -18 54 1 65 4 65 17 0
15 -2 15 -10 2 -8 -12 -13 -13 -30 -2 -16 10 -20 10 -20 0 0 -9 -3 -8 -10 2
-6 10 -10 11 -10 3 0 -7 -9 -13 -20 -13 -11 0 -20 7 -20 15 0 12 14 15 68 15
73 0 112 -7 112 -21 0 -14 -38 -11 -43 4 -3 7 -6 5 -6 -5 -1 -14 7 -18 32 -19
113 -3 174 -7 265 -14 96 -7 102 -6 101 11 0 11 -3 14 -6 7 -7 -19 -53 -16
-53 2 0 11 12 15 49 15 54 0 68 -10 52 -37 -9 -16 -11 -16 -20 7 -9 23 -10 23
-10 4 -1 -12 5 -24 13 -27 19 -7 39 17 34 40 -3 15 -14 18 -68 18 -56 0 -65
-2 -62 -17 2 -12 -4 -18 -17 -18 -13 0 -21 8 -23 23 -3 20 -10 23 -92 30 -75
8 -91 6 -104 -7 -10 -10 -12 -16 -5 -16 7 0 15 5 18 10 10 17 63 11 74 -7 6
-11 11 -13 11 -5 0 17 82 12 88 -6 3 -10 -20 -12 -105 -9 -84 3 -108 7 -108
18 0 8 -11 17 -25 20 -34 9 -165 11 -173 2z"/>
<path d="M1764 409 c-10 -17 24 -39 60 -39 21 0 27 -3 19 -11 -7 -7 -30 -5
-78 10 -73 23 -105 26 -105 11 0 -5 7 -7 15 -4 23 9 165 -37 165 -54 0 -10 -7
-13 -22 -8 -13 3 -40 9 -60 12 l-36 6 -7 -46 c-11 -69 -27 -69 -23 1 3 53 1
58 -18 61 -19 3 -23 -3 -29 -45 -4 -26 -12 -54 -17 -61 -10 -11 -8 -35 8 -88
4 -17 0 -23 -21 -28 -22 -6 -25 -9 -15 -21 16 -19 31 -19 24 0 -8 19 13 19 49
1 28 -15 36 -9 16 11 -6 6 -18 9 -25 6 -8 -3 -14 0 -14 6 0 6 7 11 15 11 8 0
15 9 15 20 0 16 7 20 35 20 30 0 35 4 41 28 12 55 16 62 31 62 12 0 14 -11 11
-57 -3 -56 -2 -58 24 -61 21 -2 30 -11 38 -38 10 -29 14 -33 31 -24 16 9 18
18 13 49 -3 21 -2 46 3 56 14 24 4 65 -16 65 -12 0 -13 -2 -3 -9 7 -4 12 -16
12 -27 -8 -132 -12 -144 -32 -98 -7 16 -17 32 -22 35 -5 4 -4 20 3 39 13 39
14 87 2 94 -5 3 -4 25 1 51 5 25 8 52 5 58 -6 17 -83 21 -93 6z m76 -9 c8 -5
11 -12 8 -16 -10 -10 -79 6 -73 17 8 12 46 12 65 -1z m-158 -123 c-3 -46 -1
-57 11 -57 16 0 20 10 32 68 6 31 8 32 43 26 46 -8 82 -30 82 -50 0 -8 -5 -35
-11 -60 -16 -63 -35 -51 -31 19 4 55 3 57 -21 57 -22 0 -27 -6 -34 -42 -8 -41
-11 -43 -46 -46 -29 -3 -37 -7 -37 -23 0 -12 -5 -19 -12 -17 -17 6 -30 65 -19
86 5 9 12 36 16 60 10 64 31 48 27 -21z"/>
<path d="M477 328 c8 -45 20 -86 28 -92 7 -6 12 -22 11 -36 -3 -31 11 -50 35
-50 11 0 28 -16 41 -40 13 -22 27 -40 31 -40 5 0 0 15 -11 33 l-19 33 26 25
c14 13 35 26 46 29 33 9 31 52 -3 72 -33 20 -46 62 -36 115 l6 33 -84 0 -85 0
14 -82z m136 18 c-6 -56 5 -77 52 -104 25 -14 12 -46 -16 -39 -12 3 -19 3 -16
0 3 -3 -4 -16 -17 -30 -18 -19 -28 -23 -50 -17 -28 7 -47 38 -38 63 3 8 -2 19
-11 26 -10 7 -21 36 -27 65 -18 93 -19 90 59 90 l70 0 -6 -54z"/>
<path d="M652 383 c2 -11 13 -19 28 -20 22 -1 22 -1 3 4 -13 2 -23 9 -23 14 0
12 5 12 61 -8 46 -17 50 -17 80 1 23 14 43 17 82 13 35 -4 47 -3 37 4 -17 11
-140 8 -133 -4 10 -16 -26 -17 -62 -3 -51 21 -77 21 -73 -1z"/>
<path d="M1011 393 c-46 -3 -68 -9 -77 -21 -21 -27 -15 -40 5 -14 16 18 29 22
78 22 32 0 65 5 73 10 13 9 13 9 0 8 -8 -1 -44 -3 -79 -5z"/>
<path d="M856 362 c-12 -11 -5 -17 19 -17 14 0 25 3 25 6 0 9 -37 18 -44 11z"/>
<path d="M650 339 c-13 -9 -12 -10 2 -5 10 3 20 1 23 -4 3 -5 -5 -11 -17 -13
-20 -4 -19 -4 5 -6 29 -1 30 0 21 23 -7 19 -14 20 -34 5z"/>
<path d="M1247 334 c-9 -10 4 -34 19 -34 8 0 14 9 14 20 0 19 -19 27 -33 14z"/>
<path d="M1196 303 c-15 -15 -4 -40 25 -57 29 -17 31 -22 27 -67 -2 -30 1 -48
7 -46 6 2 10 28 10 58 l0 54 35 0 c29 0 36 -4 38 -22 3 -20 -1 -23 -30 -24
-31 -1 -31 -2 -8 -8 32 -10 52 6 48 38 -3 25 -6 26 -65 26 -36 0 -67 5 -74 12
-18 18 -2 29 21 15 11 -7 20 -8 20 -4 0 11 -46 32 -54 25z"/>
<path d="M1394 252 c-6 -4 -14 -33 -18 -64 -6 -56 -5 -58 18 -58 33 0 46 20
43 66 -4 56 -17 74 -43 56z m32 -58 c3 -37 -7 -54 -33 -54 -17 0 -16 15 1 32
10 10 11 19 4 32 -5 9 -7 24 -4 33 10 25 28 1 32 -43z"/>
<path d="M1544 245 c-4 -8 -10 -12 -15 -9 -5 3 -9 2 -8 -3 1 -4 -1 -19 -5 -33
-11 -40 9 -80 39 -80 25 0 26 1 19 53 -4 28 -9 54 -12 57 -3 3 -2 -19 1 -47 5
-42 3 -53 -8 -53 -8 0 -19 10 -26 21 -9 17 -7 29 7 60 11 22 24 37 32 34 6 -2
12 0 12 5 0 16 -30 11 -36 -5z"/>
<path d="M90 229 c0 -4 7 -23 16 -44 14 -34 14 -38 -3 -51 -26 -20 -33 -17
-33 12 0 14 4 23 9 20 4 -3 6 6 3 20 -6 34 -22 11 -22 -33 0 -39 11 -47 45
-31 24 11 29 10 46 -12 31 -42 25 -60 -20 -60 -31 0 -44 6 -60 26 -12 15 -21
22 -21 15 0 -6 9 -20 20 -31 23 -23 91 -28 108 -7 13 15 -5 57 -39 93 -10 11
-19 27 -19 35 0 14 -29 61 -30 48z"/>
<path d="M2430 164 c-6 -14 -10 -33 -10 -43 0 -9 -5 -22 -12 -29 -9 -9 -9 -12
0 -12 14 0 18 9 27 63 7 41 25 42 25 1 0 -24 47 -80 58 -69 3 3 -7 16 -21 29
-15 14 -27 36 -27 49 0 36 -28 43 -40 11z"/>
<path d="M1706 82 c-3 -5 8 -9 24 -9 16 0 27 4 24 9 -7 10 -41 10 -48 0z"/>
<path d="M2357 72 c-13 -3 -17 -11 -15 -30 l3 -27 104 0 c77 0 105 3 107 13 1
7 0 8 -3 2 -3 -6 -45 -10 -99 -10 -78 0 -96 3 -101 16 -9 23 17 35 46 21 17
-8 51 -10 96 -6 l70 5 -78 2 c-43 1 -86 6 -95 10 -9 5 -25 7 -35 4z"/>
<path d="M2138 65 c-4 -4 -114 -7 -245 -6 -131 0 -245 -4 -253 -9 -34 -21 15
-29 210 -34 113 -3 205 -6 205 -6 0 0 50 -2 112 -3 62 -1 109 1 105 5 -4 4
-67 8 -139 9 -106 1 -133 4 -137 16 -5 12 6 14 62 13 88 -1 126 -1 188 -1 44
0 53 -3 64 -24 18 -33 23 -26 7 8 -11 24 -17 27 -62 25 -27 -1 -64 2 -80 6
-17 4 -33 4 -37 1z m-151 -33 c3 -8 -6 -12 -26 -12 -17 0 -31 4 -31 9 0 5 -16
5 -36 1 -20 -5 -47 -5 -60 0 -15 6 -24 5 -28 -3 -4 -7 -8 -8 -11 -2 -3 6 -38
9 -80 8 -42 -1 -73 2 -70 7 9 14 338 7 342 -8z"/>
<path d="M448 40 c-10 -6 -18 -18 -18 -27 0 -11 4 -10 18 7 17 21 21 22 101
12 49 -6 87 -16 92 -24 7 -10 9 -9 9 4 0 17 -19 22 -130 33 -32 3 -62 1 -72
-5z"/>
</g>
</defs>
<mask id="mp16379">
  <use xlink:href="#gp16379" fill="white" />
</mask>
<use xlink:href="#gp16379" data-mask="url(#mp16379)" data-stroke="black" stroke-width="20px" fill="black"/>
</svg>
